G04 MADE WITH FRITZING*
G04 WWW.FRITZING.ORG*
G04 DOUBLE SIDED*
G04 HOLES PLATED*
G04 CONTOUR ON CENTER OF CONTOUR VECTOR*
%ASAXBY*%
%FSLAX23Y23*%
%MOIN*%
%OFA0B0*%
%SFA1.0B1.0*%
%ADD10R,0.390000X0.190000X0.370000X0.170000*%
%ADD11C,0.010000*%
%ADD12C,0.005000*%
%ADD13R,0.001000X0.001000*%
%LNSILK1*%
G90*
G70*
G54D11*
X599Y698D02*
X979Y698D01*
X979Y518D01*
X599Y518D01*
X599Y698D01*
D02*
X114Y396D02*
X114Y111D01*
D02*
X114Y111D02*
X330Y111D01*
D02*
X330Y111D02*
X330Y396D01*
D02*
X330Y396D02*
X114Y396D01*
G54D12*
D02*
X290Y111D02*
X290Y396D01*
G54D11*
D02*
X2035Y698D02*
X1035Y698D01*
D02*
X1035Y698D02*
X1035Y498D01*
D02*
X1035Y498D02*
X2035Y498D01*
D02*
X2035Y498D02*
X2035Y698D01*
D02*
X1029Y40D02*
X1429Y40D01*
D02*
X1429Y40D02*
X1429Y440D01*
D02*
X1429Y440D02*
X1029Y440D01*
D02*
X1029Y40D02*
X1029Y190D01*
D02*
X1029Y290D02*
X1029Y440D01*
D02*
X1942Y198D02*
X1542Y198D01*
D02*
X1542Y198D02*
X1542Y98D01*
D02*
X1542Y98D02*
X1942Y98D01*
D02*
X1942Y98D02*
X1942Y198D01*
G54D13*
X0Y741D02*
X2062Y741D01*
X0Y740D02*
X2062Y740D01*
X0Y739D02*
X2062Y739D01*
X0Y738D02*
X2062Y738D01*
X0Y737D02*
X2062Y737D01*
X0Y736D02*
X2062Y736D01*
X0Y735D02*
X2062Y735D01*
X0Y734D02*
X2062Y734D01*
X0Y733D02*
X7Y733D01*
X2055Y733D02*
X2062Y733D01*
X0Y732D02*
X7Y732D01*
X2055Y732D02*
X2062Y732D01*
X0Y731D02*
X7Y731D01*
X2055Y731D02*
X2062Y731D01*
X0Y730D02*
X7Y730D01*
X2055Y730D02*
X2062Y730D01*
X0Y729D02*
X7Y729D01*
X2055Y729D02*
X2062Y729D01*
X0Y728D02*
X7Y728D01*
X2055Y728D02*
X2062Y728D01*
X0Y727D02*
X7Y727D01*
X320Y727D02*
X323Y727D01*
X369Y727D02*
X401Y727D01*
X421Y727D02*
X438Y727D01*
X471Y727D02*
X498Y727D01*
X2055Y727D02*
X2062Y727D01*
X0Y726D02*
X7Y726D01*
X319Y726D02*
X324Y726D01*
X369Y726D02*
X402Y726D01*
X420Y726D02*
X440Y726D01*
X470Y726D02*
X500Y726D01*
X2055Y726D02*
X2062Y726D01*
X0Y725D02*
X7Y725D01*
X319Y725D02*
X324Y725D01*
X369Y725D02*
X402Y725D01*
X419Y725D02*
X441Y725D01*
X469Y725D02*
X501Y725D01*
X2055Y725D02*
X2062Y725D01*
X0Y724D02*
X7Y724D01*
X319Y724D02*
X325Y724D01*
X369Y724D02*
X402Y724D01*
X419Y724D02*
X442Y724D01*
X469Y724D02*
X502Y724D01*
X2055Y724D02*
X2062Y724D01*
X0Y723D02*
X7Y723D01*
X319Y723D02*
X325Y723D01*
X369Y723D02*
X402Y723D01*
X419Y723D02*
X443Y723D01*
X469Y723D02*
X502Y723D01*
X2055Y723D02*
X2062Y723D01*
X0Y722D02*
X7Y722D01*
X319Y722D02*
X325Y722D01*
X369Y722D02*
X402Y722D01*
X420Y722D02*
X444Y722D01*
X470Y722D02*
X503Y722D01*
X2055Y722D02*
X2062Y722D01*
X0Y721D02*
X7Y721D01*
X319Y721D02*
X325Y721D01*
X369Y721D02*
X400Y721D01*
X421Y721D02*
X444Y721D01*
X471Y721D02*
X503Y721D01*
X2055Y721D02*
X2062Y721D01*
X0Y720D02*
X7Y720D01*
X319Y720D02*
X325Y720D01*
X369Y720D02*
X375Y720D01*
X426Y720D02*
X432Y720D01*
X437Y720D02*
X445Y720D01*
X497Y720D02*
X503Y720D01*
X2055Y720D02*
X2062Y720D01*
X0Y719D02*
X7Y719D01*
X319Y719D02*
X325Y719D01*
X369Y719D02*
X375Y719D01*
X426Y719D02*
X432Y719D01*
X438Y719D02*
X445Y719D01*
X497Y719D02*
X503Y719D01*
X2055Y719D02*
X2062Y719D01*
X0Y718D02*
X7Y718D01*
X319Y718D02*
X325Y718D01*
X369Y718D02*
X375Y718D01*
X426Y718D02*
X432Y718D01*
X439Y718D02*
X446Y718D01*
X497Y718D02*
X503Y718D01*
X2055Y718D02*
X2062Y718D01*
X0Y717D02*
X7Y717D01*
X319Y717D02*
X325Y717D01*
X369Y717D02*
X375Y717D01*
X426Y717D02*
X432Y717D01*
X439Y717D02*
X446Y717D01*
X497Y717D02*
X503Y717D01*
X2055Y717D02*
X2062Y717D01*
X0Y716D02*
X7Y716D01*
X319Y716D02*
X325Y716D01*
X369Y716D02*
X375Y716D01*
X426Y716D02*
X432Y716D01*
X440Y716D02*
X447Y716D01*
X497Y716D02*
X503Y716D01*
X2055Y716D02*
X2062Y716D01*
X0Y715D02*
X7Y715D01*
X61Y715D02*
X64Y715D01*
X110Y715D02*
X142Y715D01*
X161Y715D02*
X179Y715D01*
X212Y715D02*
X230Y715D01*
X319Y715D02*
X325Y715D01*
X369Y715D02*
X375Y715D01*
X426Y715D02*
X432Y715D01*
X440Y715D02*
X447Y715D01*
X497Y715D02*
X503Y715D01*
X2055Y715D02*
X2062Y715D01*
X0Y714D02*
X7Y714D01*
X60Y714D02*
X65Y714D01*
X110Y714D02*
X143Y714D01*
X161Y714D02*
X181Y714D01*
X211Y714D02*
X230Y714D01*
X319Y714D02*
X325Y714D01*
X369Y714D02*
X375Y714D01*
X426Y714D02*
X432Y714D01*
X441Y714D02*
X448Y714D01*
X497Y714D02*
X503Y714D01*
X2055Y714D02*
X2062Y714D01*
X0Y713D02*
X7Y713D01*
X60Y713D02*
X65Y713D01*
X110Y713D02*
X143Y713D01*
X160Y713D02*
X182Y713D01*
X210Y713D02*
X230Y713D01*
X319Y713D02*
X325Y713D01*
X369Y713D02*
X375Y713D01*
X426Y713D02*
X432Y713D01*
X441Y713D02*
X448Y713D01*
X497Y713D02*
X503Y713D01*
X2055Y713D02*
X2062Y713D01*
X0Y712D02*
X7Y712D01*
X60Y712D02*
X66Y712D01*
X110Y712D02*
X143Y712D01*
X160Y712D02*
X183Y712D01*
X210Y712D02*
X230Y712D01*
X319Y712D02*
X325Y712D01*
X369Y712D02*
X375Y712D01*
X426Y712D02*
X432Y712D01*
X442Y712D02*
X449Y712D01*
X497Y712D02*
X503Y712D01*
X2055Y712D02*
X2062Y712D01*
X0Y711D02*
X7Y711D01*
X60Y711D02*
X66Y711D01*
X110Y711D02*
X143Y711D01*
X160Y711D02*
X184Y711D01*
X210Y711D02*
X230Y711D01*
X319Y711D02*
X325Y711D01*
X369Y711D02*
X375Y711D01*
X426Y711D02*
X432Y711D01*
X442Y711D02*
X449Y711D01*
X497Y711D02*
X503Y711D01*
X2055Y711D02*
X2062Y711D01*
X0Y710D02*
X7Y710D01*
X60Y710D02*
X66Y710D01*
X110Y710D02*
X142Y710D01*
X161Y710D02*
X185Y710D01*
X211Y710D02*
X230Y710D01*
X319Y710D02*
X325Y710D01*
X369Y710D02*
X375Y710D01*
X426Y710D02*
X432Y710D01*
X443Y710D02*
X450Y710D01*
X497Y710D02*
X503Y710D01*
X2055Y710D02*
X2062Y710D01*
X0Y709D02*
X7Y709D01*
X60Y709D02*
X66Y709D01*
X110Y709D02*
X141Y709D01*
X162Y709D02*
X185Y709D01*
X212Y709D02*
X230Y709D01*
X319Y709D02*
X325Y709D01*
X369Y709D02*
X375Y709D01*
X426Y709D02*
X432Y709D01*
X443Y709D02*
X450Y709D01*
X497Y709D02*
X503Y709D01*
X2055Y709D02*
X2062Y709D01*
X0Y708D02*
X7Y708D01*
X60Y708D02*
X66Y708D01*
X110Y708D02*
X116Y708D01*
X167Y708D02*
X173Y708D01*
X178Y708D02*
X186Y708D01*
X224Y708D02*
X230Y708D01*
X319Y708D02*
X325Y708D01*
X369Y708D02*
X375Y708D01*
X426Y708D02*
X432Y708D01*
X444Y708D02*
X451Y708D01*
X497Y708D02*
X503Y708D01*
X2055Y708D02*
X2062Y708D01*
X0Y707D02*
X7Y707D01*
X60Y707D02*
X66Y707D01*
X110Y707D02*
X116Y707D01*
X167Y707D02*
X173Y707D01*
X179Y707D02*
X186Y707D01*
X224Y707D02*
X230Y707D01*
X319Y707D02*
X325Y707D01*
X369Y707D02*
X375Y707D01*
X426Y707D02*
X432Y707D01*
X444Y707D02*
X451Y707D01*
X497Y707D02*
X503Y707D01*
X2055Y707D02*
X2062Y707D01*
X0Y706D02*
X7Y706D01*
X60Y706D02*
X66Y706D01*
X110Y706D02*
X116Y706D01*
X167Y706D02*
X173Y706D01*
X180Y706D02*
X187Y706D01*
X224Y706D02*
X230Y706D01*
X319Y706D02*
X325Y706D01*
X369Y706D02*
X375Y706D01*
X426Y706D02*
X432Y706D01*
X445Y706D02*
X451Y706D01*
X497Y706D02*
X503Y706D01*
X2055Y706D02*
X2062Y706D01*
X0Y705D02*
X7Y705D01*
X60Y705D02*
X66Y705D01*
X110Y705D02*
X116Y705D01*
X167Y705D02*
X173Y705D01*
X180Y705D02*
X187Y705D01*
X224Y705D02*
X230Y705D01*
X319Y705D02*
X325Y705D01*
X369Y705D02*
X375Y705D01*
X426Y705D02*
X432Y705D01*
X445Y705D02*
X452Y705D01*
X497Y705D02*
X503Y705D01*
X2055Y705D02*
X2062Y705D01*
X0Y704D02*
X7Y704D01*
X60Y704D02*
X66Y704D01*
X110Y704D02*
X116Y704D01*
X167Y704D02*
X173Y704D01*
X181Y704D02*
X188Y704D01*
X224Y704D02*
X230Y704D01*
X319Y704D02*
X325Y704D01*
X369Y704D02*
X386Y704D01*
X426Y704D02*
X432Y704D01*
X446Y704D02*
X452Y704D01*
X476Y704D02*
X503Y704D01*
X2055Y704D02*
X2062Y704D01*
X0Y703D02*
X7Y703D01*
X60Y703D02*
X66Y703D01*
X110Y703D02*
X116Y703D01*
X167Y703D02*
X173Y703D01*
X181Y703D02*
X188Y703D01*
X224Y703D02*
X230Y703D01*
X319Y703D02*
X325Y703D01*
X369Y703D02*
X387Y703D01*
X426Y703D02*
X432Y703D01*
X446Y703D02*
X452Y703D01*
X473Y703D02*
X503Y703D01*
X2055Y703D02*
X2062Y703D01*
X0Y702D02*
X7Y702D01*
X60Y702D02*
X66Y702D01*
X110Y702D02*
X116Y702D01*
X167Y702D02*
X173Y702D01*
X182Y702D02*
X189Y702D01*
X224Y702D02*
X230Y702D01*
X319Y702D02*
X325Y702D01*
X369Y702D02*
X388Y702D01*
X426Y702D02*
X432Y702D01*
X446Y702D02*
X452Y702D01*
X471Y702D02*
X502Y702D01*
X2055Y702D02*
X2062Y702D01*
X0Y701D02*
X7Y701D01*
X60Y701D02*
X66Y701D01*
X110Y701D02*
X116Y701D01*
X167Y701D02*
X173Y701D01*
X182Y701D02*
X189Y701D01*
X224Y701D02*
X230Y701D01*
X319Y701D02*
X325Y701D01*
X369Y701D02*
X388Y701D01*
X426Y701D02*
X432Y701D01*
X446Y701D02*
X453Y701D01*
X470Y701D02*
X502Y701D01*
X2055Y701D02*
X2062Y701D01*
X0Y700D02*
X7Y700D01*
X60Y700D02*
X66Y700D01*
X110Y700D02*
X116Y700D01*
X167Y700D02*
X173Y700D01*
X183Y700D02*
X190Y700D01*
X224Y700D02*
X230Y700D01*
X319Y700D02*
X325Y700D01*
X369Y700D02*
X388Y700D01*
X426Y700D02*
X432Y700D01*
X446Y700D02*
X453Y700D01*
X470Y700D02*
X501Y700D01*
X2000Y700D02*
X2001Y700D01*
X2055Y700D02*
X2062Y700D01*
X0Y699D02*
X7Y699D01*
X60Y699D02*
X66Y699D01*
X110Y699D02*
X116Y699D01*
X167Y699D02*
X173Y699D01*
X183Y699D02*
X190Y699D01*
X224Y699D02*
X230Y699D01*
X319Y699D02*
X325Y699D01*
X369Y699D02*
X388Y699D01*
X426Y699D02*
X432Y699D01*
X446Y699D02*
X452Y699D01*
X469Y699D02*
X500Y699D01*
X1999Y699D02*
X2002Y699D01*
X2055Y699D02*
X2062Y699D01*
X0Y698D02*
X7Y698D01*
X60Y698D02*
X66Y698D01*
X110Y698D02*
X116Y698D01*
X167Y698D02*
X173Y698D01*
X184Y698D02*
X191Y698D01*
X224Y698D02*
X230Y698D01*
X319Y698D02*
X325Y698D01*
X369Y698D02*
X387Y698D01*
X426Y698D02*
X432Y698D01*
X446Y698D02*
X452Y698D01*
X469Y698D02*
X499Y698D01*
X1998Y698D02*
X2003Y698D01*
X2055Y698D02*
X2062Y698D01*
X0Y697D02*
X7Y697D01*
X60Y697D02*
X66Y697D01*
X110Y697D02*
X116Y697D01*
X167Y697D02*
X173Y697D01*
X184Y697D02*
X191Y697D01*
X224Y697D02*
X230Y697D01*
X319Y697D02*
X325Y697D01*
X369Y697D02*
X375Y697D01*
X426Y697D02*
X432Y697D01*
X446Y697D02*
X452Y697D01*
X469Y697D02*
X476Y697D01*
X1998Y697D02*
X2004Y697D01*
X2055Y697D02*
X2062Y697D01*
X0Y696D02*
X7Y696D01*
X60Y696D02*
X66Y696D01*
X110Y696D02*
X116Y696D01*
X167Y696D02*
X173Y696D01*
X185Y696D02*
X192Y696D01*
X224Y696D02*
X230Y696D01*
X319Y696D02*
X325Y696D01*
X369Y696D02*
X375Y696D01*
X426Y696D02*
X432Y696D01*
X445Y696D02*
X452Y696D01*
X469Y696D02*
X475Y696D01*
X1999Y696D02*
X2005Y696D01*
X2055Y696D02*
X2062Y696D01*
X0Y695D02*
X7Y695D01*
X60Y695D02*
X66Y695D01*
X110Y695D02*
X116Y695D01*
X167Y695D02*
X173Y695D01*
X185Y695D02*
X192Y695D01*
X224Y695D02*
X230Y695D01*
X319Y695D02*
X325Y695D01*
X369Y695D02*
X375Y695D01*
X426Y695D02*
X432Y695D01*
X445Y695D02*
X451Y695D01*
X469Y695D02*
X475Y695D01*
X2000Y695D02*
X2006Y695D01*
X2055Y695D02*
X2062Y695D01*
X0Y694D02*
X7Y694D01*
X60Y694D02*
X66Y694D01*
X110Y694D02*
X116Y694D01*
X167Y694D02*
X173Y694D01*
X186Y694D02*
X192Y694D01*
X224Y694D02*
X230Y694D01*
X319Y694D02*
X325Y694D01*
X369Y694D02*
X375Y694D01*
X426Y694D02*
X432Y694D01*
X444Y694D02*
X451Y694D01*
X469Y694D02*
X475Y694D01*
X2001Y694D02*
X2007Y694D01*
X2055Y694D02*
X2062Y694D01*
X0Y693D02*
X7Y693D01*
X60Y693D02*
X66Y693D01*
X110Y693D02*
X116Y693D01*
X167Y693D02*
X173Y693D01*
X186Y693D02*
X193Y693D01*
X224Y693D02*
X230Y693D01*
X319Y693D02*
X325Y693D01*
X369Y693D02*
X375Y693D01*
X426Y693D02*
X432Y693D01*
X444Y693D02*
X451Y693D01*
X469Y693D02*
X475Y693D01*
X2002Y693D02*
X2008Y693D01*
X2055Y693D02*
X2062Y693D01*
X0Y692D02*
X7Y692D01*
X60Y692D02*
X66Y692D01*
X110Y692D02*
X127Y692D01*
X167Y692D02*
X173Y692D01*
X187Y692D02*
X193Y692D01*
X224Y692D02*
X230Y692D01*
X319Y692D02*
X325Y692D01*
X369Y692D02*
X375Y692D01*
X426Y692D02*
X432Y692D01*
X443Y692D02*
X450Y692D01*
X469Y692D02*
X475Y692D01*
X2003Y692D02*
X2009Y692D01*
X2055Y692D02*
X2062Y692D01*
X0Y691D02*
X7Y691D01*
X60Y691D02*
X66Y691D01*
X110Y691D02*
X129Y691D01*
X167Y691D02*
X173Y691D01*
X187Y691D02*
X193Y691D01*
X224Y691D02*
X230Y691D01*
X319Y691D02*
X325Y691D01*
X369Y691D02*
X375Y691D01*
X426Y691D02*
X432Y691D01*
X443Y691D02*
X450Y691D01*
X469Y691D02*
X475Y691D01*
X2004Y691D02*
X2010Y691D01*
X2055Y691D02*
X2062Y691D01*
X0Y690D02*
X7Y690D01*
X60Y690D02*
X66Y690D01*
X110Y690D02*
X129Y690D01*
X167Y690D02*
X173Y690D01*
X187Y690D02*
X193Y690D01*
X224Y690D02*
X230Y690D01*
X319Y690D02*
X325Y690D01*
X369Y690D02*
X375Y690D01*
X426Y690D02*
X432Y690D01*
X442Y690D02*
X449Y690D01*
X469Y690D02*
X475Y690D01*
X688Y690D02*
X720Y690D01*
X890Y690D02*
X908Y690D01*
X2005Y690D02*
X2011Y690D01*
X2055Y690D02*
X2062Y690D01*
X0Y689D02*
X7Y689D01*
X60Y689D02*
X66Y689D01*
X110Y689D02*
X129Y689D01*
X167Y689D02*
X173Y689D01*
X187Y689D02*
X194Y689D01*
X224Y689D02*
X230Y689D01*
X319Y689D02*
X325Y689D01*
X369Y689D02*
X375Y689D01*
X426Y689D02*
X432Y689D01*
X442Y689D02*
X449Y689D01*
X469Y689D02*
X475Y689D01*
X688Y689D02*
X721Y689D01*
X889Y689D02*
X908Y689D01*
X2006Y689D02*
X2012Y689D01*
X2055Y689D02*
X2062Y689D01*
X0Y688D02*
X7Y688D01*
X60Y688D02*
X66Y688D01*
X110Y688D02*
X129Y688D01*
X167Y688D02*
X173Y688D01*
X187Y688D02*
X194Y688D01*
X224Y688D02*
X230Y688D01*
X319Y688D02*
X325Y688D01*
X369Y688D02*
X375Y688D01*
X426Y688D02*
X432Y688D01*
X441Y688D02*
X448Y688D01*
X469Y688D02*
X475Y688D01*
X688Y688D02*
X721Y688D01*
X888Y688D02*
X908Y688D01*
X2007Y688D02*
X2013Y688D01*
X2055Y688D02*
X2062Y688D01*
X0Y687D02*
X7Y687D01*
X60Y687D02*
X66Y687D01*
X110Y687D02*
X129Y687D01*
X167Y687D02*
X173Y687D01*
X187Y687D02*
X193Y687D01*
X224Y687D02*
X230Y687D01*
X319Y687D02*
X325Y687D01*
X369Y687D02*
X375Y687D01*
X426Y687D02*
X432Y687D01*
X441Y687D02*
X448Y687D01*
X469Y687D02*
X475Y687D01*
X688Y687D02*
X721Y687D01*
X888Y687D02*
X908Y687D01*
X2008Y687D02*
X2014Y687D01*
X2055Y687D02*
X2062Y687D01*
X0Y686D02*
X7Y686D01*
X60Y686D02*
X66Y686D01*
X110Y686D02*
X128Y686D01*
X167Y686D02*
X173Y686D01*
X187Y686D02*
X193Y686D01*
X224Y686D02*
X230Y686D01*
X240Y686D02*
X242Y686D01*
X319Y686D02*
X325Y686D01*
X369Y686D02*
X375Y686D01*
X426Y686D02*
X432Y686D01*
X440Y686D02*
X447Y686D01*
X469Y686D02*
X475Y686D01*
X688Y686D02*
X721Y686D01*
X889Y686D02*
X908Y686D01*
X2009Y686D02*
X2015Y686D01*
X2055Y686D02*
X2062Y686D01*
X0Y685D02*
X7Y685D01*
X60Y685D02*
X66Y685D01*
X110Y685D02*
X116Y685D01*
X167Y685D02*
X173Y685D01*
X187Y685D02*
X193Y685D01*
X224Y685D02*
X230Y685D01*
X239Y685D02*
X243Y685D01*
X319Y685D02*
X325Y685D01*
X369Y685D02*
X375Y685D01*
X426Y685D02*
X432Y685D01*
X440Y685D02*
X447Y685D01*
X469Y685D02*
X475Y685D01*
X688Y685D02*
X720Y685D01*
X889Y685D02*
X908Y685D01*
X2010Y685D02*
X2016Y685D01*
X2055Y685D02*
X2062Y685D01*
X0Y684D02*
X7Y684D01*
X60Y684D02*
X66Y684D01*
X110Y684D02*
X116Y684D01*
X167Y684D02*
X173Y684D01*
X186Y684D02*
X193Y684D01*
X224Y684D02*
X230Y684D01*
X238Y684D02*
X243Y684D01*
X319Y684D02*
X325Y684D01*
X369Y684D02*
X375Y684D01*
X426Y684D02*
X432Y684D01*
X439Y684D02*
X446Y684D01*
X469Y684D02*
X475Y684D01*
X688Y684D02*
X718Y684D01*
X891Y684D02*
X908Y684D01*
X2011Y684D02*
X2017Y684D01*
X2055Y684D02*
X2062Y684D01*
X0Y683D02*
X7Y683D01*
X60Y683D02*
X66Y683D01*
X110Y683D02*
X116Y683D01*
X167Y683D02*
X173Y683D01*
X186Y683D02*
X192Y683D01*
X224Y683D02*
X230Y683D01*
X238Y683D02*
X244Y683D01*
X319Y683D02*
X325Y683D01*
X369Y683D02*
X375Y683D01*
X426Y683D02*
X432Y683D01*
X439Y683D02*
X446Y683D01*
X469Y683D02*
X475Y683D01*
X688Y683D02*
X694Y683D01*
X902Y683D02*
X908Y683D01*
X2013Y683D02*
X2018Y683D01*
X2055Y683D02*
X2062Y683D01*
X0Y682D02*
X7Y682D01*
X60Y682D02*
X66Y682D01*
X110Y682D02*
X116Y682D01*
X167Y682D02*
X173Y682D01*
X185Y682D02*
X192Y682D01*
X224Y682D02*
X230Y682D01*
X238Y682D02*
X244Y682D01*
X319Y682D02*
X325Y682D01*
X369Y682D02*
X375Y682D01*
X426Y682D02*
X432Y682D01*
X438Y682D02*
X445Y682D01*
X469Y682D02*
X475Y682D01*
X688Y682D02*
X694Y682D01*
X902Y682D02*
X908Y682D01*
X2014Y682D02*
X2019Y682D01*
X2055Y682D02*
X2062Y682D01*
X0Y681D02*
X7Y681D01*
X60Y681D02*
X66Y681D01*
X110Y681D02*
X116Y681D01*
X167Y681D02*
X173Y681D01*
X185Y681D02*
X192Y681D01*
X224Y681D02*
X230Y681D01*
X238Y681D02*
X244Y681D01*
X319Y681D02*
X325Y681D01*
X369Y681D02*
X375Y681D01*
X426Y681D02*
X432Y681D01*
X437Y681D02*
X445Y681D01*
X469Y681D02*
X475Y681D01*
X688Y681D02*
X694Y681D01*
X902Y681D02*
X908Y681D01*
X2015Y681D02*
X2020Y681D01*
X2055Y681D02*
X2062Y681D01*
X0Y680D02*
X7Y680D01*
X60Y680D02*
X66Y680D01*
X110Y680D02*
X116Y680D01*
X167Y680D02*
X173Y680D01*
X184Y680D02*
X191Y680D01*
X224Y680D02*
X230Y680D01*
X238Y680D02*
X244Y680D01*
X319Y680D02*
X350Y680D01*
X369Y680D02*
X401Y680D01*
X421Y680D02*
X444Y680D01*
X469Y680D02*
X501Y680D01*
X688Y680D02*
X694Y680D01*
X902Y680D02*
X908Y680D01*
X2016Y680D02*
X2021Y680D01*
X2055Y680D02*
X2062Y680D01*
X0Y679D02*
X7Y679D01*
X60Y679D02*
X66Y679D01*
X110Y679D02*
X116Y679D01*
X167Y679D02*
X173Y679D01*
X184Y679D02*
X191Y679D01*
X224Y679D02*
X230Y679D01*
X238Y679D02*
X244Y679D01*
X319Y679D02*
X351Y679D01*
X369Y679D02*
X402Y679D01*
X420Y679D02*
X444Y679D01*
X469Y679D02*
X502Y679D01*
X688Y679D02*
X694Y679D01*
X902Y679D02*
X908Y679D01*
X2017Y679D02*
X2022Y679D01*
X2055Y679D02*
X2062Y679D01*
X0Y678D02*
X7Y678D01*
X60Y678D02*
X66Y678D01*
X110Y678D02*
X116Y678D01*
X167Y678D02*
X173Y678D01*
X183Y678D02*
X190Y678D01*
X224Y678D02*
X230Y678D01*
X238Y678D02*
X244Y678D01*
X319Y678D02*
X352Y678D01*
X369Y678D02*
X402Y678D01*
X419Y678D02*
X443Y678D01*
X469Y678D02*
X503Y678D01*
X688Y678D02*
X694Y678D01*
X902Y678D02*
X908Y678D01*
X2018Y678D02*
X2023Y678D01*
X2055Y678D02*
X2062Y678D01*
X0Y677D02*
X7Y677D01*
X60Y677D02*
X66Y677D01*
X110Y677D02*
X116Y677D01*
X167Y677D02*
X173Y677D01*
X183Y677D02*
X190Y677D01*
X224Y677D02*
X230Y677D01*
X238Y677D02*
X244Y677D01*
X319Y677D02*
X352Y677D01*
X369Y677D02*
X402Y677D01*
X419Y677D02*
X442Y677D01*
X469Y677D02*
X503Y677D01*
X688Y677D02*
X694Y677D01*
X902Y677D02*
X908Y677D01*
X2019Y677D02*
X2024Y677D01*
X2055Y677D02*
X2062Y677D01*
X0Y676D02*
X7Y676D01*
X60Y676D02*
X66Y676D01*
X110Y676D02*
X116Y676D01*
X167Y676D02*
X173Y676D01*
X182Y676D02*
X189Y676D01*
X224Y676D02*
X230Y676D01*
X238Y676D02*
X244Y676D01*
X319Y676D02*
X352Y676D01*
X369Y676D02*
X402Y676D01*
X419Y676D02*
X441Y676D01*
X469Y676D02*
X503Y676D01*
X688Y676D02*
X694Y676D01*
X740Y676D02*
X741Y676D01*
X768Y676D02*
X769Y676D01*
X796Y676D02*
X814Y676D01*
X849Y676D02*
X861Y676D01*
X902Y676D02*
X908Y676D01*
X2019Y676D02*
X2025Y676D01*
X2055Y676D02*
X2062Y676D01*
X0Y675D02*
X7Y675D01*
X60Y675D02*
X66Y675D01*
X110Y675D02*
X116Y675D01*
X167Y675D02*
X173Y675D01*
X182Y675D02*
X189Y675D01*
X224Y675D02*
X230Y675D01*
X238Y675D02*
X244Y675D01*
X319Y675D02*
X351Y675D01*
X369Y675D02*
X402Y675D01*
X420Y675D02*
X440Y675D01*
X469Y675D02*
X502Y675D01*
X688Y675D02*
X694Y675D01*
X739Y675D02*
X743Y675D01*
X766Y675D02*
X770Y675D01*
X793Y675D02*
X816Y675D01*
X846Y675D02*
X864Y675D01*
X902Y675D02*
X908Y675D01*
X2020Y675D02*
X2026Y675D01*
X2055Y675D02*
X2062Y675D01*
X0Y674D02*
X7Y674D01*
X60Y674D02*
X66Y674D01*
X110Y674D02*
X116Y674D01*
X167Y674D02*
X173Y674D01*
X181Y674D02*
X188Y674D01*
X224Y674D02*
X230Y674D01*
X238Y674D02*
X244Y674D01*
X319Y674D02*
X350Y674D01*
X369Y674D02*
X401Y674D01*
X421Y674D02*
X438Y674D01*
X469Y674D02*
X501Y674D01*
X688Y674D02*
X694Y674D01*
X738Y674D02*
X743Y674D01*
X766Y674D02*
X771Y674D01*
X792Y674D02*
X818Y674D01*
X845Y674D02*
X865Y674D01*
X902Y674D02*
X908Y674D01*
X2021Y674D02*
X2027Y674D01*
X2055Y674D02*
X2062Y674D01*
X0Y673D02*
X7Y673D01*
X60Y673D02*
X66Y673D01*
X110Y673D02*
X116Y673D01*
X167Y673D02*
X173Y673D01*
X181Y673D02*
X188Y673D01*
X224Y673D02*
X230Y673D01*
X238Y673D02*
X244Y673D01*
X688Y673D02*
X712Y673D01*
X738Y673D02*
X744Y673D01*
X765Y673D02*
X771Y673D01*
X791Y673D02*
X819Y673D01*
X843Y673D02*
X866Y673D01*
X902Y673D02*
X908Y673D01*
X2022Y673D02*
X2028Y673D01*
X2055Y673D02*
X2062Y673D01*
X0Y672D02*
X7Y672D01*
X60Y672D02*
X66Y672D01*
X110Y672D02*
X116Y672D01*
X167Y672D02*
X173Y672D01*
X180Y672D02*
X187Y672D01*
X224Y672D02*
X230Y672D01*
X238Y672D02*
X244Y672D01*
X688Y672D02*
X713Y672D01*
X738Y672D02*
X744Y672D01*
X765Y672D02*
X771Y672D01*
X790Y672D02*
X820Y672D01*
X842Y672D02*
X868Y672D01*
X902Y672D02*
X908Y672D01*
X2023Y672D02*
X2029Y672D01*
X2055Y672D02*
X2062Y672D01*
X0Y671D02*
X7Y671D01*
X60Y671D02*
X66Y671D01*
X110Y671D02*
X116Y671D01*
X167Y671D02*
X173Y671D01*
X180Y671D02*
X187Y671D01*
X224Y671D02*
X230Y671D01*
X238Y671D02*
X244Y671D01*
X688Y671D02*
X714Y671D01*
X738Y671D02*
X744Y671D01*
X765Y671D02*
X771Y671D01*
X790Y671D02*
X820Y671D01*
X841Y671D02*
X869Y671D01*
X902Y671D02*
X908Y671D01*
X2024Y671D02*
X2030Y671D01*
X2055Y671D02*
X2062Y671D01*
X0Y670D02*
X7Y670D01*
X60Y670D02*
X66Y670D01*
X110Y670D02*
X116Y670D01*
X167Y670D02*
X173Y670D01*
X179Y670D02*
X186Y670D01*
X224Y670D02*
X230Y670D01*
X238Y670D02*
X244Y670D01*
X688Y670D02*
X714Y670D01*
X738Y670D02*
X744Y670D01*
X765Y670D02*
X771Y670D01*
X789Y670D02*
X821Y670D01*
X840Y670D02*
X870Y670D01*
X902Y670D02*
X908Y670D01*
X2025Y670D02*
X2031Y670D01*
X2055Y670D02*
X2062Y670D01*
X0Y669D02*
X7Y669D01*
X60Y669D02*
X66Y669D01*
X110Y669D02*
X116Y669D01*
X167Y669D02*
X173Y669D01*
X178Y669D02*
X186Y669D01*
X224Y669D02*
X230Y669D01*
X238Y669D02*
X244Y669D01*
X688Y669D02*
X714Y669D01*
X738Y669D02*
X744Y669D01*
X765Y669D02*
X771Y669D01*
X789Y669D02*
X796Y669D01*
X813Y669D02*
X821Y669D01*
X840Y669D02*
X849Y669D01*
X861Y669D02*
X870Y669D01*
X902Y669D02*
X908Y669D01*
X2026Y669D02*
X2032Y669D01*
X2055Y669D02*
X2062Y669D01*
X0Y668D02*
X7Y668D01*
X60Y668D02*
X91Y668D01*
X110Y668D02*
X142Y668D01*
X162Y668D02*
X185Y668D01*
X212Y668D02*
X244Y668D01*
X688Y668D02*
X714Y668D01*
X738Y668D02*
X744Y668D01*
X765Y668D02*
X771Y668D01*
X789Y668D02*
X795Y668D01*
X815Y668D02*
X820Y668D01*
X839Y668D02*
X847Y668D01*
X863Y668D02*
X871Y668D01*
X902Y668D02*
X908Y668D01*
X2027Y668D02*
X2033Y668D01*
X2055Y668D02*
X2062Y668D01*
X0Y667D02*
X7Y667D01*
X60Y667D02*
X93Y667D01*
X110Y667D02*
X143Y667D01*
X161Y667D02*
X185Y667D01*
X211Y667D02*
X244Y667D01*
X688Y667D02*
X713Y667D01*
X738Y667D02*
X744Y667D01*
X765Y667D02*
X771Y667D01*
X789Y667D02*
X795Y667D01*
X816Y667D02*
X819Y667D01*
X839Y667D02*
X846Y667D01*
X864Y667D02*
X871Y667D01*
X902Y667D02*
X908Y667D01*
X2028Y667D02*
X2034Y667D01*
X2055Y667D02*
X2062Y667D01*
X0Y666D02*
X7Y666D01*
X60Y666D02*
X93Y666D01*
X110Y666D02*
X143Y666D01*
X160Y666D02*
X184Y666D01*
X210Y666D02*
X244Y666D01*
X688Y666D02*
X694Y666D01*
X738Y666D02*
X744Y666D01*
X765Y666D02*
X771Y666D01*
X789Y666D02*
X795Y666D01*
X838Y666D02*
X845Y666D01*
X865Y666D02*
X871Y666D01*
X902Y666D02*
X908Y666D01*
X2029Y666D02*
X2035Y666D01*
X2055Y666D02*
X2062Y666D01*
X0Y665D02*
X7Y665D01*
X60Y665D02*
X93Y665D01*
X110Y665D02*
X143Y665D01*
X160Y665D02*
X183Y665D01*
X210Y665D02*
X244Y665D01*
X688Y665D02*
X694Y665D01*
X738Y665D02*
X744Y665D01*
X765Y665D02*
X771Y665D01*
X789Y665D02*
X797Y665D01*
X838Y665D02*
X844Y665D01*
X865Y665D02*
X872Y665D01*
X902Y665D02*
X908Y665D01*
X2030Y665D02*
X2034Y665D01*
X2055Y665D02*
X2062Y665D01*
X0Y664D02*
X7Y664D01*
X60Y664D02*
X93Y664D01*
X110Y664D02*
X143Y664D01*
X160Y664D02*
X182Y664D01*
X210Y664D02*
X244Y664D01*
X688Y664D02*
X694Y664D01*
X738Y664D02*
X744Y664D01*
X765Y664D02*
X771Y664D01*
X790Y664D02*
X799Y664D01*
X838Y664D02*
X844Y664D01*
X866Y664D02*
X872Y664D01*
X902Y664D02*
X908Y664D01*
X2031Y664D02*
X2033Y664D01*
X2055Y664D02*
X2062Y664D01*
X0Y663D02*
X7Y663D01*
X60Y663D02*
X92Y663D01*
X110Y663D02*
X143Y663D01*
X161Y663D02*
X181Y663D01*
X211Y663D02*
X243Y663D01*
X688Y663D02*
X694Y663D01*
X738Y663D02*
X744Y663D01*
X765Y663D02*
X771Y663D01*
X790Y663D02*
X802Y663D01*
X838Y663D02*
X844Y663D01*
X866Y663D02*
X872Y663D01*
X902Y663D02*
X908Y663D01*
X2032Y663D02*
X2032Y663D01*
X2055Y663D02*
X2062Y663D01*
X0Y662D02*
X7Y662D01*
X60Y662D02*
X91Y662D01*
X110Y662D02*
X141Y662D01*
X162Y662D02*
X178Y662D01*
X212Y662D02*
X242Y662D01*
X688Y662D02*
X694Y662D01*
X738Y662D02*
X744Y662D01*
X765Y662D02*
X771Y662D01*
X791Y662D02*
X804Y662D01*
X838Y662D02*
X844Y662D01*
X866Y662D02*
X872Y662D01*
X902Y662D02*
X908Y662D01*
X2055Y662D02*
X2062Y662D01*
X0Y661D02*
X7Y661D01*
X688Y661D02*
X694Y661D01*
X738Y661D02*
X744Y661D01*
X765Y661D02*
X771Y661D01*
X791Y661D02*
X806Y661D01*
X838Y661D02*
X844Y661D01*
X866Y661D02*
X872Y661D01*
X902Y661D02*
X908Y661D01*
X918Y661D02*
X920Y661D01*
X2055Y661D02*
X2062Y661D01*
X0Y660D02*
X7Y660D01*
X414Y660D02*
X422Y660D01*
X688Y660D02*
X694Y660D01*
X738Y660D02*
X744Y660D01*
X765Y660D02*
X771Y660D01*
X793Y660D02*
X809Y660D01*
X838Y660D02*
X844Y660D01*
X866Y660D02*
X872Y660D01*
X902Y660D02*
X908Y660D01*
X917Y660D02*
X921Y660D01*
X2055Y660D02*
X2062Y660D01*
X0Y659D02*
X7Y659D01*
X160Y659D02*
X172Y659D01*
X405Y659D02*
X431Y659D01*
X688Y659D02*
X694Y659D01*
X738Y659D02*
X744Y659D01*
X765Y659D02*
X771Y659D01*
X794Y659D02*
X811Y659D01*
X838Y659D02*
X844Y659D01*
X866Y659D02*
X872Y659D01*
X902Y659D02*
X908Y659D01*
X916Y659D02*
X922Y659D01*
X2055Y659D02*
X2062Y659D01*
X0Y658D02*
X7Y658D01*
X152Y658D02*
X180Y658D01*
X400Y658D02*
X436Y658D01*
X688Y658D02*
X694Y658D01*
X738Y658D02*
X744Y658D01*
X765Y658D02*
X771Y658D01*
X797Y658D02*
X813Y658D01*
X838Y658D02*
X872Y658D01*
X902Y658D02*
X908Y658D01*
X916Y658D02*
X922Y658D01*
X2055Y658D02*
X2062Y658D01*
X0Y657D02*
X7Y657D01*
X147Y657D02*
X185Y657D01*
X396Y657D02*
X439Y657D01*
X688Y657D02*
X694Y657D01*
X738Y657D02*
X744Y657D01*
X765Y657D02*
X771Y657D01*
X799Y657D02*
X815Y657D01*
X838Y657D02*
X872Y657D01*
X902Y657D02*
X908Y657D01*
X916Y657D02*
X922Y657D01*
X2055Y657D02*
X2062Y657D01*
X0Y656D02*
X7Y656D01*
X144Y656D02*
X188Y656D01*
X393Y656D02*
X443Y656D01*
X688Y656D02*
X694Y656D01*
X738Y656D02*
X744Y656D01*
X765Y656D02*
X771Y656D01*
X801Y656D02*
X817Y656D01*
X838Y656D02*
X872Y656D01*
X902Y656D02*
X908Y656D01*
X916Y656D02*
X922Y656D01*
X2055Y656D02*
X2062Y656D01*
X0Y655D02*
X7Y655D01*
X140Y655D02*
X192Y655D01*
X390Y655D02*
X410Y655D01*
X425Y655D02*
X445Y655D01*
X688Y655D02*
X694Y655D01*
X738Y655D02*
X744Y655D01*
X765Y655D02*
X771Y655D01*
X804Y655D02*
X818Y655D01*
X838Y655D02*
X872Y655D01*
X902Y655D02*
X908Y655D01*
X916Y655D02*
X922Y655D01*
X2055Y655D02*
X2062Y655D01*
X0Y654D02*
X7Y654D01*
X138Y654D02*
X156Y654D01*
X175Y654D02*
X194Y654D01*
X387Y654D02*
X403Y654D01*
X432Y654D02*
X448Y654D01*
X738Y654D02*
X744Y654D01*
X765Y654D02*
X771Y654D01*
X806Y654D02*
X819Y654D01*
X838Y654D02*
X872Y654D01*
X902Y654D02*
X908Y654D01*
X916Y654D02*
X922Y654D01*
X2055Y654D02*
X2062Y654D01*
X0Y653D02*
X7Y653D01*
X135Y653D02*
X150Y653D01*
X181Y653D02*
X197Y653D01*
X385Y653D02*
X398Y653D01*
X436Y653D02*
X450Y653D01*
X738Y653D02*
X744Y653D01*
X765Y653D02*
X771Y653D01*
X808Y653D02*
X820Y653D01*
X838Y653D02*
X871Y653D01*
X902Y653D02*
X908Y653D01*
X916Y653D02*
X922Y653D01*
X2055Y653D02*
X2062Y653D01*
X0Y652D02*
X7Y652D01*
X133Y652D02*
X146Y652D01*
X185Y652D02*
X199Y652D01*
X383Y652D02*
X395Y652D01*
X440Y652D02*
X452Y652D01*
X738Y652D02*
X744Y652D01*
X765Y652D02*
X771Y652D01*
X811Y652D02*
X820Y652D01*
X838Y652D02*
X870Y652D01*
X902Y652D02*
X908Y652D01*
X916Y652D02*
X922Y652D01*
X2055Y652D02*
X2062Y652D01*
X0Y651D02*
X7Y651D01*
X131Y651D02*
X143Y651D01*
X189Y651D02*
X201Y651D01*
X381Y651D02*
X392Y651D01*
X443Y651D02*
X454Y651D01*
X738Y651D02*
X744Y651D01*
X765Y651D02*
X771Y651D01*
X813Y651D02*
X821Y651D01*
X838Y651D02*
X844Y651D01*
X905Y651D02*
X908Y651D01*
X916Y651D02*
X922Y651D01*
X2055Y651D02*
X2062Y651D01*
X0Y650D02*
X7Y650D01*
X129Y650D02*
X140Y650D01*
X192Y650D02*
X203Y650D01*
X379Y650D02*
X389Y650D01*
X445Y650D02*
X456Y650D01*
X738Y650D02*
X744Y650D01*
X764Y650D02*
X771Y650D01*
X814Y650D02*
X821Y650D01*
X838Y650D02*
X844Y650D01*
X907Y650D02*
X908Y650D01*
X916Y650D02*
X922Y650D01*
X2055Y650D02*
X2062Y650D01*
X0Y649D02*
X7Y649D01*
X127Y649D02*
X137Y649D01*
X194Y649D02*
X205Y649D01*
X377Y649D02*
X387Y649D01*
X448Y649D02*
X458Y649D01*
X739Y649D02*
X745Y649D01*
X762Y649D02*
X771Y649D01*
X815Y649D02*
X821Y649D01*
X838Y649D02*
X844Y649D01*
X916Y649D02*
X922Y649D01*
X2055Y649D02*
X2062Y649D01*
X0Y648D02*
X7Y648D01*
X125Y648D02*
X135Y648D01*
X197Y648D02*
X207Y648D01*
X376Y648D02*
X385Y648D01*
X450Y648D02*
X459Y648D01*
X739Y648D02*
X745Y648D01*
X761Y648D02*
X771Y648D01*
X815Y648D02*
X821Y648D01*
X838Y648D02*
X845Y648D01*
X916Y648D02*
X922Y648D01*
X2055Y648D02*
X2062Y648D01*
X0Y647D02*
X7Y647D01*
X124Y647D02*
X133Y647D01*
X199Y647D02*
X208Y647D01*
X374Y647D02*
X383Y647D01*
X452Y647D02*
X461Y647D01*
X739Y647D02*
X745Y647D01*
X759Y647D02*
X771Y647D01*
X815Y647D02*
X821Y647D01*
X838Y647D02*
X845Y647D01*
X916Y647D02*
X922Y647D01*
X2055Y647D02*
X2062Y647D01*
X0Y646D02*
X7Y646D01*
X122Y646D02*
X131Y646D01*
X201Y646D02*
X210Y646D01*
X373Y646D02*
X381Y646D01*
X454Y646D02*
X462Y646D01*
X739Y646D02*
X745Y646D01*
X757Y646D02*
X771Y646D01*
X789Y646D02*
X792Y646D01*
X815Y646D02*
X821Y646D01*
X839Y646D02*
X846Y646D01*
X916Y646D02*
X922Y646D01*
X2055Y646D02*
X2062Y646D01*
X0Y645D02*
X7Y645D01*
X121Y645D02*
X129Y645D01*
X202Y645D02*
X211Y645D01*
X371Y645D02*
X379Y645D01*
X456Y645D02*
X464Y645D01*
X739Y645D02*
X746Y645D01*
X756Y645D02*
X771Y645D01*
X788Y645D02*
X794Y645D01*
X814Y645D02*
X821Y645D01*
X839Y645D02*
X847Y645D01*
X916Y645D02*
X922Y645D01*
X2055Y645D02*
X2062Y645D01*
X0Y644D02*
X7Y644D01*
X119Y644D02*
X127Y644D01*
X204Y644D02*
X212Y644D01*
X370Y644D02*
X378Y644D01*
X457Y644D02*
X465Y644D01*
X739Y644D02*
X747Y644D01*
X754Y644D02*
X771Y644D01*
X788Y644D02*
X796Y644D01*
X813Y644D02*
X821Y644D01*
X840Y644D02*
X849Y644D01*
X917Y644D02*
X922Y644D01*
X2055Y644D02*
X2062Y644D01*
X0Y643D02*
X7Y643D01*
X118Y643D02*
X126Y643D01*
X206Y643D02*
X214Y643D01*
X369Y643D02*
X376Y643D01*
X459Y643D02*
X466Y643D01*
X739Y643D02*
X771Y643D01*
X788Y643D02*
X820Y643D01*
X840Y643D02*
X858Y643D01*
X918Y643D02*
X922Y643D01*
X2055Y643D02*
X2062Y643D01*
X0Y642D02*
X7Y642D01*
X117Y642D02*
X124Y642D01*
X207Y642D02*
X215Y642D01*
X367Y642D02*
X375Y642D01*
X460Y642D02*
X468Y642D01*
X740Y642D02*
X763Y642D01*
X765Y642D02*
X771Y642D01*
X788Y642D02*
X820Y642D01*
X841Y642D02*
X857Y642D01*
X919Y642D02*
X922Y642D01*
X2055Y642D02*
X2062Y642D01*
X0Y641D02*
X7Y641D01*
X116Y641D02*
X123Y641D01*
X209Y641D02*
X216Y641D01*
X366Y641D02*
X373Y641D01*
X462Y641D02*
X469Y641D01*
X741Y641D02*
X762Y641D01*
X765Y641D02*
X771Y641D01*
X789Y641D02*
X819Y641D01*
X842Y641D02*
X856Y641D01*
X920Y641D02*
X922Y641D01*
X2055Y641D02*
X2062Y641D01*
X0Y640D02*
X7Y640D01*
X114Y640D02*
X121Y640D01*
X210Y640D02*
X218Y640D01*
X365Y640D02*
X372Y640D01*
X463Y640D02*
X470Y640D01*
X742Y640D02*
X760Y640D01*
X765Y640D02*
X771Y640D01*
X790Y640D02*
X818Y640D01*
X843Y640D02*
X855Y640D01*
X921Y640D02*
X922Y640D01*
X2055Y640D02*
X2062Y640D01*
X0Y639D02*
X7Y639D01*
X113Y639D02*
X120Y639D01*
X212Y639D02*
X219Y639D01*
X364Y639D02*
X371Y639D01*
X464Y639D02*
X471Y639D01*
X743Y639D02*
X758Y639D01*
X766Y639D02*
X771Y639D01*
X791Y639D02*
X817Y639D01*
X845Y639D02*
X854Y639D01*
X922Y639D02*
X922Y639D01*
X2055Y639D02*
X2062Y639D01*
X0Y638D02*
X7Y638D01*
X112Y638D02*
X119Y638D01*
X213Y638D02*
X220Y638D01*
X363Y638D02*
X369Y638D01*
X465Y638D02*
X472Y638D01*
X744Y638D02*
X757Y638D01*
X766Y638D02*
X770Y638D01*
X793Y638D02*
X816Y638D01*
X846Y638D02*
X853Y638D01*
X2055Y638D02*
X2062Y638D01*
X0Y637D02*
X7Y637D01*
X111Y637D02*
X118Y637D01*
X214Y637D02*
X221Y637D01*
X362Y637D02*
X368Y637D01*
X467Y637D02*
X473Y637D01*
X747Y637D02*
X754Y637D01*
X768Y637D02*
X769Y637D01*
X797Y637D02*
X813Y637D01*
X849Y637D02*
X852Y637D01*
X2055Y637D02*
X2062Y637D01*
X0Y636D02*
X7Y636D01*
X110Y636D02*
X116Y636D01*
X215Y636D02*
X222Y636D01*
X361Y636D02*
X367Y636D01*
X468Y636D02*
X474Y636D01*
X2055Y636D02*
X2062Y636D01*
X0Y635D02*
X7Y635D01*
X109Y635D02*
X115Y635D01*
X216Y635D02*
X223Y635D01*
X360Y635D02*
X366Y635D01*
X469Y635D02*
X475Y635D01*
X2055Y635D02*
X2062Y635D01*
X0Y634D02*
X7Y634D01*
X108Y634D02*
X114Y634D01*
X217Y634D02*
X224Y634D01*
X359Y634D02*
X365Y634D01*
X470Y634D02*
X476Y634D01*
X2055Y634D02*
X2062Y634D01*
X0Y633D02*
X7Y633D01*
X107Y633D02*
X113Y633D01*
X219Y633D02*
X225Y633D01*
X358Y633D02*
X364Y633D01*
X471Y633D02*
X477Y633D01*
X2055Y633D02*
X2062Y633D01*
X0Y632D02*
X7Y632D01*
X106Y632D02*
X112Y632D01*
X220Y632D02*
X225Y632D01*
X357Y632D02*
X363Y632D01*
X472Y632D02*
X478Y632D01*
X2055Y632D02*
X2062Y632D01*
X0Y631D02*
X7Y631D01*
X106Y631D02*
X111Y631D01*
X220Y631D02*
X226Y631D01*
X356Y631D02*
X362Y631D01*
X473Y631D02*
X479Y631D01*
X2055Y631D02*
X2062Y631D01*
X0Y630D02*
X7Y630D01*
X105Y630D02*
X110Y630D01*
X221Y630D02*
X227Y630D01*
X356Y630D02*
X361Y630D01*
X474Y630D02*
X479Y630D01*
X2055Y630D02*
X2062Y630D01*
X0Y629D02*
X7Y629D01*
X104Y629D02*
X110Y629D01*
X222Y629D02*
X228Y629D01*
X355Y629D02*
X360Y629D01*
X475Y629D02*
X480Y629D01*
X2055Y629D02*
X2062Y629D01*
X0Y628D02*
X7Y628D01*
X103Y628D02*
X109Y628D01*
X223Y628D02*
X229Y628D01*
X354Y628D02*
X360Y628D01*
X475Y628D02*
X481Y628D01*
X2055Y628D02*
X2062Y628D01*
X0Y627D02*
X7Y627D01*
X102Y627D02*
X108Y627D01*
X224Y627D02*
X229Y627D01*
X353Y627D02*
X359Y627D01*
X476Y627D02*
X481Y627D01*
X2055Y627D02*
X2062Y627D01*
X0Y626D02*
X7Y626D01*
X102Y626D02*
X107Y626D01*
X225Y626D02*
X229Y626D01*
X353Y626D02*
X358Y626D01*
X477Y626D02*
X481Y626D01*
X2055Y626D02*
X2062Y626D01*
X0Y625D02*
X7Y625D01*
X101Y625D02*
X106Y625D01*
X225Y625D02*
X229Y625D01*
X352Y625D02*
X357Y625D01*
X477Y625D02*
X481Y625D01*
X2055Y625D02*
X2062Y625D01*
X0Y624D02*
X7Y624D01*
X100Y624D02*
X105Y624D01*
X225Y624D02*
X229Y624D01*
X351Y624D02*
X356Y624D01*
X477Y624D02*
X481Y624D01*
X2055Y624D02*
X2062Y624D01*
X0Y623D02*
X7Y623D01*
X100Y623D02*
X105Y623D01*
X225Y623D02*
X229Y623D01*
X351Y623D02*
X356Y623D01*
X477Y623D02*
X481Y623D01*
X2055Y623D02*
X2062Y623D01*
X0Y622D02*
X7Y622D01*
X99Y622D02*
X104Y622D01*
X225Y622D02*
X229Y622D01*
X350Y622D02*
X355Y622D01*
X477Y622D02*
X481Y622D01*
X2055Y622D02*
X2062Y622D01*
X0Y621D02*
X7Y621D01*
X98Y621D02*
X103Y621D01*
X225Y621D02*
X229Y621D01*
X349Y621D02*
X354Y621D01*
X477Y621D02*
X481Y621D01*
X2055Y621D02*
X2062Y621D01*
X0Y620D02*
X7Y620D01*
X98Y620D02*
X103Y620D01*
X225Y620D02*
X229Y620D01*
X349Y620D02*
X354Y620D01*
X477Y620D02*
X481Y620D01*
X2055Y620D02*
X2062Y620D01*
X0Y619D02*
X7Y619D01*
X97Y619D02*
X102Y619D01*
X225Y619D02*
X229Y619D01*
X349Y619D02*
X353Y619D01*
X477Y619D02*
X481Y619D01*
X2055Y619D02*
X2062Y619D01*
X0Y618D02*
X7Y618D01*
X97Y618D02*
X101Y618D01*
X225Y618D02*
X229Y618D01*
X349Y618D02*
X353Y618D01*
X477Y618D02*
X481Y618D01*
X2055Y618D02*
X2062Y618D01*
X0Y617D02*
X7Y617D01*
X98Y617D02*
X101Y617D01*
X225Y617D02*
X229Y617D01*
X477Y617D02*
X481Y617D01*
X2055Y617D02*
X2062Y617D01*
X0Y616D02*
X7Y616D01*
X225Y616D02*
X229Y616D01*
X477Y616D02*
X481Y616D01*
X2055Y616D02*
X2062Y616D01*
X0Y615D02*
X7Y615D01*
X225Y615D02*
X229Y615D01*
X477Y615D02*
X481Y615D01*
X2055Y615D02*
X2062Y615D01*
X0Y614D02*
X7Y614D01*
X225Y614D02*
X229Y614D01*
X478Y614D02*
X481Y614D01*
X2055Y614D02*
X2062Y614D01*
X0Y613D02*
X7Y613D01*
X227Y613D02*
X229Y613D01*
X480Y613D02*
X481Y613D01*
X2055Y613D02*
X2062Y613D01*
X0Y612D02*
X7Y612D01*
X229Y612D02*
X229Y612D01*
X2055Y612D02*
X2062Y612D01*
X0Y611D02*
X7Y611D01*
X2055Y611D02*
X2062Y611D01*
X0Y610D02*
X7Y610D01*
X2055Y610D02*
X2062Y610D01*
X0Y609D02*
X7Y609D01*
X2055Y609D02*
X2062Y609D01*
X0Y608D02*
X7Y608D01*
X2055Y608D02*
X2062Y608D01*
X0Y607D02*
X7Y607D01*
X2055Y607D02*
X2062Y607D01*
X0Y606D02*
X7Y606D01*
X2055Y606D02*
X2062Y606D01*
X0Y605D02*
X7Y605D01*
X2055Y605D02*
X2062Y605D01*
X0Y604D02*
X7Y604D01*
X2055Y604D02*
X2062Y604D01*
X0Y603D02*
X7Y603D01*
X2055Y603D02*
X2062Y603D01*
X0Y602D02*
X7Y602D01*
X2055Y602D02*
X2062Y602D01*
X0Y601D02*
X7Y601D01*
X2055Y601D02*
X2062Y601D01*
X0Y600D02*
X7Y600D01*
X2055Y600D02*
X2062Y600D01*
X0Y599D02*
X7Y599D01*
X2055Y599D02*
X2062Y599D01*
X0Y598D02*
X7Y598D01*
X2055Y598D02*
X2062Y598D01*
X0Y597D02*
X7Y597D01*
X2055Y597D02*
X2062Y597D01*
X0Y596D02*
X7Y596D01*
X2055Y596D02*
X2062Y596D01*
X0Y595D02*
X7Y595D01*
X2055Y595D02*
X2062Y595D01*
X0Y594D02*
X7Y594D01*
X2055Y594D02*
X2062Y594D01*
X0Y593D02*
X7Y593D01*
X2055Y593D02*
X2062Y593D01*
X0Y592D02*
X7Y592D01*
X2055Y592D02*
X2062Y592D01*
X0Y591D02*
X7Y591D01*
X2055Y591D02*
X2062Y591D01*
X0Y590D02*
X7Y590D01*
X2055Y590D02*
X2062Y590D01*
X0Y589D02*
X7Y589D01*
X2055Y589D02*
X2062Y589D01*
X0Y588D02*
X7Y588D01*
X2055Y588D02*
X2062Y588D01*
X0Y587D02*
X7Y587D01*
X2055Y587D02*
X2062Y587D01*
X0Y586D02*
X7Y586D01*
X2055Y586D02*
X2062Y586D01*
X0Y585D02*
X7Y585D01*
X2055Y585D02*
X2062Y585D01*
X0Y584D02*
X7Y584D01*
X2055Y584D02*
X2062Y584D01*
X0Y583D02*
X7Y583D01*
X2055Y583D02*
X2062Y583D01*
X0Y582D02*
X7Y582D01*
X2055Y582D02*
X2062Y582D01*
X0Y581D02*
X7Y581D01*
X2055Y581D02*
X2062Y581D01*
X0Y580D02*
X7Y580D01*
X2055Y580D02*
X2062Y580D01*
X0Y579D02*
X7Y579D01*
X2055Y579D02*
X2062Y579D01*
X0Y578D02*
X7Y578D01*
X2055Y578D02*
X2062Y578D01*
X0Y577D02*
X7Y577D01*
X2055Y577D02*
X2062Y577D01*
X0Y576D02*
X7Y576D01*
X2055Y576D02*
X2062Y576D01*
X0Y575D02*
X7Y575D01*
X2055Y575D02*
X2062Y575D01*
X0Y574D02*
X7Y574D01*
X2055Y574D02*
X2062Y574D01*
X0Y573D02*
X7Y573D01*
X2055Y573D02*
X2062Y573D01*
X0Y572D02*
X7Y572D01*
X2055Y572D02*
X2062Y572D01*
X0Y571D02*
X7Y571D01*
X2055Y571D02*
X2062Y571D01*
X0Y570D02*
X7Y570D01*
X2055Y570D02*
X2062Y570D01*
X0Y569D02*
X7Y569D01*
X2055Y569D02*
X2062Y569D01*
X0Y568D02*
X7Y568D01*
X2055Y568D02*
X2062Y568D01*
X0Y567D02*
X7Y567D01*
X2055Y567D02*
X2062Y567D01*
X0Y566D02*
X7Y566D01*
X2055Y566D02*
X2062Y566D01*
X0Y565D02*
X7Y565D01*
X2055Y565D02*
X2062Y565D01*
X0Y564D02*
X7Y564D01*
X2055Y564D02*
X2062Y564D01*
X0Y563D02*
X7Y563D01*
X2055Y563D02*
X2062Y563D01*
X0Y562D02*
X7Y562D01*
X2055Y562D02*
X2062Y562D01*
X0Y561D02*
X7Y561D01*
X2055Y561D02*
X2062Y561D01*
X0Y560D02*
X7Y560D01*
X2055Y560D02*
X2062Y560D01*
X0Y559D02*
X7Y559D01*
X2055Y559D02*
X2062Y559D01*
X0Y558D02*
X7Y558D01*
X2055Y558D02*
X2062Y558D01*
X0Y557D02*
X7Y557D01*
X2055Y557D02*
X2062Y557D01*
X0Y556D02*
X7Y556D01*
X2055Y556D02*
X2062Y556D01*
X0Y555D02*
X7Y555D01*
X2055Y555D02*
X2062Y555D01*
X0Y554D02*
X7Y554D01*
X2055Y554D02*
X2062Y554D01*
X0Y553D02*
X7Y553D01*
X2055Y553D02*
X2062Y553D01*
X0Y552D02*
X7Y552D01*
X2055Y552D02*
X2062Y552D01*
X0Y551D02*
X7Y551D01*
X2055Y551D02*
X2062Y551D01*
X0Y550D02*
X7Y550D01*
X2055Y550D02*
X2062Y550D01*
X0Y549D02*
X7Y549D01*
X480Y549D02*
X481Y549D01*
X2055Y549D02*
X2062Y549D01*
X0Y548D02*
X7Y548D01*
X228Y548D02*
X229Y548D01*
X478Y548D02*
X481Y548D01*
X2055Y548D02*
X2062Y548D01*
X0Y547D02*
X7Y547D01*
X226Y547D02*
X229Y547D01*
X477Y547D02*
X481Y547D01*
X2055Y547D02*
X2062Y547D01*
X0Y546D02*
X7Y546D01*
X225Y546D02*
X229Y546D01*
X477Y546D02*
X481Y546D01*
X2055Y546D02*
X2062Y546D01*
X0Y545D02*
X7Y545D01*
X225Y545D02*
X229Y545D01*
X477Y545D02*
X481Y545D01*
X2055Y545D02*
X2062Y545D01*
X0Y544D02*
X7Y544D01*
X225Y544D02*
X229Y544D01*
X351Y544D02*
X352Y544D01*
X477Y544D02*
X481Y544D01*
X2055Y544D02*
X2062Y544D01*
X0Y543D02*
X7Y543D01*
X99Y543D02*
X101Y543D01*
X225Y543D02*
X229Y543D01*
X350Y543D02*
X353Y543D01*
X477Y543D02*
X481Y543D01*
X2055Y543D02*
X2062Y543D01*
X0Y542D02*
X7Y542D01*
X98Y542D02*
X102Y542D01*
X225Y542D02*
X229Y542D01*
X350Y542D02*
X354Y542D01*
X477Y542D02*
X481Y542D01*
X2055Y542D02*
X2062Y542D01*
X0Y541D02*
X7Y541D01*
X98Y541D02*
X102Y541D01*
X225Y541D02*
X229Y541D01*
X350Y541D02*
X355Y541D01*
X477Y541D02*
X481Y541D01*
X2055Y541D02*
X2062Y541D01*
X0Y540D02*
X7Y540D01*
X98Y540D02*
X103Y540D01*
X225Y540D02*
X229Y540D01*
X350Y540D02*
X355Y540D01*
X477Y540D02*
X481Y540D01*
X2055Y540D02*
X2062Y540D01*
X0Y539D02*
X7Y539D01*
X99Y539D02*
X104Y539D01*
X225Y539D02*
X229Y539D01*
X351Y539D02*
X356Y539D01*
X477Y539D02*
X481Y539D01*
X2055Y539D02*
X2062Y539D01*
X0Y538D02*
X7Y538D01*
X99Y538D02*
X104Y538D01*
X225Y538D02*
X229Y538D01*
X351Y538D02*
X357Y538D01*
X477Y538D02*
X481Y538D01*
X2055Y538D02*
X2062Y538D01*
X0Y537D02*
X7Y537D01*
X100Y537D02*
X105Y537D01*
X225Y537D02*
X229Y537D01*
X352Y537D02*
X357Y537D01*
X477Y537D02*
X481Y537D01*
X2055Y537D02*
X2062Y537D01*
X0Y536D02*
X7Y536D01*
X101Y536D02*
X106Y536D01*
X225Y536D02*
X229Y536D01*
X353Y536D02*
X358Y536D01*
X477Y536D02*
X481Y536D01*
X2055Y536D02*
X2062Y536D01*
X0Y535D02*
X7Y535D01*
X101Y535D02*
X107Y535D01*
X225Y535D02*
X229Y535D01*
X353Y535D02*
X359Y535D01*
X476Y535D02*
X481Y535D01*
X2055Y535D02*
X2062Y535D01*
X0Y534D02*
X7Y534D01*
X102Y534D02*
X107Y534D01*
X224Y534D02*
X229Y534D01*
X354Y534D02*
X360Y534D01*
X475Y534D02*
X481Y534D01*
X2055Y534D02*
X2062Y534D01*
X0Y533D02*
X7Y533D01*
X103Y533D02*
X108Y533D01*
X224Y533D02*
X229Y533D01*
X355Y533D02*
X360Y533D01*
X474Y533D02*
X480Y533D01*
X2055Y533D02*
X2062Y533D01*
X0Y532D02*
X7Y532D01*
X103Y532D02*
X109Y532D01*
X223Y532D02*
X228Y532D01*
X356Y532D02*
X361Y532D01*
X474Y532D02*
X479Y532D01*
X2055Y532D02*
X2062Y532D01*
X0Y531D02*
X7Y531D01*
X104Y531D02*
X110Y531D01*
X222Y531D02*
X227Y531D01*
X356Y531D02*
X362Y531D01*
X473Y531D02*
X478Y531D01*
X2055Y531D02*
X2062Y531D01*
X0Y530D02*
X7Y530D01*
X105Y530D02*
X111Y530D01*
X221Y530D02*
X227Y530D01*
X357Y530D02*
X363Y530D01*
X472Y530D02*
X478Y530D01*
X2055Y530D02*
X2062Y530D01*
X0Y529D02*
X7Y529D01*
X106Y529D02*
X112Y529D01*
X220Y529D02*
X226Y529D01*
X358Y529D02*
X364Y529D01*
X471Y529D02*
X477Y529D01*
X2055Y529D02*
X2062Y529D01*
X0Y528D02*
X7Y528D01*
X107Y528D02*
X113Y528D01*
X219Y528D02*
X225Y528D01*
X359Y528D02*
X365Y528D01*
X470Y528D02*
X476Y528D01*
X2055Y528D02*
X2062Y528D01*
X0Y527D02*
X7Y527D01*
X108Y527D02*
X114Y527D01*
X218Y527D02*
X224Y527D01*
X360Y527D02*
X366Y527D01*
X469Y527D02*
X475Y527D01*
X2055Y527D02*
X2062Y527D01*
X0Y526D02*
X7Y526D01*
X109Y526D02*
X115Y526D01*
X217Y526D02*
X223Y526D01*
X361Y526D02*
X367Y526D01*
X468Y526D02*
X474Y526D01*
X2055Y526D02*
X2062Y526D01*
X0Y525D02*
X7Y525D01*
X110Y525D02*
X116Y525D01*
X216Y525D02*
X222Y525D01*
X362Y525D02*
X368Y525D01*
X467Y525D02*
X473Y525D01*
X2055Y525D02*
X2062Y525D01*
X0Y524D02*
X7Y524D01*
X111Y524D02*
X117Y524D01*
X215Y524D02*
X221Y524D01*
X363Y524D02*
X370Y524D01*
X465Y524D02*
X472Y524D01*
X2055Y524D02*
X2062Y524D01*
X0Y523D02*
X7Y523D01*
X112Y523D02*
X118Y523D01*
X214Y523D02*
X220Y523D01*
X364Y523D02*
X371Y523D01*
X464Y523D02*
X471Y523D01*
X2055Y523D02*
X2062Y523D01*
X0Y522D02*
X7Y522D01*
X113Y522D02*
X119Y522D01*
X212Y522D02*
X219Y522D01*
X365Y522D02*
X372Y522D01*
X463Y522D02*
X470Y522D01*
X2055Y522D02*
X2062Y522D01*
X0Y521D02*
X7Y521D01*
X114Y521D02*
X121Y521D01*
X211Y521D02*
X218Y521D01*
X366Y521D02*
X373Y521D01*
X462Y521D02*
X469Y521D01*
X2055Y521D02*
X2062Y521D01*
X0Y520D02*
X7Y520D01*
X115Y520D02*
X122Y520D01*
X210Y520D02*
X217Y520D01*
X367Y520D02*
X375Y520D01*
X460Y520D02*
X467Y520D01*
X2055Y520D02*
X2062Y520D01*
X0Y519D02*
X7Y519D01*
X116Y519D02*
X124Y519D01*
X208Y519D02*
X216Y519D01*
X369Y519D02*
X376Y519D01*
X459Y519D02*
X466Y519D01*
X2055Y519D02*
X2062Y519D01*
X0Y518D02*
X7Y518D01*
X117Y518D02*
X125Y518D01*
X207Y518D02*
X214Y518D01*
X370Y518D02*
X378Y518D01*
X457Y518D02*
X465Y518D01*
X2055Y518D02*
X2062Y518D01*
X0Y517D02*
X7Y517D01*
X118Y517D02*
X127Y517D01*
X205Y517D02*
X213Y517D01*
X371Y517D02*
X380Y517D01*
X456Y517D02*
X464Y517D01*
X2055Y517D02*
X2062Y517D01*
X0Y516D02*
X7Y516D01*
X120Y516D02*
X128Y516D01*
X204Y516D02*
X212Y516D01*
X373Y516D02*
X381Y516D01*
X454Y516D02*
X462Y516D01*
X2055Y516D02*
X2062Y516D01*
X0Y515D02*
X7Y515D01*
X121Y515D02*
X130Y515D01*
X202Y515D02*
X210Y515D01*
X374Y515D02*
X383Y515D01*
X452Y515D02*
X461Y515D01*
X2055Y515D02*
X2062Y515D01*
X0Y514D02*
X7Y514D01*
X123Y514D02*
X132Y514D01*
X200Y514D02*
X209Y514D01*
X376Y514D02*
X385Y514D01*
X450Y514D02*
X459Y514D01*
X2055Y514D02*
X2062Y514D01*
X0Y513D02*
X7Y513D01*
X124Y513D02*
X134Y513D01*
X198Y513D02*
X207Y513D01*
X377Y513D02*
X387Y513D01*
X448Y513D02*
X457Y513D01*
X2055Y513D02*
X2062Y513D01*
X0Y512D02*
X7Y512D01*
X126Y512D02*
X136Y512D01*
X196Y512D02*
X206Y512D01*
X379Y512D02*
X390Y512D01*
X445Y512D02*
X456Y512D01*
X2055Y512D02*
X2062Y512D01*
X0Y511D02*
X7Y511D01*
X128Y511D02*
X139Y511D01*
X193Y511D02*
X204Y511D01*
X381Y511D02*
X392Y511D01*
X443Y511D02*
X454Y511D01*
X2055Y511D02*
X2062Y511D01*
X0Y510D02*
X7Y510D01*
X130Y510D02*
X141Y510D01*
X191Y510D02*
X202Y510D01*
X383Y510D02*
X395Y510D01*
X440Y510D02*
X452Y510D01*
X2055Y510D02*
X2062Y510D01*
X0Y509D02*
X7Y509D01*
X132Y509D02*
X145Y509D01*
X187Y509D02*
X200Y509D01*
X385Y509D02*
X399Y509D01*
X436Y509D02*
X450Y509D01*
X2055Y509D02*
X2062Y509D01*
X0Y508D02*
X7Y508D01*
X134Y508D02*
X148Y508D01*
X184Y508D02*
X198Y508D01*
X387Y508D02*
X404Y508D01*
X431Y508D02*
X447Y508D01*
X2055Y508D02*
X2062Y508D01*
X0Y507D02*
X7Y507D01*
X136Y507D02*
X153Y507D01*
X179Y507D02*
X195Y507D01*
X390Y507D02*
X411Y507D01*
X424Y507D02*
X445Y507D01*
X2055Y507D02*
X2062Y507D01*
X0Y506D02*
X7Y506D01*
X139Y506D02*
X162Y506D01*
X170Y506D02*
X193Y506D01*
X393Y506D02*
X442Y506D01*
X2055Y506D02*
X2062Y506D01*
X0Y505D02*
X7Y505D01*
X142Y505D02*
X190Y505D01*
X396Y505D02*
X439Y505D01*
X2055Y505D02*
X2062Y505D01*
X0Y504D02*
X7Y504D01*
X145Y504D02*
X186Y504D01*
X400Y504D02*
X435Y504D01*
X2055Y504D02*
X2062Y504D01*
X0Y503D02*
X7Y503D01*
X149Y503D02*
X182Y503D01*
X405Y503D02*
X430Y503D01*
X2055Y503D02*
X2062Y503D01*
X0Y502D02*
X7Y502D01*
X154Y502D02*
X177Y502D01*
X417Y502D02*
X420Y502D01*
X2055Y502D02*
X2062Y502D01*
X0Y501D02*
X7Y501D01*
X2055Y501D02*
X2062Y501D01*
X0Y500D02*
X7Y500D01*
X2055Y500D02*
X2062Y500D01*
X0Y499D02*
X7Y499D01*
X616Y499D02*
X623Y499D01*
X2055Y499D02*
X2062Y499D01*
X0Y498D02*
X7Y498D01*
X615Y498D02*
X624Y498D01*
X2055Y498D02*
X2062Y498D01*
X0Y497D02*
X7Y497D01*
X615Y497D02*
X624Y497D01*
X2055Y497D02*
X2062Y497D01*
X0Y496D02*
X7Y496D01*
X504Y496D02*
X531Y496D01*
X554Y496D02*
X581Y496D01*
X615Y496D02*
X624Y496D01*
X719Y496D02*
X737Y496D01*
X1258Y496D02*
X1277Y496D01*
X1359Y496D02*
X1377Y496D01*
X2055Y496D02*
X2062Y496D01*
X0Y495D02*
X7Y495D01*
X504Y495D02*
X533Y495D01*
X554Y495D02*
X583Y495D01*
X615Y495D02*
X624Y495D01*
X717Y495D02*
X738Y495D01*
X1258Y495D02*
X1277Y495D01*
X1358Y495D02*
X1377Y495D01*
X2055Y495D02*
X2062Y495D01*
X0Y494D02*
X7Y494D01*
X504Y494D02*
X534Y494D01*
X554Y494D02*
X584Y494D01*
X615Y494D02*
X624Y494D01*
X716Y494D02*
X738Y494D01*
X1257Y494D02*
X1277Y494D01*
X1358Y494D02*
X1377Y494D01*
X2055Y494D02*
X2062Y494D01*
X0Y493D02*
X7Y493D01*
X504Y493D02*
X535Y493D01*
X554Y493D02*
X585Y493D01*
X615Y493D02*
X624Y493D01*
X715Y493D02*
X738Y493D01*
X1014Y493D02*
X1018Y493D01*
X1257Y493D02*
X1277Y493D01*
X1358Y493D02*
X1377Y493D01*
X2055Y493D02*
X2062Y493D01*
X0Y492D02*
X7Y492D01*
X504Y492D02*
X536Y492D01*
X554Y492D02*
X586Y492D01*
X615Y492D02*
X624Y492D01*
X714Y492D02*
X738Y492D01*
X1013Y492D02*
X1019Y492D01*
X1257Y492D02*
X1277Y492D01*
X1358Y492D02*
X1377Y492D01*
X2055Y492D02*
X2062Y492D01*
X0Y491D02*
X7Y491D01*
X504Y491D02*
X537Y491D01*
X554Y491D02*
X587Y491D01*
X616Y491D02*
X623Y491D01*
X714Y491D02*
X738Y491D01*
X1013Y491D02*
X1019Y491D01*
X1258Y491D02*
X1277Y491D01*
X1358Y491D02*
X1377Y491D01*
X2055Y491D02*
X2062Y491D01*
X0Y490D02*
X7Y490D01*
X504Y490D02*
X537Y490D01*
X554Y490D02*
X587Y490D01*
X617Y490D02*
X622Y490D01*
X713Y490D02*
X736Y490D01*
X1013Y490D02*
X1019Y490D01*
X1260Y490D02*
X1277Y490D01*
X1360Y490D02*
X1377Y490D01*
X2055Y490D02*
X2062Y490D01*
X0Y489D02*
X7Y489D01*
X504Y489D02*
X510Y489D01*
X530Y489D02*
X537Y489D01*
X554Y489D02*
X560Y489D01*
X580Y489D02*
X588Y489D01*
X713Y489D02*
X720Y489D01*
X1013Y489D02*
X1019Y489D01*
X1271Y489D02*
X1277Y489D01*
X1371Y489D02*
X1377Y489D01*
X2055Y489D02*
X2062Y489D01*
X0Y488D02*
X7Y488D01*
X504Y488D02*
X510Y488D01*
X531Y488D02*
X538Y488D01*
X554Y488D02*
X560Y488D01*
X581Y488D02*
X588Y488D01*
X712Y488D02*
X719Y488D01*
X1013Y488D02*
X1019Y488D01*
X1271Y488D02*
X1277Y488D01*
X1371Y488D02*
X1377Y488D01*
X2055Y488D02*
X2062Y488D01*
X0Y487D02*
X7Y487D01*
X504Y487D02*
X510Y487D01*
X532Y487D02*
X538Y487D01*
X554Y487D02*
X560Y487D01*
X582Y487D02*
X588Y487D01*
X712Y487D02*
X719Y487D01*
X1013Y487D02*
X1019Y487D01*
X1271Y487D02*
X1277Y487D01*
X1371Y487D02*
X1377Y487D01*
X2055Y487D02*
X2062Y487D01*
X0Y486D02*
X7Y486D01*
X504Y486D02*
X510Y486D01*
X532Y486D02*
X538Y486D01*
X554Y486D02*
X560Y486D01*
X582Y486D02*
X588Y486D01*
X711Y486D02*
X718Y486D01*
X1013Y486D02*
X1019Y486D01*
X1271Y486D02*
X1277Y486D01*
X1371Y486D02*
X1377Y486D01*
X2055Y486D02*
X2062Y486D01*
X0Y485D02*
X7Y485D01*
X504Y485D02*
X510Y485D01*
X532Y485D02*
X538Y485D01*
X554Y485D02*
X560Y485D01*
X582Y485D02*
X588Y485D01*
X711Y485D02*
X718Y485D01*
X1013Y485D02*
X1019Y485D01*
X1271Y485D02*
X1277Y485D01*
X1371Y485D02*
X1377Y485D01*
X2055Y485D02*
X2062Y485D01*
X0Y484D02*
X7Y484D01*
X504Y484D02*
X510Y484D01*
X532Y484D02*
X538Y484D01*
X554Y484D02*
X560Y484D01*
X582Y484D02*
X588Y484D01*
X710Y484D02*
X717Y484D01*
X1013Y484D02*
X1019Y484D01*
X1271Y484D02*
X1277Y484D01*
X1371Y484D02*
X1377Y484D01*
X2055Y484D02*
X2062Y484D01*
X0Y483D02*
X7Y483D01*
X504Y483D02*
X510Y483D01*
X532Y483D02*
X538Y483D01*
X554Y483D02*
X560Y483D01*
X582Y483D02*
X588Y483D01*
X710Y483D02*
X717Y483D01*
X1013Y483D02*
X1019Y483D01*
X1271Y483D02*
X1277Y483D01*
X1371Y483D02*
X1377Y483D01*
X2055Y483D02*
X2062Y483D01*
X0Y482D02*
X7Y482D01*
X504Y482D02*
X510Y482D01*
X532Y482D02*
X538Y482D01*
X554Y482D02*
X560Y482D01*
X582Y482D02*
X588Y482D01*
X611Y482D02*
X621Y482D01*
X709Y482D02*
X716Y482D01*
X767Y482D02*
X777Y482D01*
X808Y482D02*
X808Y482D01*
X823Y482D02*
X829Y482D01*
X858Y482D02*
X858Y482D01*
X874Y482D02*
X879Y482D01*
X917Y482D02*
X928Y482D01*
X971Y482D02*
X986Y482D01*
X1009Y482D02*
X1033Y482D01*
X1068Y482D02*
X1078Y482D01*
X1109Y482D02*
X1109Y482D01*
X1123Y482D02*
X1131Y482D01*
X1210Y482D02*
X1210Y482D01*
X1237Y482D02*
X1237Y482D01*
X1271Y482D02*
X1277Y482D01*
X1371Y482D02*
X1377Y482D01*
X2055Y482D02*
X2062Y482D01*
X0Y481D02*
X7Y481D01*
X504Y481D02*
X510Y481D01*
X531Y481D02*
X538Y481D01*
X554Y481D02*
X560Y481D01*
X582Y481D02*
X588Y481D01*
X609Y481D02*
X623Y481D01*
X709Y481D02*
X715Y481D01*
X763Y481D02*
X780Y481D01*
X806Y481D02*
X810Y481D01*
X820Y481D02*
X832Y481D01*
X857Y481D02*
X860Y481D01*
X870Y481D02*
X882Y481D01*
X914Y481D02*
X931Y481D01*
X968Y481D02*
X988Y481D01*
X1007Y481D02*
X1035Y481D01*
X1065Y481D02*
X1081Y481D01*
X1108Y481D02*
X1111Y481D01*
X1121Y481D02*
X1134Y481D01*
X1208Y481D02*
X1212Y481D01*
X1235Y481D02*
X1239Y481D01*
X1271Y481D02*
X1277Y481D01*
X1371Y481D02*
X1377Y481D01*
X2055Y481D02*
X2062Y481D01*
X0Y480D02*
X7Y480D01*
X504Y480D02*
X510Y480D01*
X530Y480D02*
X537Y480D01*
X554Y480D02*
X560Y480D01*
X582Y480D02*
X588Y480D01*
X608Y480D02*
X624Y480D01*
X708Y480D02*
X715Y480D01*
X762Y480D02*
X782Y480D01*
X806Y480D02*
X811Y480D01*
X818Y480D02*
X834Y480D01*
X856Y480D02*
X861Y480D01*
X868Y480D02*
X884Y480D01*
X912Y480D02*
X933Y480D01*
X966Y480D02*
X989Y480D01*
X1006Y480D02*
X1036Y480D01*
X1063Y480D02*
X1083Y480D01*
X1107Y480D02*
X1112Y480D01*
X1120Y480D02*
X1136Y480D01*
X1207Y480D02*
X1213Y480D01*
X1235Y480D02*
X1240Y480D01*
X1271Y480D02*
X1277Y480D01*
X1371Y480D02*
X1377Y480D01*
X2055Y480D02*
X2062Y480D01*
X0Y479D02*
X7Y479D01*
X504Y479D02*
X537Y479D01*
X554Y479D02*
X560Y479D01*
X582Y479D02*
X588Y479D01*
X608Y479D02*
X624Y479D01*
X708Y479D02*
X714Y479D01*
X761Y479D02*
X783Y479D01*
X805Y479D02*
X811Y479D01*
X817Y479D02*
X835Y479D01*
X856Y479D02*
X861Y479D01*
X867Y479D02*
X885Y479D01*
X911Y479D02*
X934Y479D01*
X964Y479D02*
X989Y479D01*
X1006Y479D02*
X1036Y479D01*
X1062Y479D02*
X1084Y479D01*
X1107Y479D02*
X1112Y479D01*
X1119Y479D02*
X1137Y479D01*
X1207Y479D02*
X1213Y479D01*
X1235Y479D02*
X1240Y479D01*
X1271Y479D02*
X1277Y479D01*
X1371Y479D02*
X1377Y479D01*
X2055Y479D02*
X2062Y479D01*
X0Y478D02*
X7Y478D01*
X504Y478D02*
X537Y478D01*
X554Y478D02*
X560Y478D01*
X582Y478D02*
X588Y478D01*
X608Y478D02*
X624Y478D01*
X707Y478D02*
X714Y478D01*
X759Y478D02*
X784Y478D01*
X805Y478D02*
X811Y478D01*
X815Y478D02*
X836Y478D01*
X855Y478D02*
X862Y478D01*
X865Y478D02*
X886Y478D01*
X910Y478D02*
X935Y478D01*
X963Y478D02*
X989Y478D01*
X1006Y478D02*
X1036Y478D01*
X1061Y478D02*
X1086Y478D01*
X1106Y478D02*
X1113Y478D01*
X1118Y478D02*
X1138Y478D01*
X1207Y478D02*
X1213Y478D01*
X1234Y478D02*
X1240Y478D01*
X1271Y478D02*
X1277Y478D01*
X1371Y478D02*
X1377Y478D01*
X2055Y478D02*
X2062Y478D01*
X0Y477D02*
X7Y477D01*
X504Y477D02*
X536Y477D01*
X554Y477D02*
X560Y477D01*
X582Y477D02*
X588Y477D01*
X608Y477D02*
X624Y477D01*
X707Y477D02*
X713Y477D01*
X758Y477D02*
X785Y477D01*
X805Y477D02*
X811Y477D01*
X814Y477D02*
X836Y477D01*
X855Y477D02*
X862Y477D01*
X864Y477D02*
X887Y477D01*
X909Y477D02*
X936Y477D01*
X962Y477D02*
X989Y477D01*
X1006Y477D02*
X1036Y477D01*
X1059Y477D02*
X1087Y477D01*
X1106Y477D02*
X1113Y477D01*
X1116Y477D02*
X1139Y477D01*
X1207Y477D02*
X1213Y477D01*
X1234Y477D02*
X1240Y477D01*
X1271Y477D02*
X1277Y477D01*
X1371Y477D02*
X1377Y477D01*
X2055Y477D02*
X2062Y477D01*
X0Y476D02*
X7Y476D01*
X504Y476D02*
X535Y476D01*
X554Y476D02*
X560Y476D01*
X582Y476D02*
X588Y476D01*
X609Y476D02*
X624Y476D01*
X706Y476D02*
X713Y476D01*
X757Y476D02*
X786Y476D01*
X805Y476D02*
X837Y476D01*
X855Y476D02*
X887Y476D01*
X908Y476D02*
X937Y476D01*
X961Y476D02*
X988Y476D01*
X1007Y476D02*
X1035Y476D01*
X1059Y476D02*
X1088Y476D01*
X1106Y476D02*
X1113Y476D01*
X1115Y476D02*
X1139Y476D01*
X1207Y476D02*
X1213Y476D01*
X1234Y476D02*
X1240Y476D01*
X1271Y476D02*
X1277Y476D01*
X1371Y476D02*
X1377Y476D01*
X2055Y476D02*
X2062Y476D01*
X0Y475D02*
X7Y475D01*
X504Y475D02*
X534Y475D01*
X554Y475D02*
X560Y475D01*
X582Y475D02*
X588Y475D01*
X618Y475D02*
X624Y475D01*
X706Y475D02*
X712Y475D01*
X757Y475D02*
X766Y475D01*
X777Y475D02*
X787Y475D01*
X805Y475D02*
X823Y475D01*
X829Y475D02*
X837Y475D01*
X855Y475D02*
X873Y475D01*
X879Y475D02*
X888Y475D01*
X907Y475D02*
X917Y475D01*
X928Y475D02*
X938Y475D01*
X960Y475D02*
X971Y475D01*
X1013Y475D02*
X1019Y475D01*
X1058Y475D02*
X1068Y475D01*
X1078Y475D02*
X1088Y475D01*
X1106Y475D02*
X1124Y475D01*
X1131Y475D02*
X1139Y475D01*
X1207Y475D02*
X1213Y475D01*
X1234Y475D02*
X1240Y475D01*
X1271Y475D02*
X1277Y475D01*
X1371Y475D02*
X1377Y475D01*
X2055Y475D02*
X2062Y475D01*
X0Y474D02*
X7Y474D01*
X504Y474D02*
X533Y474D01*
X554Y474D02*
X560Y474D01*
X582Y474D02*
X588Y474D01*
X618Y474D02*
X624Y474D01*
X706Y474D02*
X712Y474D01*
X756Y474D02*
X764Y474D01*
X779Y474D02*
X788Y474D01*
X805Y474D02*
X821Y474D01*
X831Y474D02*
X838Y474D01*
X855Y474D02*
X871Y474D01*
X881Y474D02*
X888Y474D01*
X907Y474D02*
X915Y474D01*
X930Y474D02*
X938Y474D01*
X959Y474D02*
X969Y474D01*
X1013Y474D02*
X1019Y474D01*
X1057Y474D02*
X1066Y474D01*
X1081Y474D02*
X1089Y474D01*
X1106Y474D02*
X1123Y474D01*
X1133Y474D02*
X1140Y474D01*
X1207Y474D02*
X1213Y474D01*
X1234Y474D02*
X1240Y474D01*
X1271Y474D02*
X1277Y474D01*
X1371Y474D02*
X1377Y474D01*
X2055Y474D02*
X2062Y474D01*
X0Y473D02*
X7Y473D01*
X504Y473D02*
X531Y473D01*
X554Y473D02*
X560Y473D01*
X582Y473D02*
X588Y473D01*
X618Y473D02*
X624Y473D01*
X705Y473D02*
X712Y473D01*
X756Y473D02*
X763Y473D01*
X781Y473D02*
X788Y473D01*
X805Y473D02*
X819Y473D01*
X832Y473D02*
X838Y473D01*
X855Y473D02*
X870Y473D01*
X882Y473D02*
X888Y473D01*
X906Y473D02*
X914Y473D01*
X931Y473D02*
X939Y473D01*
X958Y473D02*
X968Y473D01*
X1013Y473D02*
X1019Y473D01*
X1057Y473D02*
X1064Y473D01*
X1082Y473D02*
X1089Y473D01*
X1106Y473D02*
X1122Y473D01*
X1134Y473D02*
X1140Y473D01*
X1207Y473D02*
X1213Y473D01*
X1234Y473D02*
X1240Y473D01*
X1271Y473D02*
X1277Y473D01*
X1371Y473D02*
X1377Y473D01*
X2055Y473D02*
X2062Y473D01*
X0Y472D02*
X7Y472D01*
X504Y472D02*
X510Y472D01*
X516Y472D02*
X524Y472D01*
X554Y472D02*
X560Y472D01*
X581Y472D02*
X588Y472D01*
X618Y472D02*
X624Y472D01*
X705Y472D02*
X711Y472D01*
X755Y472D02*
X762Y472D01*
X782Y472D02*
X788Y472D01*
X805Y472D02*
X818Y472D01*
X832Y472D02*
X838Y472D01*
X855Y472D02*
X868Y472D01*
X882Y472D02*
X888Y472D01*
X906Y472D02*
X913Y472D01*
X932Y472D02*
X939Y472D01*
X957Y472D02*
X966Y472D01*
X1013Y472D02*
X1019Y472D01*
X1057Y472D02*
X1063Y472D01*
X1083Y472D02*
X1090Y472D01*
X1106Y472D02*
X1120Y472D01*
X1134Y472D02*
X1140Y472D01*
X1207Y472D02*
X1214Y472D01*
X1234Y472D02*
X1240Y472D01*
X1271Y472D02*
X1277Y472D01*
X1371Y472D02*
X1377Y472D01*
X2055Y472D02*
X2062Y472D01*
X0Y471D02*
X7Y471D01*
X504Y471D02*
X510Y471D01*
X517Y471D02*
X524Y471D01*
X554Y471D02*
X560Y471D01*
X580Y471D02*
X587Y471D01*
X618Y471D02*
X624Y471D01*
X705Y471D02*
X711Y471D01*
X755Y471D02*
X761Y471D01*
X782Y471D02*
X789Y471D01*
X805Y471D02*
X816Y471D01*
X832Y471D02*
X838Y471D01*
X855Y471D02*
X866Y471D01*
X882Y471D02*
X888Y471D01*
X906Y471D02*
X912Y471D01*
X933Y471D02*
X939Y471D01*
X957Y471D02*
X965Y471D01*
X1013Y471D02*
X1019Y471D01*
X1056Y471D02*
X1063Y471D01*
X1083Y471D02*
X1090Y471D01*
X1106Y471D02*
X1119Y471D01*
X1134Y471D02*
X1140Y471D01*
X1207Y471D02*
X1214Y471D01*
X1233Y471D02*
X1240Y471D01*
X1271Y471D02*
X1277Y471D01*
X1371Y471D02*
X1377Y471D01*
X2055Y471D02*
X2062Y471D01*
X0Y470D02*
X7Y470D01*
X504Y470D02*
X510Y470D01*
X517Y470D02*
X524Y470D01*
X554Y470D02*
X587Y470D01*
X618Y470D02*
X624Y470D01*
X705Y470D02*
X711Y470D01*
X755Y470D02*
X761Y470D01*
X783Y470D02*
X789Y470D01*
X805Y470D02*
X815Y470D01*
X832Y470D02*
X838Y470D01*
X855Y470D02*
X865Y470D01*
X882Y470D02*
X888Y470D01*
X906Y470D02*
X912Y470D01*
X933Y470D02*
X939Y470D01*
X956Y470D02*
X964Y470D01*
X1013Y470D02*
X1019Y470D01*
X1056Y470D02*
X1062Y470D01*
X1084Y470D02*
X1090Y470D01*
X1106Y470D02*
X1118Y470D01*
X1134Y470D02*
X1140Y470D01*
X1208Y470D02*
X1214Y470D01*
X1233Y470D02*
X1240Y470D01*
X1271Y470D02*
X1277Y470D01*
X1371Y470D02*
X1377Y470D01*
X2055Y470D02*
X2062Y470D01*
X0Y469D02*
X7Y469D01*
X504Y469D02*
X510Y469D01*
X518Y469D02*
X525Y469D01*
X554Y469D02*
X587Y469D01*
X618Y469D02*
X624Y469D01*
X705Y469D02*
X711Y469D01*
X755Y469D02*
X761Y469D01*
X783Y469D02*
X789Y469D01*
X805Y469D02*
X813Y469D01*
X832Y469D02*
X838Y469D01*
X855Y469D02*
X863Y469D01*
X882Y469D02*
X888Y469D01*
X906Y469D02*
X912Y469D01*
X933Y469D02*
X939Y469D01*
X956Y469D02*
X963Y469D01*
X1013Y469D02*
X1019Y469D01*
X1056Y469D02*
X1062Y469D01*
X1084Y469D02*
X1090Y469D01*
X1106Y469D02*
X1117Y469D01*
X1134Y469D02*
X1140Y469D01*
X1208Y469D02*
X1215Y469D01*
X1233Y469D02*
X1239Y469D01*
X1271Y469D02*
X1277Y469D01*
X1371Y469D02*
X1377Y469D01*
X2055Y469D02*
X2062Y469D01*
X0Y468D02*
X7Y468D01*
X504Y468D02*
X510Y468D01*
X518Y468D02*
X526Y468D01*
X554Y468D02*
X586Y468D01*
X618Y468D02*
X624Y468D01*
X705Y468D02*
X711Y468D01*
X755Y468D02*
X761Y468D01*
X783Y468D02*
X789Y468D01*
X805Y468D02*
X812Y468D01*
X832Y468D02*
X838Y468D01*
X855Y468D02*
X862Y468D01*
X882Y468D02*
X888Y468D01*
X906Y468D02*
X912Y468D01*
X933Y468D02*
X939Y468D01*
X956Y468D02*
X962Y468D01*
X1013Y468D02*
X1019Y468D01*
X1056Y468D02*
X1062Y468D01*
X1084Y468D02*
X1090Y468D01*
X1106Y468D02*
X1116Y468D01*
X1135Y468D02*
X1140Y468D01*
X1209Y468D02*
X1215Y468D01*
X1232Y468D02*
X1239Y468D01*
X1271Y468D02*
X1277Y468D01*
X1371Y468D02*
X1377Y468D01*
X2055Y468D02*
X2062Y468D01*
X0Y467D02*
X7Y467D01*
X504Y467D02*
X510Y467D01*
X519Y467D02*
X526Y467D01*
X554Y467D02*
X585Y467D01*
X618Y467D02*
X624Y467D01*
X705Y467D02*
X711Y467D01*
X755Y467D02*
X761Y467D01*
X783Y467D02*
X789Y467D01*
X805Y467D02*
X811Y467D01*
X832Y467D02*
X838Y467D01*
X855Y467D02*
X862Y467D01*
X882Y467D02*
X888Y467D01*
X906Y467D02*
X912Y467D01*
X933Y467D02*
X939Y467D01*
X956Y467D02*
X962Y467D01*
X1013Y467D02*
X1019Y467D01*
X1056Y467D02*
X1062Y467D01*
X1084Y467D02*
X1090Y467D01*
X1106Y467D02*
X1115Y467D01*
X1135Y467D02*
X1139Y467D01*
X1209Y467D02*
X1216Y467D01*
X1232Y467D02*
X1238Y467D01*
X1271Y467D02*
X1277Y467D01*
X1287Y467D02*
X1289Y467D01*
X1371Y467D02*
X1377Y467D01*
X1387Y467D02*
X1389Y467D01*
X2055Y467D02*
X2062Y467D01*
X0Y466D02*
X7Y466D01*
X504Y466D02*
X510Y466D01*
X519Y466D02*
X527Y466D01*
X554Y466D02*
X584Y466D01*
X618Y466D02*
X624Y466D01*
X705Y466D02*
X712Y466D01*
X755Y466D02*
X761Y466D01*
X783Y466D02*
X789Y466D01*
X805Y466D02*
X811Y466D01*
X832Y466D02*
X838Y466D01*
X855Y466D02*
X862Y466D01*
X882Y466D02*
X888Y466D01*
X906Y466D02*
X912Y466D01*
X933Y466D02*
X939Y466D01*
X956Y466D02*
X962Y466D01*
X1013Y466D02*
X1019Y466D01*
X1056Y466D02*
X1062Y466D01*
X1084Y466D02*
X1090Y466D01*
X1106Y466D02*
X1113Y466D01*
X1209Y466D02*
X1216Y466D01*
X1231Y466D02*
X1238Y466D01*
X1271Y466D02*
X1277Y466D01*
X1285Y466D02*
X1290Y466D01*
X1371Y466D02*
X1377Y466D01*
X1386Y466D02*
X1390Y466D01*
X2055Y466D02*
X2062Y466D01*
X0Y465D02*
X7Y465D01*
X504Y465D02*
X510Y465D01*
X520Y465D02*
X527Y465D01*
X554Y465D02*
X583Y465D01*
X618Y465D02*
X624Y465D01*
X706Y465D02*
X712Y465D01*
X755Y465D02*
X761Y465D01*
X783Y465D02*
X789Y465D01*
X805Y465D02*
X811Y465D01*
X832Y465D02*
X838Y465D01*
X855Y465D02*
X862Y465D01*
X882Y465D02*
X888Y465D01*
X906Y465D02*
X912Y465D01*
X933Y465D02*
X939Y465D01*
X956Y465D02*
X962Y465D01*
X1013Y465D02*
X1019Y465D01*
X1056Y465D02*
X1062Y465D01*
X1084Y465D02*
X1090Y465D01*
X1106Y465D02*
X1113Y465D01*
X1210Y465D02*
X1217Y465D01*
X1231Y465D02*
X1237Y465D01*
X1271Y465D02*
X1277Y465D01*
X1285Y465D02*
X1290Y465D01*
X1371Y465D02*
X1377Y465D01*
X1385Y465D02*
X1391Y465D01*
X2055Y465D02*
X2062Y465D01*
X0Y464D02*
X7Y464D01*
X504Y464D02*
X510Y464D01*
X521Y464D02*
X528Y464D01*
X554Y464D02*
X581Y464D01*
X618Y464D02*
X624Y464D01*
X706Y464D02*
X713Y464D01*
X755Y464D02*
X761Y464D01*
X783Y464D02*
X789Y464D01*
X805Y464D02*
X811Y464D01*
X832Y464D02*
X838Y464D01*
X855Y464D02*
X862Y464D01*
X882Y464D02*
X888Y464D01*
X906Y464D02*
X939Y464D01*
X956Y464D02*
X962Y464D01*
X1013Y464D02*
X1019Y464D01*
X1056Y464D02*
X1062Y464D01*
X1084Y464D02*
X1090Y464D01*
X1106Y464D02*
X1113Y464D01*
X1210Y464D02*
X1217Y464D01*
X1230Y464D02*
X1237Y464D01*
X1271Y464D02*
X1277Y464D01*
X1285Y464D02*
X1291Y464D01*
X1320Y464D02*
X1329Y464D01*
X1371Y464D02*
X1377Y464D01*
X1385Y464D02*
X1391Y464D01*
X2055Y464D02*
X2062Y464D01*
X0Y463D02*
X7Y463D01*
X504Y463D02*
X510Y463D01*
X521Y463D02*
X528Y463D01*
X554Y463D02*
X560Y463D01*
X618Y463D02*
X624Y463D01*
X706Y463D02*
X713Y463D01*
X755Y463D02*
X761Y463D01*
X783Y463D02*
X789Y463D01*
X805Y463D02*
X811Y463D01*
X832Y463D02*
X838Y463D01*
X855Y463D02*
X862Y463D01*
X882Y463D02*
X888Y463D01*
X906Y463D02*
X939Y463D01*
X956Y463D02*
X962Y463D01*
X1013Y463D02*
X1019Y463D01*
X1056Y463D02*
X1062Y463D01*
X1084Y463D02*
X1090Y463D01*
X1106Y463D02*
X1113Y463D01*
X1211Y463D02*
X1217Y463D01*
X1230Y463D02*
X1236Y463D01*
X1271Y463D02*
X1277Y463D01*
X1285Y463D02*
X1291Y463D01*
X1318Y463D02*
X1330Y463D01*
X1371Y463D02*
X1377Y463D01*
X1385Y463D02*
X1391Y463D01*
X2055Y463D02*
X2062Y463D01*
X0Y462D02*
X7Y462D01*
X504Y462D02*
X510Y462D01*
X522Y462D02*
X529Y462D01*
X554Y462D02*
X560Y462D01*
X618Y462D02*
X624Y462D01*
X707Y462D02*
X714Y462D01*
X755Y462D02*
X761Y462D01*
X783Y462D02*
X789Y462D01*
X805Y462D02*
X811Y462D01*
X832Y462D02*
X838Y462D01*
X855Y462D02*
X862Y462D01*
X882Y462D02*
X888Y462D01*
X906Y462D02*
X939Y462D01*
X956Y462D02*
X962Y462D01*
X1013Y462D02*
X1019Y462D01*
X1056Y462D02*
X1062Y462D01*
X1084Y462D02*
X1090Y462D01*
X1106Y462D02*
X1113Y462D01*
X1211Y462D02*
X1218Y462D01*
X1229Y462D02*
X1236Y462D01*
X1271Y462D02*
X1277Y462D01*
X1285Y462D02*
X1291Y462D01*
X1318Y462D02*
X1330Y462D01*
X1371Y462D02*
X1377Y462D01*
X1385Y462D02*
X1391Y462D01*
X2055Y462D02*
X2062Y462D01*
X0Y461D02*
X7Y461D01*
X504Y461D02*
X510Y461D01*
X522Y461D02*
X530Y461D01*
X554Y461D02*
X560Y461D01*
X618Y461D02*
X624Y461D01*
X707Y461D02*
X714Y461D01*
X755Y461D02*
X761Y461D01*
X783Y461D02*
X789Y461D01*
X805Y461D02*
X811Y461D01*
X832Y461D02*
X838Y461D01*
X855Y461D02*
X862Y461D01*
X883Y461D02*
X889Y461D01*
X906Y461D02*
X939Y461D01*
X956Y461D02*
X962Y461D01*
X1013Y461D02*
X1019Y461D01*
X1056Y461D02*
X1062Y461D01*
X1084Y461D02*
X1090Y461D01*
X1106Y461D02*
X1113Y461D01*
X1212Y461D02*
X1218Y461D01*
X1229Y461D02*
X1236Y461D01*
X1271Y461D02*
X1277Y461D01*
X1285Y461D02*
X1291Y461D01*
X1318Y461D02*
X1330Y461D01*
X1371Y461D02*
X1377Y461D01*
X1385Y461D02*
X1391Y461D01*
X2055Y461D02*
X2062Y461D01*
X0Y460D02*
X7Y460D01*
X504Y460D02*
X510Y460D01*
X523Y460D02*
X530Y460D01*
X554Y460D02*
X560Y460D01*
X618Y460D02*
X624Y460D01*
X708Y460D02*
X715Y460D01*
X755Y460D02*
X761Y460D01*
X783Y460D02*
X789Y460D01*
X805Y460D02*
X811Y460D01*
X832Y460D02*
X838Y460D01*
X855Y460D02*
X862Y460D01*
X883Y460D02*
X889Y460D01*
X906Y460D02*
X939Y460D01*
X956Y460D02*
X962Y460D01*
X1013Y460D02*
X1019Y460D01*
X1056Y460D02*
X1062Y460D01*
X1084Y460D02*
X1090Y460D01*
X1106Y460D02*
X1113Y460D01*
X1212Y460D02*
X1219Y460D01*
X1229Y460D02*
X1235Y460D01*
X1271Y460D02*
X1277Y460D01*
X1285Y460D02*
X1291Y460D01*
X1318Y460D02*
X1331Y460D01*
X1371Y460D02*
X1377Y460D01*
X1385Y460D02*
X1391Y460D01*
X2055Y460D02*
X2062Y460D01*
X0Y459D02*
X7Y459D01*
X504Y459D02*
X510Y459D01*
X524Y459D02*
X531Y459D01*
X554Y459D02*
X560Y459D01*
X618Y459D02*
X624Y459D01*
X708Y459D02*
X715Y459D01*
X755Y459D02*
X761Y459D01*
X783Y459D02*
X789Y459D01*
X805Y459D02*
X811Y459D01*
X832Y459D02*
X838Y459D01*
X855Y459D02*
X862Y459D01*
X883Y459D02*
X889Y459D01*
X906Y459D02*
X939Y459D01*
X956Y459D02*
X962Y459D01*
X1013Y459D02*
X1019Y459D01*
X1056Y459D02*
X1062Y459D01*
X1084Y459D02*
X1090Y459D01*
X1106Y459D02*
X1113Y459D01*
X1213Y459D02*
X1219Y459D01*
X1228Y459D02*
X1235Y459D01*
X1271Y459D02*
X1277Y459D01*
X1285Y459D02*
X1291Y459D01*
X1318Y459D02*
X1331Y459D01*
X1371Y459D02*
X1377Y459D01*
X1385Y459D02*
X1391Y459D01*
X2055Y459D02*
X2062Y459D01*
X0Y458D02*
X7Y458D01*
X504Y458D02*
X510Y458D01*
X524Y458D02*
X531Y458D01*
X554Y458D02*
X560Y458D01*
X618Y458D02*
X624Y458D01*
X709Y458D02*
X716Y458D01*
X755Y458D02*
X761Y458D01*
X783Y458D02*
X789Y458D01*
X805Y458D02*
X811Y458D01*
X832Y458D02*
X838Y458D01*
X855Y458D02*
X862Y458D01*
X883Y458D02*
X889Y458D01*
X906Y458D02*
X938Y458D01*
X956Y458D02*
X962Y458D01*
X1013Y458D02*
X1019Y458D01*
X1056Y458D02*
X1062Y458D01*
X1084Y458D02*
X1090Y458D01*
X1106Y458D02*
X1113Y458D01*
X1213Y458D02*
X1220Y458D01*
X1228Y458D02*
X1234Y458D01*
X1271Y458D02*
X1277Y458D01*
X1285Y458D02*
X1291Y458D01*
X1318Y458D02*
X1331Y458D01*
X1371Y458D02*
X1377Y458D01*
X1385Y458D02*
X1391Y458D01*
X2055Y458D02*
X2062Y458D01*
X0Y457D02*
X7Y457D01*
X504Y457D02*
X510Y457D01*
X525Y457D02*
X532Y457D01*
X554Y457D02*
X560Y457D01*
X618Y457D02*
X624Y457D01*
X709Y457D02*
X716Y457D01*
X755Y457D02*
X761Y457D01*
X783Y457D02*
X789Y457D01*
X805Y457D02*
X811Y457D01*
X832Y457D02*
X838Y457D01*
X855Y457D02*
X862Y457D01*
X883Y457D02*
X889Y457D01*
X906Y457D02*
X912Y457D01*
X956Y457D02*
X962Y457D01*
X1013Y457D02*
X1019Y457D01*
X1056Y457D02*
X1062Y457D01*
X1084Y457D02*
X1090Y457D01*
X1106Y457D02*
X1113Y457D01*
X1213Y457D02*
X1220Y457D01*
X1227Y457D02*
X1234Y457D01*
X1271Y457D02*
X1277Y457D01*
X1285Y457D02*
X1291Y457D01*
X1318Y457D02*
X1331Y457D01*
X1371Y457D02*
X1377Y457D01*
X1385Y457D02*
X1391Y457D01*
X2055Y457D02*
X2062Y457D01*
X0Y456D02*
X7Y456D01*
X504Y456D02*
X510Y456D01*
X525Y456D02*
X533Y456D01*
X554Y456D02*
X560Y456D01*
X618Y456D02*
X624Y456D01*
X710Y456D02*
X717Y456D01*
X755Y456D02*
X761Y456D01*
X783Y456D02*
X789Y456D01*
X805Y456D02*
X811Y456D01*
X833Y456D02*
X838Y456D01*
X855Y456D02*
X862Y456D01*
X883Y456D02*
X889Y456D01*
X906Y456D02*
X912Y456D01*
X956Y456D02*
X963Y456D01*
X1013Y456D02*
X1019Y456D01*
X1056Y456D02*
X1062Y456D01*
X1084Y456D02*
X1090Y456D01*
X1106Y456D02*
X1113Y456D01*
X1214Y456D02*
X1220Y456D01*
X1227Y456D02*
X1233Y456D01*
X1271Y456D02*
X1277Y456D01*
X1285Y456D02*
X1291Y456D01*
X1318Y456D02*
X1331Y456D01*
X1371Y456D02*
X1377Y456D01*
X1385Y456D02*
X1391Y456D01*
X2055Y456D02*
X2062Y456D01*
X0Y455D02*
X7Y455D01*
X504Y455D02*
X510Y455D01*
X526Y455D02*
X533Y455D01*
X554Y455D02*
X560Y455D01*
X618Y455D02*
X624Y455D01*
X710Y455D02*
X717Y455D01*
X755Y455D02*
X761Y455D01*
X783Y455D02*
X789Y455D01*
X805Y455D02*
X811Y455D01*
X833Y455D02*
X839Y455D01*
X855Y455D02*
X862Y455D01*
X883Y455D02*
X889Y455D01*
X906Y455D02*
X912Y455D01*
X956Y455D02*
X964Y455D01*
X1013Y455D02*
X1019Y455D01*
X1035Y455D02*
X1038Y455D01*
X1056Y455D02*
X1062Y455D01*
X1084Y455D02*
X1090Y455D01*
X1106Y455D02*
X1113Y455D01*
X1214Y455D02*
X1221Y455D01*
X1226Y455D02*
X1233Y455D01*
X1271Y455D02*
X1277Y455D01*
X1285Y455D02*
X1291Y455D01*
X1318Y455D02*
X1330Y455D01*
X1371Y455D02*
X1377Y455D01*
X1385Y455D02*
X1391Y455D01*
X2055Y455D02*
X2062Y455D01*
X0Y454D02*
X7Y454D01*
X504Y454D02*
X510Y454D01*
X526Y454D02*
X534Y454D01*
X554Y454D02*
X560Y454D01*
X618Y454D02*
X624Y454D01*
X711Y454D02*
X718Y454D01*
X755Y454D02*
X761Y454D01*
X782Y454D02*
X789Y454D01*
X805Y454D02*
X811Y454D01*
X833Y454D02*
X839Y454D01*
X855Y454D02*
X862Y454D01*
X883Y454D02*
X889Y454D01*
X906Y454D02*
X912Y454D01*
X957Y454D02*
X965Y454D01*
X1013Y454D02*
X1019Y454D01*
X1034Y454D02*
X1039Y454D01*
X1056Y454D02*
X1063Y454D01*
X1084Y454D02*
X1090Y454D01*
X1106Y454D02*
X1113Y454D01*
X1215Y454D02*
X1221Y454D01*
X1226Y454D02*
X1233Y454D01*
X1271Y454D02*
X1277Y454D01*
X1285Y454D02*
X1291Y454D01*
X1318Y454D02*
X1330Y454D01*
X1371Y454D02*
X1377Y454D01*
X1385Y454D02*
X1391Y454D01*
X2055Y454D02*
X2062Y454D01*
X0Y453D02*
X7Y453D01*
X504Y453D02*
X510Y453D01*
X527Y453D02*
X534Y453D01*
X554Y453D02*
X560Y453D01*
X618Y453D02*
X624Y453D01*
X711Y453D02*
X718Y453D01*
X755Y453D02*
X762Y453D01*
X782Y453D02*
X788Y453D01*
X805Y453D02*
X811Y453D01*
X833Y453D02*
X839Y453D01*
X855Y453D02*
X862Y453D01*
X883Y453D02*
X889Y453D01*
X906Y453D02*
X913Y453D01*
X957Y453D02*
X966Y453D01*
X1013Y453D02*
X1019Y453D01*
X1034Y453D02*
X1039Y453D01*
X1057Y453D02*
X1063Y453D01*
X1083Y453D02*
X1090Y453D01*
X1106Y453D02*
X1113Y453D01*
X1215Y453D02*
X1222Y453D01*
X1225Y453D02*
X1232Y453D01*
X1271Y453D02*
X1277Y453D01*
X1285Y453D02*
X1291Y453D01*
X1318Y453D02*
X1330Y453D01*
X1371Y453D02*
X1377Y453D01*
X1385Y453D02*
X1391Y453D01*
X2055Y453D02*
X2062Y453D01*
X0Y452D02*
X7Y452D01*
X504Y452D02*
X510Y452D01*
X528Y452D02*
X535Y452D01*
X554Y452D02*
X560Y452D01*
X618Y452D02*
X624Y452D01*
X712Y452D02*
X719Y452D01*
X756Y452D02*
X763Y452D01*
X781Y452D02*
X788Y452D01*
X805Y452D02*
X811Y452D01*
X833Y452D02*
X839Y452D01*
X855Y452D02*
X862Y452D01*
X883Y452D02*
X889Y452D01*
X906Y452D02*
X914Y452D01*
X958Y452D02*
X967Y452D01*
X1013Y452D02*
X1019Y452D01*
X1033Y452D02*
X1040Y452D01*
X1057Y452D02*
X1064Y452D01*
X1082Y452D02*
X1089Y452D01*
X1106Y452D02*
X1113Y452D01*
X1216Y452D02*
X1222Y452D01*
X1225Y452D02*
X1232Y452D01*
X1271Y452D02*
X1277Y452D01*
X1285Y452D02*
X1291Y452D01*
X1319Y452D02*
X1329Y452D01*
X1371Y452D02*
X1377Y452D01*
X1385Y452D02*
X1391Y452D01*
X2055Y452D02*
X2062Y452D01*
X0Y451D02*
X7Y451D01*
X504Y451D02*
X510Y451D01*
X528Y451D02*
X535Y451D01*
X554Y451D02*
X560Y451D01*
X618Y451D02*
X624Y451D01*
X712Y451D02*
X719Y451D01*
X756Y451D02*
X764Y451D01*
X780Y451D02*
X788Y451D01*
X805Y451D02*
X811Y451D01*
X833Y451D02*
X839Y451D01*
X855Y451D02*
X862Y451D01*
X883Y451D02*
X889Y451D01*
X907Y451D02*
X915Y451D01*
X959Y451D02*
X968Y451D01*
X1013Y451D02*
X1020Y451D01*
X1033Y451D02*
X1040Y451D01*
X1057Y451D02*
X1065Y451D01*
X1081Y451D02*
X1089Y451D01*
X1106Y451D02*
X1113Y451D01*
X1216Y451D02*
X1223Y451D01*
X1225Y451D02*
X1231Y451D01*
X1271Y451D02*
X1277Y451D01*
X1285Y451D02*
X1291Y451D01*
X1371Y451D02*
X1377Y451D01*
X1385Y451D02*
X1391Y451D01*
X2055Y451D02*
X2062Y451D01*
X0Y450D02*
X7Y450D01*
X504Y450D02*
X510Y450D01*
X529Y450D02*
X536Y450D01*
X554Y450D02*
X560Y450D01*
X618Y450D02*
X624Y450D01*
X713Y450D02*
X721Y450D01*
X756Y450D02*
X766Y450D01*
X778Y450D02*
X787Y450D01*
X805Y450D02*
X811Y450D01*
X833Y450D02*
X839Y450D01*
X855Y450D02*
X862Y450D01*
X883Y450D02*
X889Y450D01*
X907Y450D02*
X916Y450D01*
X960Y450D02*
X970Y450D01*
X1013Y450D02*
X1021Y450D01*
X1032Y450D02*
X1039Y450D01*
X1058Y450D02*
X1067Y450D01*
X1079Y450D02*
X1088Y450D01*
X1106Y450D02*
X1113Y450D01*
X1216Y450D02*
X1231Y450D01*
X1271Y450D02*
X1277Y450D01*
X1285Y450D02*
X1291Y450D01*
X1371Y450D02*
X1377Y450D01*
X1385Y450D02*
X1391Y450D01*
X2055Y450D02*
X2062Y450D01*
X0Y449D02*
X7Y449D01*
X504Y449D02*
X510Y449D01*
X529Y449D02*
X537Y449D01*
X554Y449D02*
X560Y449D01*
X609Y449D02*
X633Y449D01*
X713Y449D02*
X737Y449D01*
X757Y449D02*
X786Y449D01*
X805Y449D02*
X811Y449D01*
X833Y449D02*
X839Y449D01*
X855Y449D02*
X862Y449D01*
X883Y449D02*
X889Y449D01*
X908Y449D02*
X938Y449D01*
X961Y449D02*
X988Y449D01*
X1014Y449D02*
X1039Y449D01*
X1058Y449D02*
X1088Y449D01*
X1106Y449D02*
X1113Y449D01*
X1217Y449D02*
X1230Y449D01*
X1259Y449D02*
X1291Y449D01*
X1359Y449D02*
X1391Y449D01*
X2055Y449D02*
X2062Y449D01*
X0Y448D02*
X7Y448D01*
X504Y448D02*
X510Y448D01*
X530Y448D02*
X537Y448D01*
X554Y448D02*
X560Y448D01*
X609Y448D02*
X634Y448D01*
X714Y448D02*
X738Y448D01*
X758Y448D02*
X786Y448D01*
X805Y448D02*
X811Y448D01*
X833Y448D02*
X839Y448D01*
X855Y448D02*
X862Y448D01*
X883Y448D02*
X889Y448D01*
X909Y448D02*
X939Y448D01*
X962Y448D02*
X989Y448D01*
X1014Y448D02*
X1038Y448D01*
X1059Y448D02*
X1087Y448D01*
X1106Y448D02*
X1113Y448D01*
X1217Y448D02*
X1230Y448D01*
X1258Y448D02*
X1291Y448D01*
X1358Y448D02*
X1391Y448D01*
X2055Y448D02*
X2062Y448D01*
X0Y447D02*
X7Y447D01*
X504Y447D02*
X510Y447D01*
X531Y447D02*
X537Y447D01*
X554Y447D02*
X560Y447D01*
X608Y447D02*
X634Y447D01*
X715Y447D02*
X738Y447D01*
X759Y447D02*
X785Y447D01*
X805Y447D02*
X811Y447D01*
X833Y447D02*
X839Y447D01*
X855Y447D02*
X862Y447D01*
X883Y447D02*
X889Y447D01*
X910Y447D02*
X939Y447D01*
X963Y447D02*
X989Y447D01*
X1015Y447D02*
X1038Y447D01*
X1060Y447D02*
X1086Y447D01*
X1106Y447D02*
X1113Y447D01*
X1218Y447D02*
X1229Y447D01*
X1257Y447D02*
X1291Y447D01*
X1358Y447D02*
X1391Y447D01*
X2055Y447D02*
X2062Y447D01*
X0Y446D02*
X7Y446D01*
X504Y446D02*
X510Y446D01*
X531Y446D02*
X538Y446D01*
X554Y446D02*
X560Y446D01*
X608Y446D02*
X635Y446D01*
X715Y446D02*
X738Y446D01*
X760Y446D02*
X783Y446D01*
X805Y446D02*
X811Y446D01*
X833Y446D02*
X839Y446D01*
X856Y446D02*
X861Y446D01*
X883Y446D02*
X889Y446D01*
X911Y446D02*
X939Y446D01*
X965Y446D02*
X989Y446D01*
X1016Y446D02*
X1037Y446D01*
X1061Y446D02*
X1085Y446D01*
X1107Y446D02*
X1112Y446D01*
X1218Y446D02*
X1229Y446D01*
X1257Y446D02*
X1291Y446D01*
X1358Y446D02*
X1391Y446D01*
X2055Y446D02*
X2062Y446D01*
X0Y445D02*
X7Y445D01*
X504Y445D02*
X510Y445D01*
X532Y445D02*
X537Y445D01*
X555Y445D02*
X560Y445D01*
X608Y445D02*
X634Y445D01*
X717Y445D02*
X738Y445D01*
X762Y445D02*
X782Y445D01*
X806Y445D02*
X811Y445D01*
X833Y445D02*
X839Y445D01*
X856Y445D02*
X861Y445D01*
X883Y445D02*
X889Y445D01*
X912Y445D02*
X939Y445D01*
X966Y445D02*
X989Y445D01*
X1017Y445D02*
X1036Y445D01*
X1063Y445D02*
X1083Y445D01*
X1107Y445D02*
X1112Y445D01*
X1219Y445D02*
X1229Y445D01*
X1257Y445D02*
X1290Y445D01*
X1358Y445D02*
X1391Y445D01*
X2055Y445D02*
X2062Y445D01*
X0Y444D02*
X7Y444D01*
X505Y444D02*
X509Y444D01*
X532Y444D02*
X537Y444D01*
X555Y444D02*
X559Y444D01*
X609Y444D02*
X634Y444D01*
X718Y444D02*
X738Y444D01*
X763Y444D02*
X781Y444D01*
X806Y444D02*
X810Y444D01*
X834Y444D02*
X838Y444D01*
X856Y444D02*
X861Y444D01*
X884Y444D02*
X888Y444D01*
X914Y444D02*
X938Y444D01*
X967Y444D02*
X989Y444D01*
X1018Y444D02*
X1034Y444D01*
X1064Y444D02*
X1082Y444D01*
X1107Y444D02*
X1112Y444D01*
X1219Y444D02*
X1228Y444D01*
X1258Y444D02*
X1290Y444D01*
X1358Y444D02*
X1390Y444D01*
X2055Y444D02*
X2062Y444D01*
X0Y443D02*
X7Y443D01*
X506Y443D02*
X508Y443D01*
X534Y443D02*
X536Y443D01*
X556Y443D02*
X558Y443D01*
X610Y443D02*
X632Y443D01*
X721Y443D02*
X736Y443D01*
X766Y443D02*
X778Y443D01*
X807Y443D02*
X809Y443D01*
X835Y443D02*
X837Y443D01*
X858Y443D02*
X859Y443D01*
X885Y443D02*
X887Y443D01*
X916Y443D02*
X937Y443D01*
X970Y443D02*
X987Y443D01*
X1021Y443D02*
X1032Y443D01*
X1067Y443D02*
X1079Y443D01*
X1109Y443D02*
X1110Y443D01*
X1220Y443D02*
X1227Y443D01*
X1259Y443D02*
X1288Y443D01*
X1360Y443D02*
X1389Y443D01*
X2055Y443D02*
X2062Y443D01*
X0Y442D02*
X7Y442D01*
X57Y442D02*
X61Y442D01*
X2055Y442D02*
X2062Y442D01*
X0Y441D02*
X7Y441D01*
X56Y441D02*
X62Y441D01*
X2055Y441D02*
X2062Y441D01*
X0Y440D02*
X7Y440D01*
X55Y440D02*
X63Y440D01*
X2055Y440D02*
X2062Y440D01*
X0Y439D02*
X7Y439D01*
X55Y439D02*
X63Y439D01*
X2055Y439D02*
X2062Y439D01*
X0Y438D02*
X7Y438D01*
X54Y438D02*
X63Y438D01*
X2055Y438D02*
X2062Y438D01*
X0Y437D02*
X7Y437D01*
X54Y437D02*
X63Y437D01*
X2055Y437D02*
X2062Y437D01*
X0Y436D02*
X7Y436D01*
X54Y436D02*
X63Y436D01*
X2055Y436D02*
X2062Y436D01*
X0Y435D02*
X7Y435D01*
X54Y435D02*
X63Y435D01*
X2055Y435D02*
X2062Y435D01*
X0Y434D02*
X7Y434D01*
X54Y434D02*
X63Y434D01*
X2055Y434D02*
X2062Y434D01*
X0Y433D02*
X7Y433D01*
X54Y433D02*
X63Y433D01*
X2055Y433D02*
X2062Y433D01*
X0Y432D02*
X7Y432D01*
X54Y432D02*
X63Y432D01*
X2055Y432D02*
X2062Y432D01*
X0Y431D02*
X7Y431D01*
X54Y431D02*
X63Y431D01*
X2055Y431D02*
X2062Y431D01*
X0Y430D02*
X7Y430D01*
X54Y430D02*
X63Y430D01*
X2055Y430D02*
X2062Y430D01*
X0Y429D02*
X7Y429D01*
X54Y429D02*
X63Y429D01*
X2055Y429D02*
X2062Y429D01*
X0Y428D02*
X7Y428D01*
X54Y428D02*
X63Y428D01*
X2055Y428D02*
X2062Y428D01*
X0Y427D02*
X7Y427D01*
X54Y427D02*
X63Y427D01*
X2055Y427D02*
X2062Y427D01*
X0Y426D02*
X7Y426D01*
X54Y426D02*
X63Y426D01*
X2055Y426D02*
X2062Y426D01*
X0Y425D02*
X7Y425D01*
X54Y425D02*
X63Y425D01*
X2055Y425D02*
X2062Y425D01*
X0Y424D02*
X7Y424D01*
X54Y424D02*
X63Y424D01*
X2055Y424D02*
X2062Y424D01*
X0Y423D02*
X7Y423D01*
X54Y423D02*
X64Y423D01*
X2055Y423D02*
X2062Y423D01*
X0Y422D02*
X7Y422D01*
X37Y422D02*
X81Y422D01*
X2055Y422D02*
X2062Y422D01*
X0Y421D02*
X7Y421D01*
X36Y421D02*
X82Y421D01*
X2055Y421D02*
X2062Y421D01*
X0Y420D02*
X7Y420D01*
X35Y420D02*
X83Y420D01*
X2055Y420D02*
X2062Y420D01*
X0Y419D02*
X7Y419D01*
X35Y419D02*
X83Y419D01*
X1834Y419D02*
X1845Y419D01*
X2055Y419D02*
X2062Y419D01*
X0Y418D02*
X7Y418D01*
X34Y418D02*
X83Y418D01*
X1829Y418D02*
X1849Y418D01*
X2055Y418D02*
X2062Y418D01*
X0Y417D02*
X7Y417D01*
X35Y417D02*
X83Y417D01*
X1827Y417D02*
X1852Y417D01*
X2055Y417D02*
X2062Y417D01*
X0Y416D02*
X7Y416D01*
X35Y416D02*
X83Y416D01*
X1824Y416D02*
X1854Y416D01*
X2055Y416D02*
X2062Y416D01*
X0Y415D02*
X7Y415D01*
X35Y415D02*
X82Y415D01*
X1823Y415D02*
X1856Y415D01*
X2055Y415D02*
X2062Y415D01*
X0Y414D02*
X7Y414D01*
X36Y414D02*
X81Y414D01*
X1821Y414D02*
X1857Y414D01*
X2055Y414D02*
X2062Y414D01*
X0Y413D02*
X7Y413D01*
X39Y413D02*
X79Y413D01*
X1820Y413D02*
X1859Y413D01*
X2055Y413D02*
X2062Y413D01*
X0Y412D02*
X7Y412D01*
X54Y412D02*
X63Y412D01*
X1820Y412D02*
X1859Y412D01*
X2055Y412D02*
X2062Y412D01*
X0Y411D02*
X7Y411D01*
X54Y411D02*
X63Y411D01*
X419Y411D02*
X444Y411D01*
X473Y411D02*
X475Y411D01*
X1821Y411D02*
X1832Y411D01*
X1846Y411D02*
X1858Y411D01*
X2055Y411D02*
X2062Y411D01*
X0Y410D02*
X7Y410D01*
X54Y410D02*
X63Y410D01*
X419Y410D02*
X447Y410D01*
X472Y410D02*
X476Y410D01*
X1821Y410D02*
X1829Y410D01*
X1849Y410D02*
X1857Y410D01*
X2055Y410D02*
X2062Y410D01*
X0Y409D02*
X7Y409D01*
X54Y409D02*
X63Y409D01*
X419Y409D02*
X448Y409D01*
X471Y409D02*
X476Y409D01*
X1822Y409D02*
X1827Y409D01*
X1851Y409D02*
X1856Y409D01*
X2055Y409D02*
X2062Y409D01*
X0Y408D02*
X7Y408D01*
X54Y408D02*
X63Y408D01*
X419Y408D02*
X449Y408D01*
X471Y408D02*
X477Y408D01*
X1823Y408D02*
X1826Y408D01*
X1853Y408D02*
X1856Y408D01*
X2055Y408D02*
X2062Y408D01*
X0Y407D02*
X7Y407D01*
X54Y407D02*
X63Y407D01*
X419Y407D02*
X450Y407D01*
X471Y407D02*
X477Y407D01*
X1823Y407D02*
X1824Y407D01*
X1854Y407D02*
X1855Y407D01*
X2055Y407D02*
X2062Y407D01*
X0Y406D02*
X7Y406D01*
X54Y406D02*
X63Y406D01*
X419Y406D02*
X451Y406D01*
X471Y406D02*
X477Y406D01*
X2055Y406D02*
X2062Y406D01*
X0Y405D02*
X7Y405D01*
X54Y405D02*
X63Y405D01*
X419Y405D02*
X452Y405D01*
X471Y405D02*
X477Y405D01*
X493Y405D02*
X496Y405D01*
X2055Y405D02*
X2062Y405D01*
X0Y404D02*
X7Y404D01*
X54Y404D02*
X63Y404D01*
X419Y404D02*
X425Y404D01*
X444Y404D02*
X452Y404D01*
X471Y404D02*
X477Y404D01*
X492Y404D02*
X497Y404D01*
X2055Y404D02*
X2062Y404D01*
X0Y403D02*
X7Y403D01*
X54Y403D02*
X63Y403D01*
X419Y403D02*
X425Y403D01*
X446Y403D02*
X452Y403D01*
X471Y403D02*
X477Y403D01*
X492Y403D02*
X497Y403D01*
X2055Y403D02*
X2062Y403D01*
X0Y402D02*
X7Y402D01*
X54Y402D02*
X63Y402D01*
X419Y402D02*
X425Y402D01*
X446Y402D02*
X452Y402D01*
X471Y402D02*
X477Y402D01*
X491Y402D02*
X497Y402D01*
X2055Y402D02*
X2062Y402D01*
X0Y401D02*
X7Y401D01*
X54Y401D02*
X63Y401D01*
X419Y401D02*
X425Y401D01*
X446Y401D02*
X452Y401D01*
X471Y401D02*
X477Y401D01*
X491Y401D02*
X497Y401D01*
X2055Y401D02*
X2062Y401D01*
X0Y400D02*
X7Y400D01*
X54Y400D02*
X63Y400D01*
X419Y400D02*
X425Y400D01*
X446Y400D02*
X452Y400D01*
X471Y400D02*
X477Y400D01*
X491Y400D02*
X497Y400D01*
X2055Y400D02*
X2062Y400D01*
X0Y399D02*
X7Y399D01*
X54Y399D02*
X63Y399D01*
X419Y399D02*
X425Y399D01*
X446Y399D02*
X452Y399D01*
X471Y399D02*
X477Y399D01*
X491Y399D02*
X497Y399D01*
X2055Y399D02*
X2062Y399D01*
X0Y398D02*
X7Y398D01*
X54Y398D02*
X63Y398D01*
X419Y398D02*
X425Y398D01*
X446Y398D02*
X452Y398D01*
X471Y398D02*
X477Y398D01*
X491Y398D02*
X497Y398D01*
X2055Y398D02*
X2062Y398D01*
X0Y397D02*
X7Y397D01*
X55Y397D02*
X63Y397D01*
X419Y397D02*
X425Y397D01*
X446Y397D02*
X452Y397D01*
X471Y397D02*
X477Y397D01*
X491Y397D02*
X497Y397D01*
X2055Y397D02*
X2062Y397D01*
X0Y396D02*
X7Y396D01*
X55Y396D02*
X63Y396D01*
X419Y396D02*
X425Y396D01*
X446Y396D02*
X452Y396D01*
X471Y396D02*
X477Y396D01*
X491Y396D02*
X497Y396D01*
X2055Y396D02*
X2062Y396D01*
X0Y395D02*
X7Y395D01*
X55Y395D02*
X62Y395D01*
X419Y395D02*
X425Y395D01*
X446Y395D02*
X452Y395D01*
X471Y395D02*
X477Y395D01*
X491Y395D02*
X497Y395D01*
X720Y395D02*
X723Y395D01*
X2055Y395D02*
X2062Y395D01*
X0Y394D02*
X7Y394D01*
X56Y394D02*
X61Y394D01*
X419Y394D02*
X425Y394D01*
X444Y394D02*
X452Y394D01*
X471Y394D02*
X477Y394D01*
X491Y394D02*
X497Y394D01*
X711Y394D02*
X732Y394D01*
X2055Y394D02*
X2062Y394D01*
X0Y393D02*
X7Y393D01*
X419Y393D02*
X452Y393D01*
X471Y393D02*
X477Y393D01*
X491Y393D02*
X497Y393D01*
X707Y393D02*
X737Y393D01*
X2055Y393D02*
X2062Y393D01*
X0Y392D02*
X7Y392D01*
X419Y392D02*
X451Y392D01*
X471Y392D02*
X477Y392D01*
X491Y392D02*
X497Y392D01*
X703Y392D02*
X740Y392D01*
X2055Y392D02*
X2062Y392D01*
X0Y391D02*
X7Y391D01*
X419Y391D02*
X450Y391D01*
X471Y391D02*
X477Y391D01*
X491Y391D02*
X497Y391D01*
X701Y391D02*
X743Y391D01*
X861Y391D02*
X878Y391D01*
X2055Y391D02*
X2062Y391D01*
X0Y390D02*
X7Y390D01*
X419Y390D02*
X450Y390D01*
X471Y390D02*
X477Y390D01*
X491Y390D02*
X497Y390D01*
X698Y390D02*
X746Y390D01*
X856Y390D02*
X883Y390D01*
X2055Y390D02*
X2062Y390D01*
X0Y389D02*
X7Y389D01*
X419Y389D02*
X448Y389D01*
X471Y389D02*
X477Y389D01*
X491Y389D02*
X497Y389D01*
X696Y389D02*
X748Y389D01*
X852Y389D02*
X887Y389D01*
X2055Y389D02*
X2062Y389D01*
X0Y388D02*
X7Y388D01*
X419Y388D02*
X447Y388D01*
X471Y388D02*
X477Y388D01*
X491Y388D02*
X497Y388D01*
X694Y388D02*
X750Y388D01*
X849Y388D02*
X890Y388D01*
X2055Y388D02*
X2062Y388D01*
X0Y387D02*
X7Y387D01*
X419Y387D02*
X445Y387D01*
X471Y387D02*
X477Y387D01*
X491Y387D02*
X497Y387D01*
X692Y387D02*
X752Y387D01*
X846Y387D02*
X893Y387D01*
X2055Y387D02*
X2062Y387D01*
X0Y386D02*
X7Y386D01*
X419Y386D02*
X425Y386D01*
X431Y386D02*
X438Y386D01*
X471Y386D02*
X477Y386D01*
X491Y386D02*
X497Y386D01*
X690Y386D02*
X753Y386D01*
X844Y386D02*
X895Y386D01*
X2055Y386D02*
X2062Y386D01*
X0Y385D02*
X7Y385D01*
X419Y385D02*
X425Y385D01*
X432Y385D02*
X439Y385D01*
X471Y385D02*
X477Y385D01*
X491Y385D02*
X497Y385D01*
X689Y385D02*
X719Y385D01*
X725Y385D02*
X755Y385D01*
X842Y385D02*
X897Y385D01*
X2055Y385D02*
X2062Y385D01*
X0Y384D02*
X7Y384D01*
X419Y384D02*
X425Y384D01*
X432Y384D02*
X439Y384D01*
X471Y384D02*
X477Y384D01*
X491Y384D02*
X497Y384D01*
X687Y384D02*
X710Y384D01*
X733Y384D02*
X757Y384D01*
X840Y384D02*
X899Y384D01*
X2055Y384D02*
X2062Y384D01*
X0Y383D02*
X7Y383D01*
X419Y383D02*
X425Y383D01*
X433Y383D02*
X440Y383D01*
X471Y383D02*
X477Y383D01*
X491Y383D02*
X497Y383D01*
X686Y383D02*
X706Y383D01*
X737Y383D02*
X758Y383D01*
X838Y383D02*
X900Y383D01*
X2055Y383D02*
X2062Y383D01*
X0Y382D02*
X7Y382D01*
X419Y382D02*
X425Y382D01*
X433Y382D02*
X441Y382D01*
X471Y382D02*
X477Y382D01*
X491Y382D02*
X498Y382D01*
X684Y382D02*
X704Y382D01*
X740Y382D02*
X759Y382D01*
X837Y382D02*
X902Y382D01*
X2055Y382D02*
X2062Y382D01*
X0Y381D02*
X7Y381D01*
X419Y381D02*
X425Y381D01*
X434Y381D02*
X441Y381D01*
X471Y381D02*
X500Y381D01*
X683Y381D02*
X701Y381D01*
X743Y381D02*
X761Y381D01*
X835Y381D02*
X860Y381D01*
X879Y381D02*
X904Y381D01*
X2055Y381D02*
X2062Y381D01*
X0Y380D02*
X7Y380D01*
X419Y380D02*
X425Y380D01*
X435Y380D02*
X442Y380D01*
X471Y380D02*
X500Y380D01*
X682Y380D02*
X699Y380D01*
X745Y380D02*
X762Y380D01*
X834Y380D02*
X855Y380D01*
X884Y380D02*
X905Y380D01*
X2055Y380D02*
X2062Y380D01*
X0Y379D02*
X7Y379D01*
X419Y379D02*
X425Y379D01*
X435Y379D02*
X442Y379D01*
X471Y379D02*
X501Y379D01*
X681Y379D02*
X697Y379D01*
X747Y379D02*
X763Y379D01*
X832Y379D02*
X852Y379D01*
X887Y379D02*
X906Y379D01*
X2055Y379D02*
X2062Y379D01*
X0Y378D02*
X7Y378D01*
X419Y378D02*
X425Y378D01*
X436Y378D02*
X443Y378D01*
X471Y378D02*
X501Y378D01*
X680Y378D02*
X695Y378D01*
X749Y378D02*
X764Y378D01*
X831Y378D02*
X849Y378D01*
X890Y378D02*
X908Y378D01*
X2055Y378D02*
X2062Y378D01*
X0Y377D02*
X7Y377D01*
X419Y377D02*
X425Y377D01*
X436Y377D02*
X443Y377D01*
X471Y377D02*
X501Y377D01*
X679Y377D02*
X693Y377D01*
X750Y377D02*
X765Y377D01*
X830Y377D02*
X847Y377D01*
X892Y377D02*
X909Y377D01*
X2055Y377D02*
X2062Y377D01*
X0Y376D02*
X7Y376D01*
X419Y376D02*
X425Y376D01*
X437Y376D02*
X444Y376D01*
X471Y376D02*
X500Y376D01*
X678Y376D02*
X692Y376D01*
X752Y376D02*
X766Y376D01*
X829Y376D02*
X845Y376D01*
X894Y376D02*
X910Y376D01*
X2055Y376D02*
X2062Y376D01*
X0Y375D02*
X7Y375D01*
X419Y375D02*
X425Y375D01*
X437Y375D02*
X445Y375D01*
X471Y375D02*
X498Y375D01*
X677Y375D02*
X691Y375D01*
X753Y375D02*
X767Y375D01*
X828Y375D02*
X843Y375D01*
X896Y375D02*
X911Y375D01*
X2055Y375D02*
X2062Y375D01*
X0Y374D02*
X7Y374D01*
X419Y374D02*
X425Y374D01*
X438Y374D02*
X445Y374D01*
X491Y374D02*
X497Y374D01*
X676Y374D02*
X689Y374D01*
X754Y374D02*
X768Y374D01*
X826Y374D02*
X841Y374D01*
X897Y374D02*
X912Y374D01*
X2055Y374D02*
X2062Y374D01*
X0Y373D02*
X7Y373D01*
X419Y373D02*
X425Y373D01*
X439Y373D02*
X446Y373D01*
X491Y373D02*
X497Y373D01*
X675Y373D02*
X688Y373D01*
X756Y373D02*
X769Y373D01*
X825Y373D02*
X840Y373D01*
X899Y373D02*
X913Y373D01*
X2055Y373D02*
X2062Y373D01*
X0Y372D02*
X7Y372D01*
X419Y372D02*
X425Y372D01*
X439Y372D02*
X446Y372D01*
X491Y372D02*
X497Y372D01*
X674Y372D02*
X687Y372D01*
X757Y372D02*
X770Y372D01*
X825Y372D02*
X839Y372D01*
X900Y372D02*
X914Y372D01*
X2055Y372D02*
X2062Y372D01*
X0Y371D02*
X7Y371D01*
X419Y371D02*
X425Y371D01*
X440Y371D02*
X447Y371D01*
X491Y371D02*
X497Y371D01*
X673Y371D02*
X686Y371D01*
X758Y371D02*
X770Y371D01*
X824Y371D02*
X837Y371D01*
X902Y371D02*
X915Y371D01*
X2055Y371D02*
X2062Y371D01*
X0Y370D02*
X7Y370D01*
X27Y370D02*
X31Y370D01*
X419Y370D02*
X425Y370D01*
X440Y370D02*
X448Y370D01*
X491Y370D02*
X497Y370D01*
X673Y370D02*
X685Y370D01*
X759Y370D02*
X771Y370D01*
X823Y370D02*
X836Y370D01*
X903Y370D02*
X916Y370D01*
X2055Y370D02*
X2062Y370D01*
X0Y369D02*
X7Y369D01*
X26Y369D02*
X32Y369D01*
X419Y369D02*
X425Y369D01*
X441Y369D02*
X448Y369D01*
X491Y369D02*
X497Y369D01*
X672Y369D02*
X684Y369D01*
X760Y369D02*
X772Y369D01*
X822Y369D02*
X835Y369D01*
X904Y369D02*
X917Y369D01*
X2055Y369D02*
X2062Y369D01*
X0Y368D02*
X7Y368D01*
X25Y368D02*
X33Y368D01*
X419Y368D02*
X425Y368D01*
X442Y368D02*
X449Y368D01*
X491Y368D02*
X497Y368D01*
X671Y368D02*
X683Y368D01*
X761Y368D02*
X773Y368D01*
X821Y368D02*
X834Y368D01*
X905Y368D02*
X918Y368D01*
X2055Y368D02*
X2062Y368D01*
X0Y367D02*
X7Y367D01*
X25Y367D02*
X33Y367D01*
X419Y367D02*
X425Y367D01*
X442Y367D02*
X449Y367D01*
X491Y367D02*
X497Y367D01*
X671Y367D02*
X682Y367D01*
X762Y367D02*
X773Y367D01*
X820Y367D02*
X833Y367D01*
X906Y367D02*
X918Y367D01*
X2055Y367D02*
X2062Y367D01*
X0Y366D02*
X7Y366D01*
X24Y366D02*
X34Y366D01*
X419Y366D02*
X425Y366D01*
X443Y366D02*
X450Y366D01*
X491Y366D02*
X497Y366D01*
X670Y366D02*
X681Y366D01*
X763Y366D02*
X774Y366D01*
X820Y366D02*
X832Y366D01*
X907Y366D02*
X919Y366D01*
X2055Y366D02*
X2062Y366D01*
X0Y365D02*
X7Y365D01*
X24Y365D02*
X34Y365D01*
X419Y365D02*
X425Y365D01*
X443Y365D02*
X450Y365D01*
X491Y365D02*
X497Y365D01*
X669Y365D02*
X680Y365D01*
X763Y365D02*
X774Y365D01*
X819Y365D02*
X831Y365D01*
X908Y365D02*
X920Y365D01*
X1855Y365D02*
X1855Y365D01*
X2055Y365D02*
X2062Y365D01*
X0Y364D02*
X7Y364D01*
X23Y364D02*
X33Y364D01*
X419Y364D02*
X425Y364D01*
X444Y364D02*
X451Y364D01*
X491Y364D02*
X497Y364D01*
X669Y364D02*
X680Y364D01*
X764Y364D02*
X775Y364D01*
X818Y364D02*
X830Y364D01*
X909Y364D02*
X921Y364D01*
X1823Y364D02*
X1825Y364D01*
X1854Y364D02*
X1855Y364D01*
X2055Y364D02*
X2062Y364D01*
X0Y363D02*
X7Y363D01*
X23Y363D02*
X33Y363D01*
X419Y363D02*
X425Y363D01*
X444Y363D02*
X452Y363D01*
X491Y363D02*
X497Y363D01*
X668Y363D02*
X679Y363D01*
X765Y363D02*
X776Y363D01*
X818Y363D02*
X829Y363D01*
X910Y363D02*
X921Y363D01*
X1822Y363D02*
X1827Y363D01*
X1852Y363D02*
X1856Y363D01*
X2055Y363D02*
X2062Y363D01*
X0Y362D02*
X7Y362D01*
X22Y362D02*
X33Y362D01*
X419Y362D02*
X425Y362D01*
X445Y362D02*
X452Y362D01*
X491Y362D02*
X497Y362D01*
X668Y362D02*
X678Y362D01*
X766Y362D02*
X776Y362D01*
X817Y362D02*
X828Y362D01*
X911Y362D02*
X922Y362D01*
X1822Y362D02*
X1828Y362D01*
X1850Y362D02*
X1857Y362D01*
X2055Y362D02*
X2062Y362D01*
X0Y361D02*
X7Y361D01*
X22Y361D02*
X32Y361D01*
X419Y361D02*
X425Y361D01*
X446Y361D02*
X452Y361D01*
X491Y361D02*
X497Y361D01*
X667Y361D02*
X677Y361D01*
X766Y361D02*
X777Y361D01*
X816Y361D02*
X827Y361D01*
X911Y361D02*
X922Y361D01*
X1821Y361D02*
X1831Y361D01*
X1848Y361D02*
X1858Y361D01*
X2055Y361D02*
X2062Y361D01*
X0Y360D02*
X7Y360D01*
X22Y360D02*
X32Y360D01*
X54Y360D02*
X97Y360D01*
X419Y360D02*
X425Y360D01*
X446Y360D02*
X452Y360D01*
X492Y360D02*
X497Y360D01*
X667Y360D02*
X677Y360D01*
X767Y360D02*
X777Y360D01*
X816Y360D02*
X827Y360D01*
X912Y360D02*
X923Y360D01*
X1820Y360D02*
X1835Y360D01*
X1844Y360D02*
X1858Y360D01*
X2055Y360D02*
X2062Y360D01*
X0Y359D02*
X7Y359D01*
X21Y359D02*
X31Y359D01*
X54Y359D02*
X97Y359D01*
X419Y359D02*
X424Y359D01*
X447Y359D02*
X452Y359D01*
X492Y359D02*
X497Y359D01*
X666Y359D02*
X676Y359D01*
X767Y359D02*
X778Y359D01*
X815Y359D02*
X826Y359D01*
X913Y359D02*
X923Y359D01*
X1819Y359D02*
X1859Y359D01*
X2055Y359D02*
X2062Y359D01*
X0Y358D02*
X7Y358D01*
X21Y358D02*
X31Y358D01*
X54Y358D02*
X97Y358D01*
X420Y358D02*
X423Y358D01*
X448Y358D02*
X451Y358D01*
X493Y358D02*
X496Y358D01*
X666Y358D02*
X676Y358D01*
X768Y358D02*
X778Y358D01*
X815Y358D02*
X825Y358D01*
X914Y358D02*
X924Y358D01*
X1821Y358D02*
X1858Y358D01*
X2055Y358D02*
X2062Y358D01*
X0Y357D02*
X7Y357D01*
X21Y357D02*
X30Y357D01*
X54Y357D02*
X97Y357D01*
X665Y357D02*
X675Y357D01*
X769Y357D02*
X778Y357D01*
X814Y357D02*
X825Y357D01*
X914Y357D02*
X924Y357D01*
X1822Y357D02*
X1856Y357D01*
X2055Y357D02*
X2062Y357D01*
X0Y356D02*
X7Y356D01*
X21Y356D02*
X30Y356D01*
X54Y356D02*
X97Y356D01*
X665Y356D02*
X675Y356D01*
X769Y356D02*
X779Y356D01*
X814Y356D02*
X824Y356D01*
X915Y356D02*
X925Y356D01*
X1824Y356D02*
X1855Y356D01*
X2055Y356D02*
X2062Y356D01*
X0Y355D02*
X7Y355D01*
X20Y355D02*
X30Y355D01*
X54Y355D02*
X97Y355D01*
X664Y355D02*
X674Y355D01*
X770Y355D02*
X779Y355D01*
X813Y355D02*
X823Y355D01*
X915Y355D02*
X925Y355D01*
X1826Y355D02*
X1853Y355D01*
X2055Y355D02*
X2062Y355D01*
X0Y354D02*
X7Y354D01*
X20Y354D02*
X29Y354D01*
X54Y354D02*
X97Y354D01*
X664Y354D02*
X674Y354D01*
X770Y354D02*
X780Y354D01*
X813Y354D02*
X823Y354D01*
X916Y354D02*
X926Y354D01*
X1828Y354D02*
X1850Y354D01*
X2055Y354D02*
X2062Y354D01*
X0Y353D02*
X7Y353D01*
X20Y353D02*
X29Y353D01*
X54Y353D02*
X97Y353D01*
X664Y353D02*
X673Y353D01*
X770Y353D02*
X780Y353D01*
X813Y353D02*
X822Y353D01*
X916Y353D02*
X926Y353D01*
X1832Y353D02*
X1847Y353D01*
X2055Y353D02*
X2062Y353D01*
X0Y352D02*
X7Y352D01*
X20Y352D02*
X29Y352D01*
X54Y352D02*
X97Y352D01*
X663Y352D02*
X673Y352D01*
X771Y352D02*
X780Y352D01*
X812Y352D02*
X822Y352D01*
X917Y352D02*
X927Y352D01*
X2055Y352D02*
X2062Y352D01*
X0Y351D02*
X7Y351D01*
X20Y351D02*
X29Y351D01*
X54Y351D02*
X97Y351D01*
X663Y351D02*
X672Y351D01*
X771Y351D02*
X781Y351D01*
X812Y351D02*
X821Y351D01*
X917Y351D02*
X927Y351D01*
X2055Y351D02*
X2062Y351D01*
X0Y350D02*
X7Y350D01*
X20Y350D02*
X29Y350D01*
X54Y350D02*
X63Y350D01*
X88Y350D02*
X97Y350D01*
X458Y350D02*
X471Y350D01*
X663Y350D02*
X672Y350D01*
X772Y350D02*
X781Y350D01*
X811Y350D02*
X821Y350D01*
X918Y350D02*
X927Y350D01*
X2055Y350D02*
X2062Y350D01*
X0Y349D02*
X7Y349D01*
X20Y349D02*
X29Y349D01*
X54Y349D02*
X63Y349D01*
X88Y349D02*
X97Y349D01*
X452Y349D02*
X477Y349D01*
X663Y349D02*
X672Y349D01*
X772Y349D02*
X781Y349D01*
X811Y349D02*
X820Y349D01*
X918Y349D02*
X928Y349D01*
X2055Y349D02*
X2062Y349D01*
X0Y348D02*
X7Y348D01*
X20Y348D02*
X29Y348D01*
X54Y348D02*
X63Y348D01*
X88Y348D02*
X97Y348D01*
X448Y348D02*
X481Y348D01*
X662Y348D02*
X671Y348D01*
X772Y348D02*
X781Y348D01*
X811Y348D02*
X820Y348D01*
X919Y348D02*
X928Y348D01*
X2055Y348D02*
X2062Y348D01*
X0Y347D02*
X7Y347D01*
X20Y347D02*
X29Y347D01*
X54Y347D02*
X63Y347D01*
X88Y347D02*
X97Y347D01*
X445Y347D02*
X484Y347D01*
X662Y347D02*
X671Y347D01*
X772Y347D02*
X782Y347D01*
X810Y347D02*
X820Y347D01*
X919Y347D02*
X928Y347D01*
X2055Y347D02*
X2062Y347D01*
X0Y346D02*
X7Y346D01*
X20Y346D02*
X29Y346D01*
X54Y346D02*
X63Y346D01*
X88Y346D02*
X97Y346D01*
X442Y346D02*
X487Y346D01*
X662Y346D02*
X671Y346D01*
X773Y346D02*
X782Y346D01*
X810Y346D02*
X819Y346D01*
X919Y346D02*
X929Y346D01*
X1824Y346D02*
X1837Y346D01*
X1860Y346D02*
X1876Y346D01*
X2055Y346D02*
X2062Y346D01*
X0Y345D02*
X7Y345D01*
X20Y345D02*
X29Y345D01*
X54Y345D02*
X63Y345D01*
X88Y345D02*
X97Y345D01*
X440Y345D02*
X489Y345D01*
X662Y345D02*
X671Y345D01*
X773Y345D02*
X782Y345D01*
X810Y345D02*
X819Y345D01*
X920Y345D02*
X929Y345D01*
X1820Y345D02*
X1839Y345D01*
X1857Y345D02*
X1876Y345D01*
X2055Y345D02*
X2062Y345D01*
X0Y344D02*
X7Y344D01*
X20Y344D02*
X29Y344D01*
X54Y344D02*
X63Y344D01*
X88Y344D02*
X97Y344D01*
X438Y344D02*
X491Y344D01*
X661Y344D02*
X670Y344D01*
X773Y344D02*
X782Y344D01*
X810Y344D02*
X819Y344D01*
X920Y344D02*
X929Y344D01*
X1818Y344D02*
X1839Y344D01*
X1857Y344D02*
X1876Y344D01*
X2055Y344D02*
X2062Y344D01*
X0Y343D02*
X7Y343D01*
X20Y343D02*
X29Y343D01*
X54Y343D02*
X63Y343D01*
X88Y343D02*
X97Y343D01*
X436Y343D02*
X493Y343D01*
X661Y343D02*
X670Y343D01*
X773Y343D02*
X782Y343D01*
X809Y343D02*
X819Y343D01*
X920Y343D02*
X929Y343D01*
X1817Y343D02*
X1840Y343D01*
X1856Y343D02*
X1876Y343D01*
X2055Y343D02*
X2062Y343D01*
X0Y342D02*
X7Y342D01*
X20Y342D02*
X29Y342D01*
X54Y342D02*
X63Y342D01*
X88Y342D02*
X97Y342D01*
X434Y342D02*
X495Y342D01*
X661Y342D02*
X670Y342D01*
X774Y342D02*
X783Y342D01*
X809Y342D02*
X818Y342D01*
X920Y342D02*
X930Y342D01*
X1816Y342D02*
X1840Y342D01*
X1856Y342D02*
X1876Y342D01*
X2055Y342D02*
X2062Y342D01*
X0Y341D02*
X7Y341D01*
X20Y341D02*
X29Y341D01*
X54Y341D02*
X63Y341D01*
X88Y341D02*
X97Y341D01*
X433Y341D02*
X497Y341D01*
X661Y341D02*
X670Y341D01*
X774Y341D02*
X783Y341D01*
X809Y341D02*
X818Y341D01*
X921Y341D02*
X930Y341D01*
X1815Y341D02*
X1839Y341D01*
X1857Y341D02*
X1876Y341D01*
X2055Y341D02*
X2062Y341D01*
X0Y340D02*
X7Y340D01*
X20Y340D02*
X29Y340D01*
X54Y340D02*
X63Y340D01*
X88Y340D02*
X97Y340D01*
X431Y340D02*
X458Y340D01*
X472Y340D02*
X499Y340D01*
X661Y340D02*
X670Y340D01*
X774Y340D02*
X783Y340D01*
X809Y340D02*
X818Y340D01*
X921Y340D02*
X930Y340D01*
X1815Y340D02*
X1839Y340D01*
X1858Y340D02*
X1876Y340D01*
X2055Y340D02*
X2062Y340D01*
X0Y339D02*
X7Y339D01*
X20Y339D02*
X29Y339D01*
X54Y339D02*
X63Y339D01*
X88Y339D02*
X97Y339D01*
X429Y339D02*
X452Y339D01*
X477Y339D02*
X500Y339D01*
X661Y339D02*
X670Y339D01*
X774Y339D02*
X783Y339D01*
X809Y339D02*
X818Y339D01*
X921Y339D02*
X930Y339D01*
X1814Y339D02*
X1823Y339D01*
X1870Y339D02*
X1876Y339D01*
X2055Y339D02*
X2062Y339D01*
X0Y338D02*
X7Y338D01*
X20Y338D02*
X29Y338D01*
X54Y338D02*
X63Y338D01*
X88Y338D02*
X97Y338D01*
X428Y338D02*
X448Y338D01*
X481Y338D02*
X501Y338D01*
X661Y338D02*
X670Y338D01*
X774Y338D02*
X783Y338D01*
X809Y338D02*
X818Y338D01*
X921Y338D02*
X930Y338D01*
X1814Y338D02*
X1821Y338D01*
X1870Y338D02*
X1876Y338D01*
X2055Y338D02*
X2062Y338D01*
X0Y337D02*
X7Y337D01*
X20Y337D02*
X29Y337D01*
X54Y337D02*
X63Y337D01*
X88Y337D02*
X97Y337D01*
X427Y337D02*
X445Y337D01*
X484Y337D02*
X503Y337D01*
X661Y337D02*
X670Y337D01*
X774Y337D02*
X783Y337D01*
X808Y337D02*
X817Y337D01*
X921Y337D02*
X930Y337D01*
X1813Y337D02*
X1820Y337D01*
X1870Y337D02*
X1876Y337D01*
X2055Y337D02*
X2062Y337D01*
X0Y336D02*
X7Y336D01*
X20Y336D02*
X29Y336D01*
X54Y336D02*
X63Y336D01*
X88Y336D02*
X97Y336D01*
X425Y336D02*
X443Y336D01*
X486Y336D02*
X504Y336D01*
X660Y336D02*
X669Y336D01*
X774Y336D02*
X783Y336D01*
X808Y336D02*
X817Y336D01*
X922Y336D02*
X931Y336D01*
X1813Y336D02*
X1820Y336D01*
X1870Y336D02*
X1876Y336D01*
X2055Y336D02*
X2062Y336D01*
X0Y335D02*
X7Y335D01*
X20Y335D02*
X29Y335D01*
X54Y335D02*
X63Y335D01*
X88Y335D02*
X97Y335D01*
X424Y335D02*
X441Y335D01*
X488Y335D02*
X505Y335D01*
X660Y335D02*
X669Y335D01*
X774Y335D02*
X783Y335D01*
X808Y335D02*
X817Y335D01*
X922Y335D02*
X931Y335D01*
X1812Y335D02*
X1819Y335D01*
X1870Y335D02*
X1876Y335D01*
X2055Y335D02*
X2062Y335D01*
X0Y334D02*
X7Y334D01*
X20Y334D02*
X29Y334D01*
X54Y334D02*
X63Y334D01*
X88Y334D02*
X97Y334D01*
X423Y334D02*
X439Y334D01*
X490Y334D02*
X506Y334D01*
X660Y334D02*
X669Y334D01*
X774Y334D02*
X783Y334D01*
X808Y334D02*
X817Y334D01*
X922Y334D02*
X931Y334D01*
X1812Y334D02*
X1819Y334D01*
X1870Y334D02*
X1876Y334D01*
X2055Y334D02*
X2062Y334D01*
X0Y333D02*
X7Y333D01*
X20Y333D02*
X29Y333D01*
X54Y333D02*
X63Y333D01*
X88Y333D02*
X97Y333D01*
X422Y333D02*
X437Y333D01*
X492Y333D02*
X507Y333D01*
X660Y333D02*
X669Y333D01*
X774Y333D02*
X783Y333D01*
X808Y333D02*
X817Y333D01*
X922Y333D02*
X931Y333D01*
X1811Y333D02*
X1818Y333D01*
X1870Y333D02*
X1876Y333D01*
X2055Y333D02*
X2062Y333D01*
X0Y332D02*
X7Y332D01*
X20Y332D02*
X29Y332D01*
X54Y332D02*
X63Y332D01*
X88Y332D02*
X97Y332D01*
X421Y332D02*
X436Y332D01*
X494Y332D02*
X508Y332D01*
X660Y332D02*
X669Y332D01*
X774Y332D02*
X783Y332D01*
X808Y332D02*
X817Y332D01*
X922Y332D02*
X931Y332D01*
X1811Y332D02*
X1818Y332D01*
X1870Y332D02*
X1876Y332D01*
X2055Y332D02*
X2062Y332D01*
X0Y331D02*
X7Y331D01*
X20Y331D02*
X30Y331D01*
X54Y331D02*
X63Y331D01*
X88Y331D02*
X97Y331D01*
X420Y331D02*
X434Y331D01*
X495Y331D02*
X509Y331D01*
X660Y331D02*
X669Y331D01*
X774Y331D02*
X783Y331D01*
X808Y331D02*
X817Y331D01*
X922Y331D02*
X931Y331D01*
X1810Y331D02*
X1817Y331D01*
X1870Y331D02*
X1876Y331D01*
X2055Y331D02*
X2062Y331D01*
X0Y330D02*
X7Y330D01*
X20Y330D02*
X63Y330D01*
X88Y330D02*
X97Y330D01*
X419Y330D02*
X433Y330D01*
X496Y330D02*
X510Y330D01*
X661Y330D02*
X669Y330D01*
X774Y330D02*
X783Y330D01*
X808Y330D02*
X817Y330D01*
X922Y330D02*
X931Y330D01*
X1810Y330D02*
X1817Y330D01*
X1870Y330D02*
X1876Y330D01*
X2055Y330D02*
X2062Y330D01*
X0Y329D02*
X7Y329D01*
X20Y329D02*
X63Y329D01*
X88Y329D02*
X97Y329D01*
X418Y329D02*
X432Y329D01*
X498Y329D02*
X511Y329D01*
X661Y329D02*
X670Y329D01*
X774Y329D02*
X783Y329D01*
X808Y329D02*
X817Y329D01*
X922Y329D02*
X931Y329D01*
X1809Y329D02*
X1816Y329D01*
X1870Y329D02*
X1876Y329D01*
X2055Y329D02*
X2062Y329D01*
X0Y328D02*
X7Y328D01*
X21Y328D02*
X63Y328D01*
X88Y328D02*
X97Y328D01*
X417Y328D02*
X430Y328D01*
X499Y328D02*
X512Y328D01*
X661Y328D02*
X670Y328D01*
X774Y328D02*
X783Y328D01*
X808Y328D02*
X817Y328D01*
X922Y328D02*
X931Y328D01*
X1809Y328D02*
X1816Y328D01*
X1870Y328D02*
X1876Y328D01*
X2055Y328D02*
X2062Y328D01*
X0Y327D02*
X7Y327D01*
X21Y327D02*
X63Y327D01*
X88Y327D02*
X97Y327D01*
X417Y327D02*
X429Y327D01*
X500Y327D02*
X513Y327D01*
X661Y327D02*
X670Y327D01*
X774Y327D02*
X783Y327D01*
X808Y327D02*
X817Y327D01*
X922Y327D02*
X931Y327D01*
X1808Y327D02*
X1815Y327D01*
X1870Y327D02*
X1876Y327D01*
X2055Y327D02*
X2062Y327D01*
X0Y326D02*
X7Y326D01*
X22Y326D02*
X62Y326D01*
X88Y326D02*
X97Y326D01*
X416Y326D02*
X428Y326D01*
X501Y326D02*
X513Y326D01*
X661Y326D02*
X670Y326D01*
X774Y326D02*
X783Y326D01*
X808Y326D02*
X817Y326D01*
X922Y326D02*
X931Y326D01*
X1808Y326D02*
X1815Y326D01*
X1870Y326D02*
X1876Y326D01*
X2055Y326D02*
X2062Y326D01*
X0Y325D02*
X7Y325D01*
X22Y325D02*
X61Y325D01*
X88Y325D02*
X97Y325D01*
X415Y325D02*
X427Y325D01*
X502Y325D02*
X514Y325D01*
X661Y325D02*
X670Y325D01*
X774Y325D02*
X783Y325D01*
X808Y325D02*
X817Y325D01*
X922Y325D02*
X931Y325D01*
X1807Y325D02*
X1814Y325D01*
X1870Y325D02*
X1876Y325D01*
X2055Y325D02*
X2062Y325D01*
X0Y324D02*
X7Y324D01*
X23Y324D02*
X61Y324D01*
X89Y324D02*
X97Y324D01*
X414Y324D02*
X426Y324D01*
X503Y324D02*
X515Y324D01*
X661Y324D02*
X670Y324D01*
X774Y324D02*
X783Y324D01*
X808Y324D02*
X817Y324D01*
X922Y324D02*
X931Y324D01*
X1807Y324D02*
X1814Y324D01*
X1870Y324D02*
X1876Y324D01*
X2055Y324D02*
X2062Y324D01*
X0Y323D02*
X7Y323D01*
X24Y323D02*
X59Y323D01*
X89Y323D02*
X96Y323D01*
X414Y323D02*
X425Y323D01*
X504Y323D02*
X516Y323D01*
X661Y323D02*
X670Y323D01*
X773Y323D02*
X782Y323D01*
X808Y323D02*
X817Y323D01*
X921Y323D02*
X930Y323D01*
X1807Y323D02*
X1813Y323D01*
X1870Y323D02*
X1876Y323D01*
X2055Y323D02*
X2062Y323D01*
X0Y322D02*
X7Y322D01*
X26Y322D02*
X58Y322D01*
X90Y322D02*
X96Y322D01*
X413Y322D02*
X424Y322D01*
X505Y322D02*
X516Y322D01*
X661Y322D02*
X671Y322D01*
X773Y322D02*
X782Y322D01*
X808Y322D02*
X818Y322D01*
X921Y322D02*
X930Y322D01*
X1806Y322D02*
X1813Y322D01*
X1870Y322D02*
X1876Y322D01*
X2055Y322D02*
X2062Y322D01*
X0Y321D02*
X7Y321D01*
X28Y321D02*
X56Y321D01*
X92Y321D02*
X94Y321D01*
X413Y321D02*
X424Y321D01*
X506Y321D02*
X517Y321D01*
X662Y321D02*
X671Y321D01*
X773Y321D02*
X782Y321D01*
X809Y321D02*
X818Y321D01*
X921Y321D02*
X930Y321D01*
X1806Y321D02*
X1812Y321D01*
X1870Y321D02*
X1876Y321D01*
X2055Y321D02*
X2062Y321D01*
X0Y320D02*
X7Y320D01*
X412Y320D02*
X423Y320D01*
X506Y320D02*
X517Y320D01*
X662Y320D02*
X671Y320D01*
X773Y320D02*
X782Y320D01*
X809Y320D02*
X818Y320D01*
X921Y320D02*
X930Y320D01*
X1806Y320D02*
X1812Y320D01*
X1870Y320D02*
X1876Y320D01*
X2055Y320D02*
X2062Y320D01*
X0Y319D02*
X7Y319D01*
X411Y319D02*
X422Y319D01*
X507Y319D02*
X518Y319D01*
X662Y319D02*
X671Y319D01*
X772Y319D02*
X782Y319D01*
X809Y319D02*
X818Y319D01*
X921Y319D02*
X930Y319D01*
X1806Y319D02*
X1812Y319D01*
X1870Y319D02*
X1876Y319D01*
X2055Y319D02*
X2062Y319D01*
X0Y318D02*
X7Y318D01*
X411Y318D02*
X421Y318D01*
X508Y318D02*
X519Y318D01*
X662Y318D02*
X672Y318D01*
X772Y318D02*
X781Y318D01*
X809Y318D02*
X818Y318D01*
X921Y318D02*
X930Y318D01*
X1806Y318D02*
X1812Y318D01*
X1870Y318D02*
X1876Y318D01*
X2055Y318D02*
X2062Y318D01*
X0Y317D02*
X7Y317D01*
X410Y317D02*
X421Y317D01*
X509Y317D02*
X519Y317D01*
X663Y317D02*
X672Y317D01*
X772Y317D02*
X781Y317D01*
X809Y317D02*
X818Y317D01*
X920Y317D02*
X929Y317D01*
X1806Y317D02*
X1812Y317D01*
X1870Y317D02*
X1876Y317D01*
X2055Y317D02*
X2062Y317D01*
X0Y316D02*
X7Y316D01*
X410Y316D02*
X420Y316D01*
X509Y316D02*
X520Y316D01*
X663Y316D02*
X672Y316D01*
X771Y316D02*
X781Y316D01*
X810Y316D02*
X819Y316D01*
X920Y316D02*
X929Y316D01*
X1806Y316D02*
X1813Y316D01*
X1870Y316D02*
X1876Y316D01*
X1886Y316D02*
X1888Y316D01*
X2055Y316D02*
X2062Y316D01*
X0Y315D02*
X7Y315D01*
X409Y315D02*
X419Y315D01*
X510Y315D02*
X520Y315D01*
X663Y315D02*
X673Y315D01*
X771Y315D02*
X781Y315D01*
X810Y315D02*
X819Y315D01*
X920Y315D02*
X929Y315D01*
X1807Y315D02*
X1813Y315D01*
X1870Y315D02*
X1876Y315D01*
X1885Y315D02*
X1889Y315D01*
X2055Y315D02*
X2062Y315D01*
X0Y314D02*
X7Y314D01*
X409Y314D02*
X419Y314D01*
X511Y314D02*
X521Y314D01*
X663Y314D02*
X673Y314D01*
X771Y314D02*
X780Y314D01*
X810Y314D02*
X819Y314D01*
X919Y314D02*
X929Y314D01*
X1807Y314D02*
X1814Y314D01*
X1870Y314D02*
X1876Y314D01*
X1884Y314D02*
X1890Y314D01*
X2055Y314D02*
X2062Y314D01*
X0Y313D02*
X7Y313D01*
X408Y313D02*
X418Y313D01*
X511Y313D02*
X521Y313D01*
X664Y313D02*
X673Y313D01*
X770Y313D02*
X780Y313D01*
X810Y313D02*
X820Y313D01*
X919Y313D02*
X928Y313D01*
X1807Y313D02*
X1814Y313D01*
X1870Y313D02*
X1876Y313D01*
X1884Y313D02*
X1890Y313D01*
X2055Y313D02*
X2062Y313D01*
X0Y312D02*
X7Y312D01*
X408Y312D02*
X418Y312D01*
X512Y312D02*
X521Y312D01*
X664Y312D02*
X674Y312D01*
X770Y312D02*
X779Y312D01*
X811Y312D02*
X820Y312D01*
X919Y312D02*
X928Y312D01*
X1808Y312D02*
X1815Y312D01*
X1870Y312D02*
X1876Y312D01*
X1884Y312D02*
X1890Y312D01*
X2055Y312D02*
X2062Y312D01*
X0Y311D02*
X7Y311D01*
X408Y311D02*
X417Y311D01*
X512Y311D02*
X522Y311D01*
X665Y311D02*
X674Y311D01*
X769Y311D02*
X779Y311D01*
X811Y311D02*
X820Y311D01*
X918Y311D02*
X928Y311D01*
X1808Y311D02*
X1815Y311D01*
X1870Y311D02*
X1876Y311D01*
X1884Y311D02*
X1890Y311D01*
X2055Y311D02*
X2062Y311D01*
X0Y310D02*
X7Y310D01*
X407Y310D02*
X417Y310D01*
X513Y310D02*
X522Y310D01*
X665Y310D02*
X675Y310D01*
X769Y310D02*
X779Y310D01*
X811Y310D02*
X821Y310D01*
X918Y310D02*
X927Y310D01*
X1809Y310D02*
X1816Y310D01*
X1870Y310D02*
X1876Y310D01*
X1884Y310D02*
X1890Y310D01*
X2055Y310D02*
X2062Y310D01*
X0Y309D02*
X7Y309D01*
X407Y309D02*
X416Y309D01*
X513Y309D02*
X523Y309D01*
X665Y309D02*
X675Y309D01*
X768Y309D02*
X778Y309D01*
X812Y309D02*
X821Y309D01*
X918Y309D02*
X927Y309D01*
X1809Y309D02*
X1816Y309D01*
X1870Y309D02*
X1876Y309D01*
X1884Y309D02*
X1890Y309D01*
X2055Y309D02*
X2062Y309D01*
X0Y308D02*
X7Y308D01*
X406Y308D02*
X416Y308D01*
X513Y308D02*
X523Y308D01*
X666Y308D02*
X676Y308D01*
X768Y308D02*
X778Y308D01*
X812Y308D02*
X822Y308D01*
X917Y308D02*
X927Y308D01*
X1810Y308D02*
X1817Y308D01*
X1870Y308D02*
X1876Y308D01*
X1884Y308D02*
X1890Y308D01*
X2055Y308D02*
X2062Y308D01*
X0Y307D02*
X7Y307D01*
X406Y307D02*
X416Y307D01*
X514Y307D02*
X523Y307D01*
X666Y307D02*
X676Y307D01*
X767Y307D02*
X777Y307D01*
X812Y307D02*
X822Y307D01*
X917Y307D02*
X926Y307D01*
X1810Y307D02*
X1817Y307D01*
X1870Y307D02*
X1876Y307D01*
X1884Y307D02*
X1890Y307D01*
X2055Y307D02*
X2062Y307D01*
X0Y306D02*
X7Y306D01*
X406Y306D02*
X415Y306D01*
X514Y306D02*
X524Y306D01*
X667Y306D02*
X677Y306D01*
X767Y306D02*
X777Y306D01*
X813Y306D02*
X823Y306D01*
X916Y306D02*
X926Y306D01*
X1811Y306D02*
X1818Y306D01*
X1870Y306D02*
X1876Y306D01*
X1884Y306D02*
X1890Y306D01*
X2055Y306D02*
X2062Y306D01*
X0Y305D02*
X7Y305D01*
X406Y305D02*
X415Y305D01*
X515Y305D02*
X524Y305D01*
X667Y305D02*
X678Y305D01*
X766Y305D02*
X776Y305D01*
X813Y305D02*
X823Y305D01*
X916Y305D02*
X926Y305D01*
X1811Y305D02*
X1818Y305D01*
X1870Y305D02*
X1876Y305D01*
X1884Y305D02*
X1890Y305D01*
X2055Y305D02*
X2062Y305D01*
X0Y304D02*
X7Y304D01*
X405Y304D02*
X414Y304D01*
X515Y304D02*
X524Y304D01*
X668Y304D02*
X678Y304D01*
X765Y304D02*
X776Y304D01*
X814Y304D02*
X824Y304D01*
X915Y304D02*
X925Y304D01*
X1812Y304D02*
X1819Y304D01*
X1870Y304D02*
X1876Y304D01*
X1884Y304D02*
X1890Y304D01*
X2055Y304D02*
X2062Y304D01*
X0Y303D02*
X7Y303D01*
X405Y303D02*
X414Y303D01*
X505Y303D02*
X524Y303D01*
X668Y303D02*
X679Y303D01*
X765Y303D02*
X775Y303D01*
X814Y303D02*
X824Y303D01*
X914Y303D02*
X925Y303D01*
X1812Y303D02*
X1819Y303D01*
X1870Y303D02*
X1876Y303D01*
X1884Y303D02*
X1890Y303D01*
X2055Y303D02*
X2062Y303D01*
X0Y302D02*
X7Y302D01*
X405Y302D02*
X414Y302D01*
X505Y302D02*
X524Y302D01*
X669Y302D02*
X680Y302D01*
X764Y302D02*
X775Y302D01*
X815Y302D02*
X825Y302D01*
X914Y302D02*
X924Y302D01*
X1813Y302D02*
X1820Y302D01*
X1870Y302D02*
X1876Y302D01*
X1884Y302D02*
X1890Y302D01*
X2055Y302D02*
X2062Y302D01*
X0Y301D02*
X7Y301D01*
X405Y301D02*
X414Y301D01*
X506Y301D02*
X524Y301D01*
X669Y301D02*
X680Y301D01*
X763Y301D02*
X774Y301D01*
X815Y301D02*
X826Y301D01*
X913Y301D02*
X924Y301D01*
X1813Y301D02*
X1820Y301D01*
X1870Y301D02*
X1876Y301D01*
X1884Y301D02*
X1890Y301D01*
X2055Y301D02*
X2062Y301D01*
X0Y300D02*
X7Y300D01*
X404Y300D02*
X413Y300D01*
X506Y300D02*
X523Y300D01*
X670Y300D02*
X681Y300D01*
X762Y300D02*
X774Y300D01*
X816Y300D02*
X826Y300D01*
X912Y300D02*
X923Y300D01*
X1814Y300D02*
X1821Y300D01*
X1870Y300D02*
X1876Y300D01*
X1884Y300D02*
X1890Y300D01*
X2055Y300D02*
X2062Y300D01*
X0Y299D02*
X7Y299D01*
X404Y299D02*
X413Y299D01*
X506Y299D02*
X523Y299D01*
X671Y299D02*
X682Y299D01*
X761Y299D02*
X773Y299D01*
X816Y299D02*
X827Y299D01*
X912Y299D02*
X923Y299D01*
X1814Y299D02*
X1823Y299D01*
X1870Y299D02*
X1877Y299D01*
X1884Y299D02*
X1890Y299D01*
X2055Y299D02*
X2062Y299D01*
X0Y298D02*
X7Y298D01*
X404Y298D02*
X413Y298D01*
X506Y298D02*
X523Y298D01*
X671Y298D02*
X683Y298D01*
X761Y298D02*
X772Y298D01*
X817Y298D02*
X828Y298D01*
X911Y298D02*
X922Y298D01*
X1815Y298D02*
X1839Y298D01*
X1858Y298D02*
X1890Y298D01*
X2055Y298D02*
X2062Y298D01*
X0Y297D02*
X7Y297D01*
X404Y297D02*
X413Y297D01*
X507Y297D02*
X523Y297D01*
X672Y297D02*
X684Y297D01*
X760Y297D02*
X772Y297D01*
X817Y297D02*
X829Y297D01*
X910Y297D02*
X921Y297D01*
X1815Y297D02*
X1839Y297D01*
X1857Y297D02*
X1890Y297D01*
X2055Y297D02*
X2062Y297D01*
X0Y296D02*
X7Y296D01*
X404Y296D02*
X413Y296D01*
X507Y296D02*
X522Y296D01*
X673Y296D02*
X685Y296D01*
X759Y296D02*
X771Y296D01*
X818Y296D02*
X829Y296D01*
X909Y296D02*
X921Y296D01*
X1816Y296D02*
X1840Y296D01*
X1856Y296D02*
X1890Y296D01*
X2055Y296D02*
X2062Y296D01*
X0Y295D02*
X7Y295D01*
X404Y295D02*
X413Y295D01*
X507Y295D02*
X522Y295D01*
X674Y295D02*
X686Y295D01*
X758Y295D02*
X770Y295D01*
X819Y295D02*
X830Y295D01*
X908Y295D02*
X920Y295D01*
X1817Y295D02*
X1840Y295D01*
X1856Y295D02*
X1890Y295D01*
X2055Y295D02*
X2062Y295D01*
X0Y294D02*
X7Y294D01*
X403Y294D02*
X412Y294D01*
X507Y294D02*
X522Y294D01*
X674Y294D02*
X687Y294D01*
X756Y294D02*
X769Y294D01*
X819Y294D02*
X831Y294D01*
X907Y294D02*
X919Y294D01*
X1818Y294D02*
X1839Y294D01*
X1857Y294D02*
X1890Y294D01*
X2055Y294D02*
X2062Y294D01*
X0Y293D02*
X7Y293D01*
X403Y293D02*
X412Y293D01*
X507Y293D02*
X522Y293D01*
X675Y293D02*
X688Y293D01*
X707Y293D02*
X708Y293D01*
X736Y293D02*
X736Y293D01*
X755Y293D02*
X768Y293D01*
X820Y293D02*
X832Y293D01*
X907Y293D02*
X919Y293D01*
X1820Y293D02*
X1839Y293D01*
X1857Y293D02*
X1889Y293D01*
X2055Y293D02*
X2062Y293D01*
X0Y292D02*
X7Y292D01*
X403Y292D02*
X412Y292D01*
X507Y292D02*
X522Y292D01*
X676Y292D02*
X690Y292D01*
X707Y292D02*
X711Y292D01*
X732Y292D02*
X736Y292D01*
X754Y292D02*
X768Y292D01*
X821Y292D02*
X833Y292D01*
X905Y292D02*
X918Y292D01*
X1823Y292D02*
X1837Y292D01*
X1859Y292D02*
X1887Y292D01*
X2055Y292D02*
X2062Y292D01*
X0Y291D02*
X7Y291D01*
X403Y291D02*
X412Y291D01*
X508Y291D02*
X522Y291D01*
X677Y291D02*
X691Y291D01*
X707Y291D02*
X717Y291D01*
X727Y291D02*
X736Y291D01*
X753Y291D02*
X767Y291D01*
X822Y291D02*
X834Y291D01*
X904Y291D02*
X917Y291D01*
X2055Y291D02*
X2062Y291D01*
X0Y290D02*
X7Y290D01*
X403Y290D02*
X412Y290D01*
X508Y290D02*
X522Y290D01*
X678Y290D02*
X692Y290D01*
X707Y290D02*
X736Y290D01*
X751Y290D02*
X766Y290D01*
X822Y290D02*
X836Y290D01*
X884Y290D02*
X884Y290D01*
X903Y290D02*
X916Y290D01*
X2055Y290D02*
X2062Y290D01*
X0Y289D02*
X7Y289D01*
X247Y289D02*
X250Y289D01*
X403Y289D02*
X412Y289D01*
X508Y289D02*
X522Y289D01*
X679Y289D02*
X694Y289D01*
X707Y289D02*
X736Y289D01*
X750Y289D02*
X765Y289D01*
X823Y289D02*
X837Y289D01*
X855Y289D02*
X858Y289D01*
X881Y289D02*
X884Y289D01*
X902Y289D02*
X915Y289D01*
X2055Y289D02*
X2062Y289D01*
X0Y288D02*
X7Y288D01*
X247Y288D02*
X253Y288D01*
X403Y288D02*
X412Y288D01*
X508Y288D02*
X522Y288D01*
X680Y288D02*
X696Y288D01*
X707Y288D02*
X736Y288D01*
X748Y288D02*
X764Y288D01*
X824Y288D02*
X838Y288D01*
X855Y288D02*
X862Y288D01*
X876Y288D02*
X884Y288D01*
X901Y288D02*
X915Y288D01*
X2055Y288D02*
X2062Y288D01*
X0Y287D02*
X7Y287D01*
X247Y287D02*
X253Y287D01*
X403Y287D02*
X412Y287D01*
X508Y287D02*
X522Y287D01*
X681Y287D02*
X697Y287D01*
X707Y287D02*
X736Y287D01*
X746Y287D02*
X763Y287D01*
X825Y287D02*
X839Y287D01*
X855Y287D02*
X884Y287D01*
X899Y287D02*
X914Y287D01*
X2055Y287D02*
X2062Y287D01*
X0Y286D02*
X7Y286D01*
X247Y286D02*
X254Y286D01*
X403Y286D02*
X412Y286D01*
X508Y286D02*
X522Y286D01*
X682Y286D02*
X699Y286D01*
X707Y286D02*
X736Y286D01*
X744Y286D02*
X761Y286D01*
X826Y286D02*
X841Y286D01*
X855Y286D02*
X884Y286D01*
X898Y286D02*
X913Y286D01*
X2055Y286D02*
X2062Y286D01*
X0Y285D02*
X7Y285D01*
X247Y285D02*
X254Y285D01*
X403Y285D02*
X412Y285D01*
X507Y285D02*
X522Y285D01*
X683Y285D02*
X702Y285D01*
X707Y285D02*
X736Y285D01*
X742Y285D02*
X760Y285D01*
X827Y285D02*
X843Y285D01*
X855Y285D02*
X884Y285D01*
X896Y285D02*
X912Y285D01*
X2055Y285D02*
X2062Y285D01*
X0Y284D02*
X7Y284D01*
X247Y284D02*
X253Y284D01*
X403Y284D02*
X412Y284D01*
X507Y284D02*
X522Y284D01*
X685Y284D02*
X704Y284D01*
X707Y284D02*
X736Y284D01*
X739Y284D02*
X759Y284D01*
X828Y284D02*
X844Y284D01*
X855Y284D02*
X884Y284D01*
X895Y284D02*
X910Y284D01*
X2055Y284D02*
X2062Y284D01*
X0Y283D02*
X7Y283D01*
X247Y283D02*
X253Y283D01*
X403Y283D02*
X412Y283D01*
X507Y283D02*
X522Y283D01*
X686Y283D02*
X758Y283D01*
X829Y283D02*
X846Y283D01*
X855Y283D02*
X884Y283D01*
X892Y283D02*
X909Y283D01*
X2055Y283D02*
X2062Y283D01*
X0Y282D02*
X7Y282D01*
X247Y282D02*
X250Y282D01*
X404Y282D02*
X413Y282D01*
X507Y282D02*
X522Y282D01*
X687Y282D02*
X756Y282D01*
X831Y282D02*
X848Y282D01*
X855Y282D02*
X884Y282D01*
X890Y282D02*
X908Y282D01*
X2055Y282D02*
X2062Y282D01*
X0Y281D02*
X7Y281D01*
X404Y281D02*
X413Y281D01*
X507Y281D02*
X522Y281D01*
X689Y281D02*
X755Y281D01*
X832Y281D02*
X851Y281D01*
X855Y281D02*
X884Y281D01*
X888Y281D02*
X907Y281D01*
X2055Y281D02*
X2062Y281D01*
X0Y280D02*
X7Y280D01*
X404Y280D02*
X413Y280D01*
X507Y280D02*
X523Y280D01*
X691Y280D02*
X753Y280D01*
X833Y280D02*
X906Y280D01*
X2055Y280D02*
X2062Y280D01*
X0Y279D02*
X7Y279D01*
X404Y279D02*
X413Y279D01*
X506Y279D02*
X523Y279D01*
X692Y279D02*
X751Y279D01*
X835Y279D02*
X904Y279D01*
X1139Y279D02*
X1170Y279D01*
X1203Y279D02*
X1220Y279D01*
X1240Y279D02*
X1258Y279D01*
X2055Y279D02*
X2062Y279D01*
X0Y278D02*
X7Y278D01*
X230Y278D02*
X236Y278D01*
X404Y278D02*
X413Y278D01*
X506Y278D02*
X523Y278D01*
X694Y278D02*
X749Y278D01*
X836Y278D02*
X903Y278D01*
X1138Y278D02*
X1171Y278D01*
X1200Y278D02*
X1221Y278D01*
X1239Y278D02*
X1258Y278D01*
X2055Y278D02*
X2062Y278D01*
X0Y277D02*
X7Y277D01*
X230Y277D02*
X236Y277D01*
X404Y277D02*
X413Y277D01*
X506Y277D02*
X523Y277D01*
X696Y277D02*
X747Y277D01*
X838Y277D02*
X901Y277D01*
X1138Y277D02*
X1171Y277D01*
X1199Y277D02*
X1221Y277D01*
X1238Y277D02*
X1258Y277D01*
X2055Y277D02*
X2062Y277D01*
X0Y276D02*
X7Y276D01*
X230Y276D02*
X236Y276D01*
X405Y276D02*
X414Y276D01*
X506Y276D02*
X524Y276D01*
X699Y276D02*
X745Y276D01*
X839Y276D02*
X899Y276D01*
X1138Y276D02*
X1171Y276D01*
X1198Y276D02*
X1222Y276D01*
X1238Y276D02*
X1258Y276D01*
X2055Y276D02*
X2062Y276D01*
X0Y275D02*
X7Y275D01*
X230Y275D02*
X236Y275D01*
X405Y275D02*
X414Y275D01*
X505Y275D02*
X524Y275D01*
X701Y275D02*
X714Y275D01*
X729Y275D02*
X742Y275D01*
X841Y275D02*
X897Y275D01*
X1138Y275D02*
X1171Y275D01*
X1197Y275D02*
X1221Y275D01*
X1238Y275D02*
X1258Y275D01*
X2055Y275D02*
X2062Y275D01*
X0Y274D02*
X7Y274D01*
X230Y274D02*
X236Y274D01*
X405Y274D02*
X414Y274D01*
X505Y274D02*
X524Y274D01*
X704Y274D02*
X710Y274D01*
X734Y274D02*
X740Y274D01*
X843Y274D02*
X895Y274D01*
X1139Y274D02*
X1171Y274D01*
X1197Y274D02*
X1221Y274D01*
X1239Y274D02*
X1258Y274D01*
X2055Y274D02*
X2062Y274D01*
X0Y273D02*
X7Y273D01*
X230Y273D02*
X236Y273D01*
X405Y273D02*
X414Y273D01*
X515Y273D02*
X524Y273D01*
X707Y273D02*
X707Y273D01*
X845Y273D02*
X893Y273D01*
X1140Y273D02*
X1169Y273D01*
X1196Y273D02*
X1220Y273D01*
X1240Y273D02*
X1258Y273D01*
X2055Y273D02*
X2062Y273D01*
X0Y272D02*
X7Y272D01*
X230Y272D02*
X236Y272D01*
X406Y272D02*
X415Y272D01*
X515Y272D02*
X524Y272D01*
X848Y272D02*
X864Y272D01*
X875Y272D02*
X891Y272D01*
X1152Y272D02*
X1158Y272D01*
X1196Y272D02*
X1203Y272D01*
X1252Y272D02*
X1258Y272D01*
X2055Y272D02*
X2062Y272D01*
X0Y271D02*
X7Y271D01*
X230Y271D02*
X236Y271D01*
X406Y271D02*
X415Y271D01*
X514Y271D02*
X524Y271D01*
X851Y271D02*
X859Y271D01*
X880Y271D02*
X888Y271D01*
X1152Y271D02*
X1158Y271D01*
X1195Y271D02*
X1202Y271D01*
X1252Y271D02*
X1258Y271D01*
X2055Y271D02*
X2062Y271D01*
X0Y270D02*
X7Y270D01*
X230Y270D02*
X237Y270D01*
X406Y270D02*
X416Y270D01*
X514Y270D02*
X523Y270D01*
X854Y270D02*
X855Y270D01*
X884Y270D02*
X884Y270D01*
X1152Y270D02*
X1158Y270D01*
X1195Y270D02*
X1202Y270D01*
X1252Y270D02*
X1258Y270D01*
X2055Y270D02*
X2062Y270D01*
X0Y269D02*
X7Y269D01*
X230Y269D02*
X238Y269D01*
X406Y269D02*
X416Y269D01*
X513Y269D02*
X523Y269D01*
X1152Y269D02*
X1158Y269D01*
X1194Y269D02*
X1201Y269D01*
X1252Y269D02*
X1258Y269D01*
X2055Y269D02*
X2062Y269D01*
X0Y268D02*
X7Y268D01*
X231Y268D02*
X281Y268D01*
X407Y268D02*
X416Y268D01*
X513Y268D02*
X523Y268D01*
X1152Y268D02*
X1158Y268D01*
X1194Y268D02*
X1201Y268D01*
X1252Y268D02*
X1258Y268D01*
X2055Y268D02*
X2062Y268D01*
X0Y267D02*
X7Y267D01*
X231Y267D02*
X282Y267D01*
X407Y267D02*
X417Y267D01*
X513Y267D02*
X522Y267D01*
X1152Y267D02*
X1158Y267D01*
X1193Y267D02*
X1200Y267D01*
X1252Y267D02*
X1258Y267D01*
X2055Y267D02*
X2062Y267D01*
X0Y266D02*
X7Y266D01*
X232Y266D02*
X283Y266D01*
X408Y266D02*
X417Y266D01*
X512Y266D02*
X522Y266D01*
X1152Y266D02*
X1158Y266D01*
X1193Y266D02*
X1200Y266D01*
X1252Y266D02*
X1258Y266D01*
X2055Y266D02*
X2062Y266D01*
X0Y265D02*
X7Y265D01*
X233Y265D02*
X283Y265D01*
X408Y265D02*
X418Y265D01*
X512Y265D02*
X521Y265D01*
X1152Y265D02*
X1158Y265D01*
X1192Y265D02*
X1199Y265D01*
X1252Y265D02*
X1258Y265D01*
X2055Y265D02*
X2062Y265D01*
X0Y264D02*
X7Y264D01*
X234Y264D02*
X283Y264D01*
X408Y264D02*
X418Y264D01*
X511Y264D02*
X521Y264D01*
X1152Y264D02*
X1158Y264D01*
X1192Y264D02*
X1199Y264D01*
X1252Y264D02*
X1258Y264D01*
X1803Y264D02*
X1803Y264D01*
X1829Y264D02*
X1853Y264D01*
X2055Y264D02*
X2062Y264D01*
X0Y263D02*
X7Y263D01*
X235Y263D02*
X283Y263D01*
X409Y263D02*
X419Y263D01*
X511Y263D02*
X521Y263D01*
X1152Y263D02*
X1158Y263D01*
X1191Y263D02*
X1198Y263D01*
X1252Y263D02*
X1258Y263D01*
X1801Y263D02*
X1805Y263D01*
X1827Y263D02*
X1856Y263D01*
X2055Y263D02*
X2062Y263D01*
X0Y262D02*
X7Y262D01*
X237Y262D02*
X282Y262D01*
X409Y262D02*
X419Y262D01*
X510Y262D02*
X520Y262D01*
X1152Y262D02*
X1158Y262D01*
X1191Y262D02*
X1198Y262D01*
X1252Y262D02*
X1258Y262D01*
X1800Y262D02*
X1805Y262D01*
X1826Y262D02*
X1857Y262D01*
X2055Y262D02*
X2062Y262D01*
X0Y261D02*
X7Y261D01*
X410Y261D02*
X420Y261D01*
X509Y261D02*
X520Y261D01*
X1152Y261D02*
X1158Y261D01*
X1190Y261D02*
X1197Y261D01*
X1252Y261D02*
X1258Y261D01*
X1800Y261D02*
X1806Y261D01*
X1826Y261D02*
X1858Y261D01*
X2055Y261D02*
X2062Y261D01*
X0Y260D02*
X7Y260D01*
X410Y260D02*
X421Y260D01*
X509Y260D02*
X519Y260D01*
X1152Y260D02*
X1158Y260D01*
X1190Y260D02*
X1197Y260D01*
X1252Y260D02*
X1258Y260D01*
X1800Y260D02*
X1806Y260D01*
X1826Y260D02*
X1859Y260D01*
X2055Y260D02*
X2062Y260D01*
X0Y259D02*
X7Y259D01*
X411Y259D02*
X421Y259D01*
X508Y259D02*
X519Y259D01*
X1152Y259D02*
X1158Y259D01*
X1189Y259D02*
X1196Y259D01*
X1252Y259D02*
X1258Y259D01*
X1800Y259D02*
X1806Y259D01*
X1826Y259D02*
X1859Y259D01*
X2055Y259D02*
X2062Y259D01*
X0Y258D02*
X7Y258D01*
X411Y258D02*
X422Y258D01*
X507Y258D02*
X518Y258D01*
X1152Y258D02*
X1158Y258D01*
X1189Y258D02*
X1196Y258D01*
X1252Y258D02*
X1258Y258D01*
X1800Y258D02*
X1806Y258D01*
X1827Y258D02*
X1859Y258D01*
X2055Y258D02*
X2062Y258D01*
X0Y257D02*
X7Y257D01*
X412Y257D02*
X423Y257D01*
X507Y257D02*
X517Y257D01*
X1152Y257D02*
X1158Y257D01*
X1189Y257D02*
X1195Y257D01*
X1252Y257D02*
X1258Y257D01*
X1800Y257D02*
X1806Y257D01*
X1853Y257D02*
X1859Y257D01*
X2055Y257D02*
X2062Y257D01*
X0Y256D02*
X7Y256D01*
X413Y256D02*
X424Y256D01*
X506Y256D02*
X517Y256D01*
X1152Y256D02*
X1158Y256D01*
X1188Y256D02*
X1195Y256D01*
X1252Y256D02*
X1258Y256D01*
X1800Y256D02*
X1806Y256D01*
X1853Y256D02*
X1859Y256D01*
X2055Y256D02*
X2062Y256D01*
X0Y255D02*
X7Y255D01*
X413Y255D02*
X424Y255D01*
X505Y255D02*
X516Y255D01*
X1152Y255D02*
X1158Y255D01*
X1188Y255D02*
X1194Y255D01*
X1252Y255D02*
X1258Y255D01*
X1800Y255D02*
X1806Y255D01*
X1853Y255D02*
X1859Y255D01*
X2055Y255D02*
X2062Y255D01*
X0Y254D02*
X7Y254D01*
X414Y254D02*
X425Y254D01*
X504Y254D02*
X516Y254D01*
X1152Y254D02*
X1158Y254D01*
X1188Y254D02*
X1194Y254D01*
X1252Y254D02*
X1258Y254D01*
X1800Y254D02*
X1806Y254D01*
X1853Y254D02*
X1859Y254D01*
X2055Y254D02*
X2062Y254D01*
X0Y253D02*
X7Y253D01*
X414Y253D02*
X426Y253D01*
X503Y253D02*
X515Y253D01*
X1152Y253D02*
X1158Y253D01*
X1188Y253D02*
X1194Y253D01*
X1252Y253D02*
X1258Y253D01*
X1800Y253D02*
X1806Y253D01*
X1853Y253D02*
X1859Y253D01*
X2055Y253D02*
X2062Y253D01*
X0Y252D02*
X7Y252D01*
X415Y252D02*
X427Y252D01*
X502Y252D02*
X514Y252D01*
X1152Y252D02*
X1158Y252D01*
X1188Y252D02*
X1194Y252D01*
X1252Y252D02*
X1258Y252D01*
X1800Y252D02*
X1806Y252D01*
X1853Y252D02*
X1859Y252D01*
X2055Y252D02*
X2062Y252D01*
X0Y251D02*
X7Y251D01*
X416Y251D02*
X428Y251D01*
X501Y251D02*
X513Y251D01*
X1152Y251D02*
X1158Y251D01*
X1188Y251D02*
X1194Y251D01*
X1252Y251D02*
X1258Y251D01*
X1800Y251D02*
X1806Y251D01*
X1853Y251D02*
X1859Y251D01*
X2055Y251D02*
X2062Y251D01*
X0Y250D02*
X7Y250D01*
X417Y250D02*
X429Y250D01*
X500Y250D02*
X513Y250D01*
X1152Y250D02*
X1158Y250D01*
X1188Y250D02*
X1194Y250D01*
X1252Y250D02*
X1258Y250D01*
X1268Y250D02*
X1269Y250D01*
X1800Y250D02*
X1806Y250D01*
X1853Y250D02*
X1859Y250D01*
X2055Y250D02*
X2062Y250D01*
X0Y249D02*
X7Y249D01*
X417Y249D02*
X430Y249D01*
X499Y249D02*
X512Y249D01*
X1152Y249D02*
X1158Y249D01*
X1188Y249D02*
X1195Y249D01*
X1252Y249D02*
X1258Y249D01*
X1267Y249D02*
X1271Y249D01*
X1800Y249D02*
X1806Y249D01*
X1853Y249D02*
X1859Y249D01*
X2055Y249D02*
X2062Y249D01*
X0Y248D02*
X7Y248D01*
X418Y248D02*
X432Y248D01*
X498Y248D02*
X511Y248D01*
X1152Y248D02*
X1158Y248D01*
X1189Y248D02*
X1195Y248D01*
X1252Y248D02*
X1258Y248D01*
X1266Y248D02*
X1271Y248D01*
X1800Y248D02*
X1806Y248D01*
X1853Y248D02*
X1859Y248D01*
X2055Y248D02*
X2062Y248D01*
X0Y247D02*
X7Y247D01*
X419Y247D02*
X433Y247D01*
X496Y247D02*
X510Y247D01*
X1152Y247D02*
X1158Y247D01*
X1189Y247D02*
X1196Y247D01*
X1252Y247D02*
X1258Y247D01*
X1266Y247D02*
X1272Y247D01*
X1800Y247D02*
X1806Y247D01*
X1853Y247D02*
X1859Y247D01*
X2055Y247D02*
X2062Y247D01*
X0Y246D02*
X7Y246D01*
X420Y246D02*
X434Y246D01*
X495Y246D02*
X509Y246D01*
X1152Y246D02*
X1158Y246D01*
X1189Y246D02*
X1196Y246D01*
X1252Y246D02*
X1258Y246D01*
X1266Y246D02*
X1272Y246D01*
X1800Y246D02*
X1806Y246D01*
X1853Y246D02*
X1859Y246D01*
X2055Y246D02*
X2062Y246D01*
X0Y245D02*
X7Y245D01*
X421Y245D02*
X436Y245D01*
X494Y245D02*
X508Y245D01*
X1152Y245D02*
X1158Y245D01*
X1190Y245D02*
X1197Y245D01*
X1252Y245D02*
X1258Y245D01*
X1266Y245D02*
X1272Y245D01*
X1800Y245D02*
X1806Y245D01*
X1853Y245D02*
X1859Y245D01*
X2055Y245D02*
X2062Y245D01*
X0Y244D02*
X7Y244D01*
X422Y244D02*
X437Y244D01*
X492Y244D02*
X507Y244D01*
X1152Y244D02*
X1158Y244D01*
X1190Y244D02*
X1197Y244D01*
X1252Y244D02*
X1258Y244D01*
X1266Y244D02*
X1272Y244D01*
X1800Y244D02*
X1806Y244D01*
X1853Y244D02*
X1859Y244D01*
X2055Y244D02*
X2062Y244D01*
X0Y243D02*
X7Y243D01*
X423Y243D02*
X439Y243D01*
X490Y243D02*
X506Y243D01*
X1152Y243D02*
X1158Y243D01*
X1191Y243D02*
X1198Y243D01*
X1252Y243D02*
X1258Y243D01*
X1266Y243D02*
X1272Y243D01*
X1800Y243D02*
X1806Y243D01*
X1853Y243D02*
X1859Y243D01*
X2055Y243D02*
X2062Y243D01*
X0Y242D02*
X7Y242D01*
X232Y242D02*
X234Y242D01*
X280Y242D02*
X281Y242D01*
X424Y242D02*
X441Y242D01*
X489Y242D02*
X505Y242D01*
X1152Y242D02*
X1158Y242D01*
X1191Y242D02*
X1198Y242D01*
X1252Y242D02*
X1258Y242D01*
X1266Y242D02*
X1272Y242D01*
X1800Y242D02*
X1806Y242D01*
X1853Y242D02*
X1859Y242D01*
X2055Y242D02*
X2062Y242D01*
X0Y241D02*
X7Y241D01*
X231Y241D02*
X235Y241D01*
X278Y241D02*
X282Y241D01*
X425Y241D02*
X443Y241D01*
X486Y241D02*
X504Y241D01*
X1152Y241D02*
X1158Y241D01*
X1192Y241D02*
X1199Y241D01*
X1252Y241D02*
X1258Y241D01*
X1266Y241D02*
X1272Y241D01*
X1800Y241D02*
X1806Y241D01*
X1853Y241D02*
X1859Y241D01*
X2055Y241D02*
X2062Y241D01*
X0Y240D02*
X7Y240D01*
X230Y240D02*
X236Y240D01*
X277Y240D02*
X283Y240D01*
X427Y240D02*
X445Y240D01*
X484Y240D02*
X503Y240D01*
X1152Y240D02*
X1158Y240D01*
X1192Y240D02*
X1199Y240D01*
X1252Y240D02*
X1258Y240D01*
X1266Y240D02*
X1272Y240D01*
X1800Y240D02*
X1806Y240D01*
X1830Y240D02*
X1859Y240D01*
X2055Y240D02*
X2062Y240D01*
X0Y239D02*
X7Y239D01*
X230Y239D02*
X236Y239D01*
X277Y239D02*
X283Y239D01*
X428Y239D02*
X448Y239D01*
X481Y239D02*
X501Y239D01*
X1152Y239D02*
X1158Y239D01*
X1193Y239D02*
X1200Y239D01*
X1252Y239D02*
X1258Y239D01*
X1266Y239D02*
X1272Y239D01*
X1800Y239D02*
X1806Y239D01*
X1829Y239D02*
X1859Y239D01*
X2055Y239D02*
X2062Y239D01*
X0Y238D02*
X7Y238D01*
X230Y238D02*
X236Y238D01*
X277Y238D02*
X283Y238D01*
X429Y238D02*
X452Y238D01*
X478Y238D02*
X500Y238D01*
X1152Y238D02*
X1158Y238D01*
X1193Y238D02*
X1200Y238D01*
X1252Y238D02*
X1258Y238D01*
X1266Y238D02*
X1272Y238D01*
X1800Y238D02*
X1806Y238D01*
X1827Y238D02*
X1859Y238D01*
X2055Y238D02*
X2062Y238D01*
X0Y237D02*
X7Y237D01*
X230Y237D02*
X236Y237D01*
X277Y237D02*
X283Y237D01*
X431Y237D02*
X457Y237D01*
X472Y237D02*
X499Y237D01*
X1152Y237D02*
X1158Y237D01*
X1194Y237D02*
X1201Y237D01*
X1252Y237D02*
X1258Y237D01*
X1266Y237D02*
X1272Y237D01*
X1800Y237D02*
X1806Y237D01*
X1827Y237D02*
X1858Y237D01*
X2055Y237D02*
X2062Y237D01*
X0Y236D02*
X7Y236D01*
X230Y236D02*
X236Y236D01*
X277Y236D02*
X283Y236D01*
X432Y236D02*
X497Y236D01*
X1152Y236D02*
X1158Y236D01*
X1194Y236D02*
X1201Y236D01*
X1252Y236D02*
X1258Y236D01*
X1266Y236D02*
X1272Y236D01*
X1800Y236D02*
X1806Y236D01*
X1826Y236D02*
X1858Y236D01*
X2055Y236D02*
X2062Y236D01*
X0Y235D02*
X7Y235D01*
X230Y235D02*
X236Y235D01*
X256Y235D02*
X258Y235D01*
X277Y235D02*
X283Y235D01*
X434Y235D02*
X495Y235D01*
X1152Y235D02*
X1158Y235D01*
X1195Y235D02*
X1202Y235D01*
X1252Y235D02*
X1258Y235D01*
X1266Y235D02*
X1272Y235D01*
X1800Y235D02*
X1806Y235D01*
X1826Y235D02*
X1857Y235D01*
X2055Y235D02*
X2062Y235D01*
X0Y234D02*
X7Y234D01*
X230Y234D02*
X236Y234D01*
X254Y234D02*
X259Y234D01*
X277Y234D02*
X283Y234D01*
X436Y234D02*
X494Y234D01*
X1152Y234D02*
X1158Y234D01*
X1195Y234D02*
X1202Y234D01*
X1252Y234D02*
X1258Y234D01*
X1266Y234D02*
X1272Y234D01*
X1781Y234D02*
X1783Y234D01*
X1800Y234D02*
X1806Y234D01*
X1826Y234D02*
X1855Y234D01*
X2055Y234D02*
X2062Y234D01*
X0Y233D02*
X7Y233D01*
X230Y233D02*
X236Y233D01*
X254Y233D02*
X259Y233D01*
X277Y233D02*
X283Y233D01*
X438Y233D02*
X491Y233D01*
X1152Y233D02*
X1158Y233D01*
X1196Y233D02*
X1203Y233D01*
X1252Y233D02*
X1258Y233D01*
X1266Y233D02*
X1272Y233D01*
X1780Y233D02*
X1784Y233D01*
X1800Y233D02*
X1806Y233D01*
X1826Y233D02*
X1832Y233D01*
X2055Y233D02*
X2062Y233D01*
X0Y232D02*
X7Y232D01*
X230Y232D02*
X236Y232D01*
X254Y232D02*
X260Y232D01*
X277Y232D02*
X283Y232D01*
X440Y232D02*
X489Y232D01*
X1140Y232D02*
X1170Y232D01*
X1196Y232D02*
X1220Y232D01*
X1240Y232D02*
X1272Y232D01*
X1779Y232D02*
X1785Y232D01*
X1800Y232D02*
X1806Y232D01*
X1826Y232D02*
X1832Y232D01*
X2055Y232D02*
X2062Y232D01*
X0Y231D02*
X7Y231D01*
X230Y231D02*
X236Y231D01*
X254Y231D02*
X260Y231D01*
X277Y231D02*
X283Y231D01*
X442Y231D02*
X487Y231D01*
X1138Y231D02*
X1171Y231D01*
X1197Y231D02*
X1221Y231D01*
X1239Y231D02*
X1272Y231D01*
X1779Y231D02*
X1785Y231D01*
X1800Y231D02*
X1806Y231D01*
X1826Y231D02*
X1832Y231D01*
X2055Y231D02*
X2062Y231D01*
X0Y230D02*
X7Y230D01*
X230Y230D02*
X236Y230D01*
X254Y230D02*
X260Y230D01*
X277Y230D02*
X283Y230D01*
X445Y230D02*
X484Y230D01*
X1138Y230D02*
X1171Y230D01*
X1198Y230D02*
X1221Y230D01*
X1238Y230D02*
X1272Y230D01*
X1779Y230D02*
X1785Y230D01*
X1800Y230D02*
X1806Y230D01*
X1826Y230D02*
X1832Y230D01*
X2055Y230D02*
X2062Y230D01*
X0Y229D02*
X7Y229D01*
X230Y229D02*
X236Y229D01*
X254Y229D02*
X260Y229D01*
X277Y229D02*
X283Y229D01*
X448Y229D02*
X481Y229D01*
X1138Y229D02*
X1171Y229D01*
X1198Y229D02*
X1222Y229D01*
X1238Y229D02*
X1272Y229D01*
X1779Y229D02*
X1785Y229D01*
X1800Y229D02*
X1806Y229D01*
X1826Y229D02*
X1832Y229D01*
X2055Y229D02*
X2062Y229D01*
X0Y228D02*
X7Y228D01*
X230Y228D02*
X236Y228D01*
X254Y228D02*
X260Y228D01*
X277Y228D02*
X283Y228D01*
X452Y228D02*
X477Y228D01*
X1138Y228D02*
X1171Y228D01*
X1200Y228D02*
X1221Y228D01*
X1238Y228D02*
X1272Y228D01*
X1779Y228D02*
X1785Y228D01*
X1800Y228D02*
X1806Y228D01*
X1826Y228D02*
X1832Y228D01*
X2055Y228D02*
X2062Y228D01*
X0Y227D02*
X7Y227D01*
X230Y227D02*
X236Y227D01*
X254Y227D02*
X260Y227D01*
X277Y227D02*
X283Y227D01*
X458Y227D02*
X471Y227D01*
X1138Y227D02*
X1171Y227D01*
X1201Y227D02*
X1221Y227D01*
X1239Y227D02*
X1271Y227D01*
X1779Y227D02*
X1785Y227D01*
X1800Y227D02*
X1806Y227D01*
X1826Y227D02*
X1832Y227D01*
X2055Y227D02*
X2062Y227D01*
X0Y226D02*
X7Y226D01*
X230Y226D02*
X236Y226D01*
X254Y226D02*
X260Y226D01*
X277Y226D02*
X283Y226D01*
X1140Y226D02*
X1170Y226D01*
X1203Y226D02*
X1220Y226D01*
X1240Y226D02*
X1270Y226D01*
X1779Y226D02*
X1785Y226D01*
X1800Y226D02*
X1806Y226D01*
X1826Y226D02*
X1832Y226D01*
X2055Y226D02*
X2062Y226D01*
X0Y225D02*
X7Y225D01*
X30Y225D02*
X68Y225D01*
X230Y225D02*
X236Y225D01*
X254Y225D02*
X260Y225D01*
X277Y225D02*
X283Y225D01*
X1779Y225D02*
X1785Y225D01*
X1800Y225D02*
X1806Y225D01*
X1826Y225D02*
X1832Y225D01*
X2055Y225D02*
X2062Y225D01*
X0Y224D02*
X7Y224D01*
X28Y224D02*
X70Y224D01*
X230Y224D02*
X236Y224D01*
X254Y224D02*
X260Y224D01*
X277Y224D02*
X283Y224D01*
X1779Y224D02*
X1785Y224D01*
X1800Y224D02*
X1806Y224D01*
X1826Y224D02*
X1832Y224D01*
X2055Y224D02*
X2062Y224D01*
X0Y223D02*
X7Y223D01*
X26Y223D02*
X72Y223D01*
X230Y223D02*
X236Y223D01*
X254Y223D02*
X260Y223D01*
X277Y223D02*
X283Y223D01*
X1779Y223D02*
X1785Y223D01*
X1800Y223D02*
X1806Y223D01*
X1826Y223D02*
X1832Y223D01*
X2055Y223D02*
X2062Y223D01*
X0Y222D02*
X7Y222D01*
X25Y222D02*
X74Y222D01*
X230Y222D02*
X236Y222D01*
X254Y222D02*
X260Y222D01*
X277Y222D02*
X283Y222D01*
X1779Y222D02*
X1785Y222D01*
X1800Y222D02*
X1806Y222D01*
X1826Y222D02*
X1832Y222D01*
X2055Y222D02*
X2062Y222D01*
X0Y221D02*
X7Y221D01*
X24Y221D02*
X75Y221D01*
X231Y221D02*
X236Y221D01*
X254Y221D02*
X260Y221D01*
X277Y221D02*
X283Y221D01*
X1779Y221D02*
X1785Y221D01*
X1800Y221D02*
X1806Y221D01*
X1826Y221D02*
X1832Y221D01*
X2055Y221D02*
X2062Y221D01*
X0Y220D02*
X7Y220D01*
X23Y220D02*
X76Y220D01*
X232Y220D02*
X236Y220D01*
X254Y220D02*
X260Y220D01*
X277Y220D02*
X283Y220D01*
X1779Y220D02*
X1785Y220D01*
X1800Y220D02*
X1806Y220D01*
X1826Y220D02*
X1832Y220D01*
X2055Y220D02*
X2062Y220D01*
X0Y219D02*
X7Y219D01*
X23Y219D02*
X78Y219D01*
X233Y219D02*
X236Y219D01*
X254Y219D02*
X260Y219D01*
X277Y219D02*
X283Y219D01*
X1779Y219D02*
X1785Y219D01*
X1799Y219D02*
X1806Y219D01*
X1826Y219D02*
X1832Y219D01*
X2055Y219D02*
X2062Y219D01*
X0Y218D02*
X7Y218D01*
X22Y218D02*
X79Y218D01*
X234Y218D02*
X236Y218D01*
X254Y218D02*
X260Y218D01*
X277Y218D02*
X283Y218D01*
X1779Y218D02*
X1786Y218D01*
X1799Y218D02*
X1805Y218D01*
X1826Y218D02*
X1832Y218D01*
X2055Y218D02*
X2062Y218D01*
X0Y217D02*
X7Y217D01*
X22Y217D02*
X80Y217D01*
X235Y217D02*
X236Y217D01*
X253Y217D02*
X260Y217D01*
X277Y217D02*
X283Y217D01*
X1780Y217D02*
X1789Y217D01*
X1796Y217D02*
X1805Y217D01*
X1826Y217D02*
X1832Y217D01*
X2055Y217D02*
X2062Y217D01*
X0Y216D02*
X7Y216D01*
X21Y216D02*
X81Y216D01*
X236Y216D02*
X236Y216D01*
X253Y216D02*
X261Y216D01*
X277Y216D02*
X283Y216D01*
X1780Y216D02*
X1805Y216D01*
X1826Y216D02*
X1858Y216D01*
X2055Y216D02*
X2062Y216D01*
X0Y215D02*
X7Y215D01*
X21Y215D02*
X32Y215D01*
X67Y215D02*
X83Y215D01*
X251Y215D02*
X262Y215D01*
X277Y215D02*
X283Y215D01*
X1781Y215D02*
X1804Y215D01*
X1826Y215D02*
X1859Y215D01*
X2055Y215D02*
X2062Y215D01*
X0Y214D02*
X7Y214D01*
X21Y214D02*
X31Y214D01*
X68Y214D02*
X84Y214D01*
X238Y214D02*
X283Y214D01*
X1781Y214D02*
X1803Y214D01*
X1826Y214D02*
X1859Y214D01*
X2055Y214D02*
X2062Y214D01*
X0Y213D02*
X7Y213D01*
X21Y213D02*
X30Y213D01*
X70Y213D02*
X85Y213D01*
X238Y213D02*
X283Y213D01*
X1782Y213D02*
X1802Y213D01*
X1826Y213D02*
X1859Y213D01*
X2055Y213D02*
X2062Y213D01*
X0Y212D02*
X7Y212D01*
X20Y212D02*
X30Y212D01*
X71Y212D02*
X87Y212D01*
X239Y212D02*
X283Y212D01*
X1783Y212D02*
X1801Y212D01*
X1826Y212D02*
X1859Y212D01*
X2055Y212D02*
X2062Y212D01*
X0Y211D02*
X7Y211D01*
X20Y211D02*
X29Y211D01*
X72Y211D02*
X88Y211D01*
X240Y211D02*
X282Y211D01*
X1785Y211D02*
X1800Y211D01*
X1826Y211D02*
X1858Y211D01*
X2055Y211D02*
X2062Y211D01*
X0Y210D02*
X7Y210D01*
X20Y210D02*
X29Y210D01*
X74Y210D02*
X89Y210D01*
X240Y210D02*
X256Y210D01*
X258Y210D02*
X281Y210D01*
X1789Y210D02*
X1796Y210D01*
X1826Y210D02*
X1856Y210D01*
X2055Y210D02*
X2062Y210D01*
X0Y209D02*
X7Y209D01*
X20Y209D02*
X29Y209D01*
X75Y209D02*
X90Y209D01*
X241Y209D02*
X254Y209D01*
X259Y209D02*
X280Y209D01*
X2055Y209D02*
X2062Y209D01*
X0Y208D02*
X7Y208D01*
X20Y208D02*
X29Y208D01*
X76Y208D02*
X92Y208D01*
X242Y208D02*
X252Y208D01*
X262Y208D02*
X278Y208D01*
X2055Y208D02*
X2062Y208D01*
X0Y207D02*
X7Y207D01*
X20Y207D02*
X29Y207D01*
X78Y207D02*
X93Y207D01*
X2055Y207D02*
X2062Y207D01*
X0Y206D02*
X7Y206D01*
X20Y206D02*
X29Y206D01*
X79Y206D02*
X94Y206D01*
X2055Y206D02*
X2062Y206D01*
X0Y205D02*
X7Y205D01*
X20Y205D02*
X29Y205D01*
X80Y205D02*
X95Y205D01*
X2055Y205D02*
X2062Y205D01*
X0Y204D02*
X7Y204D01*
X20Y204D02*
X29Y204D01*
X81Y204D02*
X95Y204D01*
X2055Y204D02*
X2062Y204D01*
X0Y203D02*
X7Y203D01*
X20Y203D02*
X29Y203D01*
X83Y203D02*
X96Y203D01*
X2055Y203D02*
X2062Y203D01*
X0Y202D02*
X7Y202D01*
X20Y202D02*
X29Y202D01*
X84Y202D02*
X96Y202D01*
X2055Y202D02*
X2062Y202D01*
X0Y201D02*
X7Y201D01*
X20Y201D02*
X29Y201D01*
X50Y201D02*
X51Y201D01*
X85Y201D02*
X97Y201D01*
X2055Y201D02*
X2062Y201D01*
X0Y200D02*
X7Y200D01*
X20Y200D02*
X29Y200D01*
X48Y200D02*
X53Y200D01*
X86Y200D02*
X97Y200D01*
X1908Y200D02*
X1909Y200D01*
X2055Y200D02*
X2062Y200D01*
X0Y199D02*
X7Y199D01*
X20Y199D02*
X29Y199D01*
X47Y199D02*
X54Y199D01*
X87Y199D02*
X97Y199D01*
X1907Y199D02*
X1910Y199D01*
X2055Y199D02*
X2062Y199D01*
X0Y198D02*
X7Y198D01*
X20Y198D02*
X29Y198D01*
X46Y198D02*
X55Y198D01*
X88Y198D02*
X97Y198D01*
X1906Y198D02*
X1911Y198D01*
X2055Y198D02*
X2062Y198D01*
X0Y197D02*
X7Y197D01*
X20Y197D02*
X29Y197D01*
X46Y197D02*
X55Y197D01*
X88Y197D02*
X97Y197D01*
X1906Y197D02*
X1912Y197D01*
X2055Y197D02*
X2062Y197D01*
X0Y196D02*
X7Y196D01*
X20Y196D02*
X29Y196D01*
X46Y196D02*
X55Y196D01*
X88Y196D02*
X97Y196D01*
X1907Y196D02*
X1913Y196D01*
X2055Y196D02*
X2062Y196D01*
X0Y195D02*
X7Y195D01*
X20Y195D02*
X29Y195D01*
X46Y195D02*
X55Y195D01*
X88Y195D02*
X97Y195D01*
X1908Y195D02*
X1914Y195D01*
X2055Y195D02*
X2062Y195D01*
X0Y194D02*
X7Y194D01*
X20Y194D02*
X29Y194D01*
X46Y194D02*
X55Y194D01*
X88Y194D02*
X97Y194D01*
X459Y194D02*
X470Y194D01*
X1909Y194D02*
X1915Y194D01*
X2055Y194D02*
X2062Y194D01*
X0Y193D02*
X7Y193D01*
X20Y193D02*
X29Y193D01*
X46Y193D02*
X55Y193D01*
X88Y193D02*
X97Y193D01*
X453Y193D02*
X477Y193D01*
X1910Y193D02*
X1916Y193D01*
X2055Y193D02*
X2062Y193D01*
X0Y192D02*
X7Y192D01*
X20Y192D02*
X29Y192D01*
X46Y192D02*
X55Y192D01*
X88Y192D02*
X97Y192D01*
X449Y192D02*
X481Y192D01*
X1911Y192D02*
X1917Y192D01*
X2055Y192D02*
X2062Y192D01*
X0Y191D02*
X7Y191D01*
X20Y191D02*
X30Y191D01*
X46Y191D02*
X55Y191D01*
X88Y191D02*
X97Y191D01*
X446Y191D02*
X484Y191D01*
X677Y191D02*
X703Y191D01*
X730Y191D02*
X756Y191D01*
X1912Y191D02*
X1918Y191D01*
X2055Y191D02*
X2062Y191D01*
X0Y190D02*
X7Y190D01*
X20Y190D02*
X30Y190D01*
X46Y190D02*
X55Y190D01*
X88Y190D02*
X97Y190D01*
X443Y190D02*
X487Y190D01*
X677Y190D02*
X705Y190D01*
X728Y190D02*
X758Y190D01*
X1913Y190D02*
X1919Y190D01*
X2055Y190D02*
X2062Y190D01*
X0Y189D02*
X7Y189D01*
X21Y189D02*
X30Y189D01*
X46Y189D02*
X55Y189D01*
X88Y189D02*
X97Y189D01*
X440Y189D02*
X489Y189D01*
X677Y189D02*
X707Y189D01*
X728Y189D02*
X759Y189D01*
X832Y189D02*
X858Y189D01*
X884Y189D02*
X902Y189D01*
X1914Y189D02*
X1920Y189D01*
X2055Y189D02*
X2062Y189D01*
X0Y188D02*
X7Y188D01*
X21Y188D02*
X31Y188D01*
X46Y188D02*
X55Y188D01*
X88Y188D02*
X97Y188D01*
X438Y188D02*
X491Y188D01*
X677Y188D02*
X708Y188D01*
X728Y188D02*
X760Y188D01*
X832Y188D02*
X860Y188D01*
X883Y188D02*
X902Y188D01*
X1915Y188D02*
X1921Y188D01*
X2055Y188D02*
X2062Y188D01*
X0Y187D02*
X7Y187D01*
X21Y187D02*
X32Y187D01*
X46Y187D02*
X55Y187D01*
X88Y187D02*
X97Y187D01*
X436Y187D02*
X493Y187D01*
X677Y187D02*
X709Y187D01*
X728Y187D02*
X761Y187D01*
X832Y187D02*
X862Y187D01*
X882Y187D02*
X902Y187D01*
X1916Y187D02*
X1922Y187D01*
X2055Y187D02*
X2062Y187D01*
X0Y186D02*
X7Y186D01*
X21Y186D02*
X55Y186D01*
X88Y186D02*
X97Y186D01*
X434Y186D02*
X495Y186D01*
X677Y186D02*
X709Y186D01*
X728Y186D02*
X761Y186D01*
X832Y186D02*
X863Y186D01*
X882Y186D02*
X902Y186D01*
X1917Y186D02*
X1923Y186D01*
X2055Y186D02*
X2062Y186D01*
X0Y185D02*
X7Y185D01*
X22Y185D02*
X55Y185D01*
X88Y185D02*
X97Y185D01*
X433Y185D02*
X497Y185D01*
X677Y185D02*
X710Y185D01*
X729Y185D02*
X761Y185D01*
X832Y185D02*
X864Y185D01*
X882Y185D02*
X902Y185D01*
X1918Y185D02*
X1924Y185D01*
X2055Y185D02*
X2062Y185D01*
X0Y184D02*
X7Y184D01*
X22Y184D02*
X55Y184D01*
X88Y184D02*
X97Y184D01*
X431Y184D02*
X458Y184D01*
X471Y184D02*
X498Y184D01*
X677Y184D02*
X683Y184D01*
X703Y184D02*
X710Y184D01*
X755Y184D02*
X761Y184D01*
X832Y184D02*
X864Y184D01*
X883Y184D02*
X902Y184D01*
X1919Y184D02*
X1925Y184D01*
X2055Y184D02*
X2062Y184D01*
X0Y183D02*
X7Y183D01*
X23Y183D02*
X55Y183D01*
X88Y183D02*
X97Y183D01*
X430Y183D02*
X452Y183D01*
X477Y183D02*
X500Y183D01*
X677Y183D02*
X683Y183D01*
X704Y183D02*
X711Y183D01*
X755Y183D02*
X761Y183D01*
X832Y183D02*
X865Y183D01*
X884Y183D02*
X902Y183D01*
X1921Y183D02*
X1926Y183D01*
X2055Y183D02*
X2062Y183D01*
X0Y182D02*
X7Y182D01*
X24Y182D02*
X55Y182D01*
X88Y182D02*
X97Y182D01*
X428Y182D02*
X449Y182D01*
X481Y182D02*
X501Y182D01*
X677Y182D02*
X683Y182D01*
X705Y182D02*
X711Y182D01*
X755Y182D02*
X761Y182D01*
X832Y182D02*
X838Y182D01*
X858Y182D02*
X865Y182D01*
X896Y182D02*
X902Y182D01*
X1922Y182D02*
X1927Y182D01*
X2055Y182D02*
X2062Y182D01*
X0Y181D02*
X7Y181D01*
X25Y181D02*
X55Y181D01*
X88Y181D02*
X97Y181D01*
X427Y181D02*
X446Y181D01*
X484Y181D02*
X503Y181D01*
X677Y181D02*
X683Y181D01*
X705Y181D02*
X711Y181D01*
X755Y181D02*
X761Y181D01*
X832Y181D02*
X838Y181D01*
X859Y181D02*
X865Y181D01*
X896Y181D02*
X902Y181D01*
X1923Y181D02*
X1928Y181D01*
X2055Y181D02*
X2062Y181D01*
X0Y180D02*
X7Y180D01*
X26Y180D02*
X55Y180D01*
X88Y180D02*
X97Y180D01*
X426Y180D02*
X443Y180D01*
X486Y180D02*
X504Y180D01*
X677Y180D02*
X683Y180D01*
X705Y180D02*
X711Y180D01*
X755Y180D02*
X761Y180D01*
X832Y180D02*
X838Y180D01*
X859Y180D02*
X865Y180D01*
X896Y180D02*
X902Y180D01*
X1924Y180D02*
X1929Y180D01*
X2055Y180D02*
X2062Y180D01*
X0Y179D02*
X7Y179D01*
X27Y179D02*
X55Y179D01*
X89Y179D02*
X97Y179D01*
X425Y179D02*
X441Y179D01*
X488Y179D02*
X505Y179D01*
X677Y179D02*
X683Y179D01*
X705Y179D02*
X711Y179D01*
X755Y179D02*
X761Y179D01*
X832Y179D02*
X838Y179D01*
X859Y179D02*
X865Y179D01*
X896Y179D02*
X902Y179D01*
X1925Y179D02*
X1930Y179D01*
X2055Y179D02*
X2062Y179D01*
X0Y178D02*
X7Y178D01*
X29Y178D02*
X55Y178D01*
X90Y178D02*
X96Y178D01*
X423Y178D02*
X439Y178D01*
X490Y178D02*
X506Y178D01*
X677Y178D02*
X683Y178D01*
X705Y178D02*
X711Y178D01*
X755Y178D02*
X761Y178D01*
X832Y178D02*
X838Y178D01*
X859Y178D02*
X865Y178D01*
X896Y178D02*
X902Y178D01*
X1926Y178D02*
X1931Y178D01*
X2055Y178D02*
X2062Y178D01*
X0Y177D02*
X7Y177D01*
X31Y177D02*
X55Y177D01*
X91Y177D02*
X95Y177D01*
X422Y177D02*
X438Y177D01*
X492Y177D02*
X507Y177D01*
X677Y177D02*
X683Y177D01*
X705Y177D02*
X711Y177D01*
X755Y177D02*
X761Y177D01*
X832Y177D02*
X838Y177D01*
X859Y177D02*
X865Y177D01*
X896Y177D02*
X902Y177D01*
X1926Y177D02*
X1932Y177D01*
X2055Y177D02*
X2062Y177D01*
X0Y176D02*
X7Y176D01*
X421Y176D02*
X436Y176D01*
X494Y176D02*
X508Y176D01*
X677Y176D02*
X683Y176D01*
X705Y176D02*
X711Y176D01*
X755Y176D02*
X761Y176D01*
X832Y176D02*
X838Y176D01*
X859Y176D02*
X865Y176D01*
X896Y176D02*
X902Y176D01*
X1927Y176D02*
X1933Y176D01*
X2055Y176D02*
X2062Y176D01*
X0Y175D02*
X7Y175D01*
X420Y175D02*
X435Y175D01*
X495Y175D02*
X509Y175D01*
X677Y175D02*
X683Y175D01*
X704Y175D02*
X711Y175D01*
X755Y175D02*
X761Y175D01*
X832Y175D02*
X838Y175D01*
X859Y175D02*
X865Y175D01*
X896Y175D02*
X902Y175D01*
X1928Y175D02*
X1934Y175D01*
X2055Y175D02*
X2062Y175D01*
X0Y174D02*
X7Y174D01*
X419Y174D02*
X433Y174D01*
X496Y174D02*
X510Y174D01*
X677Y174D02*
X683Y174D01*
X703Y174D02*
X710Y174D01*
X755Y174D02*
X761Y174D01*
X832Y174D02*
X838Y174D01*
X859Y174D02*
X865Y174D01*
X896Y174D02*
X902Y174D01*
X1929Y174D02*
X1935Y174D01*
X2055Y174D02*
X2062Y174D01*
X0Y173D02*
X7Y173D01*
X419Y173D02*
X432Y173D01*
X498Y173D02*
X511Y173D01*
X677Y173D02*
X710Y173D01*
X755Y173D02*
X761Y173D01*
X832Y173D02*
X838Y173D01*
X858Y173D02*
X865Y173D01*
X896Y173D02*
X902Y173D01*
X1930Y173D02*
X1936Y173D01*
X2055Y173D02*
X2062Y173D01*
X0Y172D02*
X7Y172D01*
X418Y172D02*
X431Y172D01*
X499Y172D02*
X512Y172D01*
X677Y172D02*
X709Y172D01*
X755Y172D02*
X761Y172D01*
X832Y172D02*
X838Y172D01*
X857Y172D02*
X865Y172D01*
X896Y172D02*
X902Y172D01*
X1931Y172D02*
X1937Y172D01*
X2055Y172D02*
X2062Y172D01*
X0Y171D02*
X7Y171D01*
X417Y171D02*
X430Y171D01*
X500Y171D02*
X513Y171D01*
X677Y171D02*
X709Y171D01*
X755Y171D02*
X761Y171D01*
X832Y171D02*
X865Y171D01*
X896Y171D02*
X902Y171D01*
X1932Y171D02*
X1938Y171D01*
X2055Y171D02*
X2062Y171D01*
X0Y170D02*
X7Y170D01*
X416Y170D02*
X428Y170D01*
X501Y170D02*
X513Y170D01*
X677Y170D02*
X708Y170D01*
X755Y170D02*
X761Y170D01*
X832Y170D02*
X864Y170D01*
X896Y170D02*
X902Y170D01*
X1933Y170D02*
X1939Y170D01*
X2055Y170D02*
X2062Y170D01*
X0Y169D02*
X7Y169D01*
X415Y169D02*
X427Y169D01*
X502Y169D02*
X514Y169D01*
X677Y169D02*
X707Y169D01*
X755Y169D02*
X761Y169D01*
X832Y169D02*
X863Y169D01*
X896Y169D02*
X902Y169D01*
X1934Y169D02*
X1940Y169D01*
X2055Y169D02*
X2062Y169D01*
X0Y168D02*
X7Y168D01*
X415Y168D02*
X426Y168D01*
X503Y168D02*
X515Y168D01*
X677Y168D02*
X705Y168D01*
X755Y168D02*
X761Y168D01*
X832Y168D02*
X862Y168D01*
X896Y168D02*
X902Y168D01*
X1935Y168D02*
X1941Y168D01*
X2055Y168D02*
X2062Y168D01*
X0Y167D02*
X7Y167D01*
X414Y167D02*
X426Y167D01*
X504Y167D02*
X516Y167D01*
X677Y167D02*
X703Y167D01*
X731Y167D02*
X761Y167D01*
X832Y167D02*
X861Y167D01*
X896Y167D02*
X902Y167D01*
X1936Y167D02*
X1942Y167D01*
X2055Y167D02*
X2062Y167D01*
X0Y166D02*
X7Y166D01*
X413Y166D02*
X425Y166D01*
X505Y166D02*
X516Y166D01*
X677Y166D02*
X683Y166D01*
X689Y166D02*
X697Y166D01*
X730Y166D02*
X761Y166D01*
X832Y166D02*
X860Y166D01*
X896Y166D02*
X902Y166D01*
X1937Y166D02*
X1943Y166D01*
X2055Y166D02*
X2062Y166D01*
X0Y165D02*
X7Y165D01*
X413Y165D02*
X424Y165D01*
X506Y165D02*
X517Y165D01*
X677Y165D02*
X683Y165D01*
X690Y165D02*
X697Y165D01*
X729Y165D02*
X760Y165D01*
X832Y165D02*
X857Y165D01*
X896Y165D02*
X902Y165D01*
X1938Y165D02*
X1942Y165D01*
X2055Y165D02*
X2062Y165D01*
X0Y164D02*
X7Y164D01*
X412Y164D02*
X423Y164D01*
X506Y164D02*
X517Y164D01*
X677Y164D02*
X683Y164D01*
X691Y164D02*
X698Y164D01*
X728Y164D02*
X760Y164D01*
X832Y164D02*
X838Y164D01*
X844Y164D02*
X851Y164D01*
X896Y164D02*
X902Y164D01*
X1939Y164D02*
X1941Y164D01*
X2055Y164D02*
X2062Y164D01*
X0Y163D02*
X7Y163D01*
X411Y163D02*
X422Y163D01*
X507Y163D02*
X518Y163D01*
X677Y163D02*
X683Y163D01*
X691Y163D02*
X698Y163D01*
X728Y163D02*
X759Y163D01*
X832Y163D02*
X838Y163D01*
X845Y163D02*
X852Y163D01*
X896Y163D02*
X902Y163D01*
X1940Y163D02*
X1940Y163D01*
X2055Y163D02*
X2062Y163D01*
X0Y162D02*
X7Y162D01*
X411Y162D02*
X422Y162D01*
X508Y162D02*
X519Y162D01*
X677Y162D02*
X683Y162D01*
X692Y162D02*
X699Y162D01*
X728Y162D02*
X758Y162D01*
X832Y162D02*
X838Y162D01*
X845Y162D02*
X853Y162D01*
X896Y162D02*
X902Y162D01*
X2055Y162D02*
X2062Y162D01*
X0Y161D02*
X7Y161D01*
X410Y161D02*
X421Y161D01*
X509Y161D02*
X519Y161D01*
X677Y161D02*
X683Y161D01*
X692Y161D02*
X700Y161D01*
X728Y161D02*
X756Y161D01*
X832Y161D02*
X838Y161D01*
X846Y161D02*
X853Y161D01*
X896Y161D02*
X902Y161D01*
X2055Y161D02*
X2062Y161D01*
X0Y160D02*
X7Y160D01*
X410Y160D02*
X420Y160D01*
X509Y160D02*
X520Y160D01*
X677Y160D02*
X683Y160D01*
X693Y160D02*
X700Y160D01*
X728Y160D02*
X734Y160D01*
X832Y160D02*
X838Y160D01*
X847Y160D02*
X854Y160D01*
X896Y160D02*
X902Y160D01*
X913Y160D02*
X913Y160D01*
X2055Y160D02*
X2062Y160D01*
X0Y159D02*
X7Y159D01*
X409Y159D02*
X420Y159D01*
X510Y159D02*
X520Y159D01*
X677Y159D02*
X683Y159D01*
X694Y159D02*
X701Y159D01*
X728Y159D02*
X734Y159D01*
X832Y159D02*
X838Y159D01*
X847Y159D02*
X854Y159D01*
X896Y159D02*
X902Y159D01*
X911Y159D02*
X915Y159D01*
X2055Y159D02*
X2062Y159D01*
X0Y158D02*
X7Y158D01*
X409Y158D02*
X419Y158D01*
X511Y158D02*
X521Y158D01*
X677Y158D02*
X683Y158D01*
X694Y158D02*
X701Y158D01*
X728Y158D02*
X734Y158D01*
X832Y158D02*
X838Y158D01*
X848Y158D02*
X855Y158D01*
X896Y158D02*
X902Y158D01*
X910Y158D02*
X915Y158D01*
X2055Y158D02*
X2062Y158D01*
X0Y157D02*
X7Y157D01*
X408Y157D02*
X418Y157D01*
X511Y157D02*
X521Y157D01*
X677Y157D02*
X683Y157D01*
X695Y157D02*
X702Y157D01*
X728Y157D02*
X734Y157D01*
X832Y157D02*
X838Y157D01*
X848Y157D02*
X855Y157D01*
X896Y157D02*
X902Y157D01*
X910Y157D02*
X916Y157D01*
X2055Y157D02*
X2062Y157D01*
X0Y156D02*
X7Y156D01*
X408Y156D02*
X418Y156D01*
X512Y156D02*
X521Y156D01*
X677Y156D02*
X683Y156D01*
X695Y156D02*
X703Y156D01*
X728Y156D02*
X734Y156D01*
X832Y156D02*
X838Y156D01*
X849Y156D02*
X856Y156D01*
X896Y156D02*
X902Y156D01*
X910Y156D02*
X916Y156D01*
X2055Y156D02*
X2062Y156D01*
X0Y155D02*
X7Y155D01*
X408Y155D02*
X417Y155D01*
X512Y155D02*
X522Y155D01*
X677Y155D02*
X683Y155D01*
X696Y155D02*
X703Y155D01*
X728Y155D02*
X734Y155D01*
X832Y155D02*
X838Y155D01*
X849Y155D02*
X857Y155D01*
X896Y155D02*
X902Y155D01*
X910Y155D02*
X916Y155D01*
X2055Y155D02*
X2062Y155D01*
X0Y154D02*
X7Y154D01*
X407Y154D02*
X417Y154D01*
X513Y154D02*
X522Y154D01*
X677Y154D02*
X683Y154D01*
X697Y154D02*
X704Y154D01*
X728Y154D02*
X734Y154D01*
X832Y154D02*
X838Y154D01*
X850Y154D02*
X857Y154D01*
X896Y154D02*
X902Y154D01*
X910Y154D02*
X916Y154D01*
X2055Y154D02*
X2062Y154D01*
X0Y153D02*
X7Y153D01*
X23Y153D02*
X97Y153D01*
X407Y153D02*
X416Y153D01*
X513Y153D02*
X523Y153D01*
X677Y153D02*
X683Y153D01*
X697Y153D02*
X704Y153D01*
X728Y153D02*
X734Y153D01*
X832Y153D02*
X838Y153D01*
X851Y153D02*
X858Y153D01*
X896Y153D02*
X902Y153D01*
X910Y153D02*
X916Y153D01*
X2055Y153D02*
X2062Y153D01*
X0Y152D02*
X7Y152D01*
X22Y152D02*
X97Y152D01*
X407Y152D02*
X416Y152D01*
X513Y152D02*
X523Y152D01*
X677Y152D02*
X683Y152D01*
X698Y152D02*
X705Y152D01*
X728Y152D02*
X734Y152D01*
X832Y152D02*
X838Y152D01*
X851Y152D02*
X858Y152D01*
X896Y152D02*
X902Y152D01*
X910Y152D02*
X916Y152D01*
X2055Y152D02*
X2062Y152D01*
X0Y151D02*
X7Y151D01*
X21Y151D02*
X97Y151D01*
X406Y151D02*
X416Y151D01*
X514Y151D02*
X523Y151D01*
X677Y151D02*
X683Y151D01*
X698Y151D02*
X705Y151D01*
X728Y151D02*
X734Y151D01*
X832Y151D02*
X838Y151D01*
X852Y151D02*
X859Y151D01*
X896Y151D02*
X902Y151D01*
X910Y151D02*
X916Y151D01*
X2055Y151D02*
X2062Y151D01*
X0Y150D02*
X7Y150D01*
X21Y150D02*
X97Y150D01*
X406Y150D02*
X415Y150D01*
X514Y150D02*
X524Y150D01*
X677Y150D02*
X683Y150D01*
X699Y150D02*
X706Y150D01*
X728Y150D02*
X734Y150D01*
X832Y150D02*
X838Y150D01*
X852Y150D02*
X860Y150D01*
X896Y150D02*
X902Y150D01*
X910Y150D02*
X916Y150D01*
X2055Y150D02*
X2062Y150D01*
X0Y149D02*
X7Y149D01*
X20Y149D02*
X97Y149D01*
X406Y149D02*
X415Y149D01*
X515Y149D02*
X524Y149D01*
X677Y149D02*
X683Y149D01*
X699Y149D02*
X707Y149D01*
X728Y149D02*
X734Y149D01*
X832Y149D02*
X838Y149D01*
X853Y149D02*
X860Y149D01*
X896Y149D02*
X902Y149D01*
X910Y149D02*
X916Y149D01*
X2055Y149D02*
X2062Y149D01*
X0Y148D02*
X7Y148D01*
X20Y148D02*
X97Y148D01*
X405Y148D02*
X415Y148D01*
X515Y148D02*
X524Y148D01*
X677Y148D02*
X683Y148D01*
X700Y148D02*
X707Y148D01*
X728Y148D02*
X734Y148D01*
X832Y148D02*
X838Y148D01*
X854Y148D02*
X861Y148D01*
X896Y148D02*
X902Y148D01*
X910Y148D02*
X916Y148D01*
X2055Y148D02*
X2062Y148D01*
X0Y147D02*
X7Y147D01*
X21Y147D02*
X97Y147D01*
X405Y147D02*
X414Y147D01*
X505Y147D02*
X524Y147D01*
X677Y147D02*
X683Y147D01*
X701Y147D02*
X708Y147D01*
X728Y147D02*
X734Y147D01*
X832Y147D02*
X838Y147D01*
X854Y147D02*
X861Y147D01*
X896Y147D02*
X902Y147D01*
X910Y147D02*
X916Y147D01*
X2055Y147D02*
X2062Y147D01*
X0Y146D02*
X7Y146D01*
X21Y146D02*
X97Y146D01*
X405Y146D02*
X414Y146D01*
X505Y146D02*
X524Y146D01*
X677Y146D02*
X683Y146D01*
X701Y146D02*
X708Y146D01*
X728Y146D02*
X734Y146D01*
X832Y146D02*
X838Y146D01*
X855Y146D02*
X862Y146D01*
X896Y146D02*
X902Y146D01*
X910Y146D02*
X916Y146D01*
X2055Y146D02*
X2062Y146D01*
X0Y145D02*
X7Y145D01*
X22Y145D02*
X97Y145D01*
X405Y145D02*
X414Y145D01*
X506Y145D02*
X524Y145D01*
X677Y145D02*
X683Y145D01*
X702Y145D02*
X709Y145D01*
X728Y145D02*
X734Y145D01*
X832Y145D02*
X838Y145D01*
X855Y145D02*
X862Y145D01*
X896Y145D02*
X902Y145D01*
X910Y145D02*
X916Y145D01*
X2055Y145D02*
X2062Y145D01*
X0Y144D02*
X7Y144D01*
X24Y144D02*
X97Y144D01*
X404Y144D02*
X414Y144D01*
X506Y144D02*
X523Y144D01*
X677Y144D02*
X683Y144D01*
X702Y144D02*
X710Y144D01*
X728Y144D02*
X759Y144D01*
X832Y144D02*
X838Y144D01*
X856Y144D02*
X863Y144D01*
X896Y144D02*
X902Y144D01*
X910Y144D02*
X916Y144D01*
X2055Y144D02*
X2062Y144D01*
X0Y143D02*
X7Y143D01*
X79Y143D02*
X97Y143D01*
X404Y143D02*
X413Y143D01*
X506Y143D02*
X523Y143D01*
X677Y143D02*
X683Y143D01*
X703Y143D02*
X710Y143D01*
X728Y143D02*
X760Y143D01*
X832Y143D02*
X838Y143D01*
X856Y143D02*
X864Y143D01*
X896Y143D02*
X902Y143D01*
X910Y143D02*
X916Y143D01*
X2055Y143D02*
X2062Y143D01*
X0Y142D02*
X7Y142D01*
X77Y142D02*
X97Y142D01*
X404Y142D02*
X413Y142D01*
X507Y142D02*
X523Y142D01*
X677Y142D02*
X683Y142D01*
X704Y142D02*
X711Y142D01*
X728Y142D02*
X761Y142D01*
X832Y142D02*
X838Y142D01*
X857Y142D02*
X864Y142D01*
X884Y142D02*
X916Y142D01*
X2055Y142D02*
X2062Y142D01*
X0Y141D02*
X7Y141D01*
X74Y141D02*
X97Y141D01*
X404Y141D02*
X413Y141D01*
X507Y141D02*
X523Y141D01*
X677Y141D02*
X683Y141D01*
X704Y141D02*
X711Y141D01*
X728Y141D02*
X761Y141D01*
X832Y141D02*
X838Y141D01*
X858Y141D02*
X865Y141D01*
X883Y141D02*
X916Y141D01*
X2055Y141D02*
X2062Y141D01*
X0Y140D02*
X7Y140D01*
X72Y140D02*
X96Y140D01*
X404Y140D02*
X413Y140D01*
X507Y140D02*
X523Y140D01*
X677Y140D02*
X683Y140D01*
X705Y140D02*
X711Y140D01*
X728Y140D02*
X761Y140D01*
X832Y140D02*
X838Y140D01*
X858Y140D02*
X865Y140D01*
X882Y140D02*
X916Y140D01*
X2055Y140D02*
X2062Y140D01*
X0Y139D02*
X7Y139D01*
X70Y139D02*
X94Y139D01*
X404Y139D02*
X413Y139D01*
X507Y139D02*
X522Y139D01*
X678Y139D02*
X683Y139D01*
X705Y139D02*
X710Y139D01*
X728Y139D02*
X761Y139D01*
X832Y139D02*
X838Y139D01*
X859Y139D02*
X865Y139D01*
X882Y139D02*
X916Y139D01*
X2055Y139D02*
X2062Y139D01*
X0Y138D02*
X7Y138D01*
X67Y138D02*
X92Y138D01*
X404Y138D02*
X413Y138D01*
X507Y138D02*
X522Y138D01*
X679Y138D02*
X682Y138D01*
X706Y138D02*
X709Y138D01*
X728Y138D02*
X760Y138D01*
X832Y138D02*
X838Y138D01*
X859Y138D02*
X865Y138D01*
X882Y138D02*
X916Y138D01*
X2055Y138D02*
X2062Y138D01*
X0Y137D02*
X7Y137D01*
X65Y137D02*
X89Y137D01*
X403Y137D02*
X412Y137D01*
X507Y137D02*
X522Y137D01*
X833Y137D02*
X837Y137D01*
X860Y137D02*
X865Y137D01*
X883Y137D02*
X915Y137D01*
X2055Y137D02*
X2062Y137D01*
X0Y136D02*
X7Y136D01*
X63Y136D02*
X87Y136D01*
X403Y136D02*
X412Y136D01*
X508Y136D02*
X522Y136D01*
X834Y136D02*
X836Y136D01*
X861Y136D02*
X864Y136D01*
X884Y136D02*
X914Y136D01*
X2055Y136D02*
X2062Y136D01*
X0Y135D02*
X7Y135D01*
X61Y135D02*
X85Y135D01*
X403Y135D02*
X412Y135D01*
X508Y135D02*
X522Y135D01*
X2055Y135D02*
X2062Y135D01*
X0Y134D02*
X7Y134D01*
X58Y134D02*
X83Y134D01*
X403Y134D02*
X412Y134D01*
X508Y134D02*
X522Y134D01*
X2055Y134D02*
X2062Y134D01*
X0Y133D02*
X7Y133D01*
X56Y133D02*
X80Y133D01*
X403Y133D02*
X412Y133D01*
X508Y133D02*
X522Y133D01*
X2055Y133D02*
X2062Y133D01*
X0Y132D02*
X7Y132D01*
X54Y132D02*
X78Y132D01*
X403Y132D02*
X412Y132D01*
X508Y132D02*
X522Y132D01*
X2055Y132D02*
X2062Y132D01*
X0Y131D02*
X7Y131D01*
X51Y131D02*
X76Y131D01*
X403Y131D02*
X412Y131D01*
X508Y131D02*
X522Y131D01*
X2055Y131D02*
X2062Y131D01*
X0Y130D02*
X7Y130D01*
X49Y130D02*
X73Y130D01*
X403Y130D02*
X412Y130D01*
X508Y130D02*
X522Y130D01*
X2055Y130D02*
X2062Y130D01*
X0Y129D02*
X7Y129D01*
X47Y129D02*
X71Y129D01*
X403Y129D02*
X412Y129D01*
X508Y129D02*
X522Y129D01*
X2055Y129D02*
X2062Y129D01*
X0Y128D02*
X7Y128D01*
X45Y128D02*
X69Y128D01*
X403Y128D02*
X412Y128D01*
X507Y128D02*
X522Y128D01*
X2055Y128D02*
X2062Y128D01*
X0Y127D02*
X7Y127D01*
X42Y127D02*
X67Y127D01*
X404Y127D02*
X413Y127D01*
X507Y127D02*
X522Y127D01*
X2055Y127D02*
X2062Y127D01*
X0Y126D02*
X7Y126D01*
X40Y126D02*
X64Y126D01*
X404Y126D02*
X413Y126D01*
X507Y126D02*
X522Y126D01*
X2055Y126D02*
X2062Y126D01*
X0Y125D02*
X7Y125D01*
X38Y125D02*
X62Y125D01*
X404Y125D02*
X413Y125D01*
X507Y125D02*
X522Y125D01*
X2055Y125D02*
X2062Y125D01*
X0Y124D02*
X7Y124D01*
X35Y124D02*
X60Y124D01*
X404Y124D02*
X413Y124D01*
X507Y124D02*
X523Y124D01*
X2055Y124D02*
X2062Y124D01*
X0Y123D02*
X7Y123D01*
X33Y123D02*
X57Y123D01*
X404Y123D02*
X413Y123D01*
X507Y123D02*
X523Y123D01*
X2055Y123D02*
X2062Y123D01*
X0Y122D02*
X7Y122D01*
X31Y122D02*
X55Y122D01*
X404Y122D02*
X413Y122D01*
X506Y122D02*
X523Y122D01*
X2055Y122D02*
X2062Y122D01*
X0Y121D02*
X7Y121D01*
X29Y121D02*
X53Y121D01*
X404Y121D02*
X413Y121D01*
X506Y121D02*
X523Y121D01*
X2055Y121D02*
X2062Y121D01*
X0Y120D02*
X7Y120D01*
X26Y120D02*
X51Y120D01*
X405Y120D02*
X414Y120D01*
X506Y120D02*
X524Y120D01*
X2055Y120D02*
X2062Y120D01*
X0Y119D02*
X7Y119D01*
X24Y119D02*
X48Y119D01*
X405Y119D02*
X414Y119D01*
X506Y119D02*
X524Y119D01*
X2055Y119D02*
X2062Y119D01*
X0Y118D02*
X7Y118D01*
X22Y118D02*
X46Y118D01*
X405Y118D02*
X414Y118D01*
X505Y118D02*
X524Y118D01*
X2055Y118D02*
X2062Y118D01*
X0Y117D02*
X7Y117D01*
X20Y117D02*
X44Y117D01*
X405Y117D02*
X414Y117D01*
X515Y117D02*
X524Y117D01*
X2055Y117D02*
X2062Y117D01*
X0Y116D02*
X7Y116D01*
X20Y116D02*
X42Y116D01*
X406Y116D02*
X415Y116D01*
X515Y116D02*
X524Y116D01*
X2055Y116D02*
X2062Y116D01*
X0Y115D02*
X7Y115D01*
X20Y115D02*
X39Y115D01*
X406Y115D02*
X415Y115D01*
X514Y115D02*
X524Y115D01*
X2055Y115D02*
X2062Y115D01*
X0Y114D02*
X7Y114D01*
X20Y114D02*
X93Y114D01*
X406Y114D02*
X416Y114D01*
X514Y114D02*
X523Y114D01*
X2055Y114D02*
X2062Y114D01*
X0Y113D02*
X7Y113D01*
X20Y113D02*
X95Y113D01*
X406Y113D02*
X416Y113D01*
X514Y113D02*
X523Y113D01*
X2055Y113D02*
X2062Y113D01*
X0Y112D02*
X7Y112D01*
X20Y112D02*
X96Y112D01*
X407Y112D02*
X416Y112D01*
X513Y112D02*
X523Y112D01*
X2055Y112D02*
X2062Y112D01*
X0Y111D02*
X7Y111D01*
X20Y111D02*
X97Y111D01*
X407Y111D02*
X417Y111D01*
X513Y111D02*
X522Y111D01*
X2055Y111D02*
X2062Y111D01*
X0Y110D02*
X7Y110D01*
X20Y110D02*
X97Y110D01*
X408Y110D02*
X417Y110D01*
X512Y110D02*
X522Y110D01*
X2055Y110D02*
X2062Y110D01*
X0Y109D02*
X7Y109D01*
X20Y109D02*
X97Y109D01*
X408Y109D02*
X418Y109D01*
X512Y109D02*
X522Y109D01*
X2055Y109D02*
X2062Y109D01*
X0Y108D02*
X7Y108D01*
X20Y108D02*
X97Y108D01*
X408Y108D02*
X418Y108D01*
X511Y108D02*
X521Y108D01*
X2055Y108D02*
X2062Y108D01*
X0Y107D02*
X7Y107D01*
X20Y107D02*
X97Y107D01*
X409Y107D02*
X419Y107D01*
X511Y107D02*
X521Y107D01*
X2055Y107D02*
X2062Y107D01*
X0Y106D02*
X7Y106D01*
X20Y106D02*
X96Y106D01*
X409Y106D02*
X419Y106D01*
X510Y106D02*
X520Y106D01*
X2055Y106D02*
X2062Y106D01*
X0Y105D02*
X7Y105D01*
X20Y105D02*
X95Y105D01*
X410Y105D02*
X420Y105D01*
X509Y105D02*
X520Y105D01*
X2055Y105D02*
X2062Y105D01*
X0Y104D02*
X7Y104D01*
X21Y104D02*
X92Y104D01*
X410Y104D02*
X421Y104D01*
X509Y104D02*
X519Y104D01*
X2055Y104D02*
X2062Y104D01*
X0Y103D02*
X7Y103D01*
X411Y103D02*
X421Y103D01*
X508Y103D02*
X519Y103D01*
X2055Y103D02*
X2062Y103D01*
X0Y102D02*
X7Y102D01*
X411Y102D02*
X422Y102D01*
X507Y102D02*
X518Y102D01*
X2055Y102D02*
X2062Y102D01*
X0Y101D02*
X7Y101D01*
X412Y101D02*
X423Y101D01*
X507Y101D02*
X518Y101D01*
X2055Y101D02*
X2062Y101D01*
X0Y100D02*
X7Y100D01*
X413Y100D02*
X424Y100D01*
X506Y100D02*
X517Y100D01*
X2055Y100D02*
X2062Y100D01*
X0Y99D02*
X7Y99D01*
X413Y99D02*
X424Y99D01*
X505Y99D02*
X516Y99D01*
X2055Y99D02*
X2062Y99D01*
X0Y98D02*
X7Y98D01*
X414Y98D02*
X425Y98D01*
X504Y98D02*
X516Y98D01*
X2055Y98D02*
X2062Y98D01*
X0Y97D02*
X7Y97D01*
X414Y97D02*
X426Y97D01*
X503Y97D02*
X515Y97D01*
X2055Y97D02*
X2062Y97D01*
X0Y96D02*
X7Y96D01*
X415Y96D02*
X427Y96D01*
X502Y96D02*
X514Y96D01*
X2055Y96D02*
X2062Y96D01*
X0Y95D02*
X7Y95D01*
X416Y95D02*
X428Y95D01*
X501Y95D02*
X514Y95D01*
X2055Y95D02*
X2062Y95D01*
X0Y94D02*
X7Y94D01*
X417Y94D02*
X429Y94D01*
X500Y94D02*
X513Y94D01*
X2055Y94D02*
X2062Y94D01*
X0Y93D02*
X7Y93D01*
X417Y93D02*
X430Y93D01*
X499Y93D02*
X512Y93D01*
X2055Y93D02*
X2062Y93D01*
X0Y92D02*
X7Y92D01*
X418Y92D02*
X431Y92D01*
X498Y92D02*
X511Y92D01*
X2055Y92D02*
X2062Y92D01*
X0Y91D02*
X7Y91D01*
X419Y91D02*
X433Y91D01*
X497Y91D02*
X510Y91D01*
X2055Y91D02*
X2062Y91D01*
X0Y90D02*
X7Y90D01*
X420Y90D02*
X434Y90D01*
X495Y90D02*
X509Y90D01*
X2055Y90D02*
X2062Y90D01*
X0Y89D02*
X7Y89D01*
X421Y89D02*
X436Y89D01*
X494Y89D02*
X508Y89D01*
X2055Y89D02*
X2062Y89D01*
X0Y88D02*
X7Y88D01*
X422Y88D02*
X437Y88D01*
X492Y88D02*
X507Y88D01*
X2055Y88D02*
X2062Y88D01*
X0Y87D02*
X7Y87D01*
X423Y87D02*
X439Y87D01*
X491Y87D02*
X506Y87D01*
X1818Y87D02*
X1824Y87D01*
X2055Y87D02*
X2062Y87D01*
X0Y86D02*
X7Y86D01*
X424Y86D02*
X441Y86D01*
X489Y86D02*
X505Y86D01*
X1818Y86D02*
X1825Y86D01*
X1891Y86D02*
X1901Y86D01*
X1910Y86D02*
X1910Y86D01*
X1921Y86D02*
X1921Y86D01*
X2055Y86D02*
X2062Y86D01*
X0Y85D02*
X7Y85D01*
X425Y85D02*
X443Y85D01*
X487Y85D02*
X504Y85D01*
X1820Y85D02*
X1825Y85D01*
X1891Y85D02*
X1901Y85D01*
X1909Y85D02*
X1911Y85D01*
X1920Y85D02*
X1922Y85D01*
X2055Y85D02*
X2062Y85D01*
X0Y84D02*
X7Y84D01*
X427Y84D02*
X445Y84D01*
X484Y84D02*
X503Y84D01*
X1614Y84D02*
X1616Y84D01*
X1696Y84D02*
X1697Y84D01*
X1823Y84D02*
X1825Y84D01*
X1891Y84D02*
X1901Y84D01*
X1909Y84D02*
X1911Y84D01*
X1920Y84D02*
X1922Y84D01*
X2055Y84D02*
X2062Y84D01*
X0Y83D02*
X7Y83D01*
X428Y83D02*
X448Y83D01*
X482Y83D02*
X502Y83D01*
X1614Y83D02*
X1616Y83D01*
X1695Y83D02*
X1697Y83D01*
X1823Y83D02*
X1825Y83D01*
X1891Y83D02*
X1893Y83D01*
X1909Y83D02*
X1911Y83D01*
X1920Y83D02*
X1922Y83D01*
X2055Y83D02*
X2062Y83D01*
X0Y82D02*
X7Y82D01*
X429Y82D02*
X451Y82D01*
X478Y82D02*
X500Y82D01*
X1614Y82D02*
X1616Y82D01*
X1695Y82D02*
X1697Y82D01*
X1823Y82D02*
X1825Y82D01*
X1874Y82D02*
X1874Y82D01*
X1891Y82D02*
X1893Y82D01*
X1909Y82D02*
X1911Y82D01*
X1920Y82D02*
X1922Y82D01*
X2055Y82D02*
X2062Y82D01*
X0Y81D02*
X7Y81D01*
X23Y81D02*
X26Y81D01*
X91Y81D02*
X94Y81D01*
X431Y81D02*
X456Y81D01*
X473Y81D02*
X499Y81D01*
X1614Y81D02*
X1616Y81D01*
X1695Y81D02*
X1697Y81D01*
X1776Y81D02*
X1786Y81D01*
X1800Y81D02*
X1809Y81D01*
X1823Y81D02*
X1825Y81D01*
X1873Y81D02*
X1875Y81D01*
X1891Y81D02*
X1893Y81D01*
X1909Y81D02*
X1911Y81D01*
X1920Y81D02*
X1922Y81D01*
X2055Y81D02*
X2062Y81D01*
X0Y80D02*
X7Y80D01*
X22Y80D02*
X28Y80D01*
X90Y80D02*
X96Y80D01*
X432Y80D02*
X497Y80D01*
X1614Y80D02*
X1616Y80D01*
X1695Y80D02*
X1697Y80D01*
X1775Y80D02*
X1787Y80D01*
X1799Y80D02*
X1809Y80D01*
X1823Y80D02*
X1825Y80D01*
X1873Y80D02*
X1875Y80D01*
X1891Y80D02*
X1893Y80D01*
X1909Y80D02*
X1911Y80D01*
X1920Y80D02*
X1922Y80D01*
X2055Y80D02*
X2062Y80D01*
X0Y79D02*
X7Y79D01*
X21Y79D02*
X29Y79D01*
X89Y79D02*
X97Y79D01*
X434Y79D02*
X496Y79D01*
X1570Y79D02*
X1573Y79D01*
X1578Y79D02*
X1578Y79D01*
X1586Y79D02*
X1586Y79D01*
X1591Y79D02*
X1594Y79D01*
X1608Y79D02*
X1611Y79D01*
X1614Y79D02*
X1616Y79D01*
X1669Y79D02*
X1676Y79D01*
X1689Y79D02*
X1692Y79D01*
X1695Y79D02*
X1697Y79D01*
X1707Y79D02*
X1713Y79D01*
X1774Y79D02*
X1787Y79D01*
X1797Y79D02*
X1808Y79D01*
X1823Y79D02*
X1825Y79D01*
X1873Y79D02*
X1875Y79D01*
X1891Y79D02*
X1893Y79D01*
X1909Y79D02*
X1911Y79D01*
X1920Y79D02*
X1922Y79D01*
X2055Y79D02*
X2062Y79D01*
X0Y78D02*
X7Y78D01*
X21Y78D02*
X29Y78D01*
X88Y78D02*
X97Y78D01*
X436Y78D02*
X494Y78D01*
X1568Y78D02*
X1575Y78D01*
X1577Y78D02*
X1578Y78D01*
X1585Y78D02*
X1587Y78D01*
X1589Y78D02*
X1596Y78D01*
X1606Y78D02*
X1616Y78D01*
X1668Y78D02*
X1677Y78D01*
X1687Y78D02*
X1697Y78D01*
X1707Y78D02*
X1714Y78D01*
X1774Y78D02*
X1776Y78D01*
X1786Y78D02*
X1787Y78D01*
X1797Y78D02*
X1800Y78D01*
X1823Y78D02*
X1825Y78D01*
X1873Y78D02*
X1875Y78D01*
X1891Y78D02*
X1893Y78D01*
X1909Y78D02*
X1912Y78D01*
X1919Y78D02*
X1921Y78D01*
X2055Y78D02*
X2062Y78D01*
X0Y77D02*
X7Y77D01*
X20Y77D02*
X29Y77D01*
X88Y77D02*
X97Y77D01*
X438Y77D02*
X492Y77D01*
X1567Y77D02*
X1578Y77D01*
X1585Y77D02*
X1596Y77D01*
X1605Y77D02*
X1616Y77D01*
X1667Y77D02*
X1678Y77D01*
X1686Y77D02*
X1697Y77D01*
X1707Y77D02*
X1715Y77D01*
X1774Y77D02*
X1777Y77D01*
X1796Y77D02*
X1799Y77D01*
X1823Y77D02*
X1825Y77D01*
X1873Y77D02*
X1875Y77D01*
X1891Y77D02*
X1893Y77D01*
X1910Y77D02*
X1912Y77D01*
X1919Y77D02*
X1921Y77D01*
X2055Y77D02*
X2062Y77D01*
X0Y76D02*
X7Y76D01*
X20Y76D02*
X29Y76D01*
X88Y76D02*
X97Y76D01*
X440Y76D02*
X490Y76D01*
X1567Y76D02*
X1569Y76D01*
X1574Y76D02*
X1578Y76D01*
X1585Y76D02*
X1590Y76D01*
X1595Y76D02*
X1597Y76D01*
X1604Y76D02*
X1607Y76D01*
X1612Y76D02*
X1616Y76D01*
X1667Y76D02*
X1668Y76D01*
X1677Y76D02*
X1678Y76D01*
X1685Y76D02*
X1688Y76D01*
X1693Y76D02*
X1697Y76D01*
X1714Y76D02*
X1715Y76D01*
X1775Y76D02*
X1779Y76D01*
X1796Y76D02*
X1798Y76D01*
X1823Y76D02*
X1825Y76D01*
X1868Y76D02*
X1880Y76D01*
X1891Y76D02*
X1900Y76D01*
X1910Y76D02*
X1912Y76D01*
X1918Y76D02*
X1920Y76D01*
X2055Y76D02*
X2062Y76D01*
X0Y75D02*
X7Y75D01*
X20Y75D02*
X29Y75D01*
X88Y75D02*
X97Y75D01*
X442Y75D02*
X487Y75D01*
X1566Y75D02*
X1568Y75D01*
X1576Y75D02*
X1578Y75D01*
X1585Y75D02*
X1589Y75D01*
X1595Y75D02*
X1597Y75D01*
X1604Y75D02*
X1606Y75D01*
X1613Y75D02*
X1616Y75D01*
X1667Y75D02*
X1669Y75D01*
X1685Y75D02*
X1687Y75D01*
X1694Y75D02*
X1697Y75D01*
X1714Y75D02*
X1716Y75D01*
X1776Y75D02*
X1782Y75D01*
X1795Y75D02*
X1797Y75D01*
X1823Y75D02*
X1825Y75D01*
X1868Y75D02*
X1881Y75D01*
X1891Y75D02*
X1901Y75D01*
X1911Y75D02*
X1913Y75D01*
X1918Y75D02*
X1920Y75D01*
X2055Y75D02*
X2062Y75D01*
X0Y74D02*
X7Y74D01*
X20Y74D02*
X29Y74D01*
X88Y74D02*
X97Y74D01*
X445Y74D02*
X485Y74D01*
X1566Y74D02*
X1568Y74D01*
X1576Y74D02*
X1578Y74D01*
X1585Y74D02*
X1587Y74D01*
X1595Y74D02*
X1597Y74D01*
X1604Y74D02*
X1606Y74D01*
X1614Y74D02*
X1616Y74D01*
X1667Y74D02*
X1672Y74D01*
X1685Y74D02*
X1687Y74D01*
X1695Y74D02*
X1697Y74D01*
X1714Y74D02*
X1716Y74D01*
X1778Y74D02*
X1784Y74D01*
X1795Y74D02*
X1797Y74D01*
X1823Y74D02*
X1825Y74D01*
X1869Y74D02*
X1880Y74D01*
X1891Y74D02*
X1901Y74D01*
X1911Y74D02*
X1913Y74D01*
X1918Y74D02*
X1920Y74D01*
X2055Y74D02*
X2062Y74D01*
X0Y73D02*
X7Y73D01*
X20Y73D02*
X29Y73D01*
X88Y73D02*
X97Y73D01*
X448Y73D02*
X482Y73D01*
X1566Y73D02*
X1568Y73D01*
X1577Y73D02*
X1578Y73D01*
X1585Y73D02*
X1587Y73D01*
X1595Y73D02*
X1597Y73D01*
X1604Y73D02*
X1606Y73D01*
X1614Y73D02*
X1616Y73D01*
X1669Y73D02*
X1674Y73D01*
X1685Y73D02*
X1687Y73D01*
X1695Y73D02*
X1697Y73D01*
X1706Y73D02*
X1716Y73D01*
X1780Y73D02*
X1786Y73D01*
X1795Y73D02*
X1797Y73D01*
X1823Y73D02*
X1825Y73D01*
X1873Y73D02*
X1875Y73D01*
X1899Y73D02*
X1901Y73D01*
X1911Y73D02*
X1913Y73D01*
X1917Y73D02*
X1919Y73D01*
X2055Y73D02*
X2062Y73D01*
X0Y72D02*
X7Y72D01*
X20Y72D02*
X29Y72D01*
X88Y72D02*
X97Y72D01*
X452Y72D02*
X478Y72D01*
X1566Y72D02*
X1568Y72D01*
X1577Y72D02*
X1578Y72D01*
X1585Y72D02*
X1587Y72D01*
X1595Y72D02*
X1597Y72D01*
X1604Y72D02*
X1606Y72D01*
X1614Y72D02*
X1616Y72D01*
X1671Y72D02*
X1676Y72D01*
X1685Y72D02*
X1687Y72D01*
X1695Y72D02*
X1697Y72D01*
X1705Y72D02*
X1716Y72D01*
X1782Y72D02*
X1787Y72D01*
X1795Y72D02*
X1797Y72D01*
X1823Y72D02*
X1825Y72D01*
X1873Y72D02*
X1875Y72D01*
X1899Y72D02*
X1901Y72D01*
X1912Y72D02*
X1914Y72D01*
X1917Y72D02*
X1919Y72D01*
X2055Y72D02*
X2062Y72D01*
X0Y71D02*
X7Y71D01*
X20Y71D02*
X97Y71D01*
X457Y71D02*
X472Y71D01*
X1566Y71D02*
X1568Y71D01*
X1577Y71D02*
X1578Y71D01*
X1585Y71D02*
X1587Y71D01*
X1595Y71D02*
X1597Y71D01*
X1604Y71D02*
X1606Y71D01*
X1614Y71D02*
X1616Y71D01*
X1673Y71D02*
X1677Y71D01*
X1685Y71D02*
X1687Y71D01*
X1695Y71D02*
X1697Y71D01*
X1704Y71D02*
X1707Y71D01*
X1713Y71D02*
X1716Y71D01*
X1784Y71D02*
X1787Y71D01*
X1795Y71D02*
X1797Y71D01*
X1823Y71D02*
X1825Y71D01*
X1873Y71D02*
X1875Y71D01*
X1899Y71D02*
X1901Y71D01*
X1912Y71D02*
X1914Y71D01*
X1916Y71D02*
X1918Y71D01*
X2055Y71D02*
X2062Y71D01*
X0Y70D02*
X7Y70D01*
X20Y70D02*
X97Y70D01*
X1567Y70D02*
X1568Y70D01*
X1576Y70D02*
X1578Y70D01*
X1585Y70D02*
X1587Y70D01*
X1595Y70D02*
X1597Y70D01*
X1604Y70D02*
X1606Y70D01*
X1614Y70D02*
X1616Y70D01*
X1675Y70D02*
X1678Y70D01*
X1685Y70D02*
X1687Y70D01*
X1695Y70D02*
X1697Y70D01*
X1704Y70D02*
X1706Y70D01*
X1714Y70D02*
X1716Y70D01*
X1785Y70D02*
X1788Y70D01*
X1796Y70D02*
X1798Y70D01*
X1823Y70D02*
X1825Y70D01*
X1873Y70D02*
X1875Y70D01*
X1899Y70D02*
X1901Y70D01*
X1913Y70D02*
X1918Y70D01*
X2055Y70D02*
X2062Y70D01*
X0Y69D02*
X7Y69D01*
X20Y69D02*
X97Y69D01*
X1567Y69D02*
X1569Y69D01*
X1575Y69D02*
X1578Y69D01*
X1585Y69D02*
X1587Y69D01*
X1595Y69D02*
X1597Y69D01*
X1604Y69D02*
X1606Y69D01*
X1613Y69D02*
X1616Y69D01*
X1677Y69D02*
X1678Y69D01*
X1685Y69D02*
X1687Y69D01*
X1695Y69D02*
X1697Y69D01*
X1704Y69D02*
X1706Y69D01*
X1714Y69D02*
X1716Y69D01*
X1775Y69D02*
X1775Y69D01*
X1785Y69D02*
X1788Y69D01*
X1796Y69D02*
X1799Y69D01*
X1823Y69D02*
X1825Y69D01*
X1874Y69D02*
X1875Y69D01*
X1899Y69D02*
X1901Y69D01*
X1913Y69D02*
X1918Y69D01*
X2055Y69D02*
X2062Y69D01*
X0Y68D02*
X7Y68D01*
X20Y68D02*
X97Y68D01*
X417Y68D02*
X442Y68D01*
X469Y68D02*
X496Y68D01*
X1567Y68D02*
X1578Y68D01*
X1585Y68D02*
X1587Y68D01*
X1595Y68D02*
X1597Y68D01*
X1604Y68D02*
X1606Y68D01*
X1612Y68D02*
X1616Y68D01*
X1667Y68D02*
X1667Y68D01*
X1676Y68D02*
X1678Y68D01*
X1685Y68D02*
X1688Y68D01*
X1693Y68D02*
X1697Y68D01*
X1704Y68D02*
X1706Y68D01*
X1713Y68D02*
X1716Y68D01*
X1774Y68D02*
X1777Y68D01*
X1785Y68D02*
X1787Y68D01*
X1797Y68D02*
X1801Y68D01*
X1822Y68D02*
X1825Y68D01*
X1889Y68D02*
X1889Y68D01*
X1899Y68D02*
X1901Y68D01*
X1913Y68D02*
X1917Y68D01*
X2055Y68D02*
X2062Y68D01*
X0Y67D02*
X7Y67D01*
X20Y67D02*
X97Y67D01*
X417Y67D02*
X445Y67D01*
X468Y67D02*
X498Y67D01*
X1568Y67D02*
X1578Y67D01*
X1585Y67D02*
X1587Y67D01*
X1595Y67D02*
X1597Y67D01*
X1605Y67D02*
X1616Y67D01*
X1667Y67D02*
X1678Y67D01*
X1686Y67D02*
X1697Y67D01*
X1704Y67D02*
X1716Y67D01*
X1774Y67D02*
X1787Y67D01*
X1798Y67D02*
X1809Y67D01*
X1818Y67D02*
X1829Y67D01*
X1888Y67D02*
X1901Y67D01*
X1914Y67D02*
X1917Y67D01*
X2055Y67D02*
X2062Y67D01*
X0Y66D02*
X7Y66D01*
X20Y66D02*
X97Y66D01*
X417Y66D02*
X447Y66D01*
X468Y66D02*
X499Y66D01*
X1570Y66D02*
X1574Y66D01*
X1577Y66D02*
X1578Y66D01*
X1585Y66D02*
X1587Y66D01*
X1595Y66D02*
X1597Y66D01*
X1606Y66D02*
X1616Y66D01*
X1667Y66D02*
X1677Y66D01*
X1687Y66D02*
X1697Y66D01*
X1705Y66D02*
X1716Y66D01*
X1775Y66D02*
X1786Y66D01*
X1799Y66D02*
X1809Y66D01*
X1818Y66D02*
X1829Y66D01*
X1889Y66D02*
X1901Y66D01*
X1914Y66D02*
X1917Y66D01*
X2055Y66D02*
X2062Y66D01*
X0Y65D02*
X7Y65D01*
X20Y65D02*
X97Y65D01*
X417Y65D02*
X448Y65D01*
X467Y65D02*
X500Y65D01*
X1577Y65D02*
X1578Y65D01*
X1586Y65D02*
X1586Y65D01*
X1596Y65D02*
X1597Y65D01*
X1607Y65D02*
X1612Y65D01*
X1615Y65D02*
X1615Y65D01*
X1668Y65D02*
X1676Y65D01*
X1688Y65D02*
X1693Y65D01*
X1696Y65D02*
X1697Y65D01*
X1706Y65D02*
X1712Y65D01*
X1715Y65D02*
X1715Y65D01*
X1778Y65D02*
X1784Y65D01*
X1802Y65D02*
X1808Y65D01*
X1819Y65D02*
X1828Y65D01*
X1890Y65D02*
X1900Y65D01*
X1915Y65D02*
X1916Y65D01*
X2055Y65D02*
X2062Y65D01*
X0Y64D02*
X7Y64D01*
X20Y64D02*
X97Y64D01*
X417Y64D02*
X448Y64D01*
X467Y64D02*
X500Y64D01*
X1577Y64D02*
X1578Y64D01*
X2055Y64D02*
X2062Y64D01*
X0Y63D02*
X7Y63D01*
X20Y63D02*
X97Y63D01*
X417Y63D02*
X449Y63D01*
X468Y63D02*
X501Y63D01*
X1576Y63D02*
X1578Y63D01*
X2055Y63D02*
X2062Y63D01*
X0Y62D02*
X7Y62D01*
X20Y62D02*
X97Y62D01*
X417Y62D02*
X450Y62D01*
X469Y62D02*
X501Y62D01*
X1575Y62D02*
X1578Y62D01*
X2055Y62D02*
X2062Y62D01*
X0Y61D02*
X7Y61D01*
X20Y61D02*
X29Y61D01*
X88Y61D02*
X97Y61D01*
X417Y61D02*
X423Y61D01*
X442Y61D02*
X450Y61D01*
X495Y61D02*
X501Y61D01*
X1568Y61D02*
X1577Y61D01*
X2055Y61D02*
X2062Y61D01*
X0Y60D02*
X7Y60D01*
X20Y60D02*
X29Y60D01*
X88Y60D02*
X97Y60D01*
X417Y60D02*
X423Y60D01*
X444Y60D02*
X450Y60D01*
X495Y60D02*
X501Y60D01*
X1568Y60D02*
X1576Y60D01*
X2055Y60D02*
X2062Y60D01*
X0Y59D02*
X7Y59D01*
X20Y59D02*
X29Y59D01*
X88Y59D02*
X97Y59D01*
X417Y59D02*
X423Y59D01*
X444Y59D02*
X451Y59D01*
X495Y59D02*
X501Y59D01*
X2055Y59D02*
X2062Y59D01*
X0Y58D02*
X7Y58D01*
X20Y58D02*
X29Y58D01*
X88Y58D02*
X97Y58D01*
X417Y58D02*
X423Y58D01*
X445Y58D02*
X451Y58D01*
X495Y58D02*
X501Y58D01*
X2055Y58D02*
X2062Y58D01*
X0Y57D02*
X7Y57D01*
X20Y57D02*
X30Y57D01*
X88Y57D02*
X97Y57D01*
X417Y57D02*
X423Y57D01*
X445Y57D02*
X451Y57D01*
X495Y57D02*
X501Y57D01*
X2055Y57D02*
X2062Y57D01*
X0Y56D02*
X7Y56D01*
X20Y56D02*
X30Y56D01*
X88Y56D02*
X97Y56D01*
X417Y56D02*
X423Y56D01*
X445Y56D02*
X451Y56D01*
X495Y56D02*
X501Y56D01*
X2055Y56D02*
X2062Y56D01*
X0Y55D02*
X7Y55D01*
X21Y55D02*
X30Y55D01*
X87Y55D02*
X97Y55D01*
X417Y55D02*
X423Y55D01*
X445Y55D02*
X451Y55D01*
X495Y55D02*
X501Y55D01*
X2055Y55D02*
X2062Y55D01*
X0Y54D02*
X7Y54D01*
X21Y54D02*
X31Y54D01*
X86Y54D02*
X97Y54D01*
X417Y54D02*
X423Y54D01*
X445Y54D02*
X451Y54D01*
X495Y54D02*
X501Y54D01*
X2055Y54D02*
X2062Y54D01*
X0Y53D02*
X7Y53D01*
X21Y53D02*
X33Y53D01*
X84Y53D02*
X96Y53D01*
X417Y53D02*
X423Y53D01*
X444Y53D02*
X451Y53D01*
X495Y53D02*
X501Y53D01*
X2055Y53D02*
X2062Y53D01*
X0Y52D02*
X7Y52D01*
X21Y52D02*
X35Y52D01*
X82Y52D02*
X96Y52D01*
X417Y52D02*
X423Y52D01*
X444Y52D02*
X450Y52D01*
X495Y52D02*
X501Y52D01*
X2055Y52D02*
X2062Y52D01*
X0Y51D02*
X7Y51D01*
X22Y51D02*
X37Y51D01*
X80Y51D02*
X96Y51D01*
X417Y51D02*
X423Y51D01*
X443Y51D02*
X450Y51D01*
X495Y51D02*
X501Y51D01*
X2055Y51D02*
X2062Y51D01*
X0Y50D02*
X7Y50D01*
X22Y50D02*
X39Y50D01*
X78Y50D02*
X95Y50D01*
X417Y50D02*
X450Y50D01*
X495Y50D02*
X501Y50D01*
X2055Y50D02*
X2062Y50D01*
X0Y49D02*
X7Y49D01*
X23Y49D02*
X41Y49D01*
X76Y49D02*
X94Y49D01*
X417Y49D02*
X449Y49D01*
X495Y49D02*
X501Y49D01*
X2055Y49D02*
X2062Y49D01*
X0Y48D02*
X7Y48D01*
X24Y48D02*
X43Y48D01*
X75Y48D02*
X93Y48D01*
X417Y48D02*
X449Y48D01*
X495Y48D02*
X501Y48D01*
X2055Y48D02*
X2062Y48D01*
X0Y47D02*
X7Y47D01*
X25Y47D02*
X45Y47D01*
X73Y47D02*
X92Y47D01*
X417Y47D02*
X448Y47D01*
X495Y47D02*
X501Y47D01*
X2055Y47D02*
X2062Y47D01*
X0Y46D02*
X7Y46D01*
X26Y46D02*
X47Y46D01*
X71Y46D02*
X91Y46D01*
X417Y46D02*
X447Y46D01*
X494Y46D02*
X501Y46D01*
X2055Y46D02*
X2062Y46D01*
X0Y45D02*
X7Y45D01*
X27Y45D02*
X49Y45D01*
X69Y45D02*
X90Y45D01*
X417Y45D02*
X445Y45D01*
X492Y45D02*
X500Y45D01*
X2055Y45D02*
X2062Y45D01*
X0Y44D02*
X7Y44D01*
X29Y44D02*
X51Y44D01*
X67Y44D02*
X88Y44D01*
X417Y44D02*
X443Y44D01*
X476Y44D02*
X500Y44D01*
X2055Y44D02*
X2062Y44D01*
X0Y43D02*
X7Y43D01*
X31Y43D02*
X53Y43D01*
X65Y43D02*
X86Y43D01*
X417Y43D02*
X423Y43D01*
X429Y43D02*
X436Y43D01*
X475Y43D02*
X499Y43D01*
X2055Y43D02*
X2062Y43D01*
X0Y42D02*
X7Y42D01*
X33Y42D02*
X57Y42D01*
X61Y42D02*
X84Y42D01*
X417Y42D02*
X423Y42D01*
X430Y42D02*
X437Y42D01*
X474Y42D02*
X499Y42D01*
X2055Y42D02*
X2062Y42D01*
X0Y41D02*
X7Y41D01*
X35Y41D02*
X82Y41D01*
X417Y41D02*
X423Y41D01*
X430Y41D02*
X438Y41D01*
X474Y41D02*
X498Y41D01*
X2055Y41D02*
X2062Y41D01*
X0Y40D02*
X7Y40D01*
X37Y40D02*
X80Y40D01*
X417Y40D02*
X423Y40D01*
X431Y40D02*
X438Y40D01*
X474Y40D02*
X499Y40D01*
X2055Y40D02*
X2062Y40D01*
X0Y39D02*
X7Y39D01*
X39Y39D02*
X78Y39D01*
X417Y39D02*
X423Y39D01*
X432Y39D02*
X439Y39D01*
X475Y39D02*
X500Y39D01*
X2055Y39D02*
X2062Y39D01*
X0Y38D02*
X7Y38D01*
X41Y38D02*
X76Y38D01*
X417Y38D02*
X423Y38D01*
X432Y38D02*
X439Y38D01*
X476Y38D02*
X500Y38D01*
X2055Y38D02*
X2062Y38D01*
X0Y37D02*
X7Y37D01*
X43Y37D02*
X74Y37D01*
X417Y37D02*
X423Y37D01*
X433Y37D02*
X440Y37D01*
X493Y37D02*
X500Y37D01*
X2055Y37D02*
X2062Y37D01*
X0Y36D02*
X7Y36D01*
X45Y36D02*
X72Y36D01*
X417Y36D02*
X423Y36D01*
X433Y36D02*
X440Y36D01*
X494Y36D02*
X501Y36D01*
X2055Y36D02*
X2062Y36D01*
X0Y35D02*
X7Y35D01*
X47Y35D02*
X70Y35D01*
X417Y35D02*
X423Y35D01*
X434Y35D02*
X441Y35D01*
X495Y35D02*
X501Y35D01*
X2055Y35D02*
X2062Y35D01*
X0Y34D02*
X7Y34D01*
X50Y34D02*
X68Y34D01*
X417Y34D02*
X423Y34D01*
X434Y34D02*
X442Y34D01*
X495Y34D02*
X501Y34D01*
X2055Y34D02*
X2062Y34D01*
X0Y33D02*
X7Y33D01*
X52Y33D02*
X66Y33D01*
X417Y33D02*
X423Y33D01*
X435Y33D02*
X442Y33D01*
X495Y33D02*
X501Y33D01*
X2055Y33D02*
X2062Y33D01*
X0Y32D02*
X7Y32D01*
X56Y32D02*
X61Y32D01*
X417Y32D02*
X423Y32D01*
X436Y32D02*
X443Y32D01*
X495Y32D02*
X501Y32D01*
X2055Y32D02*
X2062Y32D01*
X0Y31D02*
X7Y31D01*
X417Y31D02*
X423Y31D01*
X436Y31D02*
X443Y31D01*
X495Y31D02*
X501Y31D01*
X2055Y31D02*
X2062Y31D01*
X0Y30D02*
X7Y30D01*
X417Y30D02*
X423Y30D01*
X437Y30D02*
X444Y30D01*
X495Y30D02*
X501Y30D01*
X2055Y30D02*
X2062Y30D01*
X0Y29D02*
X7Y29D01*
X417Y29D02*
X423Y29D01*
X437Y29D02*
X445Y29D01*
X495Y29D02*
X501Y29D01*
X2055Y29D02*
X2062Y29D01*
X0Y28D02*
X7Y28D01*
X417Y28D02*
X423Y28D01*
X438Y28D02*
X445Y28D01*
X495Y28D02*
X501Y28D01*
X2055Y28D02*
X2062Y28D01*
X0Y27D02*
X7Y27D01*
X417Y27D02*
X423Y27D01*
X439Y27D02*
X446Y27D01*
X495Y27D02*
X501Y27D01*
X2055Y27D02*
X2062Y27D01*
X0Y26D02*
X7Y26D01*
X417Y26D02*
X423Y26D01*
X439Y26D02*
X446Y26D01*
X495Y26D02*
X501Y26D01*
X2055Y26D02*
X2062Y26D01*
X0Y25D02*
X7Y25D01*
X417Y25D02*
X423Y25D01*
X440Y25D02*
X447Y25D01*
X495Y25D02*
X501Y25D01*
X2055Y25D02*
X2062Y25D01*
X0Y24D02*
X7Y24D01*
X417Y24D02*
X423Y24D01*
X440Y24D02*
X447Y24D01*
X495Y24D02*
X501Y24D01*
X2055Y24D02*
X2062Y24D01*
X0Y23D02*
X7Y23D01*
X417Y23D02*
X423Y23D01*
X441Y23D02*
X448Y23D01*
X495Y23D02*
X501Y23D01*
X2055Y23D02*
X2062Y23D01*
X0Y22D02*
X7Y22D01*
X417Y22D02*
X423Y22D01*
X441Y22D02*
X449Y22D01*
X495Y22D02*
X501Y22D01*
X2055Y22D02*
X2062Y22D01*
X0Y21D02*
X7Y21D01*
X417Y21D02*
X423Y21D01*
X442Y21D02*
X449Y21D01*
X470Y21D02*
X501Y21D01*
X2055Y21D02*
X2062Y21D01*
X0Y20D02*
X7Y20D01*
X417Y20D02*
X423Y20D01*
X443Y20D02*
X450Y20D01*
X468Y20D02*
X501Y20D01*
X2055Y20D02*
X2062Y20D01*
X0Y19D02*
X7Y19D01*
X417Y19D02*
X423Y19D01*
X443Y19D02*
X450Y19D01*
X468Y19D02*
X500Y19D01*
X2055Y19D02*
X2062Y19D01*
X0Y18D02*
X7Y18D01*
X417Y18D02*
X423Y18D01*
X444Y18D02*
X451Y18D01*
X467Y18D02*
X500Y18D01*
X2055Y18D02*
X2062Y18D01*
X0Y17D02*
X7Y17D01*
X417Y17D02*
X423Y17D01*
X444Y17D02*
X451Y17D01*
X467Y17D02*
X499Y17D01*
X2055Y17D02*
X2062Y17D01*
X0Y16D02*
X7Y16D01*
X418Y16D02*
X423Y16D01*
X445Y16D02*
X450Y16D01*
X468Y16D02*
X498Y16D01*
X2055Y16D02*
X2062Y16D01*
X0Y15D02*
X7Y15D01*
X418Y15D02*
X422Y15D01*
X446Y15D02*
X449Y15D01*
X469Y15D02*
X497Y15D01*
X2055Y15D02*
X2062Y15D01*
X0Y14D02*
X7Y14D01*
X2055Y14D02*
X2062Y14D01*
X0Y13D02*
X7Y13D01*
X2055Y13D02*
X2062Y13D01*
X0Y12D02*
X7Y12D01*
X2055Y12D02*
X2062Y12D01*
X0Y11D02*
X7Y11D01*
X2055Y11D02*
X2062Y11D01*
X0Y10D02*
X7Y10D01*
X2055Y10D02*
X2062Y10D01*
X0Y9D02*
X2062Y9D01*
X0Y8D02*
X2062Y8D01*
X0Y7D02*
X2062Y7D01*
X0Y6D02*
X2062Y6D01*
X0Y5D02*
X2062Y5D01*
X0Y4D02*
X2062Y4D01*
X0Y3D02*
X2062Y3D01*
X0Y2D02*
X2062Y2D01*
D02*
G04 End of Silk1*
M02*