G04 MADE WITH FRITZING*
G04 WWW.FRITZING.ORG*
G04 DOUBLE SIDED*
G04 HOLES PLATED*
G04 CONTOUR ON CENTER OF CONTOUR VECTOR*
%ASAXBY*%
%FSLAX23Y23*%
%MOIN*%
%OFA0B0*%
%SFA1.0B1.0*%
%ADD10C,0.080000*%
%ADD11C,0.039370*%
%ADD12C,0.078000*%
%ADD13C,0.075000*%
%ADD14C,0.070000*%
%ADD15C,0.062992*%
%ADD16R,0.080000X0.080000*%
%ADD17R,0.075000X0.075000*%
%ADD18R,0.062992X0.062992*%
%ADD19C,0.024000*%
%ADD20C,0.008000*%
%ADD21C,0.012000*%
%LNCOPPER1*%
G90*
G70*
G54D10*
X202Y323D03*
X202Y185D03*
X689Y608D03*
X889Y608D03*
G54D11*
X1500Y291D03*
G54D12*
X1985Y648D03*
X1885Y648D03*
X1785Y648D03*
X1685Y648D03*
X1585Y648D03*
X1485Y648D03*
X1385Y648D03*
X1285Y648D03*
X1185Y648D03*
X1085Y648D03*
X1985Y648D03*
X1885Y648D03*
X1785Y648D03*
X1685Y648D03*
X1585Y648D03*
X1485Y648D03*
X1385Y648D03*
X1285Y648D03*
X1185Y648D03*
X1085Y648D03*
X1085Y548D03*
X1185Y548D03*
X1285Y548D03*
X1385Y548D03*
X1485Y548D03*
X1585Y548D03*
X1685Y548D03*
X1785Y548D03*
X1885Y548D03*
X1985Y548D03*
G54D13*
X1079Y90D03*
X1079Y390D03*
X1179Y90D03*
X1179Y390D03*
X1279Y90D03*
X1279Y390D03*
X1379Y90D03*
X1379Y390D03*
G54D14*
X1890Y385D03*
X1790Y385D03*
G54D13*
X870Y229D03*
X870Y329D03*
X722Y232D03*
X722Y332D03*
G54D12*
X1892Y148D03*
X1792Y148D03*
X1692Y148D03*
X1592Y148D03*
G54D15*
X113Y579D03*
X212Y579D03*
G54D13*
X565Y131D03*
X465Y131D03*
X565Y287D03*
X465Y287D03*
G54D15*
X365Y580D03*
X463Y580D03*
G54D16*
X202Y323D03*
X689Y608D03*
G54D17*
X1079Y90D03*
G54D18*
X113Y579D03*
X365Y580D03*
G54D19*
X275Y449D02*
X218Y349D01*
D02*
X564Y707D02*
X280Y706D01*
D02*
X280Y706D02*
X275Y449D01*
D02*
X664Y627D02*
X564Y707D01*
D02*
X358Y38D02*
X225Y163D01*
D02*
X1010Y209D02*
X895Y34D01*
D02*
X895Y34D02*
X358Y38D01*
D02*
X1307Y207D02*
X1010Y209D01*
D02*
X1364Y115D02*
X1307Y207D01*
G54D20*
D02*
X1006Y469D02*
X1063Y407D01*
G54D19*
D02*
X1481Y291D02*
X992Y295D01*
D02*
X992Y295D02*
X898Y579D01*
G54D21*
D02*
X1812Y480D02*
X1877Y401D01*
G54D19*
D02*
X425Y382D02*
X373Y554D01*
G54D21*
D02*
X1133Y480D02*
X1812Y480D01*
D02*
X1091Y410D02*
X1133Y480D01*
G54D20*
D02*
X1008Y708D02*
X1006Y469D01*
D02*
X1131Y706D02*
X1008Y708D01*
D02*
X1168Y666D02*
X1131Y706D01*
G54D19*
D02*
X1407Y98D02*
X1563Y140D01*
D02*
X454Y313D02*
X425Y382D01*
D02*
X593Y295D02*
X695Y324D01*
D02*
X565Y160D02*
X565Y259D01*
G54D20*
D02*
X2040Y616D02*
X2006Y636D01*
D02*
X2044Y381D02*
X2040Y616D01*
D02*
X1911Y384D02*
X2044Y381D01*
D02*
X973Y727D02*
X1840Y721D01*
D02*
X1840Y721D02*
X1872Y669D01*
D02*
X980Y455D02*
X973Y727D01*
D02*
X1216Y334D02*
X1027Y334D01*
D02*
X1027Y334D02*
X980Y455D01*
D02*
X1262Y375D02*
X1216Y334D01*
G54D19*
D02*
X1593Y178D02*
X1594Y385D01*
D02*
X1594Y385D02*
X1764Y385D01*
G04 End of Copper1*
M02*