G04 MADE WITH FRITZING*
G04 WWW.FRITZING.ORG*
G04 DOUBLE SIDED*
G04 HOLES PLATED*
G04 CONTOUR ON CENTER OF CONTOUR VECTOR*
%ASAXBY*%
%FSLAX23Y23*%
%MOIN*%
%OFA0B0*%
%SFA1.0B1.0*%
%ADD10C,0.080000*%
%ADD11C,0.039370*%
%ADD12C,0.078000*%
%ADD13C,0.075000*%
%ADD14C,0.070000*%
%ADD15C,0.062992*%
%ADD16R,0.080000X0.080000*%
%ADD17R,0.075000X0.075000*%
%ADD18R,0.062992X0.062992*%
%ADD19C,0.024000*%
%ADD20C,0.008000*%
%ADD21C,0.012000*%
%ADD22R,0.001000X0.001000*%
%LNCOPPER0*%
G90*
G70*
G54D10*
X202Y323D03*
X202Y185D03*
X689Y608D03*
X889Y608D03*
G54D11*
X1500Y291D03*
G54D12*
X1985Y648D03*
X1885Y648D03*
X1785Y648D03*
X1685Y648D03*
X1585Y648D03*
X1485Y648D03*
X1385Y648D03*
X1285Y648D03*
X1185Y648D03*
X1085Y648D03*
X1985Y648D03*
X1885Y648D03*
X1785Y648D03*
X1685Y648D03*
X1585Y648D03*
X1485Y648D03*
X1385Y648D03*
X1285Y648D03*
X1185Y648D03*
X1085Y648D03*
X1085Y548D03*
X1185Y548D03*
X1285Y548D03*
X1385Y548D03*
X1485Y548D03*
X1585Y548D03*
X1685Y548D03*
X1785Y548D03*
X1885Y548D03*
X1985Y548D03*
G54D13*
X1079Y90D03*
X1079Y390D03*
X1179Y90D03*
X1179Y390D03*
X1279Y90D03*
X1279Y390D03*
X1379Y90D03*
X1379Y390D03*
G54D14*
X1890Y385D03*
X1790Y385D03*
G54D13*
X870Y229D03*
X870Y329D03*
X722Y232D03*
X722Y332D03*
G54D12*
X1892Y148D03*
X1792Y148D03*
X1692Y148D03*
X1592Y148D03*
G54D15*
X113Y579D03*
X212Y579D03*
G54D13*
X565Y131D03*
X465Y131D03*
X565Y287D03*
X465Y287D03*
G54D15*
X365Y580D03*
X463Y580D03*
G54D16*
X202Y323D03*
X689Y608D03*
G54D17*
X1079Y90D03*
G54D18*
X113Y579D03*
X365Y580D03*
G54D19*
X368Y206D02*
X315Y406D01*
D02*
X315Y406D02*
X134Y562D01*
D02*
X443Y148D02*
X368Y206D01*
D02*
X1786Y518D02*
X1789Y411D01*
G54D20*
D02*
X2044Y720D02*
X1833Y721D01*
D02*
X1833Y721D02*
X1798Y669D01*
G54D21*
D02*
X362Y454D02*
X1233Y452D01*
D02*
X228Y566D02*
X362Y454D01*
D02*
X576Y484D02*
X1155Y477D01*
D02*
X1155Y477D02*
X1175Y526D01*
D02*
X480Y566D02*
X576Y484D01*
G54D19*
D02*
X1639Y231D02*
X1676Y173D01*
D02*
X1975Y293D02*
X1519Y291D01*
D02*
X1907Y174D02*
X1975Y293D01*
D02*
X841Y329D02*
X751Y331D01*
D02*
X1052Y382D02*
X897Y337D01*
D02*
X737Y208D02*
X809Y92D01*
D02*
X809Y92D02*
X936Y94D01*
D02*
X936Y94D02*
X998Y180D01*
D02*
X998Y180D02*
X1130Y181D01*
D02*
X1130Y181D02*
X1166Y116D01*
D02*
X1777Y122D02*
X1743Y65D01*
D02*
X1743Y65D02*
X1525Y68D01*
D02*
X1460Y169D02*
X1229Y172D01*
D02*
X1525Y68D02*
X1460Y169D01*
D02*
X1229Y172D02*
X1194Y115D01*
D02*
X1127Y307D02*
X1164Y366D01*
D02*
X897Y237D02*
X1127Y307D01*
D02*
X1639Y231D02*
X1239Y238D01*
D02*
X1239Y238D02*
X1189Y364D01*
D02*
X1967Y278D02*
X1907Y174D01*
D02*
X1984Y518D02*
X1977Y314D01*
G54D20*
D02*
X1514Y30D02*
X2044Y31D01*
D02*
X1339Y30D02*
X1514Y30D01*
D02*
X1295Y74D02*
X1339Y30D01*
D02*
X2044Y31D02*
X2044Y720D01*
G54D22*
X1285Y554D02*
X1287Y554D01*
X1281Y553D02*
X1289Y553D01*
X1279Y552D02*
X1290Y552D01*
X1279Y551D02*
X1290Y551D01*
X1279Y550D02*
X1291Y550D01*
X1280Y549D02*
X1291Y549D01*
X1280Y548D02*
X1292Y548D01*
X1281Y547D02*
X1292Y547D01*
X1281Y546D02*
X1292Y546D01*
X1282Y545D02*
X1292Y545D01*
X1283Y544D02*
X1292Y544D01*
X1281Y543D02*
X1292Y543D01*
X1281Y542D02*
X1292Y542D01*
X1281Y541D02*
X1292Y541D01*
X1281Y540D02*
X1292Y540D01*
X1281Y539D02*
X1292Y539D01*
X1280Y538D02*
X1292Y538D01*
X1280Y537D02*
X1291Y537D01*
X1279Y536D02*
X1291Y536D01*
X1279Y535D02*
X1291Y535D01*
X1279Y534D02*
X1290Y534D01*
X1278Y533D02*
X1290Y533D01*
X1278Y532D02*
X1290Y532D01*
X1277Y531D02*
X1289Y531D01*
X1277Y530D02*
X1289Y530D01*
X1276Y529D02*
X1289Y529D01*
X1276Y528D02*
X1288Y528D01*
X1275Y527D02*
X1288Y527D01*
X1275Y526D02*
X1287Y526D01*
X1274Y525D02*
X1287Y525D01*
X1274Y524D02*
X1286Y524D01*
X1273Y523D02*
X1286Y523D01*
X1273Y522D02*
X1285Y522D01*
X1272Y521D02*
X1285Y521D01*
X1272Y520D02*
X1284Y520D01*
X1271Y519D02*
X1284Y519D01*
X1271Y518D02*
X1283Y518D01*
X1270Y517D02*
X1283Y517D01*
X1269Y516D02*
X1282Y516D01*
X1269Y515D02*
X1282Y515D01*
X1268Y514D02*
X1281Y514D01*
X1268Y513D02*
X1281Y513D01*
X1267Y512D02*
X1280Y512D01*
X1266Y511D02*
X1279Y511D01*
X1266Y510D02*
X1279Y510D01*
X1265Y509D02*
X1278Y509D01*
X1265Y508D02*
X1278Y508D01*
X1264Y507D02*
X1277Y507D01*
X1263Y506D02*
X1276Y506D01*
X1263Y505D02*
X1276Y505D01*
X1262Y504D02*
X1275Y504D01*
X1261Y503D02*
X1275Y503D01*
X1261Y502D02*
X1274Y502D01*
X1260Y501D02*
X1273Y501D01*
X1259Y500D02*
X1273Y500D01*
X1259Y499D02*
X1272Y499D01*
X1258Y498D02*
X1271Y498D01*
X1257Y497D02*
X1271Y497D01*
X1257Y496D02*
X1270Y496D01*
X1256Y495D02*
X1269Y495D01*
X1255Y494D02*
X1269Y494D01*
X1255Y493D02*
X1268Y493D01*
X1254Y492D02*
X1267Y492D01*
X1253Y491D02*
X1267Y491D01*
X1253Y490D02*
X1266Y490D01*
X1252Y489D02*
X1265Y489D01*
X1251Y488D02*
X1265Y488D01*
X1251Y487D02*
X1264Y487D01*
X1250Y486D02*
X1263Y486D01*
X1249Y485D02*
X1263Y485D01*
X1249Y484D02*
X1262Y484D01*
X1248Y483D02*
X1261Y483D01*
X1247Y482D02*
X1261Y482D01*
X1246Y481D02*
X1260Y481D01*
X1246Y480D02*
X1259Y480D01*
X1245Y479D02*
X1259Y479D01*
X1244Y478D02*
X1258Y478D01*
X1244Y477D02*
X1257Y477D01*
X1243Y476D02*
X1257Y476D01*
X1242Y475D02*
X1256Y475D01*
X1241Y474D02*
X1255Y474D01*
X1241Y473D02*
X1254Y473D01*
X1240Y472D02*
X1254Y472D01*
X1239Y471D02*
X1253Y471D01*
X1238Y470D02*
X1252Y470D01*
X1238Y469D02*
X1252Y469D01*
X1237Y468D02*
X1251Y468D01*
X1236Y467D02*
X1250Y467D01*
X1235Y466D02*
X1249Y466D01*
X1235Y465D02*
X1249Y465D01*
X1234Y464D02*
X1248Y464D01*
X1233Y463D02*
X1247Y463D01*
X1232Y462D02*
X1246Y462D01*
X1232Y461D02*
X1246Y461D01*
X1231Y460D02*
X1245Y460D01*
X1230Y459D02*
X1244Y459D01*
X1229Y458D02*
X1243Y458D01*
X1229Y457D02*
X1243Y457D01*
X1228Y456D02*
X1242Y456D01*
X1228Y455D02*
X1241Y455D01*
X1227Y454D02*
X1240Y454D01*
X1227Y453D02*
X1240Y453D01*
X1227Y452D02*
X1239Y452D01*
X1228Y451D02*
X1238Y451D01*
X1228Y450D02*
X1237Y450D01*
X1229Y449D02*
X1237Y449D01*
X1230Y448D02*
X1235Y448D01*
X1232Y447D02*
X1233Y447D01*
D02*
G04 End of Copper0*
M02*