; NON-PLATED HOLES START AT T1
; THROUGH (PLATED) HOLES START AT T100
M48
INCH
T100C0.038000
T101C0.040000
T102C0.015748
T103C0.031497
T104C0.030000
T105C0.035000
%
T100
X010848Y006482
X011848Y006482
X013848Y006482
X015848Y006482
X017848Y006482
X012848Y006482
X014848Y006482
X016848Y006482
X018848Y006482
X019848Y006482
X010848Y005482
X017848Y005482
X015848Y005482
X013848Y005482
X011848Y005482
X015924Y001481
X018848Y005482
X016848Y005482
X014848Y005482
X012848Y005482
X016924Y001481
X018924Y001481
X019848Y005482
X017924Y001481
T101
X008885Y006080
X006885Y006080
X002024Y003225
X002024Y001847
T102
X014998Y002905
T103
X001133Y005791
X002117Y005791
X004633Y005799
X003649Y005799
T104
X018900Y003845
X017899Y003845
T105
X007224Y003318
X010790Y000903
X011790Y000903
X008700Y002285
X012790Y000903
X008700Y003285
X013790Y000903
X004652Y002871
X010790Y003903
X011790Y003903
X005652Y002871
X004653Y001309
X012790Y003903
X005653Y001309
X007224Y002318
X013790Y003903
T00
M30
