; NON-PLATED HOLES START AT T1
; THROUGH (PLATED) HOLES START AT T100
M48
INCH
T100C0.031497
T101C0.030000
T102C0.040639
T103C0.015748
T104C0.038000
T105C0.035000
%
T100
X001699Y003431
X001699Y004416
X001564Y002392
X001564Y001408
T101
X018599Y003824
X017597Y003824
T102
X011924Y006695
X013924Y006695
X010924Y006695
X012924Y006695
X014924Y006695
X016924Y006695
X018924Y006695
X015924Y006695
X017924Y006695
X019924Y006695
X003924Y005695
X001924Y005695
X008924Y005695
X006924Y005695
X004924Y005695
X002924Y005695
X000924Y005695
X009924Y005695
X007924Y005695
X005924Y005695
X013924Y005695
X011924Y005695
X018924Y005695
X016924Y005695
X014924Y005695
X012924Y005695
X010924Y005695
X019924Y005695
X017924Y005695
X015924Y005695
X001924Y006695
X003924Y006695
X000924Y006695
X002924Y006695
X004924Y006695
X006924Y006695
X008924Y006695
X005924Y006695
X007924Y006695
X009924Y006695
T103
X020040Y002965
X016215Y003010
T104
X018924Y001481
X017924Y001481
X016924Y001481
X015924Y001481
T105
X011790Y000903
X008722Y001730
X007235Y001652
X012790Y000903
X008722Y002730
X007235Y002652
X013790Y000903
X004652Y002871
X005652Y002871
X010790Y003903
X011790Y003903
X004653Y001309
X012790Y003903
X005653Y001309
X013790Y003903
X010790Y000903
T00
M30
