G04 MADE WITH FRITZING*
G04 WWW.FRITZING.ORG*
G04 DOUBLE SIDED*
G04 HOLES PLATED*
G04 CONTOUR ON CENTER OF CONTOUR VECTOR*
%ASAXBY*%
%FSLAX23Y23*%
%MOIN*%
%OFA0B0*%
%SFA1.0B1.0*%
%ADD10C,0.075000*%
%ADD11C,0.070000*%
%ADD12C,0.078000*%
%ADD13C,0.075361*%
%ADD14C,0.062992*%
%ADD15C,0.039370*%
%ADD16R,0.075000X0.075000*%
%ADD17R,0.062992X0.062992*%
%ADD18C,0.024000*%
%ADD19C,0.012000*%
%LNCOPPER1*%
G90*
G70*
G54D10*
X1079Y90D03*
X1079Y390D03*
X1179Y90D03*
X1179Y390D03*
X1279Y90D03*
X1279Y390D03*
X1379Y90D03*
X1379Y390D03*
G54D11*
X1860Y382D03*
X1760Y382D03*
G54D10*
X872Y173D03*
X872Y273D03*
X724Y165D03*
X724Y265D03*
G54D12*
X1892Y148D03*
X1792Y148D03*
X1692Y148D03*
X1592Y148D03*
G54D13*
X1992Y670D03*
X1892Y670D03*
X1792Y670D03*
X1692Y670D03*
X1592Y670D03*
X1492Y670D03*
X1392Y670D03*
X1292Y670D03*
X1192Y670D03*
X1092Y670D03*
X992Y670D03*
X892Y670D03*
X792Y670D03*
X692Y670D03*
X592Y670D03*
X492Y670D03*
X392Y670D03*
X292Y670D03*
X192Y670D03*
X92Y670D03*
X92Y570D03*
X192Y570D03*
X292Y570D03*
X392Y570D03*
X492Y570D03*
X592Y570D03*
X692Y570D03*
X792Y570D03*
X892Y570D03*
X992Y570D03*
X1092Y570D03*
X1192Y570D03*
X1292Y570D03*
X1392Y570D03*
X1492Y570D03*
X1592Y570D03*
X1692Y570D03*
X1792Y570D03*
X1892Y570D03*
X1992Y570D03*
G54D10*
X565Y131D03*
X465Y131D03*
X565Y287D03*
X465Y287D03*
G54D14*
X170Y343D03*
X170Y442D03*
X156Y141D03*
X156Y239D03*
G54D15*
X2004Y297D03*
X1622Y301D03*
G54D16*
X1079Y90D03*
G54D17*
X170Y343D03*
X156Y141D03*
G54D18*
X594Y283D02*
X695Y269D01*
D02*
X565Y160D02*
X565Y259D01*
D02*
X437Y132D02*
X183Y140D01*
D02*
X437Y293D02*
X196Y338D01*
D02*
X1680Y175D02*
X1630Y284D01*
D02*
X1594Y118D02*
X1596Y81D01*
X1596Y81D02*
X1956Y81D01*
X1956Y81D02*
X2000Y278D01*
G54D19*
D02*
X1140Y514D02*
X1089Y411D01*
D02*
X1146Y625D02*
X1140Y514D01*
D02*
X1174Y652D02*
X1146Y625D01*
D02*
X1442Y493D02*
X1444Y721D01*
D02*
X1444Y721D02*
X1847Y721D01*
D02*
X1331Y479D02*
X1442Y493D01*
D02*
X1847Y721D02*
X1876Y689D01*
D02*
X1291Y410D02*
X1331Y479D01*
D02*
X1301Y199D02*
X1740Y510D01*
D02*
X1740Y510D02*
X1746Y625D01*
D02*
X1285Y118D02*
X1301Y199D01*
D02*
X1746Y625D02*
X1774Y652D01*
G54D18*
D02*
X1985Y539D02*
X1899Y177D01*
G54D19*
D02*
X1947Y625D02*
X1970Y647D01*
D02*
X1870Y400D02*
X1940Y521D01*
D02*
X1940Y521D02*
X1947Y625D01*
G04 End of Copper1*
M02*