G04 MADE WITH FRITZING*
G04 WWW.FRITZING.ORG*
G04 DOUBLE SIDED*
G04 HOLES PLATED*
G04 CONTOUR ON CENTER OF CONTOUR VECTOR*
%ASAXBY*%
%FSLAX23Y23*%
%MOIN*%
%OFA0B0*%
%SFA1.0B1.0*%
%ADD10C,0.075361*%
%ADD11C,0.075000*%
%ADD12C,0.070000*%
%ADD13C,0.078000*%
%ADD14C,0.062992*%
%ADD15C,0.039370*%
%ADD16R,0.075000X0.075000*%
%ADD17R,0.062992X0.062992*%
%ADD18C,0.024000*%
%ADD19C,0.012000*%
%LNCOPPER0*%
G90*
G70*
G54D10*
X1987Y655D03*
X1887Y655D03*
X1787Y655D03*
X1687Y655D03*
X1587Y655D03*
X1487Y655D03*
X1387Y655D03*
X1287Y655D03*
X1187Y655D03*
X1087Y655D03*
X987Y655D03*
X887Y655D03*
X787Y655D03*
X687Y655D03*
X587Y655D03*
X487Y655D03*
X387Y655D03*
X287Y655D03*
X187Y655D03*
X87Y655D03*
X87Y555D03*
X187Y555D03*
X287Y555D03*
X387Y555D03*
X487Y555D03*
X587Y555D03*
X687Y555D03*
X787Y555D03*
X887Y555D03*
X987Y555D03*
X1087Y555D03*
X1187Y555D03*
X1287Y555D03*
X1387Y555D03*
X1487Y555D03*
X1587Y555D03*
X1687Y555D03*
X1787Y555D03*
X1887Y555D03*
X1987Y555D03*
G54D11*
X1079Y90D03*
X1079Y390D03*
X1179Y90D03*
X1179Y390D03*
X1279Y90D03*
X1279Y390D03*
X1379Y90D03*
X1379Y390D03*
G54D12*
X1860Y382D03*
X1760Y382D03*
G54D11*
X872Y173D03*
X872Y273D03*
X724Y165D03*
X724Y265D03*
G54D13*
X1892Y148D03*
X1792Y148D03*
X1692Y148D03*
X1592Y148D03*
G54D14*
X156Y141D03*
X156Y239D03*
G54D11*
X565Y131D03*
X465Y131D03*
X565Y287D03*
X465Y287D03*
G54D14*
X170Y343D03*
X170Y442D03*
G54D15*
X1686Y277D03*
X1607Y340D03*
X1988Y471D03*
G54D16*
X1079Y90D03*
G54D17*
X156Y141D03*
X170Y343D03*
G54D18*
X844Y272D02*
X752Y267D01*
D02*
X1054Y376D02*
X897Y287D01*
D02*
X745Y147D02*
X809Y92D01*
D02*
X809Y92D02*
X936Y94D01*
D02*
X936Y94D02*
X1036Y194D01*
D02*
X1036Y194D02*
X1116Y205D01*
D02*
X1116Y205D02*
X1165Y115D01*
D02*
X1775Y173D02*
X1740Y225D01*
X1740Y225D02*
X1524Y225D01*
X1524Y225D02*
X1231Y220D01*
D02*
X1231Y220D02*
X1190Y117D01*
G54D19*
D02*
X191Y444D02*
X544Y484D01*
D02*
X544Y484D02*
X1175Y497D01*
D02*
X1175Y497D02*
X1182Y529D01*
G54D18*
D02*
X1127Y307D02*
X1164Y366D01*
D02*
X898Y186D02*
X1127Y307D01*
G54D19*
D02*
X175Y249D02*
X536Y442D01*
D02*
X536Y442D02*
X1218Y466D01*
D02*
X1218Y466D02*
X1271Y534D01*
G54D18*
D02*
X1782Y524D02*
X1764Y408D01*
D02*
X1407Y98D02*
X1563Y140D01*
D02*
X1667Y277D02*
X1220Y273D01*
D02*
X1220Y273D02*
X1188Y363D01*
D02*
X1983Y453D02*
X1901Y177D01*
G04 End of Copper0*
M02*