G04 MADE WITH FRITZING*
G04 WWW.FRITZING.ORG*
G04 DOUBLE SIDED*
G04 HOLES PLATED*
G04 CONTOUR ON CENTER OF CONTOUR VECTOR*
%ASAXBY*%
%FSLAX23Y23*%
%MOIN*%
%OFA0B0*%
%SFA1.0B1.0*%
%ADD10C,0.010000*%
%ADD11R,0.001000X0.001000*%
%LNSILK1*%
G90*
G70*
G54D10*
X1029Y40D02*
X1429Y40D01*
D02*
X1429Y40D02*
X1429Y440D01*
D02*
X1429Y440D02*
X1029Y440D01*
D02*
X1029Y40D02*
X1029Y190D01*
D02*
X1029Y290D02*
X1029Y440D01*
D02*
X1942Y198D02*
X1542Y198D01*
D02*
X1542Y198D02*
X1542Y98D01*
D02*
X1542Y98D02*
X1942Y98D01*
D02*
X1942Y98D02*
X1942Y198D01*
G54D11*
X0Y741D02*
X2062Y741D01*
X0Y740D02*
X2062Y740D01*
X0Y739D02*
X2062Y739D01*
X0Y738D02*
X2062Y738D01*
X0Y737D02*
X2062Y737D01*
X0Y736D02*
X2062Y736D01*
X0Y735D02*
X2062Y735D01*
X0Y734D02*
X2062Y734D01*
X0Y733D02*
X7Y733D01*
X2055Y733D02*
X2062Y733D01*
X0Y732D02*
X7Y732D01*
X2055Y732D02*
X2062Y732D01*
X0Y731D02*
X7Y731D01*
X2055Y731D02*
X2062Y731D01*
X0Y730D02*
X7Y730D01*
X2055Y730D02*
X2062Y730D01*
X0Y729D02*
X7Y729D01*
X2055Y729D02*
X2062Y729D01*
X0Y728D02*
X7Y728D01*
X2055Y728D02*
X2062Y728D01*
X0Y727D02*
X7Y727D01*
X2055Y727D02*
X2062Y727D01*
X0Y726D02*
X7Y726D01*
X2055Y726D02*
X2062Y726D01*
X0Y725D02*
X7Y725D01*
X2055Y725D02*
X2062Y725D01*
X0Y724D02*
X7Y724D01*
X2055Y724D02*
X2062Y724D01*
X0Y723D02*
X7Y723D01*
X2055Y723D02*
X2062Y723D01*
X0Y722D02*
X7Y722D01*
X2055Y722D02*
X2062Y722D01*
X0Y721D02*
X7Y721D01*
X2055Y721D02*
X2062Y721D01*
X0Y720D02*
X7Y720D01*
X2055Y720D02*
X2062Y720D01*
X0Y719D02*
X7Y719D01*
X2055Y719D02*
X2062Y719D01*
X0Y718D02*
X7Y718D01*
X2055Y718D02*
X2062Y718D01*
X0Y717D02*
X7Y717D01*
X2055Y717D02*
X2062Y717D01*
X0Y716D02*
X7Y716D01*
X2055Y716D02*
X2062Y716D01*
X0Y715D02*
X7Y715D01*
X2055Y715D02*
X2062Y715D01*
X0Y714D02*
X7Y714D01*
X2055Y714D02*
X2062Y714D01*
X0Y713D02*
X7Y713D01*
X2055Y713D02*
X2062Y713D01*
X0Y712D02*
X7Y712D01*
X2055Y712D02*
X2062Y712D01*
X0Y711D02*
X7Y711D01*
X2055Y711D02*
X2062Y711D01*
X0Y710D02*
X7Y710D01*
X2055Y710D02*
X2062Y710D01*
X0Y709D02*
X7Y709D01*
X2055Y709D02*
X2062Y709D01*
X0Y708D02*
X7Y708D01*
X2055Y708D02*
X2062Y708D01*
X0Y707D02*
X7Y707D01*
X2055Y707D02*
X2062Y707D01*
X0Y706D02*
X7Y706D01*
X2055Y706D02*
X2062Y706D01*
X0Y705D02*
X7Y705D01*
X2055Y705D02*
X2062Y705D01*
X0Y704D02*
X7Y704D01*
X2055Y704D02*
X2062Y704D01*
X0Y703D02*
X7Y703D01*
X2055Y703D02*
X2062Y703D01*
X0Y702D02*
X7Y702D01*
X2055Y702D02*
X2062Y702D01*
X0Y701D02*
X7Y701D01*
X2055Y701D02*
X2062Y701D01*
X0Y700D02*
X7Y700D01*
X2055Y700D02*
X2062Y700D01*
X0Y699D02*
X7Y699D01*
X2055Y699D02*
X2062Y699D01*
X0Y698D02*
X7Y698D01*
X2055Y698D02*
X2062Y698D01*
X0Y697D02*
X7Y697D01*
X2055Y697D02*
X2062Y697D01*
X0Y696D02*
X7Y696D01*
X2055Y696D02*
X2062Y696D01*
X0Y695D02*
X7Y695D01*
X2055Y695D02*
X2062Y695D01*
X0Y694D02*
X7Y694D01*
X2055Y694D02*
X2062Y694D01*
X0Y693D02*
X7Y693D01*
X2055Y693D02*
X2062Y693D01*
X0Y692D02*
X7Y692D01*
X2055Y692D02*
X2062Y692D01*
X0Y691D02*
X7Y691D01*
X2055Y691D02*
X2062Y691D01*
X0Y690D02*
X7Y690D01*
X2055Y690D02*
X2062Y690D01*
X0Y689D02*
X7Y689D01*
X2055Y689D02*
X2062Y689D01*
X0Y688D02*
X7Y688D01*
X2055Y688D02*
X2062Y688D01*
X0Y687D02*
X7Y687D01*
X2055Y687D02*
X2062Y687D01*
X0Y686D02*
X7Y686D01*
X2055Y686D02*
X2062Y686D01*
X0Y685D02*
X7Y685D01*
X2055Y685D02*
X2062Y685D01*
X0Y684D02*
X7Y684D01*
X2055Y684D02*
X2062Y684D01*
X0Y683D02*
X7Y683D01*
X2055Y683D02*
X2062Y683D01*
X0Y682D02*
X7Y682D01*
X2055Y682D02*
X2062Y682D01*
X0Y681D02*
X7Y681D01*
X2055Y681D02*
X2062Y681D01*
X0Y680D02*
X7Y680D01*
X2055Y680D02*
X2062Y680D01*
X0Y679D02*
X7Y679D01*
X2055Y679D02*
X2062Y679D01*
X0Y678D02*
X7Y678D01*
X2055Y678D02*
X2062Y678D01*
X0Y677D02*
X7Y677D01*
X2055Y677D02*
X2062Y677D01*
X0Y676D02*
X7Y676D01*
X2055Y676D02*
X2062Y676D01*
X0Y675D02*
X7Y675D01*
X2055Y675D02*
X2062Y675D01*
X0Y674D02*
X7Y674D01*
X2055Y674D02*
X2062Y674D01*
X0Y673D02*
X7Y673D01*
X2055Y673D02*
X2062Y673D01*
X0Y672D02*
X7Y672D01*
X2055Y672D02*
X2062Y672D01*
X0Y671D02*
X7Y671D01*
X2055Y671D02*
X2062Y671D01*
X0Y670D02*
X7Y670D01*
X2055Y670D02*
X2062Y670D01*
X0Y669D02*
X7Y669D01*
X2055Y669D02*
X2062Y669D01*
X0Y668D02*
X7Y668D01*
X2055Y668D02*
X2062Y668D01*
X0Y667D02*
X7Y667D01*
X2055Y667D02*
X2062Y667D01*
X0Y666D02*
X7Y666D01*
X2055Y666D02*
X2062Y666D01*
X0Y665D02*
X7Y665D01*
X2055Y665D02*
X2062Y665D01*
X0Y664D02*
X7Y664D01*
X2055Y664D02*
X2062Y664D01*
X0Y663D02*
X7Y663D01*
X2055Y663D02*
X2062Y663D01*
X0Y662D02*
X7Y662D01*
X2055Y662D02*
X2062Y662D01*
X0Y661D02*
X7Y661D01*
X2055Y661D02*
X2062Y661D01*
X0Y660D02*
X7Y660D01*
X2055Y660D02*
X2062Y660D01*
X0Y659D02*
X7Y659D01*
X2055Y659D02*
X2062Y659D01*
X0Y658D02*
X7Y658D01*
X2055Y658D02*
X2062Y658D01*
X0Y657D02*
X7Y657D01*
X2055Y657D02*
X2062Y657D01*
X0Y656D02*
X7Y656D01*
X2055Y656D02*
X2062Y656D01*
X0Y655D02*
X7Y655D01*
X2055Y655D02*
X2062Y655D01*
X0Y654D02*
X7Y654D01*
X2055Y654D02*
X2062Y654D01*
X0Y653D02*
X7Y653D01*
X2055Y653D02*
X2062Y653D01*
X0Y652D02*
X7Y652D01*
X2055Y652D02*
X2062Y652D01*
X0Y651D02*
X7Y651D01*
X2055Y651D02*
X2062Y651D01*
X0Y650D02*
X7Y650D01*
X2055Y650D02*
X2062Y650D01*
X0Y649D02*
X7Y649D01*
X2055Y649D02*
X2062Y649D01*
X0Y648D02*
X7Y648D01*
X2055Y648D02*
X2062Y648D01*
X0Y647D02*
X7Y647D01*
X2055Y647D02*
X2062Y647D01*
X0Y646D02*
X7Y646D01*
X2055Y646D02*
X2062Y646D01*
X0Y645D02*
X7Y645D01*
X2055Y645D02*
X2062Y645D01*
X0Y644D02*
X7Y644D01*
X2055Y644D02*
X2062Y644D01*
X0Y643D02*
X7Y643D01*
X2055Y643D02*
X2062Y643D01*
X0Y642D02*
X7Y642D01*
X2055Y642D02*
X2062Y642D01*
X0Y641D02*
X7Y641D01*
X2055Y641D02*
X2062Y641D01*
X0Y640D02*
X7Y640D01*
X2055Y640D02*
X2062Y640D01*
X0Y639D02*
X7Y639D01*
X2055Y639D02*
X2062Y639D01*
X0Y638D02*
X7Y638D01*
X2055Y638D02*
X2062Y638D01*
X0Y637D02*
X7Y637D01*
X2055Y637D02*
X2062Y637D01*
X0Y636D02*
X7Y636D01*
X2055Y636D02*
X2062Y636D01*
X0Y635D02*
X7Y635D01*
X2055Y635D02*
X2062Y635D01*
X0Y634D02*
X7Y634D01*
X2055Y634D02*
X2062Y634D01*
X0Y633D02*
X7Y633D01*
X2055Y633D02*
X2062Y633D01*
X0Y632D02*
X7Y632D01*
X2055Y632D02*
X2062Y632D01*
X0Y631D02*
X7Y631D01*
X2055Y631D02*
X2062Y631D01*
X0Y630D02*
X7Y630D01*
X2055Y630D02*
X2062Y630D01*
X0Y629D02*
X7Y629D01*
X2055Y629D02*
X2062Y629D01*
X0Y628D02*
X7Y628D01*
X2055Y628D02*
X2062Y628D01*
X0Y627D02*
X7Y627D01*
X2055Y627D02*
X2062Y627D01*
X0Y626D02*
X7Y626D01*
X2055Y626D02*
X2062Y626D01*
X0Y625D02*
X7Y625D01*
X2055Y625D02*
X2062Y625D01*
X0Y624D02*
X7Y624D01*
X2055Y624D02*
X2062Y624D01*
X0Y623D02*
X7Y623D01*
X2055Y623D02*
X2062Y623D01*
X0Y622D02*
X7Y622D01*
X2055Y622D02*
X2062Y622D01*
X0Y621D02*
X7Y621D01*
X2055Y621D02*
X2062Y621D01*
X0Y620D02*
X7Y620D01*
X2055Y620D02*
X2062Y620D01*
X0Y619D02*
X7Y619D01*
X2055Y619D02*
X2062Y619D01*
X0Y618D02*
X7Y618D01*
X2055Y618D02*
X2062Y618D01*
X0Y617D02*
X7Y617D01*
X2055Y617D02*
X2062Y617D01*
X0Y616D02*
X7Y616D01*
X2055Y616D02*
X2062Y616D01*
X0Y615D02*
X7Y615D01*
X2055Y615D02*
X2062Y615D01*
X0Y614D02*
X7Y614D01*
X2055Y614D02*
X2062Y614D01*
X0Y613D02*
X7Y613D01*
X2055Y613D02*
X2062Y613D01*
X0Y612D02*
X7Y612D01*
X2055Y612D02*
X2062Y612D01*
X0Y611D02*
X7Y611D01*
X2055Y611D02*
X2062Y611D01*
X0Y610D02*
X7Y610D01*
X2055Y610D02*
X2062Y610D01*
X0Y609D02*
X7Y609D01*
X2055Y609D02*
X2062Y609D01*
X0Y608D02*
X7Y608D01*
X2055Y608D02*
X2062Y608D01*
X0Y607D02*
X7Y607D01*
X2055Y607D02*
X2062Y607D01*
X0Y606D02*
X7Y606D01*
X2055Y606D02*
X2062Y606D01*
X0Y605D02*
X7Y605D01*
X2055Y605D02*
X2062Y605D01*
X0Y604D02*
X7Y604D01*
X2055Y604D02*
X2062Y604D01*
X0Y603D02*
X7Y603D01*
X2055Y603D02*
X2062Y603D01*
X0Y602D02*
X7Y602D01*
X2055Y602D02*
X2062Y602D01*
X0Y601D02*
X7Y601D01*
X2055Y601D02*
X2062Y601D01*
X0Y600D02*
X7Y600D01*
X2055Y600D02*
X2062Y600D01*
X0Y599D02*
X7Y599D01*
X2055Y599D02*
X2062Y599D01*
X0Y598D02*
X7Y598D01*
X2055Y598D02*
X2062Y598D01*
X0Y597D02*
X7Y597D01*
X2055Y597D02*
X2062Y597D01*
X0Y596D02*
X7Y596D01*
X2055Y596D02*
X2062Y596D01*
X0Y595D02*
X7Y595D01*
X2055Y595D02*
X2062Y595D01*
X0Y594D02*
X7Y594D01*
X2055Y594D02*
X2062Y594D01*
X0Y593D02*
X7Y593D01*
X2055Y593D02*
X2062Y593D01*
X0Y592D02*
X7Y592D01*
X2055Y592D02*
X2062Y592D01*
X0Y591D02*
X7Y591D01*
X2055Y591D02*
X2062Y591D01*
X0Y590D02*
X7Y590D01*
X2055Y590D02*
X2062Y590D01*
X0Y589D02*
X7Y589D01*
X2055Y589D02*
X2062Y589D01*
X0Y588D02*
X7Y588D01*
X2055Y588D02*
X2062Y588D01*
X0Y587D02*
X7Y587D01*
X2055Y587D02*
X2062Y587D01*
X0Y586D02*
X7Y586D01*
X2055Y586D02*
X2062Y586D01*
X0Y585D02*
X7Y585D01*
X2055Y585D02*
X2062Y585D01*
X0Y584D02*
X7Y584D01*
X2055Y584D02*
X2062Y584D01*
X0Y583D02*
X7Y583D01*
X2055Y583D02*
X2062Y583D01*
X0Y582D02*
X7Y582D01*
X2055Y582D02*
X2062Y582D01*
X0Y581D02*
X7Y581D01*
X2055Y581D02*
X2062Y581D01*
X0Y580D02*
X7Y580D01*
X2055Y580D02*
X2062Y580D01*
X0Y579D02*
X7Y579D01*
X2055Y579D02*
X2062Y579D01*
X0Y578D02*
X7Y578D01*
X2055Y578D02*
X2062Y578D01*
X0Y577D02*
X7Y577D01*
X2055Y577D02*
X2062Y577D01*
X0Y576D02*
X7Y576D01*
X2055Y576D02*
X2062Y576D01*
X0Y575D02*
X7Y575D01*
X2055Y575D02*
X2062Y575D01*
X0Y574D02*
X7Y574D01*
X2055Y574D02*
X2062Y574D01*
X0Y573D02*
X7Y573D01*
X2055Y573D02*
X2062Y573D01*
X0Y572D02*
X7Y572D01*
X2055Y572D02*
X2062Y572D01*
X0Y571D02*
X7Y571D01*
X2055Y571D02*
X2062Y571D01*
X0Y570D02*
X7Y570D01*
X2055Y570D02*
X2062Y570D01*
X0Y569D02*
X7Y569D01*
X2055Y569D02*
X2062Y569D01*
X0Y568D02*
X7Y568D01*
X2055Y568D02*
X2062Y568D01*
X0Y567D02*
X7Y567D01*
X2055Y567D02*
X2062Y567D01*
X0Y566D02*
X7Y566D01*
X2055Y566D02*
X2062Y566D01*
X0Y565D02*
X7Y565D01*
X2055Y565D02*
X2062Y565D01*
X0Y564D02*
X7Y564D01*
X2055Y564D02*
X2062Y564D01*
X0Y563D02*
X7Y563D01*
X2055Y563D02*
X2062Y563D01*
X0Y562D02*
X7Y562D01*
X2055Y562D02*
X2062Y562D01*
X0Y561D02*
X7Y561D01*
X2055Y561D02*
X2062Y561D01*
X0Y560D02*
X7Y560D01*
X2055Y560D02*
X2062Y560D01*
X0Y559D02*
X7Y559D01*
X2055Y559D02*
X2062Y559D01*
X0Y558D02*
X7Y558D01*
X2055Y558D02*
X2062Y558D01*
X0Y557D02*
X7Y557D01*
X2055Y557D02*
X2062Y557D01*
X0Y556D02*
X7Y556D01*
X2055Y556D02*
X2062Y556D01*
X0Y555D02*
X7Y555D01*
X2055Y555D02*
X2062Y555D01*
X0Y554D02*
X7Y554D01*
X2055Y554D02*
X2062Y554D01*
X0Y553D02*
X7Y553D01*
X2055Y553D02*
X2062Y553D01*
X0Y552D02*
X7Y552D01*
X2055Y552D02*
X2062Y552D01*
X0Y551D02*
X7Y551D01*
X2055Y551D02*
X2062Y551D01*
X0Y550D02*
X7Y550D01*
X2055Y550D02*
X2062Y550D01*
X0Y549D02*
X7Y549D01*
X2055Y549D02*
X2062Y549D01*
X0Y548D02*
X7Y548D01*
X2055Y548D02*
X2062Y548D01*
X0Y547D02*
X7Y547D01*
X2055Y547D02*
X2062Y547D01*
X0Y546D02*
X7Y546D01*
X2055Y546D02*
X2062Y546D01*
X0Y545D02*
X7Y545D01*
X2055Y545D02*
X2062Y545D01*
X0Y544D02*
X7Y544D01*
X2055Y544D02*
X2062Y544D01*
X0Y543D02*
X7Y543D01*
X2055Y543D02*
X2062Y543D01*
X0Y542D02*
X7Y542D01*
X2055Y542D02*
X2062Y542D01*
X0Y541D02*
X7Y541D01*
X2055Y541D02*
X2062Y541D01*
X0Y540D02*
X7Y540D01*
X2055Y540D02*
X2062Y540D01*
X0Y539D02*
X7Y539D01*
X2055Y539D02*
X2062Y539D01*
X0Y538D02*
X7Y538D01*
X2055Y538D02*
X2062Y538D01*
X0Y537D02*
X7Y537D01*
X2055Y537D02*
X2062Y537D01*
X0Y536D02*
X7Y536D01*
X2055Y536D02*
X2062Y536D01*
X0Y535D02*
X7Y535D01*
X2055Y535D02*
X2062Y535D01*
X0Y534D02*
X7Y534D01*
X2055Y534D02*
X2062Y534D01*
X0Y533D02*
X7Y533D01*
X2055Y533D02*
X2062Y533D01*
X0Y532D02*
X7Y532D01*
X2055Y532D02*
X2062Y532D01*
X0Y531D02*
X7Y531D01*
X2055Y531D02*
X2062Y531D01*
X0Y530D02*
X7Y530D01*
X2055Y530D02*
X2062Y530D01*
X0Y529D02*
X7Y529D01*
X2055Y529D02*
X2062Y529D01*
X0Y528D02*
X7Y528D01*
X2055Y528D02*
X2062Y528D01*
X0Y527D02*
X7Y527D01*
X2055Y527D02*
X2062Y527D01*
X0Y526D02*
X7Y526D01*
X2055Y526D02*
X2062Y526D01*
X0Y525D02*
X7Y525D01*
X2055Y525D02*
X2062Y525D01*
X0Y524D02*
X7Y524D01*
X2055Y524D02*
X2062Y524D01*
X0Y523D02*
X7Y523D01*
X2055Y523D02*
X2062Y523D01*
X0Y522D02*
X7Y522D01*
X2055Y522D02*
X2062Y522D01*
X0Y521D02*
X7Y521D01*
X2055Y521D02*
X2062Y521D01*
X0Y520D02*
X7Y520D01*
X2055Y520D02*
X2062Y520D01*
X0Y519D02*
X7Y519D01*
X2055Y519D02*
X2062Y519D01*
X0Y518D02*
X7Y518D01*
X2055Y518D02*
X2062Y518D01*
X0Y517D02*
X7Y517D01*
X2055Y517D02*
X2062Y517D01*
X0Y516D02*
X7Y516D01*
X2055Y516D02*
X2062Y516D01*
X0Y515D02*
X7Y515D01*
X338Y515D02*
X344Y515D01*
X2055Y515D02*
X2062Y515D01*
X0Y514D02*
X7Y514D01*
X337Y514D02*
X345Y514D01*
X2055Y514D02*
X2062Y514D01*
X0Y513D02*
X7Y513D01*
X336Y513D02*
X346Y513D01*
X2055Y513D02*
X2062Y513D01*
X0Y512D02*
X7Y512D01*
X226Y512D02*
X253Y512D01*
X276Y512D02*
X303Y512D01*
X336Y512D02*
X346Y512D01*
X440Y512D02*
X459Y512D01*
X982Y512D02*
X1008Y512D01*
X1080Y512D02*
X1099Y512D01*
X2055Y512D02*
X2062Y512D01*
X0Y511D02*
X7Y511D01*
X226Y511D02*
X254Y511D01*
X276Y511D02*
X305Y511D01*
X336Y511D02*
X346Y511D01*
X438Y511D02*
X459Y511D01*
X981Y511D02*
X1010Y511D01*
X1079Y511D02*
X1099Y511D01*
X2055Y511D02*
X2062Y511D01*
X0Y510D02*
X7Y510D01*
X226Y510D02*
X256Y510D01*
X276Y510D02*
X306Y510D01*
X336Y510D02*
X346Y510D01*
X437Y510D02*
X460Y510D01*
X980Y510D02*
X1011Y510D01*
X1079Y510D02*
X1099Y510D01*
X2055Y510D02*
X2062Y510D01*
X0Y509D02*
X7Y509D01*
X226Y509D02*
X257Y509D01*
X276Y509D02*
X307Y509D01*
X336Y509D02*
X346Y509D01*
X436Y509D02*
X460Y509D01*
X736Y509D02*
X739Y509D01*
X979Y509D02*
X1011Y509D01*
X1079Y509D02*
X1099Y509D01*
X2055Y509D02*
X2062Y509D01*
X0Y508D02*
X7Y508D01*
X226Y508D02*
X257Y508D01*
X276Y508D02*
X308Y508D01*
X337Y508D02*
X345Y508D01*
X436Y508D02*
X460Y508D01*
X735Y508D02*
X740Y508D01*
X979Y508D02*
X1012Y508D01*
X1079Y508D02*
X1099Y508D01*
X2055Y508D02*
X2062Y508D01*
X0Y507D02*
X7Y507D01*
X226Y507D02*
X258Y507D01*
X276Y507D02*
X308Y507D01*
X337Y507D02*
X345Y507D01*
X435Y507D02*
X459Y507D01*
X735Y507D02*
X740Y507D01*
X979Y507D02*
X1012Y507D01*
X1080Y507D02*
X1099Y507D01*
X2055Y507D02*
X2062Y507D01*
X0Y506D02*
X7Y506D01*
X226Y506D02*
X258Y506D01*
X276Y506D02*
X309Y506D01*
X339Y506D02*
X343Y506D01*
X434Y506D02*
X457Y506D01*
X734Y506D02*
X740Y506D01*
X979Y506D02*
X1012Y506D01*
X1082Y506D02*
X1099Y506D01*
X2055Y506D02*
X2062Y506D01*
X0Y505D02*
X7Y505D01*
X226Y505D02*
X232Y505D01*
X252Y505D02*
X259Y505D01*
X276Y505D02*
X282Y505D01*
X302Y505D02*
X309Y505D01*
X434Y505D02*
X441Y505D01*
X734Y505D02*
X740Y505D01*
X979Y505D02*
X985Y505D01*
X1006Y505D02*
X1012Y505D01*
X1093Y505D02*
X1099Y505D01*
X2055Y505D02*
X2062Y505D01*
X0Y504D02*
X7Y504D01*
X226Y504D02*
X232Y504D01*
X253Y504D02*
X259Y504D01*
X276Y504D02*
X282Y504D01*
X303Y504D02*
X309Y504D01*
X433Y504D02*
X440Y504D01*
X734Y504D02*
X740Y504D01*
X979Y504D02*
X985Y504D01*
X1006Y504D02*
X1012Y504D01*
X1093Y504D02*
X1099Y504D01*
X2055Y504D02*
X2062Y504D01*
X0Y503D02*
X7Y503D01*
X226Y503D02*
X232Y503D01*
X253Y503D02*
X259Y503D01*
X276Y503D02*
X282Y503D01*
X303Y503D02*
X309Y503D01*
X433Y503D02*
X440Y503D01*
X734Y503D02*
X740Y503D01*
X979Y503D02*
X985Y503D01*
X1006Y503D02*
X1012Y503D01*
X1093Y503D02*
X1099Y503D01*
X2055Y503D02*
X2062Y503D01*
X0Y502D02*
X7Y502D01*
X226Y502D02*
X232Y502D01*
X253Y502D02*
X259Y502D01*
X276Y502D02*
X282Y502D01*
X303Y502D02*
X309Y502D01*
X432Y502D02*
X439Y502D01*
X734Y502D02*
X740Y502D01*
X979Y502D02*
X985Y502D01*
X1006Y502D02*
X1012Y502D01*
X1093Y502D02*
X1099Y502D01*
X2055Y502D02*
X2062Y502D01*
X0Y501D02*
X7Y501D01*
X226Y501D02*
X232Y501D01*
X253Y501D02*
X259Y501D01*
X276Y501D02*
X282Y501D01*
X303Y501D02*
X309Y501D01*
X432Y501D02*
X439Y501D01*
X734Y501D02*
X740Y501D01*
X979Y501D02*
X985Y501D01*
X1006Y501D02*
X1012Y501D01*
X1093Y501D02*
X1099Y501D01*
X2055Y501D02*
X2062Y501D01*
X0Y500D02*
X7Y500D01*
X226Y500D02*
X232Y500D01*
X253Y500D02*
X259Y500D01*
X276Y500D02*
X282Y500D01*
X303Y500D02*
X309Y500D01*
X431Y500D02*
X438Y500D01*
X734Y500D02*
X740Y500D01*
X979Y500D02*
X985Y500D01*
X1006Y500D02*
X1012Y500D01*
X1093Y500D02*
X1099Y500D01*
X2055Y500D02*
X2062Y500D01*
X0Y499D02*
X7Y499D01*
X226Y499D02*
X232Y499D01*
X253Y499D02*
X259Y499D01*
X276Y499D02*
X282Y499D01*
X303Y499D02*
X309Y499D01*
X431Y499D02*
X438Y499D01*
X734Y499D02*
X740Y499D01*
X979Y499D02*
X985Y499D01*
X1006Y499D02*
X1012Y499D01*
X1093Y499D02*
X1099Y499D01*
X2055Y499D02*
X2062Y499D01*
X0Y498D02*
X7Y498D01*
X226Y498D02*
X232Y498D01*
X253Y498D02*
X259Y498D01*
X276Y498D02*
X282Y498D01*
X303Y498D02*
X309Y498D01*
X332Y498D02*
X343Y498D01*
X430Y498D02*
X437Y498D01*
X488Y498D02*
X499Y498D01*
X529Y498D02*
X530Y498D01*
X544Y498D02*
X551Y498D01*
X579Y498D02*
X580Y498D01*
X594Y498D02*
X601Y498D01*
X638Y498D02*
X650Y498D01*
X692Y498D02*
X708Y498D01*
X730Y498D02*
X755Y498D01*
X789Y498D02*
X800Y498D01*
X830Y498D02*
X831Y498D01*
X844Y498D02*
X853Y498D01*
X931Y498D02*
X932Y498D01*
X958Y498D02*
X959Y498D01*
X979Y498D02*
X985Y498D01*
X1006Y498D02*
X1012Y498D01*
X1093Y498D02*
X1099Y498D01*
X2055Y498D02*
X2062Y498D01*
X0Y497D02*
X7Y497D01*
X226Y497D02*
X232Y497D01*
X253Y497D02*
X259Y497D01*
X276Y497D02*
X282Y497D01*
X303Y497D02*
X309Y497D01*
X330Y497D02*
X345Y497D01*
X430Y497D02*
X437Y497D01*
X485Y497D02*
X502Y497D01*
X528Y497D02*
X532Y497D01*
X541Y497D02*
X554Y497D01*
X578Y497D02*
X582Y497D01*
X592Y497D02*
X604Y497D01*
X635Y497D02*
X653Y497D01*
X689Y497D02*
X710Y497D01*
X728Y497D02*
X757Y497D01*
X786Y497D02*
X803Y497D01*
X829Y497D02*
X833Y497D01*
X842Y497D02*
X856Y497D01*
X929Y497D02*
X933Y497D01*
X957Y497D02*
X961Y497D01*
X979Y497D02*
X985Y497D01*
X1006Y497D02*
X1012Y497D01*
X1093Y497D02*
X1099Y497D01*
X2055Y497D02*
X2062Y497D01*
X0Y496D02*
X7Y496D01*
X226Y496D02*
X232Y496D01*
X252Y496D02*
X259Y496D01*
X276Y496D02*
X282Y496D01*
X303Y496D02*
X309Y496D01*
X330Y496D02*
X345Y496D01*
X429Y496D02*
X436Y496D01*
X483Y496D02*
X503Y496D01*
X527Y496D02*
X532Y496D01*
X540Y496D02*
X555Y496D01*
X577Y496D02*
X583Y496D01*
X590Y496D02*
X606Y496D01*
X634Y496D02*
X654Y496D01*
X687Y496D02*
X711Y496D01*
X728Y496D02*
X757Y496D01*
X784Y496D02*
X805Y496D01*
X828Y496D02*
X834Y496D01*
X841Y496D02*
X857Y496D01*
X929Y496D02*
X934Y496D01*
X956Y496D02*
X962Y496D01*
X979Y496D02*
X985Y496D01*
X1006Y496D02*
X1012Y496D01*
X1093Y496D02*
X1099Y496D01*
X2055Y496D02*
X2062Y496D01*
X0Y495D02*
X7Y495D01*
X226Y495D02*
X258Y495D01*
X276Y495D02*
X282Y495D01*
X303Y495D02*
X309Y495D01*
X329Y495D02*
X346Y495D01*
X429Y495D02*
X436Y495D01*
X482Y495D02*
X505Y495D01*
X527Y495D02*
X533Y495D01*
X538Y495D02*
X556Y495D01*
X577Y495D02*
X583Y495D01*
X588Y495D02*
X607Y495D01*
X633Y495D02*
X655Y495D01*
X686Y495D02*
X711Y495D01*
X728Y495D02*
X757Y495D01*
X783Y495D02*
X806Y495D01*
X828Y495D02*
X834Y495D01*
X840Y495D02*
X858Y495D01*
X928Y495D02*
X934Y495D01*
X956Y495D02*
X962Y495D01*
X979Y495D02*
X985Y495D01*
X1006Y495D02*
X1012Y495D01*
X1093Y495D02*
X1099Y495D01*
X2055Y495D02*
X2062Y495D01*
X0Y494D02*
X7Y494D01*
X226Y494D02*
X258Y494D01*
X276Y494D02*
X282Y494D01*
X303Y494D02*
X309Y494D01*
X329Y494D02*
X346Y494D01*
X429Y494D02*
X435Y494D01*
X481Y494D02*
X506Y494D01*
X527Y494D02*
X533Y494D01*
X536Y494D02*
X557Y494D01*
X577Y494D02*
X583Y494D01*
X587Y494D02*
X608Y494D01*
X631Y494D02*
X657Y494D01*
X685Y494D02*
X711Y494D01*
X728Y494D02*
X757Y494D01*
X782Y494D02*
X807Y494D01*
X828Y494D02*
X834Y494D01*
X839Y494D02*
X859Y494D01*
X928Y494D02*
X934Y494D01*
X956Y494D02*
X962Y494D01*
X979Y494D02*
X985Y494D01*
X1006Y494D02*
X1012Y494D01*
X1093Y494D02*
X1099Y494D01*
X2055Y494D02*
X2062Y494D01*
X0Y493D02*
X7Y493D01*
X226Y493D02*
X257Y493D01*
X276Y493D02*
X282Y493D01*
X303Y493D02*
X309Y493D01*
X330Y493D02*
X346Y493D01*
X428Y493D02*
X435Y493D01*
X480Y493D02*
X507Y493D01*
X527Y493D02*
X533Y493D01*
X535Y493D02*
X558Y493D01*
X577Y493D02*
X583Y493D01*
X585Y493D02*
X608Y493D01*
X630Y493D02*
X658Y493D01*
X684Y493D02*
X710Y493D01*
X728Y493D02*
X757Y493D01*
X781Y493D02*
X808Y493D01*
X828Y493D02*
X834Y493D01*
X838Y493D02*
X860Y493D01*
X928Y493D02*
X934Y493D01*
X956Y493D02*
X962Y493D01*
X979Y493D02*
X985Y493D01*
X1006Y493D02*
X1012Y493D01*
X1093Y493D02*
X1099Y493D01*
X2055Y493D02*
X2062Y493D01*
X0Y492D02*
X7Y492D01*
X226Y492D02*
X257Y492D01*
X276Y492D02*
X282Y492D01*
X303Y492D02*
X309Y492D01*
X331Y492D02*
X346Y492D01*
X428Y492D02*
X434Y492D01*
X479Y492D02*
X508Y492D01*
X527Y492D02*
X559Y492D01*
X577Y492D02*
X609Y492D01*
X629Y492D02*
X658Y492D01*
X683Y492D02*
X710Y492D01*
X729Y492D02*
X756Y492D01*
X780Y492D02*
X809Y492D01*
X828Y492D02*
X834Y492D01*
X837Y492D02*
X861Y492D01*
X928Y492D02*
X934Y492D01*
X956Y492D02*
X962Y492D01*
X979Y492D02*
X985Y492D01*
X1006Y492D02*
X1012Y492D01*
X1093Y492D02*
X1099Y492D01*
X2055Y492D02*
X2062Y492D01*
X0Y491D02*
X7Y491D01*
X226Y491D02*
X256Y491D01*
X276Y491D02*
X282Y491D01*
X303Y491D02*
X309Y491D01*
X340Y491D02*
X346Y491D01*
X427Y491D02*
X434Y491D01*
X478Y491D02*
X487Y491D01*
X499Y491D02*
X509Y491D01*
X527Y491D02*
X544Y491D01*
X551Y491D02*
X559Y491D01*
X577Y491D02*
X594Y491D01*
X601Y491D02*
X609Y491D01*
X629Y491D02*
X638Y491D01*
X649Y491D02*
X659Y491D01*
X681Y491D02*
X692Y491D01*
X734Y491D02*
X741Y491D01*
X779Y491D02*
X789Y491D01*
X800Y491D02*
X810Y491D01*
X828Y491D02*
X845Y491D01*
X853Y491D02*
X861Y491D01*
X928Y491D02*
X934Y491D01*
X956Y491D02*
X962Y491D01*
X979Y491D02*
X985Y491D01*
X1006Y491D02*
X1012Y491D01*
X1093Y491D02*
X1099Y491D01*
X2055Y491D02*
X2062Y491D01*
X0Y490D02*
X7Y490D01*
X226Y490D02*
X254Y490D01*
X276Y490D02*
X282Y490D01*
X303Y490D02*
X309Y490D01*
X340Y490D02*
X346Y490D01*
X427Y490D02*
X433Y490D01*
X478Y490D02*
X486Y490D01*
X501Y490D02*
X509Y490D01*
X527Y490D02*
X542Y490D01*
X552Y490D02*
X559Y490D01*
X577Y490D02*
X592Y490D01*
X603Y490D02*
X609Y490D01*
X628Y490D02*
X636Y490D01*
X652Y490D02*
X660Y490D01*
X680Y490D02*
X690Y490D01*
X734Y490D02*
X740Y490D01*
X779Y490D02*
X787Y490D01*
X802Y490D02*
X810Y490D01*
X828Y490D02*
X844Y490D01*
X855Y490D02*
X861Y490D01*
X928Y490D02*
X934Y490D01*
X956Y490D02*
X962Y490D01*
X979Y490D02*
X985Y490D01*
X1006Y490D02*
X1012Y490D01*
X1093Y490D02*
X1099Y490D01*
X2055Y490D02*
X2062Y490D01*
X0Y489D02*
X7Y489D01*
X226Y489D02*
X253Y489D01*
X276Y489D02*
X282Y489D01*
X303Y489D02*
X309Y489D01*
X340Y489D02*
X346Y489D01*
X427Y489D02*
X433Y489D01*
X477Y489D02*
X485Y489D01*
X502Y489D02*
X510Y489D01*
X527Y489D02*
X541Y489D01*
X553Y489D02*
X559Y489D01*
X577Y489D02*
X591Y489D01*
X603Y489D02*
X609Y489D01*
X628Y489D02*
X635Y489D01*
X653Y489D02*
X660Y489D01*
X679Y489D02*
X689Y489D01*
X734Y489D02*
X740Y489D01*
X778Y489D02*
X786Y489D01*
X803Y489D02*
X811Y489D01*
X828Y489D02*
X843Y489D01*
X855Y489D02*
X861Y489D01*
X928Y489D02*
X935Y489D01*
X956Y489D02*
X962Y489D01*
X979Y489D02*
X985Y489D01*
X1006Y489D02*
X1012Y489D01*
X1093Y489D02*
X1099Y489D01*
X2055Y489D02*
X2062Y489D01*
X0Y488D02*
X7Y488D01*
X226Y488D02*
X232Y488D01*
X237Y488D02*
X245Y488D01*
X276Y488D02*
X282Y488D01*
X303Y488D02*
X309Y488D01*
X340Y488D02*
X346Y488D01*
X426Y488D02*
X433Y488D01*
X477Y488D02*
X484Y488D01*
X503Y488D02*
X510Y488D01*
X527Y488D02*
X539Y488D01*
X553Y488D02*
X559Y488D01*
X577Y488D02*
X589Y488D01*
X604Y488D02*
X610Y488D01*
X627Y488D02*
X634Y488D01*
X654Y488D02*
X660Y488D01*
X679Y488D02*
X688Y488D01*
X734Y488D02*
X740Y488D01*
X778Y488D02*
X785Y488D01*
X804Y488D02*
X811Y488D01*
X828Y488D02*
X842Y488D01*
X855Y488D02*
X861Y488D01*
X928Y488D02*
X935Y488D01*
X955Y488D02*
X962Y488D01*
X979Y488D02*
X985Y488D01*
X1006Y488D02*
X1012Y488D01*
X1093Y488D02*
X1099Y488D01*
X2055Y488D02*
X2062Y488D01*
X0Y487D02*
X7Y487D01*
X226Y487D02*
X232Y487D01*
X238Y487D02*
X245Y487D01*
X276Y487D02*
X282Y487D01*
X302Y487D02*
X309Y487D01*
X340Y487D02*
X346Y487D01*
X426Y487D02*
X432Y487D01*
X477Y487D02*
X483Y487D01*
X504Y487D02*
X510Y487D01*
X527Y487D02*
X538Y487D01*
X553Y487D02*
X559Y487D01*
X577Y487D02*
X588Y487D01*
X604Y487D02*
X610Y487D01*
X627Y487D02*
X633Y487D01*
X654Y487D02*
X661Y487D01*
X678Y487D02*
X687Y487D01*
X734Y487D02*
X740Y487D01*
X778Y487D02*
X784Y487D01*
X805Y487D02*
X811Y487D01*
X828Y487D02*
X841Y487D01*
X855Y487D02*
X862Y487D01*
X929Y487D02*
X935Y487D01*
X955Y487D02*
X961Y487D01*
X979Y487D02*
X985Y487D01*
X1006Y487D02*
X1012Y487D01*
X1093Y487D02*
X1099Y487D01*
X2055Y487D02*
X2062Y487D01*
X0Y486D02*
X7Y486D01*
X226Y486D02*
X232Y486D01*
X239Y486D02*
X246Y486D01*
X276Y486D02*
X309Y486D01*
X340Y486D02*
X346Y486D01*
X426Y486D02*
X432Y486D01*
X477Y486D02*
X483Y486D01*
X504Y486D02*
X510Y486D01*
X527Y486D02*
X536Y486D01*
X553Y486D02*
X559Y486D01*
X577Y486D02*
X586Y486D01*
X604Y486D02*
X610Y486D01*
X627Y486D02*
X633Y486D01*
X655Y486D02*
X661Y486D01*
X678Y486D02*
X685Y486D01*
X734Y486D02*
X740Y486D01*
X778Y486D02*
X784Y486D01*
X805Y486D02*
X811Y486D01*
X828Y486D02*
X839Y486D01*
X855Y486D02*
X861Y486D01*
X929Y486D02*
X936Y486D01*
X954Y486D02*
X961Y486D01*
X979Y486D02*
X985Y486D01*
X1006Y486D02*
X1012Y486D01*
X1093Y486D02*
X1099Y486D01*
X2055Y486D02*
X2062Y486D01*
X0Y485D02*
X7Y485D01*
X226Y485D02*
X232Y485D01*
X239Y485D02*
X246Y485D01*
X276Y485D02*
X308Y485D01*
X340Y485D02*
X346Y485D01*
X426Y485D02*
X432Y485D01*
X477Y485D02*
X483Y485D01*
X504Y485D02*
X510Y485D01*
X527Y485D02*
X534Y485D01*
X553Y485D02*
X560Y485D01*
X577Y485D02*
X585Y485D01*
X604Y485D02*
X610Y485D01*
X627Y485D02*
X633Y485D01*
X655Y485D02*
X661Y485D01*
X678Y485D02*
X684Y485D01*
X734Y485D02*
X740Y485D01*
X778Y485D02*
X784Y485D01*
X805Y485D02*
X811Y485D01*
X828Y485D02*
X838Y485D01*
X856Y485D02*
X861Y485D01*
X930Y485D02*
X936Y485D01*
X954Y485D02*
X961Y485D01*
X979Y485D02*
X985Y485D01*
X1006Y485D02*
X1012Y485D01*
X1093Y485D02*
X1099Y485D01*
X2055Y485D02*
X2062Y485D01*
X0Y484D02*
X7Y484D01*
X226Y484D02*
X232Y484D01*
X240Y484D02*
X247Y484D01*
X276Y484D02*
X307Y484D01*
X340Y484D02*
X346Y484D01*
X426Y484D02*
X433Y484D01*
X477Y484D02*
X483Y484D01*
X504Y484D02*
X510Y484D01*
X527Y484D02*
X533Y484D01*
X554Y484D02*
X560Y484D01*
X577Y484D02*
X583Y484D01*
X604Y484D02*
X610Y484D01*
X627Y484D02*
X633Y484D01*
X655Y484D02*
X661Y484D01*
X677Y484D02*
X684Y484D01*
X734Y484D02*
X740Y484D01*
X778Y484D02*
X784Y484D01*
X805Y484D02*
X811Y484D01*
X828Y484D02*
X837Y484D01*
X856Y484D02*
X861Y484D01*
X930Y484D02*
X937Y484D01*
X953Y484D02*
X960Y484D01*
X979Y484D02*
X985Y484D01*
X1006Y484D02*
X1012Y484D01*
X1093Y484D02*
X1099Y484D01*
X2055Y484D02*
X2062Y484D01*
X0Y483D02*
X7Y483D01*
X29Y483D02*
X48Y483D01*
X73Y483D02*
X74Y483D01*
X226Y483D02*
X232Y483D01*
X240Y483D02*
X248Y483D01*
X276Y483D02*
X307Y483D01*
X340Y483D02*
X346Y483D01*
X427Y483D02*
X433Y483D01*
X477Y483D02*
X483Y483D01*
X504Y483D02*
X510Y483D01*
X527Y483D02*
X533Y483D01*
X554Y483D02*
X560Y483D01*
X577Y483D02*
X583Y483D01*
X604Y483D02*
X610Y483D01*
X627Y483D02*
X633Y483D01*
X655Y483D02*
X661Y483D01*
X677Y483D02*
X683Y483D01*
X734Y483D02*
X740Y483D01*
X778Y483D02*
X784Y483D01*
X805Y483D02*
X811Y483D01*
X828Y483D02*
X836Y483D01*
X857Y483D02*
X860Y483D01*
X930Y483D02*
X937Y483D01*
X953Y483D02*
X960Y483D01*
X979Y483D02*
X985Y483D01*
X1006Y483D02*
X1012Y483D01*
X1093Y483D02*
X1099Y483D01*
X1108Y483D02*
X1111Y483D01*
X2055Y483D02*
X2062Y483D01*
X0Y482D02*
X7Y482D01*
X26Y482D02*
X50Y482D01*
X71Y482D02*
X75Y482D01*
X226Y482D02*
X232Y482D01*
X241Y482D02*
X248Y482D01*
X276Y482D02*
X306Y482D01*
X340Y482D02*
X346Y482D01*
X427Y482D02*
X433Y482D01*
X477Y482D02*
X483Y482D01*
X504Y482D02*
X510Y482D01*
X527Y482D02*
X533Y482D01*
X554Y482D02*
X560Y482D01*
X577Y482D02*
X583Y482D01*
X604Y482D02*
X610Y482D01*
X627Y482D02*
X633Y482D01*
X655Y482D02*
X661Y482D01*
X677Y482D02*
X683Y482D01*
X734Y482D02*
X740Y482D01*
X778Y482D02*
X784Y482D01*
X805Y482D02*
X811Y482D01*
X828Y482D02*
X835Y482D01*
X931Y482D02*
X938Y482D01*
X953Y482D02*
X959Y482D01*
X979Y482D02*
X985Y482D01*
X1006Y482D02*
X1012Y482D01*
X1093Y482D02*
X1099Y482D01*
X1107Y482D02*
X1112Y482D01*
X2055Y482D02*
X2062Y482D01*
X0Y481D02*
X7Y481D01*
X25Y481D02*
X51Y481D01*
X71Y481D02*
X76Y481D01*
X226Y481D02*
X232Y481D01*
X242Y481D02*
X249Y481D01*
X276Y481D02*
X304Y481D01*
X340Y481D02*
X346Y481D01*
X427Y481D02*
X434Y481D01*
X477Y481D02*
X483Y481D01*
X504Y481D02*
X510Y481D01*
X527Y481D02*
X533Y481D01*
X554Y481D02*
X560Y481D01*
X577Y481D02*
X583Y481D01*
X604Y481D02*
X610Y481D01*
X627Y481D02*
X633Y481D01*
X655Y481D02*
X661Y481D01*
X677Y481D02*
X683Y481D01*
X734Y481D02*
X740Y481D01*
X778Y481D02*
X784Y481D01*
X805Y481D02*
X811Y481D01*
X828Y481D02*
X834Y481D01*
X931Y481D02*
X938Y481D01*
X952Y481D02*
X959Y481D01*
X979Y481D02*
X985Y481D01*
X1006Y481D02*
X1012Y481D01*
X1093Y481D02*
X1099Y481D01*
X1107Y481D02*
X1112Y481D01*
X2055Y481D02*
X2062Y481D01*
X0Y480D02*
X7Y480D01*
X24Y480D02*
X52Y480D01*
X70Y480D02*
X76Y480D01*
X226Y480D02*
X232Y480D01*
X242Y480D02*
X249Y480D01*
X276Y480D02*
X302Y480D01*
X340Y480D02*
X346Y480D01*
X428Y480D02*
X434Y480D01*
X477Y480D02*
X483Y480D01*
X504Y480D02*
X510Y480D01*
X527Y480D02*
X533Y480D01*
X554Y480D02*
X560Y480D01*
X577Y480D02*
X583Y480D01*
X604Y480D02*
X610Y480D01*
X627Y480D02*
X661Y480D01*
X677Y480D02*
X683Y480D01*
X734Y480D02*
X740Y480D01*
X778Y480D02*
X784Y480D01*
X805Y480D02*
X811Y480D01*
X828Y480D02*
X834Y480D01*
X932Y480D02*
X938Y480D01*
X952Y480D02*
X958Y480D01*
X979Y480D02*
X985Y480D01*
X1006Y480D02*
X1012Y480D01*
X1041Y480D02*
X1050Y480D01*
X1093Y480D02*
X1099Y480D01*
X1107Y480D02*
X1112Y480D01*
X2055Y480D02*
X2062Y480D01*
X0Y479D02*
X7Y479D01*
X24Y479D02*
X52Y479D01*
X70Y479D02*
X76Y479D01*
X226Y479D02*
X232Y479D01*
X243Y479D02*
X250Y479D01*
X276Y479D02*
X282Y479D01*
X340Y479D02*
X346Y479D01*
X428Y479D02*
X435Y479D01*
X477Y479D02*
X483Y479D01*
X504Y479D02*
X510Y479D01*
X527Y479D02*
X533Y479D01*
X554Y479D02*
X560Y479D01*
X577Y479D02*
X583Y479D01*
X604Y479D02*
X610Y479D01*
X627Y479D02*
X661Y479D01*
X677Y479D02*
X683Y479D01*
X734Y479D02*
X740Y479D01*
X778Y479D02*
X784Y479D01*
X805Y479D02*
X811Y479D01*
X828Y479D02*
X834Y479D01*
X932Y479D02*
X939Y479D01*
X951Y479D02*
X958Y479D01*
X979Y479D02*
X985Y479D01*
X1006Y479D02*
X1012Y479D01*
X1040Y479D02*
X1051Y479D01*
X1093Y479D02*
X1099Y479D01*
X1106Y479D02*
X1113Y479D01*
X2055Y479D02*
X2062Y479D01*
X0Y478D02*
X7Y478D01*
X24Y478D02*
X53Y478D01*
X70Y478D02*
X76Y478D01*
X226Y478D02*
X232Y478D01*
X243Y478D02*
X250Y478D01*
X276Y478D02*
X282Y478D01*
X340Y478D02*
X346Y478D01*
X428Y478D02*
X435Y478D01*
X477Y478D02*
X483Y478D01*
X504Y478D02*
X510Y478D01*
X527Y478D02*
X533Y478D01*
X554Y478D02*
X560Y478D01*
X577Y478D02*
X583Y478D01*
X604Y478D02*
X610Y478D01*
X627Y478D02*
X661Y478D01*
X677Y478D02*
X683Y478D01*
X734Y478D02*
X740Y478D01*
X778Y478D02*
X784Y478D01*
X805Y478D02*
X811Y478D01*
X828Y478D02*
X834Y478D01*
X933Y478D02*
X939Y478D01*
X951Y478D02*
X957Y478D01*
X979Y478D02*
X985Y478D01*
X1006Y478D02*
X1012Y478D01*
X1039Y478D02*
X1052Y478D01*
X1093Y478D02*
X1099Y478D01*
X1106Y478D02*
X1113Y478D01*
X2055Y478D02*
X2062Y478D01*
X0Y477D02*
X7Y477D01*
X23Y477D02*
X53Y477D01*
X70Y477D02*
X76Y477D01*
X226Y477D02*
X232Y477D01*
X244Y477D02*
X251Y477D01*
X276Y477D02*
X282Y477D01*
X340Y477D02*
X346Y477D01*
X429Y477D02*
X436Y477D01*
X477Y477D02*
X483Y477D01*
X504Y477D02*
X510Y477D01*
X527Y477D02*
X533Y477D01*
X554Y477D02*
X560Y477D01*
X577Y477D02*
X583Y477D01*
X604Y477D02*
X610Y477D01*
X627Y477D02*
X661Y477D01*
X677Y477D02*
X683Y477D01*
X734Y477D02*
X740Y477D01*
X778Y477D02*
X784Y477D01*
X805Y477D02*
X811Y477D01*
X828Y477D02*
X834Y477D01*
X933Y477D02*
X940Y477D01*
X950Y477D02*
X957Y477D01*
X979Y477D02*
X985Y477D01*
X1006Y477D02*
X1012Y477D01*
X1039Y477D02*
X1052Y477D01*
X1093Y477D02*
X1099Y477D01*
X1106Y477D02*
X1113Y477D01*
X2055Y477D02*
X2062Y477D01*
X0Y476D02*
X7Y476D01*
X23Y476D02*
X29Y476D01*
X47Y476D02*
X53Y476D01*
X70Y476D02*
X76Y476D01*
X226Y476D02*
X232Y476D01*
X244Y476D02*
X252Y476D01*
X276Y476D02*
X282Y476D01*
X340Y476D02*
X346Y476D01*
X429Y476D02*
X436Y476D01*
X477Y476D02*
X483Y476D01*
X504Y476D02*
X510Y476D01*
X527Y476D02*
X533Y476D01*
X554Y476D02*
X560Y476D01*
X577Y476D02*
X583Y476D01*
X604Y476D02*
X610Y476D01*
X627Y476D02*
X661Y476D01*
X677Y476D02*
X683Y476D01*
X734Y476D02*
X740Y476D01*
X778Y476D02*
X784Y476D01*
X805Y476D02*
X811Y476D01*
X828Y476D02*
X834Y476D01*
X934Y476D02*
X940Y476D01*
X950Y476D02*
X957Y476D01*
X979Y476D02*
X985Y476D01*
X1006Y476D02*
X1012Y476D01*
X1039Y476D02*
X1052Y476D01*
X1093Y476D02*
X1099Y476D01*
X1106Y476D02*
X1113Y476D01*
X2055Y476D02*
X2062Y476D01*
X0Y475D02*
X7Y475D01*
X23Y475D02*
X29Y475D01*
X47Y475D02*
X53Y475D01*
X70Y475D02*
X76Y475D01*
X226Y475D02*
X232Y475D01*
X245Y475D02*
X252Y475D01*
X276Y475D02*
X282Y475D01*
X340Y475D02*
X346Y475D01*
X430Y475D02*
X437Y475D01*
X477Y475D02*
X483Y475D01*
X504Y475D02*
X510Y475D01*
X527Y475D02*
X533Y475D01*
X554Y475D02*
X560Y475D01*
X577Y475D02*
X583Y475D01*
X604Y475D02*
X610Y475D01*
X627Y475D02*
X660Y475D01*
X677Y475D02*
X683Y475D01*
X734Y475D02*
X740Y475D01*
X778Y475D02*
X784Y475D01*
X805Y475D02*
X811Y475D01*
X828Y475D02*
X834Y475D01*
X934Y475D02*
X941Y475D01*
X950Y475D02*
X956Y475D01*
X979Y475D02*
X985Y475D01*
X1006Y475D02*
X1012Y475D01*
X1039Y475D02*
X1052Y475D01*
X1093Y475D02*
X1099Y475D01*
X1106Y475D02*
X1113Y475D01*
X2055Y475D02*
X2062Y475D01*
X0Y474D02*
X7Y474D01*
X23Y474D02*
X29Y474D01*
X47Y474D02*
X53Y474D01*
X70Y474D02*
X76Y474D01*
X226Y474D02*
X232Y474D01*
X246Y474D02*
X253Y474D01*
X276Y474D02*
X282Y474D01*
X340Y474D02*
X346Y474D01*
X430Y474D02*
X437Y474D01*
X477Y474D02*
X483Y474D01*
X504Y474D02*
X510Y474D01*
X527Y474D02*
X533Y474D01*
X554Y474D02*
X560Y474D01*
X577Y474D02*
X583Y474D01*
X604Y474D02*
X610Y474D01*
X627Y474D02*
X659Y474D01*
X677Y474D02*
X683Y474D01*
X734Y474D02*
X740Y474D01*
X778Y474D02*
X784Y474D01*
X805Y474D02*
X811Y474D01*
X828Y474D02*
X834Y474D01*
X934Y474D02*
X941Y474D01*
X949Y474D02*
X956Y474D01*
X979Y474D02*
X985Y474D01*
X1006Y474D02*
X1012Y474D01*
X1039Y474D02*
X1052Y474D01*
X1093Y474D02*
X1099Y474D01*
X1106Y474D02*
X1113Y474D01*
X2055Y474D02*
X2062Y474D01*
X0Y473D02*
X7Y473D01*
X23Y473D02*
X29Y473D01*
X47Y473D02*
X53Y473D01*
X70Y473D02*
X76Y473D01*
X226Y473D02*
X232Y473D01*
X246Y473D02*
X253Y473D01*
X276Y473D02*
X282Y473D01*
X340Y473D02*
X346Y473D01*
X431Y473D02*
X438Y473D01*
X477Y473D02*
X483Y473D01*
X504Y473D02*
X510Y473D01*
X527Y473D02*
X533Y473D01*
X554Y473D02*
X560Y473D01*
X577Y473D02*
X583Y473D01*
X604Y473D02*
X610Y473D01*
X627Y473D02*
X633Y473D01*
X677Y473D02*
X684Y473D01*
X734Y473D02*
X740Y473D01*
X778Y473D02*
X784Y473D01*
X805Y473D02*
X811Y473D01*
X828Y473D02*
X834Y473D01*
X935Y473D02*
X941Y473D01*
X949Y473D02*
X955Y473D01*
X979Y473D02*
X985Y473D01*
X1006Y473D02*
X1012Y473D01*
X1039Y473D02*
X1052Y473D01*
X1093Y473D02*
X1099Y473D01*
X1106Y473D02*
X1113Y473D01*
X2055Y473D02*
X2062Y473D01*
X0Y472D02*
X7Y472D01*
X23Y472D02*
X29Y472D01*
X47Y472D02*
X53Y472D01*
X70Y472D02*
X76Y472D01*
X226Y472D02*
X232Y472D01*
X247Y472D02*
X254Y472D01*
X276Y472D02*
X282Y472D01*
X340Y472D02*
X346Y472D01*
X431Y472D02*
X438Y472D01*
X477Y472D02*
X483Y472D01*
X504Y472D02*
X510Y472D01*
X527Y472D02*
X533Y472D01*
X554Y472D02*
X560Y472D01*
X577Y472D02*
X583Y472D01*
X604Y472D02*
X610Y472D01*
X627Y472D02*
X633Y472D01*
X678Y472D02*
X684Y472D01*
X734Y472D02*
X740Y472D01*
X778Y472D02*
X784Y472D01*
X805Y472D02*
X811Y472D01*
X828Y472D02*
X834Y472D01*
X935Y472D02*
X942Y472D01*
X948Y472D02*
X955Y472D01*
X979Y472D02*
X985Y472D01*
X1006Y472D02*
X1012Y472D01*
X1039Y472D02*
X1052Y472D01*
X1093Y472D02*
X1099Y472D01*
X1106Y472D02*
X1113Y472D01*
X2055Y472D02*
X2062Y472D01*
X0Y471D02*
X7Y471D01*
X23Y471D02*
X29Y471D01*
X47Y471D02*
X53Y471D01*
X70Y471D02*
X76Y471D01*
X226Y471D02*
X232Y471D01*
X247Y471D02*
X255Y471D01*
X276Y471D02*
X282Y471D01*
X340Y471D02*
X346Y471D01*
X432Y471D02*
X439Y471D01*
X477Y471D02*
X483Y471D01*
X504Y471D02*
X510Y471D01*
X527Y471D02*
X533Y471D01*
X554Y471D02*
X560Y471D01*
X577Y471D02*
X583Y471D01*
X604Y471D02*
X610Y471D01*
X627Y471D02*
X633Y471D01*
X678Y471D02*
X685Y471D01*
X734Y471D02*
X740Y471D01*
X757Y471D02*
X760Y471D01*
X778Y471D02*
X784Y471D01*
X805Y471D02*
X811Y471D01*
X828Y471D02*
X834Y471D01*
X936Y471D02*
X942Y471D01*
X948Y471D02*
X954Y471D01*
X979Y471D02*
X985Y471D01*
X1006Y471D02*
X1012Y471D01*
X1039Y471D02*
X1052Y471D01*
X1093Y471D02*
X1099Y471D01*
X1106Y471D02*
X1113Y471D01*
X2055Y471D02*
X2062Y471D01*
X0Y470D02*
X7Y470D01*
X23Y470D02*
X29Y470D01*
X47Y470D02*
X53Y470D01*
X70Y470D02*
X76Y470D01*
X226Y470D02*
X232Y470D01*
X248Y470D02*
X255Y470D01*
X276Y470D02*
X282Y470D01*
X340Y470D02*
X346Y470D01*
X432Y470D02*
X439Y470D01*
X477Y470D02*
X483Y470D01*
X504Y470D02*
X510Y470D01*
X527Y470D02*
X533Y470D01*
X554Y470D02*
X560Y470D01*
X577Y470D02*
X583Y470D01*
X604Y470D02*
X610Y470D01*
X627Y470D02*
X634Y470D01*
X678Y470D02*
X686Y470D01*
X734Y470D02*
X740Y470D01*
X756Y470D02*
X760Y470D01*
X778Y470D02*
X784Y470D01*
X805Y470D02*
X811Y470D01*
X828Y470D02*
X834Y470D01*
X936Y470D02*
X943Y470D01*
X947Y470D02*
X954Y470D01*
X979Y470D02*
X985Y470D01*
X1006Y470D02*
X1012Y470D01*
X1039Y470D02*
X1052Y470D01*
X1093Y470D02*
X1099Y470D01*
X1106Y470D02*
X1113Y470D01*
X2055Y470D02*
X2062Y470D01*
X0Y469D02*
X7Y469D01*
X23Y469D02*
X29Y469D01*
X47Y469D02*
X53Y469D01*
X70Y469D02*
X76Y469D01*
X226Y469D02*
X232Y469D01*
X249Y469D02*
X256Y469D01*
X276Y469D02*
X282Y469D01*
X340Y469D02*
X346Y469D01*
X433Y469D02*
X440Y469D01*
X477Y469D02*
X484Y469D01*
X503Y469D02*
X510Y469D01*
X527Y469D02*
X533Y469D01*
X554Y469D02*
X560Y469D01*
X577Y469D02*
X583Y469D01*
X604Y469D02*
X610Y469D01*
X627Y469D02*
X634Y469D01*
X679Y469D02*
X688Y469D01*
X734Y469D02*
X740Y469D01*
X755Y469D02*
X761Y469D01*
X778Y469D02*
X785Y469D01*
X804Y469D02*
X811Y469D01*
X828Y469D02*
X834Y469D01*
X937Y469D02*
X943Y469D01*
X947Y469D02*
X954Y469D01*
X979Y469D02*
X985Y469D01*
X1006Y469D02*
X1012Y469D01*
X1040Y469D02*
X1051Y469D01*
X1093Y469D02*
X1099Y469D01*
X1106Y469D02*
X1113Y469D01*
X2055Y469D02*
X2062Y469D01*
X0Y468D02*
X7Y468D01*
X23Y468D02*
X29Y468D01*
X47Y468D02*
X53Y468D01*
X70Y468D02*
X76Y468D01*
X226Y468D02*
X232Y468D01*
X249Y468D02*
X256Y468D01*
X276Y468D02*
X282Y468D01*
X340Y468D02*
X346Y468D01*
X433Y468D02*
X440Y468D01*
X477Y468D02*
X484Y468D01*
X502Y468D02*
X510Y468D01*
X527Y468D02*
X533Y468D01*
X554Y468D02*
X560Y468D01*
X577Y468D02*
X583Y468D01*
X604Y468D02*
X610Y468D01*
X628Y468D02*
X635Y468D01*
X679Y468D02*
X689Y468D01*
X735Y468D02*
X741Y468D01*
X755Y468D02*
X761Y468D01*
X778Y468D02*
X786Y468D01*
X803Y468D02*
X811Y468D01*
X828Y468D02*
X834Y468D01*
X937Y468D02*
X944Y468D01*
X946Y468D02*
X953Y468D01*
X979Y468D02*
X985Y468D01*
X1006Y468D02*
X1012Y468D01*
X1041Y468D02*
X1050Y468D01*
X1093Y468D02*
X1099Y468D01*
X1106Y468D02*
X1113Y468D01*
X2055Y468D02*
X2062Y468D01*
X0Y467D02*
X7Y467D01*
X23Y467D02*
X29Y467D01*
X47Y467D02*
X53Y467D01*
X70Y467D02*
X76Y467D01*
X226Y467D02*
X232Y467D01*
X250Y467D02*
X257Y467D01*
X276Y467D02*
X282Y467D01*
X340Y467D02*
X346Y467D01*
X434Y467D02*
X441Y467D01*
X477Y467D02*
X486Y467D01*
X501Y467D02*
X509Y467D01*
X527Y467D02*
X533Y467D01*
X554Y467D02*
X560Y467D01*
X577Y467D02*
X583Y467D01*
X604Y467D02*
X610Y467D01*
X628Y467D02*
X636Y467D01*
X680Y467D02*
X690Y467D01*
X735Y467D02*
X741Y467D01*
X754Y467D02*
X761Y467D01*
X779Y467D02*
X787Y467D01*
X802Y467D02*
X810Y467D01*
X828Y467D02*
X834Y467D01*
X937Y467D02*
X944Y467D01*
X946Y467D02*
X953Y467D01*
X979Y467D02*
X985Y467D01*
X1006Y467D02*
X1012Y467D01*
X1093Y467D02*
X1099Y467D01*
X1106Y467D02*
X1113Y467D01*
X2055Y467D02*
X2062Y467D01*
X0Y466D02*
X7Y466D01*
X23Y466D02*
X29Y466D01*
X47Y466D02*
X53Y466D01*
X70Y466D02*
X76Y466D01*
X226Y466D02*
X232Y466D01*
X250Y466D02*
X257Y466D01*
X276Y466D02*
X282Y466D01*
X340Y466D02*
X346Y466D01*
X434Y466D02*
X442Y466D01*
X478Y466D02*
X487Y466D01*
X499Y466D02*
X509Y466D01*
X527Y466D02*
X533Y466D01*
X554Y466D02*
X560Y466D01*
X577Y466D02*
X583Y466D01*
X604Y466D02*
X610Y466D01*
X629Y466D02*
X638Y466D01*
X681Y466D02*
X692Y466D01*
X735Y466D02*
X743Y466D01*
X753Y466D02*
X761Y466D01*
X779Y466D02*
X789Y466D01*
X801Y466D02*
X810Y466D01*
X828Y466D02*
X834Y466D01*
X938Y466D02*
X952Y466D01*
X979Y466D02*
X985Y466D01*
X1006Y466D02*
X1012Y466D01*
X1092Y466D02*
X1099Y466D01*
X1106Y466D02*
X1113Y466D01*
X2055Y466D02*
X2062Y466D01*
X0Y465D02*
X7Y465D01*
X23Y465D02*
X29Y465D01*
X47Y465D02*
X53Y465D01*
X70Y465D02*
X76Y465D01*
X226Y465D02*
X232Y465D01*
X251Y465D02*
X258Y465D01*
X276Y465D02*
X282Y465D01*
X331Y465D02*
X355Y465D01*
X435Y465D02*
X458Y465D01*
X479Y465D02*
X508Y465D01*
X527Y465D02*
X533Y465D01*
X554Y465D02*
X560Y465D01*
X577Y465D02*
X583Y465D01*
X604Y465D02*
X610Y465D01*
X629Y465D02*
X659Y465D01*
X683Y465D02*
X709Y465D01*
X735Y465D02*
X760Y465D01*
X780Y465D02*
X809Y465D01*
X828Y465D02*
X834Y465D01*
X938Y465D02*
X952Y465D01*
X979Y465D02*
X1012Y465D01*
X1080Y465D02*
X1113Y465D01*
X2055Y465D02*
X2062Y465D01*
X0Y464D02*
X7Y464D01*
X23Y464D02*
X29Y464D01*
X47Y464D02*
X53Y464D01*
X70Y464D02*
X76Y464D01*
X226Y464D02*
X232Y464D01*
X251Y464D02*
X259Y464D01*
X276Y464D02*
X282Y464D01*
X330Y464D02*
X356Y464D01*
X435Y464D02*
X459Y464D01*
X480Y464D02*
X507Y464D01*
X527Y464D02*
X533Y464D01*
X554Y464D02*
X560Y464D01*
X577Y464D02*
X583Y464D01*
X604Y464D02*
X610Y464D01*
X630Y464D02*
X660Y464D01*
X684Y464D02*
X710Y464D01*
X736Y464D02*
X760Y464D01*
X781Y464D02*
X808Y464D01*
X828Y464D02*
X834Y464D01*
X939Y464D02*
X951Y464D01*
X979Y464D02*
X1012Y464D01*
X1079Y464D02*
X1113Y464D01*
X2055Y464D02*
X2062Y464D01*
X0Y463D02*
X7Y463D01*
X23Y463D02*
X29Y463D01*
X47Y463D02*
X53Y463D01*
X70Y463D02*
X76Y463D01*
X226Y463D02*
X232Y463D01*
X252Y463D02*
X259Y463D01*
X276Y463D02*
X282Y463D01*
X329Y463D02*
X356Y463D01*
X436Y463D02*
X460Y463D01*
X481Y463D02*
X506Y463D01*
X527Y463D02*
X533Y463D01*
X554Y463D02*
X560Y463D01*
X577Y463D02*
X583Y463D01*
X604Y463D02*
X610Y463D01*
X631Y463D02*
X661Y463D01*
X685Y463D02*
X711Y463D01*
X737Y463D02*
X759Y463D01*
X782Y463D02*
X807Y463D01*
X828Y463D02*
X834Y463D01*
X939Y463D02*
X951Y463D01*
X979Y463D02*
X1011Y463D01*
X1079Y463D02*
X1113Y463D01*
X2055Y463D02*
X2062Y463D01*
X0Y462D02*
X7Y462D01*
X23Y462D02*
X29Y462D01*
X47Y462D02*
X53Y462D01*
X70Y462D02*
X76Y462D01*
X226Y462D02*
X232Y462D01*
X253Y462D02*
X259Y462D01*
X276Y462D02*
X282Y462D01*
X329Y462D02*
X356Y462D01*
X437Y462D02*
X460Y462D01*
X482Y462D02*
X505Y462D01*
X527Y462D02*
X533Y462D01*
X554Y462D02*
X560Y462D01*
X577Y462D02*
X583Y462D01*
X605Y462D02*
X610Y462D01*
X632Y462D02*
X661Y462D01*
X686Y462D02*
X711Y462D01*
X737Y462D02*
X758Y462D01*
X783Y462D02*
X806Y462D01*
X828Y462D02*
X834Y462D01*
X940Y462D02*
X950Y462D01*
X980Y462D02*
X1011Y462D01*
X1079Y462D02*
X1112Y462D01*
X2055Y462D02*
X2062Y462D01*
X0Y461D02*
X7Y461D01*
X23Y461D02*
X29Y461D01*
X47Y461D02*
X53Y461D01*
X70Y461D02*
X76Y461D01*
X122Y461D02*
X137Y461D01*
X202Y461D02*
X216Y461D01*
X226Y461D02*
X231Y461D01*
X253Y461D02*
X259Y461D01*
X276Y461D02*
X281Y461D01*
X330Y461D02*
X356Y461D01*
X438Y461D02*
X460Y461D01*
X483Y461D02*
X504Y461D01*
X527Y461D02*
X532Y461D01*
X555Y461D02*
X560Y461D01*
X577Y461D02*
X583Y461D01*
X605Y461D02*
X610Y461D01*
X634Y461D02*
X660Y461D01*
X687Y461D02*
X711Y461D01*
X738Y461D02*
X757Y461D01*
X784Y461D02*
X805Y461D01*
X828Y461D02*
X834Y461D01*
X940Y461D02*
X950Y461D01*
X980Y461D02*
X1010Y461D01*
X1079Y461D02*
X1112Y461D01*
X2055Y461D02*
X2062Y461D01*
X0Y460D02*
X7Y460D01*
X23Y460D02*
X29Y460D01*
X47Y460D02*
X53Y460D01*
X70Y460D02*
X76Y460D01*
X121Y460D02*
X137Y460D01*
X202Y460D02*
X218Y460D01*
X226Y460D02*
X231Y460D01*
X254Y460D02*
X258Y460D01*
X277Y460D02*
X281Y460D01*
X330Y460D02*
X355Y460D01*
X440Y460D02*
X459Y460D01*
X485Y460D02*
X502Y460D01*
X528Y460D02*
X532Y460D01*
X555Y460D02*
X559Y460D01*
X578Y460D02*
X582Y460D01*
X605Y460D02*
X610Y460D01*
X635Y460D02*
X660Y460D01*
X689Y460D02*
X710Y460D01*
X740Y460D02*
X755Y460D01*
X786Y460D02*
X803Y460D01*
X829Y460D02*
X833Y460D01*
X941Y460D02*
X949Y460D01*
X982Y460D02*
X1009Y460D01*
X1080Y460D02*
X1112Y460D01*
X2055Y460D02*
X2062Y460D01*
X0Y459D02*
X7Y459D01*
X23Y459D02*
X29Y459D01*
X47Y459D02*
X53Y459D01*
X70Y459D02*
X76Y459D01*
X120Y459D02*
X137Y459D01*
X202Y459D02*
X219Y459D01*
X228Y459D02*
X229Y459D01*
X255Y459D02*
X257Y459D01*
X278Y459D02*
X279Y459D01*
X332Y459D02*
X354Y459D01*
X442Y459D02*
X458Y459D01*
X487Y459D02*
X499Y459D01*
X529Y459D02*
X530Y459D01*
X557Y459D02*
X558Y459D01*
X579Y459D02*
X581Y459D01*
X607Y459D02*
X608Y459D01*
X638Y459D02*
X658Y459D01*
X692Y459D02*
X709Y459D01*
X743Y459D02*
X753Y459D01*
X789Y459D02*
X800Y459D01*
X830Y459D02*
X832Y459D01*
X942Y459D02*
X948Y459D01*
X984Y459D02*
X1007Y459D01*
X1081Y459D02*
X1110Y459D01*
X2055Y459D02*
X2062Y459D01*
X0Y458D02*
X7Y458D01*
X23Y458D02*
X29Y458D01*
X47Y458D02*
X53Y458D01*
X70Y458D02*
X76Y458D01*
X119Y458D02*
X136Y458D01*
X203Y458D02*
X220Y458D01*
X2055Y458D02*
X2062Y458D01*
X0Y457D02*
X7Y457D01*
X23Y457D02*
X29Y457D01*
X47Y457D02*
X53Y457D01*
X70Y457D02*
X76Y457D01*
X117Y457D02*
X136Y457D01*
X203Y457D02*
X221Y457D01*
X2055Y457D02*
X2062Y457D01*
X0Y456D02*
X7Y456D01*
X23Y456D02*
X29Y456D01*
X47Y456D02*
X53Y456D01*
X70Y456D02*
X76Y456D01*
X116Y456D02*
X123Y456D01*
X215Y456D02*
X222Y456D01*
X2055Y456D02*
X2062Y456D01*
X0Y455D02*
X7Y455D01*
X23Y455D02*
X29Y455D01*
X47Y455D02*
X76Y455D01*
X115Y455D02*
X122Y455D01*
X217Y455D02*
X223Y455D01*
X2055Y455D02*
X2062Y455D01*
X0Y454D02*
X7Y454D01*
X23Y454D02*
X29Y454D01*
X47Y454D02*
X76Y454D01*
X114Y454D02*
X121Y454D01*
X218Y454D02*
X224Y454D01*
X2055Y454D02*
X2062Y454D01*
X0Y453D02*
X7Y453D01*
X23Y453D02*
X29Y453D01*
X47Y453D02*
X76Y453D01*
X113Y453D02*
X120Y453D01*
X219Y453D02*
X225Y453D01*
X2055Y453D02*
X2062Y453D01*
X0Y452D02*
X7Y452D01*
X23Y452D02*
X29Y452D01*
X48Y452D02*
X76Y452D01*
X112Y452D02*
X119Y452D01*
X220Y452D02*
X226Y452D01*
X2055Y452D02*
X2062Y452D01*
X0Y451D02*
X7Y451D01*
X23Y451D02*
X29Y451D01*
X49Y451D02*
X76Y451D01*
X111Y451D02*
X118Y451D01*
X221Y451D02*
X227Y451D01*
X2055Y451D02*
X2062Y451D01*
X0Y450D02*
X7Y450D01*
X24Y450D02*
X28Y450D01*
X50Y450D02*
X76Y450D01*
X110Y450D02*
X116Y450D01*
X222Y450D02*
X228Y450D01*
X2055Y450D02*
X2062Y450D01*
X0Y449D02*
X7Y449D01*
X25Y449D02*
X27Y449D01*
X52Y449D02*
X76Y449D01*
X110Y449D02*
X116Y449D01*
X223Y449D02*
X229Y449D01*
X2055Y449D02*
X2062Y449D01*
X0Y448D02*
X7Y448D01*
X109Y448D02*
X115Y448D01*
X224Y448D02*
X230Y448D01*
X2055Y448D02*
X2062Y448D01*
X0Y447D02*
X7Y447D01*
X108Y447D02*
X114Y447D01*
X225Y447D02*
X231Y447D01*
X2055Y447D02*
X2062Y447D01*
X0Y446D02*
X7Y446D01*
X107Y446D02*
X113Y446D01*
X226Y446D02*
X232Y446D01*
X2055Y446D02*
X2062Y446D01*
X0Y445D02*
X7Y445D01*
X106Y445D02*
X112Y445D01*
X227Y445D02*
X232Y445D01*
X2055Y445D02*
X2062Y445D01*
X0Y444D02*
X7Y444D01*
X106Y444D02*
X111Y444D01*
X228Y444D02*
X233Y444D01*
X2055Y444D02*
X2062Y444D01*
X0Y443D02*
X7Y443D01*
X105Y443D02*
X110Y443D01*
X229Y443D02*
X234Y443D01*
X2055Y443D02*
X2062Y443D01*
X0Y442D02*
X7Y442D01*
X104Y442D02*
X110Y442D01*
X229Y442D02*
X234Y442D01*
X2055Y442D02*
X2062Y442D01*
X0Y441D02*
X7Y441D01*
X104Y441D02*
X109Y441D01*
X230Y441D02*
X235Y441D01*
X2055Y441D02*
X2062Y441D01*
X0Y440D02*
X7Y440D01*
X103Y440D02*
X108Y440D01*
X231Y440D02*
X236Y440D01*
X2055Y440D02*
X2062Y440D01*
X0Y439D02*
X7Y439D01*
X102Y439D02*
X107Y439D01*
X231Y439D02*
X236Y439D01*
X2055Y439D02*
X2062Y439D01*
X0Y438D02*
X7Y438D01*
X102Y438D02*
X107Y438D01*
X232Y438D02*
X237Y438D01*
X2055Y438D02*
X2062Y438D01*
X0Y437D02*
X7Y437D01*
X101Y437D02*
X106Y437D01*
X233Y437D02*
X238Y437D01*
X2055Y437D02*
X2062Y437D01*
X0Y436D02*
X7Y436D01*
X101Y436D02*
X105Y436D01*
X233Y436D02*
X238Y436D01*
X2055Y436D02*
X2062Y436D01*
X0Y435D02*
X7Y435D01*
X100Y435D02*
X105Y435D01*
X234Y435D02*
X239Y435D01*
X2055Y435D02*
X2062Y435D01*
X0Y434D02*
X7Y434D01*
X100Y434D02*
X104Y434D01*
X235Y434D02*
X239Y434D01*
X2055Y434D02*
X2062Y434D01*
X0Y433D02*
X7Y433D01*
X49Y433D02*
X50Y433D01*
X99Y433D02*
X104Y433D01*
X235Y433D02*
X240Y433D01*
X2055Y433D02*
X2062Y433D01*
X0Y432D02*
X7Y432D01*
X45Y432D02*
X55Y432D01*
X99Y432D02*
X103Y432D01*
X236Y432D02*
X240Y432D01*
X2055Y432D02*
X2062Y432D01*
X0Y431D02*
X7Y431D01*
X43Y431D02*
X57Y431D01*
X98Y431D02*
X103Y431D01*
X236Y431D02*
X241Y431D01*
X2055Y431D02*
X2062Y431D01*
X0Y430D02*
X7Y430D01*
X41Y430D02*
X59Y430D01*
X98Y430D02*
X102Y430D01*
X237Y430D02*
X241Y430D01*
X2055Y430D02*
X2062Y430D01*
X0Y429D02*
X7Y429D01*
X39Y429D02*
X61Y429D01*
X97Y429D02*
X102Y429D01*
X237Y429D02*
X242Y429D01*
X2055Y429D02*
X2062Y429D01*
X0Y428D02*
X7Y428D01*
X37Y428D02*
X63Y428D01*
X97Y428D02*
X101Y428D01*
X238Y428D02*
X242Y428D01*
X2055Y428D02*
X2062Y428D01*
X0Y427D02*
X7Y427D01*
X35Y427D02*
X65Y427D01*
X96Y427D02*
X101Y427D01*
X238Y427D02*
X242Y427D01*
X2055Y427D02*
X2062Y427D01*
X0Y426D02*
X7Y426D01*
X33Y426D02*
X49Y426D01*
X51Y426D02*
X67Y426D01*
X96Y426D02*
X100Y426D01*
X239Y426D02*
X243Y426D01*
X2055Y426D02*
X2062Y426D01*
X0Y425D02*
X7Y425D01*
X31Y425D02*
X45Y425D01*
X54Y425D02*
X69Y425D01*
X96Y425D02*
X100Y425D01*
X239Y425D02*
X243Y425D01*
X2055Y425D02*
X2062Y425D01*
X0Y424D02*
X7Y424D01*
X29Y424D02*
X43Y424D01*
X56Y424D02*
X71Y424D01*
X95Y424D02*
X100Y424D01*
X239Y424D02*
X243Y424D01*
X2055Y424D02*
X2062Y424D01*
X0Y423D02*
X7Y423D01*
X27Y423D02*
X41Y423D01*
X58Y423D02*
X73Y423D01*
X95Y423D02*
X99Y423D01*
X240Y423D02*
X244Y423D01*
X2055Y423D02*
X2062Y423D01*
X0Y422D02*
X7Y422D01*
X26Y422D02*
X39Y422D01*
X60Y422D02*
X74Y422D01*
X95Y422D02*
X99Y422D01*
X240Y422D02*
X244Y422D01*
X2055Y422D02*
X2062Y422D01*
X0Y421D02*
X7Y421D01*
X25Y421D02*
X37Y421D01*
X62Y421D02*
X74Y421D01*
X94Y421D02*
X98Y421D01*
X240Y421D02*
X244Y421D01*
X2055Y421D02*
X2062Y421D01*
X0Y420D02*
X7Y420D01*
X25Y420D02*
X35Y420D01*
X64Y420D02*
X75Y420D01*
X94Y420D02*
X98Y420D01*
X241Y420D02*
X245Y420D01*
X2055Y420D02*
X2062Y420D01*
X0Y419D02*
X7Y419D01*
X24Y419D02*
X33Y419D01*
X66Y419D02*
X75Y419D01*
X94Y419D02*
X98Y419D01*
X241Y419D02*
X245Y419D01*
X2055Y419D02*
X2062Y419D01*
X0Y418D02*
X7Y418D01*
X24Y418D02*
X31Y418D01*
X68Y418D02*
X76Y418D01*
X93Y418D02*
X98Y418D01*
X241Y418D02*
X245Y418D01*
X2055Y418D02*
X2062Y418D01*
X0Y417D02*
X7Y417D01*
X23Y417D02*
X30Y417D01*
X70Y417D02*
X76Y417D01*
X93Y417D02*
X97Y417D01*
X242Y417D02*
X246Y417D01*
X1804Y417D02*
X1814Y417D01*
X2055Y417D02*
X2062Y417D01*
X0Y416D02*
X7Y416D01*
X23Y416D02*
X29Y416D01*
X70Y416D02*
X76Y416D01*
X93Y416D02*
X97Y416D01*
X242Y416D02*
X246Y416D01*
X1800Y416D02*
X1819Y416D01*
X2055Y416D02*
X2062Y416D01*
X0Y415D02*
X7Y415D01*
X23Y415D02*
X29Y415D01*
X70Y415D02*
X76Y415D01*
X93Y415D02*
X97Y415D01*
X242Y415D02*
X246Y415D01*
X1797Y415D02*
X1821Y415D01*
X2055Y415D02*
X2062Y415D01*
X0Y414D02*
X7Y414D01*
X23Y414D02*
X29Y414D01*
X70Y414D02*
X76Y414D01*
X92Y414D02*
X96Y414D01*
X242Y414D02*
X246Y414D01*
X1795Y414D02*
X1824Y414D01*
X2055Y414D02*
X2062Y414D01*
X0Y413D02*
X7Y413D01*
X23Y413D02*
X29Y413D01*
X70Y413D02*
X76Y413D01*
X92Y413D02*
X96Y413D01*
X243Y413D02*
X246Y413D01*
X1793Y413D02*
X1825Y413D01*
X2055Y413D02*
X2062Y413D01*
X0Y412D02*
X7Y412D01*
X23Y412D02*
X76Y412D01*
X92Y412D02*
X96Y412D01*
X243Y412D02*
X247Y412D01*
X1791Y412D02*
X1827Y412D01*
X2055Y412D02*
X2062Y412D01*
X0Y411D02*
X7Y411D01*
X23Y411D02*
X76Y411D01*
X92Y411D02*
X96Y411D01*
X243Y411D02*
X247Y411D01*
X419Y411D02*
X444Y411D01*
X473Y411D02*
X475Y411D01*
X1790Y411D02*
X1828Y411D01*
X2055Y411D02*
X2062Y411D01*
X0Y410D02*
X7Y410D01*
X23Y410D02*
X76Y410D01*
X92Y410D02*
X96Y410D01*
X243Y410D02*
X247Y410D01*
X419Y410D02*
X447Y410D01*
X472Y410D02*
X476Y410D01*
X1789Y410D02*
X1829Y410D01*
X2055Y410D02*
X2062Y410D01*
X0Y409D02*
X7Y409D01*
X23Y409D02*
X76Y409D01*
X92Y409D02*
X95Y409D01*
X243Y409D02*
X247Y409D01*
X419Y409D02*
X448Y409D01*
X471Y409D02*
X476Y409D01*
X1790Y409D02*
X1802Y409D01*
X1816Y409D02*
X1828Y409D01*
X2055Y409D02*
X2062Y409D01*
X0Y408D02*
X7Y408D01*
X23Y408D02*
X76Y408D01*
X91Y408D02*
X95Y408D01*
X244Y408D02*
X247Y408D01*
X419Y408D02*
X449Y408D01*
X471Y408D02*
X477Y408D01*
X1791Y408D02*
X1799Y408D01*
X1819Y408D02*
X1827Y408D01*
X2055Y408D02*
X2062Y408D01*
X0Y407D02*
X7Y407D01*
X23Y407D02*
X76Y407D01*
X91Y407D02*
X95Y407D01*
X244Y407D02*
X247Y407D01*
X419Y407D02*
X450Y407D01*
X471Y407D02*
X477Y407D01*
X1792Y407D02*
X1797Y407D01*
X1821Y407D02*
X1826Y407D01*
X2055Y407D02*
X2062Y407D01*
X0Y406D02*
X7Y406D01*
X23Y406D02*
X76Y406D01*
X91Y406D02*
X95Y406D01*
X244Y406D02*
X248Y406D01*
X419Y406D02*
X451Y406D01*
X471Y406D02*
X477Y406D01*
X1793Y406D02*
X1796Y406D01*
X1823Y406D02*
X1826Y406D01*
X2055Y406D02*
X2062Y406D01*
X0Y405D02*
X7Y405D01*
X23Y405D02*
X29Y405D01*
X70Y405D02*
X76Y405D01*
X91Y405D02*
X95Y405D01*
X244Y405D02*
X248Y405D01*
X419Y405D02*
X452Y405D01*
X471Y405D02*
X477Y405D01*
X493Y405D02*
X495Y405D01*
X1793Y405D02*
X1794Y405D01*
X1824Y405D02*
X1825Y405D01*
X2055Y405D02*
X2062Y405D01*
X0Y404D02*
X7Y404D01*
X23Y404D02*
X29Y404D01*
X70Y404D02*
X76Y404D01*
X91Y404D02*
X95Y404D01*
X244Y404D02*
X248Y404D01*
X419Y404D02*
X425Y404D01*
X444Y404D02*
X452Y404D01*
X471Y404D02*
X477Y404D01*
X492Y404D02*
X497Y404D01*
X2055Y404D02*
X2062Y404D01*
X0Y403D02*
X7Y403D01*
X23Y403D02*
X29Y403D01*
X70Y403D02*
X76Y403D01*
X91Y403D02*
X95Y403D01*
X244Y403D02*
X248Y403D01*
X419Y403D02*
X425Y403D01*
X446Y403D02*
X452Y403D01*
X471Y403D02*
X477Y403D01*
X492Y403D02*
X497Y403D01*
X2055Y403D02*
X2062Y403D01*
X0Y402D02*
X7Y402D01*
X23Y402D02*
X29Y402D01*
X70Y402D02*
X76Y402D01*
X91Y402D02*
X95Y402D01*
X244Y402D02*
X248Y402D01*
X419Y402D02*
X425Y402D01*
X446Y402D02*
X452Y402D01*
X471Y402D02*
X477Y402D01*
X491Y402D02*
X497Y402D01*
X2055Y402D02*
X2062Y402D01*
X0Y401D02*
X7Y401D01*
X23Y401D02*
X29Y401D01*
X71Y401D02*
X76Y401D01*
X91Y401D02*
X95Y401D01*
X244Y401D02*
X248Y401D01*
X419Y401D02*
X425Y401D01*
X446Y401D02*
X452Y401D01*
X471Y401D02*
X477Y401D01*
X491Y401D02*
X497Y401D01*
X2055Y401D02*
X2062Y401D01*
X0Y400D02*
X7Y400D01*
X24Y400D02*
X29Y400D01*
X71Y400D02*
X76Y400D01*
X91Y400D02*
X95Y400D01*
X244Y400D02*
X248Y400D01*
X419Y400D02*
X425Y400D01*
X446Y400D02*
X452Y400D01*
X471Y400D02*
X477Y400D01*
X491Y400D02*
X497Y400D01*
X2055Y400D02*
X2062Y400D01*
X0Y399D02*
X7Y399D01*
X25Y399D02*
X27Y399D01*
X72Y399D02*
X75Y399D01*
X91Y399D02*
X95Y399D01*
X244Y399D02*
X248Y399D01*
X419Y399D02*
X425Y399D01*
X446Y399D02*
X452Y399D01*
X471Y399D02*
X477Y399D01*
X491Y399D02*
X497Y399D01*
X2055Y399D02*
X2062Y399D01*
X0Y398D02*
X7Y398D01*
X91Y398D02*
X95Y398D01*
X244Y398D02*
X248Y398D01*
X419Y398D02*
X425Y398D01*
X446Y398D02*
X452Y398D01*
X471Y398D02*
X477Y398D01*
X491Y398D02*
X497Y398D01*
X2055Y398D02*
X2062Y398D01*
X0Y397D02*
X7Y397D01*
X91Y397D02*
X95Y397D01*
X244Y397D02*
X248Y397D01*
X419Y397D02*
X425Y397D01*
X446Y397D02*
X452Y397D01*
X471Y397D02*
X477Y397D01*
X491Y397D02*
X497Y397D01*
X834Y397D02*
X859Y397D01*
X887Y397D02*
X904Y397D01*
X2055Y397D02*
X2062Y397D01*
X0Y396D02*
X7Y396D01*
X91Y396D02*
X95Y396D01*
X244Y396D02*
X248Y396D01*
X419Y396D02*
X425Y396D01*
X446Y396D02*
X452Y396D01*
X471Y396D02*
X477Y396D01*
X491Y396D02*
X497Y396D01*
X676Y396D02*
X703Y396D01*
X728Y396D02*
X756Y396D01*
X834Y396D02*
X862Y396D01*
X885Y396D02*
X904Y396D01*
X2055Y396D02*
X2062Y396D01*
X0Y395D02*
X7Y395D01*
X91Y395D02*
X95Y395D01*
X244Y395D02*
X248Y395D01*
X419Y395D02*
X425Y395D01*
X446Y395D02*
X452Y395D01*
X471Y395D02*
X477Y395D01*
X491Y395D02*
X497Y395D01*
X676Y395D02*
X705Y395D01*
X727Y395D02*
X757Y395D01*
X834Y395D02*
X863Y395D01*
X885Y395D02*
X904Y395D01*
X2055Y395D02*
X2062Y395D01*
X0Y394D02*
X7Y394D01*
X91Y394D02*
X95Y394D01*
X244Y394D02*
X248Y394D01*
X419Y394D02*
X425Y394D01*
X444Y394D02*
X452Y394D01*
X471Y394D02*
X477Y394D01*
X491Y394D02*
X497Y394D01*
X676Y394D02*
X706Y394D01*
X727Y394D02*
X758Y394D01*
X834Y394D02*
X865Y394D01*
X884Y394D02*
X904Y394D01*
X2055Y394D02*
X2062Y394D01*
X0Y393D02*
X7Y393D01*
X91Y393D02*
X95Y393D01*
X244Y393D02*
X248Y393D01*
X419Y393D02*
X452Y393D01*
X471Y393D02*
X477Y393D01*
X491Y393D02*
X497Y393D01*
X676Y393D02*
X707Y393D01*
X726Y393D02*
X759Y393D01*
X834Y393D02*
X865Y393D01*
X884Y393D02*
X904Y393D01*
X2055Y393D02*
X2062Y393D01*
X0Y392D02*
X7Y392D01*
X91Y392D02*
X95Y392D01*
X244Y392D02*
X248Y392D01*
X419Y392D02*
X451Y392D01*
X471Y392D02*
X477Y392D01*
X491Y392D02*
X497Y392D01*
X676Y392D02*
X708Y392D01*
X727Y392D02*
X760Y392D01*
X834Y392D02*
X866Y392D01*
X885Y392D02*
X904Y392D01*
X2055Y392D02*
X2062Y392D01*
X0Y391D02*
X7Y391D01*
X91Y391D02*
X95Y391D01*
X244Y391D02*
X248Y391D01*
X419Y391D02*
X450Y391D01*
X471Y391D02*
X477Y391D01*
X491Y391D02*
X497Y391D01*
X676Y391D02*
X709Y391D01*
X727Y391D02*
X760Y391D01*
X834Y391D02*
X867Y391D01*
X886Y391D02*
X904Y391D01*
X2055Y391D02*
X2062Y391D01*
X0Y390D02*
X7Y390D01*
X91Y390D02*
X95Y390D01*
X244Y390D02*
X248Y390D01*
X419Y390D02*
X450Y390D01*
X471Y390D02*
X477Y390D01*
X491Y390D02*
X497Y390D01*
X676Y390D02*
X709Y390D01*
X729Y390D02*
X760Y390D01*
X834Y390D02*
X840Y390D01*
X859Y390D02*
X867Y390D01*
X898Y390D02*
X904Y390D01*
X2055Y390D02*
X2062Y390D01*
X0Y389D02*
X7Y389D01*
X91Y389D02*
X95Y389D01*
X244Y389D02*
X248Y389D01*
X419Y389D02*
X448Y389D01*
X471Y389D02*
X477Y389D01*
X491Y389D02*
X497Y389D01*
X676Y389D02*
X682Y389D01*
X702Y389D02*
X709Y389D01*
X754Y389D02*
X760Y389D01*
X834Y389D02*
X840Y389D01*
X861Y389D02*
X867Y389D01*
X898Y389D02*
X904Y389D01*
X2055Y389D02*
X2062Y389D01*
X0Y388D02*
X7Y388D01*
X91Y388D02*
X95Y388D01*
X244Y388D02*
X247Y388D01*
X419Y388D02*
X447Y388D01*
X471Y388D02*
X477Y388D01*
X491Y388D02*
X497Y388D01*
X676Y388D02*
X682Y388D01*
X703Y388D02*
X710Y388D01*
X754Y388D02*
X760Y388D01*
X834Y388D02*
X840Y388D01*
X861Y388D02*
X868Y388D01*
X898Y388D02*
X904Y388D01*
X2055Y388D02*
X2062Y388D01*
X0Y387D02*
X7Y387D01*
X91Y387D02*
X95Y387D01*
X244Y387D02*
X247Y387D01*
X419Y387D02*
X445Y387D01*
X471Y387D02*
X477Y387D01*
X491Y387D02*
X497Y387D01*
X676Y387D02*
X682Y387D01*
X704Y387D02*
X710Y387D01*
X754Y387D02*
X760Y387D01*
X834Y387D02*
X840Y387D01*
X862Y387D02*
X868Y387D01*
X898Y387D02*
X904Y387D01*
X2055Y387D02*
X2062Y387D01*
X0Y386D02*
X7Y386D01*
X92Y386D02*
X95Y386D01*
X243Y386D02*
X247Y386D01*
X419Y386D02*
X425Y386D01*
X431Y386D02*
X438Y386D01*
X471Y386D02*
X477Y386D01*
X491Y386D02*
X497Y386D01*
X676Y386D02*
X682Y386D01*
X704Y386D02*
X710Y386D01*
X754Y386D02*
X760Y386D01*
X834Y386D02*
X840Y386D01*
X862Y386D02*
X868Y386D01*
X898Y386D02*
X904Y386D01*
X2055Y386D02*
X2062Y386D01*
X0Y385D02*
X7Y385D01*
X92Y385D02*
X96Y385D01*
X243Y385D02*
X247Y385D01*
X419Y385D02*
X425Y385D01*
X432Y385D02*
X439Y385D01*
X471Y385D02*
X477Y385D01*
X491Y385D02*
X497Y385D01*
X676Y385D02*
X682Y385D01*
X704Y385D02*
X710Y385D01*
X754Y385D02*
X760Y385D01*
X834Y385D02*
X840Y385D01*
X862Y385D02*
X868Y385D01*
X898Y385D02*
X904Y385D01*
X2055Y385D02*
X2062Y385D01*
X0Y384D02*
X7Y384D01*
X92Y384D02*
X96Y384D01*
X243Y384D02*
X247Y384D01*
X419Y384D02*
X425Y384D01*
X432Y384D02*
X439Y384D01*
X471Y384D02*
X477Y384D01*
X491Y384D02*
X497Y384D01*
X676Y384D02*
X682Y384D01*
X704Y384D02*
X710Y384D01*
X754Y384D02*
X760Y384D01*
X834Y384D02*
X840Y384D01*
X862Y384D02*
X868Y384D01*
X898Y384D02*
X904Y384D01*
X2055Y384D02*
X2062Y384D01*
X0Y383D02*
X7Y383D01*
X92Y383D02*
X96Y383D01*
X243Y383D02*
X247Y383D01*
X419Y383D02*
X425Y383D01*
X433Y383D02*
X440Y383D01*
X471Y383D02*
X477Y383D01*
X491Y383D02*
X497Y383D01*
X676Y383D02*
X682Y383D01*
X704Y383D02*
X710Y383D01*
X754Y383D02*
X760Y383D01*
X834Y383D02*
X840Y383D01*
X862Y383D02*
X868Y383D01*
X898Y383D02*
X904Y383D01*
X2055Y383D02*
X2062Y383D01*
X0Y382D02*
X7Y382D01*
X25Y382D02*
X28Y382D01*
X72Y382D02*
X75Y382D01*
X92Y382D02*
X96Y382D01*
X243Y382D02*
X247Y382D01*
X419Y382D02*
X425Y382D01*
X433Y382D02*
X441Y382D01*
X471Y382D02*
X477Y382D01*
X491Y382D02*
X498Y382D01*
X676Y382D02*
X682Y382D01*
X704Y382D02*
X710Y382D01*
X754Y382D02*
X760Y382D01*
X834Y382D02*
X840Y382D01*
X861Y382D02*
X868Y382D01*
X898Y382D02*
X904Y382D01*
X2055Y382D02*
X2062Y382D01*
X0Y381D02*
X7Y381D01*
X24Y381D02*
X29Y381D01*
X71Y381D02*
X76Y381D01*
X93Y381D02*
X96Y381D01*
X242Y381D02*
X246Y381D01*
X419Y381D02*
X425Y381D01*
X434Y381D02*
X441Y381D01*
X471Y381D02*
X500Y381D01*
X676Y381D02*
X682Y381D01*
X703Y381D02*
X710Y381D01*
X754Y381D02*
X760Y381D01*
X834Y381D02*
X840Y381D01*
X861Y381D02*
X867Y381D01*
X898Y381D02*
X904Y381D01*
X2055Y381D02*
X2062Y381D01*
X0Y380D02*
X7Y380D01*
X23Y380D02*
X29Y380D01*
X71Y380D02*
X76Y380D01*
X93Y380D02*
X97Y380D01*
X242Y380D02*
X246Y380D01*
X419Y380D02*
X425Y380D01*
X435Y380D02*
X442Y380D01*
X471Y380D02*
X500Y380D01*
X676Y380D02*
X682Y380D01*
X702Y380D02*
X709Y380D01*
X754Y380D02*
X760Y380D01*
X834Y380D02*
X840Y380D01*
X860Y380D02*
X867Y380D01*
X898Y380D02*
X904Y380D01*
X2055Y380D02*
X2062Y380D01*
X0Y379D02*
X7Y379D01*
X23Y379D02*
X29Y379D01*
X70Y379D02*
X76Y379D01*
X93Y379D02*
X97Y379D01*
X242Y379D02*
X246Y379D01*
X419Y379D02*
X425Y379D01*
X435Y379D02*
X442Y379D01*
X471Y379D02*
X501Y379D01*
X676Y379D02*
X709Y379D01*
X754Y379D02*
X760Y379D01*
X834Y379D02*
X867Y379D01*
X898Y379D02*
X904Y379D01*
X2055Y379D02*
X2062Y379D01*
X0Y378D02*
X7Y378D01*
X23Y378D02*
X29Y378D01*
X70Y378D02*
X76Y378D01*
X93Y378D02*
X97Y378D01*
X242Y378D02*
X246Y378D01*
X419Y378D02*
X425Y378D01*
X436Y378D02*
X443Y378D01*
X471Y378D02*
X501Y378D01*
X676Y378D02*
X709Y378D01*
X754Y378D02*
X760Y378D01*
X834Y378D02*
X866Y378D01*
X898Y378D02*
X904Y378D01*
X2055Y378D02*
X2062Y378D01*
X0Y377D02*
X7Y377D01*
X23Y377D02*
X29Y377D01*
X70Y377D02*
X76Y377D01*
X93Y377D02*
X97Y377D01*
X241Y377D02*
X245Y377D01*
X419Y377D02*
X425Y377D01*
X436Y377D02*
X443Y377D01*
X471Y377D02*
X501Y377D01*
X676Y377D02*
X708Y377D01*
X754Y377D02*
X760Y377D01*
X834Y377D02*
X866Y377D01*
X898Y377D02*
X904Y377D01*
X2055Y377D02*
X2062Y377D01*
X0Y376D02*
X7Y376D01*
X23Y376D02*
X29Y376D01*
X70Y376D02*
X76Y376D01*
X94Y376D02*
X98Y376D01*
X241Y376D02*
X245Y376D01*
X419Y376D02*
X425Y376D01*
X437Y376D02*
X444Y376D01*
X471Y376D02*
X500Y376D01*
X676Y376D02*
X707Y376D01*
X754Y376D02*
X760Y376D01*
X834Y376D02*
X865Y376D01*
X898Y376D02*
X904Y376D01*
X2055Y376D02*
X2062Y376D01*
X0Y375D02*
X7Y375D01*
X23Y375D02*
X29Y375D01*
X70Y375D02*
X76Y375D01*
X94Y375D02*
X98Y375D01*
X241Y375D02*
X245Y375D01*
X419Y375D02*
X425Y375D01*
X437Y375D02*
X445Y375D01*
X471Y375D02*
X498Y375D01*
X676Y375D02*
X706Y375D01*
X754Y375D02*
X760Y375D01*
X834Y375D02*
X864Y375D01*
X898Y375D02*
X904Y375D01*
X2055Y375D02*
X2062Y375D01*
X0Y374D02*
X7Y374D01*
X23Y374D02*
X29Y374D01*
X70Y374D02*
X76Y374D01*
X94Y374D02*
X98Y374D01*
X240Y374D02*
X245Y374D01*
X419Y374D02*
X425Y374D01*
X438Y374D02*
X445Y374D01*
X491Y374D02*
X497Y374D01*
X676Y374D02*
X705Y374D01*
X754Y374D02*
X760Y374D01*
X834Y374D02*
X863Y374D01*
X898Y374D02*
X904Y374D01*
X2055Y374D02*
X2062Y374D01*
X0Y373D02*
X7Y373D01*
X23Y373D02*
X29Y373D01*
X70Y373D02*
X76Y373D01*
X95Y373D02*
X99Y373D01*
X240Y373D02*
X244Y373D01*
X419Y373D02*
X425Y373D01*
X439Y373D02*
X446Y373D01*
X491Y373D02*
X497Y373D01*
X676Y373D02*
X703Y373D01*
X732Y373D02*
X760Y373D01*
X834Y373D02*
X860Y373D01*
X898Y373D02*
X904Y373D01*
X2055Y373D02*
X2062Y373D01*
X0Y372D02*
X7Y372D01*
X23Y372D02*
X29Y372D01*
X70Y372D02*
X76Y372D01*
X95Y372D02*
X99Y372D01*
X240Y372D02*
X244Y372D01*
X419Y372D02*
X425Y372D01*
X439Y372D02*
X446Y372D01*
X491Y372D02*
X497Y372D01*
X676Y372D02*
X683Y372D01*
X688Y372D02*
X696Y372D01*
X730Y372D02*
X760Y372D01*
X834Y372D02*
X840Y372D01*
X846Y372D02*
X853Y372D01*
X898Y372D02*
X904Y372D01*
X2055Y372D02*
X2062Y372D01*
X0Y371D02*
X7Y371D01*
X23Y371D02*
X29Y371D01*
X70Y371D02*
X76Y371D01*
X95Y371D02*
X99Y371D01*
X239Y371D02*
X244Y371D01*
X419Y371D02*
X425Y371D01*
X440Y371D02*
X447Y371D01*
X491Y371D02*
X497Y371D01*
X676Y371D02*
X682Y371D01*
X689Y371D02*
X696Y371D01*
X728Y371D02*
X760Y371D01*
X834Y371D02*
X840Y371D01*
X847Y371D02*
X854Y371D01*
X898Y371D02*
X904Y371D01*
X2055Y371D02*
X2062Y371D01*
X0Y370D02*
X7Y370D01*
X23Y370D02*
X29Y370D01*
X70Y370D02*
X76Y370D01*
X96Y370D02*
X100Y370D01*
X239Y370D02*
X243Y370D01*
X419Y370D02*
X425Y370D01*
X440Y370D02*
X448Y370D01*
X491Y370D02*
X497Y370D01*
X676Y370D02*
X682Y370D01*
X689Y370D02*
X696Y370D01*
X728Y370D02*
X759Y370D01*
X834Y370D02*
X840Y370D01*
X847Y370D02*
X855Y370D01*
X898Y370D02*
X904Y370D01*
X2055Y370D02*
X2062Y370D01*
X0Y369D02*
X7Y369D01*
X23Y369D02*
X29Y369D01*
X50Y369D02*
X50Y369D01*
X70Y369D02*
X76Y369D01*
X96Y369D02*
X100Y369D01*
X238Y369D02*
X243Y369D01*
X419Y369D02*
X425Y369D01*
X441Y369D02*
X448Y369D01*
X491Y369D02*
X497Y369D01*
X676Y369D02*
X682Y369D01*
X690Y369D02*
X697Y369D01*
X727Y369D02*
X758Y369D01*
X834Y369D02*
X840Y369D01*
X848Y369D02*
X855Y369D01*
X898Y369D02*
X904Y369D01*
X2055Y369D02*
X2062Y369D01*
X0Y368D02*
X7Y368D01*
X23Y368D02*
X29Y368D01*
X48Y368D02*
X52Y368D01*
X70Y368D02*
X76Y368D01*
X96Y368D02*
X101Y368D01*
X238Y368D02*
X242Y368D01*
X419Y368D02*
X425Y368D01*
X442Y368D02*
X449Y368D01*
X491Y368D02*
X497Y368D01*
X676Y368D02*
X682Y368D01*
X690Y368D02*
X698Y368D01*
X727Y368D02*
X758Y368D01*
X834Y368D02*
X840Y368D01*
X849Y368D02*
X856Y368D01*
X898Y368D02*
X904Y368D01*
X2055Y368D02*
X2062Y368D01*
X0Y367D02*
X7Y367D01*
X23Y367D02*
X29Y367D01*
X47Y367D02*
X52Y367D01*
X70Y367D02*
X76Y367D01*
X97Y367D02*
X101Y367D01*
X238Y367D02*
X242Y367D01*
X419Y367D02*
X425Y367D01*
X442Y367D02*
X449Y367D01*
X491Y367D02*
X497Y367D01*
X676Y367D02*
X682Y367D01*
X691Y367D02*
X698Y367D01*
X726Y367D02*
X756Y367D01*
X834Y367D02*
X840Y367D01*
X849Y367D02*
X856Y367D01*
X898Y367D02*
X904Y367D01*
X913Y367D02*
X916Y367D01*
X2055Y367D02*
X2062Y367D01*
X0Y366D02*
X7Y366D01*
X23Y366D02*
X29Y366D01*
X47Y366D02*
X53Y366D01*
X70Y366D02*
X76Y366D01*
X97Y366D02*
X102Y366D01*
X237Y366D02*
X242Y366D01*
X419Y366D02*
X425Y366D01*
X443Y366D02*
X450Y366D01*
X491Y366D02*
X497Y366D01*
X676Y366D02*
X682Y366D01*
X692Y366D02*
X699Y366D01*
X726Y366D02*
X733Y366D01*
X834Y366D02*
X840Y366D01*
X850Y366D02*
X857Y366D01*
X898Y366D02*
X904Y366D01*
X912Y366D02*
X917Y366D01*
X2055Y366D02*
X2062Y366D01*
X0Y365D02*
X7Y365D01*
X23Y365D02*
X29Y365D01*
X47Y365D02*
X53Y365D01*
X70Y365D02*
X76Y365D01*
X98Y365D02*
X102Y365D01*
X237Y365D02*
X241Y365D01*
X419Y365D02*
X425Y365D01*
X443Y365D02*
X450Y365D01*
X491Y365D02*
X497Y365D01*
X676Y365D02*
X682Y365D01*
X692Y365D02*
X699Y365D01*
X726Y365D02*
X732Y365D01*
X834Y365D02*
X840Y365D01*
X850Y365D02*
X857Y365D01*
X898Y365D02*
X904Y365D01*
X912Y365D02*
X918Y365D01*
X2055Y365D02*
X2062Y365D01*
X0Y364D02*
X7Y364D01*
X23Y364D02*
X29Y364D01*
X47Y364D02*
X53Y364D01*
X70Y364D02*
X76Y364D01*
X98Y364D02*
X103Y364D01*
X236Y364D02*
X241Y364D01*
X419Y364D02*
X425Y364D01*
X444Y364D02*
X451Y364D01*
X491Y364D02*
X497Y364D01*
X676Y364D02*
X682Y364D01*
X693Y364D02*
X700Y364D01*
X726Y364D02*
X732Y364D01*
X834Y364D02*
X840Y364D01*
X851Y364D02*
X858Y364D01*
X898Y364D02*
X904Y364D01*
X912Y364D02*
X918Y364D01*
X2055Y364D02*
X2062Y364D01*
X0Y363D02*
X7Y363D01*
X23Y363D02*
X29Y363D01*
X47Y363D02*
X53Y363D01*
X70Y363D02*
X76Y363D01*
X99Y363D02*
X103Y363D01*
X236Y363D02*
X240Y363D01*
X419Y363D02*
X425Y363D01*
X444Y363D02*
X452Y363D01*
X491Y363D02*
X497Y363D01*
X676Y363D02*
X682Y363D01*
X693Y363D02*
X700Y363D01*
X726Y363D02*
X732Y363D01*
X834Y363D02*
X840Y363D01*
X851Y363D02*
X859Y363D01*
X898Y363D02*
X904Y363D01*
X912Y363D02*
X918Y363D01*
X1825Y363D02*
X1825Y363D01*
X2055Y363D02*
X2062Y363D01*
X0Y362D02*
X7Y362D01*
X23Y362D02*
X29Y362D01*
X47Y362D02*
X53Y362D01*
X70Y362D02*
X76Y362D01*
X99Y362D02*
X104Y362D01*
X235Y362D02*
X240Y362D01*
X419Y362D02*
X425Y362D01*
X445Y362D02*
X452Y362D01*
X491Y362D02*
X497Y362D01*
X676Y362D02*
X682Y362D01*
X694Y362D02*
X701Y362D01*
X726Y362D02*
X732Y362D01*
X834Y362D02*
X840Y362D01*
X852Y362D02*
X859Y362D01*
X898Y362D02*
X904Y362D01*
X912Y362D02*
X918Y362D01*
X1793Y362D02*
X1795Y362D01*
X1824Y362D02*
X1825Y362D01*
X2055Y362D02*
X2062Y362D01*
X0Y361D02*
X7Y361D01*
X23Y361D02*
X29Y361D01*
X47Y361D02*
X53Y361D01*
X70Y361D02*
X76Y361D01*
X100Y361D02*
X104Y361D01*
X234Y361D02*
X239Y361D01*
X419Y361D02*
X425Y361D01*
X446Y361D02*
X452Y361D01*
X491Y361D02*
X497Y361D01*
X676Y361D02*
X682Y361D01*
X694Y361D02*
X702Y361D01*
X726Y361D02*
X732Y361D01*
X834Y361D02*
X840Y361D01*
X853Y361D02*
X860Y361D01*
X898Y361D02*
X904Y361D01*
X912Y361D02*
X918Y361D01*
X1792Y361D02*
X1796Y361D01*
X1822Y361D02*
X1826Y361D01*
X2055Y361D02*
X2062Y361D01*
X0Y360D02*
X7Y360D01*
X23Y360D02*
X29Y360D01*
X47Y360D02*
X53Y360D01*
X70Y360D02*
X76Y360D01*
X100Y360D02*
X105Y360D01*
X234Y360D02*
X239Y360D01*
X419Y360D02*
X425Y360D01*
X446Y360D02*
X452Y360D01*
X492Y360D02*
X497Y360D01*
X676Y360D02*
X682Y360D01*
X695Y360D02*
X702Y360D01*
X726Y360D02*
X732Y360D01*
X834Y360D02*
X840Y360D01*
X853Y360D02*
X860Y360D01*
X898Y360D02*
X904Y360D01*
X912Y360D02*
X918Y360D01*
X1792Y360D02*
X1798Y360D01*
X1820Y360D02*
X1827Y360D01*
X2055Y360D02*
X2062Y360D01*
X0Y359D02*
X7Y359D01*
X23Y359D02*
X29Y359D01*
X47Y359D02*
X53Y359D01*
X70Y359D02*
X76Y359D01*
X101Y359D02*
X105Y359D01*
X233Y359D02*
X238Y359D01*
X419Y359D02*
X424Y359D01*
X447Y359D02*
X452Y359D01*
X492Y359D02*
X497Y359D01*
X676Y359D02*
X682Y359D01*
X696Y359D02*
X703Y359D01*
X726Y359D02*
X732Y359D01*
X834Y359D02*
X840Y359D01*
X854Y359D02*
X861Y359D01*
X898Y359D02*
X904Y359D01*
X912Y359D02*
X918Y359D01*
X1791Y359D02*
X1800Y359D01*
X1818Y359D02*
X1827Y359D01*
X2055Y359D02*
X2062Y359D01*
X0Y358D02*
X7Y358D01*
X23Y358D02*
X29Y358D01*
X47Y358D02*
X53Y358D01*
X70Y358D02*
X76Y358D01*
X101Y358D02*
X106Y358D01*
X233Y358D02*
X238Y358D01*
X420Y358D02*
X423Y358D01*
X448Y358D02*
X451Y358D01*
X493Y358D02*
X496Y358D01*
X676Y358D02*
X682Y358D01*
X696Y358D02*
X703Y358D01*
X726Y358D02*
X732Y358D01*
X834Y358D02*
X840Y358D01*
X854Y358D02*
X862Y358D01*
X898Y358D02*
X904Y358D01*
X912Y358D02*
X918Y358D01*
X1790Y358D02*
X1804Y358D01*
X1814Y358D02*
X1828Y358D01*
X2055Y358D02*
X2062Y358D01*
X0Y357D02*
X7Y357D01*
X23Y357D02*
X29Y357D01*
X47Y357D02*
X53Y357D01*
X70Y357D02*
X76Y357D01*
X102Y357D02*
X107Y357D01*
X232Y357D02*
X237Y357D01*
X676Y357D02*
X682Y357D01*
X697Y357D02*
X704Y357D01*
X726Y357D02*
X732Y357D01*
X834Y357D02*
X840Y357D01*
X855Y357D02*
X862Y357D01*
X898Y357D02*
X904Y357D01*
X912Y357D02*
X918Y357D01*
X1789Y357D02*
X1829Y357D01*
X2055Y357D02*
X2062Y357D01*
X0Y356D02*
X7Y356D01*
X23Y356D02*
X29Y356D01*
X47Y356D02*
X53Y356D01*
X70Y356D02*
X76Y356D01*
X102Y356D02*
X107Y356D01*
X231Y356D02*
X237Y356D01*
X676Y356D02*
X682Y356D01*
X697Y356D02*
X705Y356D01*
X726Y356D02*
X732Y356D01*
X834Y356D02*
X840Y356D01*
X856Y356D02*
X863Y356D01*
X898Y356D02*
X904Y356D01*
X912Y356D02*
X918Y356D01*
X1790Y356D02*
X1828Y356D01*
X2055Y356D02*
X2062Y356D01*
X0Y355D02*
X7Y355D01*
X23Y355D02*
X76Y355D01*
X103Y355D02*
X108Y355D01*
X231Y355D02*
X236Y355D01*
X676Y355D02*
X682Y355D01*
X698Y355D02*
X705Y355D01*
X726Y355D02*
X732Y355D01*
X834Y355D02*
X840Y355D01*
X856Y355D02*
X863Y355D01*
X898Y355D02*
X904Y355D01*
X912Y355D02*
X918Y355D01*
X1792Y355D02*
X1826Y355D01*
X2055Y355D02*
X2062Y355D01*
X0Y354D02*
X7Y354D01*
X23Y354D02*
X76Y354D01*
X104Y354D02*
X109Y354D01*
X230Y354D02*
X235Y354D01*
X676Y354D02*
X682Y354D01*
X699Y354D02*
X706Y354D01*
X726Y354D02*
X732Y354D01*
X834Y354D02*
X840Y354D01*
X857Y354D02*
X864Y354D01*
X898Y354D02*
X904Y354D01*
X912Y354D02*
X918Y354D01*
X1793Y354D02*
X1825Y354D01*
X2055Y354D02*
X2062Y354D01*
X0Y353D02*
X7Y353D01*
X23Y353D02*
X76Y353D01*
X104Y353D02*
X109Y353D01*
X229Y353D02*
X234Y353D01*
X676Y353D02*
X682Y353D01*
X699Y353D02*
X706Y353D01*
X726Y353D02*
X732Y353D01*
X834Y353D02*
X840Y353D01*
X857Y353D02*
X864Y353D01*
X898Y353D02*
X904Y353D01*
X912Y353D02*
X918Y353D01*
X1796Y353D02*
X1823Y353D01*
X2055Y353D02*
X2062Y353D01*
X0Y352D02*
X7Y352D01*
X23Y352D02*
X76Y352D01*
X105Y352D02*
X110Y352D01*
X228Y352D02*
X234Y352D01*
X676Y352D02*
X682Y352D01*
X700Y352D02*
X707Y352D01*
X726Y352D02*
X732Y352D01*
X834Y352D02*
X840Y352D01*
X858Y352D02*
X865Y352D01*
X898Y352D02*
X904Y352D01*
X912Y352D02*
X918Y352D01*
X1798Y352D02*
X1820Y352D01*
X2055Y352D02*
X2062Y352D01*
X0Y351D02*
X7Y351D01*
X23Y351D02*
X76Y351D01*
X106Y351D02*
X111Y351D01*
X228Y351D02*
X233Y351D01*
X676Y351D02*
X682Y351D01*
X700Y351D02*
X707Y351D01*
X726Y351D02*
X732Y351D01*
X834Y351D02*
X840Y351D01*
X858Y351D02*
X866Y351D01*
X898Y351D02*
X904Y351D01*
X912Y351D02*
X918Y351D01*
X1801Y351D02*
X1817Y351D01*
X2055Y351D02*
X2062Y351D01*
X0Y350D02*
X7Y350D01*
X23Y350D02*
X76Y350D01*
X106Y350D02*
X112Y350D01*
X227Y350D02*
X232Y350D01*
X458Y350D02*
X471Y350D01*
X676Y350D02*
X682Y350D01*
X701Y350D02*
X708Y350D01*
X726Y350D02*
X732Y350D01*
X834Y350D02*
X840Y350D01*
X859Y350D02*
X866Y350D01*
X888Y350D02*
X918Y350D01*
X1808Y350D02*
X1810Y350D01*
X2055Y350D02*
X2062Y350D01*
X0Y349D02*
X7Y349D01*
X23Y349D02*
X76Y349D01*
X107Y349D02*
X113Y349D01*
X226Y349D02*
X232Y349D01*
X452Y349D02*
X477Y349D01*
X676Y349D02*
X682Y349D01*
X701Y349D02*
X709Y349D01*
X726Y349D02*
X758Y349D01*
X834Y349D02*
X840Y349D01*
X860Y349D02*
X867Y349D01*
X885Y349D02*
X918Y349D01*
X2055Y349D02*
X2062Y349D01*
X0Y348D02*
X7Y348D01*
X108Y348D02*
X114Y348D01*
X225Y348D02*
X231Y348D01*
X448Y348D02*
X481Y348D01*
X676Y348D02*
X682Y348D01*
X702Y348D02*
X709Y348D01*
X726Y348D02*
X759Y348D01*
X834Y348D02*
X840Y348D01*
X860Y348D02*
X867Y348D01*
X885Y348D02*
X918Y348D01*
X2055Y348D02*
X2062Y348D01*
X0Y347D02*
X7Y347D01*
X109Y347D02*
X115Y347D01*
X224Y347D02*
X230Y347D01*
X445Y347D02*
X484Y347D01*
X676Y347D02*
X682Y347D01*
X703Y347D02*
X710Y347D01*
X726Y347D02*
X760Y347D01*
X834Y347D02*
X840Y347D01*
X861Y347D02*
X868Y347D01*
X884Y347D02*
X918Y347D01*
X2055Y347D02*
X2062Y347D01*
X0Y346D02*
X7Y346D01*
X110Y346D02*
X116Y346D01*
X223Y346D02*
X229Y346D01*
X442Y346D02*
X487Y346D01*
X676Y346D02*
X682Y346D01*
X703Y346D02*
X710Y346D01*
X726Y346D02*
X760Y346D01*
X834Y346D02*
X840Y346D01*
X861Y346D02*
X868Y346D01*
X884Y346D02*
X918Y346D01*
X2055Y346D02*
X2062Y346D01*
X0Y345D02*
X7Y345D01*
X110Y345D02*
X117Y345D01*
X222Y345D02*
X228Y345D01*
X440Y345D02*
X489Y345D01*
X676Y345D02*
X682Y345D01*
X704Y345D02*
X710Y345D01*
X726Y345D02*
X760Y345D01*
X835Y345D02*
X840Y345D01*
X862Y345D02*
X867Y345D01*
X885Y345D02*
X917Y345D01*
X2055Y345D02*
X2062Y345D01*
X0Y344D02*
X7Y344D01*
X111Y344D02*
X118Y344D01*
X221Y344D02*
X227Y344D01*
X438Y344D02*
X491Y344D01*
X677Y344D02*
X681Y344D01*
X705Y344D02*
X709Y344D01*
X726Y344D02*
X759Y344D01*
X835Y344D02*
X839Y344D01*
X863Y344D02*
X867Y344D01*
X885Y344D02*
X917Y344D01*
X2055Y344D02*
X2062Y344D01*
X0Y343D02*
X7Y343D01*
X112Y343D02*
X119Y343D01*
X220Y343D02*
X227Y343D01*
X436Y343D02*
X493Y343D01*
X678Y343D02*
X680Y343D01*
X706Y343D02*
X708Y343D01*
X726Y343D02*
X758Y343D01*
X1790Y343D02*
X1808Y343D01*
X1827Y343D02*
X1846Y343D01*
X2055Y343D02*
X2062Y343D01*
X0Y342D02*
X7Y342D01*
X113Y342D02*
X120Y342D01*
X219Y342D02*
X225Y342D01*
X434Y342D02*
X495Y342D01*
X1788Y342D02*
X1809Y342D01*
X1827Y342D02*
X1846Y342D01*
X2055Y342D02*
X2062Y342D01*
X0Y341D02*
X7Y341D01*
X114Y341D02*
X121Y341D01*
X218Y341D02*
X224Y341D01*
X433Y341D02*
X497Y341D01*
X1787Y341D02*
X1809Y341D01*
X1826Y341D02*
X1846Y341D01*
X2055Y341D02*
X2062Y341D01*
X0Y340D02*
X7Y340D01*
X115Y340D02*
X122Y340D01*
X217Y340D02*
X223Y340D01*
X431Y340D02*
X458Y340D01*
X472Y340D02*
X499Y340D01*
X1786Y340D02*
X1809Y340D01*
X1826Y340D02*
X1846Y340D01*
X2055Y340D02*
X2062Y340D01*
X0Y339D02*
X7Y339D01*
X116Y339D02*
X123Y339D01*
X216Y339D02*
X222Y339D01*
X429Y339D02*
X452Y339D01*
X477Y339D02*
X500Y339D01*
X1785Y339D02*
X1809Y339D01*
X1827Y339D02*
X1846Y339D01*
X2055Y339D02*
X2062Y339D01*
X0Y338D02*
X7Y338D01*
X118Y338D02*
X125Y338D01*
X214Y338D02*
X221Y338D01*
X428Y338D02*
X448Y338D01*
X481Y338D02*
X501Y338D01*
X1785Y338D02*
X1808Y338D01*
X1827Y338D02*
X1846Y338D01*
X2055Y338D02*
X2062Y338D01*
X0Y337D02*
X7Y337D01*
X119Y337D02*
X126Y337D01*
X213Y337D02*
X220Y337D01*
X427Y337D02*
X445Y337D01*
X484Y337D02*
X503Y337D01*
X1784Y337D02*
X1806Y337D01*
X1829Y337D02*
X1846Y337D01*
X2055Y337D02*
X2062Y337D01*
X0Y336D02*
X7Y336D01*
X120Y336D02*
X127Y336D01*
X211Y336D02*
X219Y336D01*
X425Y336D02*
X443Y336D01*
X486Y336D02*
X504Y336D01*
X867Y336D02*
X877Y336D01*
X1784Y336D02*
X1791Y336D01*
X1840Y336D02*
X1846Y336D01*
X2055Y336D02*
X2062Y336D01*
X0Y335D02*
X7Y335D01*
X121Y335D02*
X129Y335D01*
X210Y335D02*
X218Y335D01*
X424Y335D02*
X441Y335D01*
X488Y335D02*
X505Y335D01*
X860Y335D02*
X883Y335D01*
X1783Y335D02*
X1790Y335D01*
X1840Y335D02*
X1846Y335D01*
X2055Y335D02*
X2062Y335D01*
X0Y334D02*
X7Y334D01*
X122Y334D02*
X131Y334D01*
X208Y334D02*
X216Y334D01*
X423Y334D02*
X439Y334D01*
X490Y334D02*
X506Y334D01*
X856Y334D02*
X887Y334D01*
X1783Y334D02*
X1790Y334D01*
X1840Y334D02*
X1846Y334D01*
X2055Y334D02*
X2062Y334D01*
X0Y333D02*
X7Y333D01*
X124Y333D02*
X132Y333D01*
X207Y333D02*
X215Y333D01*
X422Y333D02*
X437Y333D01*
X492Y333D02*
X507Y333D01*
X853Y333D02*
X891Y333D01*
X1782Y333D02*
X1789Y333D01*
X1840Y333D02*
X1846Y333D01*
X2055Y333D02*
X2062Y333D01*
X0Y332D02*
X7Y332D01*
X72Y332D02*
X75Y332D01*
X125Y332D02*
X132Y332D01*
X207Y332D02*
X214Y332D01*
X421Y332D02*
X436Y332D01*
X494Y332D02*
X508Y332D01*
X850Y332D02*
X893Y332D01*
X1782Y332D02*
X1789Y332D01*
X1840Y332D02*
X1846Y332D01*
X2055Y332D02*
X2062Y332D01*
X0Y331D02*
X7Y331D01*
X71Y331D02*
X76Y331D01*
X127Y331D02*
X132Y331D01*
X207Y331D02*
X212Y331D01*
X420Y331D02*
X434Y331D01*
X495Y331D02*
X509Y331D01*
X847Y331D02*
X896Y331D01*
X1781Y331D02*
X1788Y331D01*
X1840Y331D02*
X1846Y331D01*
X2055Y331D02*
X2062Y331D01*
X0Y330D02*
X7Y330D01*
X71Y330D02*
X76Y330D01*
X128Y330D02*
X132Y330D01*
X207Y330D02*
X211Y330D01*
X419Y330D02*
X433Y330D01*
X496Y330D02*
X510Y330D01*
X845Y330D02*
X898Y330D01*
X1781Y330D02*
X1788Y330D01*
X1840Y330D02*
X1846Y330D01*
X2055Y330D02*
X2062Y330D01*
X0Y329D02*
X7Y329D01*
X70Y329D02*
X76Y329D01*
X130Y329D02*
X132Y329D01*
X418Y329D02*
X432Y329D01*
X498Y329D02*
X511Y329D01*
X843Y329D02*
X900Y329D01*
X1780Y329D02*
X1787Y329D01*
X1840Y329D02*
X1846Y329D01*
X2055Y329D02*
X2062Y329D01*
X0Y328D02*
X7Y328D01*
X70Y328D02*
X76Y328D01*
X417Y328D02*
X430Y328D01*
X499Y328D02*
X512Y328D01*
X716Y328D02*
X730Y328D01*
X841Y328D02*
X902Y328D01*
X1780Y328D02*
X1787Y328D01*
X1840Y328D02*
X1846Y328D01*
X2055Y328D02*
X2062Y328D01*
X0Y327D02*
X7Y327D01*
X70Y327D02*
X76Y327D01*
X417Y327D02*
X429Y327D01*
X500Y327D02*
X513Y327D01*
X710Y327D02*
X736Y327D01*
X840Y327D02*
X903Y327D01*
X1779Y327D02*
X1786Y327D01*
X1840Y327D02*
X1846Y327D01*
X2055Y327D02*
X2062Y327D01*
X0Y326D02*
X7Y326D01*
X70Y326D02*
X76Y326D01*
X416Y326D02*
X428Y326D01*
X501Y326D02*
X513Y326D01*
X706Y326D02*
X739Y326D01*
X838Y326D02*
X866Y326D01*
X878Y326D02*
X905Y326D01*
X1779Y326D02*
X1785Y326D01*
X1840Y326D02*
X1846Y326D01*
X2055Y326D02*
X2062Y326D01*
X0Y325D02*
X7Y325D01*
X70Y325D02*
X76Y325D01*
X415Y325D02*
X427Y325D01*
X502Y325D02*
X514Y325D01*
X703Y325D02*
X743Y325D01*
X837Y325D02*
X859Y325D01*
X884Y325D02*
X907Y325D01*
X1778Y325D02*
X1785Y325D01*
X1840Y325D02*
X1846Y325D01*
X2055Y325D02*
X2062Y325D01*
X0Y324D02*
X7Y324D01*
X70Y324D02*
X76Y324D01*
X414Y324D02*
X426Y324D01*
X503Y324D02*
X515Y324D01*
X701Y324D02*
X745Y324D01*
X835Y324D02*
X856Y324D01*
X888Y324D02*
X908Y324D01*
X1778Y324D02*
X1784Y324D01*
X1840Y324D02*
X1846Y324D01*
X2055Y324D02*
X2062Y324D01*
X0Y323D02*
X7Y323D01*
X70Y323D02*
X76Y323D01*
X414Y323D02*
X425Y323D01*
X504Y323D02*
X516Y323D01*
X698Y323D02*
X748Y323D01*
X834Y323D02*
X853Y323D01*
X890Y323D02*
X909Y323D01*
X1777Y323D02*
X1784Y323D01*
X1840Y323D02*
X1846Y323D01*
X2055Y323D02*
X2062Y323D01*
X0Y322D02*
X7Y322D01*
X70Y322D02*
X76Y322D01*
X413Y322D02*
X424Y322D01*
X505Y322D02*
X516Y322D01*
X696Y322D02*
X750Y322D01*
X833Y322D02*
X850Y322D01*
X893Y322D02*
X911Y322D01*
X1777Y322D02*
X1783Y322D01*
X1840Y322D02*
X1846Y322D01*
X2055Y322D02*
X2062Y322D01*
X0Y321D02*
X7Y321D01*
X70Y321D02*
X76Y321D01*
X413Y321D02*
X424Y321D01*
X506Y321D02*
X517Y321D01*
X694Y321D02*
X752Y321D01*
X831Y321D02*
X848Y321D01*
X895Y321D02*
X912Y321D01*
X1777Y321D02*
X1783Y321D01*
X1840Y321D02*
X1846Y321D01*
X2055Y321D02*
X2062Y321D01*
X0Y320D02*
X7Y320D01*
X70Y320D02*
X76Y320D01*
X412Y320D02*
X423Y320D01*
X506Y320D02*
X517Y320D01*
X692Y320D02*
X753Y320D01*
X830Y320D02*
X846Y320D01*
X897Y320D02*
X913Y320D01*
X1776Y320D02*
X1783Y320D01*
X1840Y320D02*
X1846Y320D01*
X2055Y320D02*
X2062Y320D01*
X0Y319D02*
X7Y319D01*
X70Y319D02*
X76Y319D01*
X411Y319D02*
X422Y319D01*
X507Y319D02*
X518Y319D01*
X691Y319D02*
X755Y319D01*
X829Y319D02*
X845Y319D01*
X899Y319D02*
X914Y319D01*
X1776Y319D02*
X1782Y319D01*
X1840Y319D02*
X1846Y319D01*
X2055Y319D02*
X2062Y319D01*
X0Y318D02*
X7Y318D01*
X70Y318D02*
X76Y318D01*
X411Y318D02*
X421Y318D01*
X508Y318D02*
X519Y318D01*
X689Y318D02*
X716Y318D01*
X730Y318D02*
X757Y318D01*
X828Y318D02*
X843Y318D01*
X900Y318D02*
X915Y318D01*
X1776Y318D02*
X1782Y318D01*
X1840Y318D02*
X1846Y318D01*
X2055Y318D02*
X2062Y318D01*
X0Y317D02*
X7Y317D01*
X70Y317D02*
X76Y317D01*
X410Y317D02*
X421Y317D01*
X509Y317D02*
X519Y317D01*
X688Y317D02*
X710Y317D01*
X736Y317D02*
X758Y317D01*
X827Y317D02*
X841Y317D01*
X902Y317D02*
X916Y317D01*
X1776Y317D02*
X1782Y317D01*
X1840Y317D02*
X1846Y317D01*
X2055Y317D02*
X2062Y317D01*
X0Y316D02*
X7Y316D01*
X70Y316D02*
X76Y316D01*
X410Y316D02*
X420Y316D01*
X509Y316D02*
X520Y316D01*
X686Y316D02*
X706Y316D01*
X740Y316D02*
X760Y316D01*
X826Y316D02*
X840Y316D01*
X903Y316D02*
X917Y316D01*
X1776Y316D02*
X1782Y316D01*
X1840Y316D02*
X1846Y316D01*
X2055Y316D02*
X2062Y316D01*
X0Y315D02*
X7Y315D01*
X70Y315D02*
X76Y315D01*
X409Y315D02*
X419Y315D01*
X510Y315D02*
X520Y315D01*
X685Y315D02*
X704Y315D01*
X742Y315D02*
X761Y315D01*
X825Y315D02*
X839Y315D01*
X904Y315D02*
X918Y315D01*
X1776Y315D02*
X1782Y315D01*
X1840Y315D02*
X1846Y315D01*
X2055Y315D02*
X2062Y315D01*
X0Y314D02*
X7Y314D01*
X70Y314D02*
X76Y314D01*
X409Y314D02*
X419Y314D01*
X511Y314D02*
X521Y314D01*
X684Y314D02*
X701Y314D01*
X745Y314D02*
X762Y314D01*
X825Y314D02*
X838Y314D01*
X906Y314D02*
X919Y314D01*
X1776Y314D02*
X1783Y314D01*
X1840Y314D02*
X1846Y314D01*
X1856Y314D02*
X1858Y314D01*
X2055Y314D02*
X2062Y314D01*
X0Y313D02*
X7Y313D01*
X70Y313D02*
X76Y313D01*
X408Y313D02*
X418Y313D01*
X511Y313D02*
X521Y313D01*
X683Y313D02*
X699Y313D01*
X747Y313D02*
X763Y313D01*
X824Y313D02*
X836Y313D01*
X907Y313D02*
X919Y313D01*
X1777Y313D02*
X1783Y313D01*
X1840Y313D02*
X1846Y313D01*
X1854Y313D02*
X1859Y313D01*
X2055Y313D02*
X2062Y313D01*
X0Y312D02*
X7Y312D01*
X70Y312D02*
X76Y312D01*
X408Y312D02*
X418Y312D01*
X512Y312D02*
X521Y312D01*
X681Y312D02*
X697Y312D01*
X749Y312D02*
X764Y312D01*
X823Y312D02*
X835Y312D01*
X908Y312D02*
X920Y312D01*
X1777Y312D02*
X1783Y312D01*
X1840Y312D02*
X1846Y312D01*
X1854Y312D02*
X1860Y312D01*
X2055Y312D02*
X2062Y312D01*
X0Y311D02*
X7Y311D01*
X70Y311D02*
X76Y311D01*
X408Y311D02*
X417Y311D01*
X512Y311D02*
X522Y311D01*
X680Y311D02*
X696Y311D01*
X750Y311D02*
X766Y311D01*
X822Y311D02*
X834Y311D01*
X909Y311D02*
X921Y311D01*
X1777Y311D02*
X1784Y311D01*
X1840Y311D02*
X1846Y311D01*
X1854Y311D02*
X1860Y311D01*
X2055Y311D02*
X2062Y311D01*
X0Y310D02*
X7Y310D01*
X70Y310D02*
X76Y310D01*
X407Y310D02*
X417Y310D01*
X513Y310D02*
X522Y310D01*
X679Y310D02*
X694Y310D01*
X752Y310D02*
X767Y310D01*
X822Y310D02*
X833Y310D01*
X910Y310D02*
X922Y310D01*
X1778Y310D02*
X1784Y310D01*
X1840Y310D02*
X1846Y310D01*
X1854Y310D02*
X1860Y310D01*
X2055Y310D02*
X2062Y310D01*
X0Y309D02*
X7Y309D01*
X70Y309D02*
X76Y309D01*
X407Y309D02*
X416Y309D01*
X513Y309D02*
X523Y309D01*
X678Y309D02*
X692Y309D01*
X753Y309D02*
X767Y309D01*
X821Y309D02*
X832Y309D01*
X911Y309D02*
X922Y309D01*
X1778Y309D02*
X1785Y309D01*
X1840Y309D02*
X1846Y309D01*
X1854Y309D02*
X1860Y309D01*
X2055Y309D02*
X2062Y309D01*
X0Y308D02*
X7Y308D01*
X70Y308D02*
X76Y308D01*
X406Y308D02*
X416Y308D01*
X513Y308D02*
X523Y308D01*
X677Y308D02*
X691Y308D01*
X755Y308D02*
X768Y308D01*
X820Y308D02*
X832Y308D01*
X912Y308D02*
X923Y308D01*
X1779Y308D02*
X1785Y308D01*
X1840Y308D02*
X1846Y308D01*
X1854Y308D02*
X1860Y308D01*
X2055Y308D02*
X2062Y308D01*
X0Y307D02*
X7Y307D01*
X70Y307D02*
X76Y307D01*
X406Y307D02*
X416Y307D01*
X514Y307D02*
X523Y307D01*
X677Y307D02*
X690Y307D01*
X756Y307D02*
X769Y307D01*
X820Y307D02*
X831Y307D01*
X913Y307D02*
X924Y307D01*
X1779Y307D02*
X1786Y307D01*
X1840Y307D02*
X1846Y307D01*
X1854Y307D02*
X1860Y307D01*
X2055Y307D02*
X2062Y307D01*
X0Y306D02*
X7Y306D01*
X70Y306D02*
X76Y306D01*
X406Y306D02*
X415Y306D01*
X514Y306D02*
X524Y306D01*
X676Y306D02*
X689Y306D01*
X757Y306D02*
X770Y306D01*
X819Y306D02*
X830Y306D01*
X913Y306D02*
X924Y306D01*
X1780Y306D02*
X1786Y306D01*
X1840Y306D02*
X1846Y306D01*
X1854Y306D02*
X1860Y306D01*
X2055Y306D02*
X2062Y306D01*
X0Y305D02*
X7Y305D01*
X26Y305D02*
X76Y305D01*
X406Y305D02*
X415Y305D01*
X515Y305D02*
X524Y305D01*
X675Y305D02*
X688Y305D01*
X758Y305D02*
X771Y305D01*
X818Y305D02*
X829Y305D01*
X914Y305D02*
X925Y305D01*
X1780Y305D02*
X1787Y305D01*
X1840Y305D02*
X1846Y305D01*
X1854Y305D02*
X1860Y305D01*
X2055Y305D02*
X2062Y305D01*
X0Y304D02*
X7Y304D01*
X24Y304D02*
X76Y304D01*
X405Y304D02*
X414Y304D01*
X515Y304D02*
X524Y304D01*
X674Y304D02*
X686Y304D01*
X759Y304D02*
X772Y304D01*
X818Y304D02*
X828Y304D01*
X915Y304D02*
X925Y304D01*
X1781Y304D02*
X1787Y304D01*
X1840Y304D02*
X1846Y304D01*
X1854Y304D02*
X1860Y304D01*
X2055Y304D02*
X2062Y304D01*
X0Y303D02*
X7Y303D01*
X24Y303D02*
X76Y303D01*
X405Y303D02*
X414Y303D01*
X505Y303D02*
X524Y303D01*
X673Y303D02*
X685Y303D01*
X760Y303D02*
X772Y303D01*
X817Y303D02*
X828Y303D01*
X916Y303D02*
X926Y303D01*
X1781Y303D02*
X1788Y303D01*
X1840Y303D02*
X1846Y303D01*
X1854Y303D02*
X1860Y303D01*
X2055Y303D02*
X2062Y303D01*
X0Y302D02*
X7Y302D01*
X23Y302D02*
X76Y302D01*
X405Y302D02*
X414Y302D01*
X505Y302D02*
X524Y302D01*
X673Y302D02*
X685Y302D01*
X761Y302D02*
X773Y302D01*
X817Y302D02*
X827Y302D01*
X916Y302D02*
X926Y302D01*
X1782Y302D02*
X1788Y302D01*
X1840Y302D02*
X1846Y302D01*
X1854Y302D02*
X1860Y302D01*
X2055Y302D02*
X2062Y302D01*
X0Y301D02*
X7Y301D01*
X23Y301D02*
X76Y301D01*
X405Y301D02*
X414Y301D01*
X506Y301D02*
X524Y301D01*
X672Y301D02*
X684Y301D01*
X762Y301D02*
X774Y301D01*
X816Y301D02*
X826Y301D01*
X917Y301D02*
X927Y301D01*
X1782Y301D02*
X1789Y301D01*
X1840Y301D02*
X1846Y301D01*
X1854Y301D02*
X1860Y301D01*
X2055Y301D02*
X2062Y301D01*
X0Y300D02*
X7Y300D01*
X24Y300D02*
X76Y300D01*
X404Y300D02*
X413Y300D01*
X506Y300D02*
X523Y300D01*
X671Y300D02*
X683Y300D01*
X763Y300D02*
X774Y300D01*
X816Y300D02*
X826Y300D01*
X917Y300D02*
X927Y300D01*
X1783Y300D02*
X1789Y300D01*
X1840Y300D02*
X1846Y300D01*
X1854Y300D02*
X1860Y300D01*
X2055Y300D02*
X2062Y300D01*
X0Y299D02*
X7Y299D01*
X25Y299D02*
X76Y299D01*
X404Y299D02*
X413Y299D01*
X506Y299D02*
X523Y299D01*
X671Y299D02*
X682Y299D01*
X764Y299D02*
X775Y299D01*
X815Y299D02*
X825Y299D01*
X918Y299D02*
X928Y299D01*
X1783Y299D02*
X1790Y299D01*
X1840Y299D02*
X1846Y299D01*
X1854Y299D02*
X1860Y299D01*
X2055Y299D02*
X2062Y299D01*
X0Y298D02*
X7Y298D01*
X404Y298D02*
X413Y298D01*
X506Y298D02*
X523Y298D01*
X670Y298D02*
X681Y298D01*
X765Y298D02*
X776Y298D01*
X815Y298D02*
X825Y298D01*
X918Y298D02*
X928Y298D01*
X1784Y298D02*
X1791Y298D01*
X1840Y298D02*
X1846Y298D01*
X1854Y298D02*
X1860Y298D01*
X2055Y298D02*
X2062Y298D01*
X0Y297D02*
X7Y297D01*
X404Y297D02*
X413Y297D01*
X507Y297D02*
X523Y297D01*
X670Y297D02*
X680Y297D01*
X766Y297D02*
X776Y297D01*
X815Y297D02*
X824Y297D01*
X919Y297D02*
X929Y297D01*
X1784Y297D02*
X1792Y297D01*
X1840Y297D02*
X1846Y297D01*
X1854Y297D02*
X1860Y297D01*
X2055Y297D02*
X2062Y297D01*
X0Y296D02*
X7Y296D01*
X404Y296D02*
X413Y296D01*
X507Y296D02*
X522Y296D01*
X669Y296D02*
X680Y296D01*
X766Y296D02*
X777Y296D01*
X814Y296D02*
X824Y296D01*
X919Y296D02*
X929Y296D01*
X1785Y296D02*
X1808Y296D01*
X1828Y296D02*
X1860Y296D01*
X2055Y296D02*
X2062Y296D01*
X0Y295D02*
X7Y295D01*
X404Y295D02*
X413Y295D01*
X507Y295D02*
X522Y295D01*
X669Y295D02*
X679Y295D01*
X767Y295D02*
X777Y295D01*
X814Y295D02*
X823Y295D01*
X920Y295D02*
X929Y295D01*
X1785Y295D02*
X1809Y295D01*
X1827Y295D02*
X1860Y295D01*
X2055Y295D02*
X2062Y295D01*
X0Y294D02*
X7Y294D01*
X403Y294D02*
X412Y294D01*
X507Y294D02*
X522Y294D01*
X668Y294D02*
X678Y294D01*
X768Y294D02*
X778Y294D01*
X813Y294D02*
X823Y294D01*
X920Y294D02*
X930Y294D01*
X1786Y294D02*
X1809Y294D01*
X1826Y294D02*
X1860Y294D01*
X2055Y294D02*
X2062Y294D01*
X0Y293D02*
X7Y293D01*
X403Y293D02*
X412Y293D01*
X507Y293D02*
X522Y293D01*
X668Y293D02*
X678Y293D01*
X768Y293D02*
X778Y293D01*
X813Y293D02*
X823Y293D01*
X921Y293D02*
X930Y293D01*
X1787Y293D02*
X1810Y293D01*
X1826Y293D02*
X1860Y293D01*
X2055Y293D02*
X2062Y293D01*
X0Y292D02*
X7Y292D01*
X403Y292D02*
X412Y292D01*
X507Y292D02*
X522Y292D01*
X667Y292D02*
X677Y292D01*
X769Y292D02*
X779Y292D01*
X813Y292D02*
X822Y292D01*
X921Y292D02*
X930Y292D01*
X1788Y292D02*
X1809Y292D01*
X1827Y292D02*
X1859Y292D01*
X2055Y292D02*
X2062Y292D01*
X0Y291D02*
X7Y291D01*
X403Y291D02*
X412Y291D01*
X508Y291D02*
X522Y291D01*
X667Y291D02*
X676Y291D01*
X769Y291D02*
X779Y291D01*
X813Y291D02*
X822Y291D01*
X921Y291D02*
X931Y291D01*
X1790Y291D02*
X1809Y291D01*
X1827Y291D02*
X1859Y291D01*
X2055Y291D02*
X2062Y291D01*
X0Y290D02*
X7Y290D01*
X403Y290D02*
X412Y290D01*
X508Y290D02*
X522Y290D01*
X666Y290D02*
X676Y290D01*
X770Y290D02*
X780Y290D01*
X812Y290D02*
X821Y290D01*
X922Y290D02*
X931Y290D01*
X1792Y290D02*
X1807Y290D01*
X1829Y290D02*
X1857Y290D01*
X2055Y290D02*
X2062Y290D01*
X0Y289D02*
X7Y289D01*
X403Y289D02*
X412Y289D01*
X508Y289D02*
X522Y289D01*
X666Y289D02*
X676Y289D01*
X770Y289D02*
X780Y289D01*
X812Y289D02*
X821Y289D01*
X922Y289D02*
X931Y289D01*
X2055Y289D02*
X2062Y289D01*
X0Y288D02*
X7Y288D01*
X403Y288D02*
X412Y288D01*
X508Y288D02*
X522Y288D01*
X665Y288D02*
X675Y288D01*
X771Y288D02*
X780Y288D01*
X812Y288D02*
X821Y288D01*
X922Y288D02*
X931Y288D01*
X2055Y288D02*
X2062Y288D01*
X0Y287D02*
X7Y287D01*
X403Y287D02*
X412Y287D01*
X508Y287D02*
X522Y287D01*
X665Y287D02*
X675Y287D01*
X771Y287D02*
X781Y287D01*
X811Y287D02*
X821Y287D01*
X923Y287D02*
X932Y287D01*
X2055Y287D02*
X2062Y287D01*
X0Y286D02*
X7Y286D01*
X403Y286D02*
X412Y286D01*
X508Y286D02*
X522Y286D01*
X665Y286D02*
X674Y286D01*
X772Y286D02*
X781Y286D01*
X811Y286D02*
X820Y286D01*
X923Y286D02*
X932Y286D01*
X2055Y286D02*
X2062Y286D01*
X0Y285D02*
X7Y285D01*
X403Y285D02*
X412Y285D01*
X507Y285D02*
X522Y285D01*
X664Y285D02*
X674Y285D01*
X772Y285D02*
X782Y285D01*
X811Y285D02*
X820Y285D01*
X923Y285D02*
X932Y285D01*
X2055Y285D02*
X2062Y285D01*
X0Y284D02*
X7Y284D01*
X403Y284D02*
X412Y284D01*
X507Y284D02*
X522Y284D01*
X664Y284D02*
X673Y284D01*
X772Y284D02*
X782Y284D01*
X811Y284D02*
X820Y284D01*
X923Y284D02*
X932Y284D01*
X2055Y284D02*
X2062Y284D01*
X0Y283D02*
X7Y283D01*
X403Y283D02*
X412Y283D01*
X507Y283D02*
X522Y283D01*
X664Y283D02*
X673Y283D01*
X773Y283D02*
X782Y283D01*
X811Y283D02*
X820Y283D01*
X923Y283D02*
X932Y283D01*
X2055Y283D02*
X2062Y283D01*
X0Y282D02*
X7Y282D01*
X404Y282D02*
X413Y282D01*
X507Y282D02*
X522Y282D01*
X664Y282D02*
X673Y282D01*
X773Y282D02*
X782Y282D01*
X811Y282D02*
X820Y282D01*
X924Y282D02*
X933Y282D01*
X2055Y282D02*
X2062Y282D01*
X0Y281D02*
X7Y281D01*
X404Y281D02*
X413Y281D01*
X507Y281D02*
X522Y281D01*
X663Y281D02*
X672Y281D01*
X773Y281D02*
X783Y281D01*
X811Y281D02*
X820Y281D01*
X924Y281D02*
X933Y281D01*
X2055Y281D02*
X2062Y281D01*
X0Y280D02*
X7Y280D01*
X404Y280D02*
X413Y280D01*
X507Y280D02*
X523Y280D01*
X663Y280D02*
X672Y280D01*
X774Y280D02*
X783Y280D01*
X810Y280D02*
X819Y280D01*
X924Y280D02*
X933Y280D01*
X2055Y280D02*
X2062Y280D01*
X0Y279D02*
X7Y279D01*
X404Y279D02*
X413Y279D01*
X506Y279D02*
X523Y279D01*
X663Y279D02*
X672Y279D01*
X774Y279D02*
X783Y279D01*
X810Y279D02*
X819Y279D01*
X924Y279D02*
X933Y279D01*
X1139Y279D02*
X1170Y279D01*
X1203Y279D02*
X1220Y279D01*
X1240Y279D02*
X1258Y279D01*
X2055Y279D02*
X2062Y279D01*
X0Y278D02*
X7Y278D01*
X404Y278D02*
X413Y278D01*
X506Y278D02*
X523Y278D01*
X663Y278D02*
X672Y278D01*
X774Y278D02*
X783Y278D01*
X810Y278D02*
X819Y278D01*
X924Y278D02*
X933Y278D01*
X1138Y278D02*
X1171Y278D01*
X1200Y278D02*
X1221Y278D01*
X1239Y278D02*
X1258Y278D01*
X2055Y278D02*
X2062Y278D01*
X0Y277D02*
X7Y277D01*
X404Y277D02*
X413Y277D01*
X506Y277D02*
X523Y277D01*
X662Y277D02*
X671Y277D01*
X774Y277D02*
X783Y277D01*
X810Y277D02*
X819Y277D01*
X924Y277D02*
X933Y277D01*
X1138Y277D02*
X1171Y277D01*
X1199Y277D02*
X1221Y277D01*
X1238Y277D02*
X1258Y277D01*
X2055Y277D02*
X2062Y277D01*
X0Y276D02*
X7Y276D01*
X405Y276D02*
X414Y276D01*
X506Y276D02*
X524Y276D01*
X662Y276D02*
X671Y276D01*
X775Y276D02*
X784Y276D01*
X810Y276D02*
X819Y276D01*
X924Y276D02*
X933Y276D01*
X1138Y276D02*
X1171Y276D01*
X1198Y276D02*
X1222Y276D01*
X1238Y276D02*
X1258Y276D01*
X2055Y276D02*
X2062Y276D01*
X0Y275D02*
X7Y275D01*
X405Y275D02*
X414Y275D01*
X505Y275D02*
X524Y275D01*
X662Y275D02*
X671Y275D01*
X775Y275D02*
X784Y275D01*
X810Y275D02*
X819Y275D01*
X924Y275D02*
X933Y275D01*
X1138Y275D02*
X1171Y275D01*
X1197Y275D02*
X1221Y275D01*
X1238Y275D02*
X1258Y275D01*
X2055Y275D02*
X2062Y275D01*
X0Y274D02*
X7Y274D01*
X405Y274D02*
X414Y274D01*
X505Y274D02*
X524Y274D01*
X662Y274D02*
X671Y274D01*
X775Y274D02*
X784Y274D01*
X810Y274D02*
X819Y274D01*
X924Y274D02*
X933Y274D01*
X1139Y274D02*
X1171Y274D01*
X1197Y274D02*
X1221Y274D01*
X1239Y274D02*
X1258Y274D01*
X2055Y274D02*
X2062Y274D01*
X0Y273D02*
X7Y273D01*
X52Y273D02*
X72Y273D01*
X405Y273D02*
X414Y273D01*
X515Y273D02*
X524Y273D01*
X662Y273D02*
X671Y273D01*
X775Y273D02*
X784Y273D01*
X810Y273D02*
X819Y273D01*
X924Y273D02*
X933Y273D01*
X1140Y273D02*
X1169Y273D01*
X1196Y273D02*
X1220Y273D01*
X1240Y273D02*
X1258Y273D01*
X2055Y273D02*
X2062Y273D01*
X0Y272D02*
X7Y272D01*
X51Y272D02*
X73Y272D01*
X406Y272D02*
X415Y272D01*
X515Y272D02*
X524Y272D01*
X662Y272D02*
X671Y272D01*
X775Y272D02*
X784Y272D01*
X810Y272D02*
X819Y272D01*
X924Y272D02*
X933Y272D01*
X1152Y272D02*
X1158Y272D01*
X1196Y272D02*
X1203Y272D01*
X1252Y272D02*
X1258Y272D01*
X2055Y272D02*
X2062Y272D01*
X0Y271D02*
X7Y271D01*
X50Y271D02*
X74Y271D01*
X406Y271D02*
X415Y271D01*
X514Y271D02*
X524Y271D01*
X662Y271D02*
X671Y271D01*
X775Y271D02*
X784Y271D01*
X810Y271D02*
X819Y271D01*
X924Y271D02*
X933Y271D01*
X1152Y271D02*
X1158Y271D01*
X1195Y271D02*
X1202Y271D01*
X1252Y271D02*
X1258Y271D01*
X2055Y271D02*
X2062Y271D01*
X0Y270D02*
X7Y270D01*
X50Y270D02*
X74Y270D01*
X406Y270D02*
X416Y270D01*
X514Y270D02*
X523Y270D01*
X662Y270D02*
X671Y270D01*
X775Y270D02*
X784Y270D01*
X810Y270D02*
X819Y270D01*
X924Y270D02*
X933Y270D01*
X1152Y270D02*
X1158Y270D01*
X1195Y270D02*
X1202Y270D01*
X1252Y270D02*
X1258Y270D01*
X2055Y270D02*
X2062Y270D01*
X0Y269D02*
X7Y269D01*
X50Y269D02*
X74Y269D01*
X406Y269D02*
X416Y269D01*
X513Y269D02*
X523Y269D01*
X662Y269D02*
X671Y269D01*
X775Y269D02*
X784Y269D01*
X810Y269D02*
X819Y269D01*
X924Y269D02*
X933Y269D01*
X1152Y269D02*
X1158Y269D01*
X1194Y269D02*
X1201Y269D01*
X1252Y269D02*
X1258Y269D01*
X2055Y269D02*
X2062Y269D01*
X0Y268D02*
X7Y268D01*
X51Y268D02*
X74Y268D01*
X407Y268D02*
X416Y268D01*
X513Y268D02*
X523Y268D01*
X662Y268D02*
X671Y268D01*
X775Y268D02*
X784Y268D01*
X810Y268D02*
X820Y268D01*
X924Y268D02*
X933Y268D01*
X1152Y268D02*
X1158Y268D01*
X1194Y268D02*
X1201Y268D01*
X1252Y268D02*
X1258Y268D01*
X2055Y268D02*
X2062Y268D01*
X0Y267D02*
X7Y267D01*
X52Y267D02*
X74Y267D01*
X407Y267D02*
X417Y267D01*
X513Y267D02*
X522Y267D01*
X661Y267D02*
X670Y267D01*
X775Y267D02*
X784Y267D01*
X811Y267D02*
X820Y267D01*
X924Y267D02*
X933Y267D01*
X1152Y267D02*
X1158Y267D01*
X1193Y267D02*
X1200Y267D01*
X1252Y267D02*
X1258Y267D01*
X2055Y267D02*
X2062Y267D01*
X0Y266D02*
X7Y266D01*
X68Y266D02*
X74Y266D01*
X408Y266D02*
X417Y266D01*
X512Y266D02*
X522Y266D01*
X661Y266D02*
X670Y266D01*
X775Y266D02*
X784Y266D01*
X811Y266D02*
X820Y266D01*
X923Y266D02*
X932Y266D01*
X1152Y266D02*
X1158Y266D01*
X1193Y266D02*
X1200Y266D01*
X1252Y266D02*
X1258Y266D01*
X2055Y266D02*
X2062Y266D01*
X0Y265D02*
X7Y265D01*
X68Y265D02*
X74Y265D01*
X408Y265D02*
X418Y265D01*
X512Y265D02*
X521Y265D01*
X662Y265D02*
X671Y265D01*
X775Y265D02*
X784Y265D01*
X811Y265D02*
X820Y265D01*
X923Y265D02*
X932Y265D01*
X1152Y265D02*
X1158Y265D01*
X1192Y265D02*
X1199Y265D01*
X1252Y265D02*
X1258Y265D01*
X2055Y265D02*
X2062Y265D01*
X0Y264D02*
X7Y264D01*
X68Y264D02*
X74Y264D01*
X408Y264D02*
X418Y264D01*
X511Y264D02*
X521Y264D01*
X662Y264D02*
X671Y264D01*
X775Y264D02*
X784Y264D01*
X811Y264D02*
X820Y264D01*
X923Y264D02*
X932Y264D01*
X1152Y264D02*
X1158Y264D01*
X1192Y264D02*
X1199Y264D01*
X1252Y264D02*
X1258Y264D01*
X1803Y264D02*
X1803Y264D01*
X1829Y264D02*
X1853Y264D01*
X2055Y264D02*
X2062Y264D01*
X0Y263D02*
X7Y263D01*
X68Y263D02*
X74Y263D01*
X409Y263D02*
X419Y263D01*
X511Y263D02*
X521Y263D01*
X662Y263D02*
X671Y263D01*
X775Y263D02*
X784Y263D01*
X811Y263D02*
X820Y263D01*
X923Y263D02*
X932Y263D01*
X1152Y263D02*
X1158Y263D01*
X1191Y263D02*
X1198Y263D01*
X1252Y263D02*
X1258Y263D01*
X1801Y263D02*
X1805Y263D01*
X1827Y263D02*
X1856Y263D01*
X2055Y263D02*
X2062Y263D01*
X0Y262D02*
X7Y262D01*
X68Y262D02*
X74Y262D01*
X409Y262D02*
X419Y262D01*
X510Y262D02*
X520Y262D01*
X662Y262D02*
X671Y262D01*
X775Y262D02*
X784Y262D01*
X811Y262D02*
X821Y262D01*
X923Y262D02*
X932Y262D01*
X1152Y262D02*
X1158Y262D01*
X1191Y262D02*
X1198Y262D01*
X1252Y262D02*
X1258Y262D01*
X1800Y262D02*
X1805Y262D01*
X1826Y262D02*
X1857Y262D01*
X2055Y262D02*
X2062Y262D01*
X0Y261D02*
X7Y261D01*
X68Y261D02*
X74Y261D01*
X410Y261D02*
X420Y261D01*
X509Y261D02*
X520Y261D01*
X662Y261D02*
X671Y261D01*
X775Y261D02*
X784Y261D01*
X812Y261D02*
X821Y261D01*
X922Y261D02*
X932Y261D01*
X1152Y261D02*
X1158Y261D01*
X1190Y261D02*
X1197Y261D01*
X1252Y261D02*
X1258Y261D01*
X1800Y261D02*
X1806Y261D01*
X1826Y261D02*
X1858Y261D01*
X2055Y261D02*
X2062Y261D01*
X0Y260D02*
X7Y260D01*
X68Y260D02*
X74Y260D01*
X410Y260D02*
X421Y260D01*
X509Y260D02*
X519Y260D01*
X662Y260D02*
X671Y260D01*
X775Y260D02*
X784Y260D01*
X812Y260D02*
X821Y260D01*
X922Y260D02*
X931Y260D01*
X1152Y260D02*
X1158Y260D01*
X1190Y260D02*
X1197Y260D01*
X1252Y260D02*
X1258Y260D01*
X1800Y260D02*
X1806Y260D01*
X1826Y260D02*
X1859Y260D01*
X2055Y260D02*
X2062Y260D01*
X0Y259D02*
X7Y259D01*
X21Y259D02*
X74Y259D01*
X109Y259D02*
X123Y259D01*
X189Y259D02*
X202Y259D01*
X411Y259D02*
X421Y259D01*
X508Y259D02*
X519Y259D01*
X662Y259D02*
X671Y259D01*
X775Y259D02*
X784Y259D01*
X812Y259D02*
X821Y259D01*
X922Y259D02*
X931Y259D01*
X1152Y259D02*
X1158Y259D01*
X1189Y259D02*
X1196Y259D01*
X1252Y259D02*
X1258Y259D01*
X1800Y259D02*
X1806Y259D01*
X1826Y259D02*
X1859Y259D01*
X2055Y259D02*
X2062Y259D01*
X0Y258D02*
X7Y258D01*
X21Y258D02*
X74Y258D01*
X108Y258D02*
X124Y258D01*
X188Y258D02*
X204Y258D01*
X411Y258D02*
X422Y258D01*
X507Y258D02*
X518Y258D01*
X662Y258D02*
X671Y258D01*
X775Y258D02*
X784Y258D01*
X812Y258D02*
X822Y258D01*
X922Y258D02*
X931Y258D01*
X1152Y258D02*
X1158Y258D01*
X1189Y258D02*
X1196Y258D01*
X1252Y258D02*
X1258Y258D01*
X1800Y258D02*
X1806Y258D01*
X1827Y258D02*
X1859Y258D01*
X2055Y258D02*
X2062Y258D01*
X0Y257D02*
X7Y257D01*
X21Y257D02*
X74Y257D01*
X107Y257D02*
X123Y257D01*
X189Y257D02*
X205Y257D01*
X412Y257D02*
X423Y257D01*
X507Y257D02*
X517Y257D01*
X662Y257D02*
X671Y257D01*
X775Y257D02*
X784Y257D01*
X813Y257D02*
X822Y257D01*
X921Y257D02*
X931Y257D01*
X1152Y257D02*
X1158Y257D01*
X1189Y257D02*
X1195Y257D01*
X1252Y257D02*
X1258Y257D01*
X1800Y257D02*
X1806Y257D01*
X1853Y257D02*
X1859Y257D01*
X2055Y257D02*
X2062Y257D01*
X0Y256D02*
X7Y256D01*
X21Y256D02*
X74Y256D01*
X105Y256D02*
X123Y256D01*
X189Y256D02*
X206Y256D01*
X413Y256D02*
X424Y256D01*
X506Y256D02*
X517Y256D01*
X662Y256D02*
X671Y256D01*
X774Y256D02*
X783Y256D01*
X813Y256D02*
X822Y256D01*
X921Y256D02*
X930Y256D01*
X1152Y256D02*
X1158Y256D01*
X1188Y256D02*
X1195Y256D01*
X1252Y256D02*
X1258Y256D01*
X1800Y256D02*
X1806Y256D01*
X1853Y256D02*
X1859Y256D01*
X2055Y256D02*
X2062Y256D01*
X0Y255D02*
X7Y255D01*
X21Y255D02*
X74Y255D01*
X104Y255D02*
X122Y255D01*
X190Y255D02*
X207Y255D01*
X413Y255D02*
X424Y255D01*
X505Y255D02*
X516Y255D01*
X663Y255D02*
X672Y255D01*
X774Y255D02*
X783Y255D01*
X813Y255D02*
X823Y255D01*
X920Y255D02*
X930Y255D01*
X1152Y255D02*
X1158Y255D01*
X1188Y255D02*
X1194Y255D01*
X1252Y255D02*
X1258Y255D01*
X1800Y255D02*
X1806Y255D01*
X1853Y255D02*
X1859Y255D01*
X2055Y255D02*
X2062Y255D01*
X0Y254D02*
X7Y254D01*
X21Y254D02*
X74Y254D01*
X103Y254D02*
X110Y254D01*
X202Y254D02*
X209Y254D01*
X414Y254D02*
X425Y254D01*
X504Y254D02*
X516Y254D01*
X663Y254D02*
X672Y254D01*
X774Y254D02*
X783Y254D01*
X814Y254D02*
X823Y254D01*
X920Y254D02*
X930Y254D01*
X1152Y254D02*
X1158Y254D01*
X1188Y254D02*
X1194Y254D01*
X1252Y254D02*
X1258Y254D01*
X1800Y254D02*
X1806Y254D01*
X1853Y254D02*
X1859Y254D01*
X2055Y254D02*
X2062Y254D01*
X0Y253D02*
X7Y253D01*
X21Y253D02*
X74Y253D01*
X102Y253D02*
X109Y253D01*
X203Y253D02*
X210Y253D01*
X414Y253D02*
X426Y253D01*
X503Y253D02*
X515Y253D01*
X663Y253D02*
X672Y253D01*
X774Y253D02*
X783Y253D01*
X814Y253D02*
X824Y253D01*
X920Y253D02*
X929Y253D01*
X1152Y253D02*
X1158Y253D01*
X1188Y253D02*
X1194Y253D01*
X1252Y253D02*
X1258Y253D01*
X1800Y253D02*
X1806Y253D01*
X1853Y253D02*
X1859Y253D01*
X2055Y253D02*
X2062Y253D01*
X0Y252D02*
X7Y252D01*
X21Y252D02*
X27Y252D01*
X68Y252D02*
X74Y252D01*
X101Y252D02*
X108Y252D01*
X204Y252D02*
X211Y252D01*
X415Y252D02*
X427Y252D01*
X502Y252D02*
X514Y252D01*
X663Y252D02*
X672Y252D01*
X773Y252D02*
X783Y252D01*
X814Y252D02*
X824Y252D01*
X919Y252D02*
X929Y252D01*
X1152Y252D02*
X1158Y252D01*
X1188Y252D02*
X1194Y252D01*
X1252Y252D02*
X1258Y252D01*
X1800Y252D02*
X1806Y252D01*
X1853Y252D02*
X1859Y252D01*
X2055Y252D02*
X2062Y252D01*
X0Y251D02*
X7Y251D01*
X21Y251D02*
X27Y251D01*
X68Y251D02*
X74Y251D01*
X100Y251D02*
X106Y251D01*
X205Y251D02*
X212Y251D01*
X416Y251D02*
X428Y251D01*
X501Y251D02*
X513Y251D01*
X664Y251D02*
X673Y251D01*
X773Y251D02*
X782Y251D01*
X815Y251D02*
X825Y251D01*
X919Y251D02*
X928Y251D01*
X1152Y251D02*
X1158Y251D01*
X1188Y251D02*
X1194Y251D01*
X1252Y251D02*
X1258Y251D01*
X1800Y251D02*
X1806Y251D01*
X1853Y251D02*
X1859Y251D01*
X2055Y251D02*
X2062Y251D01*
X0Y250D02*
X7Y250D01*
X21Y250D02*
X27Y250D01*
X68Y250D02*
X74Y250D01*
X99Y250D02*
X105Y250D01*
X206Y250D02*
X213Y250D01*
X417Y250D02*
X429Y250D01*
X500Y250D02*
X513Y250D01*
X664Y250D02*
X673Y250D01*
X773Y250D02*
X782Y250D01*
X815Y250D02*
X825Y250D01*
X918Y250D02*
X928Y250D01*
X1152Y250D02*
X1158Y250D01*
X1188Y250D02*
X1194Y250D01*
X1252Y250D02*
X1258Y250D01*
X1268Y250D02*
X1269Y250D01*
X1800Y250D02*
X1806Y250D01*
X1853Y250D02*
X1859Y250D01*
X2055Y250D02*
X2062Y250D01*
X0Y249D02*
X7Y249D01*
X21Y249D02*
X27Y249D01*
X68Y249D02*
X74Y249D01*
X98Y249D02*
X104Y249D01*
X208Y249D02*
X214Y249D01*
X417Y249D02*
X430Y249D01*
X499Y249D02*
X512Y249D01*
X664Y249D02*
X673Y249D01*
X772Y249D02*
X782Y249D01*
X816Y249D02*
X826Y249D01*
X918Y249D02*
X928Y249D01*
X1152Y249D02*
X1158Y249D01*
X1188Y249D02*
X1195Y249D01*
X1252Y249D02*
X1258Y249D01*
X1267Y249D02*
X1271Y249D01*
X1800Y249D02*
X1806Y249D01*
X1853Y249D02*
X1859Y249D01*
X2055Y249D02*
X2062Y249D01*
X0Y248D02*
X7Y248D01*
X21Y248D02*
X27Y248D01*
X68Y248D02*
X74Y248D01*
X97Y248D02*
X103Y248D01*
X208Y248D02*
X215Y248D01*
X418Y248D02*
X432Y248D01*
X498Y248D02*
X511Y248D01*
X664Y248D02*
X674Y248D01*
X772Y248D02*
X782Y248D01*
X816Y248D02*
X826Y248D01*
X917Y248D02*
X927Y248D01*
X1152Y248D02*
X1158Y248D01*
X1189Y248D02*
X1195Y248D01*
X1252Y248D02*
X1258Y248D01*
X1266Y248D02*
X1271Y248D01*
X1800Y248D02*
X1806Y248D01*
X1853Y248D02*
X1859Y248D01*
X2055Y248D02*
X2062Y248D01*
X0Y247D02*
X7Y247D01*
X21Y247D02*
X27Y247D01*
X68Y247D02*
X74Y247D01*
X96Y247D02*
X102Y247D01*
X209Y247D02*
X215Y247D01*
X419Y247D02*
X433Y247D01*
X496Y247D02*
X510Y247D01*
X665Y247D02*
X674Y247D01*
X772Y247D02*
X781Y247D01*
X817Y247D02*
X827Y247D01*
X916Y247D02*
X927Y247D01*
X1152Y247D02*
X1158Y247D01*
X1189Y247D02*
X1196Y247D01*
X1252Y247D02*
X1258Y247D01*
X1266Y247D02*
X1272Y247D01*
X1800Y247D02*
X1806Y247D01*
X1853Y247D02*
X1859Y247D01*
X2055Y247D02*
X2062Y247D01*
X0Y246D02*
X7Y246D01*
X21Y246D02*
X27Y246D01*
X68Y246D02*
X74Y246D01*
X95Y246D02*
X101Y246D01*
X210Y246D02*
X216Y246D01*
X420Y246D02*
X434Y246D01*
X495Y246D02*
X509Y246D01*
X665Y246D02*
X675Y246D01*
X771Y246D02*
X781Y246D01*
X817Y246D02*
X827Y246D01*
X916Y246D02*
X926Y246D01*
X1152Y246D02*
X1158Y246D01*
X1189Y246D02*
X1196Y246D01*
X1252Y246D02*
X1258Y246D01*
X1266Y246D02*
X1272Y246D01*
X1800Y246D02*
X1806Y246D01*
X1853Y246D02*
X1859Y246D01*
X2055Y246D02*
X2062Y246D01*
X0Y245D02*
X7Y245D01*
X21Y245D02*
X27Y245D01*
X68Y245D02*
X74Y245D01*
X95Y245D02*
X100Y245D01*
X211Y245D02*
X217Y245D01*
X421Y245D02*
X436Y245D01*
X494Y245D02*
X508Y245D01*
X665Y245D02*
X675Y245D01*
X771Y245D02*
X780Y245D01*
X818Y245D02*
X828Y245D01*
X915Y245D02*
X926Y245D01*
X1152Y245D02*
X1158Y245D01*
X1190Y245D02*
X1197Y245D01*
X1252Y245D02*
X1258Y245D01*
X1266Y245D02*
X1272Y245D01*
X1800Y245D02*
X1806Y245D01*
X1853Y245D02*
X1859Y245D01*
X2055Y245D02*
X2062Y245D01*
X0Y244D02*
X7Y244D01*
X21Y244D02*
X27Y244D01*
X68Y244D02*
X74Y244D01*
X94Y244D02*
X99Y244D01*
X212Y244D02*
X218Y244D01*
X422Y244D02*
X437Y244D01*
X492Y244D02*
X507Y244D01*
X666Y244D02*
X676Y244D01*
X770Y244D02*
X780Y244D01*
X818Y244D02*
X829Y244D01*
X914Y244D02*
X925Y244D01*
X1152Y244D02*
X1158Y244D01*
X1190Y244D02*
X1197Y244D01*
X1252Y244D02*
X1258Y244D01*
X1266Y244D02*
X1272Y244D01*
X1800Y244D02*
X1806Y244D01*
X1853Y244D02*
X1859Y244D01*
X2055Y244D02*
X2062Y244D01*
X0Y243D02*
X7Y243D01*
X21Y243D02*
X27Y243D01*
X68Y243D02*
X74Y243D01*
X93Y243D02*
X99Y243D01*
X213Y243D02*
X219Y243D01*
X423Y243D02*
X439Y243D01*
X490Y243D02*
X506Y243D01*
X666Y243D02*
X676Y243D01*
X770Y243D02*
X780Y243D01*
X819Y243D02*
X830Y243D01*
X914Y243D02*
X924Y243D01*
X1152Y243D02*
X1158Y243D01*
X1191Y243D02*
X1198Y243D01*
X1252Y243D02*
X1258Y243D01*
X1266Y243D02*
X1272Y243D01*
X1800Y243D02*
X1806Y243D01*
X1853Y243D02*
X1859Y243D01*
X2055Y243D02*
X2062Y243D01*
X0Y242D02*
X7Y242D01*
X21Y242D02*
X27Y242D01*
X68Y242D02*
X74Y242D01*
X92Y242D02*
X98Y242D01*
X214Y242D02*
X219Y242D01*
X424Y242D02*
X441Y242D01*
X489Y242D02*
X505Y242D01*
X667Y242D02*
X677Y242D01*
X769Y242D02*
X779Y242D01*
X819Y242D02*
X830Y242D01*
X913Y242D02*
X924Y242D01*
X1152Y242D02*
X1158Y242D01*
X1191Y242D02*
X1198Y242D01*
X1252Y242D02*
X1258Y242D01*
X1266Y242D02*
X1272Y242D01*
X1800Y242D02*
X1806Y242D01*
X1853Y242D02*
X1859Y242D01*
X2055Y242D02*
X2062Y242D01*
X0Y241D02*
X7Y241D01*
X21Y241D02*
X26Y241D01*
X68Y241D02*
X74Y241D01*
X92Y241D02*
X97Y241D01*
X215Y241D02*
X220Y241D01*
X425Y241D02*
X443Y241D01*
X486Y241D02*
X504Y241D01*
X667Y241D02*
X677Y241D01*
X769Y241D02*
X779Y241D01*
X820Y241D02*
X831Y241D01*
X912Y241D02*
X923Y241D01*
X1152Y241D02*
X1158Y241D01*
X1192Y241D02*
X1199Y241D01*
X1252Y241D02*
X1258Y241D01*
X1266Y241D02*
X1272Y241D01*
X1800Y241D02*
X1806Y241D01*
X1853Y241D02*
X1859Y241D01*
X2055Y241D02*
X2062Y241D01*
X0Y240D02*
X7Y240D01*
X22Y240D02*
X26Y240D01*
X69Y240D02*
X73Y240D01*
X91Y240D02*
X96Y240D01*
X216Y240D02*
X221Y240D01*
X427Y240D02*
X445Y240D01*
X484Y240D02*
X503Y240D01*
X668Y240D02*
X678Y240D01*
X768Y240D02*
X778Y240D01*
X821Y240D02*
X832Y240D01*
X911Y240D02*
X923Y240D01*
X1152Y240D02*
X1158Y240D01*
X1192Y240D02*
X1199Y240D01*
X1252Y240D02*
X1258Y240D01*
X1266Y240D02*
X1272Y240D01*
X1800Y240D02*
X1806Y240D01*
X1830Y240D02*
X1859Y240D01*
X2055Y240D02*
X2062Y240D01*
X0Y239D02*
X7Y239D01*
X90Y239D02*
X95Y239D01*
X216Y239D02*
X221Y239D01*
X428Y239D02*
X448Y239D01*
X481Y239D02*
X501Y239D01*
X668Y239D02*
X678Y239D01*
X768Y239D02*
X778Y239D01*
X821Y239D02*
X833Y239D01*
X910Y239D02*
X922Y239D01*
X1152Y239D02*
X1158Y239D01*
X1193Y239D02*
X1200Y239D01*
X1252Y239D02*
X1258Y239D01*
X1266Y239D02*
X1272Y239D01*
X1800Y239D02*
X1806Y239D01*
X1829Y239D02*
X1859Y239D01*
X2055Y239D02*
X2062Y239D01*
X0Y238D02*
X7Y238D01*
X90Y238D02*
X95Y238D01*
X217Y238D02*
X222Y238D01*
X429Y238D02*
X452Y238D01*
X478Y238D02*
X500Y238D01*
X669Y238D02*
X679Y238D01*
X767Y238D02*
X777Y238D01*
X822Y238D02*
X834Y238D01*
X909Y238D02*
X921Y238D01*
X1152Y238D02*
X1158Y238D01*
X1193Y238D02*
X1200Y238D01*
X1252Y238D02*
X1258Y238D01*
X1266Y238D02*
X1272Y238D01*
X1800Y238D02*
X1806Y238D01*
X1828Y238D02*
X1859Y238D01*
X2055Y238D02*
X2062Y238D01*
X0Y237D02*
X7Y237D01*
X89Y237D02*
X94Y237D01*
X218Y237D02*
X223Y237D01*
X431Y237D02*
X457Y237D01*
X472Y237D02*
X499Y237D01*
X669Y237D02*
X680Y237D01*
X766Y237D02*
X777Y237D01*
X823Y237D02*
X835Y237D01*
X908Y237D02*
X920Y237D01*
X1152Y237D02*
X1158Y237D01*
X1194Y237D02*
X1201Y237D01*
X1252Y237D02*
X1258Y237D01*
X1266Y237D02*
X1272Y237D01*
X1800Y237D02*
X1806Y237D01*
X1827Y237D02*
X1858Y237D01*
X2055Y237D02*
X2062Y237D01*
X0Y236D02*
X7Y236D01*
X88Y236D02*
X93Y236D01*
X218Y236D02*
X223Y236D01*
X432Y236D02*
X497Y236D01*
X670Y236D02*
X680Y236D01*
X765Y236D02*
X776Y236D01*
X823Y236D02*
X836Y236D01*
X907Y236D02*
X920Y236D01*
X1152Y236D02*
X1158Y236D01*
X1194Y236D02*
X1201Y236D01*
X1252Y236D02*
X1258Y236D01*
X1266Y236D02*
X1272Y236D01*
X1800Y236D02*
X1806Y236D01*
X1826Y236D02*
X1858Y236D01*
X2055Y236D02*
X2062Y236D01*
X0Y235D02*
X7Y235D01*
X88Y235D02*
X93Y235D01*
X219Y235D02*
X224Y235D01*
X434Y235D02*
X495Y235D01*
X670Y235D02*
X681Y235D01*
X765Y235D02*
X776Y235D01*
X824Y235D02*
X837Y235D01*
X906Y235D02*
X919Y235D01*
X1152Y235D02*
X1158Y235D01*
X1195Y235D02*
X1202Y235D01*
X1252Y235D02*
X1258Y235D01*
X1266Y235D02*
X1272Y235D01*
X1800Y235D02*
X1806Y235D01*
X1826Y235D02*
X1857Y235D01*
X2055Y235D02*
X2062Y235D01*
X0Y234D02*
X7Y234D01*
X87Y234D02*
X92Y234D01*
X220Y234D02*
X224Y234D01*
X436Y234D02*
X494Y234D01*
X671Y234D02*
X682Y234D01*
X764Y234D02*
X775Y234D01*
X825Y234D02*
X838Y234D01*
X857Y234D02*
X858Y234D01*
X885Y234D02*
X886Y234D01*
X905Y234D02*
X918Y234D01*
X1152Y234D02*
X1158Y234D01*
X1195Y234D02*
X1202Y234D01*
X1252Y234D02*
X1258Y234D01*
X1266Y234D02*
X1272Y234D01*
X1781Y234D02*
X1783Y234D01*
X1800Y234D02*
X1806Y234D01*
X1826Y234D02*
X1855Y234D01*
X2055Y234D02*
X2062Y234D01*
X0Y233D02*
X7Y233D01*
X87Y233D02*
X91Y233D01*
X220Y233D02*
X225Y233D01*
X438Y233D02*
X491Y233D01*
X671Y233D02*
X683Y233D01*
X763Y233D02*
X774Y233D01*
X826Y233D02*
X840Y233D01*
X857Y233D02*
X862Y233D01*
X881Y233D02*
X886Y233D01*
X904Y233D02*
X917Y233D01*
X1152Y233D02*
X1158Y233D01*
X1196Y233D02*
X1203Y233D01*
X1252Y233D02*
X1258Y233D01*
X1266Y233D02*
X1272Y233D01*
X1780Y233D02*
X1784Y233D01*
X1800Y233D02*
X1806Y233D01*
X1826Y233D02*
X1832Y233D01*
X2055Y233D02*
X2062Y233D01*
X0Y232D02*
X7Y232D01*
X86Y232D02*
X91Y232D01*
X221Y232D02*
X225Y232D01*
X440Y232D02*
X489Y232D01*
X672Y232D02*
X684Y232D01*
X762Y232D02*
X774Y232D01*
X827Y232D02*
X841Y232D01*
X857Y232D02*
X869Y232D01*
X874Y232D02*
X886Y232D01*
X902Y232D02*
X916Y232D01*
X1140Y232D02*
X1170Y232D01*
X1196Y232D02*
X1220Y232D01*
X1240Y232D02*
X1272Y232D01*
X1779Y232D02*
X1785Y232D01*
X1800Y232D02*
X1806Y232D01*
X1826Y232D02*
X1832Y232D01*
X2055Y232D02*
X2062Y232D01*
X0Y231D02*
X7Y231D01*
X86Y231D02*
X90Y231D01*
X222Y231D02*
X226Y231D01*
X442Y231D02*
X487Y231D01*
X673Y231D02*
X685Y231D01*
X761Y231D02*
X773Y231D01*
X828Y231D02*
X842Y231D01*
X857Y231D02*
X886Y231D01*
X901Y231D02*
X915Y231D01*
X1138Y231D02*
X1171Y231D01*
X1197Y231D02*
X1221Y231D01*
X1239Y231D02*
X1272Y231D01*
X1779Y231D02*
X1785Y231D01*
X1800Y231D02*
X1806Y231D01*
X1826Y231D02*
X1832Y231D01*
X2055Y231D02*
X2062Y231D01*
X0Y230D02*
X7Y230D01*
X85Y230D02*
X90Y230D01*
X222Y230D02*
X226Y230D01*
X445Y230D02*
X484Y230D01*
X673Y230D02*
X685Y230D01*
X760Y230D02*
X772Y230D01*
X829Y230D02*
X844Y230D01*
X857Y230D02*
X886Y230D01*
X899Y230D02*
X914Y230D01*
X1138Y230D02*
X1171Y230D01*
X1198Y230D02*
X1221Y230D01*
X1238Y230D02*
X1272Y230D01*
X1779Y230D02*
X1785Y230D01*
X1800Y230D02*
X1806Y230D01*
X1826Y230D02*
X1832Y230D01*
X2055Y230D02*
X2062Y230D01*
X0Y229D02*
X7Y229D01*
X85Y229D02*
X89Y229D01*
X223Y229D02*
X227Y229D01*
X448Y229D02*
X481Y229D01*
X674Y229D02*
X687Y229D01*
X759Y229D02*
X772Y229D01*
X830Y229D02*
X846Y229D01*
X857Y229D02*
X886Y229D01*
X898Y229D02*
X913Y229D01*
X1138Y229D02*
X1171Y229D01*
X1198Y229D02*
X1222Y229D01*
X1238Y229D02*
X1272Y229D01*
X1779Y229D02*
X1785Y229D01*
X1800Y229D02*
X1806Y229D01*
X1826Y229D02*
X1832Y229D01*
X2055Y229D02*
X2062Y229D01*
X0Y228D02*
X7Y228D01*
X84Y228D02*
X89Y228D01*
X223Y228D02*
X227Y228D01*
X452Y228D02*
X477Y228D01*
X675Y228D02*
X688Y228D01*
X758Y228D02*
X771Y228D01*
X831Y228D02*
X847Y228D01*
X857Y228D02*
X886Y228D01*
X896Y228D02*
X912Y228D01*
X1138Y228D02*
X1171Y228D01*
X1200Y228D02*
X1221Y228D01*
X1238Y228D02*
X1272Y228D01*
X1779Y228D02*
X1785Y228D01*
X1800Y228D02*
X1806Y228D01*
X1826Y228D02*
X1832Y228D01*
X2055Y228D02*
X2062Y228D01*
X0Y227D02*
X7Y227D01*
X84Y227D02*
X88Y227D01*
X224Y227D02*
X228Y227D01*
X458Y227D02*
X471Y227D01*
X676Y227D02*
X689Y227D01*
X757Y227D02*
X770Y227D01*
X832Y227D02*
X849Y227D01*
X857Y227D02*
X886Y227D01*
X894Y227D02*
X911Y227D01*
X1138Y227D02*
X1171Y227D01*
X1201Y227D02*
X1221Y227D01*
X1239Y227D02*
X1271Y227D01*
X1779Y227D02*
X1785Y227D01*
X1800Y227D02*
X1806Y227D01*
X1826Y227D02*
X1832Y227D01*
X2055Y227D02*
X2062Y227D01*
X0Y226D02*
X7Y226D01*
X83Y226D02*
X88Y226D01*
X224Y226D02*
X228Y226D01*
X677Y226D02*
X690Y226D01*
X708Y226D02*
X710Y226D01*
X736Y226D02*
X737Y226D01*
X756Y226D02*
X769Y226D01*
X833Y226D02*
X852Y226D01*
X857Y226D02*
X886Y226D01*
X891Y226D02*
X910Y226D01*
X1140Y226D02*
X1170Y226D01*
X1203Y226D02*
X1220Y226D01*
X1240Y226D02*
X1270Y226D01*
X1779Y226D02*
X1785Y226D01*
X1800Y226D02*
X1806Y226D01*
X1826Y226D02*
X1832Y226D01*
X2055Y226D02*
X2062Y226D01*
X0Y225D02*
X7Y225D01*
X83Y225D02*
X87Y225D01*
X224Y225D02*
X229Y225D01*
X678Y225D02*
X691Y225D01*
X708Y225D02*
X714Y225D01*
X732Y225D02*
X737Y225D01*
X755Y225D02*
X768Y225D01*
X835Y225D02*
X855Y225D01*
X857Y225D02*
X886Y225D01*
X889Y225D02*
X908Y225D01*
X1779Y225D02*
X1785Y225D01*
X1800Y225D02*
X1806Y225D01*
X1826Y225D02*
X1832Y225D01*
X2055Y225D02*
X2062Y225D01*
X0Y224D02*
X7Y224D01*
X83Y224D02*
X87Y224D01*
X225Y224D02*
X229Y224D01*
X678Y224D02*
X693Y224D01*
X708Y224D02*
X737Y224D01*
X753Y224D02*
X767Y224D01*
X836Y224D02*
X907Y224D01*
X1779Y224D02*
X1785Y224D01*
X1800Y224D02*
X1806Y224D01*
X1826Y224D02*
X1832Y224D01*
X2055Y224D02*
X2062Y224D01*
X0Y223D02*
X7Y223D01*
X44Y223D02*
X50Y223D01*
X82Y223D02*
X87Y223D01*
X225Y223D02*
X229Y223D01*
X679Y223D02*
X694Y223D01*
X708Y223D02*
X737Y223D01*
X752Y223D02*
X767Y223D01*
X838Y223D02*
X906Y223D01*
X1779Y223D02*
X1785Y223D01*
X1800Y223D02*
X1806Y223D01*
X1826Y223D02*
X1832Y223D01*
X2055Y223D02*
X2062Y223D01*
X0Y222D02*
X7Y222D01*
X42Y222D02*
X53Y222D01*
X82Y222D02*
X86Y222D01*
X226Y222D02*
X230Y222D01*
X680Y222D02*
X696Y222D01*
X708Y222D02*
X737Y222D01*
X750Y222D02*
X765Y222D01*
X839Y222D02*
X904Y222D01*
X1779Y222D02*
X1785Y222D01*
X1800Y222D02*
X1806Y222D01*
X1826Y222D02*
X1832Y222D01*
X2055Y222D02*
X2062Y222D01*
X0Y221D02*
X7Y221D01*
X39Y221D02*
X55Y221D01*
X81Y221D02*
X86Y221D01*
X226Y221D02*
X230Y221D01*
X682Y221D02*
X697Y221D01*
X708Y221D02*
X737Y221D01*
X749Y221D02*
X764Y221D01*
X841Y221D02*
X902Y221D01*
X1779Y221D02*
X1785Y221D01*
X1800Y221D02*
X1806Y221D01*
X1826Y221D02*
X1832Y221D01*
X2055Y221D02*
X2062Y221D01*
X0Y220D02*
X7Y220D01*
X37Y220D02*
X57Y220D01*
X81Y220D02*
X85Y220D01*
X226Y220D02*
X231Y220D01*
X683Y220D02*
X699Y220D01*
X708Y220D02*
X737Y220D01*
X747Y220D02*
X763Y220D01*
X842Y220D02*
X901Y220D01*
X1779Y220D02*
X1785Y220D01*
X1800Y220D02*
X1806Y220D01*
X1826Y220D02*
X1832Y220D01*
X2055Y220D02*
X2062Y220D01*
X0Y219D02*
X7Y219D01*
X35Y219D02*
X59Y219D01*
X81Y219D02*
X85Y219D01*
X227Y219D02*
X231Y219D01*
X684Y219D02*
X701Y219D01*
X708Y219D02*
X737Y219D01*
X745Y219D02*
X762Y219D01*
X845Y219D02*
X899Y219D01*
X1779Y219D02*
X1785Y219D01*
X1799Y219D02*
X1806Y219D01*
X1826Y219D02*
X1832Y219D01*
X2055Y219D02*
X2062Y219D01*
X0Y218D02*
X7Y218D01*
X33Y218D02*
X62Y218D01*
X81Y218D02*
X85Y218D01*
X227Y218D02*
X231Y218D01*
X685Y218D02*
X704Y218D01*
X708Y218D02*
X737Y218D01*
X742Y218D02*
X761Y218D01*
X847Y218D02*
X897Y218D01*
X1779Y218D02*
X1786Y218D01*
X1799Y218D02*
X1805Y218D01*
X1826Y218D02*
X1832Y218D01*
X2055Y218D02*
X2062Y218D01*
X0Y217D02*
X7Y217D01*
X31Y217D02*
X64Y217D01*
X80Y217D02*
X84Y217D01*
X227Y217D02*
X231Y217D01*
X686Y217D02*
X706Y217D01*
X708Y217D02*
X737Y217D01*
X739Y217D02*
X760Y217D01*
X849Y217D02*
X894Y217D01*
X1780Y217D02*
X1789Y217D01*
X1796Y217D02*
X1805Y217D01*
X1826Y217D02*
X1832Y217D01*
X2055Y217D02*
X2062Y217D01*
X0Y216D02*
X7Y216D01*
X29Y216D02*
X44Y216D01*
X50Y216D02*
X66Y216D01*
X80Y216D02*
X84Y216D01*
X228Y216D02*
X232Y216D01*
X688Y216D02*
X758Y216D01*
X852Y216D02*
X863Y216D01*
X880Y216D02*
X892Y216D01*
X1780Y216D02*
X1805Y216D01*
X1826Y216D02*
X1858Y216D01*
X2055Y216D02*
X2062Y216D01*
X0Y215D02*
X7Y215D01*
X27Y215D02*
X42Y215D01*
X53Y215D02*
X68Y215D01*
X80Y215D02*
X84Y215D01*
X228Y215D02*
X232Y215D01*
X689Y215D02*
X757Y215D01*
X855Y215D02*
X859Y215D01*
X884Y215D02*
X889Y215D01*
X1781Y215D02*
X1804Y215D01*
X1826Y215D02*
X1859Y215D01*
X2055Y215D02*
X2062Y215D01*
X0Y214D02*
X7Y214D01*
X26Y214D02*
X40Y214D01*
X55Y214D02*
X69Y214D01*
X79Y214D02*
X83Y214D01*
X228Y214D02*
X232Y214D01*
X691Y214D02*
X755Y214D01*
X1781Y214D02*
X1803Y214D01*
X1826Y214D02*
X1859Y214D01*
X2055Y214D02*
X2062Y214D01*
X0Y213D02*
X7Y213D01*
X24Y213D02*
X38Y213D01*
X57Y213D02*
X71Y213D01*
X79Y213D02*
X83Y213D01*
X229Y213D02*
X233Y213D01*
X692Y213D02*
X753Y213D01*
X1782Y213D02*
X1803Y213D01*
X1826Y213D02*
X1859Y213D01*
X2055Y213D02*
X2062Y213D01*
X0Y212D02*
X7Y212D01*
X23Y212D02*
X36Y212D01*
X59Y212D02*
X71Y212D01*
X79Y212D02*
X83Y212D01*
X229Y212D02*
X233Y212D01*
X694Y212D02*
X752Y212D01*
X1783Y212D02*
X1801Y212D01*
X1826Y212D02*
X1859Y212D01*
X2055Y212D02*
X2062Y212D01*
X0Y211D02*
X7Y211D01*
X23Y211D02*
X34Y211D01*
X61Y211D02*
X72Y211D01*
X79Y211D02*
X83Y211D01*
X229Y211D02*
X233Y211D01*
X696Y211D02*
X750Y211D01*
X1785Y211D02*
X1800Y211D01*
X1826Y211D02*
X1858Y211D01*
X2055Y211D02*
X2062Y211D01*
X0Y210D02*
X7Y210D01*
X22Y210D02*
X32Y210D01*
X63Y210D02*
X73Y210D01*
X79Y210D02*
X83Y210D01*
X229Y210D02*
X233Y210D01*
X698Y210D02*
X748Y210D01*
X1789Y210D02*
X1796Y210D01*
X1826Y210D02*
X1856Y210D01*
X2055Y210D02*
X2062Y210D01*
X0Y209D02*
X7Y209D01*
X22Y209D02*
X30Y209D01*
X65Y209D02*
X73Y209D01*
X78Y209D02*
X82Y209D01*
X229Y209D02*
X233Y209D01*
X701Y209D02*
X721Y209D01*
X725Y209D02*
X745Y209D01*
X2055Y209D02*
X2062Y209D01*
X0Y208D02*
X7Y208D01*
X21Y208D02*
X28Y208D01*
X66Y208D02*
X74Y208D01*
X78Y208D02*
X82Y208D01*
X230Y208D02*
X233Y208D01*
X703Y208D02*
X713Y208D01*
X733Y208D02*
X742Y208D01*
X2055Y208D02*
X2062Y208D01*
X0Y207D02*
X7Y207D01*
X21Y207D02*
X27Y207D01*
X67Y207D02*
X74Y207D01*
X78Y207D02*
X82Y207D01*
X230Y207D02*
X234Y207D01*
X707Y207D02*
X709Y207D01*
X736Y207D02*
X739Y207D01*
X2055Y207D02*
X2062Y207D01*
X0Y206D02*
X7Y206D01*
X21Y206D02*
X27Y206D01*
X68Y206D02*
X74Y206D01*
X78Y206D02*
X82Y206D01*
X230Y206D02*
X234Y206D01*
X2055Y206D02*
X2062Y206D01*
X0Y205D02*
X7Y205D01*
X21Y205D02*
X27Y205D01*
X68Y205D02*
X74Y205D01*
X78Y205D02*
X82Y205D01*
X230Y205D02*
X234Y205D01*
X2055Y205D02*
X2062Y205D01*
X0Y204D02*
X7Y204D01*
X21Y204D02*
X27Y204D01*
X68Y204D02*
X74Y204D01*
X78Y204D02*
X82Y204D01*
X230Y204D02*
X234Y204D01*
X2055Y204D02*
X2062Y204D01*
X0Y203D02*
X7Y203D01*
X21Y203D02*
X27Y203D01*
X68Y203D02*
X74Y203D01*
X78Y203D02*
X81Y203D01*
X230Y203D02*
X234Y203D01*
X2055Y203D02*
X2062Y203D01*
X0Y202D02*
X7Y202D01*
X21Y202D02*
X74Y202D01*
X78Y202D02*
X81Y202D01*
X230Y202D02*
X234Y202D01*
X2055Y202D02*
X2062Y202D01*
X0Y201D02*
X7Y201D01*
X21Y201D02*
X74Y201D01*
X77Y201D02*
X81Y201D01*
X230Y201D02*
X234Y201D01*
X2055Y201D02*
X2062Y201D01*
X0Y200D02*
X7Y200D01*
X21Y200D02*
X74Y200D01*
X77Y200D02*
X81Y200D01*
X231Y200D02*
X234Y200D01*
X1908Y200D02*
X1909Y200D01*
X2055Y200D02*
X2062Y200D01*
X0Y199D02*
X7Y199D01*
X21Y199D02*
X74Y199D01*
X77Y199D02*
X81Y199D01*
X231Y199D02*
X234Y199D01*
X1907Y199D02*
X1910Y199D01*
X2055Y199D02*
X2062Y199D01*
X0Y198D02*
X7Y198D01*
X21Y198D02*
X74Y198D01*
X77Y198D02*
X81Y198D01*
X231Y198D02*
X234Y198D01*
X1906Y198D02*
X1911Y198D01*
X2055Y198D02*
X2062Y198D01*
X0Y197D02*
X7Y197D01*
X21Y197D02*
X74Y197D01*
X77Y197D02*
X81Y197D01*
X231Y197D02*
X234Y197D01*
X1906Y197D02*
X1912Y197D01*
X2055Y197D02*
X2062Y197D01*
X0Y196D02*
X7Y196D01*
X21Y196D02*
X74Y196D01*
X77Y196D02*
X81Y196D01*
X231Y196D02*
X234Y196D01*
X1907Y196D02*
X1913Y196D01*
X2055Y196D02*
X2062Y196D01*
X0Y195D02*
X7Y195D01*
X21Y195D02*
X27Y195D01*
X68Y195D02*
X74Y195D01*
X77Y195D02*
X81Y195D01*
X231Y195D02*
X234Y195D01*
X1908Y195D02*
X1914Y195D01*
X2055Y195D02*
X2062Y195D01*
X0Y194D02*
X7Y194D01*
X21Y194D02*
X27Y194D01*
X68Y194D02*
X74Y194D01*
X77Y194D02*
X81Y194D01*
X231Y194D02*
X234Y194D01*
X459Y194D02*
X470Y194D01*
X1909Y194D02*
X1915Y194D01*
X2055Y194D02*
X2062Y194D01*
X0Y193D02*
X7Y193D01*
X21Y193D02*
X27Y193D01*
X68Y193D02*
X74Y193D01*
X77Y193D02*
X81Y193D01*
X231Y193D02*
X234Y193D01*
X453Y193D02*
X477Y193D01*
X1910Y193D02*
X1916Y193D01*
X2055Y193D02*
X2062Y193D01*
X0Y192D02*
X7Y192D01*
X21Y192D02*
X27Y192D01*
X68Y192D02*
X74Y192D01*
X77Y192D02*
X81Y192D01*
X231Y192D02*
X234Y192D01*
X449Y192D02*
X481Y192D01*
X1911Y192D02*
X1917Y192D01*
X2055Y192D02*
X2062Y192D01*
X0Y191D02*
X7Y191D01*
X21Y191D02*
X27Y191D01*
X68Y191D02*
X74Y191D01*
X77Y191D02*
X81Y191D01*
X231Y191D02*
X234Y191D01*
X446Y191D02*
X484Y191D01*
X1912Y191D02*
X1918Y191D01*
X2055Y191D02*
X2062Y191D01*
X0Y190D02*
X7Y190D01*
X22Y190D02*
X26Y190D01*
X69Y190D02*
X73Y190D01*
X77Y190D02*
X81Y190D01*
X231Y190D02*
X234Y190D01*
X443Y190D02*
X487Y190D01*
X1913Y190D02*
X1919Y190D01*
X2055Y190D02*
X2062Y190D01*
X0Y189D02*
X7Y189D01*
X24Y189D02*
X24Y189D01*
X71Y189D02*
X71Y189D01*
X78Y189D02*
X81Y189D01*
X230Y189D02*
X234Y189D01*
X440Y189D02*
X489Y189D01*
X1914Y189D02*
X1920Y189D01*
X2055Y189D02*
X2062Y189D01*
X0Y188D02*
X7Y188D01*
X78Y188D02*
X81Y188D01*
X230Y188D02*
X234Y188D01*
X438Y188D02*
X491Y188D01*
X1915Y188D02*
X1921Y188D01*
X2055Y188D02*
X2062Y188D01*
X0Y187D02*
X7Y187D01*
X78Y187D02*
X81Y187D01*
X230Y187D02*
X234Y187D01*
X436Y187D02*
X493Y187D01*
X1916Y187D02*
X1922Y187D01*
X2055Y187D02*
X2062Y187D01*
X0Y186D02*
X7Y186D01*
X78Y186D02*
X82Y186D01*
X230Y186D02*
X234Y186D01*
X434Y186D02*
X495Y186D01*
X1917Y186D02*
X1923Y186D01*
X2055Y186D02*
X2062Y186D01*
X0Y185D02*
X7Y185D01*
X78Y185D02*
X82Y185D01*
X230Y185D02*
X234Y185D01*
X433Y185D02*
X497Y185D01*
X1918Y185D02*
X1924Y185D01*
X2055Y185D02*
X2062Y185D01*
X0Y184D02*
X7Y184D01*
X78Y184D02*
X82Y184D01*
X230Y184D02*
X234Y184D01*
X431Y184D02*
X458Y184D01*
X471Y184D02*
X498Y184D01*
X1919Y184D02*
X1925Y184D01*
X2055Y184D02*
X2062Y184D01*
X0Y183D02*
X7Y183D01*
X78Y183D02*
X82Y183D01*
X230Y183D02*
X234Y183D01*
X430Y183D02*
X452Y183D01*
X477Y183D02*
X500Y183D01*
X1921Y183D02*
X1926Y183D01*
X2055Y183D02*
X2062Y183D01*
X0Y182D02*
X7Y182D01*
X78Y182D02*
X82Y182D01*
X229Y182D02*
X233Y182D01*
X428Y182D02*
X449Y182D01*
X481Y182D02*
X501Y182D01*
X1922Y182D02*
X1927Y182D01*
X2055Y182D02*
X2062Y182D01*
X0Y181D02*
X7Y181D01*
X79Y181D02*
X82Y181D01*
X229Y181D02*
X233Y181D01*
X427Y181D02*
X446Y181D01*
X484Y181D02*
X502Y181D01*
X1923Y181D02*
X1928Y181D01*
X2055Y181D02*
X2062Y181D01*
X0Y180D02*
X7Y180D01*
X79Y180D02*
X83Y180D01*
X229Y180D02*
X233Y180D01*
X426Y180D02*
X443Y180D01*
X486Y180D02*
X504Y180D01*
X1924Y180D02*
X1929Y180D01*
X2055Y180D02*
X2062Y180D01*
X0Y179D02*
X7Y179D01*
X79Y179D02*
X83Y179D01*
X229Y179D02*
X233Y179D01*
X425Y179D02*
X441Y179D01*
X488Y179D02*
X505Y179D01*
X1925Y179D02*
X1930Y179D01*
X2055Y179D02*
X2062Y179D01*
X0Y178D02*
X7Y178D01*
X79Y178D02*
X83Y178D01*
X229Y178D02*
X233Y178D01*
X423Y178D02*
X439Y178D01*
X490Y178D02*
X506Y178D01*
X1926Y178D02*
X1931Y178D01*
X2055Y178D02*
X2062Y178D01*
X0Y177D02*
X7Y177D01*
X79Y177D02*
X83Y177D01*
X228Y177D02*
X232Y177D01*
X422Y177D02*
X438Y177D01*
X492Y177D02*
X507Y177D01*
X1926Y177D02*
X1932Y177D01*
X2055Y177D02*
X2062Y177D01*
X0Y176D02*
X7Y176D01*
X80Y176D02*
X84Y176D01*
X228Y176D02*
X232Y176D01*
X421Y176D02*
X436Y176D01*
X494Y176D02*
X508Y176D01*
X1927Y176D02*
X1933Y176D01*
X2055Y176D02*
X2062Y176D01*
X0Y175D02*
X7Y175D01*
X80Y175D02*
X84Y175D01*
X228Y175D02*
X232Y175D01*
X420Y175D02*
X435Y175D01*
X495Y175D02*
X509Y175D01*
X1928Y175D02*
X1934Y175D01*
X2055Y175D02*
X2062Y175D01*
X0Y174D02*
X7Y174D01*
X80Y174D02*
X84Y174D01*
X228Y174D02*
X232Y174D01*
X419Y174D02*
X433Y174D01*
X496Y174D02*
X510Y174D01*
X1929Y174D02*
X1935Y174D01*
X2055Y174D02*
X2062Y174D01*
X0Y173D02*
X7Y173D01*
X23Y173D02*
X24Y173D01*
X70Y173D02*
X72Y173D01*
X80Y173D02*
X84Y173D01*
X227Y173D02*
X231Y173D01*
X419Y173D02*
X432Y173D01*
X498Y173D02*
X511Y173D01*
X1930Y173D02*
X1936Y173D01*
X2055Y173D02*
X2062Y173D01*
X0Y172D02*
X7Y172D01*
X22Y172D02*
X26Y172D01*
X69Y172D02*
X73Y172D01*
X81Y172D02*
X85Y172D01*
X227Y172D02*
X231Y172D01*
X418Y172D02*
X431Y172D01*
X499Y172D02*
X512Y172D01*
X1931Y172D02*
X1937Y172D01*
X2055Y172D02*
X2062Y172D01*
X0Y171D02*
X7Y171D01*
X21Y171D02*
X27Y171D01*
X68Y171D02*
X74Y171D01*
X81Y171D02*
X85Y171D01*
X227Y171D02*
X231Y171D01*
X417Y171D02*
X430Y171D01*
X500Y171D02*
X513Y171D01*
X1932Y171D02*
X1938Y171D01*
X2055Y171D02*
X2062Y171D01*
X0Y170D02*
X7Y170D01*
X21Y170D02*
X27Y170D01*
X68Y170D02*
X74Y170D01*
X81Y170D02*
X85Y170D01*
X226Y170D02*
X230Y170D01*
X416Y170D02*
X428Y170D01*
X501Y170D02*
X513Y170D01*
X1933Y170D02*
X1939Y170D01*
X2055Y170D02*
X2062Y170D01*
X0Y169D02*
X7Y169D01*
X21Y169D02*
X27Y169D01*
X68Y169D02*
X74Y169D01*
X82Y169D02*
X86Y169D01*
X226Y169D02*
X230Y169D01*
X415Y169D02*
X427Y169D01*
X502Y169D02*
X514Y169D01*
X1934Y169D02*
X1940Y169D01*
X2055Y169D02*
X2062Y169D01*
X0Y168D02*
X7Y168D01*
X21Y168D02*
X27Y168D01*
X68Y168D02*
X74Y168D01*
X82Y168D02*
X86Y168D01*
X225Y168D02*
X230Y168D01*
X415Y168D02*
X426Y168D01*
X503Y168D02*
X515Y168D01*
X1935Y168D02*
X1941Y168D01*
X2055Y168D02*
X2062Y168D01*
X0Y167D02*
X7Y167D01*
X21Y167D02*
X27Y167D01*
X68Y167D02*
X74Y167D01*
X82Y167D02*
X87Y167D01*
X225Y167D02*
X229Y167D01*
X414Y167D02*
X426Y167D01*
X504Y167D02*
X516Y167D01*
X1936Y167D02*
X1942Y167D01*
X2055Y167D02*
X2062Y167D01*
X0Y166D02*
X7Y166D01*
X21Y166D02*
X27Y166D01*
X68Y166D02*
X74Y166D01*
X83Y166D02*
X87Y166D01*
X225Y166D02*
X229Y166D01*
X413Y166D02*
X425Y166D01*
X505Y166D02*
X516Y166D01*
X1937Y166D02*
X1943Y166D01*
X2055Y166D02*
X2062Y166D01*
X0Y165D02*
X7Y165D01*
X21Y165D02*
X27Y165D01*
X68Y165D02*
X74Y165D01*
X83Y165D02*
X87Y165D01*
X224Y165D02*
X229Y165D01*
X413Y165D02*
X424Y165D01*
X506Y165D02*
X517Y165D01*
X1938Y165D02*
X1942Y165D01*
X2055Y165D02*
X2062Y165D01*
X0Y164D02*
X7Y164D01*
X21Y164D02*
X27Y164D01*
X68Y164D02*
X74Y164D01*
X84Y164D02*
X88Y164D01*
X224Y164D02*
X228Y164D01*
X412Y164D02*
X423Y164D01*
X506Y164D02*
X517Y164D01*
X1939Y164D02*
X1941Y164D01*
X2055Y164D02*
X2062Y164D01*
X0Y163D02*
X7Y163D01*
X21Y163D02*
X27Y163D01*
X68Y163D02*
X74Y163D01*
X84Y163D02*
X88Y163D01*
X223Y163D02*
X228Y163D01*
X411Y163D02*
X422Y163D01*
X507Y163D02*
X518Y163D01*
X1940Y163D02*
X1940Y163D01*
X2055Y163D02*
X2062Y163D01*
X0Y162D02*
X7Y162D01*
X21Y162D02*
X27Y162D01*
X68Y162D02*
X74Y162D01*
X84Y162D02*
X89Y162D01*
X223Y162D02*
X227Y162D01*
X411Y162D02*
X422Y162D01*
X508Y162D02*
X519Y162D01*
X2055Y162D02*
X2062Y162D01*
X0Y161D02*
X7Y161D01*
X21Y161D02*
X27Y161D01*
X68Y161D02*
X74Y161D01*
X85Y161D02*
X89Y161D01*
X222Y161D02*
X227Y161D01*
X410Y161D02*
X421Y161D01*
X509Y161D02*
X519Y161D01*
X2055Y161D02*
X2062Y161D01*
X0Y160D02*
X7Y160D01*
X21Y160D02*
X27Y160D01*
X68Y160D02*
X74Y160D01*
X86Y160D02*
X90Y160D01*
X222Y160D02*
X226Y160D01*
X410Y160D02*
X420Y160D01*
X509Y160D02*
X520Y160D01*
X2055Y160D02*
X2062Y160D01*
X0Y159D02*
X7Y159D01*
X21Y159D02*
X27Y159D01*
X46Y159D02*
X48Y159D01*
X68Y159D02*
X74Y159D01*
X86Y159D02*
X91Y159D01*
X221Y159D02*
X226Y159D01*
X409Y159D02*
X420Y159D01*
X510Y159D02*
X520Y159D01*
X2055Y159D02*
X2062Y159D01*
X0Y158D02*
X7Y158D01*
X21Y158D02*
X27Y158D01*
X45Y158D02*
X50Y158D01*
X68Y158D02*
X74Y158D01*
X87Y158D02*
X91Y158D01*
X221Y158D02*
X225Y158D01*
X409Y158D02*
X419Y158D01*
X511Y158D02*
X521Y158D01*
X2055Y158D02*
X2062Y158D01*
X0Y157D02*
X7Y157D01*
X21Y157D02*
X27Y157D01*
X45Y157D02*
X50Y157D01*
X68Y157D02*
X74Y157D01*
X87Y157D02*
X92Y157D01*
X220Y157D02*
X225Y157D01*
X408Y157D02*
X418Y157D01*
X511Y157D02*
X521Y157D01*
X2055Y157D02*
X2062Y157D01*
X0Y156D02*
X7Y156D01*
X21Y156D02*
X27Y156D01*
X44Y156D02*
X50Y156D01*
X68Y156D02*
X74Y156D01*
X88Y156D02*
X92Y156D01*
X219Y156D02*
X224Y156D01*
X408Y156D02*
X418Y156D01*
X512Y156D02*
X521Y156D01*
X2055Y156D02*
X2062Y156D01*
X0Y155D02*
X7Y155D01*
X21Y155D02*
X27Y155D01*
X44Y155D02*
X50Y155D01*
X68Y155D02*
X74Y155D01*
X88Y155D02*
X93Y155D01*
X219Y155D02*
X224Y155D01*
X408Y155D02*
X417Y155D01*
X512Y155D02*
X522Y155D01*
X2055Y155D02*
X2062Y155D01*
X0Y154D02*
X7Y154D01*
X21Y154D02*
X27Y154D01*
X44Y154D02*
X50Y154D01*
X68Y154D02*
X74Y154D01*
X89Y154D02*
X94Y154D01*
X218Y154D02*
X223Y154D01*
X407Y154D02*
X417Y154D01*
X513Y154D02*
X522Y154D01*
X2055Y154D02*
X2062Y154D01*
X0Y153D02*
X7Y153D01*
X21Y153D02*
X27Y153D01*
X44Y153D02*
X50Y153D01*
X68Y153D02*
X74Y153D01*
X89Y153D02*
X94Y153D01*
X217Y153D02*
X222Y153D01*
X407Y153D02*
X416Y153D01*
X513Y153D02*
X523Y153D01*
X2055Y153D02*
X2062Y153D01*
X0Y152D02*
X7Y152D01*
X21Y152D02*
X27Y152D01*
X44Y152D02*
X50Y152D01*
X68Y152D02*
X74Y152D01*
X90Y152D02*
X95Y152D01*
X217Y152D02*
X222Y152D01*
X407Y152D02*
X416Y152D01*
X513Y152D02*
X523Y152D01*
X2055Y152D02*
X2062Y152D01*
X0Y151D02*
X7Y151D01*
X21Y151D02*
X27Y151D01*
X44Y151D02*
X50Y151D01*
X68Y151D02*
X74Y151D01*
X91Y151D02*
X96Y151D01*
X216Y151D02*
X221Y151D01*
X406Y151D02*
X416Y151D01*
X514Y151D02*
X523Y151D01*
X2055Y151D02*
X2062Y151D01*
X0Y150D02*
X7Y150D01*
X21Y150D02*
X27Y150D01*
X44Y150D02*
X50Y150D01*
X68Y150D02*
X74Y150D01*
X91Y150D02*
X97Y150D01*
X215Y150D02*
X220Y150D01*
X406Y150D02*
X415Y150D01*
X514Y150D02*
X524Y150D01*
X2055Y150D02*
X2062Y150D01*
X0Y149D02*
X7Y149D01*
X21Y149D02*
X27Y149D01*
X44Y149D02*
X50Y149D01*
X68Y149D02*
X74Y149D01*
X92Y149D02*
X97Y149D01*
X214Y149D02*
X220Y149D01*
X406Y149D02*
X415Y149D01*
X515Y149D02*
X524Y149D01*
X2055Y149D02*
X2062Y149D01*
X0Y148D02*
X7Y148D01*
X21Y148D02*
X27Y148D01*
X44Y148D02*
X50Y148D01*
X68Y148D02*
X74Y148D01*
X93Y148D02*
X98Y148D01*
X214Y148D02*
X219Y148D01*
X405Y148D02*
X415Y148D01*
X515Y148D02*
X524Y148D01*
X2055Y148D02*
X2062Y148D01*
X0Y147D02*
X7Y147D01*
X21Y147D02*
X27Y147D01*
X44Y147D02*
X50Y147D01*
X68Y147D02*
X74Y147D01*
X94Y147D02*
X99Y147D01*
X213Y147D02*
X218Y147D01*
X405Y147D02*
X414Y147D01*
X505Y147D02*
X524Y147D01*
X2055Y147D02*
X2062Y147D01*
X0Y146D02*
X7Y146D01*
X21Y146D02*
X27Y146D01*
X44Y146D02*
X51Y146D01*
X68Y146D02*
X74Y146D01*
X94Y146D02*
X100Y146D01*
X212Y146D02*
X217Y146D01*
X405Y146D02*
X414Y146D01*
X505Y146D02*
X524Y146D01*
X2055Y146D02*
X2062Y146D01*
X0Y145D02*
X7Y145D01*
X21Y145D02*
X74Y145D01*
X95Y145D02*
X101Y145D01*
X211Y145D02*
X217Y145D01*
X405Y145D02*
X414Y145D01*
X506Y145D02*
X524Y145D01*
X2055Y145D02*
X2062Y145D01*
X0Y144D02*
X7Y144D01*
X21Y144D02*
X74Y144D01*
X96Y144D02*
X102Y144D01*
X210Y144D02*
X216Y144D01*
X404Y144D02*
X414Y144D01*
X506Y144D02*
X523Y144D01*
X2055Y144D02*
X2062Y144D01*
X0Y143D02*
X7Y143D01*
X21Y143D02*
X74Y143D01*
X97Y143D02*
X103Y143D01*
X209Y143D02*
X215Y143D01*
X404Y143D02*
X413Y143D01*
X506Y143D02*
X523Y143D01*
X2055Y143D02*
X2062Y143D01*
X0Y142D02*
X7Y142D01*
X21Y142D02*
X74Y142D01*
X98Y142D02*
X104Y142D01*
X208Y142D02*
X214Y142D01*
X404Y142D02*
X413Y142D01*
X507Y142D02*
X523Y142D01*
X2055Y142D02*
X2062Y142D01*
X0Y141D02*
X7Y141D01*
X21Y141D02*
X74Y141D01*
X99Y141D02*
X105Y141D01*
X207Y141D02*
X213Y141D01*
X404Y141D02*
X413Y141D01*
X507Y141D02*
X523Y141D01*
X2055Y141D02*
X2062Y141D01*
X0Y140D02*
X7Y140D01*
X21Y140D02*
X74Y140D01*
X100Y140D02*
X106Y140D01*
X206Y140D02*
X212Y140D01*
X404Y140D02*
X413Y140D01*
X507Y140D02*
X523Y140D01*
X2055Y140D02*
X2062Y140D01*
X0Y139D02*
X7Y139D01*
X21Y139D02*
X74Y139D01*
X101Y139D02*
X107Y139D01*
X205Y139D02*
X211Y139D01*
X404Y139D02*
X413Y139D01*
X507Y139D02*
X522Y139D01*
X2055Y139D02*
X2062Y139D01*
X0Y138D02*
X7Y138D01*
X102Y138D02*
X108Y138D01*
X204Y138D02*
X210Y138D01*
X404Y138D02*
X413Y138D01*
X507Y138D02*
X522Y138D01*
X2055Y138D02*
X2062Y138D01*
X0Y137D02*
X7Y137D01*
X103Y137D02*
X110Y137D01*
X202Y137D02*
X209Y137D01*
X403Y137D02*
X412Y137D01*
X507Y137D02*
X522Y137D01*
X2055Y137D02*
X2062Y137D01*
X0Y136D02*
X7Y136D01*
X104Y136D02*
X111Y136D01*
X201Y136D02*
X208Y136D01*
X403Y136D02*
X412Y136D01*
X508Y136D02*
X522Y136D01*
X2055Y136D02*
X2062Y136D01*
X0Y135D02*
X7Y135D01*
X105Y135D02*
X112Y135D01*
X200Y135D02*
X207Y135D01*
X403Y135D02*
X412Y135D01*
X508Y135D02*
X522Y135D01*
X2055Y135D02*
X2062Y135D01*
X0Y134D02*
X7Y134D01*
X106Y134D02*
X114Y134D01*
X198Y134D02*
X206Y134D01*
X403Y134D02*
X412Y134D01*
X508Y134D02*
X522Y134D01*
X2055Y134D02*
X2062Y134D01*
X0Y133D02*
X7Y133D01*
X107Y133D02*
X115Y133D01*
X197Y133D02*
X204Y133D01*
X403Y133D02*
X412Y133D01*
X508Y133D02*
X522Y133D01*
X2055Y133D02*
X2062Y133D01*
X0Y132D02*
X7Y132D01*
X109Y132D02*
X117Y132D01*
X195Y132D02*
X203Y132D01*
X403Y132D02*
X412Y132D01*
X508Y132D02*
X522Y132D01*
X2055Y132D02*
X2062Y132D01*
X0Y131D02*
X7Y131D01*
X110Y131D02*
X118Y131D01*
X194Y131D02*
X202Y131D01*
X403Y131D02*
X412Y131D01*
X508Y131D02*
X522Y131D01*
X2055Y131D02*
X2062Y131D01*
X0Y130D02*
X7Y130D01*
X111Y130D02*
X119Y130D01*
X193Y130D02*
X200Y130D01*
X403Y130D02*
X412Y130D01*
X508Y130D02*
X522Y130D01*
X2055Y130D02*
X2062Y130D01*
X0Y129D02*
X7Y129D01*
X113Y129D02*
X119Y129D01*
X193Y129D02*
X199Y129D01*
X403Y129D02*
X412Y129D01*
X508Y129D02*
X522Y129D01*
X2055Y129D02*
X2062Y129D01*
X0Y128D02*
X7Y128D01*
X114Y128D02*
X119Y128D01*
X194Y128D02*
X197Y128D01*
X403Y128D02*
X412Y128D01*
X507Y128D02*
X522Y128D01*
X2055Y128D02*
X2062Y128D01*
X0Y127D02*
X7Y127D01*
X116Y127D02*
X119Y127D01*
X195Y127D02*
X196Y127D01*
X404Y127D02*
X413Y127D01*
X507Y127D02*
X522Y127D01*
X2055Y127D02*
X2062Y127D01*
X0Y126D02*
X7Y126D01*
X404Y126D02*
X413Y126D01*
X507Y126D02*
X522Y126D01*
X2055Y126D02*
X2062Y126D01*
X0Y125D02*
X7Y125D01*
X404Y125D02*
X413Y125D01*
X507Y125D02*
X522Y125D01*
X2055Y125D02*
X2062Y125D01*
X0Y124D02*
X7Y124D01*
X404Y124D02*
X413Y124D01*
X507Y124D02*
X523Y124D01*
X2055Y124D02*
X2062Y124D01*
X0Y123D02*
X7Y123D01*
X71Y123D02*
X71Y123D01*
X404Y123D02*
X413Y123D01*
X507Y123D02*
X523Y123D01*
X2055Y123D02*
X2062Y123D01*
X0Y122D02*
X7Y122D01*
X69Y122D02*
X73Y122D01*
X404Y122D02*
X413Y122D01*
X506Y122D02*
X523Y122D01*
X2055Y122D02*
X2062Y122D01*
X0Y121D02*
X7Y121D01*
X68Y121D02*
X74Y121D01*
X404Y121D02*
X413Y121D01*
X506Y121D02*
X523Y121D01*
X2055Y121D02*
X2062Y121D01*
X0Y120D02*
X7Y120D01*
X68Y120D02*
X74Y120D01*
X405Y120D02*
X414Y120D01*
X506Y120D02*
X524Y120D01*
X2055Y120D02*
X2062Y120D01*
X0Y119D02*
X7Y119D01*
X68Y119D02*
X74Y119D01*
X405Y119D02*
X414Y119D01*
X506Y119D02*
X524Y119D01*
X2055Y119D02*
X2062Y119D01*
X0Y118D02*
X7Y118D01*
X68Y118D02*
X74Y118D01*
X405Y118D02*
X414Y118D01*
X505Y118D02*
X524Y118D01*
X2055Y118D02*
X2062Y118D01*
X0Y117D02*
X7Y117D01*
X68Y117D02*
X74Y117D01*
X405Y117D02*
X414Y117D01*
X515Y117D02*
X524Y117D01*
X2055Y117D02*
X2062Y117D01*
X0Y116D02*
X7Y116D01*
X68Y116D02*
X74Y116D01*
X406Y116D02*
X415Y116D01*
X515Y116D02*
X524Y116D01*
X2055Y116D02*
X2062Y116D01*
X0Y115D02*
X7Y115D01*
X68Y115D02*
X74Y115D01*
X406Y115D02*
X415Y115D01*
X514Y115D02*
X524Y115D01*
X2055Y115D02*
X2062Y115D01*
X0Y114D02*
X7Y114D01*
X68Y114D02*
X74Y114D01*
X406Y114D02*
X416Y114D01*
X514Y114D02*
X523Y114D01*
X2055Y114D02*
X2062Y114D01*
X0Y113D02*
X7Y113D01*
X68Y113D02*
X74Y113D01*
X406Y113D02*
X416Y113D01*
X514Y113D02*
X523Y113D01*
X2055Y113D02*
X2062Y113D01*
X0Y112D02*
X7Y112D01*
X68Y112D02*
X74Y112D01*
X407Y112D02*
X416Y112D01*
X513Y112D02*
X523Y112D01*
X2055Y112D02*
X2062Y112D01*
X0Y111D02*
X7Y111D01*
X68Y111D02*
X74Y111D01*
X407Y111D02*
X417Y111D01*
X513Y111D02*
X522Y111D01*
X2055Y111D02*
X2062Y111D01*
X0Y110D02*
X7Y110D01*
X68Y110D02*
X74Y110D01*
X408Y110D02*
X417Y110D01*
X512Y110D02*
X522Y110D01*
X2055Y110D02*
X2062Y110D01*
X0Y109D02*
X7Y109D01*
X68Y109D02*
X74Y109D01*
X408Y109D02*
X418Y109D01*
X512Y109D02*
X522Y109D01*
X2055Y109D02*
X2062Y109D01*
X0Y108D02*
X7Y108D01*
X68Y108D02*
X74Y108D01*
X408Y108D02*
X418Y108D01*
X511Y108D02*
X521Y108D01*
X2055Y108D02*
X2062Y108D01*
X0Y107D02*
X7Y107D01*
X68Y107D02*
X74Y107D01*
X409Y107D02*
X419Y107D01*
X511Y107D02*
X521Y107D01*
X2055Y107D02*
X2062Y107D01*
X0Y106D02*
X7Y106D01*
X68Y106D02*
X74Y106D01*
X409Y106D02*
X419Y106D01*
X510Y106D02*
X520Y106D01*
X2055Y106D02*
X2062Y106D01*
X0Y105D02*
X7Y105D01*
X68Y105D02*
X74Y105D01*
X410Y105D02*
X420Y105D01*
X509Y105D02*
X520Y105D01*
X2055Y105D02*
X2062Y105D01*
X0Y104D02*
X7Y104D01*
X68Y104D02*
X74Y104D01*
X410Y104D02*
X421Y104D01*
X509Y104D02*
X519Y104D01*
X2055Y104D02*
X2062Y104D01*
X0Y103D02*
X7Y103D01*
X68Y103D02*
X74Y103D01*
X411Y103D02*
X421Y103D01*
X508Y103D02*
X519Y103D01*
X2055Y103D02*
X2062Y103D01*
X0Y102D02*
X7Y102D01*
X68Y102D02*
X74Y102D01*
X411Y102D02*
X422Y102D01*
X507Y102D02*
X518Y102D01*
X2055Y102D02*
X2062Y102D01*
X0Y101D02*
X7Y101D01*
X68Y101D02*
X74Y101D01*
X412Y101D02*
X423Y101D01*
X507Y101D02*
X518Y101D01*
X2055Y101D02*
X2062Y101D01*
X0Y100D02*
X7Y100D01*
X68Y100D02*
X74Y100D01*
X413Y100D02*
X424Y100D01*
X506Y100D02*
X517Y100D01*
X2055Y100D02*
X2062Y100D01*
X0Y99D02*
X7Y99D01*
X68Y99D02*
X74Y99D01*
X413Y99D02*
X424Y99D01*
X505Y99D02*
X516Y99D01*
X2055Y99D02*
X2062Y99D01*
X0Y98D02*
X7Y98D01*
X68Y98D02*
X74Y98D01*
X414Y98D02*
X425Y98D01*
X504Y98D02*
X516Y98D01*
X2055Y98D02*
X2062Y98D01*
X0Y97D02*
X7Y97D01*
X68Y97D02*
X74Y97D01*
X414Y97D02*
X426Y97D01*
X503Y97D02*
X515Y97D01*
X2055Y97D02*
X2062Y97D01*
X0Y96D02*
X7Y96D01*
X68Y96D02*
X74Y96D01*
X415Y96D02*
X427Y96D01*
X502Y96D02*
X514Y96D01*
X2055Y96D02*
X2062Y96D01*
X0Y95D02*
X7Y95D01*
X23Y95D02*
X74Y95D01*
X416Y95D02*
X428Y95D01*
X501Y95D02*
X514Y95D01*
X2055Y95D02*
X2062Y95D01*
X0Y94D02*
X7Y94D01*
X22Y94D02*
X74Y94D01*
X417Y94D02*
X429Y94D01*
X500Y94D02*
X513Y94D01*
X2055Y94D02*
X2062Y94D01*
X0Y93D02*
X7Y93D01*
X21Y93D02*
X74Y93D01*
X417Y93D02*
X430Y93D01*
X499Y93D02*
X512Y93D01*
X2055Y93D02*
X2062Y93D01*
X0Y92D02*
X7Y92D01*
X21Y92D02*
X74Y92D01*
X418Y92D02*
X431Y92D01*
X498Y92D02*
X511Y92D01*
X2055Y92D02*
X2062Y92D01*
X0Y91D02*
X7Y91D01*
X21Y91D02*
X74Y91D01*
X419Y91D02*
X433Y91D01*
X497Y91D02*
X510Y91D01*
X2055Y91D02*
X2062Y91D01*
X0Y90D02*
X7Y90D01*
X22Y90D02*
X74Y90D01*
X420Y90D02*
X434Y90D01*
X495Y90D02*
X509Y90D01*
X2055Y90D02*
X2062Y90D01*
X0Y89D02*
X7Y89D01*
X23Y89D02*
X74Y89D01*
X421Y89D02*
X436Y89D01*
X494Y89D02*
X508Y89D01*
X2055Y89D02*
X2062Y89D01*
X0Y88D02*
X7Y88D01*
X422Y88D02*
X437Y88D01*
X492Y88D02*
X507Y88D01*
X2055Y88D02*
X2062Y88D01*
X0Y87D02*
X7Y87D01*
X423Y87D02*
X439Y87D01*
X491Y87D02*
X506Y87D01*
X1818Y87D02*
X1824Y87D01*
X2055Y87D02*
X2062Y87D01*
X0Y86D02*
X7Y86D01*
X424Y86D02*
X441Y86D01*
X489Y86D02*
X505Y86D01*
X1818Y86D02*
X1825Y86D01*
X1891Y86D02*
X1901Y86D01*
X1910Y86D02*
X1910Y86D01*
X1921Y86D02*
X1921Y86D01*
X2055Y86D02*
X2062Y86D01*
X0Y85D02*
X7Y85D01*
X425Y85D02*
X443Y85D01*
X487Y85D02*
X504Y85D01*
X1820Y85D02*
X1825Y85D01*
X1891Y85D02*
X1901Y85D01*
X1909Y85D02*
X1911Y85D01*
X1920Y85D02*
X1922Y85D01*
X2055Y85D02*
X2062Y85D01*
X0Y84D02*
X7Y84D01*
X427Y84D02*
X445Y84D01*
X484Y84D02*
X503Y84D01*
X1614Y84D02*
X1616Y84D01*
X1696Y84D02*
X1697Y84D01*
X1823Y84D02*
X1825Y84D01*
X1891Y84D02*
X1901Y84D01*
X1909Y84D02*
X1911Y84D01*
X1920Y84D02*
X1922Y84D01*
X2055Y84D02*
X2062Y84D01*
X0Y83D02*
X7Y83D01*
X428Y83D02*
X448Y83D01*
X482Y83D02*
X502Y83D01*
X1614Y83D02*
X1616Y83D01*
X1695Y83D02*
X1697Y83D01*
X1823Y83D02*
X1825Y83D01*
X1891Y83D02*
X1893Y83D01*
X1909Y83D02*
X1911Y83D01*
X1920Y83D02*
X1922Y83D01*
X2055Y83D02*
X2062Y83D01*
X0Y82D02*
X7Y82D01*
X429Y82D02*
X451Y82D01*
X478Y82D02*
X500Y82D01*
X1614Y82D02*
X1616Y82D01*
X1695Y82D02*
X1697Y82D01*
X1823Y82D02*
X1825Y82D01*
X1874Y82D02*
X1874Y82D01*
X1891Y82D02*
X1893Y82D01*
X1909Y82D02*
X1911Y82D01*
X1920Y82D02*
X1922Y82D01*
X2055Y82D02*
X2062Y82D01*
X0Y81D02*
X7Y81D01*
X431Y81D02*
X456Y81D01*
X473Y81D02*
X499Y81D01*
X1614Y81D02*
X1616Y81D01*
X1695Y81D02*
X1697Y81D01*
X1776Y81D02*
X1786Y81D01*
X1800Y81D02*
X1809Y81D01*
X1823Y81D02*
X1825Y81D01*
X1873Y81D02*
X1875Y81D01*
X1891Y81D02*
X1893Y81D01*
X1909Y81D02*
X1911Y81D01*
X1920Y81D02*
X1922Y81D01*
X2055Y81D02*
X2062Y81D01*
X0Y80D02*
X7Y80D01*
X432Y80D02*
X497Y80D01*
X1614Y80D02*
X1616Y80D01*
X1695Y80D02*
X1697Y80D01*
X1775Y80D02*
X1787Y80D01*
X1799Y80D02*
X1809Y80D01*
X1823Y80D02*
X1825Y80D01*
X1873Y80D02*
X1875Y80D01*
X1891Y80D02*
X1893Y80D01*
X1909Y80D02*
X1911Y80D01*
X1920Y80D02*
X1922Y80D01*
X2055Y80D02*
X2062Y80D01*
X0Y79D02*
X7Y79D01*
X434Y79D02*
X496Y79D01*
X1570Y79D02*
X1573Y79D01*
X1578Y79D02*
X1578Y79D01*
X1586Y79D02*
X1586Y79D01*
X1591Y79D02*
X1594Y79D01*
X1608Y79D02*
X1611Y79D01*
X1614Y79D02*
X1616Y79D01*
X1669Y79D02*
X1676Y79D01*
X1689Y79D02*
X1692Y79D01*
X1695Y79D02*
X1697Y79D01*
X1707Y79D02*
X1713Y79D01*
X1774Y79D02*
X1787Y79D01*
X1797Y79D02*
X1808Y79D01*
X1823Y79D02*
X1825Y79D01*
X1873Y79D02*
X1875Y79D01*
X1891Y79D02*
X1893Y79D01*
X1909Y79D02*
X1911Y79D01*
X1920Y79D02*
X1922Y79D01*
X2055Y79D02*
X2062Y79D01*
X0Y78D02*
X7Y78D01*
X436Y78D02*
X494Y78D01*
X1568Y78D02*
X1575Y78D01*
X1577Y78D02*
X1578Y78D01*
X1585Y78D02*
X1587Y78D01*
X1589Y78D02*
X1596Y78D01*
X1606Y78D02*
X1616Y78D01*
X1668Y78D02*
X1677Y78D01*
X1687Y78D02*
X1697Y78D01*
X1707Y78D02*
X1714Y78D01*
X1774Y78D02*
X1776Y78D01*
X1786Y78D02*
X1787Y78D01*
X1797Y78D02*
X1800Y78D01*
X1823Y78D02*
X1825Y78D01*
X1873Y78D02*
X1875Y78D01*
X1891Y78D02*
X1893Y78D01*
X1909Y78D02*
X1912Y78D01*
X1919Y78D02*
X1921Y78D01*
X2055Y78D02*
X2062Y78D01*
X0Y77D02*
X7Y77D01*
X438Y77D02*
X492Y77D01*
X1567Y77D02*
X1578Y77D01*
X1585Y77D02*
X1596Y77D01*
X1605Y77D02*
X1616Y77D01*
X1667Y77D02*
X1678Y77D01*
X1686Y77D02*
X1697Y77D01*
X1707Y77D02*
X1715Y77D01*
X1774Y77D02*
X1777Y77D01*
X1796Y77D02*
X1799Y77D01*
X1823Y77D02*
X1825Y77D01*
X1873Y77D02*
X1875Y77D01*
X1891Y77D02*
X1893Y77D01*
X1910Y77D02*
X1912Y77D01*
X1919Y77D02*
X1921Y77D01*
X2055Y77D02*
X2062Y77D01*
X0Y76D02*
X7Y76D01*
X440Y76D02*
X490Y76D01*
X1567Y76D02*
X1569Y76D01*
X1574Y76D02*
X1578Y76D01*
X1585Y76D02*
X1590Y76D01*
X1595Y76D02*
X1597Y76D01*
X1604Y76D02*
X1607Y76D01*
X1612Y76D02*
X1616Y76D01*
X1667Y76D02*
X1668Y76D01*
X1677Y76D02*
X1678Y76D01*
X1685Y76D02*
X1688Y76D01*
X1693Y76D02*
X1697Y76D01*
X1714Y76D02*
X1715Y76D01*
X1775Y76D02*
X1779Y76D01*
X1796Y76D02*
X1798Y76D01*
X1823Y76D02*
X1825Y76D01*
X1868Y76D02*
X1880Y76D01*
X1891Y76D02*
X1900Y76D01*
X1910Y76D02*
X1912Y76D01*
X1918Y76D02*
X1920Y76D01*
X2055Y76D02*
X2062Y76D01*
X0Y75D02*
X7Y75D01*
X442Y75D02*
X487Y75D01*
X1566Y75D02*
X1568Y75D01*
X1576Y75D02*
X1578Y75D01*
X1585Y75D02*
X1589Y75D01*
X1595Y75D02*
X1597Y75D01*
X1604Y75D02*
X1606Y75D01*
X1613Y75D02*
X1616Y75D01*
X1667Y75D02*
X1669Y75D01*
X1685Y75D02*
X1687Y75D01*
X1694Y75D02*
X1697Y75D01*
X1714Y75D02*
X1716Y75D01*
X1776Y75D02*
X1782Y75D01*
X1795Y75D02*
X1797Y75D01*
X1823Y75D02*
X1825Y75D01*
X1868Y75D02*
X1881Y75D01*
X1891Y75D02*
X1901Y75D01*
X1911Y75D02*
X1913Y75D01*
X1918Y75D02*
X1920Y75D01*
X2055Y75D02*
X2062Y75D01*
X0Y74D02*
X7Y74D01*
X445Y74D02*
X485Y74D01*
X1566Y74D02*
X1568Y74D01*
X1576Y74D02*
X1578Y74D01*
X1585Y74D02*
X1587Y74D01*
X1595Y74D02*
X1597Y74D01*
X1604Y74D02*
X1606Y74D01*
X1614Y74D02*
X1616Y74D01*
X1667Y74D02*
X1672Y74D01*
X1685Y74D02*
X1687Y74D01*
X1695Y74D02*
X1697Y74D01*
X1714Y74D02*
X1716Y74D01*
X1778Y74D02*
X1784Y74D01*
X1795Y74D02*
X1797Y74D01*
X1823Y74D02*
X1825Y74D01*
X1869Y74D02*
X1880Y74D01*
X1891Y74D02*
X1901Y74D01*
X1911Y74D02*
X1913Y74D01*
X1918Y74D02*
X1920Y74D01*
X2055Y74D02*
X2062Y74D01*
X0Y73D02*
X7Y73D01*
X448Y73D02*
X482Y73D01*
X1566Y73D02*
X1568Y73D01*
X1577Y73D02*
X1578Y73D01*
X1585Y73D02*
X1587Y73D01*
X1595Y73D02*
X1597Y73D01*
X1604Y73D02*
X1606Y73D01*
X1614Y73D02*
X1616Y73D01*
X1669Y73D02*
X1674Y73D01*
X1685Y73D02*
X1687Y73D01*
X1695Y73D02*
X1697Y73D01*
X1706Y73D02*
X1716Y73D01*
X1780Y73D02*
X1786Y73D01*
X1795Y73D02*
X1797Y73D01*
X1823Y73D02*
X1825Y73D01*
X1873Y73D02*
X1875Y73D01*
X1899Y73D02*
X1901Y73D01*
X1911Y73D02*
X1913Y73D01*
X1917Y73D02*
X1919Y73D01*
X2055Y73D02*
X2062Y73D01*
X0Y72D02*
X7Y72D01*
X452Y72D02*
X478Y72D01*
X1566Y72D02*
X1568Y72D01*
X1577Y72D02*
X1578Y72D01*
X1585Y72D02*
X1587Y72D01*
X1595Y72D02*
X1597Y72D01*
X1604Y72D02*
X1606Y72D01*
X1614Y72D02*
X1616Y72D01*
X1671Y72D02*
X1676Y72D01*
X1685Y72D02*
X1687Y72D01*
X1695Y72D02*
X1697Y72D01*
X1705Y72D02*
X1716Y72D01*
X1782Y72D02*
X1787Y72D01*
X1795Y72D02*
X1797Y72D01*
X1823Y72D02*
X1825Y72D01*
X1873Y72D02*
X1875Y72D01*
X1899Y72D02*
X1901Y72D01*
X1912Y72D02*
X1914Y72D01*
X1917Y72D02*
X1919Y72D01*
X2055Y72D02*
X2062Y72D01*
X0Y71D02*
X7Y71D01*
X457Y71D02*
X472Y71D01*
X1566Y71D02*
X1568Y71D01*
X1577Y71D02*
X1578Y71D01*
X1585Y71D02*
X1587Y71D01*
X1595Y71D02*
X1597Y71D01*
X1604Y71D02*
X1606Y71D01*
X1614Y71D02*
X1616Y71D01*
X1673Y71D02*
X1677Y71D01*
X1685Y71D02*
X1687Y71D01*
X1695Y71D02*
X1697Y71D01*
X1704Y71D02*
X1707Y71D01*
X1713Y71D02*
X1716Y71D01*
X1784Y71D02*
X1787Y71D01*
X1795Y71D02*
X1797Y71D01*
X1823Y71D02*
X1825Y71D01*
X1873Y71D02*
X1875Y71D01*
X1899Y71D02*
X1901Y71D01*
X1912Y71D02*
X1914Y71D01*
X1916Y71D02*
X1918Y71D01*
X2055Y71D02*
X2062Y71D01*
X0Y70D02*
X7Y70D01*
X1567Y70D02*
X1568Y70D01*
X1576Y70D02*
X1578Y70D01*
X1585Y70D02*
X1587Y70D01*
X1595Y70D02*
X1597Y70D01*
X1604Y70D02*
X1606Y70D01*
X1614Y70D02*
X1616Y70D01*
X1675Y70D02*
X1678Y70D01*
X1685Y70D02*
X1687Y70D01*
X1695Y70D02*
X1697Y70D01*
X1704Y70D02*
X1706Y70D01*
X1714Y70D02*
X1716Y70D01*
X1785Y70D02*
X1788Y70D01*
X1796Y70D02*
X1798Y70D01*
X1823Y70D02*
X1825Y70D01*
X1873Y70D02*
X1875Y70D01*
X1899Y70D02*
X1901Y70D01*
X1913Y70D02*
X1918Y70D01*
X2055Y70D02*
X2062Y70D01*
X0Y69D02*
X7Y69D01*
X1567Y69D02*
X1569Y69D01*
X1575Y69D02*
X1578Y69D01*
X1585Y69D02*
X1587Y69D01*
X1595Y69D02*
X1597Y69D01*
X1604Y69D02*
X1606Y69D01*
X1613Y69D02*
X1616Y69D01*
X1677Y69D02*
X1678Y69D01*
X1685Y69D02*
X1687Y69D01*
X1695Y69D02*
X1697Y69D01*
X1704Y69D02*
X1706Y69D01*
X1714Y69D02*
X1716Y69D01*
X1775Y69D02*
X1775Y69D01*
X1785Y69D02*
X1788Y69D01*
X1796Y69D02*
X1800Y69D01*
X1823Y69D02*
X1825Y69D01*
X1874Y69D02*
X1875Y69D01*
X1899Y69D02*
X1901Y69D01*
X1913Y69D02*
X1918Y69D01*
X2055Y69D02*
X2062Y69D01*
X0Y68D02*
X7Y68D01*
X417Y68D02*
X442Y68D01*
X470Y68D02*
X496Y68D01*
X1567Y68D02*
X1578Y68D01*
X1585Y68D02*
X1587Y68D01*
X1595Y68D02*
X1597Y68D01*
X1604Y68D02*
X1606Y68D01*
X1612Y68D02*
X1616Y68D01*
X1667Y68D02*
X1667Y68D01*
X1676Y68D02*
X1678Y68D01*
X1685Y68D02*
X1688Y68D01*
X1693Y68D02*
X1697Y68D01*
X1704Y68D02*
X1706Y68D01*
X1713Y68D02*
X1716Y68D01*
X1774Y68D02*
X1777Y68D01*
X1785Y68D02*
X1787Y68D01*
X1797Y68D02*
X1801Y68D01*
X1822Y68D02*
X1825Y68D01*
X1889Y68D02*
X1889Y68D01*
X1899Y68D02*
X1901Y68D01*
X1913Y68D02*
X1917Y68D01*
X2055Y68D02*
X2062Y68D01*
X0Y67D02*
X7Y67D01*
X417Y67D02*
X445Y67D01*
X468Y67D02*
X498Y67D01*
X1568Y67D02*
X1578Y67D01*
X1585Y67D02*
X1587Y67D01*
X1595Y67D02*
X1597Y67D01*
X1605Y67D02*
X1616Y67D01*
X1667Y67D02*
X1678Y67D01*
X1686Y67D02*
X1697Y67D01*
X1704Y67D02*
X1716Y67D01*
X1774Y67D02*
X1787Y67D01*
X1798Y67D02*
X1809Y67D01*
X1818Y67D02*
X1829Y67D01*
X1888Y67D02*
X1901Y67D01*
X1914Y67D02*
X1917Y67D01*
X2055Y67D02*
X2062Y67D01*
X0Y66D02*
X7Y66D01*
X417Y66D02*
X447Y66D01*
X468Y66D02*
X499Y66D01*
X1570Y66D02*
X1574Y66D01*
X1577Y66D02*
X1578Y66D01*
X1585Y66D02*
X1587Y66D01*
X1595Y66D02*
X1597Y66D01*
X1606Y66D02*
X1616Y66D01*
X1667Y66D02*
X1677Y66D01*
X1687Y66D02*
X1697Y66D01*
X1705Y66D02*
X1716Y66D01*
X1775Y66D02*
X1786Y66D01*
X1799Y66D02*
X1809Y66D01*
X1818Y66D02*
X1829Y66D01*
X1889Y66D02*
X1901Y66D01*
X1914Y66D02*
X1917Y66D01*
X2055Y66D02*
X2062Y66D01*
X0Y65D02*
X7Y65D01*
X417Y65D02*
X448Y65D01*
X467Y65D02*
X500Y65D01*
X1577Y65D02*
X1578Y65D01*
X1586Y65D02*
X1586Y65D01*
X1596Y65D02*
X1597Y65D01*
X1607Y65D02*
X1612Y65D01*
X1615Y65D02*
X1615Y65D01*
X1668Y65D02*
X1676Y65D01*
X1688Y65D02*
X1693Y65D01*
X1696Y65D02*
X1697Y65D01*
X1706Y65D02*
X1712Y65D01*
X1715Y65D02*
X1715Y65D01*
X1778Y65D02*
X1784Y65D01*
X1802Y65D02*
X1808Y65D01*
X1819Y65D02*
X1828Y65D01*
X1890Y65D02*
X1900Y65D01*
X1915Y65D02*
X1916Y65D01*
X2055Y65D02*
X2062Y65D01*
X0Y64D02*
X7Y64D01*
X417Y64D02*
X448Y64D01*
X467Y64D02*
X500Y64D01*
X1577Y64D02*
X1578Y64D01*
X2055Y64D02*
X2062Y64D01*
X0Y63D02*
X7Y63D01*
X417Y63D02*
X449Y63D01*
X468Y63D02*
X501Y63D01*
X1576Y63D02*
X1578Y63D01*
X2055Y63D02*
X2062Y63D01*
X0Y62D02*
X7Y62D01*
X417Y62D02*
X450Y62D01*
X469Y62D02*
X501Y62D01*
X1575Y62D02*
X1578Y62D01*
X2055Y62D02*
X2062Y62D01*
X0Y61D02*
X7Y61D01*
X417Y61D02*
X423Y61D01*
X442Y61D02*
X450Y61D01*
X495Y61D02*
X501Y61D01*
X1568Y61D02*
X1577Y61D01*
X2055Y61D02*
X2062Y61D01*
X0Y60D02*
X7Y60D01*
X417Y60D02*
X423Y60D01*
X444Y60D02*
X450Y60D01*
X495Y60D02*
X501Y60D01*
X1568Y60D02*
X1576Y60D01*
X2055Y60D02*
X2062Y60D01*
X0Y59D02*
X7Y59D01*
X417Y59D02*
X423Y59D01*
X444Y59D02*
X451Y59D01*
X495Y59D02*
X501Y59D01*
X2055Y59D02*
X2062Y59D01*
X0Y58D02*
X7Y58D01*
X417Y58D02*
X423Y58D01*
X445Y58D02*
X451Y58D01*
X495Y58D02*
X501Y58D01*
X2055Y58D02*
X2062Y58D01*
X0Y57D02*
X7Y57D01*
X417Y57D02*
X423Y57D01*
X445Y57D02*
X451Y57D01*
X495Y57D02*
X501Y57D01*
X2055Y57D02*
X2062Y57D01*
X0Y56D02*
X7Y56D01*
X417Y56D02*
X423Y56D01*
X445Y56D02*
X451Y56D01*
X495Y56D02*
X501Y56D01*
X2055Y56D02*
X2062Y56D01*
X0Y55D02*
X7Y55D01*
X417Y55D02*
X423Y55D01*
X445Y55D02*
X451Y55D01*
X495Y55D02*
X501Y55D01*
X2055Y55D02*
X2062Y55D01*
X0Y54D02*
X7Y54D01*
X417Y54D02*
X423Y54D01*
X445Y54D02*
X451Y54D01*
X495Y54D02*
X501Y54D01*
X2055Y54D02*
X2062Y54D01*
X0Y53D02*
X7Y53D01*
X417Y53D02*
X423Y53D01*
X444Y53D02*
X451Y53D01*
X495Y53D02*
X501Y53D01*
X2055Y53D02*
X2062Y53D01*
X0Y52D02*
X7Y52D01*
X417Y52D02*
X423Y52D01*
X444Y52D02*
X450Y52D01*
X495Y52D02*
X501Y52D01*
X2055Y52D02*
X2062Y52D01*
X0Y51D02*
X7Y51D01*
X417Y51D02*
X423Y51D01*
X443Y51D02*
X450Y51D01*
X495Y51D02*
X501Y51D01*
X2055Y51D02*
X2062Y51D01*
X0Y50D02*
X7Y50D01*
X417Y50D02*
X450Y50D01*
X495Y50D02*
X501Y50D01*
X2055Y50D02*
X2062Y50D01*
X0Y49D02*
X7Y49D01*
X417Y49D02*
X449Y49D01*
X495Y49D02*
X501Y49D01*
X2055Y49D02*
X2062Y49D01*
X0Y48D02*
X7Y48D01*
X417Y48D02*
X449Y48D01*
X495Y48D02*
X501Y48D01*
X2055Y48D02*
X2062Y48D01*
X0Y47D02*
X7Y47D01*
X417Y47D02*
X448Y47D01*
X495Y47D02*
X501Y47D01*
X2055Y47D02*
X2062Y47D01*
X0Y46D02*
X7Y46D01*
X417Y46D02*
X447Y46D01*
X494Y46D02*
X501Y46D01*
X2055Y46D02*
X2062Y46D01*
X0Y45D02*
X7Y45D01*
X417Y45D02*
X445Y45D01*
X492Y45D02*
X500Y45D01*
X2055Y45D02*
X2062Y45D01*
X0Y44D02*
X7Y44D01*
X417Y44D02*
X443Y44D01*
X476Y44D02*
X500Y44D01*
X2055Y44D02*
X2062Y44D01*
X0Y43D02*
X7Y43D01*
X417Y43D02*
X423Y43D01*
X429Y43D02*
X436Y43D01*
X475Y43D02*
X499Y43D01*
X2055Y43D02*
X2062Y43D01*
X0Y42D02*
X7Y42D01*
X417Y42D02*
X423Y42D01*
X430Y42D02*
X437Y42D01*
X474Y42D02*
X499Y42D01*
X2055Y42D02*
X2062Y42D01*
X0Y41D02*
X7Y41D01*
X417Y41D02*
X423Y41D01*
X430Y41D02*
X438Y41D01*
X474Y41D02*
X498Y41D01*
X2055Y41D02*
X2062Y41D01*
X0Y40D02*
X7Y40D01*
X417Y40D02*
X423Y40D01*
X431Y40D02*
X438Y40D01*
X474Y40D02*
X499Y40D01*
X2055Y40D02*
X2062Y40D01*
X0Y39D02*
X7Y39D01*
X417Y39D02*
X423Y39D01*
X432Y39D02*
X439Y39D01*
X475Y39D02*
X500Y39D01*
X2055Y39D02*
X2062Y39D01*
X0Y38D02*
X7Y38D01*
X417Y38D02*
X423Y38D01*
X432Y38D02*
X439Y38D01*
X476Y38D02*
X500Y38D01*
X2055Y38D02*
X2062Y38D01*
X0Y37D02*
X7Y37D01*
X417Y37D02*
X423Y37D01*
X433Y37D02*
X440Y37D01*
X493Y37D02*
X500Y37D01*
X2055Y37D02*
X2062Y37D01*
X0Y36D02*
X7Y36D01*
X417Y36D02*
X423Y36D01*
X433Y36D02*
X441Y36D01*
X494Y36D02*
X501Y36D01*
X2055Y36D02*
X2062Y36D01*
X0Y35D02*
X7Y35D01*
X417Y35D02*
X423Y35D01*
X434Y35D02*
X441Y35D01*
X495Y35D02*
X501Y35D01*
X2055Y35D02*
X2062Y35D01*
X0Y34D02*
X7Y34D01*
X417Y34D02*
X423Y34D01*
X434Y34D02*
X442Y34D01*
X495Y34D02*
X501Y34D01*
X2055Y34D02*
X2062Y34D01*
X0Y33D02*
X7Y33D01*
X417Y33D02*
X423Y33D01*
X435Y33D02*
X442Y33D01*
X495Y33D02*
X501Y33D01*
X2055Y33D02*
X2062Y33D01*
X0Y32D02*
X7Y32D01*
X417Y32D02*
X423Y32D01*
X436Y32D02*
X443Y32D01*
X495Y32D02*
X501Y32D01*
X2055Y32D02*
X2062Y32D01*
X0Y31D02*
X7Y31D01*
X417Y31D02*
X423Y31D01*
X436Y31D02*
X443Y31D01*
X495Y31D02*
X501Y31D01*
X2055Y31D02*
X2062Y31D01*
X0Y30D02*
X7Y30D01*
X417Y30D02*
X423Y30D01*
X437Y30D02*
X444Y30D01*
X495Y30D02*
X501Y30D01*
X2055Y30D02*
X2062Y30D01*
X0Y29D02*
X7Y29D01*
X417Y29D02*
X423Y29D01*
X437Y29D02*
X445Y29D01*
X495Y29D02*
X501Y29D01*
X2055Y29D02*
X2062Y29D01*
X0Y28D02*
X7Y28D01*
X417Y28D02*
X423Y28D01*
X438Y28D02*
X445Y28D01*
X495Y28D02*
X501Y28D01*
X2055Y28D02*
X2062Y28D01*
X0Y27D02*
X7Y27D01*
X417Y27D02*
X423Y27D01*
X439Y27D02*
X446Y27D01*
X495Y27D02*
X501Y27D01*
X2055Y27D02*
X2062Y27D01*
X0Y26D02*
X7Y26D01*
X417Y26D02*
X423Y26D01*
X439Y26D02*
X446Y26D01*
X495Y26D02*
X501Y26D01*
X2055Y26D02*
X2062Y26D01*
X0Y25D02*
X7Y25D01*
X417Y25D02*
X423Y25D01*
X440Y25D02*
X447Y25D01*
X495Y25D02*
X501Y25D01*
X2055Y25D02*
X2062Y25D01*
X0Y24D02*
X7Y24D01*
X417Y24D02*
X423Y24D01*
X440Y24D02*
X448Y24D01*
X495Y24D02*
X501Y24D01*
X2055Y24D02*
X2062Y24D01*
X0Y23D02*
X7Y23D01*
X417Y23D02*
X423Y23D01*
X441Y23D02*
X448Y23D01*
X495Y23D02*
X501Y23D01*
X2055Y23D02*
X2062Y23D01*
X0Y22D02*
X7Y22D01*
X417Y22D02*
X423Y22D01*
X441Y22D02*
X449Y22D01*
X495Y22D02*
X501Y22D01*
X2055Y22D02*
X2062Y22D01*
X0Y21D02*
X7Y21D01*
X417Y21D02*
X423Y21D01*
X442Y21D02*
X449Y21D01*
X470Y21D02*
X501Y21D01*
X2055Y21D02*
X2062Y21D01*
X0Y20D02*
X7Y20D01*
X417Y20D02*
X423Y20D01*
X443Y20D02*
X450Y20D01*
X468Y20D02*
X501Y20D01*
X2055Y20D02*
X2062Y20D01*
X0Y19D02*
X7Y19D01*
X417Y19D02*
X423Y19D01*
X443Y19D02*
X450Y19D01*
X468Y19D02*
X500Y19D01*
X2055Y19D02*
X2062Y19D01*
X0Y18D02*
X7Y18D01*
X417Y18D02*
X423Y18D01*
X444Y18D02*
X451Y18D01*
X467Y18D02*
X500Y18D01*
X2055Y18D02*
X2062Y18D01*
X0Y17D02*
X7Y17D01*
X417Y17D02*
X423Y17D01*
X444Y17D02*
X451Y17D01*
X467Y17D02*
X499Y17D01*
X2055Y17D02*
X2062Y17D01*
X0Y16D02*
X7Y16D01*
X418Y16D02*
X423Y16D01*
X445Y16D02*
X450Y16D01*
X468Y16D02*
X498Y16D01*
X2055Y16D02*
X2062Y16D01*
X0Y15D02*
X7Y15D01*
X418Y15D02*
X422Y15D01*
X446Y15D02*
X449Y15D01*
X469Y15D02*
X497Y15D01*
X2055Y15D02*
X2062Y15D01*
X0Y14D02*
X7Y14D01*
X2055Y14D02*
X2062Y14D01*
X0Y13D02*
X7Y13D01*
X2055Y13D02*
X2062Y13D01*
X0Y12D02*
X7Y12D01*
X2055Y12D02*
X2062Y12D01*
X0Y11D02*
X7Y11D01*
X2055Y11D02*
X2062Y11D01*
X0Y10D02*
X7Y10D01*
X2055Y10D02*
X2062Y10D01*
X0Y9D02*
X2062Y9D01*
X0Y8D02*
X2062Y8D01*
X0Y7D02*
X2062Y7D01*
X0Y6D02*
X2062Y6D01*
X0Y5D02*
X2062Y5D01*
X0Y4D02*
X2062Y4D01*
X0Y3D02*
X2062Y3D01*
X0Y2D02*
X2062Y2D01*
D02*
G04 End of Silk1*
M02*