G04 MADE WITH FRITZING*
G04 WWW.FRITZING.ORG*
G04 DOUBLE SIDED*
G04 HOLES PLATED*
G04 CONTOUR ON CENTER OF CONTOUR VECTOR*
%ASAXBY*%
%FSLAX23Y23*%
%MOIN*%
%OFA0B0*%
%SFA1.0B1.0*%
%ADD10C,0.075000*%
%ADD11C,0.070000*%
%ADD12C,0.078000*%
%ADD13C,0.075361*%
%ADD14C,0.062992*%
%ADD15C,0.039370*%
%ADD16R,0.075000X0.075000*%
%ADD17R,0.062992X0.062992*%
%ADD18C,0.024000*%
%ADD19C,0.008000*%
%LNCOPPER1*%
G90*
G70*
G54D10*
X1079Y90D03*
X1079Y390D03*
X1179Y90D03*
X1179Y390D03*
X1279Y90D03*
X1279Y390D03*
X1379Y90D03*
X1379Y390D03*
G54D11*
X1860Y382D03*
X1760Y382D03*
G54D10*
X872Y173D03*
X872Y273D03*
X724Y165D03*
X724Y265D03*
G54D12*
X1892Y148D03*
X1792Y148D03*
X1692Y148D03*
X1592Y148D03*
G54D13*
X1987Y655D03*
X1887Y655D03*
X1787Y655D03*
X1687Y655D03*
X1587Y655D03*
X1487Y655D03*
X1387Y655D03*
X1287Y655D03*
X1187Y655D03*
X1087Y655D03*
X987Y655D03*
X887Y655D03*
X787Y655D03*
X687Y655D03*
X587Y655D03*
X487Y655D03*
X387Y655D03*
X287Y655D03*
X187Y655D03*
X87Y655D03*
X87Y555D03*
X187Y555D03*
X287Y555D03*
X387Y555D03*
X487Y555D03*
X587Y555D03*
X687Y555D03*
X787Y555D03*
X887Y555D03*
X987Y555D03*
X1087Y555D03*
X1187Y555D03*
X1287Y555D03*
X1387Y555D03*
X1487Y555D03*
X1587Y555D03*
X1687Y555D03*
X1787Y555D03*
X1887Y555D03*
X1987Y555D03*
G54D10*
X565Y131D03*
X465Y131D03*
X565Y287D03*
X465Y287D03*
G54D14*
X170Y343D03*
X170Y442D03*
X156Y141D03*
X156Y239D03*
G54D15*
X1686Y277D03*
X1607Y340D03*
X1988Y471D03*
G54D16*
X1079Y90D03*
G54D17*
X170Y343D03*
X156Y141D03*
G54D18*
X594Y283D02*
X695Y269D01*
D02*
X565Y160D02*
X565Y259D01*
D02*
X437Y132D02*
X183Y140D01*
D02*
X437Y293D02*
X196Y338D01*
G54D19*
D02*
X1169Y636D02*
X1138Y605D01*
D02*
X1138Y605D02*
X1134Y484D01*
D02*
X1134Y484D02*
X1091Y410D01*
D02*
X1331Y479D02*
X1436Y507D01*
D02*
X1436Y507D02*
X1436Y707D01*
D02*
X1436Y707D02*
X1838Y712D01*
D02*
X1838Y712D02*
X1870Y674D01*
D02*
X1291Y410D02*
X1331Y479D01*
D02*
X1301Y199D02*
X1736Y495D01*
D02*
X1736Y495D02*
X1736Y612D01*
D02*
X1285Y118D02*
X1301Y199D01*
D02*
X1736Y612D02*
X1767Y638D01*
G54D18*
D02*
X1987Y523D02*
X1988Y490D01*
G54D19*
D02*
X2040Y616D02*
X2008Y639D01*
D02*
X2044Y412D02*
X2040Y616D01*
D02*
X1880Y386D02*
X2044Y412D01*
G54D18*
D02*
X1687Y258D02*
X1691Y178D01*
D02*
X1735Y375D02*
X1625Y345D01*
D02*
X1595Y178D02*
X1605Y321D01*
G04 End of Copper1*
M02*