G04 MADE WITH FRITZING*
G04 WWW.FRITZING.ORG*
G04 DOUBLE SIDED*
G04 HOLES PLATED*
G04 CONTOUR ON CENTER OF CONTOUR VECTOR*
%ASAXBY*%
%FSLAX23Y23*%
%MOIN*%
%OFA0B0*%
%SFA1.0B1.0*%
%ADD10C,0.085361*%
%ADD11C,0.085000*%
%ADD12C,0.080000*%
%ADD13C,0.088000*%
%ADD14C,0.072992*%
%ADD15C,0.049370*%
%ADD16R,0.085000X0.085000*%
%ADD17R,0.072992X0.072992*%
%LNMASK0*%
G90*
G70*
G54D10*
X1987Y655D03*
X1887Y655D03*
X1787Y655D03*
X1687Y655D03*
X1587Y655D03*
X1487Y655D03*
X1387Y655D03*
X1287Y655D03*
X1187Y655D03*
X1087Y655D03*
X987Y655D03*
X887Y655D03*
X787Y655D03*
X687Y655D03*
X587Y655D03*
X487Y655D03*
X387Y655D03*
X287Y655D03*
X187Y655D03*
X87Y655D03*
X87Y555D03*
X187Y555D03*
X287Y555D03*
X387Y555D03*
X487Y555D03*
X587Y555D03*
X687Y555D03*
X787Y555D03*
X887Y555D03*
X987Y555D03*
X1087Y555D03*
X1187Y555D03*
X1287Y555D03*
X1387Y555D03*
X1487Y555D03*
X1587Y555D03*
X1687Y555D03*
X1787Y555D03*
X1887Y555D03*
X1987Y555D03*
G54D11*
X1079Y90D03*
X1079Y390D03*
X1179Y90D03*
X1179Y390D03*
X1279Y90D03*
X1279Y390D03*
X1379Y90D03*
X1379Y390D03*
G54D12*
X1860Y382D03*
X1760Y382D03*
G54D11*
X872Y173D03*
X872Y273D03*
X724Y165D03*
X724Y265D03*
G54D13*
X1892Y148D03*
X1792Y148D03*
X1692Y148D03*
X1592Y148D03*
G54D14*
X156Y141D03*
X156Y239D03*
G54D11*
X565Y131D03*
X465Y131D03*
X565Y287D03*
X465Y287D03*
G54D14*
X170Y343D03*
X170Y442D03*
G54D15*
X1686Y277D03*
X1607Y340D03*
X1988Y471D03*
G54D16*
X1079Y90D03*
G54D17*
X156Y141D03*
X170Y343D03*
G04 End of Mask0*
M02*