; NON-PLATED HOLES START AT T1
; THROUGH (PLATED) HOLES START AT T100
M48
INCH
T100C0.031497
T101C0.030000
T102C0.040639
T103C0.015748
T104C0.038000
T105C0.035000
%
T100
X001699Y003431
X001699Y004416
X001564Y002392
X001564Y001408
T101
X018599Y003824
X017597Y003824
T102
X004869Y005547
X002869Y005547
X000869Y005547
X009869Y005547
X007869Y005547
X005869Y005547
X003869Y005547
X001869Y005547
X008869Y005547
X006869Y005547
X014869Y005547
X012869Y005547
X010869Y005547
X019869Y005547
X017869Y005547
X015869Y005547
X013869Y005547
X011869Y005547
X018869Y005547
X016869Y005547
X000869Y006547
X002869Y006547
X004869Y006547
X001869Y006547
X003869Y006547
X005869Y006547
X007869Y006547
X009869Y006547
X006869Y006547
X008869Y006547
X010869Y006547
X012869Y006547
X014869Y006547
X011869Y006547
X013869Y006547
X015869Y006547
X017869Y006547
X019869Y006547
X016869Y006547
X018869Y006547
T103
X019881Y004713
X016863Y002769
X016067Y003399
T104
X018924Y001481
X017924Y001481
X016924Y001481
X015924Y001481
T105
X011790Y000903
X008722Y001730
X007235Y001652
X012790Y000903
X008722Y002730
X007235Y002652
X013790Y000903
X004652Y002871
X005652Y002871
X010790Y003903
X011790Y003903
X004653Y001309
X012790Y003903
X005653Y001309
X013790Y003903
X010790Y000903
T00
M30
