G04 MADE WITH FRITZING*
G04 WWW.FRITZING.ORG*
G04 DOUBLE SIDED*
G04 HOLES PLATED*
G04 CONTOUR ON CENTER OF CONTOUR VECTOR*
%ASAXBY*%
%FSLAX23Y23*%
%MOIN*%
%OFA0B0*%
%SFA1.0B1.0*%
%ADD10C,0.075361*%
%ADD11C,0.075000*%
%ADD12C,0.070000*%
%ADD13C,0.078000*%
%ADD14C,0.062992*%
%ADD15C,0.039370*%
%ADD16R,0.075000X0.075000*%
%ADD17R,0.062992X0.062992*%
%ADD18C,0.024000*%
%LNCOPPER0*%
G90*
G70*
G54D10*
X1992Y670D03*
X1892Y670D03*
X1792Y670D03*
X1692Y670D03*
X1592Y670D03*
X1492Y670D03*
X1392Y670D03*
X1292Y670D03*
X1192Y670D03*
X1092Y670D03*
X992Y670D03*
X892Y670D03*
X792Y670D03*
X692Y670D03*
X592Y670D03*
X492Y670D03*
X392Y670D03*
X292Y670D03*
X192Y670D03*
X92Y670D03*
X92Y570D03*
X192Y570D03*
X292Y570D03*
X392Y570D03*
X492Y570D03*
X592Y570D03*
X692Y570D03*
X792Y570D03*
X892Y570D03*
X992Y570D03*
X1092Y570D03*
X1192Y570D03*
X1292Y570D03*
X1392Y570D03*
X1492Y570D03*
X1592Y570D03*
X1692Y570D03*
X1792Y570D03*
X1892Y570D03*
X1992Y570D03*
G54D11*
X1079Y90D03*
X1079Y390D03*
X1179Y90D03*
X1179Y390D03*
X1279Y90D03*
X1279Y390D03*
X1379Y90D03*
X1379Y390D03*
G54D12*
X1860Y382D03*
X1760Y382D03*
G54D11*
X872Y173D03*
X872Y273D03*
X724Y165D03*
X724Y265D03*
G54D13*
X1892Y148D03*
X1792Y148D03*
X1692Y148D03*
X1592Y148D03*
G54D14*
X156Y141D03*
X156Y239D03*
G54D11*
X565Y131D03*
X465Y131D03*
X565Y287D03*
X465Y287D03*
G54D14*
X170Y343D03*
X170Y442D03*
G54D15*
X2004Y297D03*
X1622Y301D03*
G54D16*
X1079Y90D03*
G54D17*
X156Y141D03*
X170Y343D03*
G54D18*
X844Y272D02*
X752Y267D01*
D02*
X1054Y376D02*
X897Y287D01*
D02*
X745Y147D02*
X809Y92D01*
D02*
X809Y92D02*
X936Y94D01*
D02*
X936Y94D02*
X1036Y194D01*
D02*
X1036Y194D02*
X1116Y205D01*
D02*
X1116Y205D02*
X1165Y115D01*
D02*
X1775Y173D02*
X1740Y225D01*
X1740Y225D02*
X1524Y225D01*
X1524Y225D02*
X1231Y220D01*
D02*
X1231Y220D02*
X1190Y117D01*
D02*
X197Y443D02*
X1188Y513D01*
X1188Y513D02*
X1190Y538D01*
D02*
X896Y190D02*
X1156Y374D01*
D02*
X179Y255D02*
X407Y412D01*
D02*
X407Y412D02*
X1244Y475D01*
D02*
X1244Y475D02*
X1278Y542D01*
D02*
X1787Y539D02*
X1764Y408D01*
D02*
X1993Y312D02*
X1908Y441D01*
X1908Y441D02*
X1788Y441D01*
X1788Y441D02*
X1771Y406D01*
D02*
X1407Y98D02*
X1563Y140D01*
D02*
X1603Y301D02*
X1192Y301D01*
D02*
X1192Y301D02*
X1183Y362D01*
G04 End of Copper0*
M02*