G04 MADE WITH FRITZING*
G04 WWW.FRITZING.ORG*
G04 DOUBLE SIDED*
G04 HOLES PLATED*
G04 CONTOUR ON CENTER OF CONTOUR VECTOR*
%ASAXBY*%
%FSLAX23Y23*%
%MOIN*%
%OFA0B0*%
%SFA1.0B1.0*%
%ADD10C,0.049370*%
%ADD11C,0.085000*%
%ADD12C,0.080000*%
%ADD13C,0.088000*%
%ADD14C,0.088007*%
%ADD15R,0.085000X0.085000*%
%LNMASK0*%
G90*
G70*
G54D10*
X810Y635D03*
X1702Y721D03*
G54D11*
X919Y96D03*
X1019Y96D03*
X1119Y96D03*
X1219Y96D03*
X1319Y96D03*
X1419Y96D03*
X1519Y96D03*
X1619Y96D03*
X1719Y96D03*
X1719Y396D03*
X1619Y396D03*
X1519Y396D03*
X1419Y396D03*
X1319Y396D03*
X1219Y396D03*
X1119Y396D03*
X1019Y396D03*
X919Y396D03*
X401Y893D03*
X401Y793D03*
X351Y593D03*
X451Y593D03*
X346Y93D03*
X346Y393D03*
X446Y93D03*
X446Y393D03*
X546Y93D03*
X546Y393D03*
X646Y93D03*
X646Y393D03*
G54D12*
X751Y543D03*
X651Y543D03*
G54D11*
X2015Y133D03*
X2115Y133D03*
X2017Y265D03*
X2117Y265D03*
G54D13*
X1801Y843D03*
X1701Y843D03*
X1601Y843D03*
X1501Y843D03*
X1401Y843D03*
X1301Y843D03*
X1201Y843D03*
X1101Y843D03*
X1001Y843D03*
X901Y843D03*
G54D11*
X783Y125D03*
X783Y225D03*
G54D14*
X1701Y593D03*
X1601Y593D03*
X1501Y593D03*
X1401Y593D03*
X1301Y593D03*
X1201Y593D03*
X1101Y593D03*
X1001Y593D03*
X901Y593D03*
G54D11*
X2051Y567D03*
X1951Y567D03*
X2046Y836D03*
X1946Y836D03*
X2046Y703D03*
X1946Y703D03*
G54D13*
X2392Y633D03*
X2392Y733D03*
X2392Y833D03*
X2392Y633D03*
X2392Y733D03*
X2392Y833D03*
X2292Y833D03*
X2292Y733D03*
X2292Y633D03*
X2255Y414D03*
X2255Y314D03*
X2255Y214D03*
X2255Y114D03*
X157Y93D03*
X157Y193D03*
X157Y293D03*
X157Y393D03*
X155Y571D03*
X155Y671D03*
X155Y771D03*
X155Y871D03*
G54D15*
X919Y96D03*
X401Y893D03*
X351Y593D03*
X346Y93D03*
G04 End of Mask0*
M02*