G04 MADE WITH FRITZING*
G04 WWW.FRITZING.ORG*
G04 DOUBLE SIDED*
G04 HOLES PLATED*
G04 CONTOUR ON CENTER OF CONTOUR VECTOR*
%ASAXBY*%
%FSLAX23Y23*%
%MOIN*%
%OFA0B0*%
%SFA1.0B1.0*%
%ADD10C,0.039370*%
%ADD11C,0.075000*%
%ADD12C,0.070000*%
%ADD13C,0.078000*%
%ADD14C,0.078007*%
%ADD15R,0.075000X0.075000*%
%ADD16R,0.022835X0.047244*%
%ADD17R,0.078740X0.078740*%
%ADD18C,0.024000*%
%LNCOPPER1*%
G90*
G70*
G54D10*
X810Y635D03*
X1702Y721D03*
G54D11*
X919Y96D03*
X1019Y96D03*
X1119Y96D03*
X1219Y96D03*
X1319Y96D03*
X1419Y96D03*
X1519Y96D03*
X1619Y96D03*
X1719Y96D03*
X1719Y396D03*
X1619Y396D03*
X1519Y396D03*
X1419Y396D03*
X1319Y396D03*
X1219Y396D03*
X1119Y396D03*
X1019Y396D03*
X919Y396D03*
X401Y893D03*
X401Y793D03*
X351Y593D03*
X451Y593D03*
X346Y93D03*
X346Y393D03*
X446Y93D03*
X446Y393D03*
X546Y93D03*
X546Y393D03*
X646Y93D03*
X646Y393D03*
G54D12*
X751Y543D03*
X651Y543D03*
G54D11*
X2015Y133D03*
X2115Y133D03*
X2017Y265D03*
X2117Y265D03*
G54D13*
X1801Y843D03*
X1701Y843D03*
X1601Y843D03*
X1501Y843D03*
X1401Y843D03*
X1301Y843D03*
X1201Y843D03*
X1101Y843D03*
X1001Y843D03*
X901Y843D03*
G54D11*
X783Y125D03*
X783Y225D03*
G54D14*
X1701Y593D03*
X1601Y593D03*
X1501Y593D03*
X1401Y593D03*
X1301Y593D03*
X1201Y593D03*
X1101Y593D03*
X1001Y593D03*
X901Y593D03*
G54D11*
X2051Y567D03*
X1951Y567D03*
X2046Y836D03*
X1946Y836D03*
X2046Y703D03*
X1946Y703D03*
G54D13*
X2392Y633D03*
X2392Y733D03*
X2392Y833D03*
X2392Y633D03*
X2392Y733D03*
X2392Y833D03*
X2292Y833D03*
X2292Y733D03*
X2292Y633D03*
X2255Y414D03*
X2255Y314D03*
X2255Y214D03*
X2255Y114D03*
X157Y93D03*
X157Y193D03*
X157Y293D03*
X157Y393D03*
X155Y571D03*
X155Y671D03*
X155Y771D03*
X155Y871D03*
G54D15*
X919Y96D03*
X401Y893D03*
X351Y593D03*
X346Y93D03*
G54D16*
X701Y818D03*
X642Y818D03*
X583Y818D03*
G54D17*
X642Y696D03*
G54D18*
X1217Y567D02*
X1304Y420D01*
D02*
X1117Y567D02*
X1204Y420D01*
D02*
X1017Y567D02*
X1104Y420D01*
D02*
X917Y567D02*
X1004Y420D01*
D02*
X824Y27D02*
X612Y27D01*
D02*
X612Y27D02*
X566Y73D01*
D02*
X896Y79D02*
X824Y27D01*
D02*
X1617Y567D02*
X1704Y420D01*
D02*
X1517Y567D02*
X1604Y420D01*
D02*
X1417Y567D02*
X1504Y420D01*
D02*
X1317Y567D02*
X1404Y420D01*
D02*
X2029Y417D02*
X1851Y421D01*
D02*
X1981Y483D02*
X1804Y483D01*
D02*
X1804Y483D02*
X1797Y317D01*
D02*
X1851Y421D02*
X1839Y264D01*
D02*
X2143Y633D02*
X2145Y527D01*
D02*
X2145Y527D02*
X2029Y417D01*
D02*
X1839Y264D02*
X1219Y261D01*
D02*
X1219Y261D02*
X1219Y124D01*
D02*
X2070Y686D02*
X2143Y633D01*
D02*
X1797Y317D02*
X1118Y314D01*
D02*
X1118Y314D02*
X1119Y124D01*
D02*
X2033Y545D02*
X1981Y483D01*
D02*
X246Y241D02*
X243Y629D01*
D02*
X367Y296D02*
X246Y241D01*
D02*
X243Y629D02*
X182Y658D01*
D02*
X428Y371D02*
X367Y296D01*
D02*
X827Y497D02*
X900Y417D01*
D02*
X1886Y198D02*
X1319Y201D01*
D02*
X812Y616D02*
X827Y497D01*
D02*
X1894Y367D02*
X1886Y198D01*
D02*
X2043Y364D02*
X1894Y367D01*
D02*
X2191Y505D02*
X2043Y364D01*
D02*
X2189Y673D02*
X2191Y505D01*
D02*
X1319Y201D02*
X1319Y124D01*
D02*
X2065Y814D02*
X2189Y673D01*
D02*
X886Y278D02*
X823Y306D01*
D02*
X580Y307D02*
X556Y366D01*
D02*
X823Y306D02*
X580Y307D01*
D02*
X1002Y119D02*
X886Y278D01*
D02*
X1800Y656D02*
X1727Y609D01*
D02*
X1801Y813D02*
X1800Y656D01*
D02*
X1800Y37D02*
X1742Y79D01*
D02*
X2386Y37D02*
X1800Y37D01*
D02*
X2389Y414D02*
X2386Y37D01*
D02*
X2285Y414D02*
X2389Y414D01*
D02*
X365Y297D02*
X427Y371D01*
D02*
X184Y207D02*
X365Y297D01*
D02*
X67Y868D02*
X124Y870D01*
D02*
X127Y394D02*
X65Y394D01*
D02*
X65Y394D02*
X67Y868D01*
D02*
X285Y790D02*
X180Y855D01*
D02*
X373Y792D02*
X285Y790D01*
D02*
X751Y718D02*
X751Y569D01*
D02*
X526Y892D02*
X626Y892D01*
D02*
X626Y892D02*
X638Y836D01*
D02*
X424Y811D02*
X526Y892D01*
D02*
X2016Y161D02*
X2017Y236D01*
D02*
X359Y418D02*
X438Y568D01*
D02*
X451Y692D02*
X451Y621D01*
D02*
X577Y812D02*
X451Y692D01*
D02*
X2226Y224D02*
X2144Y255D01*
D02*
X751Y718D02*
X1683Y721D01*
D02*
X477Y943D02*
X677Y943D01*
D02*
X1702Y740D02*
X1701Y813D01*
D02*
X707Y806D02*
X751Y718D01*
D02*
X425Y909D02*
X477Y943D01*
D02*
X677Y943D02*
X698Y836D01*
D02*
X2392Y703D02*
X2392Y663D01*
D02*
X2392Y803D02*
X2392Y763D01*
D02*
X315Y189D02*
X597Y184D01*
D02*
X597Y184D02*
X632Y118D01*
D02*
X183Y109D02*
X315Y189D01*
G04 End of Copper1*
M02*