; NON-PLATED HOLES START AT T1
; THROUGH (PLATED) HOLES START AT T100
M48
INCH
T100C0.035000
T101C0.030000
T102C0.015748
T103C0.038000
T104C0.038009
%
T100
X007828Y002249
X017191Y000955
X015191Y000955
X013191Y000955
X011191Y000955
X003456Y003928
X016191Y000955
X006456Y003928
X004456Y003928
X005456Y003928
X019509Y005670
X010191Y003955
X012191Y003955
X014191Y003955
X019464Y007026
X011191Y003955
X013191Y003955
X015191Y003955
X017191Y003955
X016191Y003955
X020464Y007026
X004011Y008928
X019464Y008359
X020509Y005670
X020464Y008359
X003511Y005928
X007828Y001249
X020150Y001328
X004511Y005928
X021150Y001328
X009191Y000955
X003456Y000928
X021170Y002648
X006456Y000928
X004456Y000928
X020170Y002648
X005456Y000928
X004011Y007928
X014191Y000955
X012191Y000955
X010191Y000955
X009191Y003955
T101
X007511Y005428
X006510Y005428
T102
X008095Y006345
X017023Y007206
T103
X023923Y007328
X022923Y007328
X011012Y008428
X010012Y008428
X001545Y008706
X022546Y003140
X018012Y008428
X001545Y005706
X001567Y001934
X016012Y008428
X023923Y006328
X015012Y008428
X022923Y006328
X009012Y008428
X012012Y008428
X001545Y007706
X022546Y002140
X001567Y003934
X023923Y008328
X001567Y000934
X022923Y008328
X017012Y008428
X022546Y004140
X014012Y008428
X001545Y006706
X022546Y001140
X001567Y002934
X013012Y008428
T104
X016011Y005928
X017012Y005928
X009011Y005928
X010011Y005928
X011011Y005928
X012011Y005928
X013011Y005928
X014011Y005928
X015011Y005928
T00
M30
