G04 MADE WITH FRITZING*
G04 WWW.FRITZING.ORG*
G04 DOUBLE SIDED*
G04 HOLES PLATED*
G04 CONTOUR ON CENTER OF CONTOUR VECTOR*
%ASAXBY*%
%FSLAX23Y23*%
%MOIN*%
%OFA0B0*%
%SFA1.0B1.0*%
%ADD10C,0.039370*%
%ADD11C,0.075000*%
%ADD12C,0.070000*%
%ADD13C,0.078000*%
%ADD14C,0.078007*%
%ADD15R,0.075000X0.075000*%
%ADD16C,0.024000*%
%LNCOPPER0*%
G90*
G70*
G54D10*
X810Y635D03*
X1702Y721D03*
G54D11*
X919Y96D03*
X1019Y96D03*
X1119Y96D03*
X1219Y96D03*
X1319Y96D03*
X1419Y96D03*
X1519Y96D03*
X1619Y96D03*
X1719Y96D03*
X1719Y396D03*
X1619Y396D03*
X1519Y396D03*
X1419Y396D03*
X1319Y396D03*
X1219Y396D03*
X1119Y396D03*
X1019Y396D03*
X919Y396D03*
X401Y893D03*
X401Y793D03*
X351Y593D03*
X451Y593D03*
X346Y93D03*
X346Y393D03*
X446Y93D03*
X446Y393D03*
X546Y93D03*
X546Y393D03*
X646Y93D03*
X646Y393D03*
G54D12*
X751Y543D03*
X651Y543D03*
G54D11*
X2015Y133D03*
X2115Y133D03*
X2017Y265D03*
X2117Y265D03*
G54D13*
X1801Y843D03*
X1701Y843D03*
X1601Y843D03*
X1501Y843D03*
X1401Y843D03*
X1301Y843D03*
X1201Y843D03*
X1101Y843D03*
X1001Y843D03*
X901Y843D03*
G54D11*
X783Y125D03*
X783Y225D03*
G54D14*
X1701Y593D03*
X1601Y593D03*
X1501Y593D03*
X1401Y593D03*
X1301Y593D03*
X1201Y593D03*
X1101Y593D03*
X1001Y593D03*
X901Y593D03*
G54D11*
X2051Y567D03*
X1951Y567D03*
X2046Y836D03*
X1946Y836D03*
X2046Y703D03*
X1946Y703D03*
G54D13*
X2392Y633D03*
X2392Y733D03*
X2392Y833D03*
X2392Y633D03*
X2392Y733D03*
X2392Y833D03*
X2292Y833D03*
X2292Y733D03*
X2292Y633D03*
X2255Y414D03*
X2255Y314D03*
X2255Y214D03*
X2255Y114D03*
X157Y93D03*
X157Y193D03*
X157Y293D03*
X157Y393D03*
X155Y571D03*
X155Y671D03*
X155Y771D03*
X155Y871D03*
G54D15*
X919Y96D03*
X401Y893D03*
X351Y593D03*
X346Y93D03*
G54D16*
X1913Y438D02*
X2015Y376D01*
D02*
X2015Y376D02*
X2016Y293D01*
D02*
X1838Y492D02*
X1913Y438D01*
D02*
X882Y494D02*
X1838Y492D01*
D02*
X809Y474D02*
X882Y494D01*
D02*
X651Y468D02*
X809Y474D01*
D02*
X651Y468D02*
X651Y517D01*
D02*
X475Y578D02*
X651Y468D01*
D02*
X2192Y270D02*
X2167Y195D01*
D02*
X2167Y195D02*
X2133Y155D01*
D02*
X2230Y297D02*
X2192Y270D01*
D02*
X831Y30D02*
X1391Y29D01*
D02*
X1391Y29D02*
X1408Y69D01*
D02*
X796Y99D02*
X831Y30D01*
D02*
X2389Y119D02*
X2285Y115D01*
D02*
X2392Y603D02*
X2389Y119D01*
D02*
X2262Y729D02*
X2075Y706D01*
D02*
X2118Y59D02*
X1916Y57D01*
D02*
X1075Y176D02*
X1035Y119D01*
D02*
X1765Y178D02*
X1075Y176D01*
D02*
X1916Y57D02*
X1765Y178D01*
D02*
X2116Y104D02*
X2118Y59D01*
D02*
X901Y373D02*
X801Y247D01*
D02*
X1770Y243D02*
X1923Y200D01*
D02*
X1923Y200D02*
X2077Y202D01*
D02*
X2077Y202D02*
X2102Y241D01*
D02*
X1037Y240D02*
X1770Y243D01*
D02*
X937Y118D02*
X1037Y240D01*
D02*
X1797Y946D02*
X1800Y873D01*
D02*
X814Y941D02*
X1797Y946D01*
D02*
X810Y654D02*
X814Y941D01*
D02*
X2391Y947D02*
X2392Y863D01*
D02*
X1797Y946D02*
X2391Y947D01*
D02*
X468Y744D02*
X424Y776D01*
D02*
X812Y746D02*
X468Y744D01*
D02*
X810Y654D02*
X812Y746D01*
D02*
X1721Y719D02*
X1918Y705D01*
D02*
X2005Y487D02*
X2226Y423D01*
D02*
X1967Y543D02*
X2005Y487D01*
D02*
X1950Y596D02*
X1947Y674D01*
D02*
X1946Y807D02*
X1946Y731D01*
D02*
X64Y291D02*
X127Y292D01*
D02*
X67Y25D02*
X64Y291D01*
D02*
X418Y24D02*
X67Y25D01*
D02*
X435Y66D02*
X418Y24D01*
D02*
X316Y825D02*
X379Y875D01*
D02*
X316Y594D02*
X316Y825D01*
D02*
X323Y594D02*
X316Y594D01*
D02*
X1401Y813D02*
X1401Y623D01*
D02*
X1001Y813D02*
X1001Y623D01*
D02*
X1201Y813D02*
X1201Y623D01*
D02*
X1501Y813D02*
X1501Y623D01*
D02*
X1301Y813D02*
X1301Y623D01*
D02*
X901Y813D02*
X901Y623D01*
D02*
X1601Y813D02*
X1601Y623D01*
D02*
X1101Y813D02*
X1101Y623D01*
D02*
X61Y294D02*
X69Y770D01*
D02*
X69Y770D02*
X124Y770D01*
D02*
X127Y294D02*
X61Y294D01*
D02*
X2263Y625D02*
X2079Y575D01*
D02*
X2262Y833D02*
X2075Y836D01*
D02*
X251Y459D02*
X251Y171D01*
D02*
X251Y171D02*
X180Y113D01*
D02*
X174Y548D02*
X251Y459D01*
D02*
X184Y574D02*
X323Y590D01*
G04 End of Copper0*
M02*