G04 MADE WITH FRITZING*
G04 WWW.FRITZING.ORG*
G04 DOUBLE SIDED*
G04 HOLES PLATED*
G04 CONTOUR ON CENTER OF CONTOUR VECTOR*
%ASAXBY*%
%FSLAX23Y23*%
%MOIN*%
%OFA0B0*%
%SFA1.0B1.0*%
%ADD10C,0.080000*%
%ADD11C,0.039370*%
%ADD12C,0.078000*%
%ADD13C,0.075000*%
%ADD14C,0.060000*%
%ADD15C,0.070000*%
%ADD16C,0.082000*%
%ADD17C,0.078007*%
%ADD18R,0.080000X0.080000*%
%ADD19R,0.075000X0.075000*%
%ADD20R,0.082000X0.082000*%
%ADD21R,0.022835X0.047244*%
%ADD22R,0.078740X0.078740*%
%ADD23C,0.024000*%
%ADD24R,0.001000X0.001000*%
%LNCOPPER1*%
G90*
G70*
G54D10*
X300Y393D03*
X300Y593D03*
X100Y393D03*
X100Y593D03*
G54D11*
X2625Y468D03*
X2950Y468D03*
X2275Y468D03*
X1950Y468D03*
X1600Y468D03*
X1275Y468D03*
X925Y468D03*
X600Y468D03*
G54D12*
X2825Y593D03*
X2925Y593D03*
X3025Y593D03*
X2500Y593D03*
X2600Y593D03*
X2700Y593D03*
X2150Y593D03*
X2250Y593D03*
X2350Y593D03*
X1825Y593D03*
X1925Y593D03*
X2025Y593D03*
X1475Y593D03*
X1575Y593D03*
X1675Y593D03*
X1150Y593D03*
X1250Y593D03*
X1350Y593D03*
X800Y593D03*
X900Y593D03*
X1000Y593D03*
X475Y593D03*
X575Y593D03*
X675Y593D03*
G54D10*
X1075Y243D03*
X1275Y243D03*
X1475Y243D03*
X1675Y243D03*
X1875Y243D03*
X2075Y243D03*
X2275Y243D03*
X2475Y243D03*
X625Y243D03*
X825Y243D03*
G54D12*
X2725Y743D03*
X2825Y743D03*
X2025Y743D03*
X2125Y743D03*
X1350Y743D03*
X1450Y743D03*
X675Y743D03*
X775Y743D03*
X225Y868D03*
X225Y768D03*
X225Y993D03*
X225Y1093D03*
X2775Y193D03*
X2775Y293D03*
X2875Y193D03*
X2875Y293D03*
G54D13*
X550Y2543D03*
X550Y2443D03*
X500Y2243D03*
X600Y2243D03*
G54D11*
X2450Y2218D03*
G54D14*
X2950Y893D03*
X2950Y1193D03*
X2950Y1293D03*
X2750Y1293D03*
X2750Y893D03*
X2750Y1193D03*
X2950Y893D03*
X2950Y1193D03*
X2950Y1293D03*
X2750Y1293D03*
X2750Y893D03*
X2750Y1193D03*
X2625Y893D03*
X2625Y1193D03*
X2625Y1293D03*
X2425Y1293D03*
X2425Y893D03*
X2425Y1193D03*
X2625Y893D03*
X2625Y1193D03*
X2625Y1293D03*
X2425Y1293D03*
X2425Y893D03*
X2425Y1193D03*
X2275Y893D03*
X2275Y1193D03*
X2275Y1293D03*
X2075Y1293D03*
X2075Y893D03*
X2075Y1193D03*
X2275Y893D03*
X2275Y1193D03*
X2275Y1293D03*
X2075Y1293D03*
X2075Y893D03*
X2075Y1193D03*
X1950Y893D03*
X1950Y1193D03*
X1950Y1293D03*
X1750Y1293D03*
X1750Y893D03*
X1750Y1193D03*
X1950Y893D03*
X1950Y1193D03*
X1950Y1293D03*
X1750Y1293D03*
X1750Y893D03*
X1750Y1193D03*
X1600Y893D03*
X1600Y1193D03*
X1600Y1293D03*
X1400Y1293D03*
X1400Y893D03*
X1400Y1193D03*
X1600Y893D03*
X1600Y1193D03*
X1600Y1293D03*
X1400Y1293D03*
X1400Y893D03*
X1400Y1193D03*
X1275Y893D03*
X1275Y1193D03*
X1275Y1293D03*
X1075Y1293D03*
X1075Y893D03*
X1075Y1193D03*
X1275Y893D03*
X1275Y1193D03*
X1275Y1293D03*
X1075Y1293D03*
X1075Y893D03*
X1075Y1193D03*
X925Y893D03*
X925Y1193D03*
X925Y1293D03*
X725Y1293D03*
X725Y893D03*
X725Y1193D03*
X925Y893D03*
X925Y1193D03*
X925Y1293D03*
X725Y1293D03*
X725Y893D03*
X725Y1193D03*
X600Y893D03*
X600Y1193D03*
X600Y1293D03*
X400Y1293D03*
X400Y893D03*
X400Y1193D03*
X600Y893D03*
X600Y1193D03*
X600Y1293D03*
X400Y1293D03*
X400Y893D03*
X400Y1193D03*
G54D15*
X1050Y1743D03*
X2250Y2043D03*
X1150Y1743D03*
X2350Y2043D03*
X1250Y1743D03*
X1350Y1743D03*
X1450Y1743D03*
X1550Y1743D03*
X2350Y1743D03*
X2250Y1743D03*
X2150Y1743D03*
X2050Y1743D03*
X1650Y1743D03*
X1850Y1743D03*
X1750Y1743D03*
X1950Y1743D03*
X1850Y2043D03*
X1950Y2043D03*
X2050Y2043D03*
X2150Y2043D03*
X1650Y2043D03*
X1750Y2043D03*
X1250Y2043D03*
X1350Y2043D03*
X1450Y2043D03*
X1550Y2043D03*
X1050Y2043D03*
X1150Y2043D03*
G54D13*
X550Y1743D03*
X550Y2043D03*
X650Y1743D03*
X650Y2043D03*
X750Y1743D03*
X750Y2043D03*
X850Y1743D03*
X850Y2043D03*
G54D15*
X900Y2193D03*
X800Y2193D03*
G54D13*
X2650Y1743D03*
X2550Y1743D03*
X2650Y1893D03*
X2650Y1993D03*
G54D16*
X2650Y1443D03*
X2948Y1443D03*
X2650Y1543D03*
X2948Y1543D03*
X2200Y1443D03*
X2498Y1443D03*
X1800Y1443D03*
X2098Y1443D03*
X1402Y1443D03*
X1700Y1443D03*
X952Y1443D03*
X1250Y1443D03*
X550Y1443D03*
X848Y1443D03*
X550Y1543D03*
X848Y1543D03*
G54D12*
X1950Y2493D03*
X1850Y2493D03*
X1750Y2493D03*
X1650Y2493D03*
X1550Y2493D03*
X1450Y2493D03*
X1350Y2493D03*
X1250Y2493D03*
X1150Y2493D03*
X1050Y2493D03*
G54D13*
X2550Y2118D03*
X2650Y2118D03*
G54D17*
X950Y1618D03*
X1050Y1618D03*
X1150Y1618D03*
X1250Y1618D03*
X1350Y1618D03*
X1450Y1618D03*
X1551Y1618D03*
X1651Y1618D03*
X1751Y1618D03*
X1850Y2243D03*
X1750Y2243D03*
X1650Y2243D03*
X1550Y2243D03*
X1450Y2243D03*
X1350Y2243D03*
X1250Y2243D03*
X1150Y2243D03*
X1050Y2243D03*
G54D13*
X2240Y2390D03*
X2240Y2490D03*
X2500Y2393D03*
X2500Y2493D03*
X2372Y2388D03*
X2372Y2488D03*
G54D12*
X2700Y2393D03*
X2800Y2393D03*
X2900Y2393D03*
X2700Y2393D03*
X2800Y2393D03*
X2900Y2393D03*
X2900Y2493D03*
X2800Y2493D03*
X2700Y2493D03*
X3125Y1768D03*
X3125Y1868D03*
X3125Y1968D03*
X3125Y2068D03*
X150Y1568D03*
X150Y1468D03*
X150Y1368D03*
X150Y1268D03*
X150Y2143D03*
X150Y2043D03*
X150Y1943D03*
X150Y1843D03*
G54D18*
X300Y393D03*
X100Y393D03*
X1075Y243D03*
X625Y243D03*
G54D19*
X550Y2543D03*
X500Y2243D03*
X550Y1743D03*
G54D20*
X2649Y1443D03*
X2649Y1543D03*
X2199Y1443D03*
X1799Y1443D03*
X1401Y1443D03*
X951Y1443D03*
X549Y1443D03*
X549Y1543D03*
G54D21*
X850Y2468D03*
X791Y2468D03*
X732Y2468D03*
G54D22*
X791Y2346D03*
G54D23*
X1610Y484D02*
X1660Y567D01*
D02*
X1285Y484D02*
X1335Y567D01*
D02*
X2960Y484D02*
X3010Y567D01*
D02*
X2635Y484D02*
X2685Y567D01*
D02*
X2285Y484D02*
X2335Y567D01*
D02*
X1960Y484D02*
X2010Y567D01*
D02*
X935Y484D02*
X985Y567D01*
D02*
X2200Y393D02*
X2095Y267D01*
D02*
X350Y818D02*
X253Y779D01*
D02*
X775Y818D02*
X350Y818D01*
D02*
X898Y879D02*
X775Y818D01*
D02*
X499Y951D02*
X366Y950D01*
D02*
X366Y950D02*
X251Y883D01*
D02*
X573Y908D02*
X499Y951D01*
D02*
X325Y1043D02*
X252Y1079D01*
D02*
X1600Y1043D02*
X325Y1043D01*
D02*
X1600Y924D02*
X1600Y1043D01*
D02*
X350Y993D02*
X256Y993D01*
D02*
X1275Y993D02*
X350Y993D01*
D02*
X1275Y924D02*
X1275Y993D01*
D02*
X1750Y543D02*
X1683Y273D01*
D02*
X1750Y693D02*
X1750Y543D01*
D02*
X1675Y843D02*
X1750Y693D01*
D02*
X1626Y875D02*
X1675Y843D01*
D02*
X2350Y393D02*
X2200Y393D01*
D02*
X2426Y467D02*
X2350Y393D01*
D02*
X2426Y719D02*
X2426Y467D01*
D02*
X2350Y843D02*
X2426Y719D01*
D02*
X2301Y875D02*
X2350Y843D01*
D02*
X610Y484D02*
X660Y567D01*
D02*
X1200Y843D02*
X1200Y668D01*
D02*
X1415Y663D02*
X1413Y520D01*
D02*
X1875Y668D02*
X2087Y661D01*
D02*
X2087Y661D02*
X2087Y506D01*
D02*
X2575Y843D02*
X2603Y871D01*
D02*
X2763Y669D02*
X2575Y668D01*
D02*
X1200Y344D02*
X1257Y268D01*
D02*
X2676Y417D02*
X2763Y520D01*
D02*
X2521Y413D02*
X2676Y417D01*
D02*
X2425Y317D02*
X2521Y413D01*
D02*
X2763Y520D02*
X2763Y669D01*
D02*
X2575Y668D02*
X2575Y843D01*
D02*
X2303Y256D02*
X2425Y317D01*
D02*
X2087Y506D02*
X1895Y267D01*
D02*
X1875Y843D02*
X1875Y668D01*
D02*
X1925Y875D02*
X1875Y843D01*
D02*
X976Y341D02*
X576Y341D01*
D02*
X350Y493D02*
X200Y493D01*
D02*
X576Y341D02*
X350Y493D01*
D02*
X200Y493D02*
X200Y643D01*
D02*
X200Y643D02*
X126Y793D01*
D02*
X126Y793D02*
X201Y849D01*
D02*
X1053Y265D02*
X976Y341D01*
D02*
X1076Y344D02*
X1200Y344D01*
D02*
X1076Y667D02*
X1076Y344D01*
D02*
X943Y867D02*
X1076Y667D01*
D02*
X1200Y668D02*
X1415Y663D01*
D02*
X1413Y520D02*
X1469Y273D01*
D02*
X1250Y875D02*
X1200Y843D01*
D02*
X2700Y2267D02*
X2051Y2267D01*
D02*
X2826Y2267D02*
X2700Y2267D01*
D02*
X2051Y2442D02*
X1977Y2479D01*
D02*
X2051Y2267D02*
X2051Y2442D01*
D02*
X3100Y2084D02*
X2826Y2267D01*
D02*
X2576Y318D02*
X2625Y318D01*
D02*
X2625Y318D02*
X2794Y388D01*
D02*
X2794Y388D02*
X2856Y315D01*
D02*
X1976Y118D02*
X2725Y118D01*
D02*
X2725Y118D02*
X2759Y168D01*
D02*
X1895Y218D02*
X1976Y118D01*
D02*
X3000Y417D02*
X2897Y314D01*
D02*
X3100Y543D02*
X3000Y417D01*
D02*
X3100Y667D02*
X3100Y543D01*
D02*
X2968Y867D02*
X3100Y667D01*
D02*
X2500Y261D02*
X2576Y318D01*
D02*
X2700Y2267D02*
X2700Y2362D01*
D02*
X3026Y1618D02*
X1781Y1618D01*
D02*
X3026Y1518D02*
X3026Y1618D01*
D02*
X2971Y1465D02*
X3026Y1518D01*
D02*
X1751Y1648D02*
X1750Y1716D01*
D02*
X1651Y1648D02*
X1650Y1716D01*
D02*
X2500Y1518D02*
X1626Y1518D01*
D02*
X1626Y1518D02*
X1569Y1594D01*
D02*
X2499Y1475D02*
X2500Y1518D01*
D02*
X50Y1319D02*
X50Y1843D01*
D02*
X50Y1843D02*
X120Y1843D01*
D02*
X124Y1281D02*
X50Y1319D01*
D02*
X250Y1543D02*
X175Y1486D01*
D02*
X250Y1743D02*
X250Y1543D01*
D02*
X251Y1918D02*
X250Y1743D01*
D02*
X550Y1918D02*
X251Y1918D01*
D02*
X976Y1740D02*
X1024Y1742D01*
D02*
X850Y1651D02*
X976Y1740D01*
D02*
X849Y1575D02*
X850Y1651D01*
D02*
X326Y1493D02*
X175Y1385D01*
D02*
X326Y1842D02*
X326Y1493D01*
D02*
X600Y1842D02*
X326Y1842D01*
D02*
X638Y1768D02*
X600Y1842D01*
D02*
X1500Y1369D02*
X1428Y1423D01*
D02*
X1500Y1293D02*
X1500Y1369D01*
D02*
X1422Y1215D02*
X1500Y1293D01*
D02*
X1851Y1268D02*
X1775Y1211D01*
D02*
X1809Y1412D02*
X1851Y1268D01*
D02*
X2176Y1242D02*
X2103Y1206D01*
D02*
X2197Y1411D02*
X2176Y1242D01*
D02*
X800Y2118D02*
X800Y2166D01*
D02*
X900Y2368D02*
X900Y2219D01*
D02*
X450Y2369D02*
X527Y2426D01*
D02*
X376Y2219D02*
X450Y2369D01*
D02*
X50Y2217D02*
X376Y2219D01*
D02*
X50Y1843D02*
X50Y2217D01*
D02*
X2576Y1368D02*
X2628Y1420D01*
D02*
X2525Y1293D02*
X2576Y1368D01*
D02*
X2447Y1215D02*
X2525Y1293D01*
D02*
X500Y1342D02*
X500Y1242D01*
D02*
X500Y1242D02*
X428Y1206D01*
D02*
X536Y1414D02*
X500Y1342D01*
D02*
X1000Y1342D02*
X1000Y1243D01*
D02*
X1000Y1243D02*
X1050Y1210D01*
D02*
X966Y1414D02*
X1000Y1342D01*
D02*
X1350Y1648D02*
X1350Y1716D01*
D02*
X1250Y1648D02*
X1250Y1716D01*
D02*
X1250Y1587D02*
X1250Y1475D01*
D02*
X951Y1587D02*
X952Y1475D01*
D02*
X1550Y1648D02*
X1550Y1716D01*
D02*
X1450Y1648D02*
X1450Y1716D01*
D02*
X1526Y1443D02*
X1475Y1518D01*
D02*
X1475Y1518D02*
X1375Y1542D01*
D02*
X1375Y1542D02*
X1360Y1589D01*
D02*
X1668Y1443D02*
X1526Y1443D01*
D02*
X1150Y1716D02*
X1150Y1648D01*
D02*
X1050Y1648D02*
X1050Y1716D01*
D02*
X371Y1202D02*
X179Y1259D01*
D02*
X550Y1510D02*
X550Y1475D01*
D02*
X675Y2542D02*
X775Y2542D01*
D02*
X775Y2542D02*
X787Y2486D01*
D02*
X573Y2460D02*
X675Y2542D01*
D02*
X2600Y1669D02*
X2566Y1719D01*
D02*
X2726Y1667D02*
X2600Y1669D01*
D02*
X1550Y2069D02*
X1550Y2212D01*
D02*
X1150Y2069D02*
X1150Y2212D01*
D02*
X1350Y2069D02*
X1350Y2212D01*
D02*
X1650Y2069D02*
X1650Y2212D01*
D02*
X1450Y2069D02*
X1450Y2212D01*
D02*
X1050Y2069D02*
X1050Y2212D01*
D02*
X1750Y2069D02*
X1750Y2212D01*
D02*
X1250Y2069D02*
X1250Y2212D01*
D02*
X2650Y1771D02*
X2650Y1864D01*
D02*
X2100Y2118D02*
X2522Y2118D01*
D02*
X2065Y2064D02*
X2100Y2118D01*
D02*
X600Y2119D02*
X600Y2214D01*
D02*
X566Y2067D02*
X600Y2119D01*
D02*
X600Y2342D02*
X600Y2271D01*
D02*
X726Y2462D02*
X600Y2342D01*
D02*
X632Y2020D02*
X550Y1918D01*
D02*
X251Y1993D02*
X177Y2029D01*
D02*
X250Y1918D02*
X251Y1993D01*
D02*
X550Y1918D02*
X250Y1918D01*
D02*
X2600Y2567D02*
X2600Y2318D01*
D02*
X2800Y2568D02*
X2600Y2567D01*
D02*
X2800Y2523D02*
X2800Y2568D01*
D02*
X2426Y2318D02*
X2389Y2366D01*
D02*
X2600Y2318D02*
X2426Y2318D01*
D02*
X2875Y1967D02*
X2679Y1989D01*
D02*
X3095Y1968D02*
X2875Y1967D01*
D02*
X2472Y2492D02*
X2400Y2489D01*
D02*
X2269Y2490D02*
X2343Y2489D01*
D02*
X900Y2368D02*
X1750Y2368D01*
D02*
X626Y2593D02*
X826Y2593D01*
D02*
X1750Y2368D02*
X1832Y2469D01*
D02*
X856Y2456D02*
X900Y2368D01*
D02*
X574Y2558D02*
X626Y2593D01*
D02*
X826Y2593D02*
X847Y2486D01*
D02*
X2650Y1475D02*
X2650Y1510D01*
D02*
X2751Y1161D02*
X2751Y1093D01*
D02*
X2426Y1093D02*
X2426Y1161D01*
D02*
X2751Y1093D02*
X2426Y1093D01*
D02*
X1750Y1161D02*
X1750Y1093D01*
D02*
X2076Y1093D02*
X2076Y1161D01*
D02*
X1750Y1093D02*
X2076Y1093D01*
D02*
X2770Y2393D02*
X2731Y2393D01*
D02*
X2875Y1867D02*
X2726Y1667D01*
D02*
X3095Y1868D02*
X2875Y1867D01*
D02*
X2475Y1842D02*
X2300Y1843D01*
D02*
X2300Y1843D02*
X2262Y1766D01*
D02*
X2533Y1765D02*
X2475Y1842D01*
D02*
X850Y1893D02*
X766Y2019D01*
D02*
X2100Y1893D02*
X850Y1893D01*
D02*
X2232Y1761D02*
X2100Y1893D01*
D02*
X800Y1843D02*
X2052Y1841D01*
D02*
X2052Y1841D02*
X2132Y1761D01*
D02*
X1075Y1093D02*
X1400Y1093D01*
D02*
X1075Y1161D02*
X1075Y1093D01*
D02*
X1400Y1093D02*
X1400Y1161D01*
D02*
X2870Y2393D02*
X2831Y2393D01*
D02*
X2000Y2343D02*
X1900Y2393D01*
D02*
X2000Y2219D02*
X2000Y2343D01*
D02*
X1900Y2393D02*
X1864Y2466D01*
D02*
X2431Y2218D02*
X2000Y2219D01*
D02*
X400Y1093D02*
X400Y1161D01*
D02*
X725Y1093D02*
X400Y1093D01*
D02*
X725Y1093D02*
X725Y1161D01*
D02*
X1075Y1093D02*
X725Y1093D01*
D02*
X800Y2118D02*
X950Y2118D01*
D02*
X950Y2118D02*
X950Y1943D01*
D02*
X950Y1943D02*
X2526Y1943D01*
D02*
X2526Y1943D02*
X2624Y1903D01*
D02*
X600Y2117D02*
X800Y2118D01*
D02*
X600Y2214D02*
X600Y2117D01*
D02*
X2875Y2067D02*
X2678Y2111D01*
D02*
X3095Y2068D02*
X2875Y2067D01*
D02*
X763Y1768D02*
X800Y1843D01*
D02*
X1400Y1093D02*
X1400Y1161D01*
D02*
X1750Y1093D02*
X1400Y1093D01*
D02*
X2426Y1093D02*
X2426Y1161D01*
D02*
X2076Y1093D02*
X2426Y1093D01*
G54D24*
X1045Y2078D02*
X1054Y2078D01*
X1145Y2078D02*
X1154Y2078D01*
X1245Y2078D02*
X1254Y2078D01*
X1345Y2078D02*
X1354Y2078D01*
X1445Y2078D02*
X1454Y2078D01*
X1545Y2078D02*
X1554Y2078D01*
X1645Y2078D02*
X1654Y2078D01*
X1745Y2078D02*
X1754Y2078D01*
X1845Y2078D02*
X1854Y2078D01*
X1945Y2078D02*
X1954Y2078D01*
X2045Y2078D02*
X2054Y2078D01*
X2145Y2078D02*
X2154Y2078D01*
X2245Y2078D02*
X2254Y2078D01*
X2345Y2078D02*
X2354Y2078D01*
X1041Y2077D02*
X1059Y2077D01*
X1141Y2077D02*
X1159Y2077D01*
X1241Y2077D02*
X1259Y2077D01*
X1341Y2077D02*
X1359Y2077D01*
X1441Y2077D02*
X1459Y2077D01*
X1541Y2077D02*
X1559Y2077D01*
X1641Y2077D02*
X1659Y2077D01*
X1741Y2077D02*
X1758Y2077D01*
X1841Y2077D02*
X1858Y2077D01*
X1941Y2077D02*
X1958Y2077D01*
X2041Y2077D02*
X2058Y2077D01*
X2141Y2077D02*
X2158Y2077D01*
X2241Y2077D02*
X2258Y2077D01*
X2341Y2077D02*
X2358Y2077D01*
X1038Y2076D02*
X1062Y2076D01*
X1138Y2076D02*
X1162Y2076D01*
X1238Y2076D02*
X1262Y2076D01*
X1338Y2076D02*
X1361Y2076D01*
X1438Y2076D02*
X1461Y2076D01*
X1538Y2076D02*
X1561Y2076D01*
X1638Y2076D02*
X1661Y2076D01*
X1738Y2076D02*
X1761Y2076D01*
X1838Y2076D02*
X1861Y2076D01*
X1938Y2076D02*
X1961Y2076D01*
X2038Y2076D02*
X2061Y2076D01*
X2138Y2076D02*
X2161Y2076D01*
X2238Y2076D02*
X2261Y2076D01*
X2338Y2076D02*
X2361Y2076D01*
X1036Y2075D02*
X1064Y2075D01*
X1135Y2075D02*
X1164Y2075D01*
X1235Y2075D02*
X1264Y2075D01*
X1335Y2075D02*
X1364Y2075D01*
X1435Y2075D02*
X1464Y2075D01*
X1535Y2075D02*
X1564Y2075D01*
X1635Y2075D02*
X1664Y2075D01*
X1735Y2075D02*
X1764Y2075D01*
X1835Y2075D02*
X1864Y2075D01*
X1935Y2075D02*
X1964Y2075D01*
X2035Y2075D02*
X2064Y2075D01*
X2135Y2075D02*
X2164Y2075D01*
X2235Y2075D02*
X2264Y2075D01*
X2335Y2075D02*
X2364Y2075D01*
X1033Y2074D02*
X1066Y2074D01*
X1133Y2074D02*
X1166Y2074D01*
X1233Y2074D02*
X1266Y2074D01*
X1333Y2074D02*
X1366Y2074D01*
X1433Y2074D02*
X1466Y2074D01*
X1533Y2074D02*
X1566Y2074D01*
X1633Y2074D02*
X1666Y2074D01*
X1733Y2074D02*
X1766Y2074D01*
X1833Y2074D02*
X1866Y2074D01*
X1933Y2074D02*
X1966Y2074D01*
X2033Y2074D02*
X2066Y2074D01*
X2133Y2074D02*
X2166Y2074D01*
X2233Y2074D02*
X2266Y2074D01*
X2333Y2074D02*
X2366Y2074D01*
X1032Y2073D02*
X1068Y2073D01*
X1132Y2073D02*
X1168Y2073D01*
X1232Y2073D02*
X1268Y2073D01*
X1332Y2073D02*
X1368Y2073D01*
X1432Y2073D02*
X1468Y2073D01*
X1532Y2073D02*
X1568Y2073D01*
X1632Y2073D02*
X1668Y2073D01*
X1732Y2073D02*
X1768Y2073D01*
X1832Y2073D02*
X1868Y2073D01*
X1932Y2073D02*
X1968Y2073D01*
X2032Y2073D02*
X2067Y2073D01*
X2132Y2073D02*
X2167Y2073D01*
X2231Y2073D02*
X2267Y2073D01*
X2331Y2073D02*
X2367Y2073D01*
X1030Y2072D02*
X1069Y2072D01*
X1130Y2072D02*
X1169Y2072D01*
X1230Y2072D02*
X1269Y2072D01*
X1330Y2072D02*
X1369Y2072D01*
X1430Y2072D02*
X1469Y2072D01*
X1530Y2072D02*
X1569Y2072D01*
X1630Y2072D02*
X1669Y2072D01*
X1730Y2072D02*
X1769Y2072D01*
X1830Y2072D02*
X1869Y2072D01*
X1930Y2072D02*
X1969Y2072D01*
X2030Y2072D02*
X2069Y2072D01*
X2130Y2072D02*
X2169Y2072D01*
X2230Y2072D02*
X2269Y2072D01*
X2330Y2072D02*
X2369Y2072D01*
X1029Y2071D02*
X1071Y2071D01*
X1129Y2071D02*
X1171Y2071D01*
X1229Y2071D02*
X1271Y2071D01*
X1329Y2071D02*
X1371Y2071D01*
X1429Y2071D02*
X1471Y2071D01*
X1529Y2071D02*
X1571Y2071D01*
X1629Y2071D02*
X1671Y2071D01*
X1729Y2071D02*
X1771Y2071D01*
X1829Y2071D02*
X1871Y2071D01*
X1929Y2071D02*
X1971Y2071D01*
X2029Y2071D02*
X2070Y2071D01*
X2129Y2071D02*
X2170Y2071D01*
X2228Y2071D02*
X2270Y2071D01*
X2328Y2071D02*
X2370Y2071D01*
X1027Y2070D02*
X1072Y2070D01*
X1127Y2070D02*
X1172Y2070D01*
X1227Y2070D02*
X1272Y2070D01*
X1327Y2070D02*
X1372Y2070D01*
X1427Y2070D02*
X1472Y2070D01*
X1527Y2070D02*
X1572Y2070D01*
X1627Y2070D02*
X1672Y2070D01*
X1727Y2070D02*
X1772Y2070D01*
X1827Y2070D02*
X1872Y2070D01*
X1927Y2070D02*
X1972Y2070D01*
X2027Y2070D02*
X2072Y2070D01*
X2127Y2070D02*
X2172Y2070D01*
X2227Y2070D02*
X2272Y2070D01*
X2327Y2070D02*
X2372Y2070D01*
X1026Y2069D02*
X1073Y2069D01*
X1126Y2069D02*
X1173Y2069D01*
X1226Y2069D02*
X1273Y2069D01*
X1326Y2069D02*
X1373Y2069D01*
X1426Y2069D02*
X1473Y2069D01*
X1526Y2069D02*
X1573Y2069D01*
X1626Y2069D02*
X1673Y2069D01*
X1726Y2069D02*
X1773Y2069D01*
X1826Y2069D02*
X1873Y2069D01*
X1926Y2069D02*
X1973Y2069D01*
X2026Y2069D02*
X2073Y2069D01*
X2126Y2069D02*
X2173Y2069D01*
X2226Y2069D02*
X2273Y2069D01*
X2326Y2069D02*
X2373Y2069D01*
X1025Y2068D02*
X1074Y2068D01*
X1125Y2068D02*
X1174Y2068D01*
X1225Y2068D02*
X1274Y2068D01*
X1325Y2068D02*
X1374Y2068D01*
X1425Y2068D02*
X1474Y2068D01*
X1525Y2068D02*
X1574Y2068D01*
X1625Y2068D02*
X1674Y2068D01*
X1725Y2068D02*
X1774Y2068D01*
X1825Y2068D02*
X1874Y2068D01*
X1925Y2068D02*
X1974Y2068D01*
X2025Y2068D02*
X2074Y2068D01*
X2125Y2068D02*
X2174Y2068D01*
X2225Y2068D02*
X2274Y2068D01*
X2325Y2068D02*
X2374Y2068D01*
X1024Y2067D02*
X1075Y2067D01*
X1124Y2067D02*
X1175Y2067D01*
X1224Y2067D02*
X1275Y2067D01*
X1324Y2067D02*
X1375Y2067D01*
X1424Y2067D02*
X1475Y2067D01*
X1524Y2067D02*
X1575Y2067D01*
X1624Y2067D02*
X1675Y2067D01*
X1724Y2067D02*
X1775Y2067D01*
X1824Y2067D02*
X1875Y2067D01*
X1924Y2067D02*
X1975Y2067D01*
X2024Y2067D02*
X2075Y2067D01*
X2124Y2067D02*
X2175Y2067D01*
X2224Y2067D02*
X2275Y2067D01*
X2324Y2067D02*
X2375Y2067D01*
X1024Y2066D02*
X1076Y2066D01*
X1123Y2066D02*
X1176Y2066D01*
X1223Y2066D02*
X1276Y2066D01*
X1323Y2066D02*
X1376Y2066D01*
X1423Y2066D02*
X1476Y2066D01*
X1523Y2066D02*
X1576Y2066D01*
X1623Y2066D02*
X1676Y2066D01*
X1723Y2066D02*
X1776Y2066D01*
X1823Y2066D02*
X1876Y2066D01*
X1923Y2066D02*
X1976Y2066D01*
X2023Y2066D02*
X2076Y2066D01*
X2123Y2066D02*
X2176Y2066D01*
X2223Y2066D02*
X2276Y2066D01*
X2323Y2066D02*
X2376Y2066D01*
X1023Y2065D02*
X1077Y2065D01*
X1123Y2065D02*
X1177Y2065D01*
X1223Y2065D02*
X1277Y2065D01*
X1323Y2065D02*
X1377Y2065D01*
X1423Y2065D02*
X1477Y2065D01*
X1523Y2065D02*
X1577Y2065D01*
X1623Y2065D02*
X1677Y2065D01*
X1723Y2065D02*
X1777Y2065D01*
X1823Y2065D02*
X1877Y2065D01*
X1923Y2065D02*
X1977Y2065D01*
X2023Y2065D02*
X2076Y2065D01*
X2123Y2065D02*
X2176Y2065D01*
X2222Y2065D02*
X2276Y2065D01*
X2322Y2065D02*
X2376Y2065D01*
X1022Y2064D02*
X1077Y2064D01*
X1122Y2064D02*
X1177Y2064D01*
X1222Y2064D02*
X1277Y2064D01*
X1322Y2064D02*
X1377Y2064D01*
X1422Y2064D02*
X1477Y2064D01*
X1522Y2064D02*
X1577Y2064D01*
X1622Y2064D02*
X1677Y2064D01*
X1722Y2064D02*
X1777Y2064D01*
X1822Y2064D02*
X1877Y2064D01*
X1922Y2064D02*
X1977Y2064D01*
X2022Y2064D02*
X2077Y2064D01*
X2122Y2064D02*
X2177Y2064D01*
X2222Y2064D02*
X2277Y2064D01*
X2322Y2064D02*
X2377Y2064D01*
X1021Y2063D02*
X1078Y2063D01*
X1121Y2063D02*
X1178Y2063D01*
X1221Y2063D02*
X1278Y2063D01*
X1321Y2063D02*
X1378Y2063D01*
X1421Y2063D02*
X1478Y2063D01*
X1521Y2063D02*
X1578Y2063D01*
X1621Y2063D02*
X1678Y2063D01*
X1721Y2063D02*
X1778Y2063D01*
X1821Y2063D02*
X1878Y2063D01*
X1921Y2063D02*
X1978Y2063D01*
X2021Y2063D02*
X2078Y2063D01*
X2121Y2063D02*
X2178Y2063D01*
X2221Y2063D02*
X2278Y2063D01*
X2321Y2063D02*
X2378Y2063D01*
X1021Y2062D02*
X1079Y2062D01*
X1121Y2062D02*
X1179Y2062D01*
X1221Y2062D02*
X1279Y2062D01*
X1321Y2062D02*
X1379Y2062D01*
X1421Y2062D02*
X1479Y2062D01*
X1521Y2062D02*
X1579Y2062D01*
X1621Y2062D02*
X1679Y2062D01*
X1721Y2062D02*
X1779Y2062D01*
X1821Y2062D02*
X1879Y2062D01*
X1921Y2062D02*
X1979Y2062D01*
X2021Y2062D02*
X2079Y2062D01*
X2120Y2062D02*
X2178Y2062D01*
X2220Y2062D02*
X2278Y2062D01*
X2320Y2062D02*
X2378Y2062D01*
X1020Y2061D02*
X1079Y2061D01*
X1120Y2061D02*
X1179Y2061D01*
X1220Y2061D02*
X1279Y2061D01*
X1320Y2061D02*
X1379Y2061D01*
X1420Y2061D02*
X1479Y2061D01*
X1520Y2061D02*
X1579Y2061D01*
X1620Y2061D02*
X1679Y2061D01*
X1720Y2061D02*
X1779Y2061D01*
X1820Y2061D02*
X1879Y2061D01*
X1920Y2061D02*
X1979Y2061D01*
X2020Y2061D02*
X2079Y2061D01*
X2120Y2061D02*
X2179Y2061D01*
X2220Y2061D02*
X2279Y2061D01*
X2320Y2061D02*
X2379Y2061D01*
X1020Y2060D02*
X1080Y2060D01*
X1120Y2060D02*
X1180Y2060D01*
X1220Y2060D02*
X1280Y2060D01*
X1320Y2060D02*
X1380Y2060D01*
X1419Y2060D02*
X1480Y2060D01*
X1519Y2060D02*
X1580Y2060D01*
X1619Y2060D02*
X1680Y2060D01*
X1719Y2060D02*
X1780Y2060D01*
X1819Y2060D02*
X1880Y2060D01*
X1919Y2060D02*
X1980Y2060D01*
X2019Y2060D02*
X2080Y2060D01*
X2119Y2060D02*
X2180Y2060D01*
X2219Y2060D02*
X2280Y2060D01*
X2319Y2060D02*
X2380Y2060D01*
X1019Y2059D02*
X1080Y2059D01*
X1119Y2059D02*
X1180Y2059D01*
X1219Y2059D02*
X1280Y2059D01*
X1319Y2059D02*
X1380Y2059D01*
X1419Y2059D02*
X1480Y2059D01*
X1519Y2059D02*
X1580Y2059D01*
X1619Y2059D02*
X1680Y2059D01*
X1719Y2059D02*
X1780Y2059D01*
X1819Y2059D02*
X1880Y2059D01*
X1919Y2059D02*
X1980Y2059D01*
X2019Y2059D02*
X2080Y2059D01*
X2119Y2059D02*
X2180Y2059D01*
X2219Y2059D02*
X2280Y2059D01*
X2319Y2059D02*
X2380Y2059D01*
X1019Y2058D02*
X1045Y2058D01*
X1054Y2058D02*
X1081Y2058D01*
X1119Y2058D02*
X1145Y2058D01*
X1154Y2058D02*
X1181Y2058D01*
X1219Y2058D02*
X1245Y2058D01*
X1254Y2058D02*
X1281Y2058D01*
X1319Y2058D02*
X1345Y2058D01*
X1354Y2058D02*
X1381Y2058D01*
X1419Y2058D02*
X1445Y2058D01*
X1454Y2058D02*
X1481Y2058D01*
X1519Y2058D02*
X1545Y2058D01*
X1554Y2058D02*
X1581Y2058D01*
X1618Y2058D02*
X1645Y2058D01*
X1654Y2058D02*
X1681Y2058D01*
X1718Y2058D02*
X1745Y2058D01*
X1754Y2058D02*
X1781Y2058D01*
X1818Y2058D02*
X1845Y2058D01*
X1854Y2058D02*
X1881Y2058D01*
X1918Y2058D02*
X1945Y2058D01*
X1954Y2058D02*
X1981Y2058D01*
X2018Y2058D02*
X2045Y2058D01*
X2054Y2058D02*
X2081Y2058D01*
X2118Y2058D02*
X2145Y2058D01*
X2154Y2058D02*
X2181Y2058D01*
X2218Y2058D02*
X2245Y2058D01*
X2254Y2058D02*
X2281Y2058D01*
X2318Y2058D02*
X2345Y2058D01*
X2354Y2058D02*
X2381Y2058D01*
X1018Y2057D02*
X1042Y2057D01*
X1057Y2057D02*
X1081Y2057D01*
X1118Y2057D02*
X1142Y2057D01*
X1157Y2057D02*
X1181Y2057D01*
X1218Y2057D02*
X1242Y2057D01*
X1257Y2057D02*
X1281Y2057D01*
X1318Y2057D02*
X1342Y2057D01*
X1357Y2057D02*
X1381Y2057D01*
X1418Y2057D02*
X1442Y2057D01*
X1457Y2057D02*
X1481Y2057D01*
X1518Y2057D02*
X1542Y2057D01*
X1557Y2057D02*
X1581Y2057D01*
X1618Y2057D02*
X1642Y2057D01*
X1657Y2057D02*
X1681Y2057D01*
X1718Y2057D02*
X1742Y2057D01*
X1757Y2057D02*
X1781Y2057D01*
X1818Y2057D02*
X1842Y2057D01*
X1857Y2057D02*
X1881Y2057D01*
X1918Y2057D02*
X1942Y2057D01*
X1957Y2057D02*
X1981Y2057D01*
X2018Y2057D02*
X2042Y2057D01*
X2057Y2057D02*
X2081Y2057D01*
X2118Y2057D02*
X2142Y2057D01*
X2157Y2057D02*
X2181Y2057D01*
X2218Y2057D02*
X2242Y2057D01*
X2257Y2057D02*
X2281Y2057D01*
X2318Y2057D02*
X2342Y2057D01*
X2357Y2057D02*
X2381Y2057D01*
X1018Y2056D02*
X1041Y2056D01*
X1059Y2056D02*
X1082Y2056D01*
X1118Y2056D02*
X1141Y2056D01*
X1159Y2056D02*
X1182Y2056D01*
X1218Y2056D02*
X1241Y2056D01*
X1259Y2056D02*
X1282Y2056D01*
X1318Y2056D02*
X1341Y2056D01*
X1359Y2056D02*
X1382Y2056D01*
X1418Y2056D02*
X1441Y2056D01*
X1459Y2056D02*
X1482Y2056D01*
X1518Y2056D02*
X1541Y2056D01*
X1559Y2056D02*
X1582Y2056D01*
X1618Y2056D02*
X1641Y2056D01*
X1658Y2056D02*
X1682Y2056D01*
X1718Y2056D02*
X1741Y2056D01*
X1758Y2056D02*
X1782Y2056D01*
X1818Y2056D02*
X1841Y2056D01*
X1858Y2056D02*
X1882Y2056D01*
X1918Y2056D02*
X1941Y2056D01*
X1958Y2056D02*
X1981Y2056D01*
X2018Y2056D02*
X2041Y2056D01*
X2058Y2056D02*
X2081Y2056D01*
X2118Y2056D02*
X2141Y2056D01*
X2158Y2056D02*
X2181Y2056D01*
X2218Y2056D02*
X2241Y2056D01*
X2258Y2056D02*
X2281Y2056D01*
X2317Y2056D02*
X2341Y2056D01*
X2358Y2056D02*
X2381Y2056D01*
X1017Y2055D02*
X1040Y2055D01*
X1060Y2055D02*
X1082Y2055D01*
X1117Y2055D02*
X1140Y2055D01*
X1160Y2055D02*
X1182Y2055D01*
X1217Y2055D02*
X1240Y2055D01*
X1260Y2055D02*
X1282Y2055D01*
X1317Y2055D02*
X1340Y2055D01*
X1360Y2055D02*
X1382Y2055D01*
X1417Y2055D02*
X1440Y2055D01*
X1460Y2055D02*
X1482Y2055D01*
X1517Y2055D02*
X1540Y2055D01*
X1560Y2055D02*
X1582Y2055D01*
X1617Y2055D02*
X1640Y2055D01*
X1660Y2055D02*
X1682Y2055D01*
X1717Y2055D02*
X1740Y2055D01*
X1760Y2055D02*
X1782Y2055D01*
X1817Y2055D02*
X1839Y2055D01*
X1860Y2055D02*
X1882Y2055D01*
X1917Y2055D02*
X1939Y2055D01*
X1960Y2055D02*
X1982Y2055D01*
X2017Y2055D02*
X2039Y2055D01*
X2060Y2055D02*
X2082Y2055D01*
X2117Y2055D02*
X2139Y2055D01*
X2160Y2055D02*
X2182Y2055D01*
X2217Y2055D02*
X2239Y2055D01*
X2260Y2055D02*
X2282Y2055D01*
X2317Y2055D02*
X2339Y2055D01*
X2360Y2055D02*
X2382Y2055D01*
X1017Y2054D02*
X1039Y2054D01*
X1061Y2054D02*
X1082Y2054D01*
X1117Y2054D02*
X1139Y2054D01*
X1161Y2054D02*
X1182Y2054D01*
X1217Y2054D02*
X1239Y2054D01*
X1261Y2054D02*
X1282Y2054D01*
X1317Y2054D02*
X1339Y2054D01*
X1361Y2054D02*
X1382Y2054D01*
X1417Y2054D02*
X1438Y2054D01*
X1461Y2054D02*
X1482Y2054D01*
X1517Y2054D02*
X1538Y2054D01*
X1561Y2054D02*
X1582Y2054D01*
X1617Y2054D02*
X1638Y2054D01*
X1661Y2054D02*
X1682Y2054D01*
X1717Y2054D02*
X1738Y2054D01*
X1761Y2054D02*
X1782Y2054D01*
X1817Y2054D02*
X1838Y2054D01*
X1861Y2054D02*
X1882Y2054D01*
X1917Y2054D02*
X1938Y2054D01*
X1961Y2054D02*
X1982Y2054D01*
X2017Y2054D02*
X2038Y2054D01*
X2061Y2054D02*
X2082Y2054D01*
X2117Y2054D02*
X2138Y2054D01*
X2161Y2054D02*
X2182Y2054D01*
X2217Y2054D02*
X2238Y2054D01*
X2261Y2054D02*
X2282Y2054D01*
X2317Y2054D02*
X2338Y2054D01*
X2361Y2054D02*
X2382Y2054D01*
X1017Y2053D02*
X1038Y2053D01*
X1062Y2053D02*
X1083Y2053D01*
X1117Y2053D02*
X1138Y2053D01*
X1162Y2053D02*
X1183Y2053D01*
X1217Y2053D02*
X1238Y2053D01*
X1262Y2053D02*
X1283Y2053D01*
X1317Y2053D02*
X1338Y2053D01*
X1362Y2053D02*
X1383Y2053D01*
X1417Y2053D02*
X1438Y2053D01*
X1462Y2053D02*
X1483Y2053D01*
X1517Y2053D02*
X1538Y2053D01*
X1562Y2053D02*
X1583Y2053D01*
X1617Y2053D02*
X1638Y2053D01*
X1662Y2053D02*
X1683Y2053D01*
X1717Y2053D02*
X1738Y2053D01*
X1762Y2053D02*
X1783Y2053D01*
X1817Y2053D02*
X1837Y2053D01*
X1862Y2053D02*
X1883Y2053D01*
X1917Y2053D02*
X1937Y2053D01*
X1962Y2053D02*
X1983Y2053D01*
X2017Y2053D02*
X2037Y2053D01*
X2062Y2053D02*
X2083Y2053D01*
X2116Y2053D02*
X2137Y2053D01*
X2162Y2053D02*
X2182Y2053D01*
X2216Y2053D02*
X2237Y2053D01*
X2262Y2053D02*
X2282Y2053D01*
X2316Y2053D02*
X2337Y2053D01*
X2361Y2053D02*
X2382Y2053D01*
X1016Y2052D02*
X1037Y2052D01*
X1063Y2052D02*
X1083Y2052D01*
X1116Y2052D02*
X1137Y2052D01*
X1163Y2052D02*
X1183Y2052D01*
X1216Y2052D02*
X1237Y2052D01*
X1263Y2052D02*
X1283Y2052D01*
X1316Y2052D02*
X1337Y2052D01*
X1363Y2052D02*
X1383Y2052D01*
X1416Y2052D02*
X1437Y2052D01*
X1463Y2052D02*
X1483Y2052D01*
X1516Y2052D02*
X1537Y2052D01*
X1563Y2052D02*
X1583Y2052D01*
X1616Y2052D02*
X1637Y2052D01*
X1663Y2052D02*
X1683Y2052D01*
X1716Y2052D02*
X1737Y2052D01*
X1762Y2052D02*
X1783Y2052D01*
X1816Y2052D02*
X1837Y2052D01*
X1862Y2052D02*
X1883Y2052D01*
X1916Y2052D02*
X1937Y2052D01*
X1962Y2052D02*
X1983Y2052D01*
X2016Y2052D02*
X2037Y2052D01*
X2062Y2052D02*
X2083Y2052D01*
X2116Y2052D02*
X2137Y2052D01*
X2162Y2052D02*
X2183Y2052D01*
X2216Y2052D02*
X2237Y2052D01*
X2262Y2052D02*
X2283Y2052D01*
X2316Y2052D02*
X2337Y2052D01*
X2362Y2052D02*
X2383Y2052D01*
X1016Y2051D02*
X1036Y2051D01*
X1063Y2051D02*
X1083Y2051D01*
X1116Y2051D02*
X1136Y2051D01*
X1163Y2051D02*
X1183Y2051D01*
X1216Y2051D02*
X1236Y2051D01*
X1263Y2051D02*
X1283Y2051D01*
X1316Y2051D02*
X1336Y2051D01*
X1363Y2051D02*
X1383Y2051D01*
X1416Y2051D02*
X1436Y2051D01*
X1463Y2051D02*
X1483Y2051D01*
X1516Y2051D02*
X1536Y2051D01*
X1563Y2051D02*
X1583Y2051D01*
X1616Y2051D02*
X1636Y2051D01*
X1663Y2051D02*
X1683Y2051D01*
X1716Y2051D02*
X1736Y2051D01*
X1763Y2051D02*
X1783Y2051D01*
X1816Y2051D02*
X1836Y2051D01*
X1863Y2051D02*
X1883Y2051D01*
X1916Y2051D02*
X1936Y2051D01*
X1963Y2051D02*
X1983Y2051D01*
X2016Y2051D02*
X2036Y2051D01*
X2063Y2051D02*
X2083Y2051D01*
X2116Y2051D02*
X2136Y2051D01*
X2163Y2051D02*
X2183Y2051D01*
X2216Y2051D02*
X2236Y2051D01*
X2263Y2051D02*
X2283Y2051D01*
X2316Y2051D02*
X2336Y2051D01*
X2363Y2051D02*
X2383Y2051D01*
X1016Y2050D02*
X1036Y2050D01*
X1064Y2050D02*
X1083Y2050D01*
X1116Y2050D02*
X1136Y2050D01*
X1164Y2050D02*
X1183Y2050D01*
X1216Y2050D02*
X1236Y2050D01*
X1264Y2050D02*
X1283Y2050D01*
X1316Y2050D02*
X1336Y2050D01*
X1364Y2050D02*
X1383Y2050D01*
X1416Y2050D02*
X1435Y2050D01*
X1464Y2050D02*
X1483Y2050D01*
X1516Y2050D02*
X1535Y2050D01*
X1564Y2050D02*
X1583Y2050D01*
X1616Y2050D02*
X1635Y2050D01*
X1664Y2050D02*
X1683Y2050D01*
X1716Y2050D02*
X1735Y2050D01*
X1764Y2050D02*
X1783Y2050D01*
X1816Y2050D02*
X1835Y2050D01*
X1864Y2050D02*
X1883Y2050D01*
X1916Y2050D02*
X1935Y2050D01*
X1964Y2050D02*
X1983Y2050D01*
X2016Y2050D02*
X2035Y2050D01*
X2064Y2050D02*
X2083Y2050D01*
X2116Y2050D02*
X2135Y2050D01*
X2164Y2050D02*
X2183Y2050D01*
X2216Y2050D02*
X2235Y2050D01*
X2264Y2050D02*
X2283Y2050D01*
X2316Y2050D02*
X2335Y2050D01*
X2364Y2050D02*
X2383Y2050D01*
X1016Y2049D02*
X1035Y2049D01*
X1064Y2049D02*
X1084Y2049D01*
X1116Y2049D02*
X1135Y2049D01*
X1164Y2049D02*
X1184Y2049D01*
X1216Y2049D02*
X1235Y2049D01*
X1264Y2049D02*
X1284Y2049D01*
X1316Y2049D02*
X1335Y2049D01*
X1364Y2049D02*
X1384Y2049D01*
X1416Y2049D02*
X1435Y2049D01*
X1464Y2049D02*
X1484Y2049D01*
X1516Y2049D02*
X1535Y2049D01*
X1564Y2049D02*
X1584Y2049D01*
X1616Y2049D02*
X1635Y2049D01*
X1664Y2049D02*
X1684Y2049D01*
X1716Y2049D02*
X1735Y2049D01*
X1764Y2049D02*
X1784Y2049D01*
X1816Y2049D02*
X1835Y2049D01*
X1864Y2049D02*
X1883Y2049D01*
X1916Y2049D02*
X1935Y2049D01*
X1964Y2049D02*
X1983Y2049D01*
X2016Y2049D02*
X2035Y2049D01*
X2064Y2049D02*
X2083Y2049D01*
X2116Y2049D02*
X2135Y2049D01*
X2164Y2049D02*
X2183Y2049D01*
X2216Y2049D02*
X2235Y2049D01*
X2264Y2049D02*
X2283Y2049D01*
X2315Y2049D02*
X2335Y2049D01*
X2364Y2049D02*
X2383Y2049D01*
X1016Y2048D02*
X1035Y2048D01*
X1065Y2048D02*
X1084Y2048D01*
X1116Y2048D02*
X1135Y2048D01*
X1165Y2048D02*
X1184Y2048D01*
X1216Y2048D02*
X1235Y2048D01*
X1265Y2048D02*
X1284Y2048D01*
X1316Y2048D02*
X1335Y2048D01*
X1365Y2048D02*
X1384Y2048D01*
X1416Y2048D02*
X1435Y2048D01*
X1465Y2048D02*
X1484Y2048D01*
X1516Y2048D02*
X1535Y2048D01*
X1565Y2048D02*
X1584Y2048D01*
X1615Y2048D02*
X1635Y2048D01*
X1664Y2048D02*
X1684Y2048D01*
X1715Y2048D02*
X1735Y2048D01*
X1764Y2048D02*
X1784Y2048D01*
X1815Y2048D02*
X1835Y2048D01*
X1864Y2048D02*
X1884Y2048D01*
X1915Y2048D02*
X1935Y2048D01*
X1964Y2048D02*
X1984Y2048D01*
X2015Y2048D02*
X2035Y2048D01*
X2064Y2048D02*
X2084Y2048D01*
X2115Y2048D02*
X2135Y2048D01*
X2164Y2048D02*
X2184Y2048D01*
X2215Y2048D02*
X2235Y2048D01*
X2264Y2048D02*
X2284Y2048D01*
X2315Y2048D02*
X2335Y2048D01*
X2364Y2048D02*
X2384Y2048D01*
X1015Y2047D02*
X1035Y2047D01*
X1065Y2047D02*
X1084Y2047D01*
X1115Y2047D02*
X1135Y2047D01*
X1165Y2047D02*
X1184Y2047D01*
X1215Y2047D02*
X1235Y2047D01*
X1265Y2047D02*
X1284Y2047D01*
X1315Y2047D02*
X1334Y2047D01*
X1365Y2047D02*
X1384Y2047D01*
X1415Y2047D02*
X1434Y2047D01*
X1465Y2047D02*
X1484Y2047D01*
X1515Y2047D02*
X1534Y2047D01*
X1565Y2047D02*
X1584Y2047D01*
X1615Y2047D02*
X1634Y2047D01*
X1665Y2047D02*
X1684Y2047D01*
X1715Y2047D02*
X1734Y2047D01*
X1765Y2047D02*
X1784Y2047D01*
X1815Y2047D02*
X1834Y2047D01*
X1865Y2047D02*
X1884Y2047D01*
X1915Y2047D02*
X1934Y2047D01*
X1965Y2047D02*
X1984Y2047D01*
X2015Y2047D02*
X2034Y2047D01*
X2065Y2047D02*
X2084Y2047D01*
X2115Y2047D02*
X2134Y2047D01*
X2165Y2047D02*
X2184Y2047D01*
X2215Y2047D02*
X2234Y2047D01*
X2265Y2047D02*
X2284Y2047D01*
X2315Y2047D02*
X2334Y2047D01*
X2365Y2047D02*
X2384Y2047D01*
X1015Y2046D02*
X1034Y2046D01*
X1065Y2046D02*
X1084Y2046D01*
X1115Y2046D02*
X1134Y2046D01*
X1165Y2046D02*
X1184Y2046D01*
X1215Y2046D02*
X1234Y2046D01*
X1265Y2046D02*
X1284Y2046D01*
X1315Y2046D02*
X1334Y2046D01*
X1365Y2046D02*
X1384Y2046D01*
X1415Y2046D02*
X1434Y2046D01*
X1465Y2046D02*
X1484Y2046D01*
X1515Y2046D02*
X1534Y2046D01*
X1565Y2046D02*
X1584Y2046D01*
X1615Y2046D02*
X1634Y2046D01*
X1665Y2046D02*
X1684Y2046D01*
X1715Y2046D02*
X1734Y2046D01*
X1765Y2046D02*
X1784Y2046D01*
X1815Y2046D02*
X1834Y2046D01*
X1865Y2046D02*
X1884Y2046D01*
X1915Y2046D02*
X1934Y2046D01*
X1965Y2046D02*
X1984Y2046D01*
X2015Y2046D02*
X2034Y2046D01*
X2065Y2046D02*
X2084Y2046D01*
X2115Y2046D02*
X2134Y2046D01*
X2165Y2046D02*
X2184Y2046D01*
X2215Y2046D02*
X2234Y2046D01*
X2265Y2046D02*
X2284Y2046D01*
X2315Y2046D02*
X2334Y2046D01*
X2365Y2046D02*
X2384Y2046D01*
X1015Y2045D02*
X1034Y2045D01*
X1065Y2045D02*
X1084Y2045D01*
X1115Y2045D02*
X1134Y2045D01*
X1165Y2045D02*
X1184Y2045D01*
X1215Y2045D02*
X1234Y2045D01*
X1265Y2045D02*
X1284Y2045D01*
X1315Y2045D02*
X1334Y2045D01*
X1365Y2045D02*
X1384Y2045D01*
X1415Y2045D02*
X1434Y2045D01*
X1465Y2045D02*
X1484Y2045D01*
X1515Y2045D02*
X1534Y2045D01*
X1565Y2045D02*
X1584Y2045D01*
X1615Y2045D02*
X1634Y2045D01*
X1665Y2045D02*
X1684Y2045D01*
X1715Y2045D02*
X1734Y2045D01*
X1765Y2045D02*
X1784Y2045D01*
X1815Y2045D02*
X1834Y2045D01*
X1865Y2045D02*
X1884Y2045D01*
X1915Y2045D02*
X1934Y2045D01*
X1965Y2045D02*
X1984Y2045D01*
X2015Y2045D02*
X2034Y2045D01*
X2065Y2045D02*
X2084Y2045D01*
X2115Y2045D02*
X2134Y2045D01*
X2165Y2045D02*
X2184Y2045D01*
X2215Y2045D02*
X2234Y2045D01*
X2265Y2045D02*
X2284Y2045D01*
X2315Y2045D02*
X2334Y2045D01*
X2365Y2045D02*
X2384Y2045D01*
X1015Y2044D02*
X1034Y2044D01*
X1065Y2044D02*
X1084Y2044D01*
X1115Y2044D02*
X1134Y2044D01*
X1165Y2044D02*
X1184Y2044D01*
X1215Y2044D02*
X1234Y2044D01*
X1265Y2044D02*
X1284Y2044D01*
X1315Y2044D02*
X1334Y2044D01*
X1365Y2044D02*
X1384Y2044D01*
X1415Y2044D02*
X1434Y2044D01*
X1465Y2044D02*
X1484Y2044D01*
X1515Y2044D02*
X1534Y2044D01*
X1565Y2044D02*
X1584Y2044D01*
X1615Y2044D02*
X1634Y2044D01*
X1665Y2044D02*
X1684Y2044D01*
X1715Y2044D02*
X1734Y2044D01*
X1765Y2044D02*
X1784Y2044D01*
X1815Y2044D02*
X1834Y2044D01*
X1865Y2044D02*
X1884Y2044D01*
X1915Y2044D02*
X1934Y2044D01*
X1965Y2044D02*
X1984Y2044D01*
X2015Y2044D02*
X2034Y2044D01*
X2065Y2044D02*
X2084Y2044D01*
X2115Y2044D02*
X2134Y2044D01*
X2165Y2044D02*
X2184Y2044D01*
X2215Y2044D02*
X2234Y2044D01*
X2265Y2044D02*
X2284Y2044D01*
X2315Y2044D02*
X2334Y2044D01*
X2365Y2044D02*
X2384Y2044D01*
X1015Y2043D02*
X1034Y2043D01*
X1065Y2043D02*
X1084Y2043D01*
X1115Y2043D02*
X1134Y2043D01*
X1165Y2043D02*
X1184Y2043D01*
X1215Y2043D02*
X1234Y2043D01*
X1265Y2043D02*
X1284Y2043D01*
X1315Y2043D02*
X1334Y2043D01*
X1365Y2043D02*
X1384Y2043D01*
X1415Y2043D02*
X1434Y2043D01*
X1465Y2043D02*
X1484Y2043D01*
X1515Y2043D02*
X1534Y2043D01*
X1565Y2043D02*
X1584Y2043D01*
X1615Y2043D02*
X1634Y2043D01*
X1665Y2043D02*
X1684Y2043D01*
X1715Y2043D02*
X1734Y2043D01*
X1765Y2043D02*
X1784Y2043D01*
X1815Y2043D02*
X1834Y2043D01*
X1865Y2043D02*
X1884Y2043D01*
X1915Y2043D02*
X1934Y2043D01*
X1965Y2043D02*
X1984Y2043D01*
X2015Y2043D02*
X2034Y2043D01*
X2065Y2043D02*
X2084Y2043D01*
X2115Y2043D02*
X2134Y2043D01*
X2165Y2043D02*
X2184Y2043D01*
X2215Y2043D02*
X2234Y2043D01*
X2265Y2043D02*
X2284Y2043D01*
X2315Y2043D02*
X2334Y2043D01*
X2365Y2043D02*
X2384Y2043D01*
X1015Y2042D02*
X1034Y2042D01*
X1065Y2042D02*
X1084Y2042D01*
X1115Y2042D02*
X1134Y2042D01*
X1165Y2042D02*
X1184Y2042D01*
X1215Y2042D02*
X1234Y2042D01*
X1265Y2042D02*
X1284Y2042D01*
X1315Y2042D02*
X1334Y2042D01*
X1365Y2042D02*
X1384Y2042D01*
X1415Y2042D02*
X1434Y2042D01*
X1465Y2042D02*
X1484Y2042D01*
X1515Y2042D02*
X1534Y2042D01*
X1565Y2042D02*
X1584Y2042D01*
X1615Y2042D02*
X1634Y2042D01*
X1665Y2042D02*
X1684Y2042D01*
X1715Y2042D02*
X1734Y2042D01*
X1765Y2042D02*
X1784Y2042D01*
X1815Y2042D02*
X1834Y2042D01*
X1865Y2042D02*
X1884Y2042D01*
X1915Y2042D02*
X1934Y2042D01*
X1965Y2042D02*
X1984Y2042D01*
X2015Y2042D02*
X2034Y2042D01*
X2065Y2042D02*
X2084Y2042D01*
X2115Y2042D02*
X2134Y2042D01*
X2165Y2042D02*
X2184Y2042D01*
X2215Y2042D02*
X2234Y2042D01*
X2265Y2042D02*
X2284Y2042D01*
X2315Y2042D02*
X2334Y2042D01*
X2365Y2042D02*
X2384Y2042D01*
X1015Y2041D02*
X1034Y2041D01*
X1065Y2041D02*
X1084Y2041D01*
X1115Y2041D02*
X1134Y2041D01*
X1165Y2041D02*
X1184Y2041D01*
X1215Y2041D02*
X1234Y2041D01*
X1265Y2041D02*
X1284Y2041D01*
X1315Y2041D02*
X1334Y2041D01*
X1365Y2041D02*
X1384Y2041D01*
X1415Y2041D02*
X1434Y2041D01*
X1465Y2041D02*
X1484Y2041D01*
X1515Y2041D02*
X1534Y2041D01*
X1565Y2041D02*
X1584Y2041D01*
X1615Y2041D02*
X1634Y2041D01*
X1665Y2041D02*
X1684Y2041D01*
X1715Y2041D02*
X1734Y2041D01*
X1765Y2041D02*
X1784Y2041D01*
X1815Y2041D02*
X1834Y2041D01*
X1865Y2041D02*
X1884Y2041D01*
X1915Y2041D02*
X1934Y2041D01*
X1965Y2041D02*
X1984Y2041D01*
X2015Y2041D02*
X2034Y2041D01*
X2065Y2041D02*
X2084Y2041D01*
X2115Y2041D02*
X2134Y2041D01*
X2165Y2041D02*
X2184Y2041D01*
X2215Y2041D02*
X2234Y2041D01*
X2265Y2041D02*
X2284Y2041D01*
X2315Y2041D02*
X2334Y2041D01*
X2365Y2041D02*
X2384Y2041D01*
X1015Y2040D02*
X1035Y2040D01*
X1065Y2040D02*
X1084Y2040D01*
X1115Y2040D02*
X1135Y2040D01*
X1165Y2040D02*
X1184Y2040D01*
X1215Y2040D02*
X1235Y2040D01*
X1265Y2040D02*
X1284Y2040D01*
X1315Y2040D02*
X1334Y2040D01*
X1365Y2040D02*
X1384Y2040D01*
X1415Y2040D02*
X1434Y2040D01*
X1465Y2040D02*
X1484Y2040D01*
X1515Y2040D02*
X1534Y2040D01*
X1565Y2040D02*
X1584Y2040D01*
X1615Y2040D02*
X1634Y2040D01*
X1665Y2040D02*
X1684Y2040D01*
X1715Y2040D02*
X1734Y2040D01*
X1765Y2040D02*
X1784Y2040D01*
X1815Y2040D02*
X1834Y2040D01*
X1865Y2040D02*
X1884Y2040D01*
X1915Y2040D02*
X1934Y2040D01*
X1965Y2040D02*
X1984Y2040D01*
X2015Y2040D02*
X2034Y2040D01*
X2065Y2040D02*
X2084Y2040D01*
X2115Y2040D02*
X2134Y2040D01*
X2165Y2040D02*
X2184Y2040D01*
X2215Y2040D02*
X2234Y2040D01*
X2265Y2040D02*
X2284Y2040D01*
X2315Y2040D02*
X2334Y2040D01*
X2365Y2040D02*
X2384Y2040D01*
X1016Y2039D02*
X1035Y2039D01*
X1065Y2039D02*
X1084Y2039D01*
X1116Y2039D02*
X1135Y2039D01*
X1165Y2039D02*
X1184Y2039D01*
X1216Y2039D02*
X1235Y2039D01*
X1265Y2039D02*
X1284Y2039D01*
X1316Y2039D02*
X1335Y2039D01*
X1365Y2039D02*
X1384Y2039D01*
X1416Y2039D02*
X1435Y2039D01*
X1465Y2039D02*
X1484Y2039D01*
X1516Y2039D02*
X1535Y2039D01*
X1565Y2039D02*
X1584Y2039D01*
X1615Y2039D02*
X1635Y2039D01*
X1664Y2039D02*
X1684Y2039D01*
X1715Y2039D02*
X1735Y2039D01*
X1764Y2039D02*
X1784Y2039D01*
X1815Y2039D02*
X1835Y2039D01*
X1864Y2039D02*
X1884Y2039D01*
X1915Y2039D02*
X1935Y2039D01*
X1964Y2039D02*
X1984Y2039D01*
X2015Y2039D02*
X2035Y2039D01*
X2064Y2039D02*
X2084Y2039D01*
X2115Y2039D02*
X2135Y2039D01*
X2164Y2039D02*
X2184Y2039D01*
X2215Y2039D02*
X2235Y2039D01*
X2264Y2039D02*
X2284Y2039D01*
X2315Y2039D02*
X2335Y2039D01*
X2364Y2039D02*
X2384Y2039D01*
X1016Y2038D02*
X1035Y2038D01*
X1064Y2038D02*
X1084Y2038D01*
X1116Y2038D02*
X1135Y2038D01*
X1164Y2038D02*
X1184Y2038D01*
X1216Y2038D02*
X1235Y2038D01*
X1264Y2038D02*
X1284Y2038D01*
X1316Y2038D02*
X1335Y2038D01*
X1364Y2038D02*
X1384Y2038D01*
X1416Y2038D02*
X1435Y2038D01*
X1464Y2038D02*
X1484Y2038D01*
X1516Y2038D02*
X1535Y2038D01*
X1564Y2038D02*
X1584Y2038D01*
X1616Y2038D02*
X1635Y2038D01*
X1664Y2038D02*
X1684Y2038D01*
X1716Y2038D02*
X1735Y2038D01*
X1764Y2038D02*
X1784Y2038D01*
X1816Y2038D02*
X1835Y2038D01*
X1864Y2038D02*
X1883Y2038D01*
X1916Y2038D02*
X1935Y2038D01*
X1964Y2038D02*
X1983Y2038D01*
X2016Y2038D02*
X2035Y2038D01*
X2064Y2038D02*
X2083Y2038D01*
X2116Y2038D02*
X2135Y2038D01*
X2164Y2038D02*
X2183Y2038D01*
X2216Y2038D02*
X2235Y2038D01*
X2264Y2038D02*
X2283Y2038D01*
X2315Y2038D02*
X2335Y2038D01*
X2364Y2038D02*
X2383Y2038D01*
X1016Y2037D02*
X1036Y2037D01*
X1064Y2037D02*
X1084Y2037D01*
X1116Y2037D02*
X1136Y2037D01*
X1164Y2037D02*
X1183Y2037D01*
X1216Y2037D02*
X1236Y2037D01*
X1264Y2037D02*
X1283Y2037D01*
X1316Y2037D02*
X1336Y2037D01*
X1364Y2037D02*
X1383Y2037D01*
X1416Y2037D02*
X1435Y2037D01*
X1464Y2037D02*
X1483Y2037D01*
X1516Y2037D02*
X1535Y2037D01*
X1564Y2037D02*
X1583Y2037D01*
X1616Y2037D02*
X1635Y2037D01*
X1664Y2037D02*
X1683Y2037D01*
X1716Y2037D02*
X1735Y2037D01*
X1764Y2037D02*
X1783Y2037D01*
X1816Y2037D02*
X1835Y2037D01*
X1864Y2037D02*
X1883Y2037D01*
X1916Y2037D02*
X1935Y2037D01*
X1964Y2037D02*
X1983Y2037D01*
X2016Y2037D02*
X2035Y2037D01*
X2064Y2037D02*
X2083Y2037D01*
X2116Y2037D02*
X2135Y2037D01*
X2164Y2037D02*
X2183Y2037D01*
X2216Y2037D02*
X2235Y2037D01*
X2264Y2037D02*
X2283Y2037D01*
X2316Y2037D02*
X2335Y2037D01*
X2364Y2037D02*
X2383Y2037D01*
X1016Y2036D02*
X1036Y2036D01*
X1063Y2036D02*
X1083Y2036D01*
X1116Y2036D02*
X1136Y2036D01*
X1163Y2036D02*
X1183Y2036D01*
X1216Y2036D02*
X1236Y2036D01*
X1263Y2036D02*
X1283Y2036D01*
X1316Y2036D02*
X1336Y2036D01*
X1363Y2036D02*
X1383Y2036D01*
X1416Y2036D02*
X1436Y2036D01*
X1463Y2036D02*
X1483Y2036D01*
X1516Y2036D02*
X1536Y2036D01*
X1563Y2036D02*
X1583Y2036D01*
X1616Y2036D02*
X1636Y2036D01*
X1663Y2036D02*
X1683Y2036D01*
X1716Y2036D02*
X1736Y2036D01*
X1763Y2036D02*
X1783Y2036D01*
X1816Y2036D02*
X1836Y2036D01*
X1863Y2036D02*
X1883Y2036D01*
X1916Y2036D02*
X1936Y2036D01*
X1963Y2036D02*
X1983Y2036D01*
X2016Y2036D02*
X2036Y2036D01*
X2063Y2036D02*
X2083Y2036D01*
X2116Y2036D02*
X2136Y2036D01*
X2163Y2036D02*
X2183Y2036D01*
X2216Y2036D02*
X2236Y2036D01*
X2263Y2036D02*
X2283Y2036D01*
X2316Y2036D02*
X2336Y2036D01*
X2363Y2036D02*
X2383Y2036D01*
X1016Y2035D02*
X1037Y2035D01*
X1063Y2035D02*
X1083Y2035D01*
X1116Y2035D02*
X1137Y2035D01*
X1163Y2035D02*
X1183Y2035D01*
X1216Y2035D02*
X1237Y2035D01*
X1263Y2035D02*
X1283Y2035D01*
X1316Y2035D02*
X1337Y2035D01*
X1363Y2035D02*
X1383Y2035D01*
X1416Y2035D02*
X1437Y2035D01*
X1463Y2035D02*
X1483Y2035D01*
X1516Y2035D02*
X1537Y2035D01*
X1563Y2035D02*
X1583Y2035D01*
X1616Y2035D02*
X1637Y2035D01*
X1663Y2035D02*
X1683Y2035D01*
X1716Y2035D02*
X1737Y2035D01*
X1762Y2035D02*
X1783Y2035D01*
X1816Y2035D02*
X1837Y2035D01*
X1862Y2035D02*
X1883Y2035D01*
X1916Y2035D02*
X1937Y2035D01*
X1962Y2035D02*
X1983Y2035D01*
X2016Y2035D02*
X2037Y2035D01*
X2062Y2035D02*
X2083Y2035D01*
X2116Y2035D02*
X2137Y2035D01*
X2162Y2035D02*
X2183Y2035D01*
X2216Y2035D02*
X2237Y2035D01*
X2262Y2035D02*
X2283Y2035D01*
X2316Y2035D02*
X2337Y2035D01*
X2362Y2035D02*
X2383Y2035D01*
X1017Y2034D02*
X1038Y2034D01*
X1062Y2034D02*
X1083Y2034D01*
X1117Y2034D02*
X1138Y2034D01*
X1162Y2034D02*
X1183Y2034D01*
X1217Y2034D02*
X1238Y2034D01*
X1262Y2034D02*
X1283Y2034D01*
X1317Y2034D02*
X1338Y2034D01*
X1362Y2034D02*
X1383Y2034D01*
X1417Y2034D02*
X1438Y2034D01*
X1462Y2034D02*
X1483Y2034D01*
X1517Y2034D02*
X1538Y2034D01*
X1562Y2034D02*
X1583Y2034D01*
X1617Y2034D02*
X1638Y2034D01*
X1662Y2034D02*
X1683Y2034D01*
X1717Y2034D02*
X1738Y2034D01*
X1762Y2034D02*
X1783Y2034D01*
X1817Y2034D02*
X1837Y2034D01*
X1862Y2034D02*
X1883Y2034D01*
X1917Y2034D02*
X1937Y2034D01*
X1962Y2034D02*
X1983Y2034D01*
X2017Y2034D02*
X2037Y2034D01*
X2062Y2034D02*
X2083Y2034D01*
X2116Y2034D02*
X2137Y2034D01*
X2162Y2034D02*
X2182Y2034D01*
X2216Y2034D02*
X2237Y2034D01*
X2262Y2034D02*
X2282Y2034D01*
X2316Y2034D02*
X2337Y2034D01*
X2362Y2034D02*
X2382Y2034D01*
X1017Y2033D02*
X1039Y2033D01*
X1061Y2033D02*
X1082Y2033D01*
X1117Y2033D02*
X1139Y2033D01*
X1161Y2033D02*
X1182Y2033D01*
X1217Y2033D02*
X1239Y2033D01*
X1261Y2033D02*
X1282Y2033D01*
X1317Y2033D02*
X1338Y2033D01*
X1361Y2033D02*
X1382Y2033D01*
X1417Y2033D02*
X1438Y2033D01*
X1461Y2033D02*
X1482Y2033D01*
X1517Y2033D02*
X1538Y2033D01*
X1561Y2033D02*
X1582Y2033D01*
X1617Y2033D02*
X1638Y2033D01*
X1661Y2033D02*
X1682Y2033D01*
X1717Y2033D02*
X1738Y2033D01*
X1761Y2033D02*
X1782Y2033D01*
X1817Y2033D02*
X1838Y2033D01*
X1861Y2033D02*
X1882Y2033D01*
X1917Y2033D02*
X1938Y2033D01*
X1961Y2033D02*
X1982Y2033D01*
X2017Y2033D02*
X2038Y2033D01*
X2061Y2033D02*
X2082Y2033D01*
X2117Y2033D02*
X2138Y2033D01*
X2161Y2033D02*
X2182Y2033D01*
X2217Y2033D02*
X2238Y2033D01*
X2261Y2033D02*
X2282Y2033D01*
X2317Y2033D02*
X2338Y2033D01*
X2361Y2033D02*
X2382Y2033D01*
X1017Y2032D02*
X1040Y2032D01*
X1060Y2032D02*
X1082Y2032D01*
X1117Y2032D02*
X1140Y2032D01*
X1160Y2032D02*
X1182Y2032D01*
X1217Y2032D02*
X1240Y2032D01*
X1260Y2032D02*
X1282Y2032D01*
X1317Y2032D02*
X1340Y2032D01*
X1360Y2032D02*
X1382Y2032D01*
X1417Y2032D02*
X1440Y2032D01*
X1460Y2032D02*
X1482Y2032D01*
X1517Y2032D02*
X1540Y2032D01*
X1560Y2032D02*
X1582Y2032D01*
X1617Y2032D02*
X1640Y2032D01*
X1660Y2032D02*
X1682Y2032D01*
X1717Y2032D02*
X1739Y2032D01*
X1760Y2032D02*
X1782Y2032D01*
X1817Y2032D02*
X1839Y2032D01*
X1860Y2032D02*
X1882Y2032D01*
X1917Y2032D02*
X1939Y2032D01*
X1960Y2032D02*
X1982Y2032D01*
X2017Y2032D02*
X2039Y2032D01*
X2060Y2032D02*
X2082Y2032D01*
X2117Y2032D02*
X2139Y2032D01*
X2160Y2032D02*
X2182Y2032D01*
X2217Y2032D02*
X2239Y2032D01*
X2260Y2032D02*
X2282Y2032D01*
X2317Y2032D02*
X2339Y2032D01*
X2360Y2032D02*
X2382Y2032D01*
X1018Y2031D02*
X1041Y2031D01*
X1059Y2031D02*
X1082Y2031D01*
X1118Y2031D02*
X1141Y2031D01*
X1159Y2031D02*
X1182Y2031D01*
X1218Y2031D02*
X1241Y2031D01*
X1259Y2031D02*
X1282Y2031D01*
X1318Y2031D02*
X1341Y2031D01*
X1359Y2031D02*
X1382Y2031D01*
X1418Y2031D02*
X1441Y2031D01*
X1459Y2031D02*
X1482Y2031D01*
X1518Y2031D02*
X1541Y2031D01*
X1559Y2031D02*
X1582Y2031D01*
X1618Y2031D02*
X1641Y2031D01*
X1659Y2031D02*
X1682Y2031D01*
X1718Y2031D02*
X1741Y2031D01*
X1758Y2031D02*
X1782Y2031D01*
X1818Y2031D02*
X1841Y2031D01*
X1858Y2031D02*
X1882Y2031D01*
X1918Y2031D02*
X1941Y2031D01*
X1958Y2031D02*
X1981Y2031D01*
X2018Y2031D02*
X2041Y2031D01*
X2058Y2031D02*
X2081Y2031D01*
X2118Y2031D02*
X2141Y2031D01*
X2158Y2031D02*
X2181Y2031D01*
X2217Y2031D02*
X2241Y2031D01*
X2258Y2031D02*
X2281Y2031D01*
X2317Y2031D02*
X2341Y2031D01*
X2358Y2031D02*
X2381Y2031D01*
X1018Y2030D02*
X1042Y2030D01*
X1057Y2030D02*
X1081Y2030D01*
X1118Y2030D02*
X1142Y2030D01*
X1157Y2030D02*
X1181Y2030D01*
X1218Y2030D02*
X1242Y2030D01*
X1257Y2030D02*
X1281Y2030D01*
X1318Y2030D02*
X1342Y2030D01*
X1357Y2030D02*
X1381Y2030D01*
X1418Y2030D02*
X1442Y2030D01*
X1457Y2030D02*
X1481Y2030D01*
X1518Y2030D02*
X1542Y2030D01*
X1557Y2030D02*
X1581Y2030D01*
X1618Y2030D02*
X1642Y2030D01*
X1657Y2030D02*
X1681Y2030D01*
X1718Y2030D02*
X1742Y2030D01*
X1757Y2030D02*
X1781Y2030D01*
X1818Y2030D02*
X1842Y2030D01*
X1857Y2030D02*
X1881Y2030D01*
X1918Y2030D02*
X1942Y2030D01*
X1957Y2030D02*
X1981Y2030D01*
X2018Y2030D02*
X2042Y2030D01*
X2057Y2030D02*
X2081Y2030D01*
X2118Y2030D02*
X2142Y2030D01*
X2157Y2030D02*
X2181Y2030D01*
X2218Y2030D02*
X2242Y2030D01*
X2257Y2030D02*
X2281Y2030D01*
X2318Y2030D02*
X2342Y2030D01*
X2357Y2030D02*
X2381Y2030D01*
X1019Y2029D02*
X1045Y2029D01*
X1054Y2029D02*
X1081Y2029D01*
X1119Y2029D02*
X1145Y2029D01*
X1154Y2029D02*
X1181Y2029D01*
X1219Y2029D02*
X1245Y2029D01*
X1254Y2029D02*
X1281Y2029D01*
X1319Y2029D02*
X1345Y2029D01*
X1354Y2029D02*
X1381Y2029D01*
X1419Y2029D02*
X1445Y2029D01*
X1454Y2029D02*
X1481Y2029D01*
X1518Y2029D02*
X1545Y2029D01*
X1554Y2029D02*
X1581Y2029D01*
X1618Y2029D02*
X1645Y2029D01*
X1654Y2029D02*
X1681Y2029D01*
X1718Y2029D02*
X1745Y2029D01*
X1754Y2029D02*
X1781Y2029D01*
X1818Y2029D02*
X1845Y2029D01*
X1854Y2029D02*
X1881Y2029D01*
X1918Y2029D02*
X1945Y2029D01*
X1954Y2029D02*
X1981Y2029D01*
X2018Y2029D02*
X2045Y2029D01*
X2054Y2029D02*
X2081Y2029D01*
X2118Y2029D02*
X2145Y2029D01*
X2154Y2029D02*
X2181Y2029D01*
X2218Y2029D02*
X2245Y2029D01*
X2254Y2029D02*
X2281Y2029D01*
X2318Y2029D02*
X2345Y2029D01*
X2354Y2029D02*
X2381Y2029D01*
X1019Y2028D02*
X1080Y2028D01*
X1119Y2028D02*
X1180Y2028D01*
X1219Y2028D02*
X1280Y2028D01*
X1319Y2028D02*
X1380Y2028D01*
X1419Y2028D02*
X1480Y2028D01*
X1519Y2028D02*
X1580Y2028D01*
X1619Y2028D02*
X1680Y2028D01*
X1719Y2028D02*
X1780Y2028D01*
X1819Y2028D02*
X1880Y2028D01*
X1919Y2028D02*
X1980Y2028D01*
X2019Y2028D02*
X2080Y2028D01*
X2119Y2028D02*
X2180Y2028D01*
X2219Y2028D02*
X2280Y2028D01*
X2319Y2028D02*
X2380Y2028D01*
X1020Y2027D02*
X1080Y2027D01*
X1120Y2027D02*
X1180Y2027D01*
X1220Y2027D02*
X1280Y2027D01*
X1319Y2027D02*
X1380Y2027D01*
X1419Y2027D02*
X1480Y2027D01*
X1519Y2027D02*
X1580Y2027D01*
X1619Y2027D02*
X1680Y2027D01*
X1719Y2027D02*
X1780Y2027D01*
X1819Y2027D02*
X1880Y2027D01*
X1919Y2027D02*
X1980Y2027D01*
X2019Y2027D02*
X2080Y2027D01*
X2119Y2027D02*
X2180Y2027D01*
X2219Y2027D02*
X2280Y2027D01*
X2319Y2027D02*
X2380Y2027D01*
X1020Y2026D02*
X1079Y2026D01*
X1120Y2026D02*
X1179Y2026D01*
X1220Y2026D02*
X1279Y2026D01*
X1320Y2026D02*
X1379Y2026D01*
X1420Y2026D02*
X1479Y2026D01*
X1520Y2026D02*
X1579Y2026D01*
X1620Y2026D02*
X1679Y2026D01*
X1720Y2026D02*
X1779Y2026D01*
X1820Y2026D02*
X1879Y2026D01*
X1920Y2026D02*
X1979Y2026D01*
X2020Y2026D02*
X2079Y2026D01*
X2120Y2026D02*
X2179Y2026D01*
X2220Y2026D02*
X2279Y2026D01*
X2320Y2026D02*
X2379Y2026D01*
X1021Y2025D02*
X1079Y2025D01*
X1121Y2025D02*
X1179Y2025D01*
X1221Y2025D02*
X1279Y2025D01*
X1321Y2025D02*
X1379Y2025D01*
X1421Y2025D02*
X1479Y2025D01*
X1521Y2025D02*
X1579Y2025D01*
X1621Y2025D02*
X1679Y2025D01*
X1721Y2025D02*
X1779Y2025D01*
X1821Y2025D02*
X1879Y2025D01*
X1921Y2025D02*
X1979Y2025D01*
X2020Y2025D02*
X2079Y2025D01*
X2120Y2025D02*
X2178Y2025D01*
X2220Y2025D02*
X2278Y2025D01*
X2320Y2025D02*
X2378Y2025D01*
X1021Y2024D02*
X1078Y2024D01*
X1121Y2024D02*
X1178Y2024D01*
X1221Y2024D02*
X1278Y2024D01*
X1321Y2024D02*
X1378Y2024D01*
X1421Y2024D02*
X1478Y2024D01*
X1521Y2024D02*
X1578Y2024D01*
X1621Y2024D02*
X1678Y2024D01*
X1721Y2024D02*
X1778Y2024D01*
X1821Y2024D02*
X1878Y2024D01*
X1921Y2024D02*
X1978Y2024D01*
X2021Y2024D02*
X2078Y2024D01*
X2121Y2024D02*
X2178Y2024D01*
X2221Y2024D02*
X2278Y2024D01*
X2321Y2024D02*
X2378Y2024D01*
X1022Y2023D02*
X1077Y2023D01*
X1122Y2023D02*
X1177Y2023D01*
X1222Y2023D02*
X1277Y2023D01*
X1322Y2023D02*
X1377Y2023D01*
X1422Y2023D02*
X1477Y2023D01*
X1522Y2023D02*
X1577Y2023D01*
X1622Y2023D02*
X1677Y2023D01*
X1722Y2023D02*
X1777Y2023D01*
X1822Y2023D02*
X1877Y2023D01*
X1922Y2023D02*
X1977Y2023D01*
X2022Y2023D02*
X2077Y2023D01*
X2122Y2023D02*
X2177Y2023D01*
X2222Y2023D02*
X2277Y2023D01*
X2322Y2023D02*
X2377Y2023D01*
X1023Y2022D02*
X1077Y2022D01*
X1123Y2022D02*
X1177Y2022D01*
X1223Y2022D02*
X1277Y2022D01*
X1323Y2022D02*
X1377Y2022D01*
X1423Y2022D02*
X1477Y2022D01*
X1523Y2022D02*
X1577Y2022D01*
X1623Y2022D02*
X1677Y2022D01*
X1723Y2022D02*
X1777Y2022D01*
X1823Y2022D02*
X1877Y2022D01*
X1923Y2022D02*
X1977Y2022D01*
X2023Y2022D02*
X2077Y2022D01*
X2122Y2022D02*
X2176Y2022D01*
X2222Y2022D02*
X2276Y2022D01*
X2322Y2022D02*
X2376Y2022D01*
X1023Y2021D02*
X1076Y2021D01*
X1123Y2021D02*
X1176Y2021D01*
X1223Y2021D02*
X1276Y2021D01*
X1323Y2021D02*
X1376Y2021D01*
X1423Y2021D02*
X1476Y2021D01*
X1523Y2021D02*
X1576Y2021D01*
X1623Y2021D02*
X1676Y2021D01*
X1723Y2021D02*
X1776Y2021D01*
X1823Y2021D02*
X1876Y2021D01*
X1923Y2021D02*
X1976Y2021D01*
X2023Y2021D02*
X2076Y2021D01*
X2123Y2021D02*
X2176Y2021D01*
X2223Y2021D02*
X2276Y2021D01*
X2323Y2021D02*
X2376Y2021D01*
X1024Y2020D02*
X1075Y2020D01*
X1124Y2020D02*
X1175Y2020D01*
X1224Y2020D02*
X1275Y2020D01*
X1324Y2020D02*
X1375Y2020D01*
X1424Y2020D02*
X1475Y2020D01*
X1524Y2020D02*
X1575Y2020D01*
X1624Y2020D02*
X1675Y2020D01*
X1724Y2020D02*
X1775Y2020D01*
X1824Y2020D02*
X1875Y2020D01*
X1924Y2020D02*
X1975Y2020D01*
X2024Y2020D02*
X2075Y2020D01*
X2124Y2020D02*
X2175Y2020D01*
X2224Y2020D02*
X2275Y2020D01*
X2324Y2020D02*
X2375Y2020D01*
X1025Y2019D02*
X1074Y2019D01*
X1125Y2019D02*
X1174Y2019D01*
X1225Y2019D02*
X1274Y2019D01*
X1325Y2019D02*
X1374Y2019D01*
X1425Y2019D02*
X1474Y2019D01*
X1525Y2019D02*
X1574Y2019D01*
X1625Y2019D02*
X1674Y2019D01*
X1725Y2019D02*
X1774Y2019D01*
X1825Y2019D02*
X1874Y2019D01*
X1925Y2019D02*
X1974Y2019D01*
X2025Y2019D02*
X2074Y2019D01*
X2125Y2019D02*
X2174Y2019D01*
X2225Y2019D02*
X2274Y2019D01*
X2325Y2019D02*
X2374Y2019D01*
X1026Y2018D02*
X1073Y2018D01*
X1126Y2018D02*
X1173Y2018D01*
X1226Y2018D02*
X1273Y2018D01*
X1326Y2018D02*
X1373Y2018D01*
X1426Y2018D02*
X1473Y2018D01*
X1526Y2018D02*
X1573Y2018D01*
X1626Y2018D02*
X1673Y2018D01*
X1726Y2018D02*
X1773Y2018D01*
X1826Y2018D02*
X1873Y2018D01*
X1926Y2018D02*
X1973Y2018D01*
X2026Y2018D02*
X2073Y2018D01*
X2126Y2018D02*
X2173Y2018D01*
X2226Y2018D02*
X2273Y2018D01*
X2326Y2018D02*
X2373Y2018D01*
X1027Y2017D02*
X1072Y2017D01*
X1127Y2017D02*
X1172Y2017D01*
X1227Y2017D02*
X1272Y2017D01*
X1327Y2017D02*
X1372Y2017D01*
X1427Y2017D02*
X1472Y2017D01*
X1527Y2017D02*
X1572Y2017D01*
X1627Y2017D02*
X1672Y2017D01*
X1727Y2017D02*
X1772Y2017D01*
X1827Y2017D02*
X1872Y2017D01*
X1927Y2017D02*
X1972Y2017D01*
X2027Y2017D02*
X2072Y2017D01*
X2127Y2017D02*
X2172Y2017D01*
X2227Y2017D02*
X2272Y2017D01*
X2327Y2017D02*
X2372Y2017D01*
X1029Y2016D02*
X1071Y2016D01*
X1129Y2016D02*
X1171Y2016D01*
X1229Y2016D02*
X1271Y2016D01*
X1329Y2016D02*
X1371Y2016D01*
X1429Y2016D02*
X1471Y2016D01*
X1529Y2016D02*
X1571Y2016D01*
X1629Y2016D02*
X1671Y2016D01*
X1729Y2016D02*
X1771Y2016D01*
X1829Y2016D02*
X1871Y2016D01*
X1929Y2016D02*
X1971Y2016D01*
X2029Y2016D02*
X2071Y2016D01*
X2128Y2016D02*
X2170Y2016D01*
X2228Y2016D02*
X2270Y2016D01*
X2328Y2016D02*
X2370Y2016D01*
X1030Y2015D02*
X1069Y2015D01*
X1130Y2015D02*
X1169Y2015D01*
X1230Y2015D02*
X1269Y2015D01*
X1330Y2015D02*
X1369Y2015D01*
X1430Y2015D02*
X1469Y2015D01*
X1530Y2015D02*
X1569Y2015D01*
X1630Y2015D02*
X1669Y2015D01*
X1730Y2015D02*
X1769Y2015D01*
X1830Y2015D02*
X1869Y2015D01*
X1930Y2015D02*
X1969Y2015D01*
X2030Y2015D02*
X2069Y2015D01*
X2130Y2015D02*
X2169Y2015D01*
X2230Y2015D02*
X2269Y2015D01*
X2330Y2015D02*
X2369Y2015D01*
X1032Y2014D02*
X1068Y2014D01*
X1132Y2014D02*
X1168Y2014D01*
X1232Y2014D02*
X1268Y2014D01*
X1332Y2014D02*
X1368Y2014D01*
X1432Y2014D02*
X1468Y2014D01*
X1532Y2014D02*
X1568Y2014D01*
X1632Y2014D02*
X1668Y2014D01*
X1732Y2014D02*
X1768Y2014D01*
X1832Y2014D02*
X1868Y2014D01*
X1932Y2014D02*
X1968Y2014D01*
X2031Y2014D02*
X2068Y2014D01*
X2131Y2014D02*
X2168Y2014D01*
X2231Y2014D02*
X2267Y2014D01*
X2331Y2014D02*
X2367Y2014D01*
X1033Y2013D02*
X1066Y2013D01*
X1133Y2013D02*
X1166Y2013D01*
X1233Y2013D02*
X1266Y2013D01*
X1333Y2013D02*
X1366Y2013D01*
X1433Y2013D02*
X1466Y2013D01*
X1533Y2013D02*
X1566Y2013D01*
X1633Y2013D02*
X1666Y2013D01*
X1733Y2013D02*
X1766Y2013D01*
X1833Y2013D02*
X1866Y2013D01*
X1933Y2013D02*
X1966Y2013D01*
X2033Y2013D02*
X2066Y2013D01*
X2133Y2013D02*
X2166Y2013D01*
X2233Y2013D02*
X2266Y2013D01*
X2333Y2013D02*
X2366Y2013D01*
X1035Y2012D02*
X1064Y2012D01*
X1135Y2012D02*
X1164Y2012D01*
X1235Y2012D02*
X1264Y2012D01*
X1335Y2012D02*
X1364Y2012D01*
X1435Y2012D02*
X1464Y2012D01*
X1535Y2012D02*
X1564Y2012D01*
X1635Y2012D02*
X1664Y2012D01*
X1735Y2012D02*
X1764Y2012D01*
X1835Y2012D02*
X1864Y2012D01*
X1935Y2012D02*
X1964Y2012D01*
X2035Y2012D02*
X2064Y2012D01*
X2135Y2012D02*
X2164Y2012D01*
X2235Y2012D02*
X2264Y2012D01*
X2335Y2012D02*
X2364Y2012D01*
X1038Y2011D02*
X1062Y2011D01*
X1138Y2011D02*
X1162Y2011D01*
X1238Y2011D02*
X1262Y2011D01*
X1338Y2011D02*
X1362Y2011D01*
X1438Y2011D02*
X1462Y2011D01*
X1538Y2011D02*
X1562Y2011D01*
X1638Y2011D02*
X1662Y2011D01*
X1738Y2011D02*
X1761Y2011D01*
X1838Y2011D02*
X1861Y2011D01*
X1938Y2011D02*
X1961Y2011D01*
X2038Y2011D02*
X2061Y2011D01*
X2138Y2011D02*
X2161Y2011D01*
X2238Y2011D02*
X2261Y2011D01*
X2338Y2011D02*
X2361Y2011D01*
X1041Y2010D02*
X1059Y2010D01*
X1141Y2010D02*
X1159Y2010D01*
X1241Y2010D02*
X1259Y2010D01*
X1341Y2010D02*
X1359Y2010D01*
X1441Y2010D02*
X1459Y2010D01*
X1541Y2010D02*
X1559Y2010D01*
X1641Y2010D02*
X1659Y2010D01*
X1741Y2010D02*
X1759Y2010D01*
X1841Y2010D02*
X1859Y2010D01*
X1941Y2010D02*
X1959Y2010D01*
X2040Y2010D02*
X2059Y2010D01*
X2140Y2010D02*
X2159Y2010D01*
X2240Y2010D02*
X2258Y2010D01*
X2340Y2010D02*
X2358Y2010D01*
X1045Y2009D02*
X1054Y2009D01*
X1145Y2009D02*
X1154Y2009D01*
X1245Y2009D02*
X1254Y2009D01*
X1345Y2009D02*
X1354Y2009D01*
X1445Y2009D02*
X1454Y2009D01*
X1545Y2009D02*
X1554Y2009D01*
X1645Y2009D02*
X1654Y2009D01*
X1745Y2009D02*
X1754Y2009D01*
X1845Y2009D02*
X1854Y2009D01*
X1945Y2009D02*
X1954Y2009D01*
X2045Y2009D02*
X2054Y2009D01*
X2145Y2009D02*
X2154Y2009D01*
X2245Y2009D02*
X2254Y2009D01*
X2345Y2009D02*
X2354Y2009D01*
X1045Y1778D02*
X1055Y1778D01*
X1145Y1778D02*
X1155Y1778D01*
X1245Y1778D02*
X1255Y1778D01*
X1345Y1778D02*
X1355Y1778D01*
X1445Y1778D02*
X1455Y1778D01*
X1545Y1778D02*
X1555Y1778D01*
X1645Y1778D02*
X1655Y1778D01*
X1744Y1778D02*
X1755Y1778D01*
X1844Y1778D02*
X1855Y1778D01*
X1944Y1778D02*
X1955Y1778D01*
X2044Y1778D02*
X2055Y1778D01*
X2144Y1778D02*
X2155Y1778D01*
X2244Y1778D02*
X2255Y1778D01*
X2344Y1778D02*
X2355Y1778D01*
X1040Y1777D02*
X1059Y1777D01*
X1140Y1777D02*
X1159Y1777D01*
X1240Y1777D02*
X1259Y1777D01*
X1340Y1777D02*
X1359Y1777D01*
X1440Y1777D02*
X1459Y1777D01*
X1540Y1777D02*
X1559Y1777D01*
X1640Y1777D02*
X1659Y1777D01*
X1740Y1777D02*
X1759Y1777D01*
X1840Y1777D02*
X1859Y1777D01*
X1940Y1777D02*
X1959Y1777D01*
X2040Y1777D02*
X2059Y1777D01*
X2140Y1777D02*
X2159Y1777D01*
X2240Y1777D02*
X2259Y1777D01*
X2340Y1777D02*
X2359Y1777D01*
X1038Y1776D02*
X1062Y1776D01*
X1138Y1776D02*
X1162Y1776D01*
X1238Y1776D02*
X1262Y1776D01*
X1338Y1776D02*
X1362Y1776D01*
X1438Y1776D02*
X1462Y1776D01*
X1538Y1776D02*
X1562Y1776D01*
X1638Y1776D02*
X1662Y1776D01*
X1737Y1776D02*
X1762Y1776D01*
X1837Y1776D02*
X1862Y1776D01*
X1937Y1776D02*
X1962Y1776D01*
X2037Y1776D02*
X2062Y1776D01*
X2137Y1776D02*
X2162Y1776D01*
X2237Y1776D02*
X2262Y1776D01*
X2337Y1776D02*
X2362Y1776D01*
X1035Y1775D02*
X1064Y1775D01*
X1135Y1775D02*
X1164Y1775D01*
X1235Y1775D02*
X1264Y1775D01*
X1335Y1775D02*
X1364Y1775D01*
X1435Y1775D02*
X1464Y1775D01*
X1535Y1775D02*
X1564Y1775D01*
X1635Y1775D02*
X1664Y1775D01*
X1735Y1775D02*
X1764Y1775D01*
X1835Y1775D02*
X1864Y1775D01*
X1935Y1775D02*
X1964Y1775D01*
X2035Y1775D02*
X2064Y1775D01*
X2135Y1775D02*
X2164Y1775D01*
X2235Y1775D02*
X2264Y1775D01*
X2335Y1775D02*
X2364Y1775D01*
X1033Y1774D02*
X1066Y1774D01*
X1133Y1774D02*
X1166Y1774D01*
X1233Y1774D02*
X1266Y1774D01*
X1333Y1774D02*
X1366Y1774D01*
X1433Y1774D02*
X1466Y1774D01*
X1533Y1774D02*
X1566Y1774D01*
X1633Y1774D02*
X1666Y1774D01*
X1733Y1774D02*
X1766Y1774D01*
X1833Y1774D02*
X1866Y1774D01*
X1933Y1774D02*
X1966Y1774D01*
X2033Y1774D02*
X2066Y1774D01*
X2133Y1774D02*
X2166Y1774D01*
X2233Y1774D02*
X2266Y1774D01*
X2333Y1774D02*
X2366Y1774D01*
X1032Y1773D02*
X1068Y1773D01*
X1132Y1773D02*
X1168Y1773D01*
X1232Y1773D02*
X1268Y1773D01*
X1332Y1773D02*
X1368Y1773D01*
X1432Y1773D02*
X1468Y1773D01*
X1531Y1773D02*
X1568Y1773D01*
X1631Y1773D02*
X1668Y1773D01*
X1731Y1773D02*
X1768Y1773D01*
X1831Y1773D02*
X1868Y1773D01*
X1931Y1773D02*
X1968Y1773D01*
X2031Y1773D02*
X2068Y1773D01*
X2131Y1773D02*
X2168Y1773D01*
X2231Y1773D02*
X2268Y1773D01*
X2331Y1773D02*
X2368Y1773D01*
X1030Y1772D02*
X1069Y1772D01*
X1130Y1772D02*
X1169Y1772D01*
X1230Y1772D02*
X1269Y1772D01*
X1330Y1772D02*
X1369Y1772D01*
X1430Y1772D02*
X1469Y1772D01*
X1530Y1772D02*
X1569Y1772D01*
X1630Y1772D02*
X1669Y1772D01*
X1730Y1772D02*
X1769Y1772D01*
X1830Y1772D02*
X1869Y1772D01*
X1930Y1772D02*
X1969Y1772D01*
X2030Y1772D02*
X2069Y1772D01*
X2130Y1772D02*
X2169Y1772D01*
X2230Y1772D02*
X2269Y1772D01*
X2330Y1772D02*
X2369Y1772D01*
X1029Y1771D02*
X1071Y1771D01*
X1129Y1771D02*
X1171Y1771D01*
X1229Y1771D02*
X1271Y1771D01*
X1329Y1771D02*
X1371Y1771D01*
X1429Y1771D02*
X1471Y1771D01*
X1529Y1771D02*
X1571Y1771D01*
X1628Y1771D02*
X1671Y1771D01*
X1728Y1771D02*
X1771Y1771D01*
X1828Y1771D02*
X1871Y1771D01*
X1928Y1771D02*
X1971Y1771D01*
X2028Y1771D02*
X2071Y1771D01*
X2128Y1771D02*
X2171Y1771D01*
X2228Y1771D02*
X2271Y1771D01*
X2328Y1771D02*
X2371Y1771D01*
X1027Y1770D02*
X1072Y1770D01*
X1127Y1770D02*
X1172Y1770D01*
X1227Y1770D02*
X1272Y1770D01*
X1327Y1770D02*
X1372Y1770D01*
X1427Y1770D02*
X1472Y1770D01*
X1527Y1770D02*
X1572Y1770D01*
X1627Y1770D02*
X1672Y1770D01*
X1727Y1770D02*
X1772Y1770D01*
X1827Y1770D02*
X1872Y1770D01*
X1927Y1770D02*
X1972Y1770D01*
X2027Y1770D02*
X2072Y1770D01*
X2127Y1770D02*
X2172Y1770D01*
X2227Y1770D02*
X2272Y1770D01*
X2327Y1770D02*
X2372Y1770D01*
X1026Y1769D02*
X1073Y1769D01*
X1126Y1769D02*
X1173Y1769D01*
X1226Y1769D02*
X1273Y1769D01*
X1326Y1769D02*
X1373Y1769D01*
X1426Y1769D02*
X1473Y1769D01*
X1526Y1769D02*
X1573Y1769D01*
X1626Y1769D02*
X1673Y1769D01*
X1726Y1769D02*
X1773Y1769D01*
X1826Y1769D02*
X1873Y1769D01*
X1926Y1769D02*
X1973Y1769D01*
X2026Y1769D02*
X2073Y1769D01*
X2126Y1769D02*
X2173Y1769D01*
X2226Y1769D02*
X2273Y1769D01*
X2326Y1769D02*
X2373Y1769D01*
X1025Y1768D02*
X1074Y1768D01*
X1125Y1768D02*
X1174Y1768D01*
X1225Y1768D02*
X1274Y1768D01*
X1325Y1768D02*
X1374Y1768D01*
X1425Y1768D02*
X1474Y1768D01*
X1525Y1768D02*
X1574Y1768D01*
X1625Y1768D02*
X1674Y1768D01*
X1725Y1768D02*
X1774Y1768D01*
X1825Y1768D02*
X1874Y1768D01*
X1925Y1768D02*
X1974Y1768D01*
X2025Y1768D02*
X2074Y1768D01*
X2125Y1768D02*
X2174Y1768D01*
X2225Y1768D02*
X2274Y1768D01*
X2325Y1768D02*
X2374Y1768D01*
X1024Y1767D02*
X1075Y1767D01*
X1124Y1767D02*
X1175Y1767D01*
X1224Y1767D02*
X1275Y1767D01*
X1324Y1767D02*
X1375Y1767D01*
X1424Y1767D02*
X1475Y1767D01*
X1524Y1767D02*
X1575Y1767D01*
X1624Y1767D02*
X1675Y1767D01*
X1724Y1767D02*
X1775Y1767D01*
X1824Y1767D02*
X1875Y1767D01*
X1924Y1767D02*
X1975Y1767D01*
X2024Y1767D02*
X2075Y1767D01*
X2124Y1767D02*
X2175Y1767D01*
X2224Y1767D02*
X2275Y1767D01*
X2324Y1767D02*
X2375Y1767D01*
X1023Y1766D02*
X1076Y1766D01*
X1123Y1766D02*
X1176Y1766D01*
X1223Y1766D02*
X1276Y1766D01*
X1323Y1766D02*
X1376Y1766D01*
X1423Y1766D02*
X1476Y1766D01*
X1523Y1766D02*
X1576Y1766D01*
X1623Y1766D02*
X1676Y1766D01*
X1723Y1766D02*
X1776Y1766D01*
X1823Y1766D02*
X1876Y1766D01*
X1923Y1766D02*
X1976Y1766D01*
X2023Y1766D02*
X2076Y1766D01*
X2123Y1766D02*
X2176Y1766D01*
X2223Y1766D02*
X2276Y1766D01*
X2323Y1766D02*
X2376Y1766D01*
X1023Y1765D02*
X1077Y1765D01*
X1123Y1765D02*
X1177Y1765D01*
X1223Y1765D02*
X1277Y1765D01*
X1323Y1765D02*
X1377Y1765D01*
X1423Y1765D02*
X1477Y1765D01*
X1523Y1765D02*
X1577Y1765D01*
X1623Y1765D02*
X1677Y1765D01*
X1723Y1765D02*
X1777Y1765D01*
X1822Y1765D02*
X1877Y1765D01*
X1922Y1765D02*
X1977Y1765D01*
X2022Y1765D02*
X2077Y1765D01*
X2122Y1765D02*
X2177Y1765D01*
X2222Y1765D02*
X2277Y1765D01*
X2322Y1765D02*
X2376Y1765D01*
X1022Y1764D02*
X1077Y1764D01*
X1122Y1764D02*
X1177Y1764D01*
X1222Y1764D02*
X1277Y1764D01*
X1322Y1764D02*
X1377Y1764D01*
X1422Y1764D02*
X1477Y1764D01*
X1522Y1764D02*
X1577Y1764D01*
X1622Y1764D02*
X1677Y1764D01*
X1722Y1764D02*
X1777Y1764D01*
X1822Y1764D02*
X1877Y1764D01*
X1922Y1764D02*
X1977Y1764D01*
X2022Y1764D02*
X2077Y1764D01*
X2122Y1764D02*
X2177Y1764D01*
X2222Y1764D02*
X2277Y1764D01*
X2322Y1764D02*
X2377Y1764D01*
X1021Y1763D02*
X1078Y1763D01*
X1121Y1763D02*
X1178Y1763D01*
X1221Y1763D02*
X1278Y1763D01*
X1321Y1763D02*
X1378Y1763D01*
X1421Y1763D02*
X1478Y1763D01*
X1521Y1763D02*
X1578Y1763D01*
X1621Y1763D02*
X1678Y1763D01*
X1721Y1763D02*
X1778Y1763D01*
X1821Y1763D02*
X1878Y1763D01*
X1921Y1763D02*
X1978Y1763D01*
X2021Y1763D02*
X2078Y1763D01*
X2121Y1763D02*
X2178Y1763D01*
X2221Y1763D02*
X2278Y1763D01*
X2321Y1763D02*
X2378Y1763D01*
X1021Y1762D02*
X1079Y1762D01*
X1121Y1762D02*
X1179Y1762D01*
X1221Y1762D02*
X1279Y1762D01*
X1321Y1762D02*
X1379Y1762D01*
X1421Y1762D02*
X1479Y1762D01*
X1521Y1762D02*
X1579Y1762D01*
X1621Y1762D02*
X1679Y1762D01*
X1721Y1762D02*
X1779Y1762D01*
X1820Y1762D02*
X1879Y1762D01*
X1920Y1762D02*
X1979Y1762D01*
X2020Y1762D02*
X2079Y1762D01*
X2120Y1762D02*
X2179Y1762D01*
X2220Y1762D02*
X2279Y1762D01*
X2320Y1762D02*
X2378Y1762D01*
X1020Y1761D02*
X1079Y1761D01*
X1120Y1761D02*
X1179Y1761D01*
X1220Y1761D02*
X1279Y1761D01*
X1320Y1761D02*
X1379Y1761D01*
X1420Y1761D02*
X1479Y1761D01*
X1520Y1761D02*
X1579Y1761D01*
X1620Y1761D02*
X1679Y1761D01*
X1720Y1761D02*
X1779Y1761D01*
X1820Y1761D02*
X1879Y1761D01*
X1920Y1761D02*
X1979Y1761D01*
X2020Y1761D02*
X2079Y1761D01*
X2120Y1761D02*
X2179Y1761D01*
X2220Y1761D02*
X2279Y1761D01*
X2320Y1761D02*
X2379Y1761D01*
X1020Y1760D02*
X1080Y1760D01*
X1120Y1760D02*
X1180Y1760D01*
X1219Y1760D02*
X1280Y1760D01*
X1319Y1760D02*
X1380Y1760D01*
X1419Y1760D02*
X1480Y1760D01*
X1519Y1760D02*
X1580Y1760D01*
X1619Y1760D02*
X1680Y1760D01*
X1719Y1760D02*
X1780Y1760D01*
X1819Y1760D02*
X1880Y1760D01*
X1919Y1760D02*
X1980Y1760D01*
X2019Y1760D02*
X2080Y1760D01*
X2119Y1760D02*
X2180Y1760D01*
X2219Y1760D02*
X2280Y1760D01*
X2319Y1760D02*
X2380Y1760D01*
X1019Y1759D02*
X1080Y1759D01*
X1119Y1759D02*
X1180Y1759D01*
X1219Y1759D02*
X1280Y1759D01*
X1319Y1759D02*
X1380Y1759D01*
X1419Y1759D02*
X1480Y1759D01*
X1519Y1759D02*
X1580Y1759D01*
X1619Y1759D02*
X1680Y1759D01*
X1719Y1759D02*
X1780Y1759D01*
X1819Y1759D02*
X1880Y1759D01*
X1919Y1759D02*
X1980Y1759D01*
X2019Y1759D02*
X2080Y1759D01*
X2119Y1759D02*
X2180Y1759D01*
X2219Y1759D02*
X2280Y1759D01*
X2319Y1759D02*
X2380Y1759D01*
X1019Y1758D02*
X1045Y1758D01*
X1055Y1758D02*
X1081Y1758D01*
X1119Y1758D02*
X1145Y1758D01*
X1155Y1758D02*
X1181Y1758D01*
X1219Y1758D02*
X1245Y1758D01*
X1255Y1758D02*
X1281Y1758D01*
X1319Y1758D02*
X1345Y1758D01*
X1355Y1758D02*
X1381Y1758D01*
X1418Y1758D02*
X1445Y1758D01*
X1455Y1758D02*
X1481Y1758D01*
X1518Y1758D02*
X1545Y1758D01*
X1555Y1758D02*
X1581Y1758D01*
X1618Y1758D02*
X1645Y1758D01*
X1655Y1758D02*
X1681Y1758D01*
X1718Y1758D02*
X1745Y1758D01*
X1754Y1758D02*
X1781Y1758D01*
X1818Y1758D02*
X1845Y1758D01*
X1854Y1758D02*
X1881Y1758D01*
X1918Y1758D02*
X1945Y1758D01*
X1954Y1758D02*
X1981Y1758D01*
X2018Y1758D02*
X2045Y1758D01*
X2054Y1758D02*
X2081Y1758D01*
X2118Y1758D02*
X2145Y1758D01*
X2154Y1758D02*
X2181Y1758D01*
X2218Y1758D02*
X2245Y1758D01*
X2254Y1758D02*
X2281Y1758D01*
X2318Y1758D02*
X2345Y1758D01*
X2354Y1758D02*
X2381Y1758D01*
X1018Y1757D02*
X1042Y1757D01*
X1057Y1757D02*
X1081Y1757D01*
X1118Y1757D02*
X1142Y1757D01*
X1157Y1757D02*
X1181Y1757D01*
X1218Y1757D02*
X1242Y1757D01*
X1257Y1757D02*
X1281Y1757D01*
X1318Y1757D02*
X1342Y1757D01*
X1357Y1757D02*
X1381Y1757D01*
X1418Y1757D02*
X1442Y1757D01*
X1457Y1757D02*
X1481Y1757D01*
X1518Y1757D02*
X1542Y1757D01*
X1557Y1757D02*
X1581Y1757D01*
X1618Y1757D02*
X1642Y1757D01*
X1657Y1757D02*
X1681Y1757D01*
X1718Y1757D02*
X1742Y1757D01*
X1757Y1757D02*
X1781Y1757D01*
X1818Y1757D02*
X1842Y1757D01*
X1857Y1757D02*
X1881Y1757D01*
X1918Y1757D02*
X1942Y1757D01*
X1957Y1757D02*
X1981Y1757D01*
X2018Y1757D02*
X2042Y1757D01*
X2057Y1757D02*
X2081Y1757D01*
X2118Y1757D02*
X2142Y1757D01*
X2157Y1757D02*
X2181Y1757D01*
X2218Y1757D02*
X2242Y1757D01*
X2257Y1757D02*
X2281Y1757D01*
X2318Y1757D02*
X2342Y1757D01*
X2357Y1757D02*
X2381Y1757D01*
X1018Y1756D02*
X1041Y1756D01*
X1059Y1756D02*
X1082Y1756D01*
X1118Y1756D02*
X1141Y1756D01*
X1159Y1756D02*
X1182Y1756D01*
X1218Y1756D02*
X1241Y1756D01*
X1259Y1756D02*
X1282Y1756D01*
X1318Y1756D02*
X1341Y1756D01*
X1359Y1756D02*
X1382Y1756D01*
X1418Y1756D02*
X1441Y1756D01*
X1459Y1756D02*
X1482Y1756D01*
X1518Y1756D02*
X1541Y1756D01*
X1559Y1756D02*
X1582Y1756D01*
X1618Y1756D02*
X1641Y1756D01*
X1659Y1756D02*
X1682Y1756D01*
X1718Y1756D02*
X1741Y1756D01*
X1759Y1756D02*
X1782Y1756D01*
X1818Y1756D02*
X1841Y1756D01*
X1859Y1756D02*
X1882Y1756D01*
X1918Y1756D02*
X1941Y1756D01*
X1959Y1756D02*
X1982Y1756D01*
X2018Y1756D02*
X2040Y1756D01*
X2059Y1756D02*
X2081Y1756D01*
X2118Y1756D02*
X2140Y1756D01*
X2158Y1756D02*
X2181Y1756D01*
X2217Y1756D02*
X2240Y1756D01*
X2258Y1756D02*
X2281Y1756D01*
X2317Y1756D02*
X2340Y1756D01*
X2358Y1756D02*
X2381Y1756D01*
X1017Y1755D02*
X1040Y1755D01*
X1060Y1755D02*
X1082Y1755D01*
X1117Y1755D02*
X1140Y1755D01*
X1160Y1755D02*
X1182Y1755D01*
X1217Y1755D02*
X1240Y1755D01*
X1260Y1755D02*
X1282Y1755D01*
X1317Y1755D02*
X1339Y1755D01*
X1360Y1755D02*
X1382Y1755D01*
X1417Y1755D02*
X1439Y1755D01*
X1460Y1755D02*
X1482Y1755D01*
X1517Y1755D02*
X1539Y1755D01*
X1560Y1755D02*
X1582Y1755D01*
X1617Y1755D02*
X1639Y1755D01*
X1660Y1755D02*
X1682Y1755D01*
X1717Y1755D02*
X1739Y1755D01*
X1760Y1755D02*
X1782Y1755D01*
X1817Y1755D02*
X1839Y1755D01*
X1860Y1755D02*
X1882Y1755D01*
X1917Y1755D02*
X1939Y1755D01*
X1960Y1755D02*
X1982Y1755D01*
X2017Y1755D02*
X2039Y1755D01*
X2060Y1755D02*
X2082Y1755D01*
X2117Y1755D02*
X2139Y1755D01*
X2160Y1755D02*
X2182Y1755D01*
X2217Y1755D02*
X2239Y1755D01*
X2260Y1755D02*
X2282Y1755D01*
X2317Y1755D02*
X2339Y1755D01*
X2360Y1755D02*
X2382Y1755D01*
X1017Y1754D02*
X1038Y1754D01*
X1061Y1754D02*
X1082Y1754D01*
X1117Y1754D02*
X1138Y1754D01*
X1161Y1754D02*
X1182Y1754D01*
X1217Y1754D02*
X1238Y1754D01*
X1261Y1754D02*
X1282Y1754D01*
X1317Y1754D02*
X1338Y1754D01*
X1361Y1754D02*
X1382Y1754D01*
X1417Y1754D02*
X1438Y1754D01*
X1461Y1754D02*
X1482Y1754D01*
X1517Y1754D02*
X1538Y1754D01*
X1561Y1754D02*
X1582Y1754D01*
X1617Y1754D02*
X1638Y1754D01*
X1661Y1754D02*
X1682Y1754D01*
X1717Y1754D02*
X1738Y1754D01*
X1761Y1754D02*
X1782Y1754D01*
X1817Y1754D02*
X1838Y1754D01*
X1861Y1754D02*
X1882Y1754D01*
X1917Y1754D02*
X1938Y1754D01*
X1961Y1754D02*
X1982Y1754D01*
X2017Y1754D02*
X2038Y1754D01*
X2061Y1754D02*
X2082Y1754D01*
X2117Y1754D02*
X2138Y1754D01*
X2161Y1754D02*
X2182Y1754D01*
X2217Y1754D02*
X2238Y1754D01*
X2261Y1754D02*
X2282Y1754D01*
X2317Y1754D02*
X2338Y1754D01*
X2361Y1754D02*
X2382Y1754D01*
X1017Y1753D02*
X1038Y1753D01*
X1062Y1753D02*
X1083Y1753D01*
X1117Y1753D02*
X1138Y1753D01*
X1162Y1753D02*
X1183Y1753D01*
X1217Y1753D02*
X1238Y1753D01*
X1262Y1753D02*
X1283Y1753D01*
X1317Y1753D02*
X1338Y1753D01*
X1362Y1753D02*
X1383Y1753D01*
X1417Y1753D02*
X1437Y1753D01*
X1462Y1753D02*
X1483Y1753D01*
X1517Y1753D02*
X1537Y1753D01*
X1562Y1753D02*
X1583Y1753D01*
X1617Y1753D02*
X1637Y1753D01*
X1662Y1753D02*
X1683Y1753D01*
X1717Y1753D02*
X1737Y1753D01*
X1762Y1753D02*
X1783Y1753D01*
X1817Y1753D02*
X1837Y1753D01*
X1862Y1753D02*
X1883Y1753D01*
X1917Y1753D02*
X1937Y1753D01*
X1962Y1753D02*
X1983Y1753D01*
X2016Y1753D02*
X2037Y1753D01*
X2062Y1753D02*
X2083Y1753D01*
X2116Y1753D02*
X2137Y1753D01*
X2162Y1753D02*
X2182Y1753D01*
X2216Y1753D02*
X2237Y1753D01*
X2262Y1753D02*
X2282Y1753D01*
X2316Y1753D02*
X2337Y1753D01*
X2362Y1753D02*
X2382Y1753D01*
X1016Y1752D02*
X1037Y1752D01*
X1063Y1752D02*
X1083Y1752D01*
X1116Y1752D02*
X1137Y1752D01*
X1163Y1752D02*
X1183Y1752D01*
X1216Y1752D02*
X1237Y1752D01*
X1263Y1752D02*
X1283Y1752D01*
X1316Y1752D02*
X1337Y1752D01*
X1363Y1752D02*
X1383Y1752D01*
X1416Y1752D02*
X1437Y1752D01*
X1463Y1752D02*
X1483Y1752D01*
X1516Y1752D02*
X1537Y1752D01*
X1563Y1752D02*
X1583Y1752D01*
X1616Y1752D02*
X1637Y1752D01*
X1663Y1752D02*
X1683Y1752D01*
X1716Y1752D02*
X1737Y1752D01*
X1763Y1752D02*
X1783Y1752D01*
X1816Y1752D02*
X1837Y1752D01*
X1863Y1752D02*
X1883Y1752D01*
X1916Y1752D02*
X1937Y1752D01*
X1963Y1752D02*
X1983Y1752D01*
X2016Y1752D02*
X2037Y1752D01*
X2062Y1752D02*
X2083Y1752D01*
X2116Y1752D02*
X2136Y1752D01*
X2162Y1752D02*
X2183Y1752D01*
X2216Y1752D02*
X2236Y1752D01*
X2262Y1752D02*
X2283Y1752D01*
X2316Y1752D02*
X2336Y1752D01*
X2362Y1752D02*
X2383Y1752D01*
X1016Y1751D02*
X1036Y1751D01*
X1063Y1751D02*
X1083Y1751D01*
X1116Y1751D02*
X1136Y1751D01*
X1163Y1751D02*
X1183Y1751D01*
X1216Y1751D02*
X1236Y1751D01*
X1263Y1751D02*
X1283Y1751D01*
X1316Y1751D02*
X1336Y1751D01*
X1363Y1751D02*
X1383Y1751D01*
X1416Y1751D02*
X1436Y1751D01*
X1463Y1751D02*
X1483Y1751D01*
X1516Y1751D02*
X1536Y1751D01*
X1563Y1751D02*
X1583Y1751D01*
X1616Y1751D02*
X1636Y1751D01*
X1663Y1751D02*
X1683Y1751D01*
X1716Y1751D02*
X1736Y1751D01*
X1763Y1751D02*
X1783Y1751D01*
X1816Y1751D02*
X1836Y1751D01*
X1863Y1751D02*
X1883Y1751D01*
X1916Y1751D02*
X1936Y1751D01*
X1963Y1751D02*
X1983Y1751D01*
X2016Y1751D02*
X2036Y1751D01*
X2063Y1751D02*
X2083Y1751D01*
X2116Y1751D02*
X2136Y1751D01*
X2163Y1751D02*
X2183Y1751D01*
X2216Y1751D02*
X2236Y1751D01*
X2263Y1751D02*
X2283Y1751D01*
X2316Y1751D02*
X2336Y1751D01*
X2363Y1751D02*
X2383Y1751D01*
X1016Y1750D02*
X1036Y1750D01*
X1064Y1750D02*
X1084Y1750D01*
X1116Y1750D02*
X1136Y1750D01*
X1164Y1750D02*
X1183Y1750D01*
X1216Y1750D02*
X1235Y1750D01*
X1264Y1750D02*
X1283Y1750D01*
X1316Y1750D02*
X1335Y1750D01*
X1364Y1750D02*
X1383Y1750D01*
X1416Y1750D02*
X1435Y1750D01*
X1464Y1750D02*
X1483Y1750D01*
X1516Y1750D02*
X1535Y1750D01*
X1564Y1750D02*
X1583Y1750D01*
X1616Y1750D02*
X1635Y1750D01*
X1664Y1750D02*
X1683Y1750D01*
X1716Y1750D02*
X1735Y1750D01*
X1764Y1750D02*
X1783Y1750D01*
X1816Y1750D02*
X1835Y1750D01*
X1864Y1750D02*
X1883Y1750D01*
X1916Y1750D02*
X1935Y1750D01*
X1964Y1750D02*
X1983Y1750D01*
X2016Y1750D02*
X2035Y1750D01*
X2064Y1750D02*
X2083Y1750D01*
X2116Y1750D02*
X2135Y1750D01*
X2164Y1750D02*
X2183Y1750D01*
X2216Y1750D02*
X2235Y1750D01*
X2264Y1750D02*
X2283Y1750D01*
X2316Y1750D02*
X2335Y1750D01*
X2364Y1750D02*
X2383Y1750D01*
X1016Y1749D02*
X1035Y1749D01*
X1064Y1749D02*
X1084Y1749D01*
X1116Y1749D02*
X1135Y1749D01*
X1164Y1749D02*
X1184Y1749D01*
X1216Y1749D02*
X1235Y1749D01*
X1264Y1749D02*
X1284Y1749D01*
X1316Y1749D02*
X1335Y1749D01*
X1364Y1749D02*
X1384Y1749D01*
X1416Y1749D02*
X1435Y1749D01*
X1464Y1749D02*
X1484Y1749D01*
X1516Y1749D02*
X1535Y1749D01*
X1564Y1749D02*
X1584Y1749D01*
X1616Y1749D02*
X1635Y1749D01*
X1664Y1749D02*
X1684Y1749D01*
X1716Y1749D02*
X1735Y1749D01*
X1764Y1749D02*
X1784Y1749D01*
X1816Y1749D02*
X1835Y1749D01*
X1864Y1749D02*
X1884Y1749D01*
X1916Y1749D02*
X1935Y1749D01*
X1964Y1749D02*
X1983Y1749D01*
X2016Y1749D02*
X2035Y1749D01*
X2064Y1749D02*
X2083Y1749D01*
X2116Y1749D02*
X2135Y1749D01*
X2164Y1749D02*
X2183Y1749D01*
X2216Y1749D02*
X2235Y1749D01*
X2264Y1749D02*
X2283Y1749D01*
X2315Y1749D02*
X2335Y1749D01*
X2364Y1749D02*
X2383Y1749D01*
X1016Y1748D02*
X1035Y1748D01*
X1065Y1748D02*
X1084Y1748D01*
X1116Y1748D02*
X1135Y1748D01*
X1165Y1748D02*
X1184Y1748D01*
X1216Y1748D02*
X1235Y1748D01*
X1265Y1748D02*
X1284Y1748D01*
X1316Y1748D02*
X1335Y1748D01*
X1365Y1748D02*
X1384Y1748D01*
X1416Y1748D02*
X1435Y1748D01*
X1465Y1748D02*
X1484Y1748D01*
X1515Y1748D02*
X1535Y1748D01*
X1565Y1748D02*
X1584Y1748D01*
X1615Y1748D02*
X1635Y1748D01*
X1665Y1748D02*
X1684Y1748D01*
X1715Y1748D02*
X1735Y1748D01*
X1764Y1748D02*
X1784Y1748D01*
X1815Y1748D02*
X1835Y1748D01*
X1864Y1748D02*
X1884Y1748D01*
X1915Y1748D02*
X1935Y1748D01*
X1964Y1748D02*
X1984Y1748D01*
X2015Y1748D02*
X2035Y1748D01*
X2064Y1748D02*
X2084Y1748D01*
X2115Y1748D02*
X2135Y1748D01*
X2164Y1748D02*
X2184Y1748D01*
X2215Y1748D02*
X2235Y1748D01*
X2264Y1748D02*
X2284Y1748D01*
X2315Y1748D02*
X2335Y1748D01*
X2364Y1748D02*
X2384Y1748D01*
X1015Y1747D02*
X1035Y1747D01*
X1065Y1747D02*
X1084Y1747D01*
X1115Y1747D02*
X1135Y1747D01*
X1165Y1747D02*
X1184Y1747D01*
X1215Y1747D02*
X1234Y1747D01*
X1265Y1747D02*
X1284Y1747D01*
X1315Y1747D02*
X1334Y1747D01*
X1365Y1747D02*
X1384Y1747D01*
X1415Y1747D02*
X1434Y1747D01*
X1465Y1747D02*
X1484Y1747D01*
X1515Y1747D02*
X1534Y1747D01*
X1565Y1747D02*
X1584Y1747D01*
X1615Y1747D02*
X1634Y1747D01*
X1665Y1747D02*
X1684Y1747D01*
X1715Y1747D02*
X1734Y1747D01*
X1765Y1747D02*
X1784Y1747D01*
X1815Y1747D02*
X1834Y1747D01*
X1865Y1747D02*
X1884Y1747D01*
X1915Y1747D02*
X1934Y1747D01*
X1965Y1747D02*
X1984Y1747D01*
X2015Y1747D02*
X2034Y1747D01*
X2065Y1747D02*
X2084Y1747D01*
X2115Y1747D02*
X2134Y1747D01*
X2165Y1747D02*
X2184Y1747D01*
X2215Y1747D02*
X2234Y1747D01*
X2265Y1747D02*
X2284Y1747D01*
X2315Y1747D02*
X2334Y1747D01*
X2365Y1747D02*
X2384Y1747D01*
X1015Y1746D02*
X1034Y1746D01*
X1065Y1746D02*
X1084Y1746D01*
X1115Y1746D02*
X1134Y1746D01*
X1165Y1746D02*
X1184Y1746D01*
X1215Y1746D02*
X1234Y1746D01*
X1265Y1746D02*
X1284Y1746D01*
X1315Y1746D02*
X1334Y1746D01*
X1365Y1746D02*
X1384Y1746D01*
X1415Y1746D02*
X1434Y1746D01*
X1465Y1746D02*
X1484Y1746D01*
X1515Y1746D02*
X1534Y1746D01*
X1565Y1746D02*
X1584Y1746D01*
X1615Y1746D02*
X1634Y1746D01*
X1665Y1746D02*
X1684Y1746D01*
X1715Y1746D02*
X1734Y1746D01*
X1765Y1746D02*
X1784Y1746D01*
X1815Y1746D02*
X1834Y1746D01*
X1865Y1746D02*
X1884Y1746D01*
X1915Y1746D02*
X1934Y1746D01*
X1965Y1746D02*
X1984Y1746D01*
X2015Y1746D02*
X2034Y1746D01*
X2065Y1746D02*
X2084Y1746D01*
X2115Y1746D02*
X2134Y1746D01*
X2165Y1746D02*
X2184Y1746D01*
X2215Y1746D02*
X2234Y1746D01*
X2265Y1746D02*
X2284Y1746D01*
X2315Y1746D02*
X2334Y1746D01*
X2365Y1746D02*
X2384Y1746D01*
X1015Y1745D02*
X1034Y1745D01*
X1065Y1745D02*
X1084Y1745D01*
X1115Y1745D02*
X1134Y1745D01*
X1165Y1745D02*
X1184Y1745D01*
X1215Y1745D02*
X1234Y1745D01*
X1265Y1745D02*
X1284Y1745D01*
X1315Y1745D02*
X1334Y1745D01*
X1365Y1745D02*
X1384Y1745D01*
X1415Y1745D02*
X1434Y1745D01*
X1465Y1745D02*
X1484Y1745D01*
X1515Y1745D02*
X1534Y1745D01*
X1565Y1745D02*
X1584Y1745D01*
X1615Y1745D02*
X1634Y1745D01*
X1665Y1745D02*
X1684Y1745D01*
X1715Y1745D02*
X1734Y1745D01*
X1765Y1745D02*
X1784Y1745D01*
X1815Y1745D02*
X1834Y1745D01*
X1865Y1745D02*
X1884Y1745D01*
X1915Y1745D02*
X1934Y1745D01*
X1965Y1745D02*
X1984Y1745D01*
X2015Y1745D02*
X2034Y1745D01*
X2065Y1745D02*
X2084Y1745D01*
X2115Y1745D02*
X2134Y1745D01*
X2165Y1745D02*
X2184Y1745D01*
X2215Y1745D02*
X2234Y1745D01*
X2265Y1745D02*
X2284Y1745D01*
X2315Y1745D02*
X2334Y1745D01*
X2365Y1745D02*
X2384Y1745D01*
X1015Y1744D02*
X1034Y1744D01*
X1065Y1744D02*
X1084Y1744D01*
X1115Y1744D02*
X1134Y1744D01*
X1165Y1744D02*
X1184Y1744D01*
X1215Y1744D02*
X1234Y1744D01*
X1265Y1744D02*
X1284Y1744D01*
X1315Y1744D02*
X1334Y1744D01*
X1365Y1744D02*
X1384Y1744D01*
X1415Y1744D02*
X1434Y1744D01*
X1465Y1744D02*
X1484Y1744D01*
X1515Y1744D02*
X1534Y1744D01*
X1565Y1744D02*
X1584Y1744D01*
X1615Y1744D02*
X1634Y1744D01*
X1665Y1744D02*
X1684Y1744D01*
X1715Y1744D02*
X1734Y1744D01*
X1765Y1744D02*
X1784Y1744D01*
X1815Y1744D02*
X1834Y1744D01*
X1865Y1744D02*
X1884Y1744D01*
X1915Y1744D02*
X1934Y1744D01*
X1965Y1744D02*
X1984Y1744D01*
X2015Y1744D02*
X2034Y1744D01*
X2065Y1744D02*
X2084Y1744D01*
X2115Y1744D02*
X2134Y1744D01*
X2165Y1744D02*
X2184Y1744D01*
X2215Y1744D02*
X2234Y1744D01*
X2265Y1744D02*
X2284Y1744D01*
X2315Y1744D02*
X2334Y1744D01*
X2365Y1744D02*
X2384Y1744D01*
X1015Y1743D02*
X1034Y1743D01*
X1065Y1743D02*
X1084Y1743D01*
X1115Y1743D02*
X1134Y1743D01*
X1165Y1743D02*
X1184Y1743D01*
X1215Y1743D02*
X1234Y1743D01*
X1265Y1743D02*
X1284Y1743D01*
X1315Y1743D02*
X1334Y1743D01*
X1365Y1743D02*
X1384Y1743D01*
X1415Y1743D02*
X1434Y1743D01*
X1465Y1743D02*
X1484Y1743D01*
X1515Y1743D02*
X1534Y1743D01*
X1565Y1743D02*
X1584Y1743D01*
X1615Y1743D02*
X1634Y1743D01*
X1665Y1743D02*
X1684Y1743D01*
X1715Y1743D02*
X1734Y1743D01*
X1765Y1743D02*
X1784Y1743D01*
X1815Y1743D02*
X1834Y1743D01*
X1865Y1743D02*
X1884Y1743D01*
X1915Y1743D02*
X1934Y1743D01*
X1965Y1743D02*
X1984Y1743D01*
X2015Y1743D02*
X2034Y1743D01*
X2065Y1743D02*
X2084Y1743D01*
X2115Y1743D02*
X2134Y1743D01*
X2165Y1743D02*
X2184Y1743D01*
X2215Y1743D02*
X2234Y1743D01*
X2265Y1743D02*
X2284Y1743D01*
X2315Y1743D02*
X2334Y1743D01*
X2365Y1743D02*
X2384Y1743D01*
X1015Y1742D02*
X1034Y1742D01*
X1065Y1742D02*
X1084Y1742D01*
X1115Y1742D02*
X1134Y1742D01*
X1165Y1742D02*
X1184Y1742D01*
X1215Y1742D02*
X1234Y1742D01*
X1265Y1742D02*
X1284Y1742D01*
X1315Y1742D02*
X1334Y1742D01*
X1365Y1742D02*
X1384Y1742D01*
X1415Y1742D02*
X1434Y1742D01*
X1465Y1742D02*
X1484Y1742D01*
X1515Y1742D02*
X1534Y1742D01*
X1565Y1742D02*
X1584Y1742D01*
X1615Y1742D02*
X1634Y1742D01*
X1665Y1742D02*
X1684Y1742D01*
X1715Y1742D02*
X1734Y1742D01*
X1765Y1742D02*
X1784Y1742D01*
X1815Y1742D02*
X1834Y1742D01*
X1865Y1742D02*
X1884Y1742D01*
X1915Y1742D02*
X1934Y1742D01*
X1965Y1742D02*
X1984Y1742D01*
X2015Y1742D02*
X2034Y1742D01*
X2065Y1742D02*
X2084Y1742D01*
X2115Y1742D02*
X2134Y1742D01*
X2165Y1742D02*
X2184Y1742D01*
X2215Y1742D02*
X2234Y1742D01*
X2265Y1742D02*
X2284Y1742D01*
X2315Y1742D02*
X2334Y1742D01*
X2365Y1742D02*
X2384Y1742D01*
X1015Y1741D02*
X1034Y1741D01*
X1065Y1741D02*
X1084Y1741D01*
X1115Y1741D02*
X1134Y1741D01*
X1165Y1741D02*
X1184Y1741D01*
X1215Y1741D02*
X1234Y1741D01*
X1265Y1741D02*
X1284Y1741D01*
X1315Y1741D02*
X1334Y1741D01*
X1365Y1741D02*
X1384Y1741D01*
X1415Y1741D02*
X1434Y1741D01*
X1465Y1741D02*
X1484Y1741D01*
X1515Y1741D02*
X1534Y1741D01*
X1565Y1741D02*
X1584Y1741D01*
X1615Y1741D02*
X1634Y1741D01*
X1665Y1741D02*
X1684Y1741D01*
X1715Y1741D02*
X1734Y1741D01*
X1765Y1741D02*
X1784Y1741D01*
X1815Y1741D02*
X1834Y1741D01*
X1865Y1741D02*
X1884Y1741D01*
X1915Y1741D02*
X1934Y1741D01*
X1965Y1741D02*
X1984Y1741D01*
X2015Y1741D02*
X2034Y1741D01*
X2065Y1741D02*
X2084Y1741D01*
X2115Y1741D02*
X2134Y1741D01*
X2165Y1741D02*
X2184Y1741D01*
X2215Y1741D02*
X2234Y1741D01*
X2265Y1741D02*
X2284Y1741D01*
X2315Y1741D02*
X2334Y1741D01*
X2365Y1741D02*
X2384Y1741D01*
X1015Y1740D02*
X1035Y1740D01*
X1065Y1740D02*
X1084Y1740D01*
X1115Y1740D02*
X1135Y1740D01*
X1165Y1740D02*
X1184Y1740D01*
X1215Y1740D02*
X1235Y1740D01*
X1265Y1740D02*
X1284Y1740D01*
X1315Y1740D02*
X1334Y1740D01*
X1365Y1740D02*
X1384Y1740D01*
X1415Y1740D02*
X1434Y1740D01*
X1465Y1740D02*
X1484Y1740D01*
X1515Y1740D02*
X1534Y1740D01*
X1565Y1740D02*
X1584Y1740D01*
X1615Y1740D02*
X1634Y1740D01*
X1665Y1740D02*
X1684Y1740D01*
X1715Y1740D02*
X1734Y1740D01*
X1765Y1740D02*
X1784Y1740D01*
X1815Y1740D02*
X1834Y1740D01*
X1865Y1740D02*
X1884Y1740D01*
X1915Y1740D02*
X1934Y1740D01*
X1965Y1740D02*
X1984Y1740D01*
X2015Y1740D02*
X2034Y1740D01*
X2065Y1740D02*
X2084Y1740D01*
X2115Y1740D02*
X2134Y1740D01*
X2165Y1740D02*
X2184Y1740D01*
X2215Y1740D02*
X2234Y1740D01*
X2265Y1740D02*
X2284Y1740D01*
X2315Y1740D02*
X2334Y1740D01*
X2365Y1740D02*
X2384Y1740D01*
X1016Y1739D02*
X1035Y1739D01*
X1065Y1739D02*
X1084Y1739D01*
X1116Y1739D02*
X1135Y1739D01*
X1165Y1739D02*
X1184Y1739D01*
X1216Y1739D02*
X1235Y1739D01*
X1265Y1739D02*
X1284Y1739D01*
X1316Y1739D02*
X1335Y1739D01*
X1365Y1739D02*
X1384Y1739D01*
X1416Y1739D02*
X1435Y1739D01*
X1465Y1739D02*
X1484Y1739D01*
X1516Y1739D02*
X1535Y1739D01*
X1564Y1739D02*
X1584Y1739D01*
X1615Y1739D02*
X1635Y1739D01*
X1664Y1739D02*
X1684Y1739D01*
X1715Y1739D02*
X1735Y1739D01*
X1764Y1739D02*
X1784Y1739D01*
X1815Y1739D02*
X1835Y1739D01*
X1864Y1739D02*
X1884Y1739D01*
X1915Y1739D02*
X1935Y1739D01*
X1964Y1739D02*
X1984Y1739D01*
X2015Y1739D02*
X2035Y1739D01*
X2064Y1739D02*
X2084Y1739D01*
X2115Y1739D02*
X2135Y1739D01*
X2164Y1739D02*
X2184Y1739D01*
X2215Y1739D02*
X2235Y1739D01*
X2264Y1739D02*
X2284Y1739D01*
X2315Y1739D02*
X2335Y1739D01*
X2364Y1739D02*
X2384Y1739D01*
X1016Y1738D02*
X1035Y1738D01*
X1064Y1738D02*
X1084Y1738D01*
X1116Y1738D02*
X1135Y1738D01*
X1164Y1738D02*
X1184Y1738D01*
X1216Y1738D02*
X1235Y1738D01*
X1264Y1738D02*
X1284Y1738D01*
X1316Y1738D02*
X1335Y1738D01*
X1364Y1738D02*
X1384Y1738D01*
X1416Y1738D02*
X1435Y1738D01*
X1464Y1738D02*
X1484Y1738D01*
X1516Y1738D02*
X1535Y1738D01*
X1564Y1738D02*
X1584Y1738D01*
X1616Y1738D02*
X1635Y1738D01*
X1664Y1738D02*
X1684Y1738D01*
X1716Y1738D02*
X1735Y1738D01*
X1764Y1738D02*
X1783Y1738D01*
X1816Y1738D02*
X1835Y1738D01*
X1864Y1738D02*
X1883Y1738D01*
X1916Y1738D02*
X1935Y1738D01*
X1964Y1738D02*
X1983Y1738D01*
X2016Y1738D02*
X2035Y1738D01*
X2064Y1738D02*
X2083Y1738D01*
X2116Y1738D02*
X2135Y1738D01*
X2164Y1738D02*
X2183Y1738D01*
X2216Y1738D02*
X2235Y1738D01*
X2264Y1738D02*
X2283Y1738D01*
X2316Y1738D02*
X2335Y1738D01*
X2364Y1738D02*
X2383Y1738D01*
X1016Y1737D02*
X1036Y1737D01*
X1064Y1737D02*
X1083Y1737D01*
X1116Y1737D02*
X1136Y1737D01*
X1164Y1737D02*
X1183Y1737D01*
X1216Y1737D02*
X1236Y1737D01*
X1264Y1737D02*
X1283Y1737D01*
X1316Y1737D02*
X1336Y1737D01*
X1364Y1737D02*
X1383Y1737D01*
X1416Y1737D02*
X1436Y1737D01*
X1464Y1737D02*
X1483Y1737D01*
X1516Y1737D02*
X1536Y1737D01*
X1564Y1737D02*
X1583Y1737D01*
X1616Y1737D02*
X1635Y1737D01*
X1664Y1737D02*
X1683Y1737D01*
X1716Y1737D02*
X1735Y1737D01*
X1764Y1737D02*
X1783Y1737D01*
X1816Y1737D02*
X1835Y1737D01*
X1864Y1737D02*
X1883Y1737D01*
X1916Y1737D02*
X1935Y1737D01*
X1964Y1737D02*
X1983Y1737D01*
X2016Y1737D02*
X2035Y1737D01*
X2064Y1737D02*
X2083Y1737D01*
X2116Y1737D02*
X2135Y1737D01*
X2164Y1737D02*
X2183Y1737D01*
X2216Y1737D02*
X2235Y1737D01*
X2264Y1737D02*
X2283Y1737D01*
X2316Y1737D02*
X2335Y1737D01*
X2364Y1737D02*
X2383Y1737D01*
X1016Y1736D02*
X1036Y1736D01*
X1063Y1736D02*
X1083Y1736D01*
X1116Y1736D02*
X1136Y1736D01*
X1163Y1736D02*
X1183Y1736D01*
X1216Y1736D02*
X1236Y1736D01*
X1263Y1736D02*
X1283Y1736D01*
X1316Y1736D02*
X1336Y1736D01*
X1363Y1736D02*
X1383Y1736D01*
X1416Y1736D02*
X1436Y1736D01*
X1463Y1736D02*
X1483Y1736D01*
X1516Y1736D02*
X1536Y1736D01*
X1563Y1736D02*
X1583Y1736D01*
X1616Y1736D02*
X1636Y1736D01*
X1663Y1736D02*
X1683Y1736D01*
X1716Y1736D02*
X1736Y1736D01*
X1763Y1736D02*
X1783Y1736D01*
X1816Y1736D02*
X1836Y1736D01*
X1863Y1736D02*
X1883Y1736D01*
X1916Y1736D02*
X1936Y1736D01*
X1963Y1736D02*
X1983Y1736D01*
X2016Y1736D02*
X2036Y1736D01*
X2063Y1736D02*
X2083Y1736D01*
X2116Y1736D02*
X2136Y1736D01*
X2163Y1736D02*
X2183Y1736D01*
X2216Y1736D02*
X2236Y1736D01*
X2263Y1736D02*
X2283Y1736D01*
X2316Y1736D02*
X2336Y1736D01*
X2363Y1736D02*
X2383Y1736D01*
X1016Y1735D02*
X1037Y1735D01*
X1063Y1735D02*
X1083Y1735D01*
X1116Y1735D02*
X1137Y1735D01*
X1163Y1735D02*
X1183Y1735D01*
X1216Y1735D02*
X1237Y1735D01*
X1263Y1735D02*
X1283Y1735D01*
X1316Y1735D02*
X1337Y1735D01*
X1363Y1735D02*
X1383Y1735D01*
X1416Y1735D02*
X1437Y1735D01*
X1462Y1735D02*
X1483Y1735D01*
X1516Y1735D02*
X1537Y1735D01*
X1562Y1735D02*
X1583Y1735D01*
X1616Y1735D02*
X1637Y1735D01*
X1662Y1735D02*
X1683Y1735D01*
X1716Y1735D02*
X1737Y1735D01*
X1762Y1735D02*
X1783Y1735D01*
X1816Y1735D02*
X1837Y1735D01*
X1862Y1735D02*
X1883Y1735D01*
X1916Y1735D02*
X1937Y1735D01*
X1962Y1735D02*
X1983Y1735D01*
X2016Y1735D02*
X2037Y1735D01*
X2062Y1735D02*
X2083Y1735D01*
X2116Y1735D02*
X2137Y1735D01*
X2162Y1735D02*
X2183Y1735D01*
X2216Y1735D02*
X2237Y1735D01*
X2262Y1735D02*
X2283Y1735D01*
X2316Y1735D02*
X2337Y1735D01*
X2362Y1735D02*
X2383Y1735D01*
X1017Y1734D02*
X1038Y1734D01*
X1062Y1734D02*
X1083Y1734D01*
X1117Y1734D02*
X1138Y1734D01*
X1162Y1734D02*
X1183Y1734D01*
X1217Y1734D02*
X1238Y1734D01*
X1262Y1734D02*
X1283Y1734D01*
X1317Y1734D02*
X1338Y1734D01*
X1362Y1734D02*
X1383Y1734D01*
X1417Y1734D02*
X1438Y1734D01*
X1462Y1734D02*
X1483Y1734D01*
X1517Y1734D02*
X1538Y1734D01*
X1562Y1734D02*
X1583Y1734D01*
X1617Y1734D02*
X1638Y1734D01*
X1662Y1734D02*
X1683Y1734D01*
X1717Y1734D02*
X1738Y1734D01*
X1762Y1734D02*
X1783Y1734D01*
X1817Y1734D02*
X1838Y1734D01*
X1862Y1734D02*
X1883Y1734D01*
X1917Y1734D02*
X1938Y1734D01*
X1962Y1734D02*
X1982Y1734D01*
X2017Y1734D02*
X2038Y1734D01*
X2062Y1734D02*
X2082Y1734D01*
X2117Y1734D02*
X2137Y1734D01*
X2161Y1734D02*
X2182Y1734D01*
X2216Y1734D02*
X2237Y1734D01*
X2261Y1734D02*
X2282Y1734D01*
X2316Y1734D02*
X2337Y1734D01*
X2361Y1734D02*
X2382Y1734D01*
X1017Y1733D02*
X1039Y1733D01*
X1061Y1733D02*
X1082Y1733D01*
X1117Y1733D02*
X1139Y1733D01*
X1161Y1733D02*
X1182Y1733D01*
X1217Y1733D02*
X1239Y1733D01*
X1261Y1733D02*
X1282Y1733D01*
X1317Y1733D02*
X1339Y1733D01*
X1361Y1733D02*
X1382Y1733D01*
X1417Y1733D02*
X1439Y1733D01*
X1461Y1733D02*
X1482Y1733D01*
X1517Y1733D02*
X1539Y1733D01*
X1561Y1733D02*
X1582Y1733D01*
X1617Y1733D02*
X1638Y1733D01*
X1661Y1733D02*
X1682Y1733D01*
X1717Y1733D02*
X1738Y1733D01*
X1761Y1733D02*
X1782Y1733D01*
X1817Y1733D02*
X1838Y1733D01*
X1861Y1733D02*
X1882Y1733D01*
X1917Y1733D02*
X1938Y1733D01*
X1961Y1733D02*
X1982Y1733D01*
X2017Y1733D02*
X2038Y1733D01*
X2061Y1733D02*
X2082Y1733D01*
X2117Y1733D02*
X2138Y1733D01*
X2161Y1733D02*
X2182Y1733D01*
X2217Y1733D02*
X2238Y1733D01*
X2261Y1733D02*
X2282Y1733D01*
X2317Y1733D02*
X2338Y1733D01*
X2361Y1733D02*
X2382Y1733D01*
X1017Y1732D02*
X1040Y1732D01*
X1060Y1732D02*
X1082Y1732D01*
X1117Y1732D02*
X1140Y1732D01*
X1160Y1732D02*
X1182Y1732D01*
X1217Y1732D02*
X1240Y1732D01*
X1260Y1732D02*
X1282Y1732D01*
X1317Y1732D02*
X1340Y1732D01*
X1360Y1732D02*
X1382Y1732D01*
X1417Y1732D02*
X1440Y1732D01*
X1460Y1732D02*
X1482Y1732D01*
X1517Y1732D02*
X1540Y1732D01*
X1560Y1732D02*
X1582Y1732D01*
X1617Y1732D02*
X1640Y1732D01*
X1660Y1732D02*
X1682Y1732D01*
X1717Y1732D02*
X1740Y1732D01*
X1760Y1732D02*
X1782Y1732D01*
X1817Y1732D02*
X1840Y1732D01*
X1860Y1732D02*
X1882Y1732D01*
X1917Y1732D02*
X1940Y1732D01*
X1960Y1732D02*
X1982Y1732D01*
X2017Y1732D02*
X2040Y1732D01*
X2059Y1732D02*
X2082Y1732D01*
X2117Y1732D02*
X2139Y1732D01*
X2159Y1732D02*
X2182Y1732D01*
X2217Y1732D02*
X2239Y1732D01*
X2259Y1732D02*
X2282Y1732D01*
X2317Y1732D02*
X2339Y1732D01*
X2359Y1732D02*
X2382Y1732D01*
X1018Y1731D02*
X1041Y1731D01*
X1059Y1731D02*
X1082Y1731D01*
X1118Y1731D02*
X1141Y1731D01*
X1158Y1731D02*
X1182Y1731D01*
X1218Y1731D02*
X1241Y1731D01*
X1258Y1731D02*
X1282Y1731D01*
X1318Y1731D02*
X1341Y1731D01*
X1358Y1731D02*
X1382Y1731D01*
X1418Y1731D02*
X1441Y1731D01*
X1458Y1731D02*
X1482Y1731D01*
X1518Y1731D02*
X1541Y1731D01*
X1558Y1731D02*
X1582Y1731D01*
X1618Y1731D02*
X1641Y1731D01*
X1658Y1731D02*
X1682Y1731D01*
X1718Y1731D02*
X1741Y1731D01*
X1758Y1731D02*
X1781Y1731D01*
X1818Y1731D02*
X1841Y1731D01*
X1858Y1731D02*
X1881Y1731D01*
X1918Y1731D02*
X1941Y1731D01*
X1958Y1731D02*
X1981Y1731D01*
X2018Y1731D02*
X2041Y1731D01*
X2058Y1731D02*
X2081Y1731D01*
X2118Y1731D02*
X2141Y1731D01*
X2158Y1731D02*
X2181Y1731D01*
X2218Y1731D02*
X2241Y1731D01*
X2258Y1731D02*
X2281Y1731D01*
X2318Y1731D02*
X2341Y1731D01*
X2358Y1731D02*
X2381Y1731D01*
X1018Y1730D02*
X1043Y1730D01*
X1057Y1730D02*
X1081Y1730D01*
X1118Y1730D02*
X1143Y1730D01*
X1157Y1730D02*
X1181Y1730D01*
X1218Y1730D02*
X1243Y1730D01*
X1257Y1730D02*
X1281Y1730D01*
X1318Y1730D02*
X1343Y1730D01*
X1357Y1730D02*
X1381Y1730D01*
X1418Y1730D02*
X1443Y1730D01*
X1457Y1730D02*
X1481Y1730D01*
X1518Y1730D02*
X1543Y1730D01*
X1557Y1730D02*
X1581Y1730D01*
X1618Y1730D02*
X1642Y1730D01*
X1657Y1730D02*
X1681Y1730D01*
X1718Y1730D02*
X1742Y1730D01*
X1757Y1730D02*
X1781Y1730D01*
X1818Y1730D02*
X1842Y1730D01*
X1857Y1730D02*
X1881Y1730D01*
X1918Y1730D02*
X1942Y1730D01*
X1957Y1730D02*
X1981Y1730D01*
X2018Y1730D02*
X2042Y1730D01*
X2057Y1730D02*
X2081Y1730D01*
X2118Y1730D02*
X2142Y1730D01*
X2157Y1730D02*
X2181Y1730D01*
X2218Y1730D02*
X2242Y1730D01*
X2257Y1730D02*
X2281Y1730D01*
X2318Y1730D02*
X2342Y1730D01*
X2357Y1730D02*
X2381Y1730D01*
X1019Y1729D02*
X1045Y1729D01*
X1054Y1729D02*
X1081Y1729D01*
X1119Y1729D02*
X1145Y1729D01*
X1154Y1729D02*
X1181Y1729D01*
X1219Y1729D02*
X1245Y1729D01*
X1254Y1729D02*
X1281Y1729D01*
X1319Y1729D02*
X1345Y1729D01*
X1354Y1729D02*
X1381Y1729D01*
X1419Y1729D02*
X1445Y1729D01*
X1454Y1729D02*
X1481Y1729D01*
X1519Y1729D02*
X1545Y1729D01*
X1554Y1729D02*
X1581Y1729D01*
X1619Y1729D02*
X1645Y1729D01*
X1654Y1729D02*
X1681Y1729D01*
X1718Y1729D02*
X1745Y1729D01*
X1754Y1729D02*
X1781Y1729D01*
X1818Y1729D02*
X1845Y1729D01*
X1854Y1729D02*
X1881Y1729D01*
X1918Y1729D02*
X1945Y1729D01*
X1954Y1729D02*
X1981Y1729D01*
X2018Y1729D02*
X2045Y1729D01*
X2054Y1729D02*
X2081Y1729D01*
X2118Y1729D02*
X2145Y1729D01*
X2154Y1729D02*
X2181Y1729D01*
X2218Y1729D02*
X2245Y1729D01*
X2254Y1729D02*
X2281Y1729D01*
X2318Y1729D02*
X2345Y1729D01*
X2354Y1729D02*
X2381Y1729D01*
X1019Y1728D02*
X1080Y1728D01*
X1119Y1728D02*
X1180Y1728D01*
X1219Y1728D02*
X1280Y1728D01*
X1319Y1728D02*
X1380Y1728D01*
X1419Y1728D02*
X1480Y1728D01*
X1519Y1728D02*
X1580Y1728D01*
X1619Y1728D02*
X1680Y1728D01*
X1719Y1728D02*
X1780Y1728D01*
X1819Y1728D02*
X1880Y1728D01*
X1919Y1728D02*
X1980Y1728D01*
X2019Y1728D02*
X2080Y1728D01*
X2119Y1728D02*
X2180Y1728D01*
X2219Y1728D02*
X2280Y1728D01*
X2319Y1728D02*
X2380Y1728D01*
X1020Y1727D02*
X1080Y1727D01*
X1120Y1727D02*
X1180Y1727D01*
X1220Y1727D02*
X1280Y1727D01*
X1320Y1727D02*
X1380Y1727D01*
X1420Y1727D02*
X1480Y1727D01*
X1519Y1727D02*
X1580Y1727D01*
X1619Y1727D02*
X1680Y1727D01*
X1719Y1727D02*
X1780Y1727D01*
X1819Y1727D02*
X1880Y1727D01*
X1919Y1727D02*
X1980Y1727D01*
X2019Y1727D02*
X2080Y1727D01*
X2119Y1727D02*
X2180Y1727D01*
X2219Y1727D02*
X2280Y1727D01*
X2319Y1727D02*
X2380Y1727D01*
X1020Y1726D02*
X1079Y1726D01*
X1120Y1726D02*
X1179Y1726D01*
X1220Y1726D02*
X1279Y1726D01*
X1320Y1726D02*
X1379Y1726D01*
X1420Y1726D02*
X1479Y1726D01*
X1520Y1726D02*
X1579Y1726D01*
X1620Y1726D02*
X1679Y1726D01*
X1720Y1726D02*
X1779Y1726D01*
X1820Y1726D02*
X1879Y1726D01*
X1920Y1726D02*
X1979Y1726D01*
X2020Y1726D02*
X2079Y1726D01*
X2120Y1726D02*
X2179Y1726D01*
X2220Y1726D02*
X2279Y1726D01*
X2320Y1726D02*
X2379Y1726D01*
X1021Y1725D02*
X1079Y1725D01*
X1121Y1725D02*
X1179Y1725D01*
X1221Y1725D02*
X1279Y1725D01*
X1321Y1725D02*
X1379Y1725D01*
X1421Y1725D02*
X1479Y1725D01*
X1521Y1725D02*
X1579Y1725D01*
X1621Y1725D02*
X1679Y1725D01*
X1721Y1725D02*
X1779Y1725D01*
X1821Y1725D02*
X1879Y1725D01*
X1921Y1725D02*
X1978Y1725D01*
X2021Y1725D02*
X2078Y1725D01*
X2121Y1725D02*
X2178Y1725D01*
X2221Y1725D02*
X2278Y1725D01*
X2320Y1725D02*
X2378Y1725D01*
X1021Y1724D02*
X1078Y1724D01*
X1121Y1724D02*
X1178Y1724D01*
X1221Y1724D02*
X1278Y1724D01*
X1321Y1724D02*
X1378Y1724D01*
X1421Y1724D02*
X1478Y1724D01*
X1521Y1724D02*
X1578Y1724D01*
X1621Y1724D02*
X1678Y1724D01*
X1721Y1724D02*
X1778Y1724D01*
X1821Y1724D02*
X1878Y1724D01*
X1921Y1724D02*
X1978Y1724D01*
X2021Y1724D02*
X2078Y1724D01*
X2121Y1724D02*
X2178Y1724D01*
X2221Y1724D02*
X2278Y1724D01*
X2321Y1724D02*
X2378Y1724D01*
X1022Y1723D02*
X1077Y1723D01*
X1122Y1723D02*
X1177Y1723D01*
X1222Y1723D02*
X1277Y1723D01*
X1322Y1723D02*
X1377Y1723D01*
X1422Y1723D02*
X1477Y1723D01*
X1522Y1723D02*
X1577Y1723D01*
X1622Y1723D02*
X1677Y1723D01*
X1722Y1723D02*
X1777Y1723D01*
X1822Y1723D02*
X1877Y1723D01*
X1922Y1723D02*
X1977Y1723D01*
X2022Y1723D02*
X2077Y1723D01*
X2122Y1723D02*
X2177Y1723D01*
X2222Y1723D02*
X2277Y1723D01*
X2322Y1723D02*
X2377Y1723D01*
X1023Y1722D02*
X1077Y1722D01*
X1123Y1722D02*
X1177Y1722D01*
X1223Y1722D02*
X1277Y1722D01*
X1323Y1722D02*
X1377Y1722D01*
X1423Y1722D02*
X1477Y1722D01*
X1523Y1722D02*
X1577Y1722D01*
X1623Y1722D02*
X1677Y1722D01*
X1723Y1722D02*
X1777Y1722D01*
X1823Y1722D02*
X1876Y1722D01*
X1923Y1722D02*
X1976Y1722D01*
X2023Y1722D02*
X2076Y1722D01*
X2123Y1722D02*
X2176Y1722D01*
X2223Y1722D02*
X2276Y1722D01*
X2322Y1722D02*
X2376Y1722D01*
X1024Y1721D02*
X1076Y1721D01*
X1124Y1721D02*
X1176Y1721D01*
X1224Y1721D02*
X1276Y1721D01*
X1323Y1721D02*
X1376Y1721D01*
X1423Y1721D02*
X1476Y1721D01*
X1523Y1721D02*
X1576Y1721D01*
X1623Y1721D02*
X1676Y1721D01*
X1723Y1721D02*
X1776Y1721D01*
X1823Y1721D02*
X1876Y1721D01*
X1923Y1721D02*
X1976Y1721D01*
X2023Y1721D02*
X2076Y1721D01*
X2123Y1721D02*
X2176Y1721D01*
X2223Y1721D02*
X2276Y1721D01*
X2323Y1721D02*
X2376Y1721D01*
X1024Y1720D02*
X1075Y1720D01*
X1124Y1720D02*
X1175Y1720D01*
X1224Y1720D02*
X1275Y1720D01*
X1324Y1720D02*
X1375Y1720D01*
X1424Y1720D02*
X1475Y1720D01*
X1524Y1720D02*
X1575Y1720D01*
X1624Y1720D02*
X1675Y1720D01*
X1724Y1720D02*
X1775Y1720D01*
X1824Y1720D02*
X1875Y1720D01*
X1924Y1720D02*
X1975Y1720D01*
X2024Y1720D02*
X2075Y1720D01*
X2124Y1720D02*
X2175Y1720D01*
X2224Y1720D02*
X2275Y1720D01*
X2324Y1720D02*
X2375Y1720D01*
X1025Y1719D02*
X1074Y1719D01*
X1125Y1719D02*
X1174Y1719D01*
X1225Y1719D02*
X1274Y1719D01*
X1325Y1719D02*
X1374Y1719D01*
X1425Y1719D02*
X1474Y1719D01*
X1525Y1719D02*
X1574Y1719D01*
X1625Y1719D02*
X1674Y1719D01*
X1725Y1719D02*
X1774Y1719D01*
X1825Y1719D02*
X1874Y1719D01*
X1925Y1719D02*
X1974Y1719D01*
X2025Y1719D02*
X2074Y1719D01*
X2125Y1719D02*
X2174Y1719D01*
X2225Y1719D02*
X2274Y1719D01*
X2325Y1719D02*
X2374Y1719D01*
X1026Y1718D02*
X1073Y1718D01*
X1126Y1718D02*
X1173Y1718D01*
X1226Y1718D02*
X1273Y1718D01*
X1326Y1718D02*
X1373Y1718D01*
X1426Y1718D02*
X1473Y1718D01*
X1526Y1718D02*
X1573Y1718D01*
X1626Y1718D02*
X1673Y1718D01*
X1726Y1718D02*
X1773Y1718D01*
X1826Y1718D02*
X1873Y1718D01*
X1926Y1718D02*
X1973Y1718D01*
X2026Y1718D02*
X2073Y1718D01*
X2126Y1718D02*
X2173Y1718D01*
X2226Y1718D02*
X2273Y1718D01*
X2326Y1718D02*
X2373Y1718D01*
X1028Y1717D02*
X1072Y1717D01*
X1128Y1717D02*
X1172Y1717D01*
X1227Y1717D02*
X1272Y1717D01*
X1327Y1717D02*
X1372Y1717D01*
X1427Y1717D02*
X1472Y1717D01*
X1527Y1717D02*
X1572Y1717D01*
X1627Y1717D02*
X1672Y1717D01*
X1727Y1717D02*
X1772Y1717D01*
X1827Y1717D02*
X1872Y1717D01*
X1927Y1717D02*
X1972Y1717D01*
X2027Y1717D02*
X2072Y1717D01*
X2127Y1717D02*
X2172Y1717D01*
X2227Y1717D02*
X2272Y1717D01*
X2327Y1717D02*
X2372Y1717D01*
X1029Y1716D02*
X1071Y1716D01*
X1129Y1716D02*
X1171Y1716D01*
X1229Y1716D02*
X1271Y1716D01*
X1329Y1716D02*
X1371Y1716D01*
X1429Y1716D02*
X1471Y1716D01*
X1529Y1716D02*
X1571Y1716D01*
X1629Y1716D02*
X1670Y1716D01*
X1729Y1716D02*
X1770Y1716D01*
X1829Y1716D02*
X1870Y1716D01*
X1929Y1716D02*
X1970Y1716D01*
X2029Y1716D02*
X2070Y1716D01*
X2129Y1716D02*
X2170Y1716D01*
X2229Y1716D02*
X2270Y1716D01*
X2329Y1716D02*
X2370Y1716D01*
X1030Y1715D02*
X1069Y1715D01*
X1130Y1715D02*
X1169Y1715D01*
X1230Y1715D02*
X1269Y1715D01*
X1330Y1715D02*
X1369Y1715D01*
X1430Y1715D02*
X1469Y1715D01*
X1530Y1715D02*
X1569Y1715D01*
X1630Y1715D02*
X1669Y1715D01*
X1730Y1715D02*
X1769Y1715D01*
X1830Y1715D02*
X1869Y1715D01*
X1930Y1715D02*
X1969Y1715D01*
X2030Y1715D02*
X2069Y1715D01*
X2130Y1715D02*
X2169Y1715D01*
X2230Y1715D02*
X2269Y1715D01*
X2330Y1715D02*
X2369Y1715D01*
X1032Y1714D02*
X1068Y1714D01*
X1132Y1714D02*
X1168Y1714D01*
X1232Y1714D02*
X1268Y1714D01*
X1332Y1714D02*
X1368Y1714D01*
X1432Y1714D02*
X1468Y1714D01*
X1532Y1714D02*
X1567Y1714D01*
X1632Y1714D02*
X1667Y1714D01*
X1732Y1714D02*
X1767Y1714D01*
X1832Y1714D02*
X1867Y1714D01*
X1932Y1714D02*
X1967Y1714D01*
X2032Y1714D02*
X2067Y1714D01*
X2132Y1714D02*
X2167Y1714D01*
X2232Y1714D02*
X2267Y1714D01*
X2332Y1714D02*
X2367Y1714D01*
X1034Y1713D02*
X1066Y1713D01*
X1134Y1713D02*
X1166Y1713D01*
X1234Y1713D02*
X1266Y1713D01*
X1334Y1713D02*
X1366Y1713D01*
X1433Y1713D02*
X1466Y1713D01*
X1533Y1713D02*
X1566Y1713D01*
X1633Y1713D02*
X1666Y1713D01*
X1733Y1713D02*
X1766Y1713D01*
X1833Y1713D02*
X1866Y1713D01*
X1933Y1713D02*
X1966Y1713D01*
X2033Y1713D02*
X2066Y1713D01*
X2133Y1713D02*
X2166Y1713D01*
X2233Y1713D02*
X2266Y1713D01*
X2333Y1713D02*
X2366Y1713D01*
X1036Y1712D02*
X1064Y1712D01*
X1136Y1712D02*
X1164Y1712D01*
X1236Y1712D02*
X1264Y1712D01*
X1336Y1712D02*
X1364Y1712D01*
X1436Y1712D02*
X1464Y1712D01*
X1536Y1712D02*
X1564Y1712D01*
X1636Y1712D02*
X1664Y1712D01*
X1736Y1712D02*
X1764Y1712D01*
X1835Y1712D02*
X1864Y1712D01*
X1935Y1712D02*
X1964Y1712D01*
X2035Y1712D02*
X2064Y1712D01*
X2135Y1712D02*
X2164Y1712D01*
X2235Y1712D02*
X2264Y1712D01*
X2335Y1712D02*
X2364Y1712D01*
X1038Y1711D02*
X1061Y1711D01*
X1138Y1711D02*
X1161Y1711D01*
X1238Y1711D02*
X1261Y1711D01*
X1338Y1711D02*
X1361Y1711D01*
X1438Y1711D02*
X1461Y1711D01*
X1538Y1711D02*
X1561Y1711D01*
X1638Y1711D02*
X1661Y1711D01*
X1738Y1711D02*
X1761Y1711D01*
X1838Y1711D02*
X1861Y1711D01*
X1938Y1711D02*
X1961Y1711D01*
X2038Y1711D02*
X2061Y1711D01*
X2138Y1711D02*
X2161Y1711D01*
X2238Y1711D02*
X2261Y1711D01*
X2338Y1711D02*
X2361Y1711D01*
X1041Y1710D02*
X1058Y1710D01*
X1141Y1710D02*
X1158Y1710D01*
X1241Y1710D02*
X1258Y1710D01*
X1341Y1710D02*
X1358Y1710D01*
X1441Y1710D02*
X1458Y1710D01*
X1541Y1710D02*
X1558Y1710D01*
X1641Y1710D02*
X1658Y1710D01*
X1741Y1710D02*
X1758Y1710D01*
X1841Y1710D02*
X1858Y1710D01*
X1941Y1710D02*
X1958Y1710D01*
X2041Y1710D02*
X2058Y1710D01*
X2141Y1710D02*
X2158Y1710D01*
X2241Y1710D02*
X2258Y1710D01*
X2341Y1710D02*
X2358Y1710D01*
X1046Y1709D02*
X1054Y1709D01*
X1146Y1709D02*
X1154Y1709D01*
X1246Y1709D02*
X1254Y1709D01*
X1346Y1709D02*
X1354Y1709D01*
X1445Y1709D02*
X1454Y1709D01*
X1545Y1709D02*
X1554Y1709D01*
X1645Y1709D02*
X1654Y1709D01*
X1745Y1709D02*
X1754Y1709D01*
X1845Y1709D02*
X1854Y1709D01*
X1945Y1709D02*
X1954Y1709D01*
X2045Y1709D02*
X2054Y1709D01*
X2145Y1709D02*
X2154Y1709D01*
X2245Y1709D02*
X2254Y1709D01*
X2345Y1709D02*
X2354Y1709D01*
D02*
G04 End of Copper1*
M02*