; NON-PLATED HOLES START AT T1
; THROUGH (PLATED) HOLES START AT T100
M48
INCH
T1C0.165354
T100C0.038000
T101C0.038009
T102C0.040000
T103C0.015748
T104C0.035000
T105C0.042000
T106C0.030000
%
T1
X031254Y001676
X001504Y024426
X001504Y001676
X031254Y024426
T100
X001504Y020426
X007754Y007426
X020254Y005926
X029004Y024926
X028254Y007426
X029004Y023926
X012504Y005926
X002254Y008676
X012504Y024926
X021504Y005926
X005754Y005926
X020254Y007426
X014754Y005926
X002254Y007676
X001504Y015676
X015504Y024926
X009004Y005926
X028754Y002926
X027004Y005926
X001504Y014676
X027004Y024926
X031254Y019676
X010004Y005926
X029254Y005926
X018504Y024926
X028754Y001926
X001504Y013676
X027004Y023926
X031254Y018676
X010504Y024926
X030254Y005926
X001504Y012676
X031254Y017676
X013504Y005926
X013504Y024926
X022504Y005926
X031254Y020676
X006754Y005926
X021254Y007426
X015754Y005926
X025004Y005926
X018254Y005926
X016504Y024926
X013504Y007426
X006754Y007426
X002254Y009926
X028004Y024926
X019504Y024926
X027254Y007426
X028004Y023926
X011504Y005926
X011504Y024926
X004754Y005926
X001504Y019426
X002254Y010926
X014504Y024926
X008004Y005926
X023504Y005926
X001504Y018426
X027754Y002926
X016754Y005926
X026004Y005926
X001504Y021426
X019254Y005926
X017504Y024926
X028254Y005926
X027754Y001926
X014504Y007426
T101
X014504Y016176
X015505Y016176
X014504Y022426
X016505Y016176
X015504Y022426
X017505Y016176
X016504Y022426
X010504Y016176
X017504Y022426
X009504Y016176
X011504Y016176
X010503Y022426
X018504Y022426
X012504Y016176
X011503Y022426
X013504Y016176
X012504Y022426
X013504Y022426
T102
X006254Y002426
X026254Y011926
X003004Y005926
X027504Y012926
X027504Y008926
X024754Y002426
X004004Y012926
X027504Y011926
X012754Y012926
X004004Y008926
X012754Y008926
X018754Y002426
X004004Y011926
X003004Y003926
X024254Y012926
X012754Y011926
X016004Y012926
X010754Y002426
X024254Y008926
X009254Y012926
X016004Y008926
X024254Y011926
X001004Y005926
X009254Y008926
X016004Y011926
X009254Y011926
X022754Y002426
X019504Y012926
X010754Y012926
X019504Y008926
X010754Y008926
X016754Y002426
X001004Y003926
X019504Y011926
X010754Y011926
X014004Y012926
X007254Y012926
X022754Y012926
X014004Y008926
X007254Y008926
X022754Y008926
X014004Y011926
X007254Y011926
X022754Y011926
X020754Y002426
X017504Y012926
X017504Y008926
X014754Y002426
X008254Y002426
X017504Y011926
X029504Y012926
X020754Y012926
X029504Y008926
X020754Y008926
X006004Y012926
X029504Y011926
X020754Y011926
X006004Y008926
X006004Y011926
X026254Y012926
X012754Y002426
X026254Y008926
T103
X022754Y004676
X019504Y004676
X029504Y004676
X024504Y022176
X026254Y004676
X006004Y004676
X009254Y004676
X012754Y004676
X016004Y004676
T104
X026504Y018926
X025504Y021176
X007504Y020426
X006504Y017426
X005504Y024426
X005504Y017426
X022404Y023903
X023715Y024881
X025004Y024926
X006504Y020426
X008504Y017426
X005504Y020426
X007504Y017426
X026504Y019926
X026504Y017426
X023715Y023881
X025004Y023926
X025504Y017426
X006004Y022426
X005504Y025426
X005004Y022426
X022404Y024903
X026504Y021176
X008504Y020426
T105
X026504Y015426
X012504Y014426
X008484Y014426
X022004Y014426
X005504Y014426
X014024Y014426
X008484Y015426
X005504Y015426
X020984Y014426
X029484Y014426
X029484Y015426
X017004Y014426
X026504Y014426
X009524Y014426
X018004Y014426
X024984Y014426
T106
X011504Y020426
X010504Y020426
X012504Y017426
X008002Y021926
X019504Y020426
X022504Y020426
X023504Y017426
X016504Y020426
X018504Y017426
X015504Y020426
X021504Y017426
X017504Y017426
X020504Y017426
X012504Y020426
X014504Y017426
X013504Y017426
X011504Y017426
X010504Y017426
X023504Y020426
X018504Y020426
X009004Y021926
X021504Y020426
X017504Y020426
X019504Y017426
X020504Y020426
X022504Y017426
X014504Y020426
X016504Y017426
X013504Y020426
X015504Y017426
T00
M30
