G04 MADE WITH FRITZING*
G04 WWW.FRITZING.ORG*
G04 DOUBLE SIDED*
G04 HOLES PLATED*
G04 CONTOUR ON CENTER OF CONTOUR VECTOR*
%ASAXBY*%
%FSLAX23Y23*%
%MOIN*%
%OFA0B0*%
%SFA1.0B1.0*%
%ADD10C,0.090000*%
%ADD11C,0.049370*%
%ADD12C,0.088000*%
%ADD13C,0.085000*%
%ADD14C,0.175354*%
%ADD15C,0.070000*%
%ADD16C,0.080000*%
%ADD17C,0.092000*%
%ADD18C,0.088007*%
%ADD19R,0.090000X0.090000*%
%ADD20R,0.085000X0.085000*%
%ADD21R,0.092000X0.092000*%
%ADD22R,0.001000X0.001000*%
%LNMASK0*%
G90*
G70*
G54D10*
X300Y393D03*
X300Y593D03*
X100Y393D03*
X100Y593D03*
G54D11*
X2625Y468D03*
X2950Y468D03*
X2275Y468D03*
X1950Y468D03*
X1600Y468D03*
X1275Y468D03*
X925Y468D03*
X600Y468D03*
G54D12*
X2825Y593D03*
X2925Y593D03*
X3025Y593D03*
X2500Y593D03*
X2600Y593D03*
X2700Y593D03*
X2150Y593D03*
X2250Y593D03*
X2350Y593D03*
X1825Y593D03*
X1925Y593D03*
X2025Y593D03*
X1475Y593D03*
X1575Y593D03*
X1675Y593D03*
X1150Y593D03*
X1250Y593D03*
X1350Y593D03*
X800Y593D03*
X900Y593D03*
X1000Y593D03*
X475Y593D03*
X575Y593D03*
X675Y593D03*
G54D10*
X1075Y243D03*
X1275Y243D03*
X1475Y243D03*
X1675Y243D03*
X1875Y243D03*
X2075Y243D03*
X2275Y243D03*
X2475Y243D03*
X625Y243D03*
X825Y243D03*
G54D12*
X2725Y743D03*
X2825Y743D03*
X2025Y743D03*
X2125Y743D03*
X1350Y743D03*
X1450Y743D03*
X675Y743D03*
X775Y743D03*
X225Y868D03*
X225Y768D03*
X225Y993D03*
X225Y1093D03*
X2775Y193D03*
X2775Y293D03*
X2875Y193D03*
X2875Y293D03*
G54D13*
X550Y2543D03*
X550Y2443D03*
X500Y2243D03*
X600Y2243D03*
G54D11*
X2450Y2218D03*
G54D14*
X3125Y168D03*
X150Y168D03*
X150Y2443D03*
X3125Y2443D03*
G54D15*
X2950Y893D03*
X2950Y1193D03*
X2950Y1293D03*
X2750Y1293D03*
X2750Y893D03*
X2750Y1193D03*
X2625Y893D03*
X2625Y1193D03*
X2625Y1293D03*
X2425Y1293D03*
X2425Y893D03*
X2425Y1193D03*
X2275Y893D03*
X2275Y1193D03*
X2275Y1293D03*
X2075Y1293D03*
X2075Y893D03*
X2075Y1193D03*
X1950Y893D03*
X1950Y1193D03*
X1950Y1293D03*
X1750Y1293D03*
X1750Y893D03*
X1750Y1193D03*
X1600Y893D03*
X1600Y1193D03*
X1600Y1293D03*
X1400Y1293D03*
X1400Y893D03*
X1400Y1193D03*
X1275Y893D03*
X1275Y1193D03*
X1275Y1293D03*
X1075Y1293D03*
X1075Y893D03*
X1075Y1193D03*
X925Y893D03*
X925Y1193D03*
X925Y1293D03*
X725Y1293D03*
X725Y893D03*
X725Y1193D03*
X600Y893D03*
X600Y1193D03*
X600Y1293D03*
X400Y1293D03*
X400Y893D03*
X400Y1193D03*
G54D13*
X550Y1743D03*
X550Y2043D03*
X650Y1743D03*
X650Y2043D03*
X750Y1743D03*
X750Y2043D03*
X850Y1743D03*
X850Y2043D03*
G54D16*
X900Y2193D03*
X800Y2193D03*
G54D13*
X2650Y1743D03*
X2550Y1743D03*
X2650Y1893D03*
X2650Y1993D03*
G54D17*
X2650Y1443D03*
X2948Y1443D03*
X2650Y1543D03*
X2948Y1543D03*
X2200Y1443D03*
X2498Y1443D03*
X1800Y1443D03*
X2098Y1443D03*
X1402Y1443D03*
X1700Y1443D03*
X952Y1443D03*
X1250Y1443D03*
X550Y1443D03*
X848Y1443D03*
X550Y1543D03*
X848Y1543D03*
G54D12*
X1950Y2493D03*
X1850Y2493D03*
X1750Y2493D03*
X1650Y2493D03*
X1550Y2493D03*
X1450Y2493D03*
X1350Y2493D03*
X1250Y2493D03*
X1150Y2493D03*
X1050Y2493D03*
G54D13*
X2550Y2118D03*
X2650Y2118D03*
G54D18*
X950Y1618D03*
X1050Y1618D03*
X1150Y1618D03*
X1250Y1618D03*
X1350Y1618D03*
X1450Y1618D03*
X1551Y1618D03*
X1651Y1618D03*
X1751Y1618D03*
X1850Y2243D03*
X1750Y2243D03*
X1650Y2243D03*
X1550Y2243D03*
X1450Y2243D03*
X1350Y2243D03*
X1250Y2243D03*
X1150Y2243D03*
X1050Y2243D03*
G54D13*
X2240Y2390D03*
X2240Y2490D03*
X2500Y2393D03*
X2500Y2493D03*
X2372Y2388D03*
X2372Y2488D03*
G54D12*
X2700Y2393D03*
X2800Y2393D03*
X2900Y2393D03*
X2700Y2393D03*
X2800Y2393D03*
X2900Y2393D03*
X2900Y2493D03*
X2800Y2493D03*
X2700Y2493D03*
X3125Y1768D03*
X3125Y1868D03*
X3125Y1968D03*
X3125Y2068D03*
X150Y1568D03*
X150Y1468D03*
X150Y1368D03*
X150Y1268D03*
X150Y2143D03*
X150Y2043D03*
X150Y1943D03*
X150Y1843D03*
G54D19*
X300Y393D03*
X100Y393D03*
X1075Y243D03*
X625Y243D03*
G54D20*
X550Y2543D03*
X500Y2243D03*
X550Y1743D03*
G54D21*
X2649Y1443D03*
X2649Y1543D03*
X2199Y1443D03*
X1799Y1443D03*
X1401Y1443D03*
X951Y1443D03*
X549Y1443D03*
X549Y1543D03*
G54D22*
X1045Y2083D02*
X1055Y2083D01*
X1145Y2083D02*
X1155Y2083D01*
X1245Y2083D02*
X1255Y2083D01*
X1345Y2083D02*
X1355Y2083D01*
X1445Y2083D02*
X1455Y2083D01*
X1545Y2083D02*
X1555Y2083D01*
X1645Y2083D02*
X1655Y2083D01*
X1745Y2083D02*
X1755Y2083D01*
X1845Y2083D02*
X1855Y2083D01*
X1945Y2083D02*
X1954Y2083D01*
X2045Y2083D02*
X2054Y2083D01*
X2145Y2083D02*
X2154Y2083D01*
X2245Y2083D02*
X2254Y2083D01*
X2344Y2083D02*
X2354Y2083D01*
X1040Y2082D02*
X1060Y2082D01*
X1140Y2082D02*
X1160Y2082D01*
X1240Y2082D02*
X1260Y2082D01*
X1340Y2082D02*
X1360Y2082D01*
X1440Y2082D02*
X1460Y2082D01*
X1540Y2082D02*
X1560Y2082D01*
X1640Y2082D02*
X1660Y2082D01*
X1740Y2082D02*
X1759Y2082D01*
X1840Y2082D02*
X1859Y2082D01*
X1940Y2082D02*
X1959Y2082D01*
X2040Y2082D02*
X2059Y2082D01*
X2140Y2082D02*
X2159Y2082D01*
X2240Y2082D02*
X2259Y2082D01*
X2340Y2082D02*
X2359Y2082D01*
X1037Y2081D02*
X1063Y2081D01*
X1136Y2081D02*
X1163Y2081D01*
X1236Y2081D02*
X1263Y2081D01*
X1336Y2081D02*
X1363Y2081D01*
X1436Y2081D02*
X1463Y2081D01*
X1536Y2081D02*
X1563Y2081D01*
X1636Y2081D02*
X1663Y2081D01*
X1736Y2081D02*
X1763Y2081D01*
X1836Y2081D02*
X1863Y2081D01*
X1936Y2081D02*
X1963Y2081D01*
X2036Y2081D02*
X2063Y2081D01*
X2136Y2081D02*
X2163Y2081D01*
X2236Y2081D02*
X2263Y2081D01*
X2336Y2081D02*
X2363Y2081D01*
X1034Y2080D02*
X1065Y2080D01*
X1134Y2080D02*
X1165Y2080D01*
X1234Y2080D02*
X1265Y2080D01*
X1334Y2080D02*
X1365Y2080D01*
X1434Y2080D02*
X1465Y2080D01*
X1534Y2080D02*
X1565Y2080D01*
X1634Y2080D02*
X1665Y2080D01*
X1734Y2080D02*
X1765Y2080D01*
X1834Y2080D02*
X1865Y2080D01*
X1934Y2080D02*
X1965Y2080D01*
X2034Y2080D02*
X2065Y2080D01*
X2134Y2080D02*
X2165Y2080D01*
X2234Y2080D02*
X2265Y2080D01*
X2334Y2080D02*
X2365Y2080D01*
X1032Y2079D02*
X1067Y2079D01*
X1132Y2079D02*
X1167Y2079D01*
X1232Y2079D02*
X1267Y2079D01*
X1332Y2079D02*
X1367Y2079D01*
X1432Y2079D02*
X1467Y2079D01*
X1532Y2079D02*
X1567Y2079D01*
X1632Y2079D02*
X1667Y2079D01*
X1732Y2079D02*
X1767Y2079D01*
X1832Y2079D02*
X1867Y2079D01*
X1932Y2079D02*
X1967Y2079D01*
X2032Y2079D02*
X2067Y2079D01*
X2132Y2079D02*
X2167Y2079D01*
X2232Y2079D02*
X2267Y2079D01*
X2332Y2079D02*
X2367Y2079D01*
X1030Y2078D02*
X1069Y2078D01*
X1130Y2078D02*
X1169Y2078D01*
X1230Y2078D02*
X1269Y2078D01*
X1330Y2078D02*
X1369Y2078D01*
X1430Y2078D02*
X1469Y2078D01*
X1530Y2078D02*
X1569Y2078D01*
X1630Y2078D02*
X1669Y2078D01*
X1730Y2078D02*
X1769Y2078D01*
X1830Y2078D02*
X1869Y2078D01*
X1930Y2078D02*
X1969Y2078D01*
X2030Y2078D02*
X2069Y2078D01*
X2130Y2078D02*
X2169Y2078D01*
X2230Y2078D02*
X2269Y2078D01*
X2330Y2078D02*
X2369Y2078D01*
X1029Y2077D02*
X1071Y2077D01*
X1129Y2077D02*
X1171Y2077D01*
X1229Y2077D02*
X1271Y2077D01*
X1329Y2077D02*
X1371Y2077D01*
X1428Y2077D02*
X1471Y2077D01*
X1528Y2077D02*
X1571Y2077D01*
X1628Y2077D02*
X1671Y2077D01*
X1728Y2077D02*
X1771Y2077D01*
X1828Y2077D02*
X1871Y2077D01*
X1928Y2077D02*
X1971Y2077D01*
X2028Y2077D02*
X2071Y2077D01*
X2128Y2077D02*
X2171Y2077D01*
X2228Y2077D02*
X2271Y2077D01*
X2328Y2077D02*
X2371Y2077D01*
X1027Y2076D02*
X1072Y2076D01*
X1127Y2076D02*
X1172Y2076D01*
X1227Y2076D02*
X1272Y2076D01*
X1327Y2076D02*
X1372Y2076D01*
X1427Y2076D02*
X1472Y2076D01*
X1527Y2076D02*
X1572Y2076D01*
X1627Y2076D02*
X1672Y2076D01*
X1727Y2076D02*
X1772Y2076D01*
X1827Y2076D02*
X1872Y2076D01*
X1927Y2076D02*
X1972Y2076D01*
X2027Y2076D02*
X2072Y2076D01*
X2127Y2076D02*
X2172Y2076D01*
X2227Y2076D02*
X2272Y2076D01*
X2327Y2076D02*
X2372Y2076D01*
X1026Y2075D02*
X1074Y2075D01*
X1126Y2075D02*
X1174Y2075D01*
X1226Y2075D02*
X1274Y2075D01*
X1326Y2075D02*
X1374Y2075D01*
X1426Y2075D02*
X1474Y2075D01*
X1526Y2075D02*
X1574Y2075D01*
X1626Y2075D02*
X1674Y2075D01*
X1726Y2075D02*
X1774Y2075D01*
X1826Y2075D02*
X1874Y2075D01*
X1926Y2075D02*
X1974Y2075D01*
X2026Y2075D02*
X2073Y2075D01*
X2126Y2075D02*
X2173Y2075D01*
X2225Y2075D02*
X2273Y2075D01*
X2325Y2075D02*
X2373Y2075D01*
X1024Y2074D02*
X1075Y2074D01*
X1124Y2074D02*
X1175Y2074D01*
X1224Y2074D02*
X1275Y2074D01*
X1324Y2074D02*
X1375Y2074D01*
X1424Y2074D02*
X1475Y2074D01*
X1524Y2074D02*
X1575Y2074D01*
X1624Y2074D02*
X1675Y2074D01*
X1724Y2074D02*
X1775Y2074D01*
X1824Y2074D02*
X1875Y2074D01*
X1924Y2074D02*
X1975Y2074D01*
X2024Y2074D02*
X2075Y2074D01*
X2124Y2074D02*
X2175Y2074D01*
X2224Y2074D02*
X2275Y2074D01*
X2324Y2074D02*
X2375Y2074D01*
X1023Y2073D02*
X1076Y2073D01*
X1123Y2073D02*
X1176Y2073D01*
X1223Y2073D02*
X1276Y2073D01*
X1323Y2073D02*
X1376Y2073D01*
X1423Y2073D02*
X1476Y2073D01*
X1523Y2073D02*
X1576Y2073D01*
X1623Y2073D02*
X1676Y2073D01*
X1723Y2073D02*
X1776Y2073D01*
X1823Y2073D02*
X1876Y2073D01*
X1923Y2073D02*
X1976Y2073D01*
X2023Y2073D02*
X2076Y2073D01*
X2123Y2073D02*
X2176Y2073D01*
X2223Y2073D02*
X2276Y2073D01*
X2323Y2073D02*
X2376Y2073D01*
X1022Y2072D02*
X1077Y2072D01*
X1122Y2072D02*
X1177Y2072D01*
X1222Y2072D02*
X1277Y2072D01*
X1322Y2072D02*
X1377Y2072D01*
X1422Y2072D02*
X1477Y2072D01*
X1522Y2072D02*
X1577Y2072D01*
X1622Y2072D02*
X1677Y2072D01*
X1722Y2072D02*
X1777Y2072D01*
X1822Y2072D02*
X1877Y2072D01*
X1922Y2072D02*
X1977Y2072D01*
X2022Y2072D02*
X2077Y2072D01*
X2122Y2072D02*
X2177Y2072D01*
X2222Y2072D02*
X2277Y2072D01*
X2322Y2072D02*
X2377Y2072D01*
X1021Y2071D02*
X1078Y2071D01*
X1121Y2071D02*
X1178Y2071D01*
X1221Y2071D02*
X1278Y2071D01*
X1321Y2071D02*
X1378Y2071D01*
X1421Y2071D02*
X1478Y2071D01*
X1521Y2071D02*
X1578Y2071D01*
X1621Y2071D02*
X1678Y2071D01*
X1721Y2071D02*
X1778Y2071D01*
X1821Y2071D02*
X1878Y2071D01*
X1921Y2071D02*
X1978Y2071D01*
X2021Y2071D02*
X2078Y2071D01*
X2121Y2071D02*
X2178Y2071D01*
X2221Y2071D02*
X2278Y2071D01*
X2321Y2071D02*
X2378Y2071D01*
X1020Y2070D02*
X1079Y2070D01*
X1120Y2070D02*
X1179Y2070D01*
X1220Y2070D02*
X1279Y2070D01*
X1320Y2070D02*
X1379Y2070D01*
X1420Y2070D02*
X1479Y2070D01*
X1520Y2070D02*
X1579Y2070D01*
X1620Y2070D02*
X1679Y2070D01*
X1720Y2070D02*
X1779Y2070D01*
X1820Y2070D02*
X1879Y2070D01*
X1920Y2070D02*
X1979Y2070D01*
X2020Y2070D02*
X2079Y2070D01*
X2120Y2070D02*
X2179Y2070D01*
X2220Y2070D02*
X2279Y2070D01*
X2320Y2070D02*
X2379Y2070D01*
X1019Y2069D02*
X1080Y2069D01*
X1119Y2069D02*
X1180Y2069D01*
X1219Y2069D02*
X1280Y2069D01*
X1319Y2069D02*
X1380Y2069D01*
X1419Y2069D02*
X1480Y2069D01*
X1519Y2069D02*
X1580Y2069D01*
X1619Y2069D02*
X1680Y2069D01*
X1719Y2069D02*
X1780Y2069D01*
X1819Y2069D02*
X1880Y2069D01*
X1919Y2069D02*
X1980Y2069D01*
X2019Y2069D02*
X2080Y2069D01*
X2119Y2069D02*
X2180Y2069D01*
X2219Y2069D02*
X2280Y2069D01*
X2319Y2069D02*
X2380Y2069D01*
X1019Y2068D02*
X1081Y2068D01*
X1119Y2068D02*
X1181Y2068D01*
X1219Y2068D02*
X1281Y2068D01*
X1319Y2068D02*
X1381Y2068D01*
X1419Y2068D02*
X1481Y2068D01*
X1519Y2068D02*
X1581Y2068D01*
X1619Y2068D02*
X1681Y2068D01*
X1719Y2068D02*
X1781Y2068D01*
X1819Y2068D02*
X1881Y2068D01*
X1919Y2068D02*
X1981Y2068D01*
X2019Y2068D02*
X2080Y2068D01*
X2118Y2068D02*
X2180Y2068D01*
X2218Y2068D02*
X2280Y2068D01*
X2318Y2068D02*
X2380Y2068D01*
X1018Y2067D02*
X1081Y2067D01*
X1118Y2067D02*
X1181Y2067D01*
X1218Y2067D02*
X1281Y2067D01*
X1318Y2067D02*
X1381Y2067D01*
X1418Y2067D02*
X1481Y2067D01*
X1518Y2067D02*
X1581Y2067D01*
X1618Y2067D02*
X1681Y2067D01*
X1718Y2067D02*
X1781Y2067D01*
X1818Y2067D02*
X1881Y2067D01*
X1918Y2067D02*
X1981Y2067D01*
X2018Y2067D02*
X2081Y2067D01*
X2118Y2067D02*
X2181Y2067D01*
X2218Y2067D02*
X2281Y2067D01*
X2318Y2067D02*
X2381Y2067D01*
X1017Y2066D02*
X1082Y2066D01*
X1117Y2066D02*
X1182Y2066D01*
X1217Y2066D02*
X1282Y2066D01*
X1317Y2066D02*
X1382Y2066D01*
X1417Y2066D02*
X1482Y2066D01*
X1517Y2066D02*
X1582Y2066D01*
X1617Y2066D02*
X1682Y2066D01*
X1717Y2066D02*
X1782Y2066D01*
X1817Y2066D02*
X1882Y2066D01*
X1917Y2066D02*
X1982Y2066D01*
X2017Y2066D02*
X2082Y2066D01*
X2117Y2066D02*
X2182Y2066D01*
X2217Y2066D02*
X2282Y2066D01*
X2317Y2066D02*
X2382Y2066D01*
X1017Y2065D02*
X1083Y2065D01*
X1117Y2065D02*
X1183Y2065D01*
X1217Y2065D02*
X1283Y2065D01*
X1317Y2065D02*
X1383Y2065D01*
X1417Y2065D02*
X1483Y2065D01*
X1517Y2065D02*
X1583Y2065D01*
X1616Y2065D02*
X1683Y2065D01*
X1716Y2065D02*
X1783Y2065D01*
X1816Y2065D02*
X1883Y2065D01*
X1916Y2065D02*
X1983Y2065D01*
X2016Y2065D02*
X2083Y2065D01*
X2116Y2065D02*
X2183Y2065D01*
X2216Y2065D02*
X2283Y2065D01*
X2316Y2065D02*
X2383Y2065D01*
X1016Y2064D02*
X1083Y2064D01*
X1116Y2064D02*
X1183Y2064D01*
X1216Y2064D02*
X1283Y2064D01*
X1316Y2064D02*
X1383Y2064D01*
X1416Y2064D02*
X1483Y2064D01*
X1516Y2064D02*
X1583Y2064D01*
X1616Y2064D02*
X1683Y2064D01*
X1716Y2064D02*
X1783Y2064D01*
X1816Y2064D02*
X1883Y2064D01*
X1916Y2064D02*
X1983Y2064D01*
X2016Y2064D02*
X2083Y2064D01*
X2116Y2064D02*
X2183Y2064D01*
X2216Y2064D02*
X2283Y2064D01*
X2316Y2064D02*
X2383Y2064D01*
X1015Y2063D02*
X1084Y2063D01*
X1115Y2063D02*
X1184Y2063D01*
X1215Y2063D02*
X1284Y2063D01*
X1315Y2063D02*
X1384Y2063D01*
X1415Y2063D02*
X1484Y2063D01*
X1515Y2063D02*
X1584Y2063D01*
X1615Y2063D02*
X1684Y2063D01*
X1715Y2063D02*
X1784Y2063D01*
X1815Y2063D02*
X1884Y2063D01*
X1915Y2063D02*
X1984Y2063D01*
X2015Y2063D02*
X2084Y2063D01*
X2115Y2063D02*
X2184Y2063D01*
X2215Y2063D02*
X2284Y2063D01*
X2315Y2063D02*
X2384Y2063D01*
X1015Y2062D02*
X1085Y2062D01*
X1115Y2062D02*
X1185Y2062D01*
X1215Y2062D02*
X1285Y2062D01*
X1315Y2062D02*
X1385Y2062D01*
X1415Y2062D02*
X1485Y2062D01*
X1515Y2062D02*
X1585Y2062D01*
X1615Y2062D02*
X1684Y2062D01*
X1715Y2062D02*
X1784Y2062D01*
X1815Y2062D02*
X1884Y2062D01*
X1915Y2062D02*
X1984Y2062D01*
X2015Y2062D02*
X2084Y2062D01*
X2115Y2062D02*
X2184Y2062D01*
X2215Y2062D02*
X2284Y2062D01*
X2315Y2062D02*
X2384Y2062D01*
X1014Y2061D02*
X1085Y2061D01*
X1114Y2061D02*
X1185Y2061D01*
X1214Y2061D02*
X1285Y2061D01*
X1314Y2061D02*
X1385Y2061D01*
X1414Y2061D02*
X1485Y2061D01*
X1514Y2061D02*
X1585Y2061D01*
X1614Y2061D02*
X1685Y2061D01*
X1714Y2061D02*
X1785Y2061D01*
X1814Y2061D02*
X1885Y2061D01*
X1914Y2061D02*
X1985Y2061D01*
X2014Y2061D02*
X2085Y2061D01*
X2114Y2061D02*
X2185Y2061D01*
X2214Y2061D02*
X2285Y2061D01*
X2314Y2061D02*
X2385Y2061D01*
X1014Y2060D02*
X1086Y2060D01*
X1114Y2060D02*
X1186Y2060D01*
X1214Y2060D02*
X1286Y2060D01*
X1314Y2060D02*
X1386Y2060D01*
X1414Y2060D02*
X1486Y2060D01*
X1514Y2060D02*
X1585Y2060D01*
X1614Y2060D02*
X1685Y2060D01*
X1714Y2060D02*
X1785Y2060D01*
X1814Y2060D02*
X1885Y2060D01*
X1914Y2060D02*
X1985Y2060D01*
X2014Y2060D02*
X2085Y2060D01*
X2114Y2060D02*
X2185Y2060D01*
X2214Y2060D02*
X2285Y2060D01*
X2314Y2060D02*
X2385Y2060D01*
X1013Y2059D02*
X1086Y2059D01*
X1113Y2059D02*
X1186Y2059D01*
X1213Y2059D02*
X1286Y2059D01*
X1313Y2059D02*
X1386Y2059D01*
X1413Y2059D02*
X1486Y2059D01*
X1513Y2059D02*
X1586Y2059D01*
X1613Y2059D02*
X1686Y2059D01*
X1713Y2059D02*
X1786Y2059D01*
X1813Y2059D02*
X1886Y2059D01*
X1913Y2059D02*
X1986Y2059D01*
X2013Y2059D02*
X2086Y2059D01*
X2113Y2059D02*
X2186Y2059D01*
X2213Y2059D02*
X2286Y2059D01*
X2313Y2059D02*
X2386Y2059D01*
X1013Y2058D02*
X1086Y2058D01*
X1113Y2058D02*
X1186Y2058D01*
X1213Y2058D02*
X1286Y2058D01*
X1313Y2058D02*
X1386Y2058D01*
X1413Y2058D02*
X1486Y2058D01*
X1513Y2058D02*
X1586Y2058D01*
X1613Y2058D02*
X1686Y2058D01*
X1713Y2058D02*
X1786Y2058D01*
X1813Y2058D02*
X1886Y2058D01*
X1913Y2058D02*
X1986Y2058D01*
X2013Y2058D02*
X2086Y2058D01*
X2113Y2058D02*
X2186Y2058D01*
X2213Y2058D02*
X2286Y2058D01*
X2313Y2058D02*
X2386Y2058D01*
X1013Y2057D02*
X1087Y2057D01*
X1113Y2057D02*
X1187Y2057D01*
X1213Y2057D02*
X1287Y2057D01*
X1313Y2057D02*
X1387Y2057D01*
X1413Y2057D02*
X1487Y2057D01*
X1513Y2057D02*
X1587Y2057D01*
X1613Y2057D02*
X1687Y2057D01*
X1712Y2057D02*
X1787Y2057D01*
X1812Y2057D02*
X1887Y2057D01*
X1912Y2057D02*
X1987Y2057D01*
X2012Y2057D02*
X2087Y2057D01*
X2112Y2057D02*
X2187Y2057D01*
X2212Y2057D02*
X2287Y2057D01*
X2312Y2057D02*
X2387Y2057D01*
X1012Y2056D02*
X1087Y2056D01*
X1112Y2056D02*
X1187Y2056D01*
X1212Y2056D02*
X1287Y2056D01*
X1312Y2056D02*
X1387Y2056D01*
X1412Y2056D02*
X1487Y2056D01*
X1512Y2056D02*
X1587Y2056D01*
X1612Y2056D02*
X1687Y2056D01*
X1712Y2056D02*
X1787Y2056D01*
X1812Y2056D02*
X1887Y2056D01*
X1912Y2056D02*
X1987Y2056D01*
X2012Y2056D02*
X2087Y2056D01*
X2112Y2056D02*
X2187Y2056D01*
X2212Y2056D02*
X2287Y2056D01*
X2312Y2056D02*
X2387Y2056D01*
X1012Y2055D02*
X1087Y2055D01*
X1112Y2055D02*
X1187Y2055D01*
X1212Y2055D02*
X1287Y2055D01*
X1312Y2055D02*
X1387Y2055D01*
X1412Y2055D02*
X1487Y2055D01*
X1512Y2055D02*
X1587Y2055D01*
X1612Y2055D02*
X1687Y2055D01*
X1712Y2055D02*
X1787Y2055D01*
X1812Y2055D02*
X1887Y2055D01*
X1912Y2055D02*
X1987Y2055D01*
X2012Y2055D02*
X2087Y2055D01*
X2112Y2055D02*
X2187Y2055D01*
X2212Y2055D02*
X2287Y2055D01*
X2312Y2055D02*
X2387Y2055D01*
X1012Y2054D02*
X1088Y2054D01*
X1112Y2054D02*
X1188Y2054D01*
X1212Y2054D02*
X1288Y2054D01*
X1312Y2054D02*
X1388Y2054D01*
X1412Y2054D02*
X1488Y2054D01*
X1512Y2054D02*
X1588Y2054D01*
X1612Y2054D02*
X1688Y2054D01*
X1712Y2054D02*
X1788Y2054D01*
X1812Y2054D02*
X1888Y2054D01*
X1912Y2054D02*
X1988Y2054D01*
X2012Y2054D02*
X2087Y2054D01*
X2111Y2054D02*
X2187Y2054D01*
X2211Y2054D02*
X2287Y2054D01*
X2311Y2054D02*
X2387Y2054D01*
X1011Y2053D02*
X1088Y2053D01*
X1111Y2053D02*
X1188Y2053D01*
X1211Y2053D02*
X1288Y2053D01*
X1311Y2053D02*
X1388Y2053D01*
X1411Y2053D02*
X1488Y2053D01*
X1511Y2053D02*
X1588Y2053D01*
X1611Y2053D02*
X1688Y2053D01*
X1711Y2053D02*
X1788Y2053D01*
X1811Y2053D02*
X1888Y2053D01*
X1911Y2053D02*
X1988Y2053D01*
X2011Y2053D02*
X2088Y2053D01*
X2111Y2053D02*
X2188Y2053D01*
X2211Y2053D02*
X2288Y2053D01*
X2311Y2053D02*
X2388Y2053D01*
X1011Y2052D02*
X1088Y2052D01*
X1111Y2052D02*
X1188Y2052D01*
X1211Y2052D02*
X1288Y2052D01*
X1311Y2052D02*
X1388Y2052D01*
X1411Y2052D02*
X1488Y2052D01*
X1511Y2052D02*
X1588Y2052D01*
X1611Y2052D02*
X1688Y2052D01*
X1711Y2052D02*
X1788Y2052D01*
X1811Y2052D02*
X1888Y2052D01*
X1911Y2052D02*
X1988Y2052D01*
X2011Y2052D02*
X2088Y2052D01*
X2111Y2052D02*
X2188Y2052D01*
X2211Y2052D02*
X2288Y2052D01*
X2311Y2052D02*
X2388Y2052D01*
X1011Y2051D02*
X1088Y2051D01*
X1111Y2051D02*
X1188Y2051D01*
X1211Y2051D02*
X1288Y2051D01*
X1311Y2051D02*
X1388Y2051D01*
X1411Y2051D02*
X1488Y2051D01*
X1511Y2051D02*
X1588Y2051D01*
X1611Y2051D02*
X1688Y2051D01*
X1711Y2051D02*
X1788Y2051D01*
X1811Y2051D02*
X1888Y2051D01*
X1911Y2051D02*
X1988Y2051D01*
X2011Y2051D02*
X2088Y2051D01*
X2111Y2051D02*
X2188Y2051D01*
X2211Y2051D02*
X2288Y2051D01*
X2311Y2051D02*
X2388Y2051D01*
X1011Y2050D02*
X1089Y2050D01*
X1111Y2050D02*
X1189Y2050D01*
X1211Y2050D02*
X1289Y2050D01*
X1311Y2050D02*
X1389Y2050D01*
X1411Y2050D02*
X1488Y2050D01*
X1511Y2050D02*
X1588Y2050D01*
X1611Y2050D02*
X1688Y2050D01*
X1711Y2050D02*
X1788Y2050D01*
X1811Y2050D02*
X1888Y2050D01*
X1911Y2050D02*
X1988Y2050D01*
X2011Y2050D02*
X2088Y2050D01*
X2111Y2050D02*
X2188Y2050D01*
X2211Y2050D02*
X2288Y2050D01*
X2311Y2050D02*
X2388Y2050D01*
X1011Y2049D02*
X1089Y2049D01*
X1111Y2049D02*
X1189Y2049D01*
X1211Y2049D02*
X1289Y2049D01*
X1311Y2049D02*
X1389Y2049D01*
X1411Y2049D02*
X1489Y2049D01*
X1511Y2049D02*
X1589Y2049D01*
X1611Y2049D02*
X1689Y2049D01*
X1711Y2049D02*
X1789Y2049D01*
X1811Y2049D02*
X1889Y2049D01*
X1911Y2049D02*
X1989Y2049D01*
X2010Y2049D02*
X2089Y2049D01*
X2110Y2049D02*
X2188Y2049D01*
X2210Y2049D02*
X2288Y2049D01*
X2310Y2049D02*
X2388Y2049D01*
X1011Y2048D02*
X1089Y2048D01*
X1111Y2048D02*
X1189Y2048D01*
X1211Y2048D02*
X1289Y2048D01*
X1310Y2048D02*
X1389Y2048D01*
X1410Y2048D02*
X1489Y2048D01*
X1510Y2048D02*
X1589Y2048D01*
X1610Y2048D02*
X1689Y2048D01*
X1710Y2048D02*
X1789Y2048D01*
X1810Y2048D02*
X1889Y2048D01*
X1910Y2048D02*
X1989Y2048D01*
X2010Y2048D02*
X2089Y2048D01*
X2110Y2048D02*
X2189Y2048D01*
X2210Y2048D02*
X2289Y2048D01*
X2310Y2048D02*
X2389Y2048D01*
X1010Y2047D02*
X1089Y2047D01*
X1110Y2047D02*
X1189Y2047D01*
X1210Y2047D02*
X1289Y2047D01*
X1310Y2047D02*
X1389Y2047D01*
X1410Y2047D02*
X1489Y2047D01*
X1510Y2047D02*
X1589Y2047D01*
X1610Y2047D02*
X1689Y2047D01*
X1710Y2047D02*
X1789Y2047D01*
X1810Y2047D02*
X1889Y2047D01*
X1910Y2047D02*
X1989Y2047D01*
X2010Y2047D02*
X2089Y2047D01*
X2110Y2047D02*
X2189Y2047D01*
X2210Y2047D02*
X2289Y2047D01*
X2310Y2047D02*
X2389Y2047D01*
X1010Y2046D02*
X1089Y2046D01*
X1110Y2046D02*
X1189Y2046D01*
X1210Y2046D02*
X1289Y2046D01*
X1310Y2046D02*
X1389Y2046D01*
X1410Y2046D02*
X1489Y2046D01*
X1510Y2046D02*
X1589Y2046D01*
X1610Y2046D02*
X1689Y2046D01*
X1710Y2046D02*
X1789Y2046D01*
X1810Y2046D02*
X1889Y2046D01*
X1910Y2046D02*
X1989Y2046D01*
X2010Y2046D02*
X2089Y2046D01*
X2110Y2046D02*
X2189Y2046D01*
X2210Y2046D02*
X2289Y2046D01*
X2310Y2046D02*
X2389Y2046D01*
X1010Y2045D02*
X1089Y2045D01*
X1110Y2045D02*
X1189Y2045D01*
X1210Y2045D02*
X1289Y2045D01*
X1310Y2045D02*
X1389Y2045D01*
X1410Y2045D02*
X1489Y2045D01*
X1510Y2045D02*
X1589Y2045D01*
X1610Y2045D02*
X1689Y2045D01*
X1710Y2045D02*
X1789Y2045D01*
X1810Y2045D02*
X1889Y2045D01*
X1910Y2045D02*
X1989Y2045D01*
X2010Y2045D02*
X2089Y2045D01*
X2110Y2045D02*
X2189Y2045D01*
X2210Y2045D02*
X2289Y2045D01*
X2310Y2045D02*
X2389Y2045D01*
X1010Y2044D02*
X1089Y2044D01*
X1110Y2044D02*
X1189Y2044D01*
X1210Y2044D02*
X1289Y2044D01*
X1310Y2044D02*
X1389Y2044D01*
X1410Y2044D02*
X1489Y2044D01*
X1510Y2044D02*
X1589Y2044D01*
X1610Y2044D02*
X1689Y2044D01*
X1710Y2044D02*
X1789Y2044D01*
X1810Y2044D02*
X1889Y2044D01*
X1910Y2044D02*
X1989Y2044D01*
X2010Y2044D02*
X2089Y2044D01*
X2110Y2044D02*
X2189Y2044D01*
X2210Y2044D02*
X2289Y2044D01*
X2310Y2044D02*
X2389Y2044D01*
X1010Y2043D02*
X1089Y2043D01*
X1110Y2043D02*
X1189Y2043D01*
X1210Y2043D02*
X1289Y2043D01*
X1310Y2043D02*
X1389Y2043D01*
X1410Y2043D02*
X1489Y2043D01*
X1510Y2043D02*
X1589Y2043D01*
X1610Y2043D02*
X1689Y2043D01*
X1710Y2043D02*
X1789Y2043D01*
X1810Y2043D02*
X1889Y2043D01*
X1910Y2043D02*
X1989Y2043D01*
X2010Y2043D02*
X2089Y2043D01*
X2110Y2043D02*
X2189Y2043D01*
X2210Y2043D02*
X2289Y2043D01*
X2310Y2043D02*
X2389Y2043D01*
X1010Y2042D02*
X1089Y2042D01*
X1110Y2042D02*
X1189Y2042D01*
X1210Y2042D02*
X1289Y2042D01*
X1310Y2042D02*
X1389Y2042D01*
X1410Y2042D02*
X1489Y2042D01*
X1510Y2042D02*
X1589Y2042D01*
X1610Y2042D02*
X1689Y2042D01*
X1710Y2042D02*
X1789Y2042D01*
X1810Y2042D02*
X1889Y2042D01*
X1910Y2042D02*
X1989Y2042D01*
X2010Y2042D02*
X2089Y2042D01*
X2110Y2042D02*
X2189Y2042D01*
X2210Y2042D02*
X2289Y2042D01*
X2310Y2042D02*
X2389Y2042D01*
X1010Y2041D02*
X1089Y2041D01*
X1110Y2041D02*
X1189Y2041D01*
X1210Y2041D02*
X1289Y2041D01*
X1310Y2041D02*
X1389Y2041D01*
X1410Y2041D02*
X1489Y2041D01*
X1510Y2041D02*
X1589Y2041D01*
X1610Y2041D02*
X1689Y2041D01*
X1710Y2041D02*
X1789Y2041D01*
X1810Y2041D02*
X1889Y2041D01*
X1910Y2041D02*
X1989Y2041D01*
X2010Y2041D02*
X2089Y2041D01*
X2110Y2041D02*
X2189Y2041D01*
X2210Y2041D02*
X2289Y2041D01*
X2310Y2041D02*
X2389Y2041D01*
X1010Y2040D02*
X1089Y2040D01*
X1110Y2040D02*
X1189Y2040D01*
X1210Y2040D02*
X1289Y2040D01*
X1310Y2040D02*
X1389Y2040D01*
X1410Y2040D02*
X1489Y2040D01*
X1510Y2040D02*
X1589Y2040D01*
X1610Y2040D02*
X1689Y2040D01*
X1710Y2040D02*
X1789Y2040D01*
X1810Y2040D02*
X1889Y2040D01*
X1910Y2040D02*
X1989Y2040D01*
X2010Y2040D02*
X2089Y2040D01*
X2110Y2040D02*
X2189Y2040D01*
X2210Y2040D02*
X2289Y2040D01*
X2310Y2040D02*
X2389Y2040D01*
X1011Y2039D02*
X1089Y2039D01*
X1111Y2039D02*
X1189Y2039D01*
X1211Y2039D02*
X1289Y2039D01*
X1310Y2039D02*
X1389Y2039D01*
X1410Y2039D02*
X1489Y2039D01*
X1510Y2039D02*
X1589Y2039D01*
X1610Y2039D02*
X1689Y2039D01*
X1710Y2039D02*
X1789Y2039D01*
X1810Y2039D02*
X1889Y2039D01*
X1910Y2039D02*
X1989Y2039D01*
X2010Y2039D02*
X2089Y2039D01*
X2110Y2039D02*
X2189Y2039D01*
X2210Y2039D02*
X2289Y2039D01*
X2310Y2039D02*
X2389Y2039D01*
X1011Y2038D02*
X1089Y2038D01*
X1111Y2038D02*
X1189Y2038D01*
X1211Y2038D02*
X1289Y2038D01*
X1311Y2038D02*
X1389Y2038D01*
X1411Y2038D02*
X1489Y2038D01*
X1511Y2038D02*
X1589Y2038D01*
X1611Y2038D02*
X1689Y2038D01*
X1711Y2038D02*
X1789Y2038D01*
X1811Y2038D02*
X1889Y2038D01*
X1911Y2038D02*
X1989Y2038D01*
X2010Y2038D02*
X2089Y2038D01*
X2110Y2038D02*
X2188Y2038D01*
X2210Y2038D02*
X2288Y2038D01*
X2310Y2038D02*
X2388Y2038D01*
X1011Y2037D02*
X1089Y2037D01*
X1111Y2037D02*
X1189Y2037D01*
X1211Y2037D02*
X1289Y2037D01*
X1311Y2037D02*
X1389Y2037D01*
X1411Y2037D02*
X1488Y2037D01*
X1511Y2037D02*
X1588Y2037D01*
X1611Y2037D02*
X1688Y2037D01*
X1711Y2037D02*
X1788Y2037D01*
X1811Y2037D02*
X1888Y2037D01*
X1911Y2037D02*
X1988Y2037D01*
X2011Y2037D02*
X2088Y2037D01*
X2111Y2037D02*
X2188Y2037D01*
X2211Y2037D02*
X2288Y2037D01*
X2311Y2037D02*
X2388Y2037D01*
X1011Y2036D02*
X1088Y2036D01*
X1111Y2036D02*
X1188Y2036D01*
X1211Y2036D02*
X1288Y2036D01*
X1311Y2036D02*
X1388Y2036D01*
X1411Y2036D02*
X1488Y2036D01*
X1511Y2036D02*
X1588Y2036D01*
X1611Y2036D02*
X1688Y2036D01*
X1711Y2036D02*
X1788Y2036D01*
X1811Y2036D02*
X1888Y2036D01*
X1911Y2036D02*
X1988Y2036D01*
X2011Y2036D02*
X2088Y2036D01*
X2111Y2036D02*
X2188Y2036D01*
X2211Y2036D02*
X2288Y2036D01*
X2311Y2036D02*
X2388Y2036D01*
X1011Y2035D02*
X1088Y2035D01*
X1111Y2035D02*
X1188Y2035D01*
X1211Y2035D02*
X1288Y2035D01*
X1311Y2035D02*
X1388Y2035D01*
X1411Y2035D02*
X1488Y2035D01*
X1511Y2035D02*
X1588Y2035D01*
X1611Y2035D02*
X1688Y2035D01*
X1711Y2035D02*
X1788Y2035D01*
X1811Y2035D02*
X1888Y2035D01*
X1911Y2035D02*
X1988Y2035D01*
X2011Y2035D02*
X2088Y2035D01*
X2111Y2035D02*
X2188Y2035D01*
X2211Y2035D02*
X2288Y2035D01*
X2311Y2035D02*
X2388Y2035D01*
X1011Y2034D02*
X1088Y2034D01*
X1111Y2034D02*
X1188Y2034D01*
X1211Y2034D02*
X1288Y2034D01*
X1311Y2034D02*
X1388Y2034D01*
X1411Y2034D02*
X1488Y2034D01*
X1511Y2034D02*
X1588Y2034D01*
X1611Y2034D02*
X1688Y2034D01*
X1711Y2034D02*
X1788Y2034D01*
X1811Y2034D02*
X1888Y2034D01*
X1911Y2034D02*
X1988Y2034D01*
X2011Y2034D02*
X2088Y2034D01*
X2111Y2034D02*
X2188Y2034D01*
X2211Y2034D02*
X2288Y2034D01*
X2311Y2034D02*
X2388Y2034D01*
X1012Y2033D02*
X1088Y2033D01*
X1112Y2033D02*
X1188Y2033D01*
X1212Y2033D02*
X1288Y2033D01*
X1312Y2033D02*
X1388Y2033D01*
X1412Y2033D02*
X1488Y2033D01*
X1512Y2033D02*
X1588Y2033D01*
X1612Y2033D02*
X1688Y2033D01*
X1712Y2033D02*
X1788Y2033D01*
X1812Y2033D02*
X1888Y2033D01*
X1912Y2033D02*
X1988Y2033D01*
X2012Y2033D02*
X2087Y2033D01*
X2111Y2033D02*
X2187Y2033D01*
X2211Y2033D02*
X2287Y2033D01*
X2311Y2033D02*
X2387Y2033D01*
X1012Y2032D02*
X1087Y2032D01*
X1112Y2032D02*
X1187Y2032D01*
X1212Y2032D02*
X1287Y2032D01*
X1312Y2032D02*
X1387Y2032D01*
X1412Y2032D02*
X1487Y2032D01*
X1512Y2032D02*
X1587Y2032D01*
X1612Y2032D02*
X1687Y2032D01*
X1712Y2032D02*
X1787Y2032D01*
X1812Y2032D02*
X1887Y2032D01*
X1912Y2032D02*
X1987Y2032D01*
X2012Y2032D02*
X2087Y2032D01*
X2112Y2032D02*
X2187Y2032D01*
X2212Y2032D02*
X2287Y2032D01*
X2312Y2032D02*
X2387Y2032D01*
X1012Y2031D02*
X1087Y2031D01*
X1112Y2031D02*
X1187Y2031D01*
X1212Y2031D02*
X1287Y2031D01*
X1312Y2031D02*
X1387Y2031D01*
X1412Y2031D02*
X1487Y2031D01*
X1512Y2031D02*
X1587Y2031D01*
X1612Y2031D02*
X1687Y2031D01*
X1712Y2031D02*
X1787Y2031D01*
X1812Y2031D02*
X1887Y2031D01*
X1912Y2031D02*
X1987Y2031D01*
X2012Y2031D02*
X2087Y2031D01*
X2112Y2031D02*
X2187Y2031D01*
X2212Y2031D02*
X2287Y2031D01*
X2312Y2031D02*
X2387Y2031D01*
X1013Y2030D02*
X1087Y2030D01*
X1113Y2030D02*
X1187Y2030D01*
X1213Y2030D02*
X1287Y2030D01*
X1313Y2030D02*
X1387Y2030D01*
X1413Y2030D02*
X1487Y2030D01*
X1513Y2030D02*
X1587Y2030D01*
X1613Y2030D02*
X1687Y2030D01*
X1712Y2030D02*
X1787Y2030D01*
X1812Y2030D02*
X1887Y2030D01*
X1912Y2030D02*
X1987Y2030D01*
X2012Y2030D02*
X2087Y2030D01*
X2112Y2030D02*
X2187Y2030D01*
X2212Y2030D02*
X2287Y2030D01*
X2312Y2030D02*
X2387Y2030D01*
X1013Y2029D02*
X1086Y2029D01*
X1113Y2029D02*
X1186Y2029D01*
X1213Y2029D02*
X1286Y2029D01*
X1313Y2029D02*
X1386Y2029D01*
X1413Y2029D02*
X1486Y2029D01*
X1513Y2029D02*
X1586Y2029D01*
X1613Y2029D02*
X1686Y2029D01*
X1713Y2029D02*
X1786Y2029D01*
X1813Y2029D02*
X1886Y2029D01*
X1913Y2029D02*
X1986Y2029D01*
X2013Y2029D02*
X2086Y2029D01*
X2113Y2029D02*
X2186Y2029D01*
X2213Y2029D02*
X2286Y2029D01*
X2313Y2029D02*
X2386Y2029D01*
X1013Y2028D02*
X1086Y2028D01*
X1113Y2028D02*
X1186Y2028D01*
X1213Y2028D02*
X1286Y2028D01*
X1313Y2028D02*
X1386Y2028D01*
X1413Y2028D02*
X1486Y2028D01*
X1513Y2028D02*
X1586Y2028D01*
X1613Y2028D02*
X1686Y2028D01*
X1713Y2028D02*
X1786Y2028D01*
X1813Y2028D02*
X1886Y2028D01*
X1913Y2028D02*
X1986Y2028D01*
X2013Y2028D02*
X2086Y2028D01*
X2113Y2028D02*
X2186Y2028D01*
X2213Y2028D02*
X2286Y2028D01*
X2313Y2028D02*
X2386Y2028D01*
X1014Y2027D02*
X1086Y2027D01*
X1114Y2027D02*
X1186Y2027D01*
X1214Y2027D02*
X1286Y2027D01*
X1314Y2027D02*
X1386Y2027D01*
X1414Y2027D02*
X1486Y2027D01*
X1514Y2027D02*
X1585Y2027D01*
X1614Y2027D02*
X1685Y2027D01*
X1714Y2027D02*
X1785Y2027D01*
X1814Y2027D02*
X1885Y2027D01*
X1914Y2027D02*
X1985Y2027D01*
X2014Y2027D02*
X2085Y2027D01*
X2114Y2027D02*
X2185Y2027D01*
X2214Y2027D02*
X2285Y2027D01*
X2314Y2027D02*
X2385Y2027D01*
X1014Y2026D02*
X1085Y2026D01*
X1114Y2026D02*
X1185Y2026D01*
X1214Y2026D02*
X1285Y2026D01*
X1314Y2026D02*
X1385Y2026D01*
X1414Y2026D02*
X1485Y2026D01*
X1514Y2026D02*
X1585Y2026D01*
X1614Y2026D02*
X1685Y2026D01*
X1714Y2026D02*
X1785Y2026D01*
X1814Y2026D02*
X1885Y2026D01*
X1914Y2026D02*
X1985Y2026D01*
X2014Y2026D02*
X2085Y2026D01*
X2114Y2026D02*
X2185Y2026D01*
X2214Y2026D02*
X2285Y2026D01*
X2314Y2026D02*
X2385Y2026D01*
X1015Y2025D02*
X1085Y2025D01*
X1115Y2025D02*
X1185Y2025D01*
X1215Y2025D02*
X1285Y2025D01*
X1315Y2025D02*
X1385Y2025D01*
X1415Y2025D02*
X1485Y2025D01*
X1515Y2025D02*
X1585Y2025D01*
X1615Y2025D02*
X1684Y2025D01*
X1715Y2025D02*
X1784Y2025D01*
X1815Y2025D02*
X1884Y2025D01*
X1915Y2025D02*
X1984Y2025D01*
X2015Y2025D02*
X2084Y2025D01*
X2115Y2025D02*
X2184Y2025D01*
X2215Y2025D02*
X2284Y2025D01*
X2315Y2025D02*
X2384Y2025D01*
X1015Y2024D02*
X1084Y2024D01*
X1115Y2024D02*
X1184Y2024D01*
X1215Y2024D02*
X1284Y2024D01*
X1315Y2024D02*
X1384Y2024D01*
X1415Y2024D02*
X1484Y2024D01*
X1515Y2024D02*
X1584Y2024D01*
X1615Y2024D02*
X1684Y2024D01*
X1715Y2024D02*
X1784Y2024D01*
X1815Y2024D02*
X1884Y2024D01*
X1915Y2024D02*
X1984Y2024D01*
X2015Y2024D02*
X2084Y2024D01*
X2115Y2024D02*
X2184Y2024D01*
X2215Y2024D02*
X2284Y2024D01*
X2315Y2024D02*
X2384Y2024D01*
X1016Y2023D02*
X1083Y2023D01*
X1116Y2023D02*
X1183Y2023D01*
X1216Y2023D02*
X1283Y2023D01*
X1316Y2023D02*
X1383Y2023D01*
X1416Y2023D02*
X1483Y2023D01*
X1516Y2023D02*
X1583Y2023D01*
X1616Y2023D02*
X1683Y2023D01*
X1716Y2023D02*
X1783Y2023D01*
X1816Y2023D02*
X1883Y2023D01*
X1916Y2023D02*
X1983Y2023D01*
X2016Y2023D02*
X2083Y2023D01*
X2116Y2023D02*
X2183Y2023D01*
X2216Y2023D02*
X2283Y2023D01*
X2316Y2023D02*
X2383Y2023D01*
X1017Y2022D02*
X1083Y2022D01*
X1117Y2022D02*
X1183Y2022D01*
X1217Y2022D02*
X1283Y2022D01*
X1317Y2022D02*
X1383Y2022D01*
X1417Y2022D02*
X1483Y2022D01*
X1516Y2022D02*
X1583Y2022D01*
X1616Y2022D02*
X1683Y2022D01*
X1716Y2022D02*
X1783Y2022D01*
X1816Y2022D02*
X1883Y2022D01*
X1916Y2022D02*
X1983Y2022D01*
X2016Y2022D02*
X2083Y2022D01*
X2116Y2022D02*
X2183Y2022D01*
X2216Y2022D02*
X2283Y2022D01*
X2316Y2022D02*
X2383Y2022D01*
X1017Y2021D02*
X1082Y2021D01*
X1117Y2021D02*
X1182Y2021D01*
X1217Y2021D02*
X1282Y2021D01*
X1317Y2021D02*
X1382Y2021D01*
X1417Y2021D02*
X1482Y2021D01*
X1517Y2021D02*
X1582Y2021D01*
X1617Y2021D02*
X1682Y2021D01*
X1717Y2021D02*
X1782Y2021D01*
X1817Y2021D02*
X1882Y2021D01*
X1917Y2021D02*
X1982Y2021D01*
X2017Y2021D02*
X2082Y2021D01*
X2117Y2021D02*
X2182Y2021D01*
X2217Y2021D02*
X2282Y2021D01*
X2317Y2021D02*
X2382Y2021D01*
X1018Y2020D02*
X1081Y2020D01*
X1118Y2020D02*
X1181Y2020D01*
X1218Y2020D02*
X1281Y2020D01*
X1318Y2020D02*
X1381Y2020D01*
X1418Y2020D02*
X1481Y2020D01*
X1518Y2020D02*
X1581Y2020D01*
X1618Y2020D02*
X1681Y2020D01*
X1718Y2020D02*
X1781Y2020D01*
X1818Y2020D02*
X1881Y2020D01*
X1918Y2020D02*
X1981Y2020D01*
X2018Y2020D02*
X2081Y2020D01*
X2118Y2020D02*
X2181Y2020D01*
X2218Y2020D02*
X2281Y2020D01*
X2318Y2020D02*
X2381Y2020D01*
X1019Y2019D02*
X1081Y2019D01*
X1119Y2019D02*
X1181Y2019D01*
X1219Y2019D02*
X1281Y2019D01*
X1319Y2019D02*
X1381Y2019D01*
X1419Y2019D02*
X1481Y2019D01*
X1519Y2019D02*
X1581Y2019D01*
X1619Y2019D02*
X1681Y2019D01*
X1719Y2019D02*
X1781Y2019D01*
X1819Y2019D02*
X1881Y2019D01*
X1919Y2019D02*
X1981Y2019D01*
X2018Y2019D02*
X2080Y2019D01*
X2118Y2019D02*
X2180Y2019D01*
X2218Y2019D02*
X2280Y2019D01*
X2318Y2019D02*
X2380Y2019D01*
X1019Y2018D02*
X1080Y2018D01*
X1119Y2018D02*
X1180Y2018D01*
X1219Y2018D02*
X1280Y2018D01*
X1319Y2018D02*
X1380Y2018D01*
X1419Y2018D02*
X1480Y2018D01*
X1519Y2018D02*
X1580Y2018D01*
X1619Y2018D02*
X1680Y2018D01*
X1719Y2018D02*
X1780Y2018D01*
X1819Y2018D02*
X1880Y2018D01*
X1919Y2018D02*
X1980Y2018D01*
X2019Y2018D02*
X2080Y2018D01*
X2119Y2018D02*
X2180Y2018D01*
X2219Y2018D02*
X2280Y2018D01*
X2319Y2018D02*
X2380Y2018D01*
X1020Y2017D02*
X1079Y2017D01*
X1120Y2017D02*
X1179Y2017D01*
X1220Y2017D02*
X1279Y2017D01*
X1320Y2017D02*
X1379Y2017D01*
X1420Y2017D02*
X1479Y2017D01*
X1520Y2017D02*
X1579Y2017D01*
X1620Y2017D02*
X1679Y2017D01*
X1720Y2017D02*
X1779Y2017D01*
X1820Y2017D02*
X1879Y2017D01*
X1920Y2017D02*
X1979Y2017D01*
X2020Y2017D02*
X2079Y2017D01*
X2120Y2017D02*
X2179Y2017D01*
X2220Y2017D02*
X2279Y2017D01*
X2320Y2017D02*
X2379Y2017D01*
X1021Y2016D02*
X1078Y2016D01*
X1121Y2016D02*
X1178Y2016D01*
X1221Y2016D02*
X1278Y2016D01*
X1321Y2016D02*
X1378Y2016D01*
X1421Y2016D02*
X1478Y2016D01*
X1521Y2016D02*
X1578Y2016D01*
X1621Y2016D02*
X1678Y2016D01*
X1721Y2016D02*
X1778Y2016D01*
X1821Y2016D02*
X1878Y2016D01*
X1921Y2016D02*
X1978Y2016D01*
X2021Y2016D02*
X2078Y2016D01*
X2121Y2016D02*
X2178Y2016D01*
X2221Y2016D02*
X2278Y2016D01*
X2321Y2016D02*
X2378Y2016D01*
X1022Y2015D02*
X1077Y2015D01*
X1122Y2015D02*
X1177Y2015D01*
X1222Y2015D02*
X1277Y2015D01*
X1322Y2015D02*
X1377Y2015D01*
X1422Y2015D02*
X1477Y2015D01*
X1522Y2015D02*
X1577Y2015D01*
X1622Y2015D02*
X1677Y2015D01*
X1722Y2015D02*
X1777Y2015D01*
X1822Y2015D02*
X1877Y2015D01*
X1922Y2015D02*
X1977Y2015D01*
X2022Y2015D02*
X2077Y2015D01*
X2122Y2015D02*
X2177Y2015D01*
X2222Y2015D02*
X2277Y2015D01*
X2322Y2015D02*
X2377Y2015D01*
X1023Y2014D02*
X1076Y2014D01*
X1123Y2014D02*
X1176Y2014D01*
X1223Y2014D02*
X1276Y2014D01*
X1323Y2014D02*
X1376Y2014D01*
X1423Y2014D02*
X1476Y2014D01*
X1523Y2014D02*
X1576Y2014D01*
X1623Y2014D02*
X1676Y2014D01*
X1723Y2014D02*
X1776Y2014D01*
X1823Y2014D02*
X1876Y2014D01*
X1923Y2014D02*
X1976Y2014D01*
X2023Y2014D02*
X2076Y2014D01*
X2123Y2014D02*
X2176Y2014D01*
X2223Y2014D02*
X2276Y2014D01*
X2323Y2014D02*
X2376Y2014D01*
X1024Y2013D02*
X1075Y2013D01*
X1124Y2013D02*
X1175Y2013D01*
X1224Y2013D02*
X1275Y2013D01*
X1324Y2013D02*
X1375Y2013D01*
X1424Y2013D02*
X1475Y2013D01*
X1524Y2013D02*
X1575Y2013D01*
X1624Y2013D02*
X1675Y2013D01*
X1724Y2013D02*
X1775Y2013D01*
X1824Y2013D02*
X1875Y2013D01*
X1924Y2013D02*
X1975Y2013D01*
X2024Y2013D02*
X2075Y2013D01*
X2124Y2013D02*
X2175Y2013D01*
X2224Y2013D02*
X2275Y2013D01*
X2324Y2013D02*
X2375Y2013D01*
X1026Y2012D02*
X1074Y2012D01*
X1126Y2012D02*
X1174Y2012D01*
X1226Y2012D02*
X1274Y2012D01*
X1326Y2012D02*
X1374Y2012D01*
X1426Y2012D02*
X1474Y2012D01*
X1526Y2012D02*
X1574Y2012D01*
X1626Y2012D02*
X1674Y2012D01*
X1726Y2012D02*
X1774Y2012D01*
X1826Y2012D02*
X1874Y2012D01*
X1926Y2012D02*
X1974Y2012D01*
X2025Y2012D02*
X2074Y2012D01*
X2125Y2012D02*
X2173Y2012D01*
X2225Y2012D02*
X2273Y2012D01*
X2325Y2012D02*
X2373Y2012D01*
X1027Y2011D02*
X1072Y2011D01*
X1127Y2011D02*
X1172Y2011D01*
X1227Y2011D02*
X1272Y2011D01*
X1327Y2011D02*
X1372Y2011D01*
X1427Y2011D02*
X1472Y2011D01*
X1527Y2011D02*
X1572Y2011D01*
X1627Y2011D02*
X1672Y2011D01*
X1727Y2011D02*
X1772Y2011D01*
X1827Y2011D02*
X1872Y2011D01*
X1927Y2011D02*
X1972Y2011D01*
X2027Y2011D02*
X2072Y2011D01*
X2127Y2011D02*
X2172Y2011D01*
X2227Y2011D02*
X2272Y2011D01*
X2327Y2011D02*
X2372Y2011D01*
X1029Y2010D02*
X1071Y2010D01*
X1129Y2010D02*
X1171Y2010D01*
X1228Y2010D02*
X1271Y2010D01*
X1328Y2010D02*
X1371Y2010D01*
X1428Y2010D02*
X1471Y2010D01*
X1528Y2010D02*
X1571Y2010D01*
X1628Y2010D02*
X1671Y2010D01*
X1728Y2010D02*
X1771Y2010D01*
X1828Y2010D02*
X1871Y2010D01*
X1928Y2010D02*
X1971Y2010D01*
X2028Y2010D02*
X2071Y2010D01*
X2128Y2010D02*
X2171Y2010D01*
X2228Y2010D02*
X2271Y2010D01*
X2328Y2010D02*
X2371Y2010D01*
X1030Y2009D02*
X1069Y2009D01*
X1130Y2009D02*
X1169Y2009D01*
X1230Y2009D02*
X1269Y2009D01*
X1330Y2009D02*
X1369Y2009D01*
X1430Y2009D02*
X1469Y2009D01*
X1530Y2009D02*
X1569Y2009D01*
X1630Y2009D02*
X1669Y2009D01*
X1730Y2009D02*
X1769Y2009D01*
X1830Y2009D02*
X1869Y2009D01*
X1930Y2009D02*
X1969Y2009D01*
X2030Y2009D02*
X2069Y2009D01*
X2130Y2009D02*
X2169Y2009D01*
X2230Y2009D02*
X2269Y2009D01*
X2330Y2009D02*
X2369Y2009D01*
X1032Y2008D02*
X1068Y2008D01*
X1132Y2008D02*
X1168Y2008D01*
X1232Y2008D02*
X1268Y2008D01*
X1332Y2008D02*
X1367Y2008D01*
X1432Y2008D02*
X1467Y2008D01*
X1532Y2008D02*
X1567Y2008D01*
X1632Y2008D02*
X1667Y2008D01*
X1732Y2008D02*
X1767Y2008D01*
X1832Y2008D02*
X1867Y2008D01*
X1932Y2008D02*
X1967Y2008D01*
X2032Y2008D02*
X2067Y2008D01*
X2132Y2008D02*
X2167Y2008D01*
X2232Y2008D02*
X2267Y2008D01*
X2332Y2008D02*
X2367Y2008D01*
X1034Y2007D02*
X1066Y2007D01*
X1134Y2007D02*
X1166Y2007D01*
X1234Y2007D02*
X1265Y2007D01*
X1334Y2007D02*
X1365Y2007D01*
X1434Y2007D02*
X1465Y2007D01*
X1534Y2007D02*
X1565Y2007D01*
X1634Y2007D02*
X1665Y2007D01*
X1734Y2007D02*
X1765Y2007D01*
X1834Y2007D02*
X1865Y2007D01*
X1934Y2007D02*
X1965Y2007D01*
X2034Y2007D02*
X2065Y2007D01*
X2134Y2007D02*
X2165Y2007D01*
X2234Y2007D02*
X2265Y2007D01*
X2334Y2007D02*
X2365Y2007D01*
X1036Y2006D02*
X1063Y2006D01*
X1136Y2006D02*
X1163Y2006D01*
X1236Y2006D02*
X1263Y2006D01*
X1336Y2006D02*
X1363Y2006D01*
X1436Y2006D02*
X1463Y2006D01*
X1536Y2006D02*
X1563Y2006D01*
X1636Y2006D02*
X1663Y2006D01*
X1736Y2006D02*
X1763Y2006D01*
X1836Y2006D02*
X1863Y2006D01*
X1936Y2006D02*
X1963Y2006D01*
X2036Y2006D02*
X2063Y2006D01*
X2136Y2006D02*
X2163Y2006D01*
X2236Y2006D02*
X2263Y2006D01*
X2336Y2006D02*
X2363Y2006D01*
X1040Y2005D02*
X1060Y2005D01*
X1140Y2005D02*
X1160Y2005D01*
X1240Y2005D02*
X1260Y2005D01*
X1340Y2005D02*
X1360Y2005D01*
X1440Y2005D02*
X1460Y2005D01*
X1540Y2005D02*
X1560Y2005D01*
X1640Y2005D02*
X1660Y2005D01*
X1740Y2005D02*
X1760Y2005D01*
X1840Y2005D02*
X1860Y2005D01*
X1940Y2005D02*
X1960Y2005D01*
X2040Y2005D02*
X2059Y2005D01*
X2139Y2005D02*
X2159Y2005D01*
X2239Y2005D02*
X2259Y2005D01*
X2339Y2005D02*
X2359Y2005D01*
X1045Y2004D02*
X1055Y2004D01*
X1145Y2004D02*
X1155Y2004D01*
X1245Y2004D02*
X1255Y2004D01*
X1345Y2004D02*
X1355Y2004D01*
X1445Y2004D02*
X1455Y2004D01*
X1544Y2004D02*
X1555Y2004D01*
X1644Y2004D02*
X1655Y2004D01*
X1744Y2004D02*
X1755Y2004D01*
X1844Y2004D02*
X1855Y2004D01*
X1944Y2004D02*
X1955Y2004D01*
X2044Y2004D02*
X2055Y2004D01*
X2144Y2004D02*
X2155Y2004D01*
X2244Y2004D02*
X2255Y2004D01*
X2344Y2004D02*
X2355Y2004D01*
X1044Y1783D02*
X1055Y1783D01*
X1144Y1783D02*
X1155Y1783D01*
X1244Y1783D02*
X1255Y1783D01*
X1344Y1783D02*
X1355Y1783D01*
X1444Y1783D02*
X1455Y1783D01*
X1544Y1783D02*
X1555Y1783D01*
X1644Y1783D02*
X1655Y1783D01*
X1744Y1783D02*
X1755Y1783D01*
X1844Y1783D02*
X1855Y1783D01*
X1944Y1783D02*
X1955Y1783D01*
X2044Y1783D02*
X2055Y1783D01*
X2144Y1783D02*
X2155Y1783D01*
X2244Y1783D02*
X2255Y1783D01*
X2344Y1783D02*
X2355Y1783D01*
X1039Y1782D02*
X1060Y1782D01*
X1139Y1782D02*
X1160Y1782D01*
X1239Y1782D02*
X1260Y1782D01*
X1339Y1782D02*
X1360Y1782D01*
X1439Y1782D02*
X1460Y1782D01*
X1539Y1782D02*
X1560Y1782D01*
X1639Y1782D02*
X1660Y1782D01*
X1739Y1782D02*
X1760Y1782D01*
X1839Y1782D02*
X1860Y1782D01*
X1939Y1782D02*
X1960Y1782D01*
X2039Y1782D02*
X2060Y1782D01*
X2139Y1782D02*
X2160Y1782D01*
X2239Y1782D02*
X2260Y1782D01*
X2339Y1782D02*
X2360Y1782D01*
X1036Y1781D02*
X1063Y1781D01*
X1136Y1781D02*
X1163Y1781D01*
X1236Y1781D02*
X1263Y1781D01*
X1336Y1781D02*
X1363Y1781D01*
X1436Y1781D02*
X1463Y1781D01*
X1536Y1781D02*
X1563Y1781D01*
X1636Y1781D02*
X1663Y1781D01*
X1736Y1781D02*
X1763Y1781D01*
X1836Y1781D02*
X1863Y1781D01*
X1936Y1781D02*
X1963Y1781D01*
X2036Y1781D02*
X2063Y1781D01*
X2136Y1781D02*
X2163Y1781D01*
X2236Y1781D02*
X2263Y1781D01*
X2336Y1781D02*
X2363Y1781D01*
X1034Y1780D02*
X1066Y1780D01*
X1134Y1780D02*
X1166Y1780D01*
X1234Y1780D02*
X1266Y1780D01*
X1334Y1780D02*
X1366Y1780D01*
X1434Y1780D02*
X1466Y1780D01*
X1534Y1780D02*
X1566Y1780D01*
X1634Y1780D02*
X1666Y1780D01*
X1734Y1780D02*
X1766Y1780D01*
X1834Y1780D02*
X1865Y1780D01*
X1934Y1780D02*
X1965Y1780D01*
X2034Y1780D02*
X2065Y1780D01*
X2134Y1780D02*
X2165Y1780D01*
X2234Y1780D02*
X2265Y1780D01*
X2334Y1780D02*
X2365Y1780D01*
X1032Y1779D02*
X1068Y1779D01*
X1132Y1779D02*
X1168Y1779D01*
X1232Y1779D02*
X1268Y1779D01*
X1332Y1779D02*
X1368Y1779D01*
X1432Y1779D02*
X1468Y1779D01*
X1532Y1779D02*
X1568Y1779D01*
X1632Y1779D02*
X1668Y1779D01*
X1732Y1779D02*
X1768Y1779D01*
X1832Y1779D02*
X1868Y1779D01*
X1932Y1779D02*
X1968Y1779D01*
X2032Y1779D02*
X2067Y1779D01*
X2132Y1779D02*
X2167Y1779D01*
X2231Y1779D02*
X2267Y1779D01*
X2331Y1779D02*
X2367Y1779D01*
X1030Y1778D02*
X1069Y1778D01*
X1130Y1778D02*
X1169Y1778D01*
X1230Y1778D02*
X1269Y1778D01*
X1330Y1778D02*
X1369Y1778D01*
X1430Y1778D02*
X1469Y1778D01*
X1530Y1778D02*
X1569Y1778D01*
X1630Y1778D02*
X1669Y1778D01*
X1730Y1778D02*
X1769Y1778D01*
X1830Y1778D02*
X1869Y1778D01*
X1930Y1778D02*
X1969Y1778D01*
X2030Y1778D02*
X2069Y1778D01*
X2130Y1778D02*
X2169Y1778D01*
X2230Y1778D02*
X2269Y1778D01*
X2330Y1778D02*
X2369Y1778D01*
X1028Y1777D02*
X1071Y1777D01*
X1128Y1777D02*
X1171Y1777D01*
X1228Y1777D02*
X1271Y1777D01*
X1328Y1777D02*
X1371Y1777D01*
X1428Y1777D02*
X1471Y1777D01*
X1528Y1777D02*
X1571Y1777D01*
X1628Y1777D02*
X1671Y1777D01*
X1728Y1777D02*
X1771Y1777D01*
X1828Y1777D02*
X1871Y1777D01*
X1928Y1777D02*
X1971Y1777D01*
X2028Y1777D02*
X2071Y1777D01*
X2128Y1777D02*
X2171Y1777D01*
X2228Y1777D02*
X2271Y1777D01*
X2328Y1777D02*
X2371Y1777D01*
X1027Y1776D02*
X1072Y1776D01*
X1127Y1776D02*
X1172Y1776D01*
X1227Y1776D02*
X1272Y1776D01*
X1327Y1776D02*
X1372Y1776D01*
X1427Y1776D02*
X1472Y1776D01*
X1527Y1776D02*
X1572Y1776D01*
X1627Y1776D02*
X1672Y1776D01*
X1727Y1776D02*
X1772Y1776D01*
X1827Y1776D02*
X1872Y1776D01*
X1927Y1776D02*
X1972Y1776D01*
X2027Y1776D02*
X2072Y1776D01*
X2127Y1776D02*
X2172Y1776D01*
X2227Y1776D02*
X2272Y1776D01*
X2327Y1776D02*
X2372Y1776D01*
X1026Y1775D02*
X1074Y1775D01*
X1126Y1775D02*
X1174Y1775D01*
X1226Y1775D02*
X1274Y1775D01*
X1326Y1775D02*
X1374Y1775D01*
X1426Y1775D02*
X1474Y1775D01*
X1526Y1775D02*
X1574Y1775D01*
X1625Y1775D02*
X1674Y1775D01*
X1725Y1775D02*
X1774Y1775D01*
X1825Y1775D02*
X1874Y1775D01*
X1925Y1775D02*
X1974Y1775D01*
X2025Y1775D02*
X2074Y1775D01*
X2125Y1775D02*
X2174Y1775D01*
X2225Y1775D02*
X2274Y1775D01*
X2325Y1775D02*
X2374Y1775D01*
X1024Y1774D02*
X1075Y1774D01*
X1124Y1774D02*
X1175Y1774D01*
X1224Y1774D02*
X1275Y1774D01*
X1324Y1774D02*
X1375Y1774D01*
X1424Y1774D02*
X1475Y1774D01*
X1524Y1774D02*
X1575Y1774D01*
X1624Y1774D02*
X1675Y1774D01*
X1724Y1774D02*
X1775Y1774D01*
X1824Y1774D02*
X1875Y1774D01*
X1924Y1774D02*
X1975Y1774D01*
X2024Y1774D02*
X2075Y1774D01*
X2124Y1774D02*
X2175Y1774D01*
X2224Y1774D02*
X2275Y1774D01*
X2324Y1774D02*
X2375Y1774D01*
X1023Y1773D02*
X1076Y1773D01*
X1123Y1773D02*
X1176Y1773D01*
X1223Y1773D02*
X1276Y1773D01*
X1323Y1773D02*
X1376Y1773D01*
X1423Y1773D02*
X1476Y1773D01*
X1523Y1773D02*
X1576Y1773D01*
X1623Y1773D02*
X1676Y1773D01*
X1723Y1773D02*
X1776Y1773D01*
X1823Y1773D02*
X1876Y1773D01*
X1923Y1773D02*
X1976Y1773D01*
X2023Y1773D02*
X2076Y1773D01*
X2123Y1773D02*
X2176Y1773D01*
X2223Y1773D02*
X2276Y1773D01*
X2323Y1773D02*
X2376Y1773D01*
X1022Y1772D02*
X1077Y1772D01*
X1122Y1772D02*
X1177Y1772D01*
X1222Y1772D02*
X1277Y1772D01*
X1322Y1772D02*
X1377Y1772D01*
X1422Y1772D02*
X1477Y1772D01*
X1522Y1772D02*
X1577Y1772D01*
X1622Y1772D02*
X1677Y1772D01*
X1722Y1772D02*
X1777Y1772D01*
X1822Y1772D02*
X1877Y1772D01*
X1922Y1772D02*
X1977Y1772D01*
X2022Y1772D02*
X2077Y1772D01*
X2122Y1772D02*
X2177Y1772D01*
X2222Y1772D02*
X2277Y1772D01*
X2322Y1772D02*
X2377Y1772D01*
X1021Y1771D02*
X1078Y1771D01*
X1121Y1771D02*
X1178Y1771D01*
X1221Y1771D02*
X1278Y1771D01*
X1321Y1771D02*
X1378Y1771D01*
X1421Y1771D02*
X1478Y1771D01*
X1521Y1771D02*
X1578Y1771D01*
X1621Y1771D02*
X1678Y1771D01*
X1721Y1771D02*
X1778Y1771D01*
X1821Y1771D02*
X1878Y1771D01*
X1921Y1771D02*
X1978Y1771D01*
X2021Y1771D02*
X2078Y1771D01*
X2121Y1771D02*
X2178Y1771D01*
X2221Y1771D02*
X2278Y1771D01*
X2321Y1771D02*
X2378Y1771D01*
X1020Y1770D02*
X1079Y1770D01*
X1120Y1770D02*
X1179Y1770D01*
X1220Y1770D02*
X1279Y1770D01*
X1320Y1770D02*
X1379Y1770D01*
X1420Y1770D02*
X1479Y1770D01*
X1520Y1770D02*
X1579Y1770D01*
X1620Y1770D02*
X1679Y1770D01*
X1720Y1770D02*
X1779Y1770D01*
X1820Y1770D02*
X1879Y1770D01*
X1920Y1770D02*
X1979Y1770D01*
X2020Y1770D02*
X2079Y1770D01*
X2120Y1770D02*
X2179Y1770D01*
X2220Y1770D02*
X2279Y1770D01*
X2320Y1770D02*
X2379Y1770D01*
X1019Y1769D02*
X1080Y1769D01*
X1119Y1769D02*
X1180Y1769D01*
X1219Y1769D02*
X1280Y1769D01*
X1319Y1769D02*
X1380Y1769D01*
X1419Y1769D02*
X1480Y1769D01*
X1519Y1769D02*
X1580Y1769D01*
X1619Y1769D02*
X1680Y1769D01*
X1719Y1769D02*
X1780Y1769D01*
X1819Y1769D02*
X1880Y1769D01*
X1919Y1769D02*
X1980Y1769D01*
X2019Y1769D02*
X2080Y1769D01*
X2119Y1769D02*
X2180Y1769D01*
X2219Y1769D02*
X2280Y1769D01*
X2319Y1769D02*
X2380Y1769D01*
X1019Y1768D02*
X1081Y1768D01*
X1119Y1768D02*
X1181Y1768D01*
X1219Y1768D02*
X1281Y1768D01*
X1319Y1768D02*
X1381Y1768D01*
X1419Y1768D02*
X1481Y1768D01*
X1519Y1768D02*
X1581Y1768D01*
X1619Y1768D02*
X1681Y1768D01*
X1719Y1768D02*
X1781Y1768D01*
X1818Y1768D02*
X1881Y1768D01*
X1918Y1768D02*
X1981Y1768D01*
X2018Y1768D02*
X2081Y1768D01*
X2118Y1768D02*
X2181Y1768D01*
X2218Y1768D02*
X2281Y1768D01*
X2318Y1768D02*
X2380Y1768D01*
X1018Y1767D02*
X1082Y1767D01*
X1118Y1767D02*
X1181Y1767D01*
X1218Y1767D02*
X1281Y1767D01*
X1318Y1767D02*
X1381Y1767D01*
X1418Y1767D02*
X1481Y1767D01*
X1518Y1767D02*
X1581Y1767D01*
X1618Y1767D02*
X1681Y1767D01*
X1718Y1767D02*
X1781Y1767D01*
X1818Y1767D02*
X1881Y1767D01*
X1918Y1767D02*
X1981Y1767D01*
X2018Y1767D02*
X2081Y1767D01*
X2118Y1767D02*
X2181Y1767D01*
X2218Y1767D02*
X2281Y1767D01*
X2318Y1767D02*
X2381Y1767D01*
X1017Y1766D02*
X1082Y1766D01*
X1117Y1766D02*
X1182Y1766D01*
X1217Y1766D02*
X1282Y1766D01*
X1317Y1766D02*
X1382Y1766D01*
X1417Y1766D02*
X1482Y1766D01*
X1517Y1766D02*
X1582Y1766D01*
X1617Y1766D02*
X1682Y1766D01*
X1717Y1766D02*
X1782Y1766D01*
X1817Y1766D02*
X1882Y1766D01*
X1917Y1766D02*
X1982Y1766D01*
X2017Y1766D02*
X2082Y1766D01*
X2117Y1766D02*
X2182Y1766D01*
X2217Y1766D02*
X2282Y1766D01*
X2317Y1766D02*
X2382Y1766D01*
X1017Y1765D02*
X1083Y1765D01*
X1117Y1765D02*
X1183Y1765D01*
X1217Y1765D02*
X1283Y1765D01*
X1316Y1765D02*
X1383Y1765D01*
X1416Y1765D02*
X1483Y1765D01*
X1516Y1765D02*
X1583Y1765D01*
X1616Y1765D02*
X1683Y1765D01*
X1716Y1765D02*
X1783Y1765D01*
X1816Y1765D02*
X1883Y1765D01*
X1916Y1765D02*
X1983Y1765D01*
X2016Y1765D02*
X2083Y1765D01*
X2116Y1765D02*
X2183Y1765D01*
X2216Y1765D02*
X2283Y1765D01*
X2316Y1765D02*
X2383Y1765D01*
X1016Y1764D02*
X1083Y1764D01*
X1116Y1764D02*
X1183Y1764D01*
X1216Y1764D02*
X1283Y1764D01*
X1316Y1764D02*
X1383Y1764D01*
X1416Y1764D02*
X1483Y1764D01*
X1516Y1764D02*
X1583Y1764D01*
X1616Y1764D02*
X1683Y1764D01*
X1716Y1764D02*
X1783Y1764D01*
X1816Y1764D02*
X1883Y1764D01*
X1916Y1764D02*
X1983Y1764D01*
X2016Y1764D02*
X2083Y1764D01*
X2116Y1764D02*
X2183Y1764D01*
X2216Y1764D02*
X2283Y1764D01*
X2316Y1764D02*
X2383Y1764D01*
X1015Y1763D02*
X1084Y1763D01*
X1115Y1763D02*
X1184Y1763D01*
X1215Y1763D02*
X1284Y1763D01*
X1315Y1763D02*
X1384Y1763D01*
X1415Y1763D02*
X1484Y1763D01*
X1515Y1763D02*
X1584Y1763D01*
X1615Y1763D02*
X1684Y1763D01*
X1715Y1763D02*
X1784Y1763D01*
X1815Y1763D02*
X1884Y1763D01*
X1915Y1763D02*
X1984Y1763D01*
X2015Y1763D02*
X2084Y1763D01*
X2115Y1763D02*
X2184Y1763D01*
X2215Y1763D02*
X2284Y1763D01*
X2315Y1763D02*
X2384Y1763D01*
X1015Y1762D02*
X1085Y1762D01*
X1115Y1762D02*
X1185Y1762D01*
X1215Y1762D02*
X1285Y1762D01*
X1315Y1762D02*
X1385Y1762D01*
X1415Y1762D02*
X1485Y1762D01*
X1515Y1762D02*
X1585Y1762D01*
X1615Y1762D02*
X1685Y1762D01*
X1715Y1762D02*
X1785Y1762D01*
X1815Y1762D02*
X1884Y1762D01*
X1915Y1762D02*
X1984Y1762D01*
X2015Y1762D02*
X2084Y1762D01*
X2115Y1762D02*
X2184Y1762D01*
X2215Y1762D02*
X2284Y1762D01*
X2314Y1762D02*
X2384Y1762D01*
X1014Y1761D02*
X1085Y1761D01*
X1114Y1761D02*
X1185Y1761D01*
X1214Y1761D02*
X1285Y1761D01*
X1314Y1761D02*
X1385Y1761D01*
X1414Y1761D02*
X1485Y1761D01*
X1514Y1761D02*
X1585Y1761D01*
X1614Y1761D02*
X1685Y1761D01*
X1714Y1761D02*
X1785Y1761D01*
X1814Y1761D02*
X1885Y1761D01*
X1914Y1761D02*
X1985Y1761D01*
X2014Y1761D02*
X2085Y1761D01*
X2114Y1761D02*
X2185Y1761D01*
X2214Y1761D02*
X2285Y1761D01*
X2314Y1761D02*
X2385Y1761D01*
X1014Y1760D02*
X1086Y1760D01*
X1114Y1760D02*
X1186Y1760D01*
X1214Y1760D02*
X1286Y1760D01*
X1314Y1760D02*
X1386Y1760D01*
X1414Y1760D02*
X1486Y1760D01*
X1514Y1760D02*
X1586Y1760D01*
X1614Y1760D02*
X1686Y1760D01*
X1714Y1760D02*
X1785Y1760D01*
X1814Y1760D02*
X1885Y1760D01*
X1914Y1760D02*
X1985Y1760D01*
X2014Y1760D02*
X2085Y1760D01*
X2114Y1760D02*
X2185Y1760D01*
X2214Y1760D02*
X2285Y1760D01*
X2314Y1760D02*
X2385Y1760D01*
X1013Y1759D02*
X1086Y1759D01*
X1113Y1759D02*
X1186Y1759D01*
X1213Y1759D02*
X1286Y1759D01*
X1313Y1759D02*
X1386Y1759D01*
X1413Y1759D02*
X1486Y1759D01*
X1513Y1759D02*
X1586Y1759D01*
X1613Y1759D02*
X1686Y1759D01*
X1713Y1759D02*
X1786Y1759D01*
X1813Y1759D02*
X1886Y1759D01*
X1913Y1759D02*
X1986Y1759D01*
X2013Y1759D02*
X2086Y1759D01*
X2113Y1759D02*
X2186Y1759D01*
X2213Y1759D02*
X2286Y1759D01*
X2313Y1759D02*
X2386Y1759D01*
X1013Y1758D02*
X1086Y1758D01*
X1113Y1758D02*
X1186Y1758D01*
X1213Y1758D02*
X1286Y1758D01*
X1313Y1758D02*
X1386Y1758D01*
X1413Y1758D02*
X1486Y1758D01*
X1513Y1758D02*
X1586Y1758D01*
X1613Y1758D02*
X1686Y1758D01*
X1713Y1758D02*
X1786Y1758D01*
X1813Y1758D02*
X1886Y1758D01*
X1913Y1758D02*
X1986Y1758D01*
X2013Y1758D02*
X2086Y1758D01*
X2113Y1758D02*
X2186Y1758D01*
X2213Y1758D02*
X2286Y1758D01*
X2313Y1758D02*
X2386Y1758D01*
X1013Y1757D02*
X1087Y1757D01*
X1113Y1757D02*
X1187Y1757D01*
X1213Y1757D02*
X1287Y1757D01*
X1313Y1757D02*
X1387Y1757D01*
X1413Y1757D02*
X1487Y1757D01*
X1513Y1757D02*
X1587Y1757D01*
X1612Y1757D02*
X1687Y1757D01*
X1712Y1757D02*
X1787Y1757D01*
X1812Y1757D02*
X1887Y1757D01*
X1912Y1757D02*
X1987Y1757D01*
X2012Y1757D02*
X2087Y1757D01*
X2112Y1757D02*
X2187Y1757D01*
X2212Y1757D02*
X2287Y1757D01*
X2312Y1757D02*
X2387Y1757D01*
X1012Y1756D02*
X1087Y1756D01*
X1112Y1756D02*
X1187Y1756D01*
X1212Y1756D02*
X1287Y1756D01*
X1312Y1756D02*
X1387Y1756D01*
X1412Y1756D02*
X1487Y1756D01*
X1512Y1756D02*
X1587Y1756D01*
X1612Y1756D02*
X1687Y1756D01*
X1712Y1756D02*
X1787Y1756D01*
X1812Y1756D02*
X1887Y1756D01*
X1912Y1756D02*
X1987Y1756D01*
X2012Y1756D02*
X2087Y1756D01*
X2112Y1756D02*
X2187Y1756D01*
X2212Y1756D02*
X2287Y1756D01*
X2312Y1756D02*
X2387Y1756D01*
X1012Y1755D02*
X1087Y1755D01*
X1112Y1755D02*
X1187Y1755D01*
X1212Y1755D02*
X1287Y1755D01*
X1312Y1755D02*
X1387Y1755D01*
X1412Y1755D02*
X1487Y1755D01*
X1512Y1755D02*
X1587Y1755D01*
X1612Y1755D02*
X1687Y1755D01*
X1712Y1755D02*
X1787Y1755D01*
X1812Y1755D02*
X1887Y1755D01*
X1912Y1755D02*
X1987Y1755D01*
X2012Y1755D02*
X2087Y1755D01*
X2112Y1755D02*
X2187Y1755D01*
X2212Y1755D02*
X2287Y1755D01*
X2312Y1755D02*
X2387Y1755D01*
X1012Y1754D02*
X1088Y1754D01*
X1112Y1754D02*
X1188Y1754D01*
X1212Y1754D02*
X1288Y1754D01*
X1312Y1754D02*
X1388Y1754D01*
X1412Y1754D02*
X1488Y1754D01*
X1512Y1754D02*
X1588Y1754D01*
X1612Y1754D02*
X1688Y1754D01*
X1712Y1754D02*
X1788Y1754D01*
X1812Y1754D02*
X1888Y1754D01*
X1912Y1754D02*
X1988Y1754D01*
X2011Y1754D02*
X2088Y1754D01*
X2111Y1754D02*
X2187Y1754D01*
X2211Y1754D02*
X2287Y1754D01*
X2311Y1754D02*
X2387Y1754D01*
X1011Y1753D02*
X1088Y1753D01*
X1111Y1753D02*
X1188Y1753D01*
X1211Y1753D02*
X1288Y1753D01*
X1311Y1753D02*
X1388Y1753D01*
X1411Y1753D02*
X1488Y1753D01*
X1511Y1753D02*
X1588Y1753D01*
X1611Y1753D02*
X1688Y1753D01*
X1711Y1753D02*
X1788Y1753D01*
X1811Y1753D02*
X1888Y1753D01*
X1911Y1753D02*
X1988Y1753D01*
X2011Y1753D02*
X2088Y1753D01*
X2111Y1753D02*
X2188Y1753D01*
X2211Y1753D02*
X2288Y1753D01*
X2311Y1753D02*
X2388Y1753D01*
X1011Y1752D02*
X1088Y1752D01*
X1111Y1752D02*
X1188Y1752D01*
X1211Y1752D02*
X1288Y1752D01*
X1311Y1752D02*
X1388Y1752D01*
X1411Y1752D02*
X1488Y1752D01*
X1511Y1752D02*
X1588Y1752D01*
X1611Y1752D02*
X1688Y1752D01*
X1711Y1752D02*
X1788Y1752D01*
X1811Y1752D02*
X1888Y1752D01*
X1911Y1752D02*
X1988Y1752D01*
X2011Y1752D02*
X2088Y1752D01*
X2111Y1752D02*
X2188Y1752D01*
X2211Y1752D02*
X2288Y1752D01*
X2311Y1752D02*
X2388Y1752D01*
X1011Y1751D02*
X1088Y1751D01*
X1111Y1751D02*
X1188Y1751D01*
X1211Y1751D02*
X1288Y1751D01*
X1311Y1751D02*
X1388Y1751D01*
X1411Y1751D02*
X1488Y1751D01*
X1511Y1751D02*
X1588Y1751D01*
X1611Y1751D02*
X1688Y1751D01*
X1711Y1751D02*
X1788Y1751D01*
X1811Y1751D02*
X1888Y1751D01*
X1911Y1751D02*
X1988Y1751D01*
X2011Y1751D02*
X2088Y1751D01*
X2111Y1751D02*
X2188Y1751D01*
X2211Y1751D02*
X2288Y1751D01*
X2311Y1751D02*
X2388Y1751D01*
X1011Y1750D02*
X1089Y1750D01*
X1111Y1750D02*
X1189Y1750D01*
X1211Y1750D02*
X1289Y1750D01*
X1311Y1750D02*
X1389Y1750D01*
X1411Y1750D02*
X1488Y1750D01*
X1511Y1750D02*
X1588Y1750D01*
X1611Y1750D02*
X1688Y1750D01*
X1711Y1750D02*
X1788Y1750D01*
X1811Y1750D02*
X1888Y1750D01*
X1911Y1750D02*
X1988Y1750D01*
X2011Y1750D02*
X2088Y1750D01*
X2111Y1750D02*
X2188Y1750D01*
X2211Y1750D02*
X2288Y1750D01*
X2311Y1750D02*
X2388Y1750D01*
X1011Y1749D02*
X1089Y1749D01*
X1111Y1749D02*
X1189Y1749D01*
X1211Y1749D02*
X1289Y1749D01*
X1311Y1749D02*
X1389Y1749D01*
X1411Y1749D02*
X1489Y1749D01*
X1511Y1749D02*
X1589Y1749D01*
X1611Y1749D02*
X1689Y1749D01*
X1711Y1749D02*
X1789Y1749D01*
X1811Y1749D02*
X1889Y1749D01*
X1910Y1749D02*
X1989Y1749D01*
X2010Y1749D02*
X2089Y1749D01*
X2110Y1749D02*
X2189Y1749D01*
X2210Y1749D02*
X2288Y1749D01*
X2310Y1749D02*
X2388Y1749D01*
X1011Y1748D02*
X1089Y1748D01*
X1111Y1748D02*
X1189Y1748D01*
X1210Y1748D02*
X1289Y1748D01*
X1310Y1748D02*
X1389Y1748D01*
X1410Y1748D02*
X1489Y1748D01*
X1510Y1748D02*
X1589Y1748D01*
X1610Y1748D02*
X1689Y1748D01*
X1710Y1748D02*
X1789Y1748D01*
X1810Y1748D02*
X1889Y1748D01*
X1910Y1748D02*
X1989Y1748D01*
X2010Y1748D02*
X2089Y1748D01*
X2110Y1748D02*
X2189Y1748D01*
X2210Y1748D02*
X2289Y1748D01*
X2310Y1748D02*
X2389Y1748D01*
X1010Y1747D02*
X1089Y1747D01*
X1110Y1747D02*
X1189Y1747D01*
X1210Y1747D02*
X1289Y1747D01*
X1310Y1747D02*
X1389Y1747D01*
X1410Y1747D02*
X1489Y1747D01*
X1510Y1747D02*
X1589Y1747D01*
X1610Y1747D02*
X1689Y1747D01*
X1710Y1747D02*
X1789Y1747D01*
X1810Y1747D02*
X1889Y1747D01*
X1910Y1747D02*
X1989Y1747D01*
X2010Y1747D02*
X2089Y1747D01*
X2110Y1747D02*
X2189Y1747D01*
X2210Y1747D02*
X2289Y1747D01*
X2310Y1747D02*
X2389Y1747D01*
X1010Y1746D02*
X1089Y1746D01*
X1110Y1746D02*
X1189Y1746D01*
X1210Y1746D02*
X1289Y1746D01*
X1310Y1746D02*
X1389Y1746D01*
X1410Y1746D02*
X1489Y1746D01*
X1510Y1746D02*
X1589Y1746D01*
X1610Y1746D02*
X1689Y1746D01*
X1710Y1746D02*
X1789Y1746D01*
X1810Y1746D02*
X1889Y1746D01*
X1910Y1746D02*
X1989Y1746D01*
X2010Y1746D02*
X2089Y1746D01*
X2110Y1746D02*
X2189Y1746D01*
X2210Y1746D02*
X2289Y1746D01*
X2310Y1746D02*
X2389Y1746D01*
X1010Y1745D02*
X1089Y1745D01*
X1110Y1745D02*
X1189Y1745D01*
X1210Y1745D02*
X1289Y1745D01*
X1310Y1745D02*
X1389Y1745D01*
X1410Y1745D02*
X1489Y1745D01*
X1510Y1745D02*
X1589Y1745D01*
X1610Y1745D02*
X1689Y1745D01*
X1710Y1745D02*
X1789Y1745D01*
X1810Y1745D02*
X1889Y1745D01*
X1910Y1745D02*
X1989Y1745D01*
X2010Y1745D02*
X2089Y1745D01*
X2110Y1745D02*
X2189Y1745D01*
X2210Y1745D02*
X2289Y1745D01*
X2310Y1745D02*
X2389Y1745D01*
X1010Y1744D02*
X1089Y1744D01*
X1110Y1744D02*
X1189Y1744D01*
X1210Y1744D02*
X1289Y1744D01*
X1310Y1744D02*
X1389Y1744D01*
X1410Y1744D02*
X1489Y1744D01*
X1510Y1744D02*
X1589Y1744D01*
X1610Y1744D02*
X1689Y1744D01*
X1710Y1744D02*
X1789Y1744D01*
X1810Y1744D02*
X1889Y1744D01*
X1910Y1744D02*
X1989Y1744D01*
X2010Y1744D02*
X2089Y1744D01*
X2110Y1744D02*
X2189Y1744D01*
X2210Y1744D02*
X2289Y1744D01*
X2310Y1744D02*
X2389Y1744D01*
X1010Y1743D02*
X1089Y1743D01*
X1110Y1743D02*
X1189Y1743D01*
X1210Y1743D02*
X1289Y1743D01*
X1310Y1743D02*
X1389Y1743D01*
X1410Y1743D02*
X1489Y1743D01*
X1510Y1743D02*
X1589Y1743D01*
X1610Y1743D02*
X1689Y1743D01*
X1710Y1743D02*
X1789Y1743D01*
X1810Y1743D02*
X1889Y1743D01*
X1910Y1743D02*
X1989Y1743D01*
X2010Y1743D02*
X2089Y1743D01*
X2110Y1743D02*
X2189Y1743D01*
X2210Y1743D02*
X2289Y1743D01*
X2310Y1743D02*
X2389Y1743D01*
X1010Y1742D02*
X1089Y1742D01*
X1110Y1742D02*
X1189Y1742D01*
X1210Y1742D02*
X1289Y1742D01*
X1310Y1742D02*
X1389Y1742D01*
X1410Y1742D02*
X1489Y1742D01*
X1510Y1742D02*
X1589Y1742D01*
X1610Y1742D02*
X1689Y1742D01*
X1710Y1742D02*
X1789Y1742D01*
X1810Y1742D02*
X1889Y1742D01*
X1910Y1742D02*
X1989Y1742D01*
X2010Y1742D02*
X2089Y1742D01*
X2110Y1742D02*
X2189Y1742D01*
X2210Y1742D02*
X2289Y1742D01*
X2310Y1742D02*
X2389Y1742D01*
X1010Y1741D02*
X1089Y1741D01*
X1110Y1741D02*
X1189Y1741D01*
X1210Y1741D02*
X1289Y1741D01*
X1310Y1741D02*
X1389Y1741D01*
X1410Y1741D02*
X1489Y1741D01*
X1510Y1741D02*
X1589Y1741D01*
X1610Y1741D02*
X1689Y1741D01*
X1710Y1741D02*
X1789Y1741D01*
X1810Y1741D02*
X1889Y1741D01*
X1910Y1741D02*
X1989Y1741D01*
X2010Y1741D02*
X2089Y1741D01*
X2110Y1741D02*
X2189Y1741D01*
X2210Y1741D02*
X2289Y1741D01*
X2310Y1741D02*
X2389Y1741D01*
X1010Y1740D02*
X1089Y1740D01*
X1110Y1740D02*
X1189Y1740D01*
X1210Y1740D02*
X1289Y1740D01*
X1310Y1740D02*
X1389Y1740D01*
X1410Y1740D02*
X1489Y1740D01*
X1510Y1740D02*
X1589Y1740D01*
X1610Y1740D02*
X1689Y1740D01*
X1710Y1740D02*
X1789Y1740D01*
X1810Y1740D02*
X1889Y1740D01*
X1910Y1740D02*
X1989Y1740D01*
X2010Y1740D02*
X2089Y1740D01*
X2110Y1740D02*
X2189Y1740D01*
X2210Y1740D02*
X2289Y1740D01*
X2310Y1740D02*
X2389Y1740D01*
X1011Y1739D02*
X1089Y1739D01*
X1111Y1739D02*
X1189Y1739D01*
X1211Y1739D02*
X1289Y1739D01*
X1311Y1739D02*
X1389Y1739D01*
X1410Y1739D02*
X1489Y1739D01*
X1510Y1739D02*
X1589Y1739D01*
X1610Y1739D02*
X1689Y1739D01*
X1710Y1739D02*
X1789Y1739D01*
X1810Y1739D02*
X1889Y1739D01*
X1910Y1739D02*
X1989Y1739D01*
X2010Y1739D02*
X2089Y1739D01*
X2110Y1739D02*
X2189Y1739D01*
X2210Y1739D02*
X2289Y1739D01*
X2310Y1739D02*
X2389Y1739D01*
X1011Y1738D02*
X1089Y1738D01*
X1111Y1738D02*
X1189Y1738D01*
X1211Y1738D02*
X1289Y1738D01*
X1311Y1738D02*
X1389Y1738D01*
X1411Y1738D02*
X1489Y1738D01*
X1511Y1738D02*
X1589Y1738D01*
X1611Y1738D02*
X1689Y1738D01*
X1711Y1738D02*
X1789Y1738D01*
X1811Y1738D02*
X1889Y1738D01*
X1911Y1738D02*
X1989Y1738D01*
X2011Y1738D02*
X2089Y1738D01*
X2110Y1738D02*
X2188Y1738D01*
X2210Y1738D02*
X2288Y1738D01*
X2310Y1738D02*
X2388Y1738D01*
X1011Y1737D02*
X1089Y1737D01*
X1111Y1737D02*
X1189Y1737D01*
X1211Y1737D02*
X1289Y1737D01*
X1311Y1737D02*
X1389Y1737D01*
X1411Y1737D02*
X1488Y1737D01*
X1511Y1737D02*
X1588Y1737D01*
X1611Y1737D02*
X1688Y1737D01*
X1711Y1737D02*
X1788Y1737D01*
X1811Y1737D02*
X1888Y1737D01*
X1911Y1737D02*
X1988Y1737D01*
X2011Y1737D02*
X2088Y1737D01*
X2111Y1737D02*
X2188Y1737D01*
X2211Y1737D02*
X2288Y1737D01*
X2311Y1737D02*
X2388Y1737D01*
X1011Y1736D02*
X1088Y1736D01*
X1111Y1736D02*
X1188Y1736D01*
X1211Y1736D02*
X1288Y1736D01*
X1311Y1736D02*
X1388Y1736D01*
X1411Y1736D02*
X1488Y1736D01*
X1511Y1736D02*
X1588Y1736D01*
X1611Y1736D02*
X1688Y1736D01*
X1711Y1736D02*
X1788Y1736D01*
X1811Y1736D02*
X1888Y1736D01*
X1911Y1736D02*
X1988Y1736D01*
X2011Y1736D02*
X2088Y1736D01*
X2111Y1736D02*
X2188Y1736D01*
X2211Y1736D02*
X2288Y1736D01*
X2311Y1736D02*
X2388Y1736D01*
X1011Y1735D02*
X1088Y1735D01*
X1111Y1735D02*
X1188Y1735D01*
X1211Y1735D02*
X1288Y1735D01*
X1311Y1735D02*
X1388Y1735D01*
X1411Y1735D02*
X1488Y1735D01*
X1511Y1735D02*
X1588Y1735D01*
X1611Y1735D02*
X1688Y1735D01*
X1711Y1735D02*
X1788Y1735D01*
X1811Y1735D02*
X1888Y1735D01*
X1911Y1735D02*
X1988Y1735D01*
X2011Y1735D02*
X2088Y1735D01*
X2111Y1735D02*
X2188Y1735D01*
X2211Y1735D02*
X2288Y1735D01*
X2311Y1735D02*
X2388Y1735D01*
X1012Y1734D02*
X1088Y1734D01*
X1111Y1734D02*
X1188Y1734D01*
X1211Y1734D02*
X1288Y1734D01*
X1311Y1734D02*
X1388Y1734D01*
X1411Y1734D02*
X1488Y1734D01*
X1511Y1734D02*
X1588Y1734D01*
X1611Y1734D02*
X1688Y1734D01*
X1711Y1734D02*
X1788Y1734D01*
X1811Y1734D02*
X1888Y1734D01*
X1911Y1734D02*
X1988Y1734D01*
X2011Y1734D02*
X2088Y1734D01*
X2111Y1734D02*
X2188Y1734D01*
X2211Y1734D02*
X2288Y1734D01*
X2311Y1734D02*
X2388Y1734D01*
X1012Y1733D02*
X1088Y1733D01*
X1112Y1733D02*
X1188Y1733D01*
X1212Y1733D02*
X1288Y1733D01*
X1312Y1733D02*
X1388Y1733D01*
X1412Y1733D02*
X1488Y1733D01*
X1512Y1733D02*
X1588Y1733D01*
X1612Y1733D02*
X1688Y1733D01*
X1712Y1733D02*
X1788Y1733D01*
X1812Y1733D02*
X1888Y1733D01*
X1912Y1733D02*
X1987Y1733D01*
X2012Y1733D02*
X2087Y1733D01*
X2112Y1733D02*
X2187Y1733D01*
X2211Y1733D02*
X2287Y1733D01*
X2311Y1733D02*
X2387Y1733D01*
X1012Y1732D02*
X1087Y1732D01*
X1112Y1732D02*
X1187Y1732D01*
X1212Y1732D02*
X1287Y1732D01*
X1312Y1732D02*
X1387Y1732D01*
X1412Y1732D02*
X1487Y1732D01*
X1512Y1732D02*
X1587Y1732D01*
X1612Y1732D02*
X1687Y1732D01*
X1712Y1732D02*
X1787Y1732D01*
X1812Y1732D02*
X1887Y1732D01*
X1912Y1732D02*
X1987Y1732D01*
X2012Y1732D02*
X2087Y1732D01*
X2112Y1732D02*
X2187Y1732D01*
X2212Y1732D02*
X2287Y1732D01*
X2312Y1732D02*
X2387Y1732D01*
X1012Y1731D02*
X1087Y1731D01*
X1112Y1731D02*
X1187Y1731D01*
X1212Y1731D02*
X1287Y1731D01*
X1312Y1731D02*
X1387Y1731D01*
X1412Y1731D02*
X1487Y1731D01*
X1512Y1731D02*
X1587Y1731D01*
X1612Y1731D02*
X1687Y1731D01*
X1712Y1731D02*
X1787Y1731D01*
X1812Y1731D02*
X1887Y1731D01*
X1912Y1731D02*
X1987Y1731D01*
X2012Y1731D02*
X2087Y1731D01*
X2112Y1731D02*
X2187Y1731D01*
X2212Y1731D02*
X2287Y1731D01*
X2312Y1731D02*
X2387Y1731D01*
X1013Y1730D02*
X1087Y1730D01*
X1113Y1730D02*
X1187Y1730D01*
X1213Y1730D02*
X1287Y1730D01*
X1313Y1730D02*
X1387Y1730D01*
X1413Y1730D02*
X1487Y1730D01*
X1513Y1730D02*
X1587Y1730D01*
X1613Y1730D02*
X1687Y1730D01*
X1713Y1730D02*
X1787Y1730D01*
X1812Y1730D02*
X1887Y1730D01*
X1912Y1730D02*
X1987Y1730D01*
X2012Y1730D02*
X2087Y1730D01*
X2112Y1730D02*
X2187Y1730D01*
X2212Y1730D02*
X2287Y1730D01*
X2312Y1730D02*
X2386Y1730D01*
X1013Y1729D02*
X1086Y1729D01*
X1113Y1729D02*
X1186Y1729D01*
X1213Y1729D02*
X1286Y1729D01*
X1313Y1729D02*
X1386Y1729D01*
X1413Y1729D02*
X1486Y1729D01*
X1513Y1729D02*
X1586Y1729D01*
X1613Y1729D02*
X1686Y1729D01*
X1713Y1729D02*
X1786Y1729D01*
X1813Y1729D02*
X1886Y1729D01*
X1913Y1729D02*
X1986Y1729D01*
X2013Y1729D02*
X2086Y1729D01*
X2113Y1729D02*
X2186Y1729D01*
X2213Y1729D02*
X2286Y1729D01*
X2313Y1729D02*
X2386Y1729D01*
X1013Y1728D02*
X1086Y1728D01*
X1113Y1728D02*
X1186Y1728D01*
X1213Y1728D02*
X1286Y1728D01*
X1313Y1728D02*
X1386Y1728D01*
X1413Y1728D02*
X1486Y1728D01*
X1513Y1728D02*
X1586Y1728D01*
X1613Y1728D02*
X1686Y1728D01*
X1713Y1728D02*
X1786Y1728D01*
X1813Y1728D02*
X1886Y1728D01*
X1913Y1728D02*
X1986Y1728D01*
X2013Y1728D02*
X2086Y1728D01*
X2113Y1728D02*
X2186Y1728D01*
X2213Y1728D02*
X2286Y1728D01*
X2313Y1728D02*
X2386Y1728D01*
X1014Y1727D02*
X1086Y1727D01*
X1114Y1727D02*
X1186Y1727D01*
X1214Y1727D02*
X1286Y1727D01*
X1314Y1727D02*
X1386Y1727D01*
X1414Y1727D02*
X1485Y1727D01*
X1514Y1727D02*
X1585Y1727D01*
X1614Y1727D02*
X1685Y1727D01*
X1714Y1727D02*
X1785Y1727D01*
X1814Y1727D02*
X1885Y1727D01*
X1914Y1727D02*
X1985Y1727D01*
X2014Y1727D02*
X2085Y1727D01*
X2114Y1727D02*
X2185Y1727D01*
X2214Y1727D02*
X2285Y1727D01*
X2314Y1727D02*
X2385Y1727D01*
X1014Y1726D02*
X1085Y1726D01*
X1114Y1726D02*
X1185Y1726D01*
X1214Y1726D02*
X1285Y1726D01*
X1314Y1726D02*
X1385Y1726D01*
X1414Y1726D02*
X1485Y1726D01*
X1514Y1726D02*
X1585Y1726D01*
X1614Y1726D02*
X1685Y1726D01*
X1714Y1726D02*
X1785Y1726D01*
X1814Y1726D02*
X1885Y1726D01*
X1914Y1726D02*
X1985Y1726D01*
X2014Y1726D02*
X2085Y1726D01*
X2114Y1726D02*
X2185Y1726D01*
X2214Y1726D02*
X2285Y1726D01*
X2314Y1726D02*
X2385Y1726D01*
X1015Y1725D02*
X1085Y1725D01*
X1115Y1725D02*
X1185Y1725D01*
X1215Y1725D02*
X1285Y1725D01*
X1315Y1725D02*
X1385Y1725D01*
X1415Y1725D02*
X1485Y1725D01*
X1515Y1725D02*
X1584Y1725D01*
X1615Y1725D02*
X1684Y1725D01*
X1715Y1725D02*
X1784Y1725D01*
X1815Y1725D02*
X1884Y1725D01*
X1915Y1725D02*
X1984Y1725D01*
X2015Y1725D02*
X2084Y1725D01*
X2115Y1725D02*
X2184Y1725D01*
X2215Y1725D02*
X2284Y1725D01*
X2315Y1725D02*
X2384Y1725D01*
X1015Y1724D02*
X1084Y1724D01*
X1115Y1724D02*
X1184Y1724D01*
X1215Y1724D02*
X1284Y1724D01*
X1315Y1724D02*
X1384Y1724D01*
X1415Y1724D02*
X1484Y1724D01*
X1515Y1724D02*
X1584Y1724D01*
X1615Y1724D02*
X1684Y1724D01*
X1715Y1724D02*
X1784Y1724D01*
X1815Y1724D02*
X1884Y1724D01*
X1915Y1724D02*
X1984Y1724D01*
X2015Y1724D02*
X2084Y1724D01*
X2115Y1724D02*
X2184Y1724D01*
X2215Y1724D02*
X2284Y1724D01*
X2315Y1724D02*
X2384Y1724D01*
X1016Y1723D02*
X1083Y1723D01*
X1116Y1723D02*
X1183Y1723D01*
X1216Y1723D02*
X1283Y1723D01*
X1316Y1723D02*
X1383Y1723D01*
X1416Y1723D02*
X1483Y1723D01*
X1516Y1723D02*
X1583Y1723D01*
X1616Y1723D02*
X1683Y1723D01*
X1716Y1723D02*
X1783Y1723D01*
X1816Y1723D02*
X1883Y1723D01*
X1916Y1723D02*
X1983Y1723D01*
X2016Y1723D02*
X2083Y1723D01*
X2116Y1723D02*
X2183Y1723D01*
X2216Y1723D02*
X2283Y1723D01*
X2316Y1723D02*
X2383Y1723D01*
X1017Y1722D02*
X1083Y1722D01*
X1117Y1722D02*
X1183Y1722D01*
X1217Y1722D02*
X1283Y1722D01*
X1317Y1722D02*
X1383Y1722D01*
X1417Y1722D02*
X1483Y1722D01*
X1517Y1722D02*
X1583Y1722D01*
X1617Y1722D02*
X1683Y1722D01*
X1717Y1722D02*
X1783Y1722D01*
X1816Y1722D02*
X1883Y1722D01*
X1916Y1722D02*
X1983Y1722D01*
X2016Y1722D02*
X2083Y1722D01*
X2116Y1722D02*
X2183Y1722D01*
X2216Y1722D02*
X2283Y1722D01*
X2316Y1722D02*
X2382Y1722D01*
X1017Y1721D02*
X1082Y1721D01*
X1117Y1721D02*
X1182Y1721D01*
X1217Y1721D02*
X1282Y1721D01*
X1317Y1721D02*
X1382Y1721D01*
X1417Y1721D02*
X1482Y1721D01*
X1517Y1721D02*
X1582Y1721D01*
X1617Y1721D02*
X1682Y1721D01*
X1717Y1721D02*
X1782Y1721D01*
X1817Y1721D02*
X1882Y1721D01*
X1917Y1721D02*
X1982Y1721D01*
X2017Y1721D02*
X2082Y1721D01*
X2117Y1721D02*
X2182Y1721D01*
X2217Y1721D02*
X2282Y1721D01*
X2317Y1721D02*
X2382Y1721D01*
X1018Y1720D02*
X1081Y1720D01*
X1118Y1720D02*
X1181Y1720D01*
X1218Y1720D02*
X1281Y1720D01*
X1318Y1720D02*
X1381Y1720D01*
X1418Y1720D02*
X1481Y1720D01*
X1518Y1720D02*
X1581Y1720D01*
X1618Y1720D02*
X1681Y1720D01*
X1718Y1720D02*
X1781Y1720D01*
X1818Y1720D02*
X1881Y1720D01*
X1918Y1720D02*
X1981Y1720D01*
X2018Y1720D02*
X2081Y1720D01*
X2118Y1720D02*
X2181Y1720D01*
X2218Y1720D02*
X2281Y1720D01*
X2318Y1720D02*
X2381Y1720D01*
X1019Y1719D02*
X1081Y1719D01*
X1119Y1719D02*
X1181Y1719D01*
X1219Y1719D02*
X1281Y1719D01*
X1319Y1719D02*
X1381Y1719D01*
X1419Y1719D02*
X1481Y1719D01*
X1519Y1719D02*
X1581Y1719D01*
X1619Y1719D02*
X1681Y1719D01*
X1719Y1719D02*
X1781Y1719D01*
X1819Y1719D02*
X1880Y1719D01*
X1919Y1719D02*
X1980Y1719D01*
X2019Y1719D02*
X2080Y1719D01*
X2119Y1719D02*
X2180Y1719D01*
X2219Y1719D02*
X2280Y1719D01*
X2318Y1719D02*
X2380Y1719D01*
X1020Y1718D02*
X1080Y1718D01*
X1120Y1718D02*
X1180Y1718D01*
X1220Y1718D02*
X1280Y1718D01*
X1319Y1718D02*
X1380Y1718D01*
X1419Y1718D02*
X1480Y1718D01*
X1519Y1718D02*
X1580Y1718D01*
X1619Y1718D02*
X1680Y1718D01*
X1719Y1718D02*
X1780Y1718D01*
X1819Y1718D02*
X1880Y1718D01*
X1919Y1718D02*
X1980Y1718D01*
X2019Y1718D02*
X2080Y1718D01*
X2119Y1718D02*
X2180Y1718D01*
X2219Y1718D02*
X2280Y1718D01*
X2319Y1718D02*
X2380Y1718D01*
X1020Y1717D02*
X1079Y1717D01*
X1120Y1717D02*
X1179Y1717D01*
X1220Y1717D02*
X1279Y1717D01*
X1320Y1717D02*
X1379Y1717D01*
X1420Y1717D02*
X1479Y1717D01*
X1520Y1717D02*
X1579Y1717D01*
X1620Y1717D02*
X1679Y1717D01*
X1720Y1717D02*
X1779Y1717D01*
X1820Y1717D02*
X1879Y1717D01*
X1920Y1717D02*
X1979Y1717D01*
X2020Y1717D02*
X2079Y1717D01*
X2120Y1717D02*
X2179Y1717D01*
X2220Y1717D02*
X2279Y1717D01*
X2320Y1717D02*
X2379Y1717D01*
X1021Y1716D02*
X1078Y1716D01*
X1121Y1716D02*
X1178Y1716D01*
X1221Y1716D02*
X1278Y1716D01*
X1321Y1716D02*
X1378Y1716D01*
X1421Y1716D02*
X1478Y1716D01*
X1521Y1716D02*
X1578Y1716D01*
X1621Y1716D02*
X1678Y1716D01*
X1721Y1716D02*
X1778Y1716D01*
X1821Y1716D02*
X1878Y1716D01*
X1921Y1716D02*
X1978Y1716D01*
X2021Y1716D02*
X2078Y1716D01*
X2121Y1716D02*
X2178Y1716D01*
X2221Y1716D02*
X2278Y1716D01*
X2321Y1716D02*
X2378Y1716D01*
X1022Y1715D02*
X1077Y1715D01*
X1122Y1715D02*
X1177Y1715D01*
X1222Y1715D02*
X1277Y1715D01*
X1322Y1715D02*
X1377Y1715D01*
X1422Y1715D02*
X1477Y1715D01*
X1522Y1715D02*
X1577Y1715D01*
X1622Y1715D02*
X1677Y1715D01*
X1722Y1715D02*
X1777Y1715D01*
X1822Y1715D02*
X1877Y1715D01*
X1922Y1715D02*
X1977Y1715D01*
X2022Y1715D02*
X2077Y1715D01*
X2122Y1715D02*
X2177Y1715D01*
X2222Y1715D02*
X2277Y1715D01*
X2322Y1715D02*
X2377Y1715D01*
X1023Y1714D02*
X1076Y1714D01*
X1123Y1714D02*
X1176Y1714D01*
X1223Y1714D02*
X1276Y1714D01*
X1323Y1714D02*
X1376Y1714D01*
X1423Y1714D02*
X1476Y1714D01*
X1523Y1714D02*
X1576Y1714D01*
X1623Y1714D02*
X1676Y1714D01*
X1723Y1714D02*
X1776Y1714D01*
X1823Y1714D02*
X1876Y1714D01*
X1923Y1714D02*
X1976Y1714D01*
X2023Y1714D02*
X2076Y1714D01*
X2123Y1714D02*
X2176Y1714D01*
X2223Y1714D02*
X2276Y1714D01*
X2323Y1714D02*
X2376Y1714D01*
X1025Y1713D02*
X1075Y1713D01*
X1125Y1713D02*
X1175Y1713D01*
X1224Y1713D02*
X1275Y1713D01*
X1324Y1713D02*
X1375Y1713D01*
X1424Y1713D02*
X1475Y1713D01*
X1524Y1713D02*
X1575Y1713D01*
X1624Y1713D02*
X1675Y1713D01*
X1724Y1713D02*
X1775Y1713D01*
X1824Y1713D02*
X1875Y1713D01*
X1924Y1713D02*
X1975Y1713D01*
X2024Y1713D02*
X2075Y1713D01*
X2124Y1713D02*
X2175Y1713D01*
X2224Y1713D02*
X2275Y1713D01*
X2324Y1713D02*
X2375Y1713D01*
X1026Y1712D02*
X1074Y1712D01*
X1126Y1712D02*
X1174Y1712D01*
X1226Y1712D02*
X1274Y1712D01*
X1326Y1712D02*
X1374Y1712D01*
X1426Y1712D02*
X1474Y1712D01*
X1526Y1712D02*
X1574Y1712D01*
X1626Y1712D02*
X1673Y1712D01*
X1726Y1712D02*
X1773Y1712D01*
X1826Y1712D02*
X1873Y1712D01*
X1926Y1712D02*
X1973Y1712D01*
X2026Y1712D02*
X2073Y1712D01*
X2126Y1712D02*
X2173Y1712D01*
X2226Y1712D02*
X2273Y1712D01*
X2326Y1712D02*
X2373Y1712D01*
X1027Y1711D02*
X1072Y1711D01*
X1127Y1711D02*
X1172Y1711D01*
X1227Y1711D02*
X1272Y1711D01*
X1327Y1711D02*
X1372Y1711D01*
X1427Y1711D02*
X1472Y1711D01*
X1527Y1711D02*
X1572Y1711D01*
X1627Y1711D02*
X1672Y1711D01*
X1727Y1711D02*
X1772Y1711D01*
X1827Y1711D02*
X1872Y1711D01*
X1927Y1711D02*
X1972Y1711D01*
X2027Y1711D02*
X2072Y1711D01*
X2127Y1711D02*
X2172Y1711D01*
X2227Y1711D02*
X2272Y1711D01*
X2327Y1711D02*
X2372Y1711D01*
X1029Y1710D02*
X1071Y1710D01*
X1129Y1710D02*
X1171Y1710D01*
X1229Y1710D02*
X1271Y1710D01*
X1329Y1710D02*
X1371Y1710D01*
X1429Y1710D02*
X1471Y1710D01*
X1529Y1710D02*
X1571Y1710D01*
X1629Y1710D02*
X1671Y1710D01*
X1729Y1710D02*
X1771Y1710D01*
X1829Y1710D02*
X1871Y1710D01*
X1928Y1710D02*
X1971Y1710D01*
X2028Y1710D02*
X2071Y1710D01*
X2128Y1710D02*
X2171Y1710D01*
X2228Y1710D02*
X2271Y1710D01*
X2328Y1710D02*
X2370Y1710D01*
X1030Y1709D02*
X1069Y1709D01*
X1130Y1709D02*
X1169Y1709D01*
X1230Y1709D02*
X1269Y1709D01*
X1330Y1709D02*
X1369Y1709D01*
X1430Y1709D02*
X1469Y1709D01*
X1530Y1709D02*
X1569Y1709D01*
X1630Y1709D02*
X1669Y1709D01*
X1730Y1709D02*
X1769Y1709D01*
X1830Y1709D02*
X1869Y1709D01*
X1930Y1709D02*
X1969Y1709D01*
X2030Y1709D02*
X2069Y1709D01*
X2130Y1709D02*
X2169Y1709D01*
X2230Y1709D02*
X2269Y1709D01*
X2330Y1709D02*
X2369Y1709D01*
X1032Y1708D02*
X1067Y1708D01*
X1132Y1708D02*
X1167Y1708D01*
X1232Y1708D02*
X1267Y1708D01*
X1332Y1708D02*
X1367Y1708D01*
X1432Y1708D02*
X1467Y1708D01*
X1532Y1708D02*
X1567Y1708D01*
X1632Y1708D02*
X1667Y1708D01*
X1732Y1708D02*
X1767Y1708D01*
X1832Y1708D02*
X1867Y1708D01*
X1932Y1708D02*
X1967Y1708D01*
X2032Y1708D02*
X2067Y1708D01*
X2132Y1708D02*
X2167Y1708D01*
X2232Y1708D02*
X2267Y1708D01*
X2332Y1708D02*
X2367Y1708D01*
X1034Y1707D02*
X1065Y1707D01*
X1134Y1707D02*
X1165Y1707D01*
X1234Y1707D02*
X1265Y1707D01*
X1334Y1707D02*
X1365Y1707D01*
X1434Y1707D02*
X1465Y1707D01*
X1534Y1707D02*
X1565Y1707D01*
X1634Y1707D02*
X1665Y1707D01*
X1734Y1707D02*
X1765Y1707D01*
X1834Y1707D02*
X1865Y1707D01*
X1934Y1707D02*
X1965Y1707D01*
X2034Y1707D02*
X2065Y1707D01*
X2134Y1707D02*
X2165Y1707D01*
X2234Y1707D02*
X2265Y1707D01*
X2334Y1707D02*
X2365Y1707D01*
X1037Y1706D02*
X1063Y1706D01*
X1137Y1706D02*
X1163Y1706D01*
X1237Y1706D02*
X1263Y1706D01*
X1337Y1706D02*
X1363Y1706D01*
X1437Y1706D02*
X1463Y1706D01*
X1537Y1706D02*
X1563Y1706D01*
X1637Y1706D02*
X1663Y1706D01*
X1737Y1706D02*
X1763Y1706D01*
X1837Y1706D02*
X1863Y1706D01*
X1937Y1706D02*
X1963Y1706D01*
X2037Y1706D02*
X2062Y1706D01*
X2136Y1706D02*
X2162Y1706D01*
X2236Y1706D02*
X2262Y1706D01*
X2336Y1706D02*
X2362Y1706D01*
X1040Y1705D02*
X1059Y1705D01*
X1140Y1705D02*
X1159Y1705D01*
X1240Y1705D02*
X1259Y1705D01*
X1340Y1705D02*
X1359Y1705D01*
X1440Y1705D02*
X1459Y1705D01*
X1540Y1705D02*
X1559Y1705D01*
X1640Y1705D02*
X1659Y1705D01*
X1740Y1705D02*
X1759Y1705D01*
X1840Y1705D02*
X1859Y1705D01*
X1940Y1705D02*
X1959Y1705D01*
X2040Y1705D02*
X2059Y1705D01*
X2140Y1705D02*
X2159Y1705D01*
X2240Y1705D02*
X2259Y1705D01*
X2340Y1705D02*
X2359Y1705D01*
X1045Y1704D02*
X1054Y1704D01*
X1145Y1704D02*
X1154Y1704D01*
X1245Y1704D02*
X1254Y1704D01*
X1345Y1704D02*
X1354Y1704D01*
X1445Y1704D02*
X1454Y1704D01*
X1545Y1704D02*
X1554Y1704D01*
X1645Y1704D02*
X1654Y1704D01*
X1745Y1704D02*
X1754Y1704D01*
X1845Y1704D02*
X1854Y1704D01*
X1945Y1704D02*
X1954Y1704D01*
X2045Y1704D02*
X2054Y1704D01*
X2145Y1704D02*
X2154Y1704D01*
X2245Y1704D02*
X2254Y1704D01*
X2345Y1704D02*
X2354Y1704D01*
D02*
G04 End of Mask0*
M02*