G04 MADE WITH FRITZING*
G04 WWW.FRITZING.ORG*
G04 DOUBLE SIDED*
G04 HOLES PLATED*
G04 CONTOUR ON CENTER OF CONTOUR VECTOR*
%ASAXBY*%
%FSLAX23Y23*%
%MOIN*%
%OFA0B0*%
%SFA1.0B1.0*%
%ADD10C,0.074000*%
%ADD11C,0.078000*%
%ADD12C,0.074667*%
%ADD13C,0.074695*%
%ADD14C,0.124033*%
%ADD15C,0.075000*%
%ADD16C,0.039370*%
%ADD17C,0.080000*%
%ADD18R,0.080000X0.080000*%
%ADD19C,0.024000*%
%ADD20C,0.008000*%
%LNCOPPER1*%
G90*
G70*
G54D10*
X1098Y2093D03*
X998Y2093D03*
X898Y2093D03*
X798Y2093D03*
X698Y2093D03*
X598Y2093D03*
X1033Y1548D03*
X1033Y1648D03*
X1033Y1138D03*
X1033Y1238D03*
X1148Y1993D03*
X1148Y1893D03*
X1148Y1793D03*
X1148Y1693D03*
X1148Y1593D03*
X1148Y1493D03*
X1148Y1393D03*
X1148Y1293D03*
X1148Y1193D03*
X1148Y1093D03*
X1148Y993D03*
X1148Y893D03*
X548Y893D03*
X548Y993D03*
X548Y1093D03*
X548Y1193D03*
X548Y1293D03*
X548Y1393D03*
X548Y1493D03*
X548Y1593D03*
X548Y1693D03*
X548Y1793D03*
X548Y1893D03*
X548Y1993D03*
G54D11*
X159Y1711D03*
X159Y1811D03*
X159Y1911D03*
X159Y2011D03*
X159Y1711D03*
X159Y1811D03*
X159Y1911D03*
X159Y2011D03*
G54D12*
X1136Y176D03*
X1036Y176D03*
G54D13*
X936Y176D03*
G54D14*
X1230Y472D03*
X841Y472D03*
G54D12*
X1136Y176D03*
X1036Y176D03*
G54D13*
X936Y176D03*
G54D14*
X1230Y472D03*
X841Y472D03*
G54D15*
X366Y1687D03*
X366Y1587D03*
X366Y1487D03*
X329Y926D03*
X329Y1026D03*
X161Y1281D03*
X161Y1381D03*
X381Y735D03*
X381Y635D03*
G54D11*
X154Y1074D03*
X154Y974D03*
X154Y874D03*
X154Y774D03*
X154Y674D03*
X154Y574D03*
X154Y474D03*
X154Y374D03*
X1489Y1770D03*
X1489Y1670D03*
X1489Y1570D03*
X1489Y1470D03*
X1489Y1370D03*
X1489Y1270D03*
X1489Y1170D03*
X1489Y1070D03*
X1489Y970D03*
X1489Y870D03*
X1489Y770D03*
X1489Y670D03*
X1489Y570D03*
X1489Y1770D03*
X1489Y1670D03*
X1489Y1570D03*
X1489Y1470D03*
X1489Y1370D03*
X1489Y1270D03*
X1489Y1170D03*
X1489Y1070D03*
X1489Y970D03*
X1489Y870D03*
X1489Y770D03*
X1489Y670D03*
X1489Y570D03*
X1589Y570D03*
X1589Y670D03*
X1589Y770D03*
X1589Y870D03*
X1589Y970D03*
X1589Y1070D03*
X1589Y1170D03*
X1589Y1270D03*
X1589Y1370D03*
X1589Y1470D03*
X1589Y1570D03*
X1589Y1670D03*
X1589Y1770D03*
G54D16*
X1244Y686D03*
X646Y803D03*
G54D17*
X601Y260D03*
X464Y260D03*
G54D18*
X601Y260D03*
G54D19*
X790Y289D02*
X1118Y286D01*
D02*
X1118Y286D02*
X1131Y208D01*
D02*
X696Y363D02*
X790Y289D01*
D02*
X184Y373D02*
X696Y363D01*
D02*
X377Y370D02*
X380Y606D01*
D02*
X184Y373D02*
X377Y370D01*
D02*
X183Y681D02*
X353Y727D01*
D02*
X70Y534D02*
X72Y1741D01*
D02*
X130Y491D02*
X70Y534D01*
D02*
X72Y1741D02*
X136Y1792D01*
D02*
X442Y853D02*
X267Y853D01*
D02*
X267Y853D02*
X184Y868D01*
D02*
X448Y1414D02*
X442Y853D01*
D02*
X524Y1474D02*
X448Y1414D01*
D02*
X409Y733D02*
X1225Y687D01*
G54D20*
D02*
X183Y2016D02*
X496Y2083D01*
D02*
X626Y2017D02*
X1014Y1666D01*
D02*
X496Y2083D02*
X626Y2017D01*
D02*
X990Y822D02*
X1310Y820D01*
D02*
X612Y1495D02*
X990Y822D01*
D02*
X1381Y1269D02*
X1465Y1270D01*
D02*
X1310Y820D02*
X1381Y1269D01*
D02*
X574Y1494D02*
X612Y1495D01*
D02*
X755Y758D02*
X658Y798D01*
D02*
X1397Y490D02*
X1330Y725D01*
D02*
X1330Y725D02*
X755Y758D01*
D02*
X1613Y1464D02*
X1668Y1448D01*
D02*
X1668Y1448D02*
X1664Y487D01*
D02*
X1664Y487D02*
X1397Y490D01*
D02*
X962Y777D02*
X670Y1293D01*
D02*
X1405Y1169D02*
X1342Y775D01*
D02*
X670Y1293D02*
X574Y1293D01*
D02*
X1465Y1170D02*
X1405Y1169D01*
D02*
X1342Y775D02*
X962Y777D01*
G54D19*
D02*
X332Y1054D02*
X364Y1459D01*
D02*
X1570Y1874D02*
X1584Y1800D01*
D02*
X1252Y1881D02*
X1570Y1874D01*
D02*
X495Y2223D02*
X1250Y2207D01*
D02*
X1250Y2207D02*
X1252Y1881D01*
D02*
X135Y1829D02*
X57Y1885D01*
D02*
X57Y1885D02*
X71Y2082D01*
D02*
X246Y2082D02*
X495Y2223D01*
D02*
X71Y2082D02*
X246Y2082D01*
D02*
X1252Y1710D02*
X1179Y1698D01*
D02*
X1252Y1881D02*
X1252Y1710D01*
D02*
X605Y361D02*
X603Y292D01*
D02*
X380Y606D02*
X379Y365D01*
D02*
X379Y365D02*
X605Y361D01*
G04 End of Copper1*
M02*