G04 MADE WITH FRITZING*
G04 WWW.FRITZING.ORG*
G04 DOUBLE SIDED*
G04 HOLES PLATED*
G04 CONTOUR ON CENTER OF CONTOUR VECTOR*
%ASAXBY*%
%FSLAX23Y23*%
%MOIN*%
%OFA0B0*%
%SFA1.0B1.0*%
%ADD10C,0.074000*%
%ADD11C,0.078000*%
%ADD12C,0.074667*%
%ADD13C,0.074695*%
%ADD14C,0.124033*%
%ADD15C,0.075000*%
%ADD16C,0.039370*%
%ADD17C,0.080000*%
%ADD18R,0.080000X0.080000*%
%ADD19C,0.024000*%
%ADD20C,0.008000*%
%LNCOPPER0*%
G90*
G70*
G54D10*
X1098Y2093D03*
X998Y2093D03*
X898Y2093D03*
X798Y2093D03*
X698Y2093D03*
X598Y2093D03*
X1033Y1548D03*
X1033Y1648D03*
X1033Y1138D03*
X1033Y1238D03*
X1148Y1993D03*
X1148Y1893D03*
X1148Y1793D03*
X1148Y1693D03*
X1148Y1593D03*
X1148Y1493D03*
X1148Y1393D03*
X1148Y1293D03*
X1148Y1193D03*
X1148Y1093D03*
X1148Y993D03*
X1148Y893D03*
X548Y893D03*
X548Y993D03*
X548Y1093D03*
X548Y1193D03*
X548Y1293D03*
X548Y1393D03*
X548Y1493D03*
X548Y1593D03*
X548Y1693D03*
X548Y1793D03*
X548Y1893D03*
X548Y1993D03*
G54D11*
X159Y1711D03*
X159Y1811D03*
X159Y1911D03*
X159Y2011D03*
X159Y1711D03*
X159Y1811D03*
X159Y1911D03*
X159Y2011D03*
G54D12*
X1136Y176D03*
X1036Y176D03*
G54D13*
X936Y176D03*
G54D14*
X1230Y472D03*
X841Y472D03*
G54D12*
X1136Y176D03*
X1036Y176D03*
G54D13*
X936Y176D03*
G54D14*
X1230Y472D03*
X841Y472D03*
G54D15*
X366Y1687D03*
X366Y1587D03*
X366Y1487D03*
X329Y926D03*
X329Y1026D03*
X161Y1281D03*
X161Y1381D03*
X381Y735D03*
X381Y635D03*
G54D11*
X154Y1074D03*
X154Y974D03*
X154Y874D03*
X154Y774D03*
X154Y674D03*
X154Y574D03*
X154Y474D03*
X154Y374D03*
X1489Y1770D03*
X1489Y1670D03*
X1489Y1570D03*
X1489Y1470D03*
X1489Y1370D03*
X1489Y1270D03*
X1489Y1170D03*
X1489Y1070D03*
X1489Y970D03*
X1489Y870D03*
X1489Y770D03*
X1489Y670D03*
X1489Y570D03*
X1489Y1770D03*
X1489Y1670D03*
X1489Y1570D03*
X1489Y1470D03*
X1489Y1370D03*
X1489Y1270D03*
X1489Y1170D03*
X1489Y1070D03*
X1489Y970D03*
X1489Y870D03*
X1489Y770D03*
X1489Y670D03*
X1489Y570D03*
X1589Y570D03*
X1589Y670D03*
X1589Y770D03*
X1589Y870D03*
X1589Y970D03*
X1589Y1070D03*
X1589Y1170D03*
X1589Y1270D03*
X1589Y1370D03*
X1589Y1470D03*
X1589Y1570D03*
X1589Y1670D03*
X1589Y1770D03*
G54D16*
X1244Y686D03*
X646Y803D03*
G54D17*
X601Y260D03*
X464Y260D03*
G54D18*
X601Y260D03*
G54D19*
X938Y1393D02*
X1117Y1393D01*
D02*
X951Y623D02*
X938Y1393D01*
D02*
X1030Y208D02*
X951Y623D01*
D02*
X184Y473D02*
X662Y471D01*
D02*
X662Y471D02*
X914Y200D01*
D02*
X154Y604D02*
X154Y643D01*
D02*
X154Y843D02*
X154Y804D01*
D02*
X160Y1252D02*
X155Y1104D01*
D02*
X517Y1692D02*
X395Y1688D01*
D02*
X338Y1690D02*
X189Y1707D01*
D02*
X325Y898D02*
X268Y576D01*
D02*
X268Y576D02*
X177Y494D01*
D02*
X183Y982D02*
X302Y1018D01*
D02*
X175Y1406D02*
X244Y1537D01*
D02*
X244Y1537D02*
X339Y1576D01*
D02*
X1664Y1887D02*
X1180Y1893D01*
D02*
X1664Y1627D02*
X1664Y1887D01*
D02*
X1613Y1589D02*
X1664Y1627D01*
D02*
X1668Y492D02*
X1672Y1530D01*
D02*
X1672Y1530D02*
X1616Y1557D01*
D02*
X1357Y487D02*
X1668Y492D01*
D02*
X1154Y202D02*
X1357Y487D01*
D02*
X1244Y705D02*
X1257Y1238D01*
D02*
X1257Y1238D02*
X1176Y1279D01*
G54D20*
D02*
X626Y2020D02*
X775Y1765D01*
D02*
X496Y2082D02*
X626Y2020D01*
D02*
X181Y1922D02*
X496Y2082D01*
D02*
X417Y1187D02*
X183Y1273D01*
D02*
X632Y803D02*
X411Y807D01*
D02*
X411Y807D02*
X417Y1187D01*
D02*
X792Y1744D02*
X1014Y1564D01*
G54D19*
D02*
X184Y474D02*
X462Y476D01*
D02*
X462Y476D02*
X463Y292D01*
G04 End of Copper0*
M02*