; NON-PLATED HOLES START AT T1
; THROUGH (PLATED) HOLES START AT T100
M48
INCH
T1C0.165354
T100C0.041333
T101C0.041361
T102C0.015748
T103C0.038000
T104C0.040000
T105C0.088356
T106C0.035000
%
T1
X032147Y022350
X001301Y022260
X001248Y001253
X032167Y001272
T100
X011355Y001763
X010355Y001763
T101
X009355Y001763
T102
X006457Y008026
X012435Y006862
T103
X001541Y005735
X001591Y020108
X014893Y011701
X015893Y011701
X014893Y016701
X001591Y017108
X014893Y008701
X015893Y016701
X001541Y003735
X015893Y008701
X001541Y008735
X014893Y014701
X014893Y006701
X015893Y014701
X015893Y006701
X001541Y006735
X014893Y012701
X015893Y012701
X014893Y017701
X001591Y018108
X014893Y009701
X015893Y017701
X001541Y004735
X015893Y009701
X014893Y010701
X001541Y009735
X015893Y010701
X014893Y015701
X001541Y010735
X014893Y007701
X015893Y015701
X015893Y007701
X001541Y007735
X014893Y013701
X014893Y005701
X015893Y013701
X001591Y019108
X015893Y005701
T104
X011484Y016933
X011484Y008933
X005484Y012933
X005484Y017933
X011484Y014933
X005484Y009933
X011484Y019933
X005484Y010933
X005484Y015933
X010334Y016483
X010334Y012383
X011484Y012933
X011484Y017933
X011484Y009933
X005484Y013933
X006014Y002604
X011484Y010933
X006984Y020933
X005484Y018933
X005984Y020933
X007984Y020933
X009984Y020933
X011484Y015933
X004636Y002604
X008984Y020933
X005484Y011933
X005484Y016933
X011484Y013933
X005484Y008933
X010984Y020933
X011484Y018933
X005484Y014933
X010334Y015483
X010334Y011383
X011484Y011933
X005484Y019933
T105
X008414Y004716
X012297Y004716
T106
X003805Y006348
X003805Y007348
X003294Y009258
X003659Y014870
X001614Y012808
X003659Y015870
X001614Y013808
X003294Y010258
X003659Y016870
T00
M30
